<svg xmlns="http://www.w3.org/2000/svg" width="50.76" height="65.32" viewBox="0 0 50.76 65.32"><defs><style>.a{fill:#21364f;}</style></defs><title>Asset 118</title><path class="a" d="M26.16,62.74a5.11,5.11,0,0,0-.09-1.09,1.77,1.77,0,0,0-1.85-1.42,1.69,1.69,0,0,0-1.9,1.36,5.94,5.94,0,0,0-.05,1.24A4.36,4.36,0,0,0,22.34,64a1.72,1.72,0,0,0,1.8,1.28A1.88,1.88,0,0,0,26.08,64,4.89,4.89,0,0,0,26.16,62.74Z"/><path class="a" d="M33.87,62.74a5.92,5.92,0,0,0-.08-1.09,1.79,1.79,0,0,0-1.86-1.42A1.69,1.69,0,0,0,30,61.59,5.94,5.94,0,0,0,30,62.83,4.78,4.78,0,0,0,30.05,64a1.73,1.73,0,0,0,1.8,1.28A1.88,1.88,0,0,0,33.79,64,4.89,4.89,0,0,0,33.87,62.74Z"/><path class="a" d="M37.76,62.74a5.92,5.92,0,0,0-.08-1.09,1.78,1.78,0,0,0-1.85-1.42,1.69,1.69,0,0,0-1.91,1.36,6,6,0,0,0,0,1.24A4.37,4.37,0,0,0,33.94,64a1.73,1.73,0,0,0,1.8,1.28A1.87,1.87,0,0,0,37.68,64,4.89,4.89,0,0,0,37.76,62.74Z"/><path class="a" d="M26.12,62.74a5.92,5.92,0,0,1,.08-1.09,1.79,1.79,0,0,1,1.86-1.42A1.69,1.69,0,0,1,30,61.59,5.94,5.94,0,0,1,30,62.83,4.78,4.78,0,0,1,29.94,64a1.73,1.73,0,0,1-1.8,1.28,1.82,1.82,0,0,1-1.95-1.19A5.68,5.68,0,0,1,26.12,62.74Z"/><path class="a" d="M10.67,62.74a5.85,5.85,0,0,0-.09-1.09,1.78,1.78,0,0,0-1.85-1.42,1.68,1.68,0,0,0-1.9,1.36,5.33,5.33,0,0,0,0,1.24A4.37,4.37,0,0,0,6.84,64a1.74,1.74,0,0,0,1.81,1.28A1.86,1.86,0,0,0,10.58,64,4.88,4.88,0,0,0,10.67,62.74Z"/><path class="a" d="M18.38,62.74a5.92,5.92,0,0,0-.08-1.09,1.79,1.79,0,0,0-1.86-1.42,1.69,1.69,0,0,0-1.9,1.36,5.94,5.94,0,0,0,0,1.24A4.78,4.78,0,0,0,14.56,64a1.73,1.73,0,0,0,1.8,1.28A1.88,1.88,0,0,0,18.3,64,4.89,4.89,0,0,0,18.38,62.74Z"/><path class="a" d="M22.27,62.74a5.92,5.92,0,0,0-.08-1.09,1.79,1.79,0,0,0-1.86-1.42,1.69,1.69,0,0,0-1.9,1.36,5.94,5.94,0,0,0-.05,1.24A4.78,4.78,0,0,0,18.45,64a1.73,1.73,0,0,0,1.8,1.28A1.88,1.88,0,0,0,22.19,64,4.89,4.89,0,0,0,22.27,62.74Z"/><path class="a" d="M10.63,62.74a5.92,5.92,0,0,1,.08-1.09,1.79,1.79,0,0,1,1.86-1.42,1.69,1.69,0,0,1,1.9,1.36,5.94,5.94,0,0,1,0,1.24A4.78,4.78,0,0,1,14.45,64a1.73,1.73,0,0,1-1.8,1.28,1.84,1.84,0,0,1-2-1.19A6.25,6.25,0,0,1,10.63,62.74Z"/><path class="a" d="M37.74,62.74a5.85,5.85,0,0,1,.09-1.09,1.78,1.78,0,0,1,1.85-1.42,1.69,1.69,0,0,1,1.91,1.36,6,6,0,0,1,0,1.24A4.37,4.37,0,0,1,41.57,64a1.73,1.73,0,0,1-1.81,1.28,1.83,1.83,0,0,1-1.95-1.19A5.68,5.68,0,0,1,37.74,62.74Z"/><path class="a" d="M41.64,62.74a5.92,5.92,0,0,1,.08-1.09,1.78,1.78,0,0,1,1.85-1.42,1.69,1.69,0,0,1,1.91,1.36,6,6,0,0,1,0,1.24A4.37,4.37,0,0,1,45.46,64a1.73,1.73,0,0,1-1.81,1.28,1.83,1.83,0,0,1-1.95-1.19A5.7,5.7,0,0,1,41.64,62.74Z"/><path class="a" d="M31.39,9.21a5.26,5.26,0,0,0-.09-1.1,1.77,1.77,0,0,0-1.85-1.42,1.7,1.7,0,0,0-1.9,1.36A6,6,0,0,0,27.5,9.3a4.31,4.31,0,0,0,.07,1.2,1.71,1.71,0,0,0,1.8,1.28,1.87,1.87,0,0,0,1.94-1.29A4.82,4.82,0,0,0,31.39,9.21Z"/><path class="a" d="M39.1,9.21A6.1,6.1,0,0,0,39,8.11a1.79,1.79,0,0,0-1.86-1.42,1.7,1.7,0,0,0-1.9,1.36,6,6,0,0,0,0,1.25,4.73,4.73,0,0,0,.07,1.2,1.72,1.72,0,0,0,1.8,1.28A1.87,1.87,0,0,0,39,10.49,4.82,4.82,0,0,0,39.1,9.21Z"/><path class="a" d="M43,9.21a6.1,6.1,0,0,0-.08-1.1,1.78,1.78,0,0,0-1.85-1.42,1.7,1.7,0,0,0-1.91,1.36,5.48,5.48,0,0,0,0,1.25,4.32,4.32,0,0,0,.06,1.2A1.72,1.72,0,0,0,41,11.78a1.86,1.86,0,0,0,1.94-1.29A4.82,4.82,0,0,0,43,9.21Z"/><path class="a" d="M31.35,9.21a6.1,6.1,0,0,1,.08-1.1,1.79,1.79,0,0,1,1.86-1.42,1.7,1.7,0,0,1,1.9,1.36,6,6,0,0,1,.05,1.25,4.73,4.73,0,0,1-.07,1.2,1.72,1.72,0,0,1-1.8,1.28,1.81,1.81,0,0,1-1.95-1.19A5.63,5.63,0,0,1,31.35,9.21Z"/><path class="a" d="M15.9,9.21a6,6,0,0,0-.09-1.1A1.78,1.78,0,0,0,14,6.69a1.68,1.68,0,0,0-1.9,1.36A5.41,5.41,0,0,0,12,9.3a4.32,4.32,0,0,0,.06,1.2,1.73,1.73,0,0,0,1.81,1.28,1.85,1.85,0,0,0,1.93-1.29A4.8,4.8,0,0,0,15.9,9.21Z"/><path class="a" d="M23.61,9.21a6.1,6.1,0,0,0-.08-1.1,1.79,1.79,0,0,0-1.86-1.42,1.7,1.7,0,0,0-1.9,1.36,6,6,0,0,0-.05,1.25,4.73,4.73,0,0,0,.07,1.2,1.72,1.72,0,0,0,1.8,1.28,1.87,1.87,0,0,0,1.94-1.29A4.82,4.82,0,0,0,23.61,9.21Z"/><path class="a" d="M27.5,9.21a6.1,6.1,0,0,0-.08-1.1,1.79,1.79,0,0,0-1.86-1.42,1.7,1.7,0,0,0-1.9,1.36,6,6,0,0,0-.05,1.25,4.73,4.73,0,0,0,.07,1.2,1.72,1.72,0,0,0,1.8,1.28,1.87,1.87,0,0,0,1.94-1.29A4.82,4.82,0,0,0,27.5,9.21Z"/><path class="a" d="M15.86,9.21a6.1,6.1,0,0,1,.08-1.1A1.79,1.79,0,0,1,17.8,6.69a1.7,1.7,0,0,1,1.9,1.36,6,6,0,0,1,.05,1.25,4.73,4.73,0,0,1-.07,1.2,1.72,1.72,0,0,1-1.8,1.28,1.83,1.83,0,0,1-2-1.19A5.65,5.65,0,0,1,15.86,9.21Z"/><path class="a" d="M43,9.21a6,6,0,0,1,.09-1.1,1.78,1.78,0,0,1,1.85-1.42,1.7,1.7,0,0,1,1.91,1.36,6.12,6.12,0,0,1,0,1.25,4.32,4.32,0,0,1-.06,1.2A1.73,1.73,0,0,1,45,11.78a1.81,1.81,0,0,1-2-1.19A5.63,5.63,0,0,1,43,9.21Z"/><path class="a" d="M46.87,9.21A6.1,6.1,0,0,1,47,8.11,1.78,1.78,0,0,1,48.8,6.69a1.7,1.7,0,0,1,1.91,1.36,6.12,6.12,0,0,1,0,1.25,4.32,4.32,0,0,1-.06,1.2,1.72,1.72,0,0,1-1.81,1.28,1.81,1.81,0,0,1-2-1.19A5.65,5.65,0,0,1,46.87,9.21Z"/><path class="a" d="M31.39,15.9a5.11,5.11,0,0,0-.09-1.09,1.77,1.77,0,0,0-1.85-1.43,1.7,1.7,0,0,0-1.9,1.37A5.91,5.91,0,0,0,27.5,16a4.29,4.29,0,0,0,.07,1.2,1.7,1.7,0,0,0,1.8,1.28,1.87,1.87,0,0,0,1.94-1.29A4.82,4.82,0,0,0,31.39,15.9Z"/><path class="a" d="M39.1,15.9A5.92,5.92,0,0,0,39,14.81a1.78,1.78,0,0,0-1.86-1.43,1.7,1.7,0,0,0-1.9,1.37,5.91,5.91,0,0,0,0,1.24,4.7,4.7,0,0,0,.07,1.2,1.71,1.71,0,0,0,1.8,1.28A1.87,1.87,0,0,0,39,17.18,4.82,4.82,0,0,0,39.1,15.9Z"/><path class="a" d="M43,15.9a5.92,5.92,0,0,0-.08-1.09,1.78,1.78,0,0,0-1.85-1.43,1.7,1.7,0,0,0-1.91,1.37,5.36,5.36,0,0,0,0,1.24,4.3,4.3,0,0,0,.06,1.2A1.71,1.71,0,0,0,41,18.47a1.86,1.86,0,0,0,1.94-1.29A4.82,4.82,0,0,0,43,15.9Z"/><path class="a" d="M31.35,15.9a5.92,5.92,0,0,1,.08-1.09,1.78,1.78,0,0,1,1.86-1.43,1.7,1.7,0,0,1,1.9,1.37A5.91,5.91,0,0,1,35.24,16a4.7,4.7,0,0,1-.07,1.2,1.71,1.71,0,0,1-1.8,1.28,1.8,1.8,0,0,1-1.95-1.18A5.74,5.74,0,0,1,31.35,15.9Z"/><path class="a" d="M15.9,15.9a5.85,5.85,0,0,0-.09-1.09A1.77,1.77,0,0,0,14,13.38a1.68,1.68,0,0,0-1.9,1.37A5.3,5.3,0,0,0,12,16a4.3,4.3,0,0,0,.06,1.2,1.72,1.72,0,0,0,1.81,1.28,1.85,1.85,0,0,0,1.93-1.29A4.8,4.8,0,0,0,15.9,15.9Z"/><path class="a" d="M23.61,15.9a5.92,5.92,0,0,0-.08-1.09,1.78,1.78,0,0,0-1.86-1.43,1.7,1.7,0,0,0-1.9,1.37A5.91,5.91,0,0,0,19.72,16a4.7,4.7,0,0,0,.07,1.2,1.71,1.71,0,0,0,1.8,1.28,1.87,1.87,0,0,0,1.94-1.29A4.82,4.82,0,0,0,23.61,15.9Z"/><path class="a" d="M27.5,15.9a5.92,5.92,0,0,0-.08-1.09,1.78,1.78,0,0,0-1.86-1.43,1.7,1.7,0,0,0-1.9,1.37A5.91,5.91,0,0,0,23.61,16a4.7,4.7,0,0,0,.07,1.2,1.71,1.71,0,0,0,1.8,1.28,1.87,1.87,0,0,0,1.94-1.29A4.82,4.82,0,0,0,27.5,15.9Z"/><path class="a" d="M15.86,15.9a5.92,5.92,0,0,1,.08-1.09,1.78,1.78,0,0,1,1.86-1.43,1.7,1.7,0,0,1,1.9,1.37A5.91,5.91,0,0,1,19.75,16a4.7,4.7,0,0,1-.07,1.2,1.71,1.71,0,0,1-1.8,1.28,1.82,1.82,0,0,1-2-1.18A5.75,5.75,0,0,1,15.86,15.9Z"/><path class="a" d="M43,15.9a5.85,5.85,0,0,1,.09-1.09,1.77,1.77,0,0,1,1.85-1.43,1.7,1.7,0,0,1,1.91,1.37,6,6,0,0,1,0,1.24,4.3,4.3,0,0,1-.06,1.2A1.72,1.72,0,0,1,45,18.47a1.81,1.81,0,0,1-2-1.18A5.74,5.74,0,0,1,43,15.9Z"/><path class="a" d="M46.87,15.9A5.92,5.92,0,0,1,47,14.81a1.77,1.77,0,0,1,1.85-1.43,1.7,1.7,0,0,1,1.91,1.37,6,6,0,0,1,0,1.24,4.3,4.3,0,0,1-.06,1.2,1.71,1.71,0,0,1-1.81,1.28,1.81,1.81,0,0,1-2-1.18A5.75,5.75,0,0,1,46.87,15.9Z"/><path class="a" d="M31.39,22.59a5.11,5.11,0,0,0-.09-1.09,1.77,1.77,0,0,0-1.85-1.42,1.69,1.69,0,0,0-1.9,1.36,5.91,5.91,0,0,0-.05,1.24,4.36,4.36,0,0,0,.07,1.21,1.72,1.72,0,0,0,1.8,1.28,1.89,1.89,0,0,0,1.94-1.3A4.82,4.82,0,0,0,31.39,22.59Z"/><path class="a" d="M39.1,22.59A5.92,5.92,0,0,0,39,21.5a1.79,1.79,0,0,0-1.86-1.42,1.69,1.69,0,0,0-1.9,1.36,5.91,5.91,0,0,0,0,1.24,4.78,4.78,0,0,0,.07,1.21,1.73,1.73,0,0,0,1.8,1.28A1.88,1.88,0,0,0,39,23.87,4.82,4.82,0,0,0,39.1,22.59Z"/><path class="a" d="M43,22.59a5.92,5.92,0,0,0-.08-1.09,1.78,1.78,0,0,0-1.85-1.42,1.69,1.69,0,0,0-1.91,1.36,5.36,5.36,0,0,0,0,1.24,4.37,4.37,0,0,0,.06,1.21A1.73,1.73,0,0,0,41,25.17a1.88,1.88,0,0,0,1.94-1.3A4.82,4.82,0,0,0,43,22.59Z"/><path class="a" d="M31.35,22.59a5.92,5.92,0,0,1,.08-1.09,1.79,1.79,0,0,1,1.86-1.42,1.69,1.69,0,0,1,1.9,1.36,5.91,5.91,0,0,1,.05,1.24,4.78,4.78,0,0,1-.07,1.21,1.73,1.73,0,0,1-1.8,1.28A1.82,1.82,0,0,1,31.42,24,5.71,5.71,0,0,1,31.35,22.59Z"/><path class="a" d="M15.9,22.59a5.85,5.85,0,0,0-.09-1.09A1.78,1.78,0,0,0,14,20.08a1.68,1.68,0,0,0-1.9,1.36A5.3,5.3,0,0,0,12,22.68a4.37,4.37,0,0,0,.06,1.21,1.74,1.74,0,0,0,1.81,1.28,1.87,1.87,0,0,0,1.93-1.3A4.8,4.8,0,0,0,15.9,22.59Z"/><path class="a" d="M23.61,22.59a5.92,5.92,0,0,0-.08-1.09,1.79,1.79,0,0,0-1.86-1.42,1.69,1.69,0,0,0-1.9,1.36,5.91,5.91,0,0,0-.05,1.24,4.78,4.78,0,0,0,.07,1.21,1.73,1.73,0,0,0,1.8,1.28,1.89,1.89,0,0,0,1.94-1.3A4.82,4.82,0,0,0,23.61,22.59Z"/><path class="a" d="M27.5,22.59a5.92,5.92,0,0,0-.08-1.09,1.79,1.79,0,0,0-1.86-1.42,1.69,1.69,0,0,0-1.9,1.36,5.91,5.91,0,0,0-.05,1.24,4.78,4.78,0,0,0,.07,1.21,1.73,1.73,0,0,0,1.8,1.28,1.88,1.88,0,0,0,1.94-1.3A4.82,4.82,0,0,0,27.5,22.59Z"/><path class="a" d="M15.86,22.59a5.92,5.92,0,0,1,.08-1.09,1.79,1.79,0,0,1,1.86-1.42,1.69,1.69,0,0,1,1.9,1.36,5.91,5.91,0,0,1,.05,1.24,4.78,4.78,0,0,1-.07,1.21,1.73,1.73,0,0,1-1.8,1.28,1.84,1.84,0,0,1-2-1.19A5.73,5.73,0,0,1,15.86,22.59Z"/><path class="a" d="M43,22.59a5.85,5.85,0,0,1,.09-1.09,1.78,1.78,0,0,1,1.85-1.42,1.69,1.69,0,0,1,1.91,1.36,6,6,0,0,1,0,1.24,4.37,4.37,0,0,1-.06,1.21A1.74,1.74,0,0,1,45,25.17,1.83,1.83,0,0,1,43,24,5.71,5.71,0,0,1,43,22.59Z"/><path class="a" d="M46.87,22.59A5.92,5.92,0,0,1,47,21.5a1.78,1.78,0,0,1,1.85-1.42,1.69,1.69,0,0,1,1.91,1.36,6,6,0,0,1,0,1.24,4.37,4.37,0,0,1-.06,1.21,1.73,1.73,0,0,1-1.81,1.28,1.83,1.83,0,0,1-2-1.19A5.73,5.73,0,0,1,46.87,22.59Z"/><path class="a" d="M31.39,29.28a5.11,5.11,0,0,0-.09-1.09,1.77,1.77,0,0,0-1.85-1.42,1.69,1.69,0,0,0-1.9,1.36,5.94,5.94,0,0,0-.05,1.24,4.36,4.36,0,0,0,.07,1.21,1.72,1.72,0,0,0,1.8,1.28,1.88,1.88,0,0,0,1.94-1.29A4.89,4.89,0,0,0,31.39,29.28Z"/><path class="a" d="M39.1,29.28A5.92,5.92,0,0,0,39,28.19a1.79,1.79,0,0,0-1.86-1.42,1.69,1.69,0,0,0-1.9,1.36,5.94,5.94,0,0,0,0,1.24,4.78,4.78,0,0,0,.07,1.21,1.73,1.73,0,0,0,1.8,1.28A1.88,1.88,0,0,0,39,30.57,4.89,4.89,0,0,0,39.1,29.28Z"/><path class="a" d="M43,29.28a5.92,5.92,0,0,0-.08-1.09,1.78,1.78,0,0,0-1.85-1.42,1.69,1.69,0,0,0-1.91,1.36,5.39,5.39,0,0,0,0,1.24,4.37,4.37,0,0,0,.06,1.21A1.73,1.73,0,0,0,41,31.86a1.87,1.87,0,0,0,1.94-1.29A4.89,4.89,0,0,0,43,29.28Z"/><path class="a" d="M31.35,29.28a5.92,5.92,0,0,1,.08-1.09,1.79,1.79,0,0,1,1.86-1.42,1.69,1.69,0,0,1,1.9,1.36,5.94,5.94,0,0,1,.05,1.24,4.78,4.78,0,0,1-.07,1.21,1.73,1.73,0,0,1-1.8,1.28,1.82,1.82,0,0,1-1.95-1.19A5.68,5.68,0,0,1,31.35,29.28Z"/><path class="a" d="M15.9,29.28a5.85,5.85,0,0,0-.09-1.09A1.78,1.78,0,0,0,14,26.77a1.68,1.68,0,0,0-1.9,1.36A5.33,5.33,0,0,0,12,29.37a4.37,4.37,0,0,0,.06,1.21,1.74,1.74,0,0,0,1.81,1.28,1.86,1.86,0,0,0,1.93-1.29A4.88,4.88,0,0,0,15.9,29.28Z"/><path class="a" d="M23.61,29.28a5.92,5.92,0,0,0-.08-1.09,1.79,1.79,0,0,0-1.86-1.42,1.69,1.69,0,0,0-1.9,1.36,5.94,5.94,0,0,0-.05,1.24,4.78,4.78,0,0,0,.07,1.21,1.73,1.73,0,0,0,1.8,1.28,1.88,1.88,0,0,0,1.94-1.29A4.89,4.89,0,0,0,23.61,29.28Z"/><path class="a" d="M27.5,29.28a5.92,5.92,0,0,0-.08-1.09,1.79,1.79,0,0,0-1.86-1.42,1.69,1.69,0,0,0-1.9,1.36,5.94,5.94,0,0,0-.05,1.24,4.78,4.78,0,0,0,.07,1.21,1.73,1.73,0,0,0,1.8,1.28,1.88,1.88,0,0,0,1.94-1.29A4.89,4.89,0,0,0,27.5,29.28Z"/><path class="a" d="M15.86,29.28a5.92,5.92,0,0,1,.08-1.09,1.79,1.79,0,0,1,1.86-1.42,1.69,1.69,0,0,1,1.9,1.36,5.94,5.94,0,0,1,.05,1.24,4.78,4.78,0,0,1-.07,1.21,1.73,1.73,0,0,1-1.8,1.28,1.84,1.84,0,0,1-2-1.19A5.7,5.7,0,0,1,15.86,29.28Z"/><path class="a" d="M43,29.28a5.85,5.85,0,0,1,.09-1.09,1.78,1.78,0,0,1,1.85-1.42,1.69,1.69,0,0,1,1.91,1.36,6,6,0,0,1,0,1.24,4.37,4.37,0,0,1-.06,1.21A1.74,1.74,0,0,1,45,31.86a1.83,1.83,0,0,1-2-1.19A5.68,5.68,0,0,1,43,29.28Z"/><path class="a" d="M46.87,29.28A5.92,5.92,0,0,1,47,28.19a1.78,1.78,0,0,1,1.85-1.42,1.69,1.69,0,0,1,1.91,1.36,6,6,0,0,1,0,1.24,4.37,4.37,0,0,1-.06,1.21,1.73,1.73,0,0,1-1.81,1.28,1.83,1.83,0,0,1-2-1.19A5.7,5.7,0,0,1,46.87,29.28Z"/><path class="a" d="M31.39,36a5.15,5.15,0,0,0-.09-1.1,1.77,1.77,0,0,0-1.85-1.42,1.69,1.69,0,0,0-1.9,1.36,6,6,0,0,0-.05,1.24,4.36,4.36,0,0,0,.07,1.21,1.72,1.72,0,0,0,1.8,1.28,1.87,1.87,0,0,0,1.94-1.29A4.82,4.82,0,0,0,31.39,36Z"/><path class="a" d="M39.1,36a6,6,0,0,0-.08-1.1,1.79,1.79,0,0,0-1.86-1.42,1.69,1.69,0,0,0-1.9,1.36,6,6,0,0,0,0,1.24,4.78,4.78,0,0,0,.07,1.21,1.73,1.73,0,0,0,1.8,1.28A1.87,1.87,0,0,0,39,37.26,4.82,4.82,0,0,0,39.1,36Z"/><path class="a" d="M43,36a6,6,0,0,0-.08-1.1,1.78,1.78,0,0,0-1.85-1.42,1.69,1.69,0,0,0-1.91,1.36,5.41,5.41,0,0,0,0,1.24,4.37,4.37,0,0,0,.06,1.21A1.73,1.73,0,0,0,41,38.55a1.86,1.86,0,0,0,1.94-1.29A4.82,4.82,0,0,0,43,36Z"/><path class="a" d="M31.35,36a6,6,0,0,1,.08-1.1,1.79,1.79,0,0,1,1.86-1.42,1.69,1.69,0,0,1,1.9,1.36,6,6,0,0,1,.05,1.24,4.78,4.78,0,0,1-.07,1.21,1.73,1.73,0,0,1-1.8,1.28,1.81,1.81,0,0,1-1.95-1.19A5.63,5.63,0,0,1,31.35,36Z"/><path class="a" d="M15.9,36a5.89,5.89,0,0,0-.09-1.1A1.78,1.78,0,0,0,14,33.46a1.68,1.68,0,0,0-1.9,1.36A5.35,5.35,0,0,0,12,36.06a4.37,4.37,0,0,0,.06,1.21,1.74,1.74,0,0,0,1.81,1.28,1.85,1.85,0,0,0,1.93-1.29A4.8,4.8,0,0,0,15.9,36Z"/><path class="a" d="M23.61,36a6,6,0,0,0-.08-1.1,1.79,1.79,0,0,0-1.86-1.42,1.69,1.69,0,0,0-1.9,1.36,6,6,0,0,0-.05,1.24,4.78,4.78,0,0,0,.07,1.21,1.73,1.73,0,0,0,1.8,1.28,1.87,1.87,0,0,0,1.94-1.29A4.82,4.82,0,0,0,23.61,36Z"/><path class="a" d="M27.5,36a6,6,0,0,0-.08-1.1,1.79,1.79,0,0,0-1.86-1.42,1.69,1.69,0,0,0-1.9,1.36,6,6,0,0,0-.05,1.24,4.78,4.78,0,0,0,.07,1.21,1.73,1.73,0,0,0,1.8,1.28,1.87,1.87,0,0,0,1.94-1.29A4.82,4.82,0,0,0,27.5,36Z"/><path class="a" d="M15.86,36a6,6,0,0,1,.08-1.1,1.79,1.79,0,0,1,1.86-1.42,1.69,1.69,0,0,1,1.9,1.36,6,6,0,0,1,.05,1.24,4.78,4.78,0,0,1-.07,1.21,1.73,1.73,0,0,1-1.8,1.28,1.83,1.83,0,0,1-2-1.19A5.65,5.65,0,0,1,15.86,36Z"/><path class="a" d="M43,36a5.89,5.89,0,0,1,.09-1.1,1.78,1.78,0,0,1,1.85-1.42,1.69,1.69,0,0,1,1.91,1.36,6,6,0,0,1,0,1.24,4.37,4.37,0,0,1-.06,1.21A1.74,1.74,0,0,1,45,38.55a1.81,1.81,0,0,1-2-1.19A5.63,5.63,0,0,1,43,36Z"/><path class="a" d="M46.87,36a6,6,0,0,1,.08-1.1,1.78,1.78,0,0,1,1.85-1.42,1.69,1.69,0,0,1,1.91,1.36,6,6,0,0,1,0,1.24,4.37,4.37,0,0,1-.06,1.21,1.73,1.73,0,0,1-1.81,1.28,1.81,1.81,0,0,1-2-1.19A5.65,5.65,0,0,1,46.87,36Z"/><path class="a" d="M23.72,2.52a6,6,0,0,0-.08-1.1A1.79,1.79,0,0,0,21.78,0a1.7,1.7,0,0,0-1.9,1.36,6,6,0,0,0-.05,1.24,4.78,4.78,0,0,0,.07,1.21,1.73,1.73,0,0,0,1.8,1.28A1.87,1.87,0,0,0,23.64,3.8,4.82,4.82,0,0,0,23.72,2.52Z"/><path class="a" d="M31.44,2.52a6,6,0,0,0-.09-1.1A1.78,1.78,0,0,0,29.5,0a1.68,1.68,0,0,0-1.9,1.36,5.35,5.35,0,0,0-.05,1.24,4.37,4.37,0,0,0,.06,1.21,1.74,1.74,0,0,0,1.81,1.28A1.85,1.85,0,0,0,31.35,3.8,4.8,4.8,0,0,0,31.44,2.52Z"/><path class="a" d="M35.33,2.52a6,6,0,0,0-.09-1.1A1.78,1.78,0,0,0,33.39,0a1.68,1.68,0,0,0-1.9,1.36,5.35,5.35,0,0,0,0,1.24,4.37,4.37,0,0,0,.06,1.21,1.74,1.74,0,0,0,1.81,1.28A1.85,1.85,0,0,0,35.24,3.8,4.8,4.8,0,0,0,35.33,2.52Z"/><path class="a" d="M23.68,2.52a6,6,0,0,1,.09-1.1A1.78,1.78,0,0,1,25.62,0a1.68,1.68,0,0,1,1.9,1.36,5.35,5.35,0,0,1,.05,1.24,4.37,4.37,0,0,1-.06,1.21A1.74,1.74,0,0,1,25.7,5.09,1.81,1.81,0,0,1,23.75,3.9,5.63,5.63,0,0,1,23.68,2.52Z"/><path class="a" d="M15.94,2.52a6,6,0,0,0-.08-1.1A1.78,1.78,0,0,0,14,0,1.7,1.7,0,0,0,12.1,1.36a6,6,0,0,0,0,1.24,4.37,4.37,0,0,0,.06,1.21,1.73,1.73,0,0,0,1.8,1.28A1.86,1.86,0,0,0,15.86,3.8,4.82,4.82,0,0,0,15.94,2.52Z"/><path class="a" d="M19.83,2.52a6,6,0,0,0-.08-1.1A1.78,1.78,0,0,0,17.9,0,1.7,1.7,0,0,0,16,1.36,6,6,0,0,0,16,2.6,4.37,4.37,0,0,0,16,3.81a1.73,1.73,0,0,0,1.81,1.28A1.85,1.85,0,0,0,19.75,3.8,4.82,4.82,0,0,0,19.83,2.52Z"/><path class="a" d="M8.19,2.52a6,6,0,0,1,.08-1.1A1.79,1.79,0,0,1,10.13,0,1.7,1.7,0,0,1,12,1.36a6,6,0,0,1,.05,1.24A4.36,4.36,0,0,1,12,3.81a1.72,1.72,0,0,1-1.8,1.28,1.81,1.81,0,0,1-2-1.19A5.63,5.63,0,0,1,8.19,2.52Z"/><path class="a" d="M35.36,2.52a6,6,0,0,1,.08-1.1A1.78,1.78,0,0,1,37.29,0,1.7,1.7,0,0,1,39.2,1.36a6,6,0,0,1,0,1.24,4.37,4.37,0,0,1-.06,1.21,1.73,1.73,0,0,1-1.8,1.28,1.82,1.82,0,0,1-2-1.19A5.65,5.65,0,0,1,35.36,2.52Z"/><path class="a" d="M46.87,2.52A6,6,0,0,1,47,1.42,1.78,1.78,0,0,1,48.8,0a1.7,1.7,0,0,1,1.91,1.36,6,6,0,0,1,0,1.24,4.37,4.37,0,0,1-.06,1.21,1.73,1.73,0,0,1-1.81,1.28A1.85,1.85,0,0,1,47,3.8,4.82,4.82,0,0,1,46.87,2.52Z"/><path class="a" d="M46.9,2.52a6,6,0,0,0-.08-1.1A1.78,1.78,0,0,0,45,0a1.7,1.7,0,0,0-1.91,1.36A6,6,0,0,0,43,2.6a4.37,4.37,0,0,0,.06,1.21,1.73,1.73,0,0,0,1.81,1.28,1.81,1.81,0,0,0,2-1.19A5.65,5.65,0,0,0,46.9,2.52Z"/><path class="a" d="M23.51,56.05A5.85,5.85,0,0,0,23.42,55a1.78,1.78,0,0,0-1.85-1.43,1.68,1.68,0,0,0-1.9,1.37,5.3,5.3,0,0,0-.05,1.24,4.37,4.37,0,0,0,.06,1.21,1.72,1.72,0,0,0,1.81,1.27,1.85,1.85,0,0,0,1.93-1.29A4.8,4.8,0,0,0,23.51,56.05Z"/><path class="a" d="M31.22,56.05A5.92,5.92,0,0,0,31.14,55a1.79,1.79,0,0,0-1.86-1.43,1.7,1.7,0,0,0-1.9,1.37,5.91,5.91,0,0,0-.05,1.24,4.78,4.78,0,0,0,.07,1.21,1.71,1.71,0,0,0,1.8,1.27,1.87,1.87,0,0,0,1.94-1.29A4.82,4.82,0,0,0,31.22,56.05Z"/><path class="a" d="M35.11,56.05A5.92,5.92,0,0,0,35,55a1.79,1.79,0,0,0-1.86-1.43,1.7,1.7,0,0,0-1.9,1.37,5.91,5.91,0,0,0-.05,1.24,4.78,4.78,0,0,0,.07,1.21,1.71,1.71,0,0,0,1.8,1.27A1.87,1.87,0,0,0,35,57.33,4.82,4.82,0,0,0,35.11,56.05Z"/><path class="a" d="M23.47,56.05A5.92,5.92,0,0,1,23.55,55a1.79,1.79,0,0,1,1.86-1.43,1.7,1.7,0,0,1,1.9,1.37,5.91,5.91,0,0,1,.05,1.24,4.78,4.78,0,0,1-.07,1.21,1.71,1.71,0,0,1-1.8,1.27,1.82,1.82,0,0,1-2-1.18A5.75,5.75,0,0,1,23.47,56.05Z"/><path class="a" d="M15.73,56.05A5.11,5.11,0,0,0,15.64,55a1.78,1.78,0,0,0-1.85-1.43,1.7,1.7,0,0,0-1.9,1.37,5.91,5.91,0,0,0-.05,1.24,4.36,4.36,0,0,0,.07,1.21,1.7,1.7,0,0,0,1.8,1.27,1.87,1.87,0,0,0,1.94-1.29A4.82,4.82,0,0,0,15.73,56.05Z"/><path class="a" d="M19.62,56.05A5.92,5.92,0,0,0,19.54,55a1.79,1.79,0,0,0-1.86-1.43,1.7,1.7,0,0,0-1.9,1.37,5.91,5.91,0,0,0,0,1.24,4.78,4.78,0,0,0,.07,1.21,1.71,1.71,0,0,0,1.8,1.27,1.87,1.87,0,0,0,1.94-1.29A4.82,4.82,0,0,0,19.62,56.05Z"/><path class="a" d="M35.14,56.05A5.92,5.92,0,0,1,35.22,55a1.79,1.79,0,0,1,1.86-1.43A1.7,1.7,0,0,1,39,54.9,5.91,5.91,0,0,1,39,56.14,4.36,4.36,0,0,1,39,57.35a1.7,1.7,0,0,1-1.8,1.27,1.8,1.8,0,0,1-1.95-1.18A5.74,5.74,0,0,1,35.14,56.05Z"/><path class="a" d="M1.65,56.05A5.92,5.92,0,0,1,1.73,55a1.79,1.79,0,0,1,1.86-1.43,1.7,1.7,0,0,1,1.9,1.37,5.91,5.91,0,0,1,0,1.24,4.78,4.78,0,0,1-.07,1.21,1.71,1.71,0,0,1-1.8,1.27,1.82,1.82,0,0,1-2-1.18A5.75,5.75,0,0,1,1.65,56.05Z"/><path class="a" d="M46.84,56.05A5.85,5.85,0,0,0,46.75,55a1.78,1.78,0,0,0-1.85-1.43A1.68,1.68,0,0,0,43,54.9a5.3,5.3,0,0,0,0,1.24A4.37,4.37,0,0,0,43,57.35a1.72,1.72,0,0,0,1.81,1.27,1.85,1.85,0,0,0,1.93-1.29A4.8,4.8,0,0,0,46.84,56.05Z"/><path class="a" d="M46.87,56.05A5.92,5.92,0,0,1,47,55a1.78,1.78,0,0,1,1.85-1.43,1.7,1.7,0,0,1,1.91,1.37,6,6,0,0,1,0,1.24,4.37,4.37,0,0,1-.06,1.21,1.71,1.71,0,0,1-1.81,1.27,1.81,1.81,0,0,1-2-1.18A5.75,5.75,0,0,1,46.87,56.05Z"/><path class="a" d="M23.51,49.36a6,6,0,0,0-.09-1.1,1.78,1.78,0,0,0-1.85-1.42,1.68,1.68,0,0,0-1.9,1.37,5.3,5.3,0,0,0-.05,1.24,4.3,4.3,0,0,0,.06,1.2,1.72,1.72,0,0,0,1.81,1.28,1.85,1.85,0,0,0,1.93-1.29A4.8,4.8,0,0,0,23.51,49.36Z"/><path class="a" d="M31.22,49.36a6.1,6.1,0,0,0-.08-1.1,1.79,1.79,0,0,0-1.86-1.42,1.7,1.7,0,0,0-1.9,1.37,5.91,5.91,0,0,0-.05,1.24,4.7,4.7,0,0,0,.07,1.2,1.71,1.71,0,0,0,1.8,1.28,1.87,1.87,0,0,0,1.94-1.29A4.82,4.82,0,0,0,31.22,49.36Z"/><path class="a" d="M35.11,49.36a6.1,6.1,0,0,0-.08-1.1,1.79,1.79,0,0,0-1.86-1.42,1.7,1.7,0,0,0-1.9,1.37,5.91,5.91,0,0,0-.05,1.24,4.7,4.7,0,0,0,.07,1.2,1.71,1.71,0,0,0,1.8,1.28A1.87,1.87,0,0,0,35,50.64,4.82,4.82,0,0,0,35.11,49.36Z"/><path class="a" d="M23.47,49.36a6.1,6.1,0,0,1,.08-1.1,1.79,1.79,0,0,1,1.86-1.42,1.7,1.7,0,0,1,1.9,1.37,5.91,5.91,0,0,1,.05,1.24,4.7,4.7,0,0,1-.07,1.2,1.71,1.71,0,0,1-1.8,1.28,1.82,1.82,0,0,1-2-1.18A5.75,5.75,0,0,1,23.47,49.36Z"/><path class="a" d="M15.73,49.36a5.26,5.26,0,0,0-.09-1.1,1.77,1.77,0,0,0-1.85-1.42,1.7,1.7,0,0,0-1.9,1.37,5.91,5.91,0,0,0-.05,1.24,4.29,4.29,0,0,0,.07,1.2,1.7,1.7,0,0,0,1.8,1.28,1.87,1.87,0,0,0,1.94-1.29A4.82,4.82,0,0,0,15.73,49.36Z"/><path class="a" d="M19.62,49.36a6.1,6.1,0,0,0-.08-1.1,1.79,1.79,0,0,0-1.86-1.42,1.7,1.7,0,0,0-1.9,1.37,5.91,5.91,0,0,0,0,1.24,4.7,4.7,0,0,0,.07,1.2,1.71,1.71,0,0,0,1.8,1.28,1.87,1.87,0,0,0,1.94-1.29A4.82,4.82,0,0,0,19.62,49.36Z"/><path class="a" d="M35.14,49.36a6.1,6.1,0,0,1,.08-1.1,1.79,1.79,0,0,1,1.86-1.42A1.7,1.7,0,0,1,39,48.21,5.91,5.91,0,0,1,39,49.45a4.29,4.29,0,0,1-.07,1.2,1.7,1.7,0,0,1-1.8,1.28,1.8,1.8,0,0,1-1.95-1.18A5.74,5.74,0,0,1,35.14,49.36Z"/><path class="a" d="M.22,49.36a6,6,0,0,1,.09-1.1,1.77,1.77,0,0,1,1.85-1.42,1.68,1.68,0,0,1,1.9,1.37,5.3,5.3,0,0,1,.05,1.24,4.72,4.72,0,0,1-.06,1.2,1.72,1.72,0,0,1-1.81,1.28A1.8,1.8,0,0,1,.29,50.75,5.74,5.74,0,0,1,.22,49.36Z"/><path class="a" d="M46.88,49.36a6.1,6.1,0,0,0-.08-1.1A1.78,1.78,0,0,0,45,46.84,1.7,1.7,0,0,0,43,48.21a6,6,0,0,0,0,1.24,4.3,4.3,0,0,0,.06,1.2,1.71,1.71,0,0,0,1.81,1.28,1.85,1.85,0,0,0,1.93-1.29A4.82,4.82,0,0,0,46.88,49.36Z"/><path class="a" d="M46.87,49.36a6.1,6.1,0,0,1,.08-1.1,1.78,1.78,0,0,1,1.85-1.42,1.7,1.7,0,0,1,1.91,1.37,6,6,0,0,1,0,1.24,4.3,4.3,0,0,1-.06,1.2,1.71,1.71,0,0,1-1.81,1.28,1.81,1.81,0,0,1-2-1.18A5.75,5.75,0,0,1,46.87,49.36Z"/><path class="a" d="M23.51,42.67a6,6,0,0,0-.09-1.1,1.78,1.78,0,0,0-1.85-1.42,1.68,1.68,0,0,0-1.9,1.36,5.35,5.35,0,0,0-.05,1.24A4.37,4.37,0,0,0,19.68,44a1.74,1.74,0,0,0,1.81,1.28A1.85,1.85,0,0,0,23.42,44,4.8,4.8,0,0,0,23.51,42.67Z"/><path class="a" d="M31.22,42.67a6,6,0,0,0-.08-1.1,1.79,1.79,0,0,0-1.86-1.42,1.7,1.7,0,0,0-1.9,1.36,6,6,0,0,0-.05,1.24A4.78,4.78,0,0,0,27.4,44a1.73,1.73,0,0,0,1.8,1.28A1.87,1.87,0,0,0,31.14,44,4.82,4.82,0,0,0,31.22,42.67Z"/><path class="a" d="M35.11,42.67a6,6,0,0,0-.08-1.1,1.79,1.79,0,0,0-1.86-1.42,1.7,1.7,0,0,0-1.9,1.36,6,6,0,0,0-.05,1.24A4.78,4.78,0,0,0,31.29,44a1.73,1.73,0,0,0,1.8,1.28A1.87,1.87,0,0,0,35,44,4.82,4.82,0,0,0,35.11,42.67Z"/><path class="a" d="M23.47,42.67a6,6,0,0,1,.08-1.1,1.79,1.79,0,0,1,1.86-1.42,1.7,1.7,0,0,1,1.9,1.36,6,6,0,0,1,.05,1.24A4.78,4.78,0,0,1,27.29,44a1.73,1.73,0,0,1-1.8,1.28,1.83,1.83,0,0,1-2-1.19A5.65,5.65,0,0,1,23.47,42.67Z"/><path class="a" d="M15.73,42.67a5.2,5.2,0,0,0-.09-1.1,1.77,1.77,0,0,0-1.85-1.42,1.7,1.7,0,0,0-1.9,1.36,6,6,0,0,0-.05,1.24A4.36,4.36,0,0,0,11.91,44a1.72,1.72,0,0,0,1.8,1.28A1.87,1.87,0,0,0,15.65,44,4.82,4.82,0,0,0,15.73,42.67Z"/><path class="a" d="M19.62,42.67a6,6,0,0,0-.08-1.1,1.79,1.79,0,0,0-1.86-1.42,1.7,1.7,0,0,0-1.9,1.36,6,6,0,0,0,0,1.24A4.78,4.78,0,0,0,15.8,44a1.73,1.73,0,0,0,1.8,1.28A1.87,1.87,0,0,0,19.54,44,4.82,4.82,0,0,0,19.62,42.67Z"/><path class="a" d="M35.14,42.67a6,6,0,0,1,.08-1.1,1.79,1.79,0,0,1,1.86-1.42A1.7,1.7,0,0,1,39,41.51,6,6,0,0,1,39,42.75,4.36,4.36,0,0,1,39,44a1.72,1.72,0,0,1-1.8,1.28,1.81,1.81,0,0,1-1.95-1.19A5.63,5.63,0,0,1,35.14,42.67Z"/><path class="a" d="M0,42.67a6,6,0,0,1,.08-1.1A1.79,1.79,0,0,1,2,40.15a1.7,1.7,0,0,1,1.9,1.36,6,6,0,0,1,0,1.24A4.78,4.78,0,0,1,3.83,44,1.73,1.73,0,0,1,2,45.24,1.81,1.81,0,0,1,.08,44.05,5.63,5.63,0,0,1,0,42.67Z"/><path class="a" d="M46.84,42.67a6,6,0,0,0-.09-1.1,1.78,1.78,0,0,0-1.85-1.42A1.68,1.68,0,0,0,43,41.51a5.35,5.35,0,0,0,0,1.24A4.37,4.37,0,0,0,43,44a1.74,1.74,0,0,0,1.81,1.28A1.85,1.85,0,0,0,46.75,44,4.8,4.8,0,0,0,46.84,42.67Z"/><path class="a" d="M46.87,42.67a6,6,0,0,1,.08-1.1,1.78,1.78,0,0,1,1.85-1.42,1.7,1.7,0,0,1,1.91,1.36,6,6,0,0,1,0,1.24A4.37,4.37,0,0,1,50.69,44a1.73,1.73,0,0,1-1.81,1.28,1.81,1.81,0,0,1-2-1.19A5.65,5.65,0,0,1,46.87,42.67Z"/></svg>