<svg xmlns="http://www.w3.org/2000/svg" width="64.46" height="65.32" viewBox="0 0 64.46 65.32"><defs><style>.a{fill:#21364f;}</style></defs><title>Asset 122</title><path class="a" d="M29.93,2.57A6,6,0,0,0,30,3.67a1.79,1.79,0,0,0,1.86,1.42,1.7,1.7,0,0,0,1.9-1.36,6,6,0,0,0,0-1.24,4.78,4.78,0,0,0-.07-1.21A1.73,1.73,0,0,0,32,0,1.87,1.87,0,0,0,30,1.29,4.82,4.82,0,0,0,29.93,2.57Z"/><path class="a" d="M22.21,2.57a6,6,0,0,0,.09,1.1,1.78,1.78,0,0,0,1.85,1.42,1.68,1.68,0,0,0,1.9-1.36,5.35,5.35,0,0,0,.05-1.24A4.37,4.37,0,0,0,26,1.28,1.74,1.74,0,0,0,24.23,0,1.85,1.85,0,0,0,22.3,1.29,4.8,4.8,0,0,0,22.21,2.57Z"/><path class="a" d="M18.32,2.57a6,6,0,0,0,.09,1.1,1.78,1.78,0,0,0,1.85,1.42,1.68,1.68,0,0,0,1.9-1.36,5.35,5.35,0,0,0,.05-1.24,4.8,4.8,0,0,0-.06-1.21A1.74,1.74,0,0,0,20.34,0,1.87,1.87,0,0,0,18.4,1.29,5.28,5.28,0,0,0,18.32,2.57Z"/><path class="a" d="M30,2.6a6,6,0,0,1-.09,1.1A1.78,1.78,0,0,1,28,5.12a1.68,1.68,0,0,1-1.9-1.37,5.3,5.3,0,0,1-.05-1.24,4.3,4.3,0,0,1,.06-1.2A1.73,1.73,0,0,1,28,0,1.8,1.8,0,0,1,29.9,1.22,5.63,5.63,0,0,1,30,2.6Z"/><path class="a" d="M45.42,2.57a6,6,0,0,0,.08,1.1,1.79,1.79,0,0,0,1.86,1.42,1.7,1.7,0,0,0,1.9-1.36,6,6,0,0,0,.05-1.24,4.78,4.78,0,0,0-.07-1.21A1.73,1.73,0,0,0,47.44,0,1.87,1.87,0,0,0,45.5,1.29,4.82,4.82,0,0,0,45.42,2.57Z"/><path class="a" d="M37.71,2.57a6,6,0,0,0,.08,1.1,1.78,1.78,0,0,0,1.85,1.42,1.7,1.7,0,0,0,1.91-1.36,6,6,0,0,0,0-1.24,4.37,4.37,0,0,0-.06-1.21A1.73,1.73,0,0,0,39.72,0a1.85,1.85,0,0,0-1.93,1.29A4.82,4.82,0,0,0,37.71,2.57Z"/><path class="a" d="M33.81,2.57a6,6,0,0,0,.09,1.1,1.78,1.78,0,0,0,1.85,1.42,1.7,1.7,0,0,0,1.91-1.36,6,6,0,0,0,0-1.24,4.37,4.37,0,0,0-.06-1.21A1.73,1.73,0,0,0,35.83,0,1.85,1.85,0,0,0,33.9,1.29,4.8,4.8,0,0,0,33.81,2.57Z"/><path class="a" d="M45.46,2.6a5.26,5.26,0,0,1-.09,1.1,1.77,1.77,0,0,1-1.85,1.42,1.7,1.7,0,0,1-1.9-1.37,5.91,5.91,0,0,1,0-1.24,4.29,4.29,0,0,1,.07-1.2A1.71,1.71,0,0,1,43.44,0a1.8,1.8,0,0,1,2,1.19A5.63,5.63,0,0,1,45.46,2.6Z"/><path class="a" d="M18.34,2.65a5.92,5.92,0,0,1-.08,1.09A1.79,1.79,0,0,1,16.4,5.17,1.7,1.7,0,0,1,14.5,3.8a5.91,5.91,0,0,1-.05-1.24,4.81,4.81,0,0,1,.07-1.21A1.71,1.71,0,0,1,16.32.08a1.8,1.8,0,0,1,1.95,1.18A5.74,5.74,0,0,1,18.34,2.65Z"/><path class="a" d="M14.45,2.65a5.92,5.92,0,0,1-.08,1.09,1.79,1.79,0,0,1-1.86,1.43,1.7,1.7,0,0,1-1.9-1.37,5.91,5.91,0,0,1,0-1.24,4.81,4.81,0,0,1,.07-1.21A1.71,1.71,0,0,1,12.43.08a1.8,1.8,0,0,1,2,1.18A5.74,5.74,0,0,1,14.45,2.65Z"/><path class="a" d="M15.53,29.34a6.1,6.1,0,0,0,.08,1.1,1.79,1.79,0,0,0,1.86,1.42,1.7,1.7,0,0,0,1.9-1.36,6,6,0,0,0,.05-1.25,4.73,4.73,0,0,0-.07-1.2,1.72,1.72,0,0,0-1.8-1.28,1.87,1.87,0,0,0-1.94,1.29A4.82,4.82,0,0,0,15.53,29.34Z"/><path class="a" d="M7.82,29.34a6.1,6.1,0,0,0,.08,1.1,1.78,1.78,0,0,0,1.85,1.42,1.7,1.7,0,0,0,1.91-1.36,5.48,5.48,0,0,0,0-1.25,4.32,4.32,0,0,0-.06-1.2,1.72,1.72,0,0,0-1.8-1.28A1.86,1.86,0,0,0,7.9,28.06,4.82,4.82,0,0,0,7.82,29.34Z"/><path class="a" d="M3.93,29.34A6.1,6.1,0,0,0,4,30.44a1.78,1.78,0,0,0,1.85,1.42A1.7,1.7,0,0,0,7.77,30.5a6.12,6.12,0,0,0,0-1.25,4.32,4.32,0,0,0-.06-1.2,1.72,1.72,0,0,0-1.81-1.28A1.85,1.85,0,0,0,4,28.06,4.82,4.82,0,0,0,3.93,29.34Z"/><path class="a" d="M15.57,29.37a5.92,5.92,0,0,1-.08,1.09,1.78,1.78,0,0,1-1.86,1.43,1.7,1.7,0,0,1-1.9-1.37,5.91,5.91,0,0,1-.05-1.24,4.81,4.81,0,0,1,.07-1.21,1.71,1.71,0,0,1,1.8-1.27A1.8,1.8,0,0,1,15.5,28,5.74,5.74,0,0,1,15.57,29.37Z"/><path class="a" d="M31,29.34a6,6,0,0,0,.09,1.1A1.77,1.77,0,0,0,33,31.86a1.69,1.69,0,0,0,1.9-1.36,6,6,0,0,0,0-1.25,4.74,4.74,0,0,0-.06-1.2A1.73,1.73,0,0,0,33,26.77a1.87,1.87,0,0,0-1.94,1.29A4.82,4.82,0,0,0,31,29.34Z"/><path class="a" d="M23.31,29.34a6.1,6.1,0,0,0,.08,1.1,1.79,1.79,0,0,0,1.86,1.42,1.7,1.7,0,0,0,1.9-1.36,6,6,0,0,0,.05-1.25,4.73,4.73,0,0,0-.07-1.2,1.72,1.72,0,0,0-1.8-1.28,1.87,1.87,0,0,0-1.94,1.29A4.82,4.82,0,0,0,23.31,29.34Z"/><path class="a" d="M19.42,29.34a6.1,6.1,0,0,0,.08,1.1,1.79,1.79,0,0,0,1.86,1.42,1.7,1.7,0,0,0,1.9-1.36,6,6,0,0,0,0-1.25,4.73,4.73,0,0,0-.07-1.2,1.72,1.72,0,0,0-1.8-1.28,1.87,1.87,0,0,0-1.94,1.29A4.82,4.82,0,0,0,19.42,29.34Z"/><path class="a" d="M31.06,29.37A5.92,5.92,0,0,1,31,30.46a1.78,1.78,0,0,1-1.86,1.43,1.7,1.7,0,0,1-1.9-1.37,5.91,5.91,0,0,1,0-1.24,4.81,4.81,0,0,1,.07-1.21A1.71,1.71,0,0,1,29,26.8,1.8,1.8,0,0,1,31,28,5.74,5.74,0,0,1,31.06,29.37Z"/><path class="a" d="M3.9,29.37a5.85,5.85,0,0,1-.09,1.09A1.77,1.77,0,0,1,2,31.89a1.68,1.68,0,0,1-1.9-1.37,5.3,5.3,0,0,1,0-1.24,4.39,4.39,0,0,1,.06-1.21A1.72,1.72,0,0,1,1.88,26.8a1.81,1.81,0,0,1,2,1.18A5.74,5.74,0,0,1,3.9,29.37Z"/><path class="a" d="M64.45,29.36a5.92,5.92,0,0,1-.08,1.09,1.79,1.79,0,0,1-1.86,1.42,1.69,1.69,0,0,1-1.9-1.36,5.94,5.94,0,0,1,0-1.24,4.78,4.78,0,0,1,.07-1.21,1.73,1.73,0,0,1,1.8-1.28A1.82,1.82,0,0,1,64.38,28,5.68,5.68,0,0,1,64.45,29.36Z"/><path class="a" d="M34.5,9.28a6,6,0,0,0,.09,1.1,1.78,1.78,0,0,0,1.85,1.42,1.68,1.68,0,0,0,1.9-1.36,5.35,5.35,0,0,0,0-1.24A4.37,4.37,0,0,0,38.33,8a1.74,1.74,0,0,0-1.81-1.28A1.85,1.85,0,0,0,34.59,8,4.8,4.8,0,0,0,34.5,9.28Z"/><path class="a" d="M26.79,9.28a6,6,0,0,0,.08,1.1,1.79,1.79,0,0,0,1.86,1.42,1.7,1.7,0,0,0,1.9-1.36,6,6,0,0,0,.05-1.24A4.78,4.78,0,0,0,30.61,8a1.73,1.73,0,0,0-1.8-1.28A1.87,1.87,0,0,0,26.87,8,4.82,4.82,0,0,0,26.79,9.28Z"/><path class="a" d="M22.9,9.28a6,6,0,0,0,.08,1.1,1.79,1.79,0,0,0,1.86,1.42,1.7,1.7,0,0,0,1.9-1.36,6,6,0,0,0,.05-1.24A4.78,4.78,0,0,0,26.72,8a1.73,1.73,0,0,0-1.8-1.28A1.87,1.87,0,0,0,23,8,4.82,4.82,0,0,0,22.9,9.28Z"/><path class="a" d="M34.54,9.31a6.1,6.1,0,0,1-.08,1.1,1.78,1.78,0,0,1-1.85,1.42,1.7,1.7,0,0,1-1.91-1.36,6,6,0,0,1-.05-1.25A4.7,4.7,0,0,1,30.72,8a1.72,1.72,0,0,1,1.8-1.28,1.82,1.82,0,0,1,2,1.19A5.65,5.65,0,0,1,34.54,9.31Z"/><path class="a" d="M50,9.28a6,6,0,0,0,.08,1.1,1.78,1.78,0,0,0,1.85,1.42,1.7,1.7,0,0,0,1.91-1.36,6,6,0,0,0,0-1.24A4.37,4.37,0,0,0,53.82,8,1.73,1.73,0,0,0,52,6.71,1.85,1.85,0,0,0,50.08,8,4.82,4.82,0,0,0,50,9.28Z"/><path class="a" d="M42.28,9.28a6,6,0,0,0,.09,1.1,1.77,1.77,0,0,0,1.85,1.42,1.7,1.7,0,0,0,1.9-1.36,6,6,0,0,0,.05-1.24A4.8,4.8,0,0,0,46.11,8,1.74,1.74,0,0,0,44.3,6.71,1.87,1.87,0,0,0,42.36,8,4.82,4.82,0,0,0,42.28,9.28Z"/><path class="a" d="M38.39,9.28a6,6,0,0,0,.08,1.1,1.79,1.79,0,0,0,1.86,1.42,1.7,1.7,0,0,0,1.9-1.36,6,6,0,0,0,.05-1.24A4.36,4.36,0,0,0,42.21,8a1.72,1.72,0,0,0-1.8-1.28A1.87,1.87,0,0,0,38.47,8,4.82,4.82,0,0,0,38.39,9.28Z"/><path class="a" d="M50,9.31a6,6,0,0,1-.09,1.1,1.78,1.78,0,0,1-1.85,1.42,1.7,1.7,0,0,1-1.91-1.36,6.12,6.12,0,0,1,0-1.25A4.3,4.3,0,0,1,46.21,8,1.72,1.72,0,0,1,48,6.74,1.8,1.8,0,0,1,50,7.93,5.63,5.63,0,0,1,50,9.31Z"/><path class="a" d="M22.87,9.31a6.1,6.1,0,0,1-.08,1.1,1.79,1.79,0,0,1-1.86,1.42A1.7,1.7,0,0,1,19,10.47,6,6,0,0,1,19,9.22,4.7,4.7,0,0,1,19.05,8a1.72,1.72,0,0,1,1.8-1.28A1.8,1.8,0,0,1,22.8,7.93,5.63,5.63,0,0,1,22.87,9.31Z"/><path class="a" d="M11.29,9.3a5.92,5.92,0,0,1-.08,1.09,1.79,1.79,0,0,1-1.86,1.42,1.69,1.69,0,0,1-1.9-1.36,5.91,5.91,0,0,1,0-1.24A4.78,4.78,0,0,1,7.47,8a1.73,1.73,0,0,1,1.8-1.28,1.84,1.84,0,0,1,2,1.19A6.25,6.25,0,0,1,11.29,9.3Z"/><path class="a" d="M38.85,16a5.92,5.92,0,0,0,.08,1.09,1.78,1.78,0,0,0,1.86,1.43,1.7,1.7,0,0,0,1.9-1.37,5.91,5.91,0,0,0,.05-1.24,4.7,4.7,0,0,0-.07-1.2,1.71,1.71,0,0,0-1.8-1.28,1.87,1.87,0,0,0-1.94,1.29A4.82,4.82,0,0,0,38.85,16Z"/><path class="a" d="M31.14,16a5.92,5.92,0,0,0,.08,1.09,1.77,1.77,0,0,0,1.85,1.43A1.7,1.7,0,0,0,35,17.13a6,6,0,0,0,0-1.24,4.3,4.3,0,0,0-.06-1.2,1.71,1.71,0,0,0-1.81-1.28,1.85,1.85,0,0,0-1.93,1.29A4.82,4.82,0,0,0,31.14,16Z"/><path class="a" d="M27.24,16a5.85,5.85,0,0,0,.09,1.09,1.77,1.77,0,0,0,1.85,1.43,1.68,1.68,0,0,0,1.9-1.37,5.3,5.3,0,0,0,.05-1.24,4.3,4.3,0,0,0-.06-1.2,1.72,1.72,0,0,0-1.81-1.28,1.85,1.85,0,0,0-1.93,1.29A4.8,4.8,0,0,0,27.24,16Z"/><path class="a" d="M38.89,16a5.85,5.85,0,0,1-.09,1.09A1.77,1.77,0,0,1,37,18.52a1.69,1.69,0,0,1-1.9-1.36,5.91,5.91,0,0,1,0-1.24,4.8,4.8,0,0,1,.06-1.21,1.74,1.74,0,0,1,1.81-1.28,1.82,1.82,0,0,1,2,1.19A5.68,5.68,0,0,1,38.89,16Z"/><path class="a" d="M54.34,16a5.92,5.92,0,0,0,.08,1.09,1.78,1.78,0,0,0,1.86,1.43,1.7,1.7,0,0,0,1.9-1.37,5.91,5.91,0,0,0,0-1.24,4.29,4.29,0,0,0-.07-1.2,1.7,1.7,0,0,0-1.8-1.28,1.87,1.87,0,0,0-1.94,1.29A4.82,4.82,0,0,0,54.34,16Z"/><path class="a" d="M46.63,16a5.92,5.92,0,0,0,.08,1.09,1.78,1.78,0,0,0,1.85,1.43,1.7,1.7,0,0,0,1.91-1.37,5.91,5.91,0,0,0,.05-1.24,4.7,4.7,0,0,0-.07-1.2,1.71,1.71,0,0,0-1.8-1.28,1.87,1.87,0,0,0-1.94,1.29A4.82,4.82,0,0,0,46.63,16Z"/><path class="a" d="M42.74,16a5.92,5.92,0,0,0,.08,1.09,1.78,1.78,0,0,0,1.85,1.43,1.7,1.7,0,0,0,1.91-1.37,6,6,0,0,0,0-1.24,4.3,4.3,0,0,0-.06-1.2,1.71,1.71,0,0,0-1.8-1.28,1.86,1.86,0,0,0-1.94,1.29A4.82,4.82,0,0,0,42.74,16Z"/><path class="a" d="M54.38,16a5.92,5.92,0,0,1-.08,1.09,1.79,1.79,0,0,1-1.86,1.42,1.69,1.69,0,0,1-1.9-1.36,5.91,5.91,0,0,1,0-1.24,4.78,4.78,0,0,1,.07-1.21,1.73,1.73,0,0,1,1.8-1.28,1.82,1.82,0,0,1,2,1.19A5.68,5.68,0,0,1,54.38,16Z"/><path class="a" d="M27.26,16a5.92,5.92,0,0,1-.08,1.09,1.78,1.78,0,0,1-1.85,1.43,1.7,1.7,0,0,1-1.91-1.37,5.91,5.91,0,0,1-.05-1.24,4.81,4.81,0,0,1,.07-1.21,1.71,1.71,0,0,1,1.8-1.27,1.82,1.82,0,0,1,2,1.18A5.75,5.75,0,0,1,27.26,16Z"/><path class="a" d="M7.81,16a5.2,5.2,0,0,1-.09,1.1A1.77,1.77,0,0,1,5.87,18.5,1.7,1.7,0,0,1,4,17.14a6,6,0,0,1-.05-1.24A4.36,4.36,0,0,1,4,14.69a1.72,1.72,0,0,1,1.8-1.28,1.81,1.81,0,0,1,2,1.19A5.63,5.63,0,0,1,7.81,16Z"/><path class="a" d="M45,22.66A5.85,5.85,0,0,0,45,23.75a1.78,1.78,0,0,0,1.85,1.42,1.68,1.68,0,0,0,1.9-1.36,5.33,5.33,0,0,0,.05-1.24,4.37,4.37,0,0,0-.06-1.21A1.74,1.74,0,0,0,47,20.08,1.86,1.86,0,0,0,45,21.37,4.88,4.88,0,0,0,45,22.66Z"/><path class="a" d="M37.24,22.66a5.92,5.92,0,0,0,.08,1.09,1.79,1.79,0,0,0,1.86,1.42,1.69,1.69,0,0,0,1.9-1.36,5.94,5.94,0,0,0,.05-1.24,4.78,4.78,0,0,0-.07-1.21,1.73,1.73,0,0,0-1.8-1.28,1.88,1.88,0,0,0-1.94,1.29A4.89,4.89,0,0,0,37.24,22.66Z"/><path class="a" d="M33.35,22.66a5.92,5.92,0,0,0,.08,1.09,1.79,1.79,0,0,0,1.86,1.42,1.69,1.69,0,0,0,1.9-1.36,5.94,5.94,0,0,0,.05-1.24,4.78,4.78,0,0,0-.07-1.21,1.73,1.73,0,0,0-1.8-1.28,1.88,1.88,0,0,0-1.94,1.29A4.89,4.89,0,0,0,33.35,22.66Z"/><path class="a" d="M45,22.68a6,6,0,0,1-.08,1.1,1.78,1.78,0,0,1-1.85,1.42,1.7,1.7,0,0,1-1.91-1.36,6,6,0,0,1,0-1.24,4.78,4.78,0,0,1,.07-1.21A1.73,1.73,0,0,1,43,20.11a1.83,1.83,0,0,1,2,1.19A5.65,5.65,0,0,1,45,22.68Z"/><path class="a" d="M60.45,22.66a5.92,5.92,0,0,0,.08,1.09,1.78,1.78,0,0,0,1.85,1.42,1.69,1.69,0,0,0,1.91-1.36,6,6,0,0,0,0-1.24,4.37,4.37,0,0,0-.06-1.21,1.73,1.73,0,0,0-1.8-1.28,1.87,1.87,0,0,0-1.94,1.29A4.89,4.89,0,0,0,60.45,22.66Z"/><path class="a" d="M52.73,22.66a5.85,5.85,0,0,0,.09,1.09,1.77,1.77,0,0,0,1.85,1.42,1.69,1.69,0,0,0,1.9-1.36,5.94,5.94,0,0,0,0-1.24,4.8,4.8,0,0,0-.06-1.21,1.74,1.74,0,0,0-1.81-1.28,1.88,1.88,0,0,0-1.94,1.29A4.89,4.89,0,0,0,52.73,22.66Z"/><path class="a" d="M48.84,22.66a5.11,5.11,0,0,0,.09,1.09,1.77,1.77,0,0,0,1.85,1.42,1.69,1.69,0,0,0,1.9-1.36,5.94,5.94,0,0,0,0-1.24,4.36,4.36,0,0,0-.07-1.21,1.72,1.72,0,0,0-1.8-1.28,1.88,1.88,0,0,0-1.94,1.29A4.89,4.89,0,0,0,48.84,22.66Z"/><path class="a" d="M60.49,22.68a6,6,0,0,1-.09,1.1,1.78,1.78,0,0,1-1.85,1.42,1.7,1.7,0,0,1-1.91-1.36,6,6,0,0,1,0-1.24,4.37,4.37,0,0,1,.06-1.21,1.73,1.73,0,0,1,1.81-1.28,1.81,1.81,0,0,1,2,1.19A5.63,5.63,0,0,1,60.49,22.68Z"/><path class="a" d="M33.32,22.68a6,6,0,0,1-.08,1.1,1.79,1.79,0,0,1-1.86,1.42,1.7,1.7,0,0,1-1.9-1.36,6,6,0,0,1-.05-1.24,4.78,4.78,0,0,1,.07-1.21,1.73,1.73,0,0,1,1.8-1.28,1.81,1.81,0,0,1,1.95,1.19A5.63,5.63,0,0,1,33.32,22.68Z"/><path class="a" d="M3.9,22.67a5.85,5.85,0,0,1-.09,1.09A1.77,1.77,0,0,1,2,25.19a1.68,1.68,0,0,1-1.9-1.37,5.3,5.3,0,0,1,0-1.24,4.39,4.39,0,0,1,.06-1.21A1.72,1.72,0,0,1,1.88,20.1a1.81,1.81,0,0,1,2,1.18A5.74,5.74,0,0,1,3.9,22.67Z"/><path class="a" d="M45,36A5.85,5.85,0,0,0,45,37.12a1.78,1.78,0,0,0,1.85,1.42,1.68,1.68,0,0,0,1.9-1.36,5.3,5.3,0,0,0,.05-1.24,4.37,4.37,0,0,0-.06-1.21A1.74,1.74,0,0,0,47,33.45,1.87,1.87,0,0,0,45,34.75,4.8,4.8,0,0,0,45,36Z"/><path class="a" d="M37.24,36a5.92,5.92,0,0,0,.08,1.09,1.79,1.79,0,0,0,1.86,1.42,1.69,1.69,0,0,0,1.9-1.36,5.91,5.91,0,0,0,.05-1.24,4.78,4.78,0,0,0-.07-1.21,1.73,1.73,0,0,0-1.8-1.28,1.89,1.89,0,0,0-1.94,1.3A4.82,4.82,0,0,0,37.24,36Z"/><path class="a" d="M33.35,36a5.92,5.92,0,0,0,.08,1.09,1.79,1.79,0,0,0,1.86,1.42,1.69,1.69,0,0,0,1.9-1.36,5.91,5.91,0,0,0,.05-1.24,4.78,4.78,0,0,0-.07-1.21,1.73,1.73,0,0,0-1.8-1.28,1.89,1.89,0,0,0-1.94,1.3A4.82,4.82,0,0,0,33.35,36Z"/><path class="a" d="M45,36.06a5.92,5.92,0,0,1-.08,1.09,1.78,1.78,0,0,1-1.85,1.42,1.69,1.69,0,0,1-1.91-1.36,5.94,5.94,0,0,1,0-1.24,4.78,4.78,0,0,1,.07-1.21A1.73,1.73,0,0,1,43,33.48a1.84,1.84,0,0,1,2,1.19A5.7,5.7,0,0,1,45,36.06Z"/><path class="a" d="M60.45,36a5.92,5.92,0,0,0,.08,1.09,1.78,1.78,0,0,0,1.85,1.42,1.69,1.69,0,0,0,1.91-1.36,6,6,0,0,0,0-1.24,4.37,4.37,0,0,0-.06-1.21,1.73,1.73,0,0,0-1.8-1.28,1.88,1.88,0,0,0-1.94,1.3A4.82,4.82,0,0,0,60.45,36Z"/><path class="a" d="M52.73,36a5.85,5.85,0,0,0,.09,1.09,1.77,1.77,0,0,0,1.85,1.42,1.69,1.69,0,0,0,1.9-1.36,5.91,5.91,0,0,0,0-1.24,4.8,4.8,0,0,0-.06-1.21,1.74,1.74,0,0,0-1.81-1.28,1.89,1.89,0,0,0-1.94,1.3A4.82,4.82,0,0,0,52.73,36Z"/><path class="a" d="M48.84,36a5.11,5.11,0,0,0,.09,1.09,1.77,1.77,0,0,0,1.85,1.42,1.69,1.69,0,0,0,1.9-1.36,5.91,5.91,0,0,0,0-1.24,4.36,4.36,0,0,0-.07-1.21,1.72,1.72,0,0,0-1.8-1.28,1.89,1.89,0,0,0-1.94,1.3A4.82,4.82,0,0,0,48.84,36Z"/><path class="a" d="M60.49,36.06a5.85,5.85,0,0,1-.09,1.09,1.78,1.78,0,0,1-1.85,1.42,1.69,1.69,0,0,1-1.91-1.36,6,6,0,0,1,0-1.24,4.37,4.37,0,0,1,.06-1.21,1.73,1.73,0,0,1,1.81-1.28,1.83,1.83,0,0,1,2,1.19A5.68,5.68,0,0,1,60.49,36.06Z"/><path class="a" d="M33.32,36.06a5.92,5.92,0,0,1-.08,1.09,1.79,1.79,0,0,1-1.86,1.42,1.69,1.69,0,0,1-1.9-1.36A5.94,5.94,0,0,1,29.43,36a4.78,4.78,0,0,1,.07-1.21,1.73,1.73,0,0,1,1.8-1.28,1.82,1.82,0,0,1,1.95,1.19A5.68,5.68,0,0,1,33.32,36.06Z"/><path class="a" d="M3.9,36a6,6,0,0,1-.09,1.1A1.78,1.78,0,0,1,2,38.56,1.68,1.68,0,0,1,.06,37.2,5.41,5.41,0,0,1,0,36a4.32,4.32,0,0,1,.06-1.2,1.73,1.73,0,0,1,1.81-1.28,1.81,1.81,0,0,1,2,1.19A5.63,5.63,0,0,1,3.9,36Z"/><path class="a" d="M45,42.71a6,6,0,0,0,.09,1.1,1.78,1.78,0,0,0,1.85,1.42,1.68,1.68,0,0,0,1.9-1.36,5.35,5.35,0,0,0,.05-1.24,4.37,4.37,0,0,0-.06-1.21A1.74,1.74,0,0,0,47,40.14,1.85,1.85,0,0,0,45,41.43,4.8,4.8,0,0,0,45,42.71Z"/><path class="a" d="M37.24,42.71a6,6,0,0,0,.08,1.1,1.79,1.79,0,0,0,1.86,1.42,1.7,1.7,0,0,0,1.9-1.36,6,6,0,0,0,.05-1.24,4.78,4.78,0,0,0-.07-1.21,1.73,1.73,0,0,0-1.8-1.28,1.87,1.87,0,0,0-1.94,1.29A4.82,4.82,0,0,0,37.24,42.71Z"/><path class="a" d="M33.35,42.71a6,6,0,0,0,.08,1.1,1.79,1.79,0,0,0,1.86,1.42,1.7,1.7,0,0,0,1.9-1.36,6,6,0,0,0,.05-1.24,4.78,4.78,0,0,0-.07-1.21,1.73,1.73,0,0,0-1.8-1.28,1.87,1.87,0,0,0-1.94,1.29A4.82,4.82,0,0,0,33.35,42.71Z"/><path class="a" d="M45,42.74a6.1,6.1,0,0,1-.08,1.1,1.78,1.78,0,0,1-1.85,1.42,1.7,1.7,0,0,1-1.91-1.36,6,6,0,0,1,0-1.25,4.73,4.73,0,0,1,.07-1.2A1.72,1.72,0,0,1,43,40.17a1.83,1.83,0,0,1,2,1.19A5.65,5.65,0,0,1,45,42.74Z"/><path class="a" d="M60.45,42.71a6,6,0,0,0,.08,1.1,1.78,1.78,0,0,0,1.85,1.42,1.7,1.7,0,0,0,1.91-1.36,6,6,0,0,0,0-1.24,4.37,4.37,0,0,0-.06-1.21,1.73,1.73,0,0,0-1.8-1.28,1.86,1.86,0,0,0-1.94,1.29A4.82,4.82,0,0,0,60.45,42.71Z"/><path class="a" d="M52.73,42.71a6,6,0,0,0,.09,1.1,1.77,1.77,0,0,0,1.85,1.42,1.7,1.7,0,0,0,1.9-1.36,6,6,0,0,0,0-1.24,4.8,4.8,0,0,0-.06-1.21,1.74,1.74,0,0,0-1.81-1.28,1.87,1.87,0,0,0-1.94,1.29A4.82,4.82,0,0,0,52.73,42.71Z"/><path class="a" d="M48.84,42.71a5.2,5.2,0,0,0,.09,1.1,1.77,1.77,0,0,0,1.85,1.42,1.7,1.7,0,0,0,1.9-1.36,6,6,0,0,0,0-1.24,4.36,4.36,0,0,0-.07-1.21,1.72,1.72,0,0,0-1.8-1.28,1.87,1.87,0,0,0-1.94,1.29A4.82,4.82,0,0,0,48.84,42.71Z"/><path class="a" d="M60.49,42.74a6,6,0,0,1-.09,1.1,1.78,1.78,0,0,1-1.85,1.42,1.7,1.7,0,0,1-1.91-1.36,6.12,6.12,0,0,1,0-1.25,4.32,4.32,0,0,1,.06-1.2,1.72,1.72,0,0,1,1.81-1.28,1.81,1.81,0,0,1,2,1.19A5.63,5.63,0,0,1,60.49,42.74Z"/><path class="a" d="M33.32,42.74a6.1,6.1,0,0,1-.08,1.1,1.79,1.79,0,0,1-1.86,1.42,1.7,1.7,0,0,1-1.9-1.36,6,6,0,0,1-.05-1.25,4.73,4.73,0,0,1,.07-1.2,1.72,1.72,0,0,1,1.8-1.28,1.81,1.81,0,0,1,1.95,1.19A5.63,5.63,0,0,1,33.32,42.74Z"/><path class="a" d="M3.9,42.73a5.85,5.85,0,0,1-.09,1.09A1.78,1.78,0,0,1,2,45.24a1.68,1.68,0,0,1-1.9-1.36,5.3,5.3,0,0,1,0-1.24,4.37,4.37,0,0,1,.06-1.21,1.74,1.74,0,0,1,1.81-1.28,1.83,1.83,0,0,1,2,1.19A5.71,5.71,0,0,1,3.9,42.73Z"/><path class="a" d="M45,49.4A6,6,0,0,0,45,50.5a1.78,1.78,0,0,0,1.85,1.42,1.68,1.68,0,0,0,1.9-1.37,5.3,5.3,0,0,0,.05-1.24,4.3,4.3,0,0,0-.06-1.2A1.72,1.72,0,0,0,47,46.83,1.85,1.85,0,0,0,45,48.12,4.8,4.8,0,0,0,45,49.4Z"/><path class="a" d="M37.24,49.4a6.1,6.1,0,0,0,.08,1.1,1.79,1.79,0,0,0,1.86,1.42,1.7,1.7,0,0,0,1.9-1.37,5.91,5.91,0,0,0,.05-1.24,4.7,4.7,0,0,0-.07-1.2,1.71,1.71,0,0,0-1.8-1.28,1.87,1.87,0,0,0-1.94,1.29A4.82,4.82,0,0,0,37.24,49.4Z"/><path class="a" d="M33.35,49.4a6.1,6.1,0,0,0,.08,1.1,1.79,1.79,0,0,0,1.86,1.42,1.7,1.7,0,0,0,1.9-1.37,5.91,5.91,0,0,0,.05-1.24,4.7,4.7,0,0,0-.07-1.2,1.71,1.71,0,0,0-1.8-1.28,1.87,1.87,0,0,0-1.94,1.29A4.82,4.82,0,0,0,33.35,49.4Z"/><path class="a" d="M45,49.43a5.92,5.92,0,0,1-.08,1.09,1.78,1.78,0,0,1-1.85,1.42,1.69,1.69,0,0,1-1.91-1.36,5.91,5.91,0,0,1,0-1.24,4.78,4.78,0,0,1,.07-1.21A1.73,1.73,0,0,1,43,46.85a1.84,1.84,0,0,1,2,1.19A5.73,5.73,0,0,1,45,49.43Z"/><path class="a" d="M60.45,49.4a6.1,6.1,0,0,0,.08,1.1,1.78,1.78,0,0,0,1.85,1.42,1.7,1.7,0,0,0,1.91-1.37,6,6,0,0,0,0-1.24,4.3,4.3,0,0,0-.06-1.2,1.71,1.71,0,0,0-1.8-1.28,1.86,1.86,0,0,0-1.94,1.29A4.82,4.82,0,0,0,60.45,49.4Z"/><path class="a" d="M52.73,49.4a6,6,0,0,0,.09,1.1,1.77,1.77,0,0,0,1.85,1.42,1.7,1.7,0,0,0,1.9-1.37,5.91,5.91,0,0,0,0-1.24,4.72,4.72,0,0,0-.06-1.2,1.72,1.72,0,0,0-1.81-1.28,1.87,1.87,0,0,0-1.94,1.29A4.82,4.82,0,0,0,52.73,49.4Z"/><path class="a" d="M48.84,49.4a5.26,5.26,0,0,0,.09,1.1,1.77,1.77,0,0,0,1.85,1.42,1.7,1.7,0,0,0,1.9-1.37,5.91,5.91,0,0,0,0-1.24,4.29,4.29,0,0,0-.07-1.2,1.7,1.7,0,0,0-1.8-1.28,1.87,1.87,0,0,0-1.94,1.29A4.82,4.82,0,0,0,48.84,49.4Z"/><path class="a" d="M60.49,49.43a5.85,5.85,0,0,1-.09,1.09,1.78,1.78,0,0,1-1.85,1.42,1.69,1.69,0,0,1-1.91-1.36,6,6,0,0,1,0-1.24,4.37,4.37,0,0,1,.06-1.21,1.73,1.73,0,0,1,1.81-1.28,1.83,1.83,0,0,1,2,1.19A5.71,5.71,0,0,1,60.49,49.43Z"/><path class="a" d="M33.32,49.43a5.92,5.92,0,0,1-.08,1.09,1.79,1.79,0,0,1-1.86,1.42,1.69,1.69,0,0,1-1.9-1.36,5.91,5.91,0,0,1-.05-1.24,4.78,4.78,0,0,1,.07-1.21,1.73,1.73,0,0,1,1.8-1.28A1.82,1.82,0,0,1,33.25,48,5.71,5.71,0,0,1,33.32,49.43Z"/><path class="a" d="M3.9,49.41a6,6,0,0,1-.09,1.1A1.78,1.78,0,0,1,2,51.93a1.68,1.68,0,0,1-1.9-1.36,5.35,5.35,0,0,1,0-1.24,4.37,4.37,0,0,1,.06-1.21,1.74,1.74,0,0,1,1.81-1.28,1.81,1.81,0,0,1,2,1.19A5.63,5.63,0,0,1,3.9,49.41Z"/><path class="a" d="M45,56.09A5.85,5.85,0,0,0,45,57.18a1.78,1.78,0,0,0,1.85,1.42,1.68,1.68,0,0,0,1.9-1.36A5.33,5.33,0,0,0,48.84,56a4.37,4.37,0,0,0-.06-1.21A1.74,1.74,0,0,0,47,53.51,1.86,1.86,0,0,0,45,54.8,4.88,4.88,0,0,0,45,56.09Z"/><path class="a" d="M37.24,56.09a5.92,5.92,0,0,0,.08,1.09,1.79,1.79,0,0,0,1.86,1.42,1.69,1.69,0,0,0,1.9-1.36A5.94,5.94,0,0,0,41.13,56a4.78,4.78,0,0,0-.07-1.21,1.73,1.73,0,0,0-1.8-1.28,1.88,1.88,0,0,0-1.94,1.29A4.89,4.89,0,0,0,37.24,56.09Z"/><path class="a" d="M33.35,56.09a5.92,5.92,0,0,0,.08,1.09,1.79,1.79,0,0,0,1.86,1.42,1.69,1.69,0,0,0,1.9-1.36A5.94,5.94,0,0,0,37.24,56a4.78,4.78,0,0,0-.07-1.21,1.73,1.73,0,0,0-1.8-1.28,1.88,1.88,0,0,0-1.94,1.29A4.89,4.89,0,0,0,33.35,56.09Z"/><path class="a" d="M45,56.11a6,6,0,0,1-.08,1.1,1.78,1.78,0,0,1-1.85,1.42,1.7,1.7,0,0,1-1.91-1.36,6,6,0,0,1,0-1.24,4.78,4.78,0,0,1,.07-1.21A1.73,1.73,0,0,1,43,53.54a1.83,1.83,0,0,1,2,1.19A5.65,5.65,0,0,1,45,56.11Z"/><path class="a" d="M60.45,56.09a5.92,5.92,0,0,0,.08,1.09,1.78,1.78,0,0,0,1.85,1.42,1.69,1.69,0,0,0,1.91-1.36,6,6,0,0,0,0-1.24,4.37,4.37,0,0,0-.06-1.21,1.73,1.73,0,0,0-1.8-1.28,1.87,1.87,0,0,0-1.94,1.29A4.89,4.89,0,0,0,60.45,56.09Z"/><path class="a" d="M52.73,56.09a5.85,5.85,0,0,0,.09,1.09,1.77,1.77,0,0,0,1.85,1.42,1.69,1.69,0,0,0,1.9-1.36,5.94,5.94,0,0,0,0-1.24,4.8,4.8,0,0,0-.06-1.21,1.74,1.74,0,0,0-1.81-1.28,1.88,1.88,0,0,0-1.94,1.29A4.89,4.89,0,0,0,52.73,56.09Z"/><path class="a" d="M48.84,56.09a5.11,5.11,0,0,0,.09,1.09,1.77,1.77,0,0,0,1.85,1.42,1.69,1.69,0,0,0,1.9-1.36,5.94,5.94,0,0,0,0-1.24,4.36,4.36,0,0,0-.07-1.21,1.72,1.72,0,0,0-1.8-1.28,1.88,1.88,0,0,0-1.94,1.29A4.89,4.89,0,0,0,48.84,56.09Z"/><path class="a" d="M60.49,56.11a6,6,0,0,1-.09,1.1,1.78,1.78,0,0,1-1.85,1.42,1.7,1.7,0,0,1-1.91-1.36,6,6,0,0,1,0-1.24,4.37,4.37,0,0,1,.06-1.21,1.73,1.73,0,0,1,1.81-1.28,1.81,1.81,0,0,1,2,1.19A5.63,5.63,0,0,1,60.49,56.11Z"/><path class="a" d="M33.32,56.11a6,6,0,0,1-.08,1.1,1.79,1.79,0,0,1-1.86,1.42,1.7,1.7,0,0,1-1.9-1.36A6,6,0,0,1,29.43,56a4.78,4.78,0,0,1,.07-1.21,1.73,1.73,0,0,1,1.8-1.28,1.81,1.81,0,0,1,1.95,1.19A5.63,5.63,0,0,1,33.32,56.11Z"/><path class="a" d="M3.9,56.1a6,6,0,0,1-.09,1.1A1.78,1.78,0,0,1,2,58.62a1.68,1.68,0,0,1-1.9-1.37A5.3,5.3,0,0,1,0,56a4.3,4.3,0,0,1,.06-1.2,1.72,1.72,0,0,1,1.81-1.28,1.81,1.81,0,0,1,2,1.18A5.74,5.74,0,0,1,3.9,56.1Z"/><path class="a" d="M45,62.77a6,6,0,0,0,.09,1.1,1.78,1.78,0,0,0,1.85,1.42,1.68,1.68,0,0,0,1.9-1.36,5.35,5.35,0,0,0,.05-1.24,4.37,4.37,0,0,0-.06-1.21A1.74,1.74,0,0,0,47,60.2,1.85,1.85,0,0,0,45,61.49,4.8,4.8,0,0,0,45,62.77Z"/><path class="a" d="M37.24,62.77a6,6,0,0,0,.08,1.1,1.79,1.79,0,0,0,1.86,1.42,1.7,1.7,0,0,0,1.9-1.36,6,6,0,0,0,.05-1.24,4.78,4.78,0,0,0-.07-1.21,1.73,1.73,0,0,0-1.8-1.28,1.87,1.87,0,0,0-1.94,1.29A4.82,4.82,0,0,0,37.24,62.77Z"/><path class="a" d="M33.35,62.77a6,6,0,0,0,.08,1.1,1.79,1.79,0,0,0,1.86,1.42,1.7,1.7,0,0,0,1.9-1.36,6,6,0,0,0,.05-1.24,4.78,4.78,0,0,0-.07-1.21,1.73,1.73,0,0,0-1.8-1.28,1.87,1.87,0,0,0-1.94,1.29A4.82,4.82,0,0,0,33.35,62.77Z"/><path class="a" d="M45,62.8a5.92,5.92,0,0,1-.08,1.09,1.78,1.78,0,0,1-1.85,1.43A1.7,1.7,0,0,1,41.15,64a5.91,5.91,0,0,1,0-1.24,4.7,4.7,0,0,1,.07-1.2A1.71,1.71,0,0,1,43,60.23a1.82,1.82,0,0,1,2,1.18A5.75,5.75,0,0,1,45,62.8Z"/><path class="a" d="M60.45,62.77a6,6,0,0,0,.08,1.1,1.78,1.78,0,0,0,1.85,1.42,1.7,1.7,0,0,0,1.91-1.36,6,6,0,0,0,0-1.24,4.37,4.37,0,0,0-.06-1.21,1.73,1.73,0,0,0-1.8-1.28,1.86,1.86,0,0,0-1.94,1.29A4.82,4.82,0,0,0,60.45,62.77Z"/><path class="a" d="M52.73,62.77a6,6,0,0,0,.09,1.1,1.77,1.77,0,0,0,1.85,1.42,1.7,1.7,0,0,0,1.9-1.36,6,6,0,0,0,0-1.24,4.8,4.8,0,0,0-.06-1.21,1.74,1.74,0,0,0-1.81-1.28,1.87,1.87,0,0,0-1.94,1.29A4.82,4.82,0,0,0,52.73,62.77Z"/><path class="a" d="M48.84,62.77a5.2,5.2,0,0,0,.09,1.1,1.77,1.77,0,0,0,1.85,1.42,1.7,1.7,0,0,0,1.9-1.36,6,6,0,0,0,0-1.24,4.36,4.36,0,0,0-.07-1.21,1.72,1.72,0,0,0-1.8-1.28,1.87,1.87,0,0,0-1.94,1.29A4.82,4.82,0,0,0,48.84,62.77Z"/><path class="a" d="M60.49,62.8a5.85,5.85,0,0,1-.09,1.09,1.77,1.77,0,0,1-1.85,1.43A1.7,1.7,0,0,1,56.64,64a6,6,0,0,1,0-1.24,4.3,4.3,0,0,1,.06-1.2,1.71,1.71,0,0,1,1.81-1.28,1.81,1.81,0,0,1,2,1.18A5.74,5.74,0,0,1,60.49,62.8Z"/><path class="a" d="M33.32,62.8a5.92,5.92,0,0,1-.08,1.09,1.78,1.78,0,0,1-1.86,1.43A1.7,1.7,0,0,1,29.48,64a5.91,5.91,0,0,1-.05-1.24,4.7,4.7,0,0,1,.07-1.2,1.71,1.71,0,0,1,1.8-1.28,1.8,1.8,0,0,1,1.95,1.18A5.74,5.74,0,0,1,33.32,62.8Z"/><path class="a" d="M3.9,62.8a5.85,5.85,0,0,1-.09,1.09A1.77,1.77,0,0,1,2,65.32,1.68,1.68,0,0,1,.06,64a5.3,5.3,0,0,1,0-1.24,4.3,4.3,0,0,1,.06-1.2,1.72,1.72,0,0,1,1.81-1.28,1.81,1.81,0,0,1,2,1.18A5.74,5.74,0,0,1,3.9,62.8Z"/></svg>