<svg xmlns="http://www.w3.org/2000/svg" width="52.01" height="65.32" viewBox="0 0 52.01 65.32"><defs><style>.a{fill:#21364f;}</style></defs><title>Asset 120</title><path class="a" d="M19.39,36a5.11,5.11,0,0,1-.09,1.09,1.77,1.77,0,0,1-1.85,1.42,1.69,1.69,0,0,1-1.9-1.36,5.91,5.91,0,0,1-.05-1.24,4.36,4.36,0,0,1,.07-1.21,1.72,1.72,0,0,1,1.8-1.28,1.88,1.88,0,0,1,1.94,1.3A4.79,4.79,0,0,1,19.39,36Z"/><path class="a" d="M27.1,36A5.92,5.92,0,0,1,27,37.11a1.79,1.79,0,0,1-1.86,1.42,1.69,1.69,0,0,1-1.9-1.36,5.91,5.91,0,0,1-.05-1.24,4.78,4.78,0,0,1,.07-1.21,1.73,1.73,0,0,1,1.8-1.28A1.87,1.87,0,0,1,27,34.74,4.79,4.79,0,0,1,27.1,36Z"/><path class="a" d="M31,36a5.92,5.92,0,0,1-.08,1.09,1.78,1.78,0,0,1-1.85,1.42,1.69,1.69,0,0,1-1.91-1.36,5.36,5.36,0,0,1,0-1.24,4.37,4.37,0,0,1,.06-1.21A1.73,1.73,0,0,1,29,33.44a1.86,1.86,0,0,1,1.94,1.3A4.79,4.79,0,0,1,31,36Z"/><path class="a" d="M19.35,36.05a5.92,5.92,0,0,0,.08,1.09,1.79,1.79,0,0,0,1.86,1.42,1.69,1.69,0,0,0,1.9-1.36,6,6,0,0,0,0-1.24,4.78,4.78,0,0,0-.07-1.21,1.73,1.73,0,0,0-1.8-1.28,1.82,1.82,0,0,0-1.95,1.19A5.68,5.68,0,0,0,19.35,36.05Z"/><path class="a" d="M3.9,36a5.85,5.85,0,0,1-.09,1.09A1.78,1.78,0,0,1,2,38.53a1.68,1.68,0,0,1-1.9-1.36,5.3,5.3,0,0,1,0-1.24,4.37,4.37,0,0,1,.06-1.21,1.74,1.74,0,0,1,1.81-1.28,1.86,1.86,0,0,1,1.93,1.3A4.77,4.77,0,0,1,3.9,36Z"/><path class="a" d="M11.61,36a5.92,5.92,0,0,1-.08,1.09,1.79,1.79,0,0,1-1.86,1.42,1.69,1.69,0,0,1-1.9-1.36,5.91,5.91,0,0,1,0-1.24,4.78,4.78,0,0,1,.07-1.21,1.73,1.73,0,0,1,1.8-1.28,1.88,1.88,0,0,1,1.94,1.3A4.79,4.79,0,0,1,11.61,36Z"/><path class="a" d="M15.5,36a5.92,5.92,0,0,1-.08,1.09,1.79,1.79,0,0,1-1.86,1.42,1.69,1.69,0,0,1-1.9-1.36,5.91,5.91,0,0,1-.05-1.24,4.78,4.78,0,0,1,.07-1.21,1.73,1.73,0,0,1,1.8-1.28,1.88,1.88,0,0,1,1.94,1.3A4.79,4.79,0,0,1,15.5,36Z"/><path class="a" d="M3.86,36.05a5.92,5.92,0,0,0,.08,1.09,1.78,1.78,0,0,0,1.85,1.42A1.69,1.69,0,0,0,7.7,37.2a6,6,0,0,0,0-1.24,4.78,4.78,0,0,0-.07-1.21,1.73,1.73,0,0,0-1.8-1.28,1.84,1.84,0,0,0-2,1.19A5.7,5.7,0,0,0,3.86,36.05Z"/><path class="a" d="M31,36.05a5.85,5.85,0,0,0,.09,1.09A1.77,1.77,0,0,0,33,38.56a1.68,1.68,0,0,0,1.9-1.36,6,6,0,0,0,0-1.24,4.8,4.8,0,0,0-.06-1.21A1.74,1.74,0,0,0,33,33.47a1.82,1.82,0,0,0-1.95,1.19A5.68,5.68,0,0,0,31,36.05Z"/><path class="a" d="M44.67,36a6,6,0,0,0,.09,1.1,1.78,1.78,0,0,0,1.85,1.42,1.7,1.7,0,0,0,1.91-1.37,6,6,0,0,0,0-1.24,4.3,4.3,0,0,0-.06-1.2,1.73,1.73,0,0,0-1.81-1.28,1.8,1.8,0,0,0-1.95,1.19A5.63,5.63,0,0,0,44.67,36Z"/><path class="a" d="M19.39,42.71a5.11,5.11,0,0,1-.09,1.09,1.77,1.77,0,0,1-1.85,1.42,1.69,1.69,0,0,1-1.9-1.36,5.94,5.94,0,0,1-.05-1.24,4.36,4.36,0,0,1,.07-1.21,1.72,1.72,0,0,1,1.8-1.28,1.88,1.88,0,0,1,1.94,1.29A4.89,4.89,0,0,1,19.39,42.71Z"/><path class="a" d="M27.1,42.71A5.92,5.92,0,0,1,27,43.8a1.79,1.79,0,0,1-1.86,1.42,1.69,1.69,0,0,1-1.9-1.36,5.94,5.94,0,0,1-.05-1.24,4.78,4.78,0,0,1,.07-1.21,1.73,1.73,0,0,1,1.8-1.28A1.88,1.88,0,0,1,27,41.42,4.89,4.89,0,0,1,27.1,42.71Z"/><path class="a" d="M31,42.71a5.92,5.92,0,0,1-.08,1.09,1.78,1.78,0,0,1-1.85,1.42,1.69,1.69,0,0,1-1.91-1.36,5.39,5.39,0,0,1,0-1.24,4.37,4.37,0,0,1,.06-1.21A1.73,1.73,0,0,1,29,40.13a1.87,1.87,0,0,1,1.94,1.29A4.89,4.89,0,0,1,31,42.71Z"/><path class="a" d="M19.35,42.73a6,6,0,0,0,.08,1.1,1.79,1.79,0,0,0,1.86,1.42,1.7,1.7,0,0,0,1.9-1.36,6,6,0,0,0,0-1.24,4.78,4.78,0,0,0-.07-1.21,1.73,1.73,0,0,0-1.8-1.28,1.81,1.81,0,0,0-1.95,1.19A5.63,5.63,0,0,0,19.35,42.73Z"/><path class="a" d="M3.9,42.71a5.85,5.85,0,0,1-.09,1.09A1.78,1.78,0,0,1,2,45.22a1.68,1.68,0,0,1-1.9-1.36,5.33,5.33,0,0,1,0-1.24,4.37,4.37,0,0,1,.06-1.21,1.74,1.74,0,0,1,1.81-1.28,1.86,1.86,0,0,1,1.93,1.29A4.88,4.88,0,0,1,3.9,42.71Z"/><path class="a" d="M11.61,42.71a5.92,5.92,0,0,1-.08,1.09,1.79,1.79,0,0,1-1.86,1.42,1.69,1.69,0,0,1-1.9-1.36,5.94,5.94,0,0,1,0-1.24,4.78,4.78,0,0,1,.07-1.21,1.73,1.73,0,0,1,1.8-1.28,1.88,1.88,0,0,1,1.94,1.29A4.89,4.89,0,0,1,11.61,42.71Z"/><path class="a" d="M15.5,42.71a5.92,5.92,0,0,1-.08,1.09,1.79,1.79,0,0,1-1.86,1.42,1.69,1.69,0,0,1-1.9-1.36,5.94,5.94,0,0,1-.05-1.24,4.78,4.78,0,0,1,.07-1.21,1.73,1.73,0,0,1,1.8-1.28,1.88,1.88,0,0,1,1.94,1.29A4.89,4.89,0,0,1,15.5,42.71Z"/><path class="a" d="M3.86,42.73a6,6,0,0,0,.08,1.1,1.78,1.78,0,0,0,1.85,1.42A1.7,1.7,0,0,0,7.7,43.89a6,6,0,0,0,0-1.24,4.78,4.78,0,0,0-.07-1.21,1.73,1.73,0,0,0-1.8-1.28,1.83,1.83,0,0,0-2,1.19A5.65,5.65,0,0,0,3.86,42.73Z"/><path class="a" d="M31,42.73a6,6,0,0,0,.09,1.1A1.77,1.77,0,0,0,33,45.25a1.69,1.69,0,0,0,1.9-1.36,6,6,0,0,0,0-1.24,4.8,4.8,0,0,0-.06-1.21A1.74,1.74,0,0,0,33,40.16a1.81,1.81,0,0,0-1.95,1.19A5.63,5.63,0,0,0,31,42.73Z"/><path class="a" d="M47.86,42.72a5.92,5.92,0,0,0,.08,1.09,1.78,1.78,0,0,0,1.86,1.43,1.7,1.7,0,0,0,1.9-1.37,5.91,5.91,0,0,0,0-1.24,4.7,4.7,0,0,0-.07-1.2,1.71,1.71,0,0,0-1.8-1.28,1.8,1.8,0,0,0-2,1.18A5.74,5.74,0,0,0,47.86,42.72Z"/><path class="a" d="M19.39,49.4a5.11,5.11,0,0,1-.09,1.09,1.77,1.77,0,0,1-1.85,1.42,1.69,1.69,0,0,1-1.9-1.36,6,6,0,0,1-.05-1.24,4.36,4.36,0,0,1,.07-1.21,1.72,1.72,0,0,1,1.8-1.28,1.88,1.88,0,0,1,1.94,1.29A4.87,4.87,0,0,1,19.39,49.4Z"/><path class="a" d="M27.1,49.4A5.92,5.92,0,0,1,27,50.49a1.79,1.79,0,0,1-1.86,1.42,1.69,1.69,0,0,1-1.9-1.36,6,6,0,0,1-.05-1.24,4.78,4.78,0,0,1,.07-1.21,1.73,1.73,0,0,1,1.8-1.28A1.88,1.88,0,0,1,27,48.11,4.87,4.87,0,0,1,27.1,49.4Z"/><path class="a" d="M31,49.4a5.92,5.92,0,0,1-.08,1.09,1.78,1.78,0,0,1-1.85,1.42,1.69,1.69,0,0,1-1.91-1.36,5.41,5.41,0,0,1,0-1.24,4.37,4.37,0,0,1,.06-1.21A1.73,1.73,0,0,1,29,46.82a1.87,1.87,0,0,1,1.94,1.29A4.87,4.87,0,0,1,31,49.4Z"/><path class="a" d="M19.35,49.42a6,6,0,0,0,.08,1.1,1.79,1.79,0,0,0,1.86,1.42,1.7,1.7,0,0,0,1.9-1.36,6,6,0,0,0,0-1.24,4.78,4.78,0,0,0-.07-1.21,1.73,1.73,0,0,0-1.8-1.28A1.81,1.81,0,0,0,19.42,48,5.63,5.63,0,0,0,19.35,49.42Z"/><path class="a" d="M3.9,49.4a5.85,5.85,0,0,1-.09,1.09A1.78,1.78,0,0,1,2,51.91a1.68,1.68,0,0,1-1.9-1.36,5.35,5.35,0,0,1,0-1.24A4.37,4.37,0,0,1,.07,48.1a1.74,1.74,0,0,1,1.81-1.28,1.86,1.86,0,0,1,1.93,1.29A4.85,4.85,0,0,1,3.9,49.4Z"/><path class="a" d="M11.61,49.4a5.92,5.92,0,0,1-.08,1.09,1.79,1.79,0,0,1-1.86,1.42,1.69,1.69,0,0,1-1.9-1.36,6,6,0,0,1,0-1.24,4.78,4.78,0,0,1,.07-1.21,1.73,1.73,0,0,1,1.8-1.28,1.88,1.88,0,0,1,1.94,1.29A4.87,4.87,0,0,1,11.61,49.4Z"/><path class="a" d="M15.5,49.4a5.92,5.92,0,0,1-.08,1.09,1.79,1.79,0,0,1-1.86,1.42,1.69,1.69,0,0,1-1.9-1.36,6,6,0,0,1-.05-1.24,4.78,4.78,0,0,1,.07-1.21,1.73,1.73,0,0,1,1.8-1.28,1.88,1.88,0,0,1,1.94,1.29A4.87,4.87,0,0,1,15.5,49.4Z"/><path class="a" d="M3.86,49.42a6,6,0,0,0,.08,1.1,1.78,1.78,0,0,0,1.85,1.42A1.7,1.7,0,0,0,7.7,50.58a6,6,0,0,0,0-1.24,4.78,4.78,0,0,0-.07-1.21,1.73,1.73,0,0,0-1.8-1.28,1.83,1.83,0,0,0-2,1.19A5.65,5.65,0,0,0,3.86,49.42Z"/><path class="a" d="M31,49.42a6,6,0,0,0,.09,1.1A1.77,1.77,0,0,0,33,51.94a1.69,1.69,0,0,0,1.9-1.36,6,6,0,0,0,0-1.24,4.8,4.8,0,0,0-.06-1.21A1.74,1.74,0,0,0,33,46.85,1.81,1.81,0,0,0,31.09,48,5.63,5.63,0,0,0,31,49.42Z"/><path class="a" d="M47.86,49.41a5.92,5.92,0,0,0,.08,1.09,1.79,1.79,0,0,0,1.86,1.43,1.7,1.7,0,0,0,1.9-1.37,5.91,5.91,0,0,0,0-1.24,4.78,4.78,0,0,0-.07-1.21,1.71,1.71,0,0,0-1.8-1.27,1.8,1.8,0,0,0-2,1.18A5.74,5.74,0,0,0,47.86,49.41Z"/><path class="a" d="M19.39,56.08a5.2,5.2,0,0,1-.09,1.1,1.77,1.77,0,0,1-1.85,1.42,1.7,1.7,0,0,1-1.9-1.36A6,6,0,0,1,15.5,56a4.36,4.36,0,0,1,.07-1.21,1.72,1.72,0,0,1,1.8-1.28,1.87,1.87,0,0,1,1.94,1.29A4.82,4.82,0,0,1,19.39,56.08Z"/><path class="a" d="M27.1,56.08a6,6,0,0,1-.08,1.1,1.79,1.79,0,0,1-1.86,1.42,1.7,1.7,0,0,1-1.9-1.36A6,6,0,0,1,23.21,56a4.78,4.78,0,0,1,.07-1.21,1.73,1.73,0,0,1,1.8-1.28A1.87,1.87,0,0,1,27,54.8,4.82,4.82,0,0,1,27.1,56.08Z"/><path class="a" d="M31,56.08a6,6,0,0,1-.08,1.1,1.78,1.78,0,0,1-1.85,1.42,1.7,1.7,0,0,1-1.91-1.36,5.41,5.41,0,0,1,0-1.24,4.37,4.37,0,0,1,.06-1.21A1.73,1.73,0,0,1,29,53.51a1.86,1.86,0,0,1,1.94,1.29A4.82,4.82,0,0,1,31,56.08Z"/><path class="a" d="M19.35,56.11a6.1,6.1,0,0,0,.08,1.1,1.79,1.79,0,0,0,1.86,1.42,1.7,1.7,0,0,0,1.9-1.37,5.91,5.91,0,0,0,0-1.24,4.7,4.7,0,0,0-.07-1.2,1.72,1.72,0,0,0-1.8-1.28,1.8,1.8,0,0,0-1.95,1.19A5.63,5.63,0,0,0,19.35,56.11Z"/><path class="a" d="M3.9,56.08a6,6,0,0,1-.09,1.1A1.78,1.78,0,0,1,2,58.6a1.68,1.68,0,0,1-1.9-1.36A5.35,5.35,0,0,1,0,56a4.37,4.37,0,0,1,.06-1.21,1.74,1.74,0,0,1,1.81-1.28A1.85,1.85,0,0,1,3.81,54.8,4.8,4.8,0,0,1,3.9,56.08Z"/><path class="a" d="M11.61,56.08a6,6,0,0,1-.08,1.1A1.79,1.79,0,0,1,9.67,58.6a1.7,1.7,0,0,1-1.9-1.36,6,6,0,0,1,0-1.24,4.78,4.78,0,0,1,.07-1.21,1.73,1.73,0,0,1,1.8-1.28,1.87,1.87,0,0,1,1.94,1.29A4.82,4.82,0,0,1,11.61,56.08Z"/><path class="a" d="M15.5,56.08a6,6,0,0,1-.08,1.1,1.79,1.79,0,0,1-1.86,1.42,1.7,1.7,0,0,1-1.9-1.36A6,6,0,0,1,11.61,56a4.78,4.78,0,0,1,.07-1.21,1.73,1.73,0,0,1,1.8-1.28,1.87,1.87,0,0,1,1.94,1.29A4.82,4.82,0,0,1,15.5,56.08Z"/><path class="a" d="M3.86,56.11a6.1,6.1,0,0,0,.08,1.1,1.78,1.78,0,0,0,1.85,1.42A1.7,1.7,0,0,0,7.7,57.26a5.91,5.91,0,0,0,0-1.24,4.7,4.7,0,0,0-.07-1.2,1.72,1.72,0,0,0-1.8-1.28,1.82,1.82,0,0,0-2,1.19A5.65,5.65,0,0,0,3.86,56.11Z"/><path class="a" d="M31,56.11a6,6,0,0,0,.09,1.1A1.77,1.77,0,0,0,33,58.63a1.69,1.69,0,0,0,1.9-1.37,5.91,5.91,0,0,0,0-1.24,4.72,4.72,0,0,0-.06-1.2A1.73,1.73,0,0,0,33,53.54a1.8,1.8,0,0,0-1.95,1.19A5.63,5.63,0,0,0,31,56.11Z"/><path class="a" d="M44.67,56.1a5.85,5.85,0,0,0,.09,1.09,1.78,1.78,0,0,0,1.85,1.42,1.69,1.69,0,0,0,1.91-1.36,6,6,0,0,0,0-1.24,4.37,4.37,0,0,0-.06-1.21,1.74,1.74,0,0,0-1.81-1.28,1.83,1.83,0,0,0-1.95,1.19A5.68,5.68,0,0,0,44.67,56.1Z"/><path class="a" d="M19.39,9.26a5.2,5.2,0,0,1-.09,1.1,1.77,1.77,0,0,1-1.85,1.42,1.7,1.7,0,0,1-1.9-1.36,6,6,0,0,1-.05-1.24A4.36,4.36,0,0,1,15.57,8a1.72,1.72,0,0,1,1.8-1.28A1.87,1.87,0,0,1,19.31,8,4.82,4.82,0,0,1,19.39,9.26Z"/><path class="a" d="M27.1,9.26a6,6,0,0,1-.08,1.1,1.79,1.79,0,0,1-1.86,1.42,1.7,1.7,0,0,1-1.9-1.36,6,6,0,0,1-.05-1.24A4.78,4.78,0,0,1,23.28,8a1.73,1.73,0,0,1,1.8-1.28A1.87,1.87,0,0,1,27,8,4.82,4.82,0,0,1,27.1,9.26Z"/><path class="a" d="M31,9.26a6,6,0,0,1-.08,1.1,1.78,1.78,0,0,1-1.85,1.42,1.7,1.7,0,0,1-1.91-1.36,5.41,5.41,0,0,1,0-1.24A4.37,4.37,0,0,1,27.17,8,1.73,1.73,0,0,1,29,6.69,1.86,1.86,0,0,1,30.91,8,4.82,4.82,0,0,1,31,9.26Z"/><path class="a" d="M19.35,9.29a5.92,5.92,0,0,0,.08,1.09,1.78,1.78,0,0,0,1.86,1.43,1.7,1.7,0,0,0,1.9-1.37,5.91,5.91,0,0,0,0-1.24A4.7,4.7,0,0,0,23.17,8a1.71,1.71,0,0,0-1.8-1.28A1.8,1.8,0,0,0,19.42,7.9,5.74,5.74,0,0,0,19.35,9.29Z"/><path class="a" d="M3.9,9.26a6,6,0,0,1-.09,1.1A1.78,1.78,0,0,1,2,11.78a1.68,1.68,0,0,1-1.9-1.36A5.35,5.35,0,0,1,0,9.18,4.37,4.37,0,0,1,.07,8,1.74,1.74,0,0,1,1.88,6.69,1.85,1.85,0,0,1,3.81,8,4.8,4.8,0,0,1,3.9,9.26Z"/><path class="a" d="M11.61,9.26a6,6,0,0,1-.08,1.1,1.79,1.79,0,0,1-1.86,1.42,1.7,1.7,0,0,1-1.9-1.36,6,6,0,0,1,0-1.24A4.78,4.78,0,0,1,7.79,8a1.73,1.73,0,0,1,1.8-1.28A1.87,1.87,0,0,1,11.53,8,4.82,4.82,0,0,1,11.61,9.26Z"/><path class="a" d="M15.5,9.26a6,6,0,0,1-.08,1.1,1.79,1.79,0,0,1-1.86,1.42,1.7,1.7,0,0,1-1.9-1.36,6,6,0,0,1-.05-1.24A4.78,4.78,0,0,1,11.68,8a1.73,1.73,0,0,1,1.8-1.28A1.87,1.87,0,0,1,15.42,8,4.82,4.82,0,0,1,15.5,9.26Z"/><path class="a" d="M3.86,9.29a5.92,5.92,0,0,0,.08,1.09,1.78,1.78,0,0,0,1.85,1.43A1.7,1.7,0,0,0,7.7,10.44a5.91,5.91,0,0,0,0-1.24A4.7,4.7,0,0,0,7.68,8a1.71,1.71,0,0,0-1.8-1.28,1.82,1.82,0,0,0-2,1.18A5.75,5.75,0,0,0,3.86,9.29Z"/><path class="a" d="M31,9.29a5.85,5.85,0,0,0,.09,1.09A1.77,1.77,0,0,0,33,11.81a1.69,1.69,0,0,0,1.9-1.37,5.91,5.91,0,0,0,0-1.24A4.72,4.72,0,0,0,34.85,8,1.72,1.72,0,0,0,33,6.72,1.8,1.8,0,0,0,31.09,7.9,5.74,5.74,0,0,0,31,9.29Z"/><path class="a" d="M46.15,9.28a5.92,5.92,0,0,0,.08,1.09,1.78,1.78,0,0,0,1.85,1.42A1.69,1.69,0,0,0,50,10.43a5.94,5.94,0,0,0,0-1.24A4.78,4.78,0,0,0,50,8a1.73,1.73,0,0,0-1.8-1.28,1.84,1.84,0,0,0-2,1.19A5.7,5.7,0,0,0,46.15,9.28Z"/><path class="a" d="M19.39,16a5.26,5.26,0,0,1-.09,1.1,1.77,1.77,0,0,1-1.85,1.42,1.7,1.7,0,0,1-1.9-1.37,5.91,5.91,0,0,1-.05-1.24,4.29,4.29,0,0,1,.07-1.2,1.7,1.7,0,0,1,1.8-1.28,1.87,1.87,0,0,1,1.94,1.29A4.82,4.82,0,0,1,19.39,16Z"/><path class="a" d="M27.1,16a6.1,6.1,0,0,1-.08,1.1,1.79,1.79,0,0,1-1.86,1.42,1.7,1.7,0,0,1-1.9-1.37,5.91,5.91,0,0,1-.05-1.24,4.7,4.7,0,0,1,.07-1.2,1.71,1.71,0,0,1,1.8-1.28A1.87,1.87,0,0,1,27,14.67,4.82,4.82,0,0,1,27.1,16Z"/><path class="a" d="M31,16a6.1,6.1,0,0,1-.08,1.1,1.78,1.78,0,0,1-1.85,1.42,1.7,1.7,0,0,1-1.91-1.37,5.36,5.36,0,0,1,0-1.24,4.3,4.3,0,0,1,.06-1.2A1.71,1.71,0,0,1,29,13.38a1.86,1.86,0,0,1,1.94,1.29A4.82,4.82,0,0,1,31,16Z"/><path class="a" d="M19.35,16a5.92,5.92,0,0,0,.08,1.09,1.79,1.79,0,0,0,1.86,1.43,1.7,1.7,0,0,0,1.9-1.37,5.91,5.91,0,0,0,0-1.24,4.78,4.78,0,0,0-.07-1.21,1.71,1.71,0,0,0-1.8-1.27,1.8,1.8,0,0,0-1.95,1.18A5.74,5.74,0,0,0,19.35,16Z"/><path class="a" d="M3.9,16a6,6,0,0,1-.09,1.1A1.78,1.78,0,0,1,2,18.47,1.68,1.68,0,0,1,.06,17.1a5.3,5.3,0,0,1,0-1.24,4.3,4.3,0,0,1,.06-1.2,1.72,1.72,0,0,1,1.81-1.28,1.85,1.85,0,0,1,1.93,1.29A4.8,4.8,0,0,1,3.9,16Z"/><path class="a" d="M11.61,16a6.1,6.1,0,0,1-.08,1.1,1.79,1.79,0,0,1-1.86,1.42,1.7,1.7,0,0,1-1.9-1.37,5.91,5.91,0,0,1,0-1.24,4.7,4.7,0,0,1,.07-1.2,1.71,1.71,0,0,1,1.8-1.28,1.87,1.87,0,0,1,1.94,1.29A4.82,4.82,0,0,1,11.61,16Z"/><path class="a" d="M15.5,16a6.1,6.1,0,0,1-.08,1.1,1.79,1.79,0,0,1-1.86,1.42,1.7,1.7,0,0,1-1.9-1.37,5.91,5.91,0,0,1-.05-1.24,4.7,4.7,0,0,1,.07-1.2,1.71,1.71,0,0,1,1.8-1.28,1.87,1.87,0,0,1,1.94,1.29A4.82,4.82,0,0,1,15.5,16Z"/><path class="a" d="M3.86,16a5.92,5.92,0,0,0,.08,1.09A1.79,1.79,0,0,0,5.79,18.5,1.7,1.7,0,0,0,7.7,17.13a5.91,5.91,0,0,0,0-1.24,4.78,4.78,0,0,0-.07-1.21,1.71,1.71,0,0,0-1.8-1.27,1.82,1.82,0,0,0-2,1.18A5.75,5.75,0,0,0,3.86,16Z"/><path class="a" d="M31,16a5.85,5.85,0,0,0,.09,1.09A1.78,1.78,0,0,0,33,18.5a1.69,1.69,0,0,0,1.9-1.37,5.91,5.91,0,0,0,0-1.24,4.8,4.8,0,0,0-.06-1.21A1.72,1.72,0,0,0,33,13.41a1.8,1.8,0,0,0-1.95,1.18A5.74,5.74,0,0,0,31,16Z"/><path class="a" d="M48.11,16a5.85,5.85,0,0,0,.09,1.09,1.78,1.78,0,0,0,1.85,1.42A1.68,1.68,0,0,0,52,17.12a5.35,5.35,0,0,0,0-1.24,4.37,4.37,0,0,0-.06-1.21,1.74,1.74,0,0,0-1.81-1.28,1.83,1.83,0,0,0-2,1.19A5.68,5.68,0,0,0,48.11,16Z"/><path class="a" d="M19.39,22.64a5.11,5.11,0,0,1-.09,1.09,1.77,1.77,0,0,1-1.85,1.43,1.7,1.7,0,0,1-1.9-1.37,5.91,5.91,0,0,1-.05-1.24,4.29,4.29,0,0,1,.07-1.2,1.7,1.7,0,0,1,1.8-1.28,1.87,1.87,0,0,1,1.94,1.29A4.82,4.82,0,0,1,19.39,22.64Z"/><path class="a" d="M27.1,22.64A5.92,5.92,0,0,1,27,23.73a1.78,1.78,0,0,1-1.86,1.43,1.7,1.7,0,0,1-1.9-1.37,5.91,5.91,0,0,1-.05-1.24,4.7,4.7,0,0,1,.07-1.2,1.71,1.71,0,0,1,1.8-1.28A1.87,1.87,0,0,1,27,21.36,4.82,4.82,0,0,1,27.1,22.64Z"/><path class="a" d="M31,22.64a5.92,5.92,0,0,1-.08,1.09,1.78,1.78,0,0,1-1.85,1.43,1.7,1.7,0,0,1-1.91-1.37,5.36,5.36,0,0,1,0-1.24,4.3,4.3,0,0,1,.06-1.2A1.71,1.71,0,0,1,29,20.07a1.86,1.86,0,0,1,1.94,1.29A4.82,4.82,0,0,1,31,22.64Z"/><path class="a" d="M19.35,22.67a5.92,5.92,0,0,0,.08,1.09,1.79,1.79,0,0,0,1.86,1.42,1.69,1.69,0,0,0,1.9-1.36,5.91,5.91,0,0,0,0-1.24,4.78,4.78,0,0,0-.07-1.21,1.73,1.73,0,0,0-1.8-1.28,1.82,1.82,0,0,0-1.95,1.19A5.68,5.68,0,0,0,19.35,22.67Z"/><path class="a" d="M3.9,22.64a5.85,5.85,0,0,1-.09,1.09A1.77,1.77,0,0,1,2,25.16a1.68,1.68,0,0,1-1.9-1.37,5.3,5.3,0,0,1,0-1.24,4.3,4.3,0,0,1,.06-1.2,1.72,1.72,0,0,1,1.81-1.28,1.85,1.85,0,0,1,1.93,1.29A4.8,4.8,0,0,1,3.9,22.64Z"/><path class="a" d="M11.61,22.64a5.92,5.92,0,0,1-.08,1.09,1.78,1.78,0,0,1-1.86,1.43,1.7,1.7,0,0,1-1.9-1.37,5.91,5.91,0,0,1,0-1.24,4.7,4.7,0,0,1,.07-1.2,1.71,1.71,0,0,1,1.8-1.28,1.87,1.87,0,0,1,1.94,1.29A4.82,4.82,0,0,1,11.61,22.64Z"/><path class="a" d="M15.5,22.64a5.92,5.92,0,0,1-.08,1.09,1.78,1.78,0,0,1-1.86,1.43,1.7,1.7,0,0,1-1.9-1.37,5.91,5.91,0,0,1-.05-1.24,4.7,4.7,0,0,1,.07-1.2,1.71,1.71,0,0,1,1.8-1.28,1.87,1.87,0,0,1,1.94,1.29A4.82,4.82,0,0,1,15.5,22.64Z"/><path class="a" d="M3.86,22.67a5.92,5.92,0,0,0,.08,1.09,1.78,1.78,0,0,0,1.85,1.42A1.69,1.69,0,0,0,7.7,23.82a5.91,5.91,0,0,0,0-1.24,4.78,4.78,0,0,0-.07-1.21,1.73,1.73,0,0,0-1.8-1.28,1.84,1.84,0,0,0-2,1.19A5.7,5.7,0,0,0,3.86,22.67Z"/><path class="a" d="M31,22.67a5.85,5.85,0,0,0,.09,1.09A1.77,1.77,0,0,0,33,25.18a1.68,1.68,0,0,0,1.9-1.36,5.91,5.91,0,0,0,0-1.24,4.8,4.8,0,0,0-.06-1.21A1.74,1.74,0,0,0,33,20.09a1.82,1.82,0,0,0-1.95,1.19A5.68,5.68,0,0,0,31,22.67Z"/><path class="a" d="M45,22.65a6,6,0,0,0,.09,1.1,1.78,1.78,0,0,0,1.85,1.42,1.68,1.68,0,0,0,1.9-1.36,5.35,5.35,0,0,0,0-1.24,4.37,4.37,0,0,0-.06-1.21A1.74,1.74,0,0,0,47,20.08a1.81,1.81,0,0,0-2,1.19A5.63,5.63,0,0,0,45,22.65Z"/><path class="a" d="M0,62.77a6.1,6.1,0,0,0,.08,1.1A1.79,1.79,0,0,0,2,65.29a1.7,1.7,0,0,0,1.9-1.36,6,6,0,0,0,0-1.25,4.73,4.73,0,0,0-.07-1.2A1.72,1.72,0,0,0,2,60.2,1.81,1.81,0,0,0,.08,61.39,5.63,5.63,0,0,0,0,62.77Z"/><path class="a" d="M4,62.77a6.1,6.1,0,0,0,.08,1.1,1.78,1.78,0,0,0,1.85,1.42,1.7,1.7,0,0,0,1.91-1.36,6.12,6.12,0,0,0,0-1.25,4.32,4.32,0,0,0-.06-1.2A1.72,1.72,0,0,0,6,60.2,1.81,1.81,0,0,0,4,61.39,5.65,5.65,0,0,0,4,62.77Z"/><path class="a" d="M11.83,62.77a6.1,6.1,0,0,1-.08,1.1,1.79,1.79,0,0,1-1.86,1.42A1.7,1.7,0,0,1,8,63.93a6,6,0,0,1,0-1.25A4.73,4.73,0,0,1,8,61.48a1.72,1.72,0,0,1,1.8-1.28,1.81,1.81,0,0,1,1.95,1.19A5.63,5.63,0,0,1,11.83,62.77Z"/><path class="a" d="M12,62.77a6.1,6.1,0,0,0,.08,1.1,1.79,1.79,0,0,0,1.86,1.42,1.7,1.7,0,0,0,1.9-1.36,6,6,0,0,0,.05-1.25,4.73,4.73,0,0,0-.07-1.2A1.72,1.72,0,0,0,14,60.2a1.81,1.81,0,0,0-1.95,1.19A5.63,5.63,0,0,0,12,62.77Z"/><path class="a" d="M19.93,62.77a6,6,0,0,1-.09,1.1A1.78,1.78,0,0,1,18,65.29a1.68,1.68,0,0,1-1.9-1.36A5.41,5.41,0,0,1,16,62.68a4.32,4.32,0,0,1,.06-1.2,1.73,1.73,0,0,1,1.81-1.28,1.81,1.81,0,0,1,1.95,1.19A5.63,5.63,0,0,1,19.93,62.77Z"/><path class="a" d="M20.09,62.77a6.1,6.1,0,0,0,.08,1.1A1.78,1.78,0,0,0,22,65.29a1.7,1.7,0,0,0,1.91-1.36,5.48,5.48,0,0,0,0-1.25,4.32,4.32,0,0,0-.06-1.2,1.72,1.72,0,0,0-1.8-1.28,1.82,1.82,0,0,0-2,1.19A5.65,5.65,0,0,0,20.09,62.77Z"/><path class="a" d="M32.92,62.77a6,6,0,0,1-.09,1.1A1.78,1.78,0,0,1,31,65.29a1.68,1.68,0,0,1-1.9-1.36,5.41,5.41,0,0,1,0-1.25,4.32,4.32,0,0,1,.06-1.2A1.73,1.73,0,0,1,30.9,60.2a1.81,1.81,0,0,1,2,1.19A5.63,5.63,0,0,1,32.92,62.77Z"/><path class="a" d="M33,62.8a5.85,5.85,0,0,0,.09,1.09,1.77,1.77,0,0,0,1.85,1.43A1.7,1.7,0,0,0,36.81,64a6,6,0,0,0,0-1.24,4.3,4.3,0,0,0-.06-1.2A1.72,1.72,0,0,0,35,60.23,1.81,1.81,0,0,0,33,61.41,5.74,5.74,0,0,0,33,62.8Z"/><path class="a" d="M40.76,62.77a6.1,6.1,0,0,1-.08,1.1,1.79,1.79,0,0,1-1.86,1.42,1.7,1.7,0,0,1-1.9-1.36,6,6,0,0,1-.05-1.25,4.73,4.73,0,0,1,.07-1.2,1.72,1.72,0,0,1,1.8-1.28,1.81,1.81,0,0,1,1.95,1.19A5.63,5.63,0,0,1,40.76,62.77Z"/><path class="a" d="M40.79,62.77a6,6,0,0,0,.09,1.1,1.78,1.78,0,0,0,1.85,1.42,1.68,1.68,0,0,0,1.9-1.36,5.41,5.41,0,0,0,0-1.25,4.32,4.32,0,0,0-.06-1.2,1.73,1.73,0,0,0-1.81-1.28,1.81,1.81,0,0,0-2,1.19A5.63,5.63,0,0,0,40.79,62.77Z"/><path class="a" d="M0,2.57a6,6,0,0,0,.08,1.1A1.79,1.79,0,0,0,2,5.09a1.7,1.7,0,0,0,1.9-1.36,6,6,0,0,0,0-1.24,4.78,4.78,0,0,0-.07-1.21A1.73,1.73,0,0,0,2,0,1.81,1.81,0,0,0,.08,1.19,5.63,5.63,0,0,0,0,2.57Z"/><path class="a" d="M4,2.57a6,6,0,0,0,.08,1.1A1.78,1.78,0,0,0,5.91,5.09,1.7,1.7,0,0,0,7.82,3.73a6,6,0,0,0,0-1.24A4.37,4.37,0,0,0,7.8,1.28,1.73,1.73,0,0,0,6,0,1.81,1.81,0,0,0,4,1.19,5.65,5.65,0,0,0,4,2.57Z"/><path class="a" d="M11.83,2.57a6,6,0,0,1-.08,1.1A1.79,1.79,0,0,1,9.89,5.09,1.7,1.7,0,0,1,8,3.73a6,6,0,0,1,0-1.24A4.78,4.78,0,0,1,8,1.28,1.73,1.73,0,0,1,9.81,0a1.81,1.81,0,0,1,1.95,1.19A5.63,5.63,0,0,1,11.83,2.57Z"/><path class="a" d="M12,2.57a6,6,0,0,0,.08,1.1,1.79,1.79,0,0,0,1.86,1.42,1.7,1.7,0,0,0,1.9-1.36,6,6,0,0,0,.05-1.24,4.78,4.78,0,0,0-.07-1.21A1.73,1.73,0,0,0,14,0a1.81,1.81,0,0,0-1.95,1.19A5.63,5.63,0,0,0,12,2.57Z"/><path class="a" d="M19.93,2.57a6,6,0,0,1-.09,1.1A1.78,1.78,0,0,1,18,5.09a1.68,1.68,0,0,1-1.9-1.36A5.35,5.35,0,0,1,16,2.49a4.37,4.37,0,0,1,.06-1.21A1.74,1.74,0,0,1,17.91,0a1.81,1.81,0,0,1,1.95,1.19A5.63,5.63,0,0,1,19.93,2.57Z"/><path class="a" d="M20.09,2.57a6,6,0,0,0,.08,1.1A1.78,1.78,0,0,0,22,5.09a1.7,1.7,0,0,0,1.91-1.36,5.41,5.41,0,0,0,0-1.24,4.37,4.37,0,0,0-.06-1.21A1.73,1.73,0,0,0,22.11,0a1.82,1.82,0,0,0-2,1.19A5.65,5.65,0,0,0,20.09,2.57Z"/><path class="a" d="M33.71,2.57a6,6,0,0,1-.08,1.1,1.79,1.79,0,0,1-1.86,1.42,1.7,1.7,0,0,1-1.9-1.36,6,6,0,0,1-.05-1.24,4.78,4.78,0,0,1,.07-1.21A1.73,1.73,0,0,1,31.69,0a1.83,1.83,0,0,1,2,1.19A5.65,5.65,0,0,1,33.71,2.57Z"/><path class="a" d="M33.76,2.6a6.1,6.1,0,0,0,.08,1.1A1.79,1.79,0,0,0,35.7,5.12a1.7,1.7,0,0,0,1.9-1.36,6,6,0,0,0,0-1.25,4.7,4.7,0,0,0-.07-1.2A1.72,1.72,0,0,0,35.78,0a1.81,1.81,0,0,0-2,1.19A5.63,5.63,0,0,0,33.76,2.6Z"/><path class="a" d="M41.56,2.57a6,6,0,0,1-.09,1.1,1.78,1.78,0,0,1-1.85,1.42,1.68,1.68,0,0,1-1.9-1.36,5.35,5.35,0,0,1,0-1.24,4.37,4.37,0,0,1,.06-1.21A1.74,1.74,0,0,1,39.54,0a1.81,1.81,0,0,1,2,1.19A5.63,5.63,0,0,1,41.56,2.57Z"/><path class="a" d="M41.59,2.57a6,6,0,0,0,.08,1.1,1.79,1.79,0,0,0,1.86,1.42,1.7,1.7,0,0,0,1.9-1.36,6,6,0,0,0,0-1.24,4.78,4.78,0,0,0-.07-1.21A1.73,1.73,0,0,0,43.61,0a1.81,1.81,0,0,0-2,1.19A5.63,5.63,0,0,0,41.59,2.57Z"/><path class="a" d="M0,29.33a5.92,5.92,0,0,0,.08,1.09A1.79,1.79,0,0,0,2,31.84a1.69,1.69,0,0,0,1.9-1.36,5.91,5.91,0,0,0,0-1.24A4.78,4.78,0,0,0,3.83,28,1.71,1.71,0,0,0,2,26.76,1.8,1.8,0,0,0,.08,27.94,5.71,5.71,0,0,0,0,29.33Z"/><path class="a" d="M4,29.33a5.92,5.92,0,0,0,.08,1.09,1.78,1.78,0,0,0,1.85,1.42,1.69,1.69,0,0,0,1.91-1.36,6,6,0,0,0,0-1.24A4.37,4.37,0,0,0,7.8,28,1.71,1.71,0,0,0,6,26.76,1.81,1.81,0,0,0,4,27.94,5.73,5.73,0,0,0,4,29.33Z"/><path class="a" d="M11.79,29.33a5.11,5.11,0,0,1-.09,1.09,1.77,1.77,0,0,1-1.85,1.42A1.69,1.69,0,0,1,8,30.48a5.91,5.91,0,0,1,0-1.24A4.36,4.36,0,0,1,8,28a1.7,1.7,0,0,1,1.8-1.27,1.8,1.8,0,0,1,2,1.18A5.71,5.71,0,0,1,11.79,29.33Z"/><path class="a" d="M11.82,29.33a5.85,5.85,0,0,0,.09,1.09,1.78,1.78,0,0,0,1.85,1.42,1.68,1.68,0,0,0,1.9-1.36,5.3,5.3,0,0,0,.05-1.24A4.37,4.37,0,0,0,15.65,28a1.72,1.72,0,0,0-1.81-1.27,1.8,1.8,0,0,0-1.95,1.18A5.71,5.71,0,0,0,11.82,29.33Z"/><path class="a" d="M19.63,29.33a5.92,5.92,0,0,1-.08,1.09,1.78,1.78,0,0,1-1.85,1.42,1.69,1.69,0,0,1-1.91-1.36,5.36,5.36,0,0,1,0-1.24A4.37,4.37,0,0,1,15.81,28a1.71,1.71,0,0,1,1.8-1.27,1.81,1.81,0,0,1,2,1.18A5.73,5.73,0,0,1,19.63,29.33Z"/><path class="a" d="M19.67,29.33a5.92,5.92,0,0,0,.08,1.09,1.79,1.79,0,0,0,1.86,1.42,1.69,1.69,0,0,0,1.9-1.36,5.91,5.91,0,0,0,0-1.24A4.78,4.78,0,0,0,23.49,28a1.71,1.71,0,0,0-1.8-1.27,1.82,1.82,0,0,0-2,1.18A5.73,5.73,0,0,0,19.67,29.33Z"/><path class="a" d="M32.92,29.33a5.85,5.85,0,0,1-.09,1.09A1.78,1.78,0,0,1,31,31.84a1.68,1.68,0,0,1-1.9-1.36,5.3,5.3,0,0,1,0-1.24A4.37,4.37,0,0,1,29.09,28a1.72,1.72,0,0,1,1.81-1.27,1.8,1.8,0,0,1,2,1.18A5.71,5.71,0,0,1,32.92,29.33Z"/><path class="a" d="M33,29.36a5.85,5.85,0,0,0,.09,1.09,1.78,1.78,0,0,0,1.85,1.42,1.69,1.69,0,0,0,1.91-1.36,6,6,0,0,0,0-1.24,4.37,4.37,0,0,0-.06-1.21A1.74,1.74,0,0,0,35,26.78,1.83,1.83,0,0,0,33,28,5.68,5.68,0,0,0,33,29.36Z"/><path class="a" d="M40.76,29.33a5.92,5.92,0,0,1-.08,1.09,1.79,1.79,0,0,1-1.86,1.42,1.69,1.69,0,0,1-1.9-1.36,5.91,5.91,0,0,1-.05-1.24A4.78,4.78,0,0,1,36.94,28a1.71,1.71,0,0,1,1.8-1.27,1.8,1.8,0,0,1,1.95,1.18A5.71,5.71,0,0,1,40.76,29.33Z"/><path class="a" d="M40.79,29.33a5.85,5.85,0,0,0,.09,1.09,1.78,1.78,0,0,0,1.85,1.42,1.68,1.68,0,0,0,1.9-1.36,5.3,5.3,0,0,0,0-1.24A4.37,4.37,0,0,0,44.62,28a1.72,1.72,0,0,0-1.81-1.27,1.8,1.8,0,0,0-2,1.18A5.71,5.71,0,0,0,40.79,29.33Z"/></svg>