<svg xmlns="http://www.w3.org/2000/svg" width="49.02" height="65.32" viewBox="0 0 49.02 65.32"><defs><style>.a{fill:#21364f;}</style></defs><title>Asset 126</title><path class="a" d="M25.8,9.21a6,6,0,0,0-.09-1.1,1.78,1.78,0,0,0-1.85-1.42A1.68,1.68,0,0,0,22,8.05a5.41,5.41,0,0,0-.05,1.25A4.32,4.32,0,0,0,22,10.5a1.73,1.73,0,0,0,1.81,1.28,1.85,1.85,0,0,0,1.93-1.29A4.8,4.8,0,0,0,25.8,9.21Z"/><path class="a" d="M33.51,9.21a6.1,6.1,0,0,0-.08-1.1,1.79,1.79,0,0,0-1.86-1.42,1.7,1.7,0,0,0-1.9,1.36,6,6,0,0,0-.05,1.25,4.73,4.73,0,0,0,.07,1.2,1.72,1.72,0,0,0,1.8,1.28,1.87,1.87,0,0,0,1.94-1.29A4.82,4.82,0,0,0,33.51,9.21Z"/><path class="a" d="M37.4,9.21a6.1,6.1,0,0,0-.08-1.1,1.79,1.79,0,0,0-1.86-1.42,1.7,1.7,0,0,0-1.9,1.36,6,6,0,0,0-.05,1.25,4.73,4.73,0,0,0,.07,1.2,1.72,1.72,0,0,0,1.8,1.28,1.87,1.87,0,0,0,1.94-1.29A4.82,4.82,0,0,0,37.4,9.21Z"/><path class="a" d="M25.76,9.21a6.1,6.1,0,0,1,.08-1.1,1.78,1.78,0,0,1,1.85-1.42A1.7,1.7,0,0,1,29.6,8.05a6,6,0,0,1,0,1.25,4.73,4.73,0,0,1-.07,1.2,1.72,1.72,0,0,1-1.8,1.28,1.83,1.83,0,0,1-2-1.19A5.65,5.65,0,0,1,25.76,9.21Z"/><path class="a" d="M10.3,9.21a6.1,6.1,0,0,0-.08-1.1A1.78,1.78,0,0,0,8.37,6.69,1.7,1.7,0,0,0,6.46,8.05a6.12,6.12,0,0,0,0,1.25,4.32,4.32,0,0,0,.06,1.2,1.72,1.72,0,0,0,1.81,1.28,1.85,1.85,0,0,0,1.93-1.29A4.82,4.82,0,0,0,10.3,9.21Z"/><path class="a" d="M18,9.21a6,6,0,0,0-.09-1.1,1.77,1.77,0,0,0-1.85-1.42,1.7,1.7,0,0,0-1.9,1.36,6,6,0,0,0,0,1.25,4.74,4.74,0,0,0,.06,1.2A1.73,1.73,0,0,0,16,11.78a1.87,1.87,0,0,0,1.94-1.29A4.82,4.82,0,0,0,18,9.21Z"/><path class="a" d="M21.91,9.21a6.1,6.1,0,0,0-.08-1.1A1.79,1.79,0,0,0,20,6.69a1.7,1.7,0,0,0-1.9,1.36A6,6,0,0,0,18,9.3a4.31,4.31,0,0,0,.07,1.2,1.71,1.71,0,0,0,1.8,1.28,1.87,1.87,0,0,0,1.94-1.29A4.82,4.82,0,0,0,21.91,9.21Z"/><path class="a" d="M10.27,9.21a6.1,6.1,0,0,1,.08-1.1A1.78,1.78,0,0,1,12.2,6.69a1.7,1.7,0,0,1,1.91,1.36,6.12,6.12,0,0,1,0,1.25,4.32,4.32,0,0,1-.06,1.2,1.72,1.72,0,0,1-1.81,1.28,1.81,1.81,0,0,1-1.95-1.19A5.65,5.65,0,0,1,10.27,9.21Z"/><path class="a" d="M37.38,9.21a6,6,0,0,1,.09-1.1,1.77,1.77,0,0,1,1.85-1.42,1.7,1.7,0,0,1,1.9,1.36,6,6,0,0,1,.05,1.25,4.74,4.74,0,0,1-.06,1.2,1.73,1.73,0,0,1-1.81,1.28,1.81,1.81,0,0,1-1.95-1.19A5.63,5.63,0,0,1,37.38,9.21Z"/><path class="a" d="M41.27,9.21a6,6,0,0,1,.09-1.1,1.78,1.78,0,0,1,1.85-1.42,1.68,1.68,0,0,1,1.9,1.36,5.41,5.41,0,0,1,0,1.25,4.32,4.32,0,0,1-.06,1.2,1.73,1.73,0,0,1-1.81,1.28,1.81,1.81,0,0,1-1.95-1.19A5.63,5.63,0,0,1,41.27,9.21Z"/><path class="a" d="M25.8,15.9a5.85,5.85,0,0,0-.09-1.09,1.77,1.77,0,0,0-1.85-1.43A1.68,1.68,0,0,0,22,14.75,5.3,5.3,0,0,0,21.91,16a4.3,4.3,0,0,0,.06,1.2,1.72,1.72,0,0,0,1.81,1.28,1.85,1.85,0,0,0,1.93-1.29A4.8,4.8,0,0,0,25.8,15.9Z"/><path class="a" d="M33.51,15.9a5.92,5.92,0,0,0-.08-1.09,1.78,1.78,0,0,0-1.86-1.43,1.7,1.7,0,0,0-1.9,1.37A5.91,5.91,0,0,0,29.62,16a4.7,4.7,0,0,0,.07,1.2,1.71,1.71,0,0,0,1.8,1.28,1.87,1.87,0,0,0,1.94-1.29A4.82,4.82,0,0,0,33.51,15.9Z"/><path class="a" d="M37.4,15.9a5.92,5.92,0,0,0-.08-1.09,1.78,1.78,0,0,0-1.86-1.43,1.7,1.7,0,0,0-1.9,1.37A5.91,5.91,0,0,0,33.51,16a4.7,4.7,0,0,0,.07,1.2,1.71,1.71,0,0,0,1.8,1.28,1.87,1.87,0,0,0,1.94-1.29A4.82,4.82,0,0,0,37.4,15.9Z"/><path class="a" d="M25.76,15.9a5.92,5.92,0,0,1,.08-1.09,1.78,1.78,0,0,1,1.85-1.43,1.7,1.7,0,0,1,1.91,1.37,5.91,5.91,0,0,1,0,1.24,4.7,4.7,0,0,1-.07,1.2,1.71,1.71,0,0,1-1.8,1.28,1.82,1.82,0,0,1-2-1.18A5.75,5.75,0,0,1,25.76,15.9Z"/><path class="a" d="M10.3,15.9a5.92,5.92,0,0,0-.08-1.09,1.77,1.77,0,0,0-1.85-1.43,1.7,1.7,0,0,0-1.91,1.37,6,6,0,0,0,0,1.24,4.3,4.3,0,0,0,.06,1.2,1.71,1.71,0,0,0,1.81,1.28,1.85,1.85,0,0,0,1.93-1.29A4.82,4.82,0,0,0,10.3,15.9Z"/><path class="a" d="M18,15.9a5.85,5.85,0,0,0-.09-1.09,1.77,1.77,0,0,0-1.85-1.43,1.7,1.7,0,0,0-1.9,1.37,5.91,5.91,0,0,0,0,1.24,4.72,4.72,0,0,0,.06,1.2A1.72,1.72,0,0,0,16,18.47a1.87,1.87,0,0,0,1.94-1.29A4.82,4.82,0,0,0,18,15.9Z"/><path class="a" d="M21.91,15.9a5.92,5.92,0,0,0-.08-1.09A1.78,1.78,0,0,0,20,13.38a1.7,1.7,0,0,0-1.9,1.37A5.91,5.91,0,0,0,18,16a4.29,4.29,0,0,0,.07,1.2,1.7,1.7,0,0,0,1.8,1.28,1.87,1.87,0,0,0,1.94-1.29A4.82,4.82,0,0,0,21.91,15.9Z"/><path class="a" d="M10.27,15.9a5.92,5.92,0,0,1,.08-1.09,1.77,1.77,0,0,1,1.85-1.43,1.7,1.7,0,0,1,1.91,1.37,6,6,0,0,1,0,1.24,4.3,4.3,0,0,1-.06,1.2,1.71,1.71,0,0,1-1.81,1.28,1.81,1.81,0,0,1-1.95-1.18A5.75,5.75,0,0,1,10.27,15.9Z"/><path class="a" d="M37.38,15.9a5.85,5.85,0,0,1,.09-1.09,1.77,1.77,0,0,1,1.85-1.43,1.7,1.7,0,0,1,1.9,1.37A5.91,5.91,0,0,1,41.27,16a4.72,4.72,0,0,1-.06,1.2,1.72,1.72,0,0,1-1.81,1.28,1.8,1.8,0,0,1-1.95-1.18A5.74,5.74,0,0,1,37.38,15.9Z"/><path class="a" d="M41.27,15.9a5.85,5.85,0,0,1,.09-1.09,1.77,1.77,0,0,1,1.85-1.43,1.68,1.68,0,0,1,1.9,1.37,5.3,5.3,0,0,1,0,1.24,4.3,4.3,0,0,1-.06,1.2,1.72,1.72,0,0,1-1.81,1.28,1.8,1.8,0,0,1-1.95-1.18A5.74,5.74,0,0,1,41.27,15.9Z"/><path class="a" d="M25.8,22.59a5.85,5.85,0,0,0-.09-1.09,1.78,1.78,0,0,0-1.85-1.42A1.68,1.68,0,0,0,22,21.44a5.3,5.3,0,0,0-.05,1.24A4.37,4.37,0,0,0,22,23.89a1.74,1.74,0,0,0,1.81,1.28,1.87,1.87,0,0,0,1.93-1.3A4.8,4.8,0,0,0,25.8,22.59Z"/><path class="a" d="M33.51,22.59a5.92,5.92,0,0,0-.08-1.09,1.79,1.79,0,0,0-1.86-1.42,1.69,1.69,0,0,0-1.9,1.36,5.91,5.91,0,0,0-.05,1.24,4.78,4.78,0,0,0,.07,1.21,1.73,1.73,0,0,0,1.8,1.28,1.89,1.89,0,0,0,1.94-1.3A4.82,4.82,0,0,0,33.51,22.59Z"/><path class="a" d="M37.4,22.59a5.92,5.92,0,0,0-.08-1.09,1.79,1.79,0,0,0-1.86-1.42,1.69,1.69,0,0,0-1.9,1.36,5.91,5.91,0,0,0-.05,1.24,4.78,4.78,0,0,0,.07,1.21,1.73,1.73,0,0,0,1.8,1.28,1.88,1.88,0,0,0,1.94-1.3A4.82,4.82,0,0,0,37.4,22.59Z"/><path class="a" d="M25.76,22.59a5.92,5.92,0,0,1,.08-1.09,1.78,1.78,0,0,1,1.85-1.42,1.69,1.69,0,0,1,1.91,1.36,5.91,5.91,0,0,1,0,1.24,4.78,4.78,0,0,1-.07,1.21,1.73,1.73,0,0,1-1.8,1.28,1.84,1.84,0,0,1-2-1.19A5.73,5.73,0,0,1,25.76,22.59Z"/><path class="a" d="M10.3,22.59a5.92,5.92,0,0,0-.08-1.09,1.78,1.78,0,0,0-1.85-1.42,1.69,1.69,0,0,0-1.91,1.36,6,6,0,0,0,0,1.24,4.37,4.37,0,0,0,.06,1.21,1.73,1.73,0,0,0,1.81,1.28,1.87,1.87,0,0,0,1.93-1.3A4.82,4.82,0,0,0,10.3,22.59Z"/><path class="a" d="M18,22.59a5.85,5.85,0,0,0-.09-1.09,1.77,1.77,0,0,0-1.85-1.42,1.69,1.69,0,0,0-1.9,1.36,5.91,5.91,0,0,0,0,1.24,4.8,4.8,0,0,0,.06,1.21A1.74,1.74,0,0,0,16,25.17a1.89,1.89,0,0,0,1.94-1.3A4.82,4.82,0,0,0,18,22.59Z"/><path class="a" d="M21.91,22.59a5.92,5.92,0,0,0-.08-1.09A1.79,1.79,0,0,0,20,20.08a1.69,1.69,0,0,0-1.9,1.36A5.91,5.91,0,0,0,18,22.68a4.36,4.36,0,0,0,.07,1.21,1.72,1.72,0,0,0,1.8,1.28,1.89,1.89,0,0,0,1.94-1.3A4.82,4.82,0,0,0,21.91,22.59Z"/><path class="a" d="M10.27,22.59a5.92,5.92,0,0,1,.08-1.09,1.78,1.78,0,0,1,1.85-1.42,1.69,1.69,0,0,1,1.91,1.36,6,6,0,0,1,0,1.24,4.37,4.37,0,0,1-.06,1.21,1.73,1.73,0,0,1-1.81,1.28A1.83,1.83,0,0,1,10.33,24,5.73,5.73,0,0,1,10.27,22.59Z"/><path class="a" d="M37.38,22.59a5.85,5.85,0,0,1,.09-1.09,1.77,1.77,0,0,1,1.85-1.42,1.69,1.69,0,0,1,1.9,1.36,5.91,5.91,0,0,1,.05,1.24,4.8,4.8,0,0,1-.06,1.21,1.74,1.74,0,0,1-1.81,1.28A1.82,1.82,0,0,1,37.45,24,5.71,5.71,0,0,1,37.38,22.59Z"/><path class="a" d="M41.27,22.59a5.85,5.85,0,0,1,.09-1.09,1.78,1.78,0,0,1,1.85-1.42,1.68,1.68,0,0,1,1.9,1.36,5.3,5.3,0,0,1,0,1.24,4.37,4.37,0,0,1-.06,1.21,1.74,1.74,0,0,1-1.81,1.28A1.82,1.82,0,0,1,41.34,24,5.71,5.71,0,0,1,41.27,22.59Z"/><path class="a" d="M25.8,29.28a5.85,5.85,0,0,0-.09-1.09,1.78,1.78,0,0,0-1.85-1.42A1.68,1.68,0,0,0,22,28.13a5.33,5.33,0,0,0-.05,1.24A4.37,4.37,0,0,0,22,30.58a1.74,1.74,0,0,0,1.81,1.28,1.86,1.86,0,0,0,1.93-1.29A4.88,4.88,0,0,0,25.8,29.28Z"/><path class="a" d="M33.51,29.28a5.92,5.92,0,0,0-.08-1.09,1.79,1.79,0,0,0-1.86-1.42,1.69,1.69,0,0,0-1.9,1.36,5.94,5.94,0,0,0-.05,1.24,4.78,4.78,0,0,0,.07,1.21,1.73,1.73,0,0,0,1.8,1.28,1.88,1.88,0,0,0,1.94-1.29A4.89,4.89,0,0,0,33.51,29.28Z"/><path class="a" d="M37.4,29.28a5.92,5.92,0,0,0-.08-1.09,1.79,1.79,0,0,0-1.86-1.42,1.69,1.69,0,0,0-1.9,1.36,5.94,5.94,0,0,0-.05,1.24,4.78,4.78,0,0,0,.07,1.21,1.73,1.73,0,0,0,1.8,1.28,1.88,1.88,0,0,0,1.94-1.29A4.89,4.89,0,0,0,37.4,29.28Z"/><path class="a" d="M25.76,29.28a5.92,5.92,0,0,1,.08-1.09,1.78,1.78,0,0,1,1.85-1.42,1.69,1.69,0,0,1,1.91,1.36,5.94,5.94,0,0,1,0,1.24,4.78,4.78,0,0,1-.07,1.21,1.73,1.73,0,0,1-1.8,1.28,1.84,1.84,0,0,1-2-1.19A5.7,5.7,0,0,1,25.76,29.28Z"/><path class="a" d="M10.3,29.28a5.92,5.92,0,0,0-.08-1.09,1.78,1.78,0,0,0-1.85-1.42,1.69,1.69,0,0,0-1.91,1.36,6,6,0,0,0,0,1.24,4.37,4.37,0,0,0,.06,1.21,1.73,1.73,0,0,0,1.81,1.28,1.86,1.86,0,0,0,1.93-1.29A4.89,4.89,0,0,0,10.3,29.28Z"/><path class="a" d="M18,29.28a5.85,5.85,0,0,0-.09-1.09,1.77,1.77,0,0,0-1.85-1.42,1.69,1.69,0,0,0-1.9,1.36,5.94,5.94,0,0,0,0,1.24,4.8,4.8,0,0,0,.06,1.21A1.74,1.74,0,0,0,16,31.86a1.88,1.88,0,0,0,1.94-1.29A4.89,4.89,0,0,0,18,29.28Z"/><path class="a" d="M21.91,29.28a5.92,5.92,0,0,0-.08-1.09A1.79,1.79,0,0,0,20,26.77a1.69,1.69,0,0,0-1.9,1.36A5.94,5.94,0,0,0,18,29.37a4.36,4.36,0,0,0,.07,1.21,1.72,1.72,0,0,0,1.8,1.28,1.88,1.88,0,0,0,1.94-1.29A4.89,4.89,0,0,0,21.91,29.28Z"/><path class="a" d="M10.27,29.28a5.92,5.92,0,0,1,.08-1.09,1.78,1.78,0,0,1,1.85-1.42,1.69,1.69,0,0,1,1.91,1.36,6,6,0,0,1,0,1.24,4.37,4.37,0,0,1-.06,1.21,1.73,1.73,0,0,1-1.81,1.28,1.83,1.83,0,0,1-1.95-1.19A5.7,5.7,0,0,1,10.27,29.28Z"/><path class="a" d="M37.38,29.28a5.85,5.85,0,0,1,.09-1.09,1.77,1.77,0,0,1,1.85-1.42,1.69,1.69,0,0,1,1.9,1.36,5.94,5.94,0,0,1,.05,1.24,4.8,4.8,0,0,1-.06,1.21,1.74,1.74,0,0,1-1.81,1.28,1.82,1.82,0,0,1-1.95-1.19A5.68,5.68,0,0,1,37.38,29.28Z"/><path class="a" d="M41.27,29.28a5.85,5.85,0,0,1,.09-1.09,1.78,1.78,0,0,1,1.85-1.42,1.68,1.68,0,0,1,1.9,1.36,5.33,5.33,0,0,1,0,1.24,4.37,4.37,0,0,1-.06,1.21,1.74,1.74,0,0,1-1.81,1.28,1.82,1.82,0,0,1-1.95-1.19A5.68,5.68,0,0,1,41.27,29.28Z"/><path class="a" d="M25.8,36a5.89,5.89,0,0,0-.09-1.1,1.78,1.78,0,0,0-1.85-1.42A1.68,1.68,0,0,0,22,34.82a5.35,5.35,0,0,0-.05,1.24A4.37,4.37,0,0,0,22,37.27a1.74,1.74,0,0,0,1.81,1.28,1.85,1.85,0,0,0,1.93-1.29A4.8,4.8,0,0,0,25.8,36Z"/><path class="a" d="M33.51,36a6,6,0,0,0-.08-1.1,1.79,1.79,0,0,0-1.86-1.42,1.69,1.69,0,0,0-1.9,1.36,6,6,0,0,0-.05,1.24,4.78,4.78,0,0,0,.07,1.21,1.73,1.73,0,0,0,1.8,1.28,1.87,1.87,0,0,0,1.94-1.29A4.82,4.82,0,0,0,33.51,36Z"/><path class="a" d="M37.4,36a6,6,0,0,0-.08-1.1,1.79,1.79,0,0,0-1.86-1.42,1.69,1.69,0,0,0-1.9,1.36,6,6,0,0,0-.05,1.24,4.78,4.78,0,0,0,.07,1.21,1.73,1.73,0,0,0,1.8,1.28,1.87,1.87,0,0,0,1.94-1.29A4.82,4.82,0,0,0,37.4,36Z"/><path class="a" d="M25.76,36a6,6,0,0,1,.08-1.1,1.78,1.78,0,0,1,1.85-1.42,1.69,1.69,0,0,1,1.91,1.36,6,6,0,0,1,0,1.24,4.78,4.78,0,0,1-.07,1.21,1.73,1.73,0,0,1-1.8,1.28,1.83,1.83,0,0,1-2-1.19A5.65,5.65,0,0,1,25.76,36Z"/><path class="a" d="M10.3,36a6,6,0,0,0-.08-1.1,1.78,1.78,0,0,0-1.85-1.42,1.69,1.69,0,0,0-1.91,1.36,6,6,0,0,0,0,1.24,4.37,4.37,0,0,0,.06,1.21,1.73,1.73,0,0,0,1.81,1.28,1.85,1.85,0,0,0,1.93-1.29A4.82,4.82,0,0,0,10.3,36Z"/><path class="a" d="M18,36a5.89,5.89,0,0,0-.09-1.1,1.77,1.77,0,0,0-1.85-1.42,1.69,1.69,0,0,0-1.9,1.36,6,6,0,0,0,0,1.24,4.8,4.8,0,0,0,.06,1.21A1.74,1.74,0,0,0,16,38.55a1.87,1.87,0,0,0,1.94-1.29A4.82,4.82,0,0,0,18,36Z"/><path class="a" d="M21.91,36a6,6,0,0,0-.08-1.1A1.79,1.79,0,0,0,20,33.46a1.69,1.69,0,0,0-1.9,1.36A6,6,0,0,0,18,36.06a4.36,4.36,0,0,0,.07,1.21,1.72,1.72,0,0,0,1.8,1.28,1.87,1.87,0,0,0,1.94-1.29A4.82,4.82,0,0,0,21.91,36Z"/><path class="a" d="M10.27,36a6,6,0,0,1,.08-1.1,1.78,1.78,0,0,1,1.85-1.42,1.69,1.69,0,0,1,1.91,1.36,6,6,0,0,1,0,1.24,4.37,4.37,0,0,1-.06,1.21,1.73,1.73,0,0,1-1.81,1.28,1.81,1.81,0,0,1-1.95-1.19A5.65,5.65,0,0,1,10.27,36Z"/><path class="a" d="M37.38,36a5.89,5.89,0,0,1,.09-1.1,1.77,1.77,0,0,1,1.85-1.42,1.69,1.69,0,0,1,1.9,1.36,6,6,0,0,1,.05,1.24,4.8,4.8,0,0,1-.06,1.21,1.74,1.74,0,0,1-1.81,1.28,1.81,1.81,0,0,1-1.95-1.19A5.63,5.63,0,0,1,37.38,36Z"/><path class="a" d="M41.27,36a5.89,5.89,0,0,1,.09-1.1,1.78,1.78,0,0,1,1.85-1.42,1.68,1.68,0,0,1,1.9,1.36,5.35,5.35,0,0,1,0,1.24,4.37,4.37,0,0,1-.06,1.21,1.74,1.74,0,0,1-1.81,1.28,1.81,1.81,0,0,1-1.95-1.19A5.63,5.63,0,0,1,41.27,36Z"/><path class="a" d="M25.8,42.67a6,6,0,0,0-.09-1.1,1.78,1.78,0,0,0-1.85-1.42A1.68,1.68,0,0,0,22,41.51a5.35,5.35,0,0,0-.05,1.24A4.37,4.37,0,0,0,22,44a1.74,1.74,0,0,0,1.81,1.28A1.85,1.85,0,0,0,25.71,44,4.8,4.8,0,0,0,25.8,42.67Z"/><path class="a" d="M33.51,42.67a6,6,0,0,0-.08-1.1,1.79,1.79,0,0,0-1.86-1.42,1.7,1.7,0,0,0-1.9,1.36,6,6,0,0,0-.05,1.24A4.78,4.78,0,0,0,29.69,44a1.73,1.73,0,0,0,1.8,1.28A1.87,1.87,0,0,0,33.43,44,4.82,4.82,0,0,0,33.51,42.67Z"/><path class="a" d="M37.4,42.67a6,6,0,0,0-.08-1.1,1.79,1.79,0,0,0-1.86-1.42,1.7,1.7,0,0,0-1.9,1.36,6,6,0,0,0-.05,1.24A4.78,4.78,0,0,0,33.58,44a1.73,1.73,0,0,0,1.8,1.28A1.87,1.87,0,0,0,37.32,44,4.82,4.82,0,0,0,37.4,42.67Z"/><path class="a" d="M25.76,42.67a6,6,0,0,1,.08-1.1,1.78,1.78,0,0,1,1.85-1.42,1.7,1.7,0,0,1,1.91,1.36,6,6,0,0,1,0,1.24A4.78,4.78,0,0,1,29.58,44a1.73,1.73,0,0,1-1.8,1.28,1.83,1.83,0,0,1-2-1.19A5.65,5.65,0,0,1,25.76,42.67Z"/><path class="a" d="M10.3,42.67a6,6,0,0,0-.08-1.1,1.78,1.78,0,0,0-1.85-1.42,1.7,1.7,0,0,0-1.91,1.36,6,6,0,0,0,0,1.24A4.37,4.37,0,0,0,6.48,44a1.73,1.73,0,0,0,1.81,1.28A1.85,1.85,0,0,0,10.22,44,4.82,4.82,0,0,0,10.3,42.67Z"/><path class="a" d="M18,42.67a6,6,0,0,0-.09-1.1,1.77,1.77,0,0,0-1.85-1.42,1.7,1.7,0,0,0-1.9,1.36,6,6,0,0,0,0,1.24A4.8,4.8,0,0,0,14.19,44,1.74,1.74,0,0,0,16,45.24,1.87,1.87,0,0,0,17.94,44,4.82,4.82,0,0,0,18,42.67Z"/><path class="a" d="M21.91,42.67a6,6,0,0,0-.08-1.1A1.79,1.79,0,0,0,20,40.15a1.7,1.7,0,0,0-1.9,1.36A6,6,0,0,0,18,42.75,4.36,4.36,0,0,0,18.09,44a1.72,1.72,0,0,0,1.8,1.28A1.87,1.87,0,0,0,21.83,44,4.82,4.82,0,0,0,21.91,42.67Z"/><path class="a" d="M10.27,42.67a6,6,0,0,1,.08-1.1,1.78,1.78,0,0,1,1.85-1.42,1.7,1.7,0,0,1,1.91,1.36,6,6,0,0,1,0,1.24A4.37,4.37,0,0,1,14.09,44a1.73,1.73,0,0,1-1.81,1.28,1.81,1.81,0,0,1-1.95-1.19A5.65,5.65,0,0,1,10.27,42.67Z"/><path class="a" d="M37.38,42.67a6,6,0,0,1,.09-1.1,1.77,1.77,0,0,1,1.85-1.42,1.7,1.7,0,0,1,1.9,1.36,6,6,0,0,1,.05,1.24A4.8,4.8,0,0,1,41.21,44a1.74,1.74,0,0,1-1.81,1.28,1.81,1.81,0,0,1-1.95-1.19A5.63,5.63,0,0,1,37.38,42.67Z"/><path class="a" d="M41.27,42.67a6,6,0,0,1,.09-1.1,1.78,1.78,0,0,1,1.85-1.42,1.68,1.68,0,0,1,1.9,1.36,5.35,5.35,0,0,1,0,1.24A4.37,4.37,0,0,1,45.1,44a1.74,1.74,0,0,1-1.81,1.28,1.81,1.81,0,0,1-1.95-1.19A5.63,5.63,0,0,1,41.27,42.67Z"/><path class="a" d="M25.8,49.36a6,6,0,0,0-.09-1.1,1.78,1.78,0,0,0-1.85-1.42A1.68,1.68,0,0,0,22,48.21a5.3,5.3,0,0,0-.05,1.24,4.3,4.3,0,0,0,.06,1.2,1.72,1.72,0,0,0,1.81,1.28,1.85,1.85,0,0,0,1.93-1.29A4.8,4.8,0,0,0,25.8,49.36Z"/><path class="a" d="M33.51,49.36a6.1,6.1,0,0,0-.08-1.1,1.79,1.79,0,0,0-1.86-1.42,1.7,1.7,0,0,0-1.9,1.37,5.91,5.91,0,0,0-.05,1.24,4.7,4.7,0,0,0,.07,1.2,1.71,1.71,0,0,0,1.8,1.28,1.87,1.87,0,0,0,1.94-1.29A4.82,4.82,0,0,0,33.51,49.36Z"/><path class="a" d="M37.4,49.36a6.1,6.1,0,0,0-.08-1.1,1.79,1.79,0,0,0-1.86-1.42,1.7,1.7,0,0,0-1.9,1.37,5.91,5.91,0,0,0-.05,1.24,4.7,4.7,0,0,0,.07,1.2,1.71,1.71,0,0,0,1.8,1.28,1.87,1.87,0,0,0,1.94-1.29A4.82,4.82,0,0,0,37.4,49.36Z"/><path class="a" d="M25.76,49.36a6.1,6.1,0,0,1,.08-1.1,1.78,1.78,0,0,1,1.85-1.42,1.7,1.7,0,0,1,1.91,1.37,5.91,5.91,0,0,1,0,1.24,4.7,4.7,0,0,1-.07,1.2,1.71,1.71,0,0,1-1.8,1.28,1.82,1.82,0,0,1-2-1.18A5.75,5.75,0,0,1,25.76,49.36Z"/><path class="a" d="M10.3,49.36a6.1,6.1,0,0,0-.08-1.1,1.78,1.78,0,0,0-1.85-1.42,1.7,1.7,0,0,0-1.91,1.37,6,6,0,0,0,0,1.24,4.3,4.3,0,0,0,.06,1.2,1.71,1.71,0,0,0,1.81,1.28,1.85,1.85,0,0,0,1.93-1.29A4.82,4.82,0,0,0,10.3,49.36Z"/><path class="a" d="M18,49.36a6,6,0,0,0-.09-1.1,1.77,1.77,0,0,0-1.85-1.42,1.7,1.7,0,0,0-1.9,1.37,5.91,5.91,0,0,0,0,1.24,4.72,4.72,0,0,0,.06,1.2A1.72,1.72,0,0,0,16,51.93a1.87,1.87,0,0,0,1.94-1.29A4.82,4.82,0,0,0,18,49.36Z"/><path class="a" d="M21.91,49.36a6.1,6.1,0,0,0-.08-1.1A1.79,1.79,0,0,0,20,46.84a1.7,1.7,0,0,0-1.9,1.37A5.91,5.91,0,0,0,18,49.45a4.29,4.29,0,0,0,.07,1.2,1.7,1.7,0,0,0,1.8,1.28,1.87,1.87,0,0,0,1.94-1.29A4.82,4.82,0,0,0,21.91,49.36Z"/><path class="a" d="M10.27,49.36a6.1,6.1,0,0,1,.08-1.1,1.78,1.78,0,0,1,1.85-1.42,1.7,1.7,0,0,1,1.91,1.37,6,6,0,0,1,0,1.24,4.3,4.3,0,0,1-.06,1.2,1.71,1.71,0,0,1-1.81,1.28,1.81,1.81,0,0,1-1.95-1.18A5.75,5.75,0,0,1,10.27,49.36Z"/><path class="a" d="M37.38,49.36a6,6,0,0,1,.09-1.1,1.77,1.77,0,0,1,1.85-1.42,1.7,1.7,0,0,1,1.9,1.37,5.91,5.91,0,0,1,.05,1.24,4.72,4.72,0,0,1-.06,1.2,1.72,1.72,0,0,1-1.81,1.28,1.8,1.8,0,0,1-1.95-1.18A5.74,5.74,0,0,1,37.38,49.36Z"/><path class="a" d="M41.27,49.36a6,6,0,0,1,.09-1.1,1.78,1.78,0,0,1,1.85-1.42,1.68,1.68,0,0,1,1.9,1.37,5.3,5.3,0,0,1,0,1.24,4.3,4.3,0,0,1-.06,1.2,1.72,1.72,0,0,1-1.81,1.28,1.8,1.8,0,0,1-1.95-1.18A5.74,5.74,0,0,1,41.27,49.36Z"/><path class="a" d="M25.8,56.05A5.85,5.85,0,0,0,25.71,55a1.78,1.78,0,0,0-1.85-1.43A1.68,1.68,0,0,0,22,54.9a5.3,5.3,0,0,0-.05,1.24A4.37,4.37,0,0,0,22,57.35a1.72,1.72,0,0,0,1.81,1.27,1.85,1.85,0,0,0,1.93-1.29A4.8,4.8,0,0,0,25.8,56.05Z"/><path class="a" d="M33.51,56.05A5.92,5.92,0,0,0,33.43,55a1.79,1.79,0,0,0-1.86-1.43,1.7,1.7,0,0,0-1.9,1.37,5.91,5.91,0,0,0-.05,1.24,4.78,4.78,0,0,0,.07,1.21,1.71,1.71,0,0,0,1.8,1.27,1.87,1.87,0,0,0,1.94-1.29A4.82,4.82,0,0,0,33.51,56.05Z"/><path class="a" d="M37.4,56.05A5.92,5.92,0,0,0,37.32,55a1.79,1.79,0,0,0-1.86-1.43,1.7,1.7,0,0,0-1.9,1.37,5.91,5.91,0,0,0-.05,1.24,4.78,4.78,0,0,0,.07,1.21,1.71,1.71,0,0,0,1.8,1.27,1.87,1.87,0,0,0,1.94-1.29A4.82,4.82,0,0,0,37.4,56.05Z"/><path class="a" d="M25.76,56.05A5.92,5.92,0,0,1,25.84,55a1.79,1.79,0,0,1,1.85-1.43A1.7,1.7,0,0,1,29.6,54.9a5.91,5.91,0,0,1,0,1.24,4.78,4.78,0,0,1-.07,1.21,1.71,1.71,0,0,1-1.8,1.27,1.82,1.82,0,0,1-2-1.18A5.75,5.75,0,0,1,25.76,56.05Z"/><path class="a" d="M10.3,56.05A5.92,5.92,0,0,0,10.22,55a1.78,1.78,0,0,0-1.85-1.43A1.7,1.7,0,0,0,6.46,54.9a6,6,0,0,0,0,1.24,4.37,4.37,0,0,0,.06,1.21,1.71,1.71,0,0,0,1.81,1.27,1.85,1.85,0,0,0,1.93-1.29A4.82,4.82,0,0,0,10.3,56.05Z"/><path class="a" d="M18,56.05A5.85,5.85,0,0,0,17.93,55a1.78,1.78,0,0,0-1.85-1.43,1.7,1.7,0,0,0-1.9,1.37,5.91,5.91,0,0,0,0,1.24,4.8,4.8,0,0,0,.06,1.21A1.72,1.72,0,0,0,16,58.62a1.87,1.87,0,0,0,1.94-1.29A4.82,4.82,0,0,0,18,56.05Z"/><path class="a" d="M21.91,56.05A5.92,5.92,0,0,0,21.83,55,1.79,1.79,0,0,0,20,53.53a1.7,1.7,0,0,0-1.9,1.37A5.91,5.91,0,0,0,18,56.14a4.36,4.36,0,0,0,.07,1.21,1.7,1.7,0,0,0,1.8,1.27,1.87,1.87,0,0,0,1.94-1.29A4.82,4.82,0,0,0,21.91,56.05Z"/><path class="a" d="M10.27,56.05A5.92,5.92,0,0,1,10.35,55a1.78,1.78,0,0,1,1.85-1.43,1.7,1.7,0,0,1,1.91,1.37,6,6,0,0,1,0,1.24,4.37,4.37,0,0,1-.06,1.21,1.71,1.71,0,0,1-1.81,1.27,1.81,1.81,0,0,1-1.95-1.18A5.75,5.75,0,0,1,10.27,56.05Z"/><path class="a" d="M37.38,56.05A5.85,5.85,0,0,1,37.47,55a1.78,1.78,0,0,1,1.85-1.43,1.7,1.7,0,0,1,1.9,1.37,5.91,5.91,0,0,1,.05,1.24,4.8,4.8,0,0,1-.06,1.21,1.72,1.72,0,0,1-1.81,1.27,1.8,1.8,0,0,1-1.95-1.18A5.74,5.74,0,0,1,37.38,56.05Z"/><path class="a" d="M41.27,56.05A5.85,5.85,0,0,1,41.36,55a1.78,1.78,0,0,1,1.85-1.43,1.68,1.68,0,0,1,1.9,1.37,5.3,5.3,0,0,1,0,1.24,4.37,4.37,0,0,1-.06,1.21,1.72,1.72,0,0,1-1.81,1.27,1.8,1.8,0,0,1-1.95-1.18A5.74,5.74,0,0,1,41.27,56.05Z"/><path class="a" d="M25.8,62.74a5.85,5.85,0,0,0-.09-1.09,1.78,1.78,0,0,0-1.85-1.42A1.68,1.68,0,0,0,22,61.59a5.33,5.33,0,0,0-.05,1.24A4.37,4.37,0,0,0,22,64a1.74,1.74,0,0,0,1.81,1.28A1.86,1.86,0,0,0,25.71,64,4.88,4.88,0,0,0,25.8,62.74Z"/><path class="a" d="M33.51,62.74a5.92,5.92,0,0,0-.08-1.09,1.79,1.79,0,0,0-1.86-1.42,1.69,1.69,0,0,0-1.9,1.36,5.94,5.94,0,0,0-.05,1.24A4.78,4.78,0,0,0,29.69,64a1.73,1.73,0,0,0,1.8,1.28A1.88,1.88,0,0,0,33.43,64,4.89,4.89,0,0,0,33.51,62.74Z"/><path class="a" d="M37.4,62.74a5.92,5.92,0,0,0-.08-1.09,1.79,1.79,0,0,0-1.86-1.42,1.69,1.69,0,0,0-1.9,1.36,5.94,5.94,0,0,0-.05,1.24A4.78,4.78,0,0,0,33.58,64a1.73,1.73,0,0,0,1.8,1.28A1.88,1.88,0,0,0,37.32,64,4.89,4.89,0,0,0,37.4,62.74Z"/><path class="a" d="M25.76,62.74a5.92,5.92,0,0,1,.08-1.09,1.78,1.78,0,0,1,1.85-1.42,1.69,1.69,0,0,1,1.91,1.36,5.94,5.94,0,0,1,0,1.24A4.78,4.78,0,0,1,29.58,64a1.73,1.73,0,0,1-1.8,1.28,1.84,1.84,0,0,1-2-1.19A5.7,5.7,0,0,1,25.76,62.74Z"/><path class="a" d="M10.3,62.74a5.92,5.92,0,0,0-.08-1.09,1.78,1.78,0,0,0-1.85-1.42,1.69,1.69,0,0,0-1.91,1.36,6,6,0,0,0,0,1.24A4.37,4.37,0,0,0,6.48,64a1.73,1.73,0,0,0,1.81,1.28A1.86,1.86,0,0,0,10.22,64,4.89,4.89,0,0,0,10.3,62.74Z"/><path class="a" d="M18,62.74a5.85,5.85,0,0,0-.09-1.09,1.77,1.77,0,0,0-1.85-1.42,1.69,1.69,0,0,0-1.9,1.36,5.94,5.94,0,0,0,0,1.24A4.8,4.8,0,0,0,14.19,64,1.74,1.74,0,0,0,16,65.32,1.88,1.88,0,0,0,17.94,64,4.89,4.89,0,0,0,18,62.74Z"/><path class="a" d="M21.91,62.74a5.92,5.92,0,0,0-.08-1.09A1.79,1.79,0,0,0,20,60.23a1.69,1.69,0,0,0-1.9,1.36A5.94,5.94,0,0,0,18,62.83,4.36,4.36,0,0,0,18.09,64a1.72,1.72,0,0,0,1.8,1.28A1.88,1.88,0,0,0,21.83,64,4.89,4.89,0,0,0,21.91,62.74Z"/><path class="a" d="M10.27,62.74a5.92,5.92,0,0,1,.08-1.09,1.78,1.78,0,0,1,1.85-1.42,1.69,1.69,0,0,1,1.91,1.36,6,6,0,0,1,0,1.24A4.37,4.37,0,0,1,14.09,64a1.73,1.73,0,0,1-1.81,1.28,1.83,1.83,0,0,1-1.95-1.19A5.7,5.7,0,0,1,10.27,62.74Z"/><path class="a" d="M37.38,62.74a5.85,5.85,0,0,1,.09-1.09,1.77,1.77,0,0,1,1.85-1.42,1.69,1.69,0,0,1,1.9,1.36,5.94,5.94,0,0,1,.05,1.24A4.8,4.8,0,0,1,41.21,64a1.74,1.74,0,0,1-1.81,1.28,1.82,1.82,0,0,1-1.95-1.19A5.68,5.68,0,0,1,37.38,62.74Z"/><path class="a" d="M41.27,62.74a5.85,5.85,0,0,1,.09-1.09,1.78,1.78,0,0,1,1.85-1.42,1.68,1.68,0,0,1,1.9,1.36,5.33,5.33,0,0,1,0,1.24A4.37,4.37,0,0,1,45.1,64a1.74,1.74,0,0,1-1.81,1.28,1.82,1.82,0,0,1-1.95-1.19A5.68,5.68,0,0,1,41.27,62.74Z"/><path class="a" d="M24.48,2.52a6,6,0,0,0-.09-1.1A1.78,1.78,0,0,0,22.54,0a1.7,1.7,0,0,0-1.91,1.36,6,6,0,0,0,0,1.24,4.37,4.37,0,0,0,.06,1.21,1.73,1.73,0,0,0,1.81,1.28A1.85,1.85,0,0,0,24.39,3.8,4.8,4.8,0,0,0,24.48,2.52Z"/><path class="a" d="M24.5,2.52a6,6,0,0,1,.09-1.1A1.78,1.78,0,0,1,26.44,0a1.7,1.7,0,0,1,1.91,1.36,6,6,0,0,1,0,1.24,4.37,4.37,0,0,1-.06,1.21,1.74,1.74,0,0,1-1.81,1.28A1.81,1.81,0,0,1,24.57,3.9,5.63,5.63,0,0,1,24.5,2.52Z"/><path class="a" d="M11.61,2.52a6,6,0,0,1,.08-1.1A1.79,1.79,0,0,1,13.55,0a1.7,1.7,0,0,1,1.9,1.36A6,6,0,0,1,15.5,2.6a4.78,4.78,0,0,1-.07,1.21,1.73,1.73,0,0,1-1.8,1.28A1.87,1.87,0,0,1,11.69,3.8,4.82,4.82,0,0,1,11.61,2.52Z"/><path class="a" d="M3.89,2.52A6,6,0,0,1,4,1.42,1.78,1.78,0,0,1,5.83,0,1.7,1.7,0,0,1,7.74,1.36a6,6,0,0,1,0,1.24,4.37,4.37,0,0,1-.06,1.21A1.74,1.74,0,0,1,5.91,5.09,1.85,1.85,0,0,1,4,3.8,4.8,4.8,0,0,1,3.89,2.52Z"/><path class="a" d="M0,2.52a6,6,0,0,1,.09-1.1A1.78,1.78,0,0,1,1.94,0a1.68,1.68,0,0,1,1.9,1.36A5.35,5.35,0,0,1,3.89,2.6a4.37,4.37,0,0,1-.06,1.21A1.74,1.74,0,0,1,2,5.09,1.85,1.85,0,0,1,.09,3.8,4.8,4.8,0,0,1,0,2.52Z"/><path class="a" d="M11.65,2.52a6,6,0,0,0-.09-1.1A1.78,1.78,0,0,0,9.71,0a1.68,1.68,0,0,0-1.9,1.36,5.35,5.35,0,0,0,0,1.24,4.37,4.37,0,0,0,.06,1.21A1.74,1.74,0,0,0,9.63,5.09,1.81,1.81,0,0,0,11.58,3.9,5.63,5.63,0,0,0,11.65,2.52Z"/><path class="a" d="M41.2,2.52a6,6,0,0,0-.08-1.1A1.79,1.79,0,0,0,39.26,0a1.7,1.7,0,0,0-1.9,1.36,6,6,0,0,0,0,1.24,4.78,4.78,0,0,0,.07,1.21,1.73,1.73,0,0,0,1.8,1.28A1.87,1.87,0,0,0,41.12,3.8,4.82,4.82,0,0,0,41.2,2.52Z"/><path class="a" d="M45.09,2.52A6,6,0,0,0,45,1.42,1.79,1.79,0,0,0,43.15,0a1.7,1.7,0,0,0-1.9,1.36,6,6,0,0,0,0,1.24,4.78,4.78,0,0,0,.07,1.21,1.73,1.73,0,0,0,1.8,1.28A1.87,1.87,0,0,0,45,3.8,4.82,4.82,0,0,0,45.09,2.52Z"/><path class="a" d="M33.45,2.52a6,6,0,0,1,.08-1.1A1.79,1.79,0,0,1,35.39,0a1.7,1.7,0,0,1,1.9,1.36,6,6,0,0,1,.05,1.24,4.78,4.78,0,0,1-.07,1.21,1.73,1.73,0,0,1-1.8,1.28,1.83,1.83,0,0,1-2-1.19A6.19,6.19,0,0,1,33.45,2.52Z"/><path class="a" d="M45.12,2.52a6,6,0,0,1,.08-1.1A1.79,1.79,0,0,1,47.06,0,1.7,1.7,0,0,1,49,1.36,6,6,0,0,1,49,2.6a4.36,4.36,0,0,1-.07,1.21,1.72,1.72,0,0,1-1.8,1.28,1.81,1.81,0,0,1-2-1.19A5.63,5.63,0,0,1,45.12,2.52Z"/></svg>