<svg xmlns="http://www.w3.org/2000/svg" width="67.61" height="65.32" viewBox="0 0 67.61 65.32"><defs><style>.a{fill:#21364f;}</style></defs><title>Asset 127</title><path class="a" d="M33.81,2.57a6,6,0,0,1-.08,1.1,1.79,1.79,0,0,1-1.86,1.42A1.7,1.7,0,0,1,30,3.73a6,6,0,0,1,0-1.24A4.78,4.78,0,0,1,30,1.28,1.73,1.73,0,0,1,31.79,0a1.87,1.87,0,0,1,1.94,1.29A4.82,4.82,0,0,1,33.81,2.57Z"/><path class="a" d="M41.52,2.57a6,6,0,0,1-.08,1.1,1.78,1.78,0,0,1-1.85,1.42,1.7,1.7,0,0,1-1.91-1.36,6,6,0,0,1,0-1.24,4.37,4.37,0,0,1,.06-1.21A1.73,1.73,0,0,1,39.51,0a1.85,1.85,0,0,1,1.93,1.29A4.82,4.82,0,0,1,41.52,2.57Z"/><path class="a" d="M45.42,2.57a6,6,0,0,1-.09,1.1,1.78,1.78,0,0,1-1.85,1.42,1.68,1.68,0,0,1-1.9-1.36,5.35,5.35,0,0,1,0-1.24,4.37,4.37,0,0,1,.06-1.21A1.74,1.74,0,0,1,43.4,0a1.85,1.85,0,0,1,1.93,1.29A4.8,4.8,0,0,1,45.42,2.57Z"/><path class="a" d="M33.77,2.6a6,6,0,0,0,.09,1.1,1.77,1.77,0,0,0,1.85,1.42,1.7,1.7,0,0,0,1.9-1.37,5.91,5.91,0,0,0,0-1.24,4.72,4.72,0,0,0-.06-1.2A1.73,1.73,0,0,0,35.79,0a1.8,1.8,0,0,0-1.95,1.19A5.63,5.63,0,0,0,33.77,2.6Z"/><path class="a" d="M18.32,2.57a5.2,5.2,0,0,1-.09,1.1,1.77,1.77,0,0,1-1.85,1.42,1.7,1.7,0,0,1-1.9-1.36,6,6,0,0,1-.05-1.24,4.36,4.36,0,0,1,.07-1.21A1.72,1.72,0,0,1,16.3,0a1.87,1.87,0,0,1,1.94,1.29A4.82,4.82,0,0,1,18.32,2.57Z"/><path class="a" d="M26,2.57A6,6,0,0,1,26,3.67a1.79,1.79,0,0,1-1.86,1.42,1.7,1.7,0,0,1-1.9-1.36,6,6,0,0,1-.05-1.24,4.78,4.78,0,0,1,.07-1.21A1.73,1.73,0,0,1,24,0,1.87,1.87,0,0,1,26,1.29,4.82,4.82,0,0,1,26,2.57Z"/><path class="a" d="M29.92,2.57a6,6,0,0,1-.08,1.1A1.78,1.78,0,0,1,28,5.09a1.7,1.7,0,0,1-1.91-1.36,6,6,0,0,1,0-1.24,4.37,4.37,0,0,1,.06-1.21A1.73,1.73,0,0,1,27.9,0a1.86,1.86,0,0,1,1.94,1.29A4.82,4.82,0,0,1,29.92,2.57Z"/><path class="a" d="M18.28,2.6a6.1,6.1,0,0,0,.08,1.1,1.79,1.79,0,0,0,1.86,1.42,1.7,1.7,0,0,0,1.9-1.37,5.91,5.91,0,0,0,.05-1.24,4.7,4.7,0,0,0-.07-1.2A1.72,1.72,0,0,0,20.3,0a1.8,1.8,0,0,0-1.95,1.19A5.63,5.63,0,0,0,18.28,2.6Z"/><path class="a" d="M45.4,2.65a5.92,5.92,0,0,0,.08,1.09,1.79,1.79,0,0,0,1.85,1.43A1.7,1.7,0,0,0,49.24,3.8a5.91,5.91,0,0,0,0-1.24,4.81,4.81,0,0,0-.07-1.21A1.71,1.71,0,0,0,47.42.08a1.82,1.82,0,0,0-2,1.18A5.75,5.75,0,0,0,45.4,2.65Z"/><path class="a" d="M49.29,2.65a5.92,5.92,0,0,0,.08,1.09,1.79,1.79,0,0,0,1.86,1.43,1.7,1.7,0,0,0,1.9-1.37,5.91,5.91,0,0,0,0-1.24,4.81,4.81,0,0,0-.07-1.21A1.71,1.71,0,0,0,51.31.08a1.8,1.8,0,0,0-2,1.18A5.74,5.74,0,0,0,49.29,2.65Z"/><path class="a" d="M33.81,56.05A5.92,5.92,0,0,0,33.73,55a1.79,1.79,0,0,0-1.86-1.42A1.69,1.69,0,0,0,30,54.9a6,6,0,0,0,0,1.24A4.78,4.78,0,0,0,30,57.35a1.73,1.73,0,0,0,1.8,1.28,1.87,1.87,0,0,0,1.94-1.29A4.87,4.87,0,0,0,33.81,56.05Z"/><path class="a" d="M41.52,56.05A5.92,5.92,0,0,0,41.44,55a1.78,1.78,0,0,0-1.85-1.42,1.69,1.69,0,0,0-1.91,1.36,6,6,0,0,0,0,1.24,4.37,4.37,0,0,0,.06,1.21,1.73,1.73,0,0,0,1.81,1.28,1.85,1.85,0,0,0,1.93-1.29A4.87,4.87,0,0,0,41.52,56.05Z"/><path class="a" d="M45.42,56.05A5.85,5.85,0,0,0,45.33,55a1.78,1.78,0,0,0-1.85-1.42,1.68,1.68,0,0,0-1.9,1.36,5.35,5.35,0,0,0,0,1.24,4.37,4.37,0,0,0,.06,1.21,1.74,1.74,0,0,0,1.81,1.28,1.85,1.85,0,0,0,1.93-1.29A4.85,4.85,0,0,0,45.42,56.05Z"/><path class="a" d="M33.77,56.05A5.85,5.85,0,0,1,33.86,55a1.77,1.77,0,0,1,1.85-1.42,1.69,1.69,0,0,1,1.9,1.36,6,6,0,0,1,0,1.24,4.8,4.8,0,0,1-.06,1.21,1.74,1.74,0,0,1-1.81,1.28,1.81,1.81,0,0,1-1.95-1.19A5.68,5.68,0,0,1,33.77,56.05Z"/><path class="a" d="M18.32,56.05A5.11,5.11,0,0,0,18.23,55a1.77,1.77,0,0,0-1.85-1.42,1.69,1.69,0,0,0-1.9,1.36,6,6,0,0,0-.05,1.24,4.36,4.36,0,0,0,.07,1.21,1.72,1.72,0,0,0,1.8,1.28,1.87,1.87,0,0,0,1.94-1.29A4.87,4.87,0,0,0,18.32,56.05Z"/><path class="a" d="M26,56.05A5.92,5.92,0,0,0,26,55a1.79,1.79,0,0,0-1.86-1.42,1.69,1.69,0,0,0-1.9,1.36,6,6,0,0,0-.05,1.24,4.78,4.78,0,0,0,.07,1.21A1.73,1.73,0,0,0,24,58.63,1.87,1.87,0,0,0,26,57.34,4.87,4.87,0,0,0,26,56.05Z"/><path class="a" d="M29.92,56.05A5.92,5.92,0,0,0,29.84,55,1.78,1.78,0,0,0,28,53.54a1.69,1.69,0,0,0-1.91,1.36,6,6,0,0,0,0,1.24,4.37,4.37,0,0,0,.06,1.21,1.73,1.73,0,0,0,1.8,1.28,1.86,1.86,0,0,0,1.94-1.29A4.87,4.87,0,0,0,29.92,56.05Z"/><path class="a" d="M18.28,56.05A5.92,5.92,0,0,1,18.36,55a1.79,1.79,0,0,1,1.86-1.42,1.69,1.69,0,0,1,1.9,1.36,6,6,0,0,1,.05,1.24,4.78,4.78,0,0,1-.07,1.21,1.73,1.73,0,0,1-1.8,1.28,1.81,1.81,0,0,1-1.95-1.19A5.68,5.68,0,0,1,18.28,56.05Z"/><path class="a" d="M45.4,56.05A5.92,5.92,0,0,1,45.48,55a1.78,1.78,0,0,1,1.85-1.42,1.69,1.69,0,0,1,1.91,1.36,6,6,0,0,1,0,1.24,4.78,4.78,0,0,1-.07,1.21,1.73,1.73,0,0,1-1.8,1.28,1.83,1.83,0,0,1-2-1.19A5.7,5.7,0,0,1,45.4,56.05Z"/><path class="a" d="M49.29,56.05A5.92,5.92,0,0,1,49.37,55a1.79,1.79,0,0,1,1.86-1.42,1.69,1.69,0,0,1,1.9,1.36,6,6,0,0,1,0,1.24,4.78,4.78,0,0,1-.07,1.21,1.73,1.73,0,0,1-1.8,1.28,1.81,1.81,0,0,1-2-1.19A5.68,5.68,0,0,1,49.29,56.05Z"/><path class="a" d="M47.83,36a5.92,5.92,0,0,1,.08-1.09,1.79,1.79,0,0,1,1.86-1.42,1.69,1.69,0,0,1,1.9,1.36,5.91,5.91,0,0,1,0,1.24,4.78,4.78,0,0,1-.07,1.21,1.73,1.73,0,0,1-1.8,1.28,1.88,1.88,0,0,1-1.94-1.3A4.79,4.79,0,0,1,47.83,36Z"/><path class="a" d="M63.32,36a5.85,5.85,0,0,1,.09-1.09,1.77,1.77,0,0,1,1.85-1.42,1.69,1.69,0,0,1,1.9,1.36,5.91,5.91,0,0,1,0,1.24,4.8,4.8,0,0,1-.06,1.21,1.74,1.74,0,0,1-1.81,1.28,1.88,1.88,0,0,1-1.94-1.3A4.79,4.79,0,0,1,63.32,36Z"/><path class="a" d="M55.61,36a5.92,5.92,0,0,1,.08-1.09,1.79,1.79,0,0,1,1.86-1.42,1.69,1.69,0,0,1,1.9,1.36,5.91,5.91,0,0,1,0,1.24,4.78,4.78,0,0,1-.07,1.21,1.73,1.73,0,0,1-1.8,1.28,1.87,1.87,0,0,1-1.94-1.3A4.79,4.79,0,0,1,55.61,36Z"/><path class="a" d="M51.72,36a5.92,5.92,0,0,1,.08-1.09,1.78,1.78,0,0,1,1.85-1.42,1.69,1.69,0,0,1,1.91,1.36,5.91,5.91,0,0,1,0,1.24,4.78,4.78,0,0,1-.07,1.21,1.73,1.73,0,0,1-1.8,1.28,1.87,1.87,0,0,1-1.94-1.3A4.79,4.79,0,0,1,51.72,36Z"/><path class="a" d="M63.36,36a5.92,5.92,0,0,0-.08-1.09,1.79,1.79,0,0,0-1.86-1.42,1.69,1.69,0,0,0-1.9,1.36,5.91,5.91,0,0,0-.05,1.24,4.78,4.78,0,0,0,.07,1.21,1.73,1.73,0,0,0,1.8,1.28,1.82,1.82,0,0,0,1.95-1.19A5.68,5.68,0,0,0,63.36,36Z"/><path class="a" d="M.39,36A5.85,5.85,0,0,1,.48,34.9a1.77,1.77,0,0,1,1.85-1.42,1.69,1.69,0,0,1,1.9,1.36,5.91,5.91,0,0,1,0,1.24,4.8,4.8,0,0,1-.06,1.21,1.74,1.74,0,0,1-1.81,1.28,1.88,1.88,0,0,1-1.94-1.3A4.79,4.79,0,0,1,.39,36Z"/><path class="a" d="M15.88,36A5.85,5.85,0,0,1,16,34.9a1.78,1.78,0,0,1,1.85-1.42,1.68,1.68,0,0,1,1.9,1.36,5.3,5.3,0,0,1,.05,1.24,4.37,4.37,0,0,1-.06,1.21,1.74,1.74,0,0,1-1.81,1.28A1.86,1.86,0,0,1,16,37.27,4.77,4.77,0,0,1,15.88,36Z"/><path class="a" d="M8.17,36a5.92,5.92,0,0,1,.08-1.09,1.79,1.79,0,0,1,1.86-1.42A1.69,1.69,0,0,1,12,34.84a5.91,5.91,0,0,1,.05,1.24A4.78,4.78,0,0,1,12,37.29a1.73,1.73,0,0,1-1.8,1.28,1.88,1.88,0,0,1-1.94-1.3A4.79,4.79,0,0,1,8.17,36Z"/><path class="a" d="M4.28,36a5.92,5.92,0,0,1,.08-1.09,1.79,1.79,0,0,1,1.86-1.42,1.69,1.69,0,0,1,1.9,1.36,5.91,5.91,0,0,1,.05,1.24,4.78,4.78,0,0,1-.07,1.21,1.73,1.73,0,0,1-1.8,1.28,1.88,1.88,0,0,1-1.94-1.3A4.79,4.79,0,0,1,4.28,36Z"/><path class="a" d="M15.92,36a5.92,5.92,0,0,0-.08-1.09A1.78,1.78,0,0,0,14,33.48a1.69,1.69,0,0,0-1.91,1.36A5.91,5.91,0,0,0,12,36.08a4.78,4.78,0,0,0,.07,1.21,1.73,1.73,0,0,0,1.8,1.28,1.84,1.84,0,0,0,2-1.19A5.7,5.7,0,0,0,15.92,36Z"/><path class="a" d="M51.74,29.3a5.85,5.85,0,0,0-.09-1.09,1.78,1.78,0,0,0-1.85-1.42,1.69,1.69,0,0,0-1.91,1.36,6,6,0,0,0,0,1.24,4.37,4.37,0,0,0,.06,1.21,1.73,1.73,0,0,0,1.81,1.28,1.86,1.86,0,0,0,1.93-1.29A4.88,4.88,0,0,0,51.74,29.3Z"/><path class="a" d="M59.45,29.3a5.92,5.92,0,0,0-.08-1.09,1.79,1.79,0,0,0-1.86-1.42,1.69,1.69,0,0,0-1.9,1.36,5.94,5.94,0,0,0,0,1.24,4.36,4.36,0,0,0,.07,1.21,1.72,1.72,0,0,0,1.8,1.28,1.88,1.88,0,0,0,1.94-1.29A4.89,4.89,0,0,0,59.45,29.3Z"/><path class="a" d="M63.34,29.3a5.92,5.92,0,0,0-.08-1.09,1.79,1.79,0,0,0-1.86-1.42,1.69,1.69,0,0,0-1.9,1.36,5.94,5.94,0,0,0,0,1.24,4.78,4.78,0,0,0,.07,1.21,1.73,1.73,0,0,0,1.8,1.28,1.88,1.88,0,0,0,1.94-1.29A4.89,4.89,0,0,0,63.34,29.3Z"/><path class="a" d="M51.7,29.3a5.92,5.92,0,0,1,.08-1.09,1.78,1.78,0,0,1,1.85-1.42,1.69,1.69,0,0,1,1.91,1.36,5.39,5.39,0,0,1,0,1.24,4.37,4.37,0,0,1-.06,1.21,1.73,1.73,0,0,1-1.8,1.28,1.83,1.83,0,0,1-2-1.19A5.7,5.7,0,0,1,51.7,29.3Z"/><path class="a" d="M63.37,29.3a5.92,5.92,0,0,1,.08-1.09,1.79,1.79,0,0,1,1.86-1.42,1.69,1.69,0,0,1,1.9,1.36,5.94,5.94,0,0,1,.05,1.24,4.78,4.78,0,0,1-.07,1.21,1.73,1.73,0,0,1-1.8,1.28,1.82,1.82,0,0,1-2-1.19A5.68,5.68,0,0,1,63.37,29.3Z"/><path class="a" d="M4.24,29.3a5.85,5.85,0,0,0-.09-1.09A1.78,1.78,0,0,0,2.3,26.79,1.68,1.68,0,0,0,.4,28.15a5.33,5.33,0,0,0-.05,1.24A4.8,4.8,0,0,0,.41,30.6a1.74,1.74,0,0,0,1.81,1.28,1.88,1.88,0,0,0,1.94-1.29A4.89,4.89,0,0,0,4.24,29.3Z"/><path class="a" d="M12,29.3a5.92,5.92,0,0,0-.08-1.09A1.79,1.79,0,0,0,10,26.79a1.69,1.69,0,0,0-1.9,1.36,5.94,5.94,0,0,0,0,1.24,4.78,4.78,0,0,0,.07,1.21,1.73,1.73,0,0,0,1.8,1.28,1.88,1.88,0,0,0,1.94-1.29A4.89,4.89,0,0,0,12,29.3Z"/><path class="a" d="M15.84,29.3a5.92,5.92,0,0,0-.08-1.09,1.79,1.79,0,0,0-1.86-1.42A1.69,1.69,0,0,0,12,28.15,5.94,5.94,0,0,0,12,29.39,4.78,4.78,0,0,0,12,30.6a1.73,1.73,0,0,0,1.8,1.28,1.88,1.88,0,0,0,1.94-1.29A4.89,4.89,0,0,0,15.84,29.3Z"/><path class="a" d="M4.2,29.3a5.92,5.92,0,0,1,.08-1.09,1.79,1.79,0,0,1,1.86-1.42A1.69,1.69,0,0,1,8,28.15a5.94,5.94,0,0,1,.05,1.24A4.78,4.78,0,0,1,8,30.6a1.73,1.73,0,0,1-1.8,1.28,1.82,1.82,0,0,1-1.95-1.19A5.68,5.68,0,0,1,4.2,29.3Z"/><path class="a" d="M15.87,29.3A5.11,5.11,0,0,1,16,28.21a1.77,1.77,0,0,1,1.85-1.42,1.69,1.69,0,0,1,1.9,1.36,5.94,5.94,0,0,1,.05,1.24,4.36,4.36,0,0,1-.07,1.21,1.72,1.72,0,0,1-1.8,1.28,1.82,1.82,0,0,1-2-1.19A5.68,5.68,0,0,1,15.87,29.3Z"/><path class="a" d="M6.18,15.93a6,6,0,0,0-.09-1.1,1.78,1.78,0,0,0-1.85-1.42,1.68,1.68,0,0,0-1.9,1.37,5.3,5.3,0,0,0,0,1.24,4.3,4.3,0,0,0,.06,1.2A1.72,1.72,0,0,0,4.16,18.5a1.85,1.85,0,0,0,1.93-1.29A4.8,4.8,0,0,0,6.18,15.93Z"/><path class="a" d="M13.89,15.93a6.1,6.1,0,0,0-.08-1.1A1.79,1.79,0,0,0,12,13.41a1.7,1.7,0,0,0-1.9,1.37A5.91,5.91,0,0,0,10,16a4.7,4.7,0,0,0,.07,1.2,1.71,1.71,0,0,0,1.8,1.28,1.87,1.87,0,0,0,1.94-1.29A4.82,4.82,0,0,0,13.89,15.93Z"/><path class="a" d="M17.78,15.93a6.1,6.1,0,0,0-.08-1.1,1.79,1.79,0,0,0-1.86-1.42,1.7,1.7,0,0,0-1.9,1.37,5.91,5.91,0,0,0,0,1.24,4.7,4.7,0,0,0,.07,1.2,1.71,1.71,0,0,0,1.8,1.28,1.87,1.87,0,0,0,1.94-1.29A4.82,4.82,0,0,0,17.78,15.93Z"/><path class="a" d="M6.14,15.93a6.1,6.1,0,0,1,.08-1.1,1.79,1.79,0,0,1,1.86-1.42A1.7,1.7,0,0,1,10,14.78,5.91,5.91,0,0,1,10,16a4.7,4.7,0,0,1-.07,1.2,1.71,1.71,0,0,1-1.8,1.28,1.82,1.82,0,0,1-2-1.18A6.31,6.31,0,0,1,6.14,15.93Z"/><path class="a" d="M17.76,15.93a6,6,0,0,1,.09-1.1,1.78,1.78,0,0,1,1.85-1.42,1.68,1.68,0,0,1,1.9,1.37,5.3,5.3,0,0,1,0,1.24,4.3,4.3,0,0,1-.06,1.2,1.72,1.72,0,0,1-1.81,1.28,1.8,1.8,0,0,1-2-1.18A5.74,5.74,0,0,1,17.76,15.93Z"/><path class="a" d="M49.84,15.93a6.1,6.1,0,0,0-.08-1.1,1.78,1.78,0,0,0-1.85-1.42A1.7,1.7,0,0,0,46,14.78,6,6,0,0,0,46,16a4.3,4.3,0,0,0,.06,1.2,1.71,1.71,0,0,0,1.81,1.28,1.85,1.85,0,0,0,1.93-1.29A4.82,4.82,0,0,0,49.84,15.93Z"/><path class="a" d="M57.56,15.93a6,6,0,0,0-.09-1.1,1.77,1.77,0,0,0-1.85-1.42,1.7,1.7,0,0,0-1.9,1.37,5.91,5.91,0,0,0,0,1.24,4.72,4.72,0,0,0,.06,1.2,1.72,1.72,0,0,0,1.81,1.28,1.87,1.87,0,0,0,1.94-1.29A4.82,4.82,0,0,0,57.56,15.93Z"/><path class="a" d="M61.45,15.93a6.1,6.1,0,0,0-.08-1.1,1.79,1.79,0,0,0-1.86-1.42,1.7,1.7,0,0,0-1.9,1.37,5.91,5.91,0,0,0,0,1.24,4.29,4.29,0,0,0,.07,1.2,1.7,1.7,0,0,0,1.8,1.28,1.87,1.87,0,0,0,1.94-1.29A4.82,4.82,0,0,0,61.45,15.93Z"/><path class="a" d="M49.8,15.93a6,6,0,0,1,.09-1.1,1.78,1.78,0,0,1,1.85-1.42,1.7,1.7,0,0,1,1.91,1.37,6,6,0,0,1,0,1.24,4.3,4.3,0,0,1-.06,1.2,1.71,1.71,0,0,1-1.81,1.28,1.81,1.81,0,0,1-2-1.18A5.74,5.74,0,0,1,49.8,15.93Z"/><path class="a" d="M61.43,15.93a6.1,6.1,0,0,1,.08-1.1,1.79,1.79,0,0,1,1.86-1.42,1.7,1.7,0,0,1,1.9,1.37,5.91,5.91,0,0,1,0,1.24,4.7,4.7,0,0,1-.07,1.2,1.71,1.71,0,0,1-1.8,1.28,1.8,1.8,0,0,1-2-1.18A5.74,5.74,0,0,1,61.43,15.93Z"/><path class="a" d="M11.82,9.24a5.85,5.85,0,0,0-.09-1.09A1.77,1.77,0,0,0,9.88,6.73,1.68,1.68,0,0,0,8,8.09a5.3,5.3,0,0,0-.05,1.24A4.8,4.8,0,0,0,8,10.54,1.74,1.74,0,0,0,9.8,11.82a1.89,1.89,0,0,0,1.94-1.3A4.82,4.82,0,0,0,11.82,9.24Z"/><path class="a" d="M19.53,9.24a5.92,5.92,0,0,0-.08-1.09,1.79,1.79,0,0,0-1.86-1.42,1.69,1.69,0,0,0-1.9,1.36,5.91,5.91,0,0,0,0,1.24,4.78,4.78,0,0,0,.07,1.21,1.73,1.73,0,0,0,1.8,1.28,1.88,1.88,0,0,0,1.94-1.3A4.82,4.82,0,0,0,19.53,9.24Z"/><path class="a" d="M23.42,9.24a5.92,5.92,0,0,0-.08-1.09,1.79,1.79,0,0,0-1.86-1.42,1.69,1.69,0,0,0-1.9,1.36,5.91,5.91,0,0,0,0,1.24,4.78,4.78,0,0,0,.07,1.21,1.73,1.73,0,0,0,1.8,1.28,1.88,1.88,0,0,0,1.94-1.3A4.82,4.82,0,0,0,23.42,9.24Z"/><path class="a" d="M11.78,9.24a5.92,5.92,0,0,1,.08-1.09,1.79,1.79,0,0,1,1.86-1.42,1.69,1.69,0,0,1,1.9,1.36,5.91,5.91,0,0,1,.05,1.24,4.78,4.78,0,0,1-.07,1.21,1.73,1.73,0,0,1-1.8,1.28,1.82,1.82,0,0,1-2-1.19A5.71,5.71,0,0,1,11.78,9.24Z"/><path class="a" d="M23.45,9.24a5.11,5.11,0,0,1,.09-1.09,1.77,1.77,0,0,1,1.85-1.42,1.69,1.69,0,0,1,1.9,1.36,5.91,5.91,0,0,1,.05,1.24,4.36,4.36,0,0,1-.07,1.21,1.72,1.72,0,0,1-1.8,1.28,1.82,1.82,0,0,1-1.95-1.19A5.71,5.71,0,0,1,23.45,9.24Z"/><path class="a" d="M44.16,9.24a5.85,5.85,0,0,0-.09-1.09,1.78,1.78,0,0,0-1.85-1.42,1.69,1.69,0,0,0-1.91,1.36,6,6,0,0,0,0,1.24,4.37,4.37,0,0,0,.06,1.21,1.73,1.73,0,0,0,1.81,1.28,1.87,1.87,0,0,0,1.93-1.3A4.8,4.8,0,0,0,44.16,9.24Z"/><path class="a" d="M51.87,9.24a5.92,5.92,0,0,0-.08-1.09,1.79,1.79,0,0,0-1.86-1.42A1.69,1.69,0,0,0,48,8.09,5.91,5.91,0,0,0,48,9.33a4.36,4.36,0,0,0,.07,1.21,1.72,1.72,0,0,0,1.8,1.28,1.89,1.89,0,0,0,1.94-1.3A4.82,4.82,0,0,0,51.87,9.24Z"/><path class="a" d="M55.76,9.24a5.92,5.92,0,0,0-.08-1.09,1.79,1.79,0,0,0-1.86-1.42,1.69,1.69,0,0,0-1.9,1.36,5.91,5.91,0,0,0-.05,1.24,4.78,4.78,0,0,0,.07,1.21,1.73,1.73,0,0,0,1.8,1.28,1.89,1.89,0,0,0,1.94-1.3A4.82,4.82,0,0,0,55.76,9.24Z"/><path class="a" d="M44.12,9.24a5.92,5.92,0,0,1,.08-1.09,1.78,1.78,0,0,1,1.85-1.42A1.69,1.69,0,0,1,48,8.09a5.36,5.36,0,0,1,0,1.24,4.37,4.37,0,0,1-.06,1.21,1.73,1.73,0,0,1-1.8,1.28,1.83,1.83,0,0,1-2-1.19A5.73,5.73,0,0,1,44.12,9.24Z"/><path class="a" d="M55.79,9.24a5.92,5.92,0,0,1,.08-1.09,1.79,1.79,0,0,1,1.86-1.42,1.69,1.69,0,0,1,1.9,1.36,5.91,5.91,0,0,1,0,1.24,4.78,4.78,0,0,1-.07,1.21,1.73,1.73,0,0,1-1.8,1.28,1.82,1.82,0,0,1-2-1.19A5.71,5.71,0,0,1,55.79,9.24Z"/><path class="a" d="M3.9,22.62a6,6,0,0,0-.09-1.1A1.78,1.78,0,0,0,2,20.1a1.68,1.68,0,0,0-1.9,1.36A5.35,5.35,0,0,0,0,22.7a4.37,4.37,0,0,0,.06,1.21,1.74,1.74,0,0,0,1.81,1.28A1.85,1.85,0,0,0,3.81,23.9,4.8,4.8,0,0,0,3.9,22.62Z"/><path class="a" d="M11.61,22.62a6,6,0,0,0-.08-1.1A1.79,1.79,0,0,0,9.67,20.1a1.7,1.7,0,0,0-1.9,1.36,6,6,0,0,0,0,1.24,4.78,4.78,0,0,0,.07,1.21,1.73,1.73,0,0,0,1.8,1.28,1.87,1.87,0,0,0,1.94-1.29A4.82,4.82,0,0,0,11.61,22.62Z"/><path class="a" d="M15.5,22.62a6,6,0,0,0-.08-1.1,1.79,1.79,0,0,0-1.86-1.42,1.7,1.7,0,0,0-1.9,1.36,6,6,0,0,0-.05,1.24,4.78,4.78,0,0,0,.07,1.21,1.73,1.73,0,0,0,1.8,1.28,1.87,1.87,0,0,0,1.94-1.29A4.82,4.82,0,0,0,15.5,22.62Z"/><path class="a" d="M3.86,22.62a6,6,0,0,1,.08-1.1A1.78,1.78,0,0,1,5.79,20.1,1.7,1.7,0,0,1,7.7,21.46a6,6,0,0,1,0,1.24,4.78,4.78,0,0,1-.07,1.21,1.73,1.73,0,0,1-1.8,1.28,1.83,1.83,0,0,1-2-1.19A5.65,5.65,0,0,1,3.86,22.62Z"/><path class="a" d="M15.53,22.62a6,6,0,0,1,.08-1.1,1.79,1.79,0,0,1,1.86-1.42,1.7,1.7,0,0,1,1.9,1.36,6,6,0,0,1,.05,1.24,4.78,4.78,0,0,1-.07,1.21,1.73,1.73,0,0,1-1.8,1.28,1.81,1.81,0,0,1-2-1.19A5.63,5.63,0,0,1,15.53,22.62Z"/><path class="a" d="M52.08,22.62a6,6,0,0,0-.09-1.1,1.78,1.78,0,0,0-1.85-1.42,1.68,1.68,0,0,0-1.9,1.36,5.35,5.35,0,0,0-.05,1.24,4.37,4.37,0,0,0,.06,1.21,1.74,1.74,0,0,0,1.81,1.28A1.85,1.85,0,0,0,52,23.9,4.8,4.8,0,0,0,52.08,22.62Z"/><path class="a" d="M59.79,22.62a6,6,0,0,0-.08-1.1,1.79,1.79,0,0,0-1.86-1.42A1.7,1.7,0,0,0,56,21.46a6,6,0,0,0-.05,1.24A4.78,4.78,0,0,0,56,23.91a1.73,1.73,0,0,0,1.8,1.28,1.87,1.87,0,0,0,1.94-1.29A4.82,4.82,0,0,0,59.79,22.62Z"/><path class="a" d="M63.68,22.62a6,6,0,0,0-.08-1.1,1.79,1.79,0,0,0-1.86-1.42,1.7,1.7,0,0,0-1.9,1.36,6,6,0,0,0-.05,1.24,4.78,4.78,0,0,0,.07,1.21,1.73,1.73,0,0,0,1.8,1.28A1.87,1.87,0,0,0,63.6,23.9,4.82,4.82,0,0,0,63.68,22.62Z"/><path class="a" d="M52,22.62a6,6,0,0,1,.08-1.1A1.79,1.79,0,0,1,54,20.1a1.7,1.7,0,0,1,1.9,1.36,6,6,0,0,1,0,1.24,4.78,4.78,0,0,1-.07,1.21,1.73,1.73,0,0,1-1.8,1.28,1.83,1.83,0,0,1-2-1.19A5.65,5.65,0,0,1,52,22.62Z"/><path class="a" d="M63.71,22.62a6,6,0,0,1,.08-1.1,1.79,1.79,0,0,1,1.86-1.42,1.7,1.7,0,0,1,1.9,1.36,6,6,0,0,1,0,1.24,4.78,4.78,0,0,1-.07,1.21,1.73,1.73,0,0,1-1.8,1.28,1.81,1.81,0,0,1-2-1.19A5.63,5.63,0,0,1,63.71,22.62Z"/><path class="a" d="M25.78,62.74a5.92,5.92,0,0,0-.08-1.09,1.78,1.78,0,0,0-1.85-1.42,1.69,1.69,0,0,0-1.91,1.36,6,6,0,0,0,0,1.24A4.37,4.37,0,0,0,22,64a1.73,1.73,0,0,0,1.81,1.28A1.86,1.86,0,0,0,25.7,64,4.89,4.89,0,0,0,25.78,62.74Z"/><path class="a" d="M33.5,62.74a5.11,5.11,0,0,0-.09-1.09,1.77,1.77,0,0,0-1.85-1.42,1.69,1.69,0,0,0-1.9,1.36,5.94,5.94,0,0,0-.05,1.24A4.36,4.36,0,0,0,29.68,64a1.72,1.72,0,0,0,1.8,1.28A1.88,1.88,0,0,0,33.42,64,4.89,4.89,0,0,0,33.5,62.74Z"/><path class="a" d="M37.39,62.74a5.92,5.92,0,0,0-.08-1.09,1.79,1.79,0,0,0-1.86-1.42,1.69,1.69,0,0,0-1.9,1.36,5.94,5.94,0,0,0,0,1.24A4.78,4.78,0,0,0,33.57,64a1.73,1.73,0,0,0,1.8,1.28A1.88,1.88,0,0,0,37.31,64,4.89,4.89,0,0,0,37.39,62.74Z"/><path class="a" d="M25.75,62.74a5.92,5.92,0,0,1,.08-1.09,1.78,1.78,0,0,1,1.85-1.42,1.69,1.69,0,0,1,1.91,1.36,6,6,0,0,1,0,1.24A4.37,4.37,0,0,1,29.57,64a1.73,1.73,0,0,1-1.81,1.28,1.83,1.83,0,0,1-2-1.19A5.7,5.7,0,0,1,25.75,62.74Z"/><path class="a" d="M21.9,62.74a5.85,5.85,0,0,0-.09-1.09A1.77,1.77,0,0,0,20,60.23a1.69,1.69,0,0,0-1.9,1.36,5.94,5.94,0,0,0,0,1.24A4.8,4.8,0,0,0,18.07,64a1.74,1.74,0,0,0,1.81,1.28A1.88,1.88,0,0,0,21.82,64,4.89,4.89,0,0,0,21.9,62.74Z"/><path class="a" d="M37.42,62.74a5.92,5.92,0,0,1,.08-1.09,1.79,1.79,0,0,1,1.86-1.42,1.69,1.69,0,0,1,1.9,1.36,5.94,5.94,0,0,1,.05,1.24A4.78,4.78,0,0,1,41.24,64a1.73,1.73,0,0,1-1.8,1.28,1.82,1.82,0,0,1-1.95-1.19A5.68,5.68,0,0,1,37.42,62.74Z"/><path class="a" d="M56.2,62.74a5.92,5.92,0,0,0-.08-1.09,1.79,1.79,0,0,0-1.86-1.42,1.69,1.69,0,0,0-1.9,1.36,5.94,5.94,0,0,0,0,1.24A4.78,4.78,0,0,0,52.38,64a1.73,1.73,0,0,0,1.8,1.28A1.88,1.88,0,0,0,56.12,64,4.89,4.89,0,0,0,56.2,62.74Z"/><path class="a" d="M60.09,62.74A5.92,5.92,0,0,0,60,61.65a1.78,1.78,0,0,0-1.85-1.42,1.69,1.69,0,0,0-1.91,1.36,5.39,5.39,0,0,0,0,1.24A4.37,4.37,0,0,0,56.27,64a1.73,1.73,0,0,0,1.8,1.28A1.88,1.88,0,0,0,60,64,4.89,4.89,0,0,0,60.09,62.74Z"/><path class="a" d="M48.45,62.74a5.92,5.92,0,0,1,.08-1.09,1.79,1.79,0,0,1,1.86-1.42,1.69,1.69,0,0,1,1.9,1.36,5.94,5.94,0,0,1,.05,1.24A4.78,4.78,0,0,1,52.27,64a1.73,1.73,0,0,1-1.8,1.28,1.82,1.82,0,0,1-1.95-1.19A5.68,5.68,0,0,1,48.45,62.74Z"/><path class="a" d="M60.12,62.74a5.85,5.85,0,0,1,.09-1.09,1.77,1.77,0,0,1,1.85-1.42A1.69,1.69,0,0,1,64,61.59,5.94,5.94,0,0,1,64,62.83,4.8,4.8,0,0,1,64,64a1.74,1.74,0,0,1-1.81,1.28,1.82,1.82,0,0,1-2-1.19A5.68,5.68,0,0,1,60.12,62.74Z"/><path class="a" d="M39.1,49.37a6,6,0,0,0-.08-1.1,1.79,1.79,0,0,0-1.86-1.42,1.7,1.7,0,0,0-1.9,1.36,6,6,0,0,0,0,1.25,4.73,4.73,0,0,0,.07,1.2,1.73,1.73,0,0,0,1.8,1.28A1.87,1.87,0,0,0,39,50.65,4.82,4.82,0,0,0,39.1,49.37Z"/><path class="a" d="M39.13,49.37a6,6,0,0,1,.08-1.1,1.79,1.79,0,0,1,1.86-1.42A1.7,1.7,0,0,1,43,48.21,6,6,0,0,1,43,49.46a4.73,4.73,0,0,1-.07,1.2,1.73,1.73,0,0,1-1.8,1.28,1.81,1.81,0,0,1-1.95-1.19A5.63,5.63,0,0,1,39.13,49.37Z"/><path class="a" d="M54.59,49.37a6,6,0,0,0-.09-1.1,1.78,1.78,0,0,0-1.85-1.42,1.68,1.68,0,0,0-1.9,1.36,5.41,5.41,0,0,0,0,1.25,4.32,4.32,0,0,0,.06,1.2,1.74,1.74,0,0,0,1.81,1.28,1.85,1.85,0,0,0,1.93-1.29A4.8,4.8,0,0,0,54.59,49.37Z"/><path class="a" d="M58.48,49.37a6,6,0,0,0-.09-1.1,1.78,1.78,0,0,0-1.85-1.42,1.68,1.68,0,0,0-1.9,1.36,5.41,5.41,0,0,0,0,1.25,4.74,4.74,0,0,0,.06,1.2,1.74,1.74,0,0,0,1.81,1.28,1.87,1.87,0,0,0,1.94-1.29A4.82,4.82,0,0,0,58.48,49.37Z"/><path class="a" d="M46.83,49.37a6,6,0,0,1,.09-1.1,1.78,1.78,0,0,1,1.85-1.42,1.68,1.68,0,0,1,1.9,1.36,5.41,5.41,0,0,1,0,1.25,4.32,4.32,0,0,1-.06,1.2,1.74,1.74,0,0,1-1.81,1.28,1.81,1.81,0,0,1-2-1.19A5.63,5.63,0,0,1,46.83,49.37Z"/><path class="a" d="M58.46,49.37a6,6,0,0,1,.08-1.1,1.79,1.79,0,0,1,1.86-1.42,1.7,1.7,0,0,1,1.9,1.36,6,6,0,0,1,.05,1.25,4.73,4.73,0,0,1-.07,1.2,1.73,1.73,0,0,1-1.8,1.28,1.81,1.81,0,0,1-1.95-1.19A5.63,5.63,0,0,1,58.46,49.37Z"/><path class="a" d="M13,49.37a6,6,0,0,0-.08-1.1,1.78,1.78,0,0,0-1.85-1.42,1.7,1.7,0,0,0-1.91,1.36,5.48,5.48,0,0,0,0,1.25,4.32,4.32,0,0,0,.06,1.2A1.73,1.73,0,0,0,11,51.94a1.86,1.86,0,0,0,1.94-1.29A4.82,4.82,0,0,0,13,49.37Z"/><path class="a" d="M16.9,49.37a6,6,0,0,0-.08-1.1A1.78,1.78,0,0,0,15,46.85a1.7,1.7,0,0,0-1.91,1.36,6.12,6.12,0,0,0,0,1.25,4.32,4.32,0,0,0,.06,1.2,1.73,1.73,0,0,0,1.81,1.28,1.85,1.85,0,0,0,1.93-1.29A4.82,4.82,0,0,0,16.9,49.37Z"/><path class="a" d="M5.26,49.37a6,6,0,0,1,.08-1.1A1.79,1.79,0,0,1,7.2,46.85a1.7,1.7,0,0,1,1.9,1.36,6,6,0,0,1,.05,1.25,4.73,4.73,0,0,1-.07,1.2,1.73,1.73,0,0,1-1.8,1.28,1.81,1.81,0,0,1-1.95-1.19A5.63,5.63,0,0,1,5.26,49.37Z"/><path class="a" d="M16.93,49.37a6,6,0,0,1,.09-1.1,1.78,1.78,0,0,1,1.85-1.42,1.68,1.68,0,0,1,1.9,1.36,5.41,5.41,0,0,1,.05,1.25,4.32,4.32,0,0,1-.06,1.2A1.74,1.74,0,0,1,19,51.94,1.81,1.81,0,0,1,17,50.75,5.63,5.63,0,0,1,16.93,49.37Z"/><path class="a" d="M35,42.68a5.85,5.85,0,0,0-.09-1.09,1.77,1.77,0,0,0-1.85-1.43,1.7,1.7,0,0,0-1.91,1.37,6,6,0,0,0,0,1.24A4.3,4.3,0,0,0,31.2,44,1.71,1.71,0,0,0,33,45.25,1.85,1.85,0,0,0,34.94,44,4.8,4.8,0,0,0,35,42.68Z"/><path class="a" d="M35.05,42.68a5.85,5.85,0,0,1,.09-1.09A1.77,1.77,0,0,1,37,40.16a1.7,1.7,0,0,1,1.91,1.37,6,6,0,0,1,0,1.24,4.3,4.3,0,0,1-.06,1.2,1.71,1.71,0,0,1-1.81,1.28,1.81,1.81,0,0,1-2-1.18A5.74,5.74,0,0,1,35.05,42.68Z"/><path class="a" d="M9.41,42.68a5.85,5.85,0,0,0-.09-1.09,1.77,1.77,0,0,0-1.85-1.43,1.7,1.7,0,0,0-1.9,1.37,5.91,5.91,0,0,0-.05,1.24A4.72,4.72,0,0,0,5.58,44a1.72,1.72,0,0,0,1.81,1.28A1.87,1.87,0,0,0,9.33,44,4.82,4.82,0,0,0,9.41,42.68Z"/><path class="a" d="M13.3,42.68a5.11,5.11,0,0,0-.09-1.09,1.77,1.77,0,0,0-1.85-1.43,1.7,1.7,0,0,0-1.9,1.37,5.91,5.91,0,0,0-.05,1.24A4.29,4.29,0,0,0,9.48,44a1.7,1.7,0,0,0,1.8,1.28A1.87,1.87,0,0,0,13.22,44,4.82,4.82,0,0,0,13.3,42.68Z"/><path class="a" d="M1.65,42.68a5.85,5.85,0,0,1,.09-1.09,1.77,1.77,0,0,1,1.85-1.43A1.7,1.7,0,0,1,5.5,41.53a6,6,0,0,1,0,1.24A4.3,4.3,0,0,1,5.48,44a1.71,1.71,0,0,1-1.81,1.28,1.81,1.81,0,0,1-1.95-1.18A5.74,5.74,0,0,1,1.65,42.68Z"/><path class="a" d="M13.33,42.68a5.92,5.92,0,0,1,.08-1.09,1.78,1.78,0,0,1,1.86-1.43,1.7,1.7,0,0,1,1.9,1.37,5.91,5.91,0,0,1,0,1.24,4.7,4.7,0,0,1-.07,1.2,1.71,1.71,0,0,1-1.8,1.28,1.82,1.82,0,0,1-2-1.18A6.31,6.31,0,0,1,13.33,42.68Z"/><path class="a" d="M58.14,42.68a5.92,5.92,0,0,0-.08-1.09,1.78,1.78,0,0,0-1.85-1.43,1.7,1.7,0,0,0-1.91,1.37,6,6,0,0,0,0,1.24,4.3,4.3,0,0,0,.06,1.2,1.71,1.71,0,0,0,1.8,1.28A1.86,1.86,0,0,0,58.06,44,4.82,4.82,0,0,0,58.14,42.68Z"/><path class="a" d="M62,42.68A5.85,5.85,0,0,0,62,41.59a1.77,1.77,0,0,0-1.85-1.43,1.7,1.7,0,0,0-1.91,1.37,6,6,0,0,0,0,1.24,4.3,4.3,0,0,0,.06,1.2A1.71,1.71,0,0,0,60,45.25,1.85,1.85,0,0,0,62,44,4.8,4.8,0,0,0,62,42.68Z"/><path class="a" d="M50.39,42.68a5.92,5.92,0,0,1,.08-1.09,1.78,1.78,0,0,1,1.86-1.43,1.7,1.7,0,0,1,1.9,1.37,5.91,5.91,0,0,1,.05,1.24,4.29,4.29,0,0,1-.07,1.2,1.7,1.7,0,0,1-1.8,1.28,1.8,1.8,0,0,1-1.95-1.18A5.74,5.74,0,0,1,50.39,42.68Z"/><path class="a" d="M62.06,42.68a5.85,5.85,0,0,1,.09-1.09A1.77,1.77,0,0,1,64,40.16a1.68,1.68,0,0,1,1.9,1.37,5.3,5.3,0,0,1,0,1.24,4.3,4.3,0,0,1-.06,1.2,1.72,1.72,0,0,1-1.81,1.28,1.81,1.81,0,0,1-1.95-1.18A5.74,5.74,0,0,1,62.06,42.68Z"/></svg>