<svg xmlns="http://www.w3.org/2000/svg" width="62.69" height="65.32" viewBox="0 0 62.69 65.32"><defs><style>.a{fill:#21364f;}</style></defs><title>Asset 121</title><path class="a" d="M31.19,62.74a5.92,5.92,0,0,0-.08-1.09,1.79,1.79,0,0,0-1.86-1.42,1.69,1.69,0,0,0-1.9,1.36,5.94,5.94,0,0,0-.05,1.24A4.78,4.78,0,0,0,27.37,64a1.73,1.73,0,0,0,1.8,1.28A1.88,1.88,0,0,0,31.11,64,4.89,4.89,0,0,0,31.19,62.74Z"/><path class="a" d="M38.9,62.74a5.92,5.92,0,0,0-.08-1.09A1.78,1.78,0,0,0,37,60.23a1.69,1.69,0,0,0-1.91,1.36,6,6,0,0,0,0,1.24A4.37,4.37,0,0,0,35.08,64a1.73,1.73,0,0,0,1.81,1.28A1.86,1.86,0,0,0,38.82,64,4.89,4.89,0,0,0,38.9,62.74Z"/><path class="a" d="M42.8,62.74a5.85,5.85,0,0,0-.09-1.09,1.78,1.78,0,0,0-1.85-1.42A1.69,1.69,0,0,0,39,61.59a6,6,0,0,0,0,1.24A4.37,4.37,0,0,0,39,64a1.73,1.73,0,0,0,1.81,1.28A1.86,1.86,0,0,0,42.71,64,4.88,4.88,0,0,0,42.8,62.74Z"/><path class="a" d="M31.15,62.74a5.92,5.92,0,0,1,.08-1.09,1.79,1.79,0,0,1,1.86-1.42A1.69,1.69,0,0,1,35,61.59a5.94,5.94,0,0,1,0,1.24A4.36,4.36,0,0,1,35,64a1.72,1.72,0,0,1-1.8,1.28,1.82,1.82,0,0,1-2-1.19A5.68,5.68,0,0,1,31.15,62.74Z"/><path class="a" d="M15.7,62.74a5.85,5.85,0,0,0-.09-1.09,1.77,1.77,0,0,0-1.85-1.42,1.69,1.69,0,0,0-1.9,1.36,5.94,5.94,0,0,0,0,1.24A4.8,4.8,0,0,0,11.87,64a1.74,1.74,0,0,0,1.81,1.28A1.88,1.88,0,0,0,15.62,64,4.89,4.89,0,0,0,15.7,62.74Z"/><path class="a" d="M23.41,62.74a5.92,5.92,0,0,0-.08-1.09,1.79,1.79,0,0,0-1.86-1.42,1.69,1.69,0,0,0-1.9,1.36,5.94,5.94,0,0,0-.05,1.24A4.78,4.78,0,0,0,19.59,64a1.73,1.73,0,0,0,1.8,1.28A1.88,1.88,0,0,0,23.33,64,4.89,4.89,0,0,0,23.41,62.74Z"/><path class="a" d="M27.3,62.74a5.92,5.92,0,0,0-.08-1.09,1.78,1.78,0,0,0-1.85-1.42,1.69,1.69,0,0,0-1.91,1.36,5.94,5.94,0,0,0-.05,1.24A4.78,4.78,0,0,0,23.48,64a1.73,1.73,0,0,0,1.8,1.28A1.88,1.88,0,0,0,27.22,64,4.89,4.89,0,0,0,27.3,62.74Z"/><path class="a" d="M15.66,62.74a5.92,5.92,0,0,1,.08-1.09,1.79,1.79,0,0,1,1.86-1.42,1.69,1.69,0,0,1,1.9,1.36,5.94,5.94,0,0,1,.05,1.24A4.78,4.78,0,0,1,19.48,64a1.73,1.73,0,0,1-1.8,1.28,1.82,1.82,0,0,1-1.95-1.19A5.68,5.68,0,0,1,15.66,62.74Z"/><path class="a" d="M42.78,62.74a5.92,5.92,0,0,1,.08-1.09,1.78,1.78,0,0,1,1.85-1.42,1.69,1.69,0,0,1,1.91,1.36,6,6,0,0,1,0,1.24A4.37,4.37,0,0,1,46.6,64a1.73,1.73,0,0,1-1.8,1.28,1.83,1.83,0,0,1-2-1.19A5.7,5.7,0,0,1,42.78,62.74Z"/><path class="a" d="M46.67,62.74a5.92,5.92,0,0,1,.08-1.09,1.78,1.78,0,0,1,1.85-1.42,1.69,1.69,0,0,1,1.91,1.36,5.94,5.94,0,0,1,.05,1.24A4.78,4.78,0,0,1,50.49,64a1.73,1.73,0,0,1-1.8,1.28,1.84,1.84,0,0,1-2-1.19A5.7,5.7,0,0,1,46.67,62.74Z"/><path class="a" d="M22.12,36a6,6,0,0,1,.08-1.1,1.79,1.79,0,0,1,1.86-1.42A1.69,1.69,0,0,1,26,34.82,6,6,0,0,1,26,36.06a4.78,4.78,0,0,1-.07,1.21,1.73,1.73,0,0,1-1.8,1.28,1.87,1.87,0,0,1-1.94-1.29A4.82,4.82,0,0,1,22.12,36Z"/><path class="a" d="M14.4,36a5.89,5.89,0,0,1,.09-1.1,1.78,1.78,0,0,1,1.85-1.42,1.68,1.68,0,0,1,1.9,1.36,5.35,5.35,0,0,1,.05,1.24,4.37,4.37,0,0,1-.06,1.21,1.74,1.74,0,0,1-1.81,1.28,1.85,1.85,0,0,1-1.93-1.29A4.8,4.8,0,0,1,14.4,36Z"/><path class="a" d="M10.51,36a5.89,5.89,0,0,1,.09-1.1,1.78,1.78,0,0,1,1.85-1.42,1.68,1.68,0,0,1,1.9,1.36,5.35,5.35,0,0,1,.05,1.24,4.37,4.37,0,0,1-.06,1.21,1.74,1.74,0,0,1-1.81,1.28,1.85,1.85,0,0,1-1.93-1.29A4.8,4.8,0,0,1,10.51,36Z"/><path class="a" d="M22.16,36a5.89,5.89,0,0,0-.09-1.1,1.78,1.78,0,0,0-1.85-1.42,1.68,1.68,0,0,0-1.9,1.36,5.35,5.35,0,0,0-.05,1.24,4.37,4.37,0,0,0,.06,1.21,1.74,1.74,0,0,0,1.81,1.28,1.81,1.81,0,0,0,1.95-1.19A5.63,5.63,0,0,0,22.16,36Z"/><path class="a" d="M37.61,36a6,6,0,0,1,.08-1.1,1.79,1.79,0,0,1,1.86-1.42,1.69,1.69,0,0,1,1.9,1.36,6,6,0,0,1,0,1.24,4.78,4.78,0,0,1-.07,1.21,1.73,1.73,0,0,1-1.8,1.28,1.87,1.87,0,0,1-1.94-1.29A4.82,4.82,0,0,1,37.61,36Z"/><path class="a" d="M29.9,36a6,6,0,0,1,.08-1.1,1.78,1.78,0,0,1,1.85-1.42,1.69,1.69,0,0,1,1.91,1.36,5.41,5.41,0,0,1,0,1.24,4.37,4.37,0,0,1-.06,1.21,1.73,1.73,0,0,1-1.8,1.28A1.86,1.86,0,0,1,30,37.26,4.82,4.82,0,0,1,29.9,36Z"/><path class="a" d="M26,36a6,6,0,0,1,.08-1.1,1.78,1.78,0,0,1,1.85-1.42,1.69,1.69,0,0,1,1.91,1.36,6,6,0,0,1,0,1.24,4.37,4.37,0,0,1-.06,1.21A1.73,1.73,0,0,1,28,38.55a1.85,1.85,0,0,1-1.93-1.29A4.82,4.82,0,0,1,26,36Z"/><path class="a" d="M37.65,36a6,6,0,0,0-.08-1.1,1.79,1.79,0,0,0-1.86-1.42,1.69,1.69,0,0,0-1.9,1.36,6,6,0,0,0-.05,1.24,4.36,4.36,0,0,0,.07,1.21,1.72,1.72,0,0,0,1.8,1.28,1.81,1.81,0,0,0,1.95-1.19A5.63,5.63,0,0,0,37.65,36Z"/><path class="a" d="M10.48,36a6,6,0,0,0-.08-1.1,1.78,1.78,0,0,0-1.85-1.42,1.69,1.69,0,0,0-1.91,1.36,6,6,0,0,0,0,1.24,4.37,4.37,0,0,0,.06,1.21,1.73,1.73,0,0,0,1.81,1.28,1.81,1.81,0,0,0,1.95-1.19A5.65,5.65,0,0,0,10.48,36Z"/><path class="a" d="M56.05,36a6,6,0,0,0-.08-1.1,1.79,1.79,0,0,0-1.86-1.42,1.69,1.69,0,0,0-1.9,1.36,6,6,0,0,0-.05,1.24,4.36,4.36,0,0,0,.07,1.21A1.72,1.72,0,0,0,54,38.55,1.81,1.81,0,0,0,56,37.36,5.63,5.63,0,0,0,56.05,36Z"/><path class="a" d="M30,56.05A5.92,5.92,0,0,0,29.91,55a1.79,1.79,0,0,0-1.86-1.43,1.7,1.7,0,0,0-1.9,1.37,5.91,5.91,0,0,0,0,1.24,4.78,4.78,0,0,0,.07,1.21A1.71,1.71,0,0,0,28,58.62a1.87,1.87,0,0,0,1.94-1.29A4.82,4.82,0,0,0,30,56.05Z"/><path class="a" d="M37.71,56.05A5.85,5.85,0,0,0,37.62,55a1.78,1.78,0,0,0-1.85-1.43,1.7,1.7,0,0,0-1.91,1.37,6,6,0,0,0,0,1.24,4.37,4.37,0,0,0,.06,1.21,1.71,1.71,0,0,0,1.81,1.27,1.85,1.85,0,0,0,1.93-1.29A4.8,4.8,0,0,0,37.71,56.05Z"/><path class="a" d="M41.6,56.05A5.85,5.85,0,0,0,41.51,55a1.78,1.78,0,0,0-1.85-1.43,1.68,1.68,0,0,0-1.9,1.37,5.3,5.3,0,0,0,0,1.24,4.37,4.37,0,0,0,.06,1.21,1.72,1.72,0,0,0,1.81,1.27,1.85,1.85,0,0,0,1.93-1.29A4.8,4.8,0,0,0,41.6,56.05Z"/><path class="a" d="M30,56.05A5.85,5.85,0,0,1,30,55a1.78,1.78,0,0,1,1.85-1.43,1.69,1.69,0,0,1,1.9,1.37,5.91,5.91,0,0,1,.05,1.24,4.8,4.8,0,0,1-.06,1.21A1.72,1.72,0,0,1,32,58.62,1.8,1.8,0,0,1,30,57.44,5.74,5.74,0,0,1,30,56.05Z"/><path class="a" d="M14.5,56.05A5.92,5.92,0,0,0,14.42,55a1.79,1.79,0,0,0-1.86-1.43,1.7,1.7,0,0,0-1.9,1.37,5.91,5.91,0,0,0-.05,1.24,4.78,4.78,0,0,0,.07,1.21,1.71,1.71,0,0,0,1.8,1.27,1.87,1.87,0,0,0,1.94-1.29A4.82,4.82,0,0,0,14.5,56.05Z"/><path class="a" d="M22.21,56.05A5.92,5.92,0,0,0,22.13,55a1.79,1.79,0,0,0-1.85-1.43,1.7,1.7,0,0,0-1.91,1.37,5.36,5.36,0,0,0,0,1.24,4.37,4.37,0,0,0,.06,1.21,1.71,1.71,0,0,0,1.8,1.27,1.86,1.86,0,0,0,1.94-1.29A4.82,4.82,0,0,0,22.21,56.05Z"/><path class="a" d="M26.1,56.05A5.92,5.92,0,0,0,26,55a1.78,1.78,0,0,0-1.85-1.43,1.7,1.7,0,0,0-1.91,1.37,6,6,0,0,0,0,1.24,4.37,4.37,0,0,0,.06,1.21,1.71,1.71,0,0,0,1.81,1.27A1.85,1.85,0,0,0,26,57.33,4.82,4.82,0,0,0,26.1,56.05Z"/><path class="a" d="M14.46,56.05A5.92,5.92,0,0,1,14.54,55a1.79,1.79,0,0,1,1.86-1.43,1.7,1.7,0,0,1,1.9,1.37,5.91,5.91,0,0,1,.05,1.24,4.78,4.78,0,0,1-.07,1.21,1.71,1.71,0,0,1-1.8,1.27,1.8,1.8,0,0,1-2-1.18A5.74,5.74,0,0,1,14.46,56.05Z"/><path class="a" d="M41.63,56.05A5.92,5.92,0,0,1,41.71,55a1.78,1.78,0,0,1,1.85-1.43,1.7,1.7,0,0,1,1.91,1.37,6,6,0,0,1,0,1.24,4.37,4.37,0,0,1-.06,1.21,1.71,1.71,0,0,1-1.81,1.27,1.81,1.81,0,0,1-2-1.18A5.75,5.75,0,0,1,41.63,56.05Z"/><path class="a" d="M48.18,56.05A5.92,5.92,0,0,1,48.26,55a1.79,1.79,0,0,1,1.86-1.43A1.7,1.7,0,0,1,52,54.9a5.91,5.91,0,0,1,0,1.24A4.36,4.36,0,0,1,52,57.35a1.7,1.7,0,0,1-1.8,1.27,1.8,1.8,0,0,1-2-1.18A5.74,5.74,0,0,1,48.18,56.05Z"/><path class="a" d="M28.63,49.36a6.1,6.1,0,0,0-.08-1.1,1.78,1.78,0,0,0-1.85-1.42,1.7,1.7,0,0,0-1.91,1.37,6,6,0,0,0,0,1.24,4.3,4.3,0,0,0,.06,1.2,1.71,1.71,0,0,0,1.81,1.28,1.85,1.85,0,0,0,1.93-1.29A4.82,4.82,0,0,0,28.63,49.36Z"/><path class="a" d="M36.35,49.36a6,6,0,0,0-.09-1.1,1.77,1.77,0,0,0-1.85-1.42,1.7,1.7,0,0,0-1.9,1.37,5.91,5.91,0,0,0,0,1.24,4.72,4.72,0,0,0,.06,1.2,1.72,1.72,0,0,0,1.81,1.28,1.87,1.87,0,0,0,1.94-1.29A4.82,4.82,0,0,0,36.35,49.36Z"/><path class="a" d="M40.24,49.36a6.1,6.1,0,0,0-.08-1.1,1.79,1.79,0,0,0-1.86-1.42,1.7,1.7,0,0,0-1.9,1.37,5.91,5.91,0,0,0,0,1.24,4.29,4.29,0,0,0,.07,1.2,1.7,1.7,0,0,0,1.8,1.28,1.87,1.87,0,0,0,1.94-1.29A4.82,4.82,0,0,0,40.24,49.36Z"/><path class="a" d="M28.59,49.36a6,6,0,0,1,.09-1.1,1.78,1.78,0,0,1,1.85-1.42,1.7,1.7,0,0,1,1.91,1.37,6,6,0,0,1,0,1.24,4.3,4.3,0,0,1-.06,1.2,1.71,1.71,0,0,1-1.81,1.28,1.81,1.81,0,0,1-1.95-1.18A5.74,5.74,0,0,1,28.59,49.36Z"/><path class="a" d="M13.14,49.36a6.1,6.1,0,0,0-.08-1.1,1.79,1.79,0,0,0-1.86-1.42,1.7,1.7,0,0,0-1.9,1.37,5.91,5.91,0,0,0-.05,1.24,4.7,4.7,0,0,0,.07,1.2,1.71,1.71,0,0,0,1.8,1.28,1.87,1.87,0,0,0,1.94-1.29A4.82,4.82,0,0,0,13.14,49.36Z"/><path class="a" d="M20.86,49.36a6,6,0,0,0-.09-1.1,1.78,1.78,0,0,0-1.85-1.42A1.68,1.68,0,0,0,17,48.21,5.3,5.3,0,0,0,17,49.45a4.3,4.3,0,0,0,.06,1.2,1.72,1.72,0,0,0,1.81,1.28,1.85,1.85,0,0,0,1.93-1.29A4.8,4.8,0,0,0,20.86,49.36Z"/><path class="a" d="M24.75,49.36a6,6,0,0,0-.09-1.1,1.78,1.78,0,0,0-1.85-1.42,1.68,1.68,0,0,0-1.9,1.37,5.3,5.3,0,0,0-.05,1.24,4.3,4.3,0,0,0,.06,1.2,1.72,1.72,0,0,0,1.81,1.28,1.85,1.85,0,0,0,1.93-1.29A4.8,4.8,0,0,0,24.75,49.36Z"/><path class="a" d="M13.1,49.36a6,6,0,0,1,.09-1.1A1.78,1.78,0,0,1,15,46.84a1.68,1.68,0,0,1,1.9,1.37,5.3,5.3,0,0,1,0,1.24,4.3,4.3,0,0,1-.06,1.2,1.72,1.72,0,0,1-1.81,1.28,1.8,1.8,0,0,1-1.95-1.18A5.74,5.74,0,0,1,13.1,49.36Z"/><path class="a" d="M40.22,49.36a6.1,6.1,0,0,1,.08-1.1,1.79,1.79,0,0,1,1.86-1.42,1.7,1.7,0,0,1,1.9,1.37,5.91,5.91,0,0,1,0,1.24,4.7,4.7,0,0,1-.07,1.2,1.71,1.71,0,0,1-1.8,1.28,1.8,1.8,0,0,1-2-1.18A5.74,5.74,0,0,1,40.22,49.36Z"/><path class="a" d="M49.65,49.36a6.1,6.1,0,0,1,.08-1.1,1.79,1.79,0,0,1,1.86-1.42,1.7,1.7,0,0,1,1.9,1.37,5.91,5.91,0,0,1,0,1.24,4.7,4.7,0,0,1-.07,1.2,1.71,1.71,0,0,1-1.8,1.28,1.8,1.8,0,0,1-2-1.18A5.74,5.74,0,0,1,49.65,49.36Z"/><path class="a" d="M27.3,42.67a5.2,5.2,0,0,0-.09-1.1,1.77,1.77,0,0,0-1.85-1.42,1.7,1.7,0,0,0-1.9,1.36,6,6,0,0,0-.05,1.24A4.36,4.36,0,0,0,23.48,44a1.72,1.72,0,0,0,1.8,1.28A1.87,1.87,0,0,0,27.22,44,4.82,4.82,0,0,0,27.3,42.67Z"/><path class="a" d="M35,42.67a6,6,0,0,0-.08-1.1,1.79,1.79,0,0,0-1.86-1.42,1.7,1.7,0,0,0-1.9,1.36,6,6,0,0,0-.05,1.24A4.78,4.78,0,0,0,31.19,44,1.73,1.73,0,0,0,33,45.24,1.87,1.87,0,0,0,34.93,44,4.82,4.82,0,0,0,35,42.67Z"/><path class="a" d="M38.9,42.67a6,6,0,0,0-.08-1.1A1.78,1.78,0,0,0,37,40.15a1.7,1.7,0,0,0-1.91,1.36,5.41,5.41,0,0,0,0,1.24A4.37,4.37,0,0,0,35.08,44a1.73,1.73,0,0,0,1.8,1.28A1.86,1.86,0,0,0,38.82,44,4.82,4.82,0,0,0,38.9,42.67Z"/><path class="a" d="M27.26,42.67a6,6,0,0,1,.08-1.1,1.79,1.79,0,0,1,1.86-1.42,1.7,1.7,0,0,1,1.9,1.36,6,6,0,0,1,0,1.24A4.78,4.78,0,0,1,31.08,44a1.73,1.73,0,0,1-1.8,1.28,1.81,1.81,0,0,1-2-1.19A5.63,5.63,0,0,1,27.26,42.67Z"/><path class="a" d="M11.81,42.67a6,6,0,0,0-.09-1.1,1.78,1.78,0,0,0-1.85-1.42A1.68,1.68,0,0,0,8,41.51a5.35,5.35,0,0,0,0,1.24A4.37,4.37,0,0,0,8,44a1.74,1.74,0,0,0,1.81,1.28A1.85,1.85,0,0,0,11.72,44,4.8,4.8,0,0,0,11.81,42.67Z"/><path class="a" d="M19.52,42.67a6,6,0,0,0-.08-1.1,1.79,1.79,0,0,0-1.86-1.42,1.7,1.7,0,0,0-1.9,1.36,6,6,0,0,0,0,1.24A4.78,4.78,0,0,0,15.7,44a1.73,1.73,0,0,0,1.8,1.28A1.87,1.87,0,0,0,19.44,44,4.82,4.82,0,0,0,19.52,42.67Z"/><path class="a" d="M23.41,42.67a6,6,0,0,0-.08-1.1,1.79,1.79,0,0,0-1.86-1.42,1.7,1.7,0,0,0-1.9,1.36,6,6,0,0,0-.05,1.24A4.78,4.78,0,0,0,19.59,44a1.73,1.73,0,0,0,1.8,1.28A1.87,1.87,0,0,0,23.33,44,4.82,4.82,0,0,0,23.41,42.67Z"/><path class="a" d="M11.77,42.67a6,6,0,0,1,.08-1.1,1.79,1.79,0,0,1,1.86-1.42,1.7,1.7,0,0,1,1.9,1.36,6,6,0,0,1,.05,1.24A4.78,4.78,0,0,1,15.59,44a1.73,1.73,0,0,1-1.8,1.28,1.83,1.83,0,0,1-2-1.19A5.65,5.65,0,0,1,11.77,42.67Z"/><path class="a" d="M38.93,42.67a6,6,0,0,1,.09-1.1,1.77,1.77,0,0,1,1.85-1.42,1.68,1.68,0,0,1,1.9,1.36,5.35,5.35,0,0,1,0,1.24A4.8,4.8,0,0,1,42.76,44,1.74,1.74,0,0,1,41,45.24a1.81,1.81,0,0,1-2-1.19A5.63,5.63,0,0,1,38.93,42.67Z"/><path class="a" d="M50.78,42.67a6,6,0,0,1,.09-1.1,1.77,1.77,0,0,1,1.85-1.42,1.69,1.69,0,0,1,1.9,1.36,6,6,0,0,1,.05,1.24A4.8,4.8,0,0,1,54.61,44a1.74,1.74,0,0,1-1.81,1.28,1.81,1.81,0,0,1-1.95-1.19A5.63,5.63,0,0,1,50.78,42.67Z"/><path class="a" d="M24.65,29.28a5.92,5.92,0,0,0-.08-1.09,1.79,1.79,0,0,0-1.86-1.42,1.69,1.69,0,0,0-1.9,1.36,5.94,5.94,0,0,0,0,1.24,4.78,4.78,0,0,0,.07,1.21,1.73,1.73,0,0,0,1.8,1.28,1.88,1.88,0,0,0,1.94-1.29A4.89,4.89,0,0,0,24.65,29.28Z"/><path class="a" d="M32.37,29.28a5.85,5.85,0,0,0-.09-1.09,1.78,1.78,0,0,0-1.85-1.42,1.69,1.69,0,0,0-1.91,1.36,6,6,0,0,0,0,1.24,4.37,4.37,0,0,0,.06,1.21,1.73,1.73,0,0,0,1.81,1.28,1.86,1.86,0,0,0,1.93-1.29A4.88,4.88,0,0,0,32.37,29.28Z"/><path class="a" d="M36.26,29.28a5.85,5.85,0,0,0-.09-1.09,1.78,1.78,0,0,0-1.85-1.42,1.68,1.68,0,0,0-1.9,1.36,5.33,5.33,0,0,0-.05,1.24,4.37,4.37,0,0,0,.06,1.21,1.74,1.74,0,0,0,1.81,1.28,1.86,1.86,0,0,0,1.93-1.29A4.88,4.88,0,0,0,36.26,29.28Z"/><path class="a" d="M24.61,29.28a5.85,5.85,0,0,1,.09-1.09,1.77,1.77,0,0,1,1.85-1.42,1.69,1.69,0,0,1,1.9,1.36,5.94,5.94,0,0,1,.05,1.24,4.8,4.8,0,0,1-.06,1.21,1.74,1.74,0,0,1-1.81,1.28,1.82,1.82,0,0,1-1.95-1.19A5.68,5.68,0,0,1,24.61,29.28Z"/><path class="a" d="M9.16,29.28a5.92,5.92,0,0,0-.08-1.09,1.79,1.79,0,0,0-1.86-1.42,1.69,1.69,0,0,0-1.9,1.36,5.94,5.94,0,0,0-.05,1.24,4.36,4.36,0,0,0,.07,1.21,1.72,1.72,0,0,0,1.8,1.28,1.88,1.88,0,0,0,1.94-1.29A4.89,4.89,0,0,0,9.16,29.28Z"/><path class="a" d="M16.87,29.28a5.92,5.92,0,0,0-.08-1.09,1.78,1.78,0,0,0-1.85-1.42A1.69,1.69,0,0,0,13,28.13a5.39,5.39,0,0,0,0,1.24,4.37,4.37,0,0,0,.06,1.21,1.73,1.73,0,0,0,1.8,1.28,1.87,1.87,0,0,0,1.94-1.29A4.89,4.89,0,0,0,16.87,29.28Z"/><path class="a" d="M20.76,29.28a5.92,5.92,0,0,0-.08-1.09,1.78,1.78,0,0,0-1.85-1.42,1.69,1.69,0,0,0-1.91,1.36,6,6,0,0,0,0,1.24,4.37,4.37,0,0,0,.06,1.21,1.73,1.73,0,0,0,1.81,1.28,1.86,1.86,0,0,0,1.93-1.29A4.89,4.89,0,0,0,20.76,29.28Z"/><path class="a" d="M9.12,29.28a5.92,5.92,0,0,1,.08-1.09,1.79,1.79,0,0,1,1.86-1.42A1.69,1.69,0,0,1,13,28.13a5.94,5.94,0,0,1,0,1.24,4.78,4.78,0,0,1-.07,1.21,1.73,1.73,0,0,1-1.8,1.28,1.82,1.82,0,0,1-2-1.19A5.68,5.68,0,0,1,9.12,29.28Z"/><path class="a" d="M36.29,29.28a5.92,5.92,0,0,1,.08-1.09,1.78,1.78,0,0,1,1.85-1.42,1.69,1.69,0,0,1,1.91,1.36,6,6,0,0,1,0,1.24,4.37,4.37,0,0,1-.06,1.21,1.73,1.73,0,0,1-1.81,1.28,1.83,1.83,0,0,1-1.95-1.19A5.7,5.7,0,0,1,36.29,29.28Z"/><path class="a" d="M53.54,29.28a5.92,5.92,0,0,1,.08-1.09,1.79,1.79,0,0,1,1.86-1.42,1.69,1.69,0,0,1,1.9,1.36,5.94,5.94,0,0,1,0,1.24,4.78,4.78,0,0,1-.07,1.21,1.73,1.73,0,0,1-1.8,1.28,1.82,1.82,0,0,1-2-1.19A5.68,5.68,0,0,1,53.54,29.28Z"/><path class="a" d="M23.35,22.59a5.92,5.92,0,0,0-.08-1.09,1.79,1.79,0,0,0-1.86-1.42,1.69,1.69,0,0,0-1.9,1.36,5.91,5.91,0,0,0-.05,1.24,4.78,4.78,0,0,0,.07,1.21,1.73,1.73,0,0,0,1.8,1.28,1.89,1.89,0,0,0,1.94-1.3A4.82,4.82,0,0,0,23.35,22.59Z"/><path class="a" d="M31.07,22.59A5.85,5.85,0,0,0,31,21.5a1.78,1.78,0,0,0-1.85-1.42,1.69,1.69,0,0,0-1.91,1.36,6,6,0,0,0,0,1.24,4.37,4.37,0,0,0,.06,1.21,1.73,1.73,0,0,0,1.81,1.28A1.87,1.87,0,0,0,31,23.87,4.8,4.8,0,0,0,31.07,22.59Z"/><path class="a" d="M35,22.59a5.85,5.85,0,0,0-.09-1.09A1.78,1.78,0,0,0,33,20.08a1.68,1.68,0,0,0-1.9,1.36,5.3,5.3,0,0,0-.05,1.24,4.37,4.37,0,0,0,.06,1.21,1.74,1.74,0,0,0,1.81,1.28,1.87,1.87,0,0,0,1.93-1.3A4.8,4.8,0,0,0,35,22.59Z"/><path class="a" d="M23.31,22.59a5.85,5.85,0,0,1,.09-1.09,1.77,1.77,0,0,1,1.85-1.42,1.69,1.69,0,0,1,1.9,1.36,5.91,5.91,0,0,1,.05,1.24,4.8,4.8,0,0,1-.06,1.21,1.74,1.74,0,0,1-1.81,1.28A1.82,1.82,0,0,1,23.38,24,5.71,5.71,0,0,1,23.31,22.59Z"/><path class="a" d="M7.86,22.59a5.92,5.92,0,0,0-.08-1.09,1.79,1.79,0,0,0-1.86-1.42A1.69,1.69,0,0,0,4,21.44a5.91,5.91,0,0,0,0,1.24A4.36,4.36,0,0,0,4,23.89a1.72,1.72,0,0,0,1.8,1.28,1.89,1.89,0,0,0,1.94-1.3A4.82,4.82,0,0,0,7.86,22.59Z"/><path class="a" d="M15.57,22.59a5.92,5.92,0,0,0-.08-1.09,1.78,1.78,0,0,0-1.85-1.42,1.69,1.69,0,0,0-1.91,1.36,5.91,5.91,0,0,0-.05,1.24,4.78,4.78,0,0,0,.07,1.21,1.73,1.73,0,0,0,1.8,1.28,1.88,1.88,0,0,0,1.94-1.3A4.82,4.82,0,0,0,15.57,22.59Z"/><path class="a" d="M19.46,22.59a5.92,5.92,0,0,0-.08-1.09,1.78,1.78,0,0,0-1.85-1.42,1.69,1.69,0,0,0-1.91,1.36,6,6,0,0,0,0,1.24,4.37,4.37,0,0,0,.06,1.21,1.73,1.73,0,0,0,1.81,1.28,1.87,1.87,0,0,0,1.93-1.3A4.82,4.82,0,0,0,19.46,22.59Z"/><path class="a" d="M7.82,22.59A5.92,5.92,0,0,1,7.9,21.5a1.79,1.79,0,0,1,1.86-1.42,1.69,1.69,0,0,1,1.9,1.36,5.91,5.91,0,0,1,.05,1.24,4.78,4.78,0,0,1-.07,1.21,1.73,1.73,0,0,1-1.8,1.28A1.82,1.82,0,0,1,7.89,24,5.71,5.71,0,0,1,7.82,22.59Z"/><path class="a" d="M35,22.59a5.92,5.92,0,0,1,.08-1.09,1.78,1.78,0,0,1,1.85-1.42,1.69,1.69,0,0,1,1.91,1.36,6,6,0,0,1,0,1.24,4.37,4.37,0,0,1-.06,1.21A1.73,1.73,0,0,1,37,25.17a1.83,1.83,0,0,1-2-1.19A5.73,5.73,0,0,1,35,22.59Z"/><path class="a" d="M54.82,22.59a5.92,5.92,0,0,1,.08-1.09,1.79,1.79,0,0,1,1.86-1.42,1.69,1.69,0,0,1,1.9,1.36,5.91,5.91,0,0,1,.05,1.24,4.78,4.78,0,0,1-.07,1.21,1.73,1.73,0,0,1-1.8,1.28,1.84,1.84,0,0,1-2-1.19A6.28,6.28,0,0,1,54.82,22.59Z"/><path class="a" d="M22.08,15.9A5.92,5.92,0,0,0,22,14.81a1.78,1.78,0,0,0-1.86-1.43,1.7,1.7,0,0,0-1.9,1.37,5.91,5.91,0,0,0,0,1.24,4.7,4.7,0,0,0,.07,1.2,1.71,1.71,0,0,0,1.8,1.28A1.87,1.87,0,0,0,22,17.18,4.82,4.82,0,0,0,22.08,15.9Z"/><path class="a" d="M29.79,15.9a5.92,5.92,0,0,0-.08-1.09,1.78,1.78,0,0,0-1.85-1.43A1.7,1.7,0,0,0,26,14.75a5.36,5.36,0,0,0,0,1.24,4.3,4.3,0,0,0,.06,1.2,1.71,1.71,0,0,0,1.8,1.28,1.86,1.86,0,0,0,1.94-1.29A4.82,4.82,0,0,0,29.79,15.9Z"/><path class="a" d="M33.68,15.9a5.92,5.92,0,0,0-.08-1.09,1.77,1.77,0,0,0-1.85-1.43,1.7,1.7,0,0,0-1.91,1.37,6,6,0,0,0,0,1.24,4.3,4.3,0,0,0,.06,1.2,1.71,1.71,0,0,0,1.81,1.28,1.85,1.85,0,0,0,1.93-1.29A4.82,4.82,0,0,0,33.68,15.9Z"/><path class="a" d="M22,15.9a5.92,5.92,0,0,1,.08-1.09A1.78,1.78,0,0,1,24,13.38a1.7,1.7,0,0,1,1.9,1.37A5.91,5.91,0,0,1,25.93,16a4.7,4.7,0,0,1-.07,1.2,1.71,1.71,0,0,1-1.8,1.28,1.8,1.8,0,0,1-1.95-1.18A5.74,5.74,0,0,1,22,15.9Z"/><path class="a" d="M6.59,15.9a5.85,5.85,0,0,0-.09-1.09,1.77,1.77,0,0,0-1.85-1.43,1.69,1.69,0,0,0-1.9,1.37A5.91,5.91,0,0,0,2.7,16a4.72,4.72,0,0,0,.06,1.2,1.72,1.72,0,0,0,1.81,1.28,1.87,1.87,0,0,0,1.94-1.29A4.82,4.82,0,0,0,6.59,15.9Z"/><path class="a" d="M14.3,15.9a5.92,5.92,0,0,0-.08-1.09,1.78,1.78,0,0,0-1.86-1.43,1.7,1.7,0,0,0-1.9,1.37A5.91,5.91,0,0,0,10.41,16a4.7,4.7,0,0,0,.07,1.2,1.71,1.71,0,0,0,1.8,1.28,1.87,1.87,0,0,0,1.94-1.29A4.82,4.82,0,0,0,14.3,15.9Z"/><path class="a" d="M18.19,15.9a5.92,5.92,0,0,0-.08-1.09,1.78,1.78,0,0,0-1.86-1.43,1.7,1.7,0,0,0-1.9,1.37,5.91,5.91,0,0,0,0,1.24,4.7,4.7,0,0,0,.07,1.2,1.71,1.71,0,0,0,1.8,1.28,1.87,1.87,0,0,0,1.94-1.29A4.82,4.82,0,0,0,18.19,15.9Z"/><path class="a" d="M6.55,15.9a5.92,5.92,0,0,1,.08-1.09,1.78,1.78,0,0,1,1.86-1.43,1.7,1.7,0,0,1,1.9,1.37,5.91,5.91,0,0,1,0,1.24,4.7,4.7,0,0,1-.07,1.2,1.71,1.71,0,0,1-1.8,1.28,1.8,1.8,0,0,1-1.95-1.18A5.74,5.74,0,0,1,6.55,15.9Z"/><path class="a" d="M33.71,15.9a5.85,5.85,0,0,1,.09-1.09,1.77,1.77,0,0,1,1.85-1.43,1.68,1.68,0,0,1,1.9,1.37A5.3,5.3,0,0,1,37.6,16a4.3,4.3,0,0,1-.06,1.2,1.72,1.72,0,0,1-1.81,1.28,1.81,1.81,0,0,1-1.95-1.18A5.74,5.74,0,0,1,33.71,15.9Z"/><path class="a" d="M56.2,15.9a5.92,5.92,0,0,1,.08-1.09,1.78,1.78,0,0,1,1.85-1.43A1.7,1.7,0,0,1,60,14.75a6,6,0,0,1,0,1.24,4.3,4.3,0,0,1-.06,1.2,1.71,1.71,0,0,1-1.81,1.28,1.81,1.81,0,0,1-2-1.18A5.75,5.75,0,0,1,56.2,15.9Z"/><path class="a" d="M20.76,9.21a6,6,0,0,0-.09-1.1,1.78,1.78,0,0,0-1.85-1.42,1.68,1.68,0,0,0-1.9,1.36,5.41,5.41,0,0,0-.05,1.25,4.32,4.32,0,0,0,.06,1.2,1.73,1.73,0,0,0,1.81,1.28,1.85,1.85,0,0,0,1.93-1.29A4.8,4.8,0,0,0,20.76,9.21Z"/><path class="a" d="M28.47,9.21a6.1,6.1,0,0,0-.08-1.1,1.79,1.79,0,0,0-1.86-1.42,1.7,1.7,0,0,0-1.9,1.36,6,6,0,0,0-.05,1.25,4.73,4.73,0,0,0,.07,1.2,1.72,1.72,0,0,0,1.8,1.28,1.87,1.87,0,0,0,1.94-1.29A4.82,4.82,0,0,0,28.47,9.21Z"/><path class="a" d="M32.36,9.21a6.1,6.1,0,0,0-.08-1.1,1.79,1.79,0,0,0-1.86-1.42,1.7,1.7,0,0,0-1.9,1.36,6,6,0,0,0-.05,1.25,4.73,4.73,0,0,0,.07,1.2,1.72,1.72,0,0,0,1.8,1.28,1.87,1.87,0,0,0,1.94-1.29A4.82,4.82,0,0,0,32.36,9.21Z"/><path class="a" d="M20.72,9.21a6.1,6.1,0,0,1,.08-1.1,1.79,1.79,0,0,1,1.86-1.42,1.7,1.7,0,0,1,1.9,1.36,6,6,0,0,1,.05,1.25,4.73,4.73,0,0,1-.07,1.2,1.72,1.72,0,0,1-1.8,1.28,1.83,1.83,0,0,1-2-1.19A5.65,5.65,0,0,1,20.72,9.21Z"/><path class="a" d="M5.26,9.21a6.1,6.1,0,0,0-.08-1.1A1.78,1.78,0,0,0,3.33,6.69,1.7,1.7,0,0,0,1.42,8.05a6.12,6.12,0,0,0,0,1.25,4.32,4.32,0,0,0,.06,1.2,1.72,1.72,0,0,0,1.81,1.28,1.85,1.85,0,0,0,1.93-1.29A4.82,4.82,0,0,0,5.26,9.21Z"/><path class="a" d="M13,9.21a6,6,0,0,0-.09-1.1A1.77,1.77,0,0,0,11,6.69a1.7,1.7,0,0,0-1.9,1.36A6,6,0,0,0,9.09,9.3a4.74,4.74,0,0,0,.06,1.2A1.73,1.73,0,0,0,11,11.78a1.87,1.87,0,0,0,1.94-1.29A4.82,4.82,0,0,0,13,9.21Z"/><path class="a" d="M16.87,9.21a6.1,6.1,0,0,0-.08-1.1,1.79,1.79,0,0,0-1.86-1.42A1.7,1.7,0,0,0,13,8.05,6,6,0,0,0,13,9.3a4.31,4.31,0,0,0,.07,1.2,1.71,1.71,0,0,0,1.8,1.28,1.87,1.87,0,0,0,1.94-1.29A4.82,4.82,0,0,0,16.87,9.21Z"/><path class="a" d="M5.23,9.21a6.1,6.1,0,0,1,.08-1.1A1.78,1.78,0,0,1,7.16,6.69,1.7,1.7,0,0,1,9.07,8.05a6.12,6.12,0,0,1,0,1.25,4.32,4.32,0,0,1-.06,1.2,1.72,1.72,0,0,1-1.81,1.28,1.81,1.81,0,0,1-1.95-1.19A5.65,5.65,0,0,1,5.23,9.21Z"/><path class="a" d="M32.39,9.21a6.1,6.1,0,0,1,.08-1.1,1.79,1.79,0,0,1,1.86-1.42,1.7,1.7,0,0,1,1.9,1.36,6,6,0,0,1,.05,1.25,4.73,4.73,0,0,1-.07,1.2,1.72,1.72,0,0,1-1.8,1.28,1.81,1.81,0,0,1-1.95-1.19A5.63,5.63,0,0,1,32.39,9.21Z"/><path class="a" d="M57.46,9.21a6,6,0,0,1,.09-1.1A1.78,1.78,0,0,1,59.4,6.69a1.68,1.68,0,0,1,1.9,1.36,5.41,5.41,0,0,1,.05,1.25,4.32,4.32,0,0,1-.06,1.2,1.73,1.73,0,0,1-1.81,1.28,1.81,1.81,0,0,1-1.95-1.19A5.63,5.63,0,0,1,57.46,9.21Z"/><path class="a" d="M19.39,2.52a5.2,5.2,0,0,0-.09-1.1A1.77,1.77,0,0,0,17.45,0a1.7,1.7,0,0,0-1.9,1.36A6,6,0,0,0,15.5,2.6a4.36,4.36,0,0,0,.07,1.21,1.72,1.72,0,0,0,1.8,1.28A1.87,1.87,0,0,0,19.31,3.8,4.82,4.82,0,0,0,19.39,2.52Z"/><path class="a" d="M27.1,2.52A6,6,0,0,0,27,1.42,1.79,1.79,0,0,0,25.16,0a1.7,1.7,0,0,0-1.9,1.36,6,6,0,0,0-.05,1.24,4.78,4.78,0,0,0,.07,1.21,1.73,1.73,0,0,0,1.8,1.28A1.87,1.87,0,0,0,27,3.8,4.82,4.82,0,0,0,27.1,2.52Z"/><path class="a" d="M31,2.52a6,6,0,0,0-.08-1.1A1.78,1.78,0,0,0,29.06,0a1.7,1.7,0,0,0-1.91,1.36,5.41,5.41,0,0,0,0,1.24,4.37,4.37,0,0,0,.06,1.21A1.73,1.73,0,0,0,29,5.09,1.86,1.86,0,0,0,30.91,3.8,4.82,4.82,0,0,0,31,2.52Z"/><path class="a" d="M19.35,2.52a6,6,0,0,1,.08-1.1A1.79,1.79,0,0,1,21.29,0a1.7,1.7,0,0,1,1.9,1.36,6,6,0,0,1,0,1.24,4.78,4.78,0,0,1-.07,1.21,1.73,1.73,0,0,1-1.8,1.28A1.81,1.81,0,0,1,19.42,3.9,5.63,5.63,0,0,1,19.35,2.52Z"/><path class="a" d="M3.9,2.52a6,6,0,0,0-.09-1.1A1.78,1.78,0,0,0,2,0,1.68,1.68,0,0,0,.06,1.36,5.35,5.35,0,0,0,0,2.6,4.37,4.37,0,0,0,.07,3.81,1.74,1.74,0,0,0,1.88,5.09,1.85,1.85,0,0,0,3.81,3.8,4.8,4.8,0,0,0,3.9,2.52Z"/><path class="a" d="M11.61,2.52a6,6,0,0,0-.08-1.1A1.79,1.79,0,0,0,9.67,0a1.7,1.7,0,0,0-1.9,1.36,6,6,0,0,0,0,1.24,4.78,4.78,0,0,0,.07,1.21,1.73,1.73,0,0,0,1.8,1.28A1.87,1.87,0,0,0,11.53,3.8,4.82,4.82,0,0,0,11.61,2.52Z"/><path class="a" d="M15.5,2.52a6,6,0,0,0-.08-1.1A1.79,1.79,0,0,0,13.56,0a1.7,1.7,0,0,0-1.9,1.36,6,6,0,0,0-.05,1.24,4.78,4.78,0,0,0,.07,1.21,1.73,1.73,0,0,0,1.8,1.28A1.87,1.87,0,0,0,15.42,3.8,4.82,4.82,0,0,0,15.5,2.52Z"/><path class="a" d="M3.86,2.52a6,6,0,0,1,.08-1.1A1.78,1.78,0,0,1,5.79,0,1.7,1.7,0,0,1,7.7,1.36a6,6,0,0,1,0,1.24,4.78,4.78,0,0,1-.07,1.21,1.73,1.73,0,0,1-1.8,1.28,1.83,1.83,0,0,1-2-1.19A5.65,5.65,0,0,1,3.86,2.52Z"/><path class="a" d="M31,2.52a6,6,0,0,1,.09-1.1A1.77,1.77,0,0,1,33,0a1.69,1.69,0,0,1,1.9,1.36,6,6,0,0,1,0,1.24,4.8,4.8,0,0,1-.06,1.21A1.74,1.74,0,0,1,33,5.09,1.81,1.81,0,0,1,31.09,3.9,5.63,5.63,0,0,1,31,2.52Z"/><path class="a" d="M58.8,2.52a6,6,0,0,1,.08-1.1A1.78,1.78,0,0,1,60.73,0a1.7,1.7,0,0,1,1.91,1.36,6,6,0,0,1,0,1.24,4.37,4.37,0,0,1-.06,1.21,1.73,1.73,0,0,1-1.81,1.28,1.81,1.81,0,0,1-2-1.19A5.65,5.65,0,0,1,58.8,2.52Z"/></svg>