<svg xmlns="http://www.w3.org/2000/svg" width="61.26" height="65.32" viewBox="0 0 61.26 65.32"><defs><style>.a{fill:#21364f;}</style></defs><title>Asset 131</title><path class="a" d="M15.53,36a6,6,0,0,1,.08-1.1,1.79,1.79,0,0,1,1.86-1.42,1.69,1.69,0,0,1,1.9,1.36,6,6,0,0,1,.05,1.24,4.78,4.78,0,0,1-.07,1.21,1.73,1.73,0,0,1-1.8,1.28,1.87,1.87,0,0,1-1.94-1.29A4.82,4.82,0,0,1,15.53,36Z"/><path class="a" d="M7.82,36a6,6,0,0,1,.08-1.1,1.78,1.78,0,0,1,1.85-1.42,1.69,1.69,0,0,1,1.91,1.36,5.41,5.41,0,0,1,0,1.24,4.37,4.37,0,0,1-.06,1.21,1.73,1.73,0,0,1-1.8,1.28A1.86,1.86,0,0,1,7.9,37.26,4.82,4.82,0,0,1,7.82,36Z"/><path class="a" d="M3.93,36A6,6,0,0,1,4,34.88a1.78,1.78,0,0,1,1.85-1.42,1.69,1.69,0,0,1,1.91,1.36,6,6,0,0,1,0,1.24,4.37,4.37,0,0,1-.06,1.21,1.73,1.73,0,0,1-1.81,1.28A1.85,1.85,0,0,1,4,37.26,4.82,4.82,0,0,1,3.93,36Z"/><path class="a" d="M15.57,36a6,6,0,0,0-.08-1.1,1.79,1.79,0,0,0-1.86-1.42,1.69,1.69,0,0,0-1.9,1.36,6,6,0,0,0-.05,1.24,4.78,4.78,0,0,0,.07,1.21,1.73,1.73,0,0,0,1.8,1.28,1.81,1.81,0,0,0,1.95-1.19A5.63,5.63,0,0,0,15.57,36Z"/><path class="a" d="M31,36a5.89,5.89,0,0,1,.09-1.1A1.77,1.77,0,0,1,33,33.46a1.68,1.68,0,0,1,1.9,1.36,6,6,0,0,1,0,1.24,4.8,4.8,0,0,1-.06,1.21A1.74,1.74,0,0,1,33,38.55a1.87,1.87,0,0,1-1.94-1.29A4.82,4.82,0,0,1,31,36Z"/><path class="a" d="M23.31,36a6,6,0,0,1,.08-1.1,1.79,1.79,0,0,1,1.86-1.42,1.69,1.69,0,0,1,1.9,1.36,6,6,0,0,1,.05,1.24,4.78,4.78,0,0,1-.07,1.21,1.73,1.73,0,0,1-1.8,1.28,1.87,1.87,0,0,1-1.94-1.29A4.82,4.82,0,0,1,23.31,36Z"/><path class="a" d="M19.42,36a6,6,0,0,1,.08-1.1,1.79,1.79,0,0,1,1.86-1.42,1.69,1.69,0,0,1,1.9,1.36,6,6,0,0,1,0,1.24,4.78,4.78,0,0,1-.07,1.21,1.73,1.73,0,0,1-1.8,1.28,1.87,1.87,0,0,1-1.94-1.29A4.82,4.82,0,0,1,19.42,36Z"/><path class="a" d="M31.06,36a6,6,0,0,0-.08-1.1,1.79,1.79,0,0,0-1.86-1.42,1.69,1.69,0,0,0-1.9,1.36,6,6,0,0,0,0,1.24,4.78,4.78,0,0,0,.07,1.21A1.73,1.73,0,0,0,29,38.55,1.81,1.81,0,0,0,31,37.36,5.63,5.63,0,0,0,31.06,36Z"/><path class="a" d="M3.9,36a5.89,5.89,0,0,0-.09-1.1A1.78,1.78,0,0,0,2,33.46a1.68,1.68,0,0,0-1.9,1.36,5.35,5.35,0,0,0,0,1.24,4.37,4.37,0,0,0,.06,1.21,1.74,1.74,0,0,0,1.81,1.28,1.81,1.81,0,0,0,2-1.19A5.63,5.63,0,0,0,3.9,36Z"/><path class="a" d="M61.09,36a5.89,5.89,0,0,0-.09-1.1,1.77,1.77,0,0,0-1.85-1.42,1.69,1.69,0,0,0-1.9,1.36,6,6,0,0,0,0,1.24,4.36,4.36,0,0,0,.07,1.21,1.72,1.72,0,0,0,1.8,1.28,1.81,1.81,0,0,0,2-1.19A5.63,5.63,0,0,0,61.09,36Z"/><path class="a" d="M19.39,56.05A5.11,5.11,0,0,0,19.3,55a1.78,1.78,0,0,0-1.85-1.43,1.7,1.7,0,0,0-1.9,1.37,5.91,5.91,0,0,0-.05,1.24,4.36,4.36,0,0,0,.07,1.21,1.7,1.7,0,0,0,1.8,1.27,1.87,1.87,0,0,0,1.94-1.29A4.82,4.82,0,0,0,19.39,56.05Z"/><path class="a" d="M27.1,56.05A5.92,5.92,0,0,0,27,55a1.79,1.79,0,0,0-1.86-1.43,1.7,1.7,0,0,0-1.9,1.37,5.91,5.91,0,0,0-.05,1.24,4.78,4.78,0,0,0,.07,1.21,1.71,1.71,0,0,0,1.8,1.27A1.87,1.87,0,0,0,27,57.33,4.82,4.82,0,0,0,27.1,56.05Z"/><path class="a" d="M31,56.05A5.92,5.92,0,0,0,30.91,55a1.79,1.79,0,0,0-1.85-1.43,1.7,1.7,0,0,0-1.91,1.37,5.36,5.36,0,0,0,0,1.24,4.37,4.37,0,0,0,.06,1.21A1.71,1.71,0,0,0,29,58.62a1.86,1.86,0,0,0,1.94-1.29A4.82,4.82,0,0,0,31,56.05Z"/><path class="a" d="M19.35,56.05A5.92,5.92,0,0,1,19.43,55a1.79,1.79,0,0,1,1.86-1.43,1.7,1.7,0,0,1,1.9,1.37,5.91,5.91,0,0,1,0,1.24,4.78,4.78,0,0,1-.07,1.21,1.71,1.71,0,0,1-1.8,1.27,1.8,1.8,0,0,1-1.95-1.18A5.74,5.74,0,0,1,19.35,56.05Z"/><path class="a" d="M3.9,56.05A5.85,5.85,0,0,0,3.81,55,1.78,1.78,0,0,0,2,53.53,1.68,1.68,0,0,0,.06,54.9a5.3,5.3,0,0,0,0,1.24,4.37,4.37,0,0,0,.06,1.21,1.72,1.72,0,0,0,1.81,1.27,1.85,1.85,0,0,0,1.93-1.29A4.8,4.8,0,0,0,3.9,56.05Z"/><path class="a" d="M11.61,56.05A5.92,5.92,0,0,0,11.53,55a1.79,1.79,0,0,0-1.86-1.43,1.7,1.7,0,0,0-1.9,1.37,5.91,5.91,0,0,0,0,1.24,4.78,4.78,0,0,0,.07,1.21,1.71,1.71,0,0,0,1.8,1.27,1.87,1.87,0,0,0,1.94-1.29A4.82,4.82,0,0,0,11.61,56.05Z"/><path class="a" d="M15.5,56.05A5.92,5.92,0,0,0,15.42,55a1.79,1.79,0,0,0-1.86-1.43,1.7,1.7,0,0,0-1.9,1.37,5.91,5.91,0,0,0-.05,1.24,4.78,4.78,0,0,0,.07,1.21,1.71,1.71,0,0,0,1.8,1.27,1.87,1.87,0,0,0,1.94-1.29A4.82,4.82,0,0,0,15.5,56.05Z"/><path class="a" d="M3.86,56.05A5.92,5.92,0,0,1,3.94,55a1.79,1.79,0,0,1,1.85-1.43A1.7,1.7,0,0,1,7.7,54.9a5.91,5.91,0,0,1,0,1.24,4.78,4.78,0,0,1-.07,1.21,1.71,1.71,0,0,1-1.8,1.27,1.82,1.82,0,0,1-2-1.18A5.75,5.75,0,0,1,3.86,56.05Z"/><path class="a" d="M31,56.05A5.85,5.85,0,0,1,31.11,55,1.78,1.78,0,0,1,33,53.53a1.69,1.69,0,0,1,1.9,1.37,5.91,5.91,0,0,1,0,1.24,4.8,4.8,0,0,1-.06,1.21A1.72,1.72,0,0,1,33,58.62a1.8,1.8,0,0,1-1.95-1.18A5.74,5.74,0,0,1,31,56.05Z"/><path class="a" d="M48.16,56.05A5.85,5.85,0,0,1,48.25,55a1.78,1.78,0,0,1,1.85-1.43A1.7,1.7,0,0,1,52,54.9a6,6,0,0,1,0,1.24A4.37,4.37,0,0,1,52,57.35a1.71,1.71,0,0,1-1.81,1.27,1.81,1.81,0,0,1-2-1.18A5.74,5.74,0,0,1,48.16,56.05Z"/><path class="a" d="M19.39,49.36a5.26,5.26,0,0,0-.09-1.1,1.77,1.77,0,0,0-1.85-1.42,1.7,1.7,0,0,0-1.9,1.37,5.91,5.91,0,0,0-.05,1.24,4.29,4.29,0,0,0,.07,1.2,1.7,1.7,0,0,0,1.8,1.28,1.87,1.87,0,0,0,1.94-1.29A4.82,4.82,0,0,0,19.39,49.36Z"/><path class="a" d="M27.1,49.36a6.1,6.1,0,0,0-.08-1.1,1.79,1.79,0,0,0-1.86-1.42,1.7,1.7,0,0,0-1.9,1.37,5.91,5.91,0,0,0-.05,1.24,4.7,4.7,0,0,0,.07,1.2,1.71,1.71,0,0,0,1.8,1.28A1.87,1.87,0,0,0,27,50.64,4.82,4.82,0,0,0,27.1,49.36Z"/><path class="a" d="M31,49.36a6.1,6.1,0,0,0-.08-1.1,1.78,1.78,0,0,0-1.85-1.42,1.7,1.7,0,0,0-1.91,1.37,5.36,5.36,0,0,0,0,1.24,4.3,4.3,0,0,0,.06,1.2A1.71,1.71,0,0,0,29,51.93a1.86,1.86,0,0,0,1.94-1.29A4.82,4.82,0,0,0,31,49.36Z"/><path class="a" d="M19.35,49.36a6.1,6.1,0,0,1,.08-1.1,1.79,1.79,0,0,1,1.86-1.42,1.7,1.7,0,0,1,1.9,1.37,5.91,5.91,0,0,1,0,1.24,4.7,4.7,0,0,1-.07,1.2,1.71,1.71,0,0,1-1.8,1.28,1.8,1.8,0,0,1-1.95-1.18A5.74,5.74,0,0,1,19.35,49.36Z"/><path class="a" d="M3.9,49.36a6,6,0,0,0-.09-1.1A1.78,1.78,0,0,0,2,46.84a1.68,1.68,0,0,0-1.9,1.37,5.3,5.3,0,0,0,0,1.24,4.3,4.3,0,0,0,.06,1.2,1.72,1.72,0,0,0,1.81,1.28,1.85,1.85,0,0,0,1.93-1.29A4.8,4.8,0,0,0,3.9,49.36Z"/><path class="a" d="M11.61,49.36a6.1,6.1,0,0,0-.08-1.1,1.79,1.79,0,0,0-1.86-1.42,1.7,1.7,0,0,0-1.9,1.37,5.91,5.91,0,0,0,0,1.24,4.7,4.7,0,0,0,.07,1.2,1.71,1.71,0,0,0,1.8,1.28,1.87,1.87,0,0,0,1.94-1.29A4.82,4.82,0,0,0,11.61,49.36Z"/><path class="a" d="M15.5,49.36a6.1,6.1,0,0,0-.08-1.1,1.79,1.79,0,0,0-1.86-1.42,1.7,1.7,0,0,0-1.9,1.37,5.91,5.91,0,0,0-.05,1.24,4.7,4.7,0,0,0,.07,1.2,1.71,1.71,0,0,0,1.8,1.28,1.87,1.87,0,0,0,1.94-1.29A4.82,4.82,0,0,0,15.5,49.36Z"/><path class="a" d="M3.86,49.36a6.1,6.1,0,0,1,.08-1.1,1.78,1.78,0,0,1,1.85-1.42A1.7,1.7,0,0,1,7.7,48.21a5.91,5.91,0,0,1,0,1.24,4.7,4.7,0,0,1-.07,1.2,1.71,1.71,0,0,1-1.8,1.28,1.82,1.82,0,0,1-2-1.18A5.75,5.75,0,0,1,3.86,49.36Z"/><path class="a" d="M31,49.36a6,6,0,0,1,.09-1.1,1.78,1.78,0,0,1,1.85-1.42,1.7,1.7,0,0,1,1.91,1.37,6,6,0,0,1,0,1.24,4.3,4.3,0,0,1-.06,1.2A1.72,1.72,0,0,1,33,51.93a1.81,1.81,0,0,1-2-1.18A5.74,5.74,0,0,1,31,49.36Z"/><path class="a" d="M53.34,49.36a6,6,0,0,1,.09-1.1,1.77,1.77,0,0,1,1.85-1.42,1.7,1.7,0,0,1,1.9,1.37,5.91,5.91,0,0,1,0,1.24,4.72,4.72,0,0,1-.06,1.2,1.72,1.72,0,0,1-1.81,1.28,1.8,1.8,0,0,1-2-1.18A5.74,5.74,0,0,1,53.34,49.36Z"/><path class="a" d="M19.39,42.67a5.2,5.2,0,0,0-.09-1.1,1.77,1.77,0,0,0-1.85-1.42,1.7,1.7,0,0,0-1.9,1.36,6,6,0,0,0-.05,1.24A4.36,4.36,0,0,0,15.57,44a1.72,1.72,0,0,0,1.8,1.28A1.87,1.87,0,0,0,19.31,44,4.82,4.82,0,0,0,19.39,42.67Z"/><path class="a" d="M27.1,42.67a6,6,0,0,0-.08-1.1,1.79,1.79,0,0,0-1.86-1.42,1.7,1.7,0,0,0-1.9,1.36,6,6,0,0,0-.05,1.24A4.78,4.78,0,0,0,23.28,44a1.73,1.73,0,0,0,1.8,1.28A1.87,1.87,0,0,0,27,44,4.82,4.82,0,0,0,27.1,42.67Z"/><path class="a" d="M31,42.67a6,6,0,0,0-.08-1.1,1.78,1.78,0,0,0-1.85-1.42,1.7,1.7,0,0,0-1.91,1.36,5.41,5.41,0,0,0,0,1.24A4.37,4.37,0,0,0,27.17,44,1.73,1.73,0,0,0,29,45.24,1.86,1.86,0,0,0,30.91,44,4.82,4.82,0,0,0,31,42.67Z"/><path class="a" d="M19.35,42.67a6,6,0,0,1,.08-1.1,1.79,1.79,0,0,1,1.86-1.42,1.7,1.7,0,0,1,1.9,1.36,6,6,0,0,1,0,1.24A4.78,4.78,0,0,1,23.17,44a1.73,1.73,0,0,1-1.8,1.28,1.81,1.81,0,0,1-1.95-1.19A5.63,5.63,0,0,1,19.35,42.67Z"/><path class="a" d="M3.9,42.67a6,6,0,0,0-.09-1.1A1.78,1.78,0,0,0,2,40.15a1.68,1.68,0,0,0-1.9,1.36,5.35,5.35,0,0,0,0,1.24A4.37,4.37,0,0,0,.07,44a1.74,1.74,0,0,0,1.81,1.28A1.85,1.85,0,0,0,3.81,44,4.8,4.8,0,0,0,3.9,42.67Z"/><path class="a" d="M11.61,42.67a6,6,0,0,0-.08-1.1,1.79,1.79,0,0,0-1.86-1.42,1.7,1.7,0,0,0-1.9,1.36,6,6,0,0,0,0,1.24A4.78,4.78,0,0,0,7.79,44a1.73,1.73,0,0,0,1.8,1.28A1.87,1.87,0,0,0,11.53,44,4.82,4.82,0,0,0,11.61,42.67Z"/><path class="a" d="M15.5,42.67a6,6,0,0,0-.08-1.1,1.79,1.79,0,0,0-1.86-1.42,1.7,1.7,0,0,0-1.9,1.36,6,6,0,0,0-.05,1.24A4.78,4.78,0,0,0,11.68,44a1.73,1.73,0,0,0,1.8,1.28A1.87,1.87,0,0,0,15.42,44,4.82,4.82,0,0,0,15.5,42.67Z"/><path class="a" d="M3.86,42.67a6,6,0,0,1,.08-1.1,1.78,1.78,0,0,1,1.85-1.42A1.7,1.7,0,0,1,7.7,41.51a6,6,0,0,1,0,1.24A4.78,4.78,0,0,1,7.68,44a1.73,1.73,0,0,1-1.8,1.28,1.83,1.83,0,0,1-2-1.19A5.65,5.65,0,0,1,3.86,42.67Z"/><path class="a" d="M31,42.67a6,6,0,0,1,.09-1.1A1.77,1.77,0,0,1,33,40.15a1.69,1.69,0,0,1,1.9,1.36,6,6,0,0,1,0,1.24A4.8,4.8,0,0,1,34.85,44,1.74,1.74,0,0,1,33,45.24a1.81,1.81,0,0,1-1.95-1.19A5.63,5.63,0,0,1,31,42.67Z"/><path class="a" d="M56,42.67a6,6,0,0,1,.08-1.1,1.79,1.79,0,0,1,1.86-1.42,1.7,1.7,0,0,1,1.9,1.36,6,6,0,0,1,.05,1.24A4.78,4.78,0,0,1,59.77,44,1.73,1.73,0,0,1,58,45.24a1.83,1.83,0,0,1-2-1.19A5.65,5.65,0,0,1,56,42.67Z"/><path class="a" d="M19.39,29.28a5.11,5.11,0,0,0-.09-1.09,1.77,1.77,0,0,0-1.85-1.42,1.69,1.69,0,0,0-1.9,1.36,5.94,5.94,0,0,0-.05,1.24,4.36,4.36,0,0,0,.07,1.21,1.72,1.72,0,0,0,1.8,1.28,1.88,1.88,0,0,0,1.94-1.29A4.89,4.89,0,0,0,19.39,29.28Z"/><path class="a" d="M27.1,29.28A5.92,5.92,0,0,0,27,28.19a1.79,1.79,0,0,0-1.86-1.42,1.69,1.69,0,0,0-1.9,1.36,5.94,5.94,0,0,0-.05,1.24,4.78,4.78,0,0,0,.07,1.21,1.73,1.73,0,0,0,1.8,1.28A1.88,1.88,0,0,0,27,30.57,4.89,4.89,0,0,0,27.1,29.28Z"/><path class="a" d="M31,29.28a5.92,5.92,0,0,0-.08-1.09,1.78,1.78,0,0,0-1.85-1.42,1.69,1.69,0,0,0-1.91,1.36,5.39,5.39,0,0,0,0,1.24,4.37,4.37,0,0,0,.06,1.21A1.73,1.73,0,0,0,29,31.86a1.87,1.87,0,0,0,1.94-1.29A4.89,4.89,0,0,0,31,29.28Z"/><path class="a" d="M19.35,29.28a5.92,5.92,0,0,1,.08-1.09,1.79,1.79,0,0,1,1.86-1.42,1.69,1.69,0,0,1,1.9,1.36,5.94,5.94,0,0,1,0,1.24,4.78,4.78,0,0,1-.07,1.21,1.73,1.73,0,0,1-1.8,1.28,1.82,1.82,0,0,1-1.95-1.19A5.68,5.68,0,0,1,19.35,29.28Z"/><path class="a" d="M3.9,29.28a5.85,5.85,0,0,0-.09-1.09A1.78,1.78,0,0,0,2,26.77a1.68,1.68,0,0,0-1.9,1.36,5.33,5.33,0,0,0,0,1.24,4.37,4.37,0,0,0,.06,1.21,1.74,1.74,0,0,0,1.81,1.28,1.86,1.86,0,0,0,1.93-1.29A4.88,4.88,0,0,0,3.9,29.28Z"/><path class="a" d="M11.61,29.28a5.92,5.92,0,0,0-.08-1.09,1.79,1.79,0,0,0-1.86-1.42,1.69,1.69,0,0,0-1.9,1.36,5.94,5.94,0,0,0,0,1.24,4.78,4.78,0,0,0,.07,1.21,1.73,1.73,0,0,0,1.8,1.28,1.88,1.88,0,0,0,1.94-1.29A4.89,4.89,0,0,0,11.61,29.28Z"/><path class="a" d="M15.5,29.28a5.92,5.92,0,0,0-.08-1.09,1.79,1.79,0,0,0-1.86-1.42,1.69,1.69,0,0,0-1.9,1.36,5.94,5.94,0,0,0-.05,1.24,4.78,4.78,0,0,0,.07,1.21,1.73,1.73,0,0,0,1.8,1.28,1.88,1.88,0,0,0,1.94-1.29A4.89,4.89,0,0,0,15.5,29.28Z"/><path class="a" d="M3.86,29.28a5.92,5.92,0,0,1,.08-1.09,1.78,1.78,0,0,1,1.85-1.42A1.69,1.69,0,0,1,7.7,28.13a5.94,5.94,0,0,1,0,1.24,4.78,4.78,0,0,1-.07,1.21,1.73,1.73,0,0,1-1.8,1.28,1.84,1.84,0,0,1-2-1.19A5.7,5.7,0,0,1,3.86,29.28Z"/><path class="a" d="M31,29.28a5.85,5.85,0,0,1,.09-1.09A1.77,1.77,0,0,1,33,26.77a1.68,1.68,0,0,1,1.9,1.36,5.94,5.94,0,0,1,0,1.24,4.8,4.8,0,0,1-.06,1.21A1.74,1.74,0,0,1,33,31.86a1.82,1.82,0,0,1-1.95-1.19A5.68,5.68,0,0,1,31,29.28Z"/><path class="a" d="M57.36,29.28a5.85,5.85,0,0,1,.09-1.09,1.77,1.77,0,0,1,1.85-1.42,1.69,1.69,0,0,1,1.9,1.36,5.94,5.94,0,0,1,0,1.24,4.8,4.8,0,0,1-.06,1.21,1.74,1.74,0,0,1-1.81,1.28,1.82,1.82,0,0,1-2-1.19A5.68,5.68,0,0,1,57.36,29.28Z"/><path class="a" d="M31.17,62.74a5.11,5.11,0,0,0-.09-1.09,1.77,1.77,0,0,0-1.85-1.42,1.69,1.69,0,0,0-1.9,1.36,5.94,5.94,0,0,0,0,1.24A4.36,4.36,0,0,0,27.35,64a1.72,1.72,0,0,0,1.8,1.28A1.88,1.88,0,0,0,31.09,64,4.89,4.89,0,0,0,31.17,62.74Z"/><path class="a" d="M38.88,62.74a5.92,5.92,0,0,0-.08-1.09,1.79,1.79,0,0,0-1.86-1.42A1.69,1.69,0,0,0,35,61.59a5.94,5.94,0,0,0,0,1.24A4.78,4.78,0,0,0,35.06,64a1.73,1.73,0,0,0,1.8,1.28A1.88,1.88,0,0,0,38.8,64,4.89,4.89,0,0,0,38.88,62.74Z"/><path class="a" d="M42.77,62.74a5.92,5.92,0,0,0-.08-1.09,1.78,1.78,0,0,0-1.85-1.42,1.69,1.69,0,0,0-1.91,1.36,5.39,5.39,0,0,0,0,1.24A4.37,4.37,0,0,0,39,64a1.73,1.73,0,0,0,1.8,1.28A1.87,1.87,0,0,0,42.69,64,4.89,4.89,0,0,0,42.77,62.74Z"/><path class="a" d="M31.13,62.74a5.92,5.92,0,0,1,.08-1.09,1.79,1.79,0,0,1,1.86-1.42A1.69,1.69,0,0,1,35,61.59,5.94,5.94,0,0,1,35,62.83,4.78,4.78,0,0,1,35,64a1.73,1.73,0,0,1-1.8,1.28,1.82,1.82,0,0,1-1.95-1.19A5.68,5.68,0,0,1,31.13,62.74Z"/><path class="a" d="M15.68,62.74a5.85,5.85,0,0,0-.09-1.09,1.78,1.78,0,0,0-1.85-1.42,1.68,1.68,0,0,0-1.9,1.36,5.33,5.33,0,0,0-.05,1.24A4.37,4.37,0,0,0,11.85,64a1.74,1.74,0,0,0,1.81,1.28A1.86,1.86,0,0,0,15.59,64,4.88,4.88,0,0,0,15.68,62.74Z"/><path class="a" d="M23.39,62.74a5.92,5.92,0,0,0-.08-1.09,1.79,1.79,0,0,0-1.86-1.42,1.69,1.69,0,0,0-1.9,1.36,5.94,5.94,0,0,0-.05,1.24A4.78,4.78,0,0,0,19.57,64a1.73,1.73,0,0,0,1.8,1.28A1.88,1.88,0,0,0,23.31,64,4.89,4.89,0,0,0,23.39,62.74Z"/><path class="a" d="M27.28,62.74a5.92,5.92,0,0,0-.08-1.09,1.79,1.79,0,0,0-1.86-1.42,1.69,1.69,0,0,0-1.9,1.36,5.94,5.94,0,0,0-.05,1.24A4.78,4.78,0,0,0,23.46,64a1.73,1.73,0,0,0,1.8,1.28A1.88,1.88,0,0,0,27.2,64,4.89,4.89,0,0,0,27.28,62.74Z"/><path class="a" d="M15.64,62.74a5.92,5.92,0,0,1,.08-1.09,1.78,1.78,0,0,1,1.85-1.42,1.69,1.69,0,0,1,1.91,1.36,5.94,5.94,0,0,1,.05,1.24A4.78,4.78,0,0,1,19.46,64a1.73,1.73,0,0,1-1.8,1.28,1.84,1.84,0,0,1-2-1.19A5.7,5.7,0,0,1,15.64,62.74Z"/><path class="a" d="M42.8,62.74a5.85,5.85,0,0,1,.09-1.09,1.77,1.77,0,0,1,1.85-1.42,1.68,1.68,0,0,1,1.9,1.36,5.94,5.94,0,0,1,0,1.24A4.8,4.8,0,0,1,46.63,64a1.74,1.74,0,0,1-1.81,1.28,1.82,1.82,0,0,1-2-1.19A5.68,5.68,0,0,1,42.8,62.74Z"/><path class="a" d="M0,62.74a5.92,5.92,0,0,1,.08-1.09A1.79,1.79,0,0,1,2,60.23a1.69,1.69,0,0,1,1.9,1.36,5.94,5.94,0,0,1,0,1.24A4.78,4.78,0,0,1,3.83,64,1.73,1.73,0,0,1,2,65.32,1.82,1.82,0,0,1,.08,64.13,5.68,5.68,0,0,1,0,62.74Z"/><path class="a" d="M19.39,22.59a5.11,5.11,0,0,0-.09-1.09,1.77,1.77,0,0,0-1.85-1.42,1.69,1.69,0,0,0-1.9,1.36,5.91,5.91,0,0,0-.05,1.24,4.36,4.36,0,0,0,.07,1.21,1.72,1.72,0,0,0,1.8,1.28,1.89,1.89,0,0,0,1.94-1.3A4.82,4.82,0,0,0,19.39,22.59Z"/><path class="a" d="M27.1,22.59A5.92,5.92,0,0,0,27,21.5a1.79,1.79,0,0,0-1.86-1.42,1.69,1.69,0,0,0-1.9,1.36,5.91,5.91,0,0,0-.05,1.24,4.78,4.78,0,0,0,.07,1.21,1.73,1.73,0,0,0,1.8,1.28A1.88,1.88,0,0,0,27,23.87,4.82,4.82,0,0,0,27.1,22.59Z"/><path class="a" d="M31,22.59a5.92,5.92,0,0,0-.08-1.09,1.78,1.78,0,0,0-1.85-1.42,1.69,1.69,0,0,0-1.91,1.36,5.36,5.36,0,0,0,0,1.24,4.37,4.37,0,0,0,.06,1.21A1.73,1.73,0,0,0,29,25.17a1.88,1.88,0,0,0,1.94-1.3A4.82,4.82,0,0,0,31,22.59Z"/><path class="a" d="M19.35,22.59a5.92,5.92,0,0,1,.08-1.09,1.79,1.79,0,0,1,1.86-1.42,1.69,1.69,0,0,1,1.9,1.36,5.91,5.91,0,0,1,0,1.24,4.78,4.78,0,0,1-.07,1.21,1.73,1.73,0,0,1-1.8,1.28A1.82,1.82,0,0,1,19.42,24,5.71,5.71,0,0,1,19.35,22.59Z"/><path class="a" d="M3.9,22.59a5.85,5.85,0,0,0-.09-1.09A1.78,1.78,0,0,0,2,20.08a1.68,1.68,0,0,0-1.9,1.36,5.3,5.3,0,0,0,0,1.24,4.37,4.37,0,0,0,.06,1.21,1.74,1.74,0,0,0,1.81,1.28,1.87,1.87,0,0,0,1.93-1.3A4.8,4.8,0,0,0,3.9,22.59Z"/><path class="a" d="M11.61,22.59a5.92,5.92,0,0,0-.08-1.09,1.79,1.79,0,0,0-1.86-1.42,1.69,1.69,0,0,0-1.9,1.36,5.91,5.91,0,0,0,0,1.24,4.78,4.78,0,0,0,.07,1.21,1.73,1.73,0,0,0,1.8,1.28,1.89,1.89,0,0,0,1.94-1.3A4.82,4.82,0,0,0,11.61,22.59Z"/><path class="a" d="M15.5,22.59a5.92,5.92,0,0,0-.08-1.09,1.79,1.79,0,0,0-1.86-1.42,1.69,1.69,0,0,0-1.9,1.36,5.91,5.91,0,0,0-.05,1.24,4.78,4.78,0,0,0,.07,1.21,1.73,1.73,0,0,0,1.8,1.28,1.89,1.89,0,0,0,1.94-1.3A4.82,4.82,0,0,0,15.5,22.59Z"/><path class="a" d="M3.86,22.59a5.92,5.92,0,0,1,.08-1.09,1.78,1.78,0,0,1,1.85-1.42A1.69,1.69,0,0,1,7.7,21.44a5.91,5.91,0,0,1,0,1.24,4.78,4.78,0,0,1-.07,1.21,1.73,1.73,0,0,1-1.8,1.28,1.84,1.84,0,0,1-2-1.19A5.73,5.73,0,0,1,3.86,22.59Z"/><path class="a" d="M31,22.59a5.85,5.85,0,0,1,.09-1.09A1.77,1.77,0,0,1,33,20.08a1.68,1.68,0,0,1,1.9,1.36,5.91,5.91,0,0,1,0,1.24,4.8,4.8,0,0,1-.06,1.21A1.74,1.74,0,0,1,33,25.17,1.82,1.82,0,0,1,31.09,24,5.71,5.71,0,0,1,31,22.59Z"/><path class="a" d="M56.51,22.59a5.85,5.85,0,0,1,.09-1.09,1.78,1.78,0,0,1,1.85-1.42,1.68,1.68,0,0,1,1.9,1.36,5.3,5.3,0,0,1,0,1.24,4.37,4.37,0,0,1-.06,1.21,1.74,1.74,0,0,1-1.81,1.28,1.82,1.82,0,0,1-2-1.19A5.71,5.71,0,0,1,56.51,22.59Z"/><path class="a" d="M19.39,15.9a5.11,5.11,0,0,0-.09-1.09,1.77,1.77,0,0,0-1.85-1.43,1.7,1.7,0,0,0-1.9,1.37A5.91,5.91,0,0,0,15.5,16a4.29,4.29,0,0,0,.07,1.2,1.7,1.7,0,0,0,1.8,1.28,1.87,1.87,0,0,0,1.94-1.29A4.82,4.82,0,0,0,19.39,15.9Z"/><path class="a" d="M27.1,15.9A5.92,5.92,0,0,0,27,14.81a1.78,1.78,0,0,0-1.86-1.43,1.7,1.7,0,0,0-1.9,1.37A5.91,5.91,0,0,0,23.21,16a4.7,4.7,0,0,0,.07,1.2,1.71,1.71,0,0,0,1.8,1.28A1.87,1.87,0,0,0,27,17.18,4.82,4.82,0,0,0,27.1,15.9Z"/><path class="a" d="M31,15.9a5.92,5.92,0,0,0-.08-1.09,1.78,1.78,0,0,0-1.85-1.43,1.7,1.7,0,0,0-1.91,1.37,5.36,5.36,0,0,0,0,1.24,4.3,4.3,0,0,0,.06,1.2A1.71,1.71,0,0,0,29,18.47a1.86,1.86,0,0,0,1.94-1.29A4.82,4.82,0,0,0,31,15.9Z"/><path class="a" d="M19.35,15.9a5.92,5.92,0,0,1,.08-1.09,1.78,1.78,0,0,1,1.86-1.43,1.7,1.7,0,0,1,1.9,1.37,5.91,5.91,0,0,1,0,1.24,4.7,4.7,0,0,1-.07,1.2,1.71,1.71,0,0,1-1.8,1.28,1.8,1.8,0,0,1-1.95-1.18A5.74,5.74,0,0,1,19.35,15.9Z"/><path class="a" d="M3.9,15.9a5.85,5.85,0,0,0-.09-1.09A1.77,1.77,0,0,0,2,13.38a1.68,1.68,0,0,0-1.9,1.37A5.3,5.3,0,0,0,0,16a4.3,4.3,0,0,0,.06,1.2,1.72,1.72,0,0,0,1.81,1.28,1.85,1.85,0,0,0,1.93-1.29A4.8,4.8,0,0,0,3.9,15.9Z"/><path class="a" d="M11.61,15.9a5.92,5.92,0,0,0-.08-1.09,1.78,1.78,0,0,0-1.86-1.43,1.7,1.7,0,0,0-1.9,1.37,5.91,5.91,0,0,0,0,1.24,4.7,4.7,0,0,0,.07,1.2,1.71,1.71,0,0,0,1.8,1.28,1.87,1.87,0,0,0,1.94-1.29A4.82,4.82,0,0,0,11.61,15.9Z"/><path class="a" d="M15.5,15.9a5.92,5.92,0,0,0-.08-1.09,1.78,1.78,0,0,0-1.86-1.43,1.7,1.7,0,0,0-1.9,1.37A5.91,5.91,0,0,0,11.61,16a4.7,4.7,0,0,0,.07,1.2,1.71,1.71,0,0,0,1.8,1.28,1.87,1.87,0,0,0,1.94-1.29A4.82,4.82,0,0,0,15.5,15.9Z"/><path class="a" d="M3.86,15.9a5.92,5.92,0,0,1,.08-1.09,1.78,1.78,0,0,1,1.85-1.43A1.7,1.7,0,0,1,7.7,14.75a5.91,5.91,0,0,1,0,1.24,4.7,4.7,0,0,1-.07,1.2,1.71,1.71,0,0,1-1.8,1.28,1.82,1.82,0,0,1-2-1.18A5.75,5.75,0,0,1,3.86,15.9Z"/><path class="a" d="M31,15.9a5.85,5.85,0,0,1,.09-1.09A1.77,1.77,0,0,1,33,13.38a1.69,1.69,0,0,1,1.9,1.37,5.91,5.91,0,0,1,0,1.24,4.72,4.72,0,0,1-.06,1.2A1.72,1.72,0,0,1,33,18.47a1.8,1.8,0,0,1-1.95-1.18A5.74,5.74,0,0,1,31,15.9Z"/><path class="a" d="M53.26,15.9a5.92,5.92,0,0,1,.08-1.09,1.78,1.78,0,0,1,1.86-1.43,1.7,1.7,0,0,1,1.9,1.37,5.91,5.91,0,0,1,0,1.24,4.7,4.7,0,0,1-.07,1.2,1.71,1.71,0,0,1-1.8,1.28,1.8,1.8,0,0,1-2-1.18A5.74,5.74,0,0,1,53.26,15.9Z"/><path class="a" d="M19.39,9.21a5.26,5.26,0,0,0-.09-1.1,1.77,1.77,0,0,0-1.85-1.42,1.7,1.7,0,0,0-1.9,1.36A6,6,0,0,0,15.5,9.3a4.31,4.31,0,0,0,.07,1.2,1.71,1.71,0,0,0,1.8,1.28,1.87,1.87,0,0,0,1.94-1.29A4.82,4.82,0,0,0,19.39,9.21Z"/><path class="a" d="M27.1,9.21A6.1,6.1,0,0,0,27,8.11a1.79,1.79,0,0,0-1.86-1.42,1.7,1.7,0,0,0-1.9,1.36,6,6,0,0,0-.05,1.25,4.73,4.73,0,0,0,.07,1.2,1.72,1.72,0,0,0,1.8,1.28A1.87,1.87,0,0,0,27,10.49,4.82,4.82,0,0,0,27.1,9.21Z"/><path class="a" d="M31,9.21a6.1,6.1,0,0,0-.08-1.1,1.78,1.78,0,0,0-1.85-1.42,1.7,1.7,0,0,0-1.91,1.36,5.48,5.48,0,0,0,0,1.25,4.32,4.32,0,0,0,.06,1.2A1.72,1.72,0,0,0,29,11.78a1.86,1.86,0,0,0,1.94-1.29A4.82,4.82,0,0,0,31,9.21Z"/><path class="a" d="M19.35,9.21a6.1,6.1,0,0,1,.08-1.1,1.79,1.79,0,0,1,1.86-1.42,1.7,1.7,0,0,1,1.9,1.36,6,6,0,0,1,0,1.25,4.73,4.73,0,0,1-.07,1.2,1.72,1.72,0,0,1-1.8,1.28,1.81,1.81,0,0,1-1.95-1.19A5.63,5.63,0,0,1,19.35,9.21Z"/><path class="a" d="M3.9,9.21a6,6,0,0,0-.09-1.1A1.78,1.78,0,0,0,2,6.69,1.68,1.68,0,0,0,.06,8.05,5.41,5.41,0,0,0,0,9.3a4.32,4.32,0,0,0,.06,1.2,1.73,1.73,0,0,0,1.81,1.28,1.85,1.85,0,0,0,1.93-1.29A4.8,4.8,0,0,0,3.9,9.21Z"/><path class="a" d="M11.61,9.21a6.1,6.1,0,0,0-.08-1.1A1.79,1.79,0,0,0,9.67,6.69a1.7,1.7,0,0,0-1.9,1.36,6,6,0,0,0,0,1.25,4.73,4.73,0,0,0,.07,1.2,1.72,1.72,0,0,0,1.8,1.28,1.87,1.87,0,0,0,1.94-1.29A4.82,4.82,0,0,0,11.61,9.21Z"/><path class="a" d="M15.5,9.21a6.1,6.1,0,0,0-.08-1.1,1.79,1.79,0,0,0-1.86-1.42,1.7,1.7,0,0,0-1.9,1.36,6,6,0,0,0-.05,1.25,4.73,4.73,0,0,0,.07,1.2,1.72,1.72,0,0,0,1.8,1.28,1.87,1.87,0,0,0,1.94-1.29A4.82,4.82,0,0,0,15.5,9.21Z"/><path class="a" d="M3.86,9.21a6.1,6.1,0,0,1,.08-1.1A1.78,1.78,0,0,1,5.79,6.69,1.7,1.7,0,0,1,7.7,8.05a6,6,0,0,1,0,1.25,4.73,4.73,0,0,1-.07,1.2,1.72,1.72,0,0,1-1.8,1.28,1.83,1.83,0,0,1-2-1.19A5.65,5.65,0,0,1,3.86,9.21Z"/><path class="a" d="M31,9.21a6,6,0,0,1,.09-1.1A1.77,1.77,0,0,1,33,6.69a1.69,1.69,0,0,1,1.9,1.36,6,6,0,0,1,0,1.25,4.74,4.74,0,0,1-.06,1.2A1.73,1.73,0,0,1,33,11.78a1.81,1.81,0,0,1-1.95-1.19A5.63,5.63,0,0,1,31,9.21Z"/><path class="a" d="M49,9.21A6.1,6.1,0,0,1,49,8.11a1.78,1.78,0,0,1,1.85-1.42A1.7,1.7,0,0,1,52.8,8.05a6.12,6.12,0,0,1,0,1.25,4.32,4.32,0,0,1-.06,1.2A1.72,1.72,0,0,1,51,11.78,1.81,1.81,0,0,1,49,10.59,5.65,5.65,0,0,1,49,9.21Z"/><path class="a" d="M31.17,2.52a5.2,5.2,0,0,0-.09-1.1A1.77,1.77,0,0,0,29.23,0a1.7,1.7,0,0,0-1.9,1.36,6,6,0,0,0,0,1.24,4.36,4.36,0,0,0,.07,1.21,1.72,1.72,0,0,0,1.8,1.28A1.87,1.87,0,0,0,31.09,3.8,4.82,4.82,0,0,0,31.17,2.52Z"/><path class="a" d="M38.88,2.52a6,6,0,0,0-.08-1.1A1.79,1.79,0,0,0,36.94,0,1.7,1.7,0,0,0,35,1.36,6,6,0,0,0,35,2.6a4.78,4.78,0,0,0,.07,1.21,1.73,1.73,0,0,0,1.8,1.28A1.87,1.87,0,0,0,38.8,3.8,4.82,4.82,0,0,0,38.88,2.52Z"/><path class="a" d="M42.77,2.52a6,6,0,0,0-.08-1.1A1.78,1.78,0,0,0,40.84,0a1.7,1.7,0,0,0-1.91,1.36,5.41,5.41,0,0,0,0,1.24A4.37,4.37,0,0,0,39,3.81a1.73,1.73,0,0,0,1.8,1.28A1.86,1.86,0,0,0,42.69,3.8,4.82,4.82,0,0,0,42.77,2.52Z"/><path class="a" d="M31.13,2.52a6,6,0,0,1,.08-1.1A1.79,1.79,0,0,1,33.07,0,1.7,1.7,0,0,1,35,1.36,6,6,0,0,1,35,2.6,4.78,4.78,0,0,1,35,3.81a1.73,1.73,0,0,1-1.8,1.28A1.81,1.81,0,0,1,31.2,3.9,5.63,5.63,0,0,1,31.13,2.52Z"/><path class="a" d="M15.68,2.52a6,6,0,0,0-.09-1.1A1.78,1.78,0,0,0,13.74,0a1.68,1.68,0,0,0-1.9,1.36,5.35,5.35,0,0,0-.05,1.24,4.37,4.37,0,0,0,.06,1.21,1.74,1.74,0,0,0,1.81,1.28A1.85,1.85,0,0,0,15.59,3.8,4.8,4.8,0,0,0,15.68,2.52Z"/><path class="a" d="M23.39,2.52a6,6,0,0,0-.08-1.1A1.79,1.79,0,0,0,21.45,0a1.7,1.7,0,0,0-1.9,1.36A6,6,0,0,0,19.5,2.6a4.78,4.78,0,0,0,.07,1.21,1.73,1.73,0,0,0,1.8,1.28A1.87,1.87,0,0,0,23.31,3.8,4.82,4.82,0,0,0,23.39,2.52Z"/><path class="a" d="M27.28,2.52a6,6,0,0,0-.08-1.1A1.79,1.79,0,0,0,25.34,0a1.7,1.7,0,0,0-1.9,1.36,6,6,0,0,0-.05,1.24,4.78,4.78,0,0,0,.07,1.21,1.73,1.73,0,0,0,1.8,1.28A1.87,1.87,0,0,0,27.2,3.8,4.82,4.82,0,0,0,27.28,2.52Z"/><path class="a" d="M15.64,2.52a6,6,0,0,1,.08-1.1A1.78,1.78,0,0,1,17.57,0a1.7,1.7,0,0,1,1.91,1.36,6,6,0,0,1,.05,1.24,4.78,4.78,0,0,1-.07,1.21,1.73,1.73,0,0,1-1.8,1.28,1.83,1.83,0,0,1-2-1.19A5.65,5.65,0,0,1,15.64,2.52Z"/><path class="a" d="M42.8,2.52a6,6,0,0,1,.09-1.1A1.77,1.77,0,0,1,44.74,0a1.69,1.69,0,0,1,1.9,1.36,6,6,0,0,1,0,1.24,4.8,4.8,0,0,1-.06,1.21,1.74,1.74,0,0,1-1.81,1.28,1.81,1.81,0,0,1-2-1.19A5.63,5.63,0,0,1,42.8,2.52Z"/><path class="a" d="M0,2.52a6,6,0,0,1,.08-1.1A1.79,1.79,0,0,1,2,0a1.7,1.7,0,0,1,1.9,1.36,6,6,0,0,1,0,1.24,4.78,4.78,0,0,1-.07,1.21A1.73,1.73,0,0,1,2,5.09,1.81,1.81,0,0,1,.08,3.9,5.63,5.63,0,0,1,0,2.52Z"/></svg>