<svg xmlns="http://www.w3.org/2000/svg" width="60.13" height="65.32" viewBox="0 0 60.13 65.32"><defs><style>.a{fill:#21364f;}</style></defs><title>Asset 133</title><path class="a" d="M25.69,49.38a5.92,5.92,0,0,1-.08,1.09,1.77,1.77,0,0,1-1.85,1.43,1.7,1.7,0,0,1-1.91-1.37,6,6,0,0,1,0-1.24,4.39,4.39,0,0,1,.06-1.21,1.71,1.71,0,0,1,1.81-1.27,1.85,1.85,0,0,1,1.93,1.29A4.82,4.82,0,0,1,25.69,49.38Z"/><path class="a" d="M33.41,49.38a5.11,5.11,0,0,1-.09,1.09,1.77,1.77,0,0,1-1.85,1.43,1.7,1.7,0,0,1-1.9-1.37,5.91,5.91,0,0,1-.05-1.24,4.39,4.39,0,0,1,.07-1.21,1.7,1.7,0,0,1,1.8-1.27,1.87,1.87,0,0,1,1.94,1.29A4.82,4.82,0,0,1,33.41,49.38Z"/><path class="a" d="M37.3,49.38a5.92,5.92,0,0,1-.08,1.09,1.78,1.78,0,0,1-1.86,1.43,1.7,1.7,0,0,1-1.9-1.37,5.91,5.91,0,0,1-.05-1.24,4.81,4.81,0,0,1,.07-1.21,1.71,1.71,0,0,1,1.8-1.27,1.87,1.87,0,0,1,1.94,1.29A4.82,4.82,0,0,1,37.3,49.38Z"/><path class="a" d="M25.66,49.41a5.92,5.92,0,0,0,.08,1.09,1.78,1.78,0,0,0,1.85,1.42,1.69,1.69,0,0,0,1.91-1.36,6,6,0,0,0,0-1.24,4.37,4.37,0,0,0-.06-1.21,1.73,1.73,0,0,0-1.81-1.28,1.83,1.83,0,0,0-2,1.19A5.7,5.7,0,0,0,25.66,49.41Z"/><path class="a" d="M10.2,49.38a5.92,5.92,0,0,1-.08,1.09A1.78,1.78,0,0,1,8.26,51.9a1.7,1.7,0,0,1-1.9-1.37,5.91,5.91,0,0,1-.05-1.24,4.81,4.81,0,0,1,.07-1.21,1.71,1.71,0,0,1,1.8-1.27,1.87,1.87,0,0,1,1.94,1.29A4.82,4.82,0,0,1,10.2,49.38Z"/><path class="a" d="M17.92,49.38a5.85,5.85,0,0,1-.09,1.09A1.77,1.77,0,0,1,16,51.9a1.68,1.68,0,0,1-1.9-1.37A5.3,5.3,0,0,1,14,49.29a4.39,4.39,0,0,1,.06-1.21,1.72,1.72,0,0,1,1.81-1.27,1.85,1.85,0,0,1,1.93,1.29A4.8,4.8,0,0,1,17.92,49.38Z"/><path class="a" d="M21.81,49.38a5.85,5.85,0,0,1-.09,1.09,1.77,1.77,0,0,1-1.85,1.43A1.7,1.7,0,0,1,18,50.53a5.91,5.91,0,0,1,0-1.24A4.82,4.82,0,0,1,18,48.08a1.72,1.72,0,0,1,1.81-1.27,1.87,1.87,0,0,1,1.94,1.29A4.82,4.82,0,0,1,21.81,49.38Z"/><path class="a" d="M10.16,49.41a5.85,5.85,0,0,0,.09,1.09,1.78,1.78,0,0,0,1.85,1.42A1.68,1.68,0,0,0,14,50.56a5.3,5.3,0,0,0,.05-1.24A4.37,4.37,0,0,0,14,48.11a1.74,1.74,0,0,0-1.81-1.28A1.82,1.82,0,0,0,10.23,48,5.68,5.68,0,0,0,10.16,49.41Z"/><path class="a" d="M37.33,49.41a5.92,5.92,0,0,0,.08,1.09,1.79,1.79,0,0,0,1.86,1.42,1.69,1.69,0,0,0,1.9-1.36,5.91,5.91,0,0,0,0-1.24,4.78,4.78,0,0,0-.07-1.21,1.73,1.73,0,0,0-1.8-1.28,1.82,1.82,0,0,0-2,1.19A5.68,5.68,0,0,0,37.33,49.41Z"/><path class="a" d="M56.24,49.39a6,6,0,0,0,.08,1.1,1.79,1.79,0,0,0,1.86,1.42,1.7,1.7,0,0,0,1.9-1.36,6,6,0,0,0,.05-1.24,4.78,4.78,0,0,0-.07-1.21,1.73,1.73,0,0,0-1.8-1.28A1.81,1.81,0,0,0,56.31,48,5.63,5.63,0,0,0,56.24,49.39Z"/><path class="a" d="M25.69,16a5.92,5.92,0,0,1-.08,1.09,1.78,1.78,0,0,1-1.85,1.42,1.69,1.69,0,0,1-1.91-1.36,6,6,0,0,1,0-1.24,4.37,4.37,0,0,1,.06-1.21,1.73,1.73,0,0,1,1.81-1.28,1.86,1.86,0,0,1,1.93,1.29A4.89,4.89,0,0,1,25.69,16Z"/><path class="a" d="M33.41,16a5.11,5.11,0,0,1-.09,1.09,1.77,1.77,0,0,1-1.85,1.42,1.69,1.69,0,0,1-1.9-1.36,5.94,5.94,0,0,1-.05-1.24,4.36,4.36,0,0,1,.07-1.21,1.72,1.72,0,0,1,1.8-1.28,1.88,1.88,0,0,1,1.94,1.29A4.89,4.89,0,0,1,33.41,16Z"/><path class="a" d="M37.3,16a5.92,5.92,0,0,1-.08,1.09,1.79,1.79,0,0,1-1.86,1.42,1.69,1.69,0,0,1-1.9-1.36,5.94,5.94,0,0,1-.05-1.24,4.78,4.78,0,0,1,.07-1.21,1.73,1.73,0,0,1,1.8-1.28,1.88,1.88,0,0,1,1.94,1.29A4.89,4.89,0,0,1,37.3,16Z"/><path class="a" d="M25.66,16a6,6,0,0,0,.08,1.1,1.78,1.78,0,0,0,1.85,1.42,1.7,1.7,0,0,0,1.91-1.36,6,6,0,0,0,0-1.24,4.37,4.37,0,0,0-.06-1.21,1.73,1.73,0,0,0-1.81-1.28,1.81,1.81,0,0,0-2,1.19A5.65,5.65,0,0,0,25.66,16Z"/><path class="a" d="M10.2,16a5.92,5.92,0,0,1-.08,1.09,1.79,1.79,0,0,1-1.86,1.42,1.69,1.69,0,0,1-1.9-1.36,5.94,5.94,0,0,1-.05-1.24,4.78,4.78,0,0,1,.07-1.21,1.73,1.73,0,0,1,1.8-1.28,1.88,1.88,0,0,1,1.94,1.29A4.89,4.89,0,0,1,10.2,16Z"/><path class="a" d="M17.92,16a5.85,5.85,0,0,1-.09,1.09A1.78,1.78,0,0,1,16,18.48a1.68,1.68,0,0,1-1.9-1.36A5.33,5.33,0,0,1,14,15.88a4.37,4.37,0,0,1,.06-1.21,1.74,1.74,0,0,1,1.81-1.28,1.86,1.86,0,0,1,1.93,1.29A4.88,4.88,0,0,1,17.92,16Z"/><path class="a" d="M21.81,16a5.85,5.85,0,0,1-.09,1.09,1.77,1.77,0,0,1-1.85,1.42A1.69,1.69,0,0,1,18,17.12a5.94,5.94,0,0,1,0-1.24A4.8,4.8,0,0,1,18,14.67a1.74,1.74,0,0,1,1.81-1.28,1.88,1.88,0,0,1,1.94,1.29A4.89,4.89,0,0,1,21.81,16Z"/><path class="a" d="M10.16,16a6,6,0,0,0,.09,1.1,1.78,1.78,0,0,0,1.85,1.42A1.68,1.68,0,0,0,14,17.15a5.35,5.35,0,0,0,.05-1.24A4.37,4.37,0,0,0,14,14.7a1.74,1.74,0,0,0-1.81-1.28,1.81,1.81,0,0,0-1.95,1.19A5.63,5.63,0,0,0,10.16,16Z"/><path class="a" d="M37.33,16a6,6,0,0,0,.08,1.1,1.79,1.79,0,0,0,1.86,1.42,1.7,1.7,0,0,0,1.9-1.36,6,6,0,0,0,0-1.24,4.78,4.78,0,0,0-.07-1.21,1.73,1.73,0,0,0-1.8-1.28,1.81,1.81,0,0,0-2,1.19A5.63,5.63,0,0,0,37.33,16Z"/><path class="a" d="M56.24,16a5.92,5.92,0,0,0,.08,1.09,1.78,1.78,0,0,0,1.86,1.43,1.7,1.7,0,0,0,1.9-1.37,5.91,5.91,0,0,0,.05-1.24,4.7,4.7,0,0,0-.07-1.2,1.71,1.71,0,0,0-1.8-1.28,1.8,1.8,0,0,0-1.95,1.18A5.74,5.74,0,0,0,56.24,16Z"/><path class="a" d="M29.3,9.36a6,6,0,0,1-.09,1.1,1.77,1.77,0,0,1-1.85,1.42,1.7,1.7,0,0,1-1.9-1.36,6,6,0,0,1-.05-1.25,4.72,4.72,0,0,1,.06-1.2,1.73,1.73,0,0,1,1.81-1.28,1.87,1.87,0,0,1,1.94,1.29A4.82,4.82,0,0,1,29.3,9.36Z"/><path class="a" d="M37,9.36a6.1,6.1,0,0,1-.08,1.1,1.79,1.79,0,0,1-1.86,1.42,1.7,1.7,0,0,1-1.9-1.36,6,6,0,0,1-.05-1.25,4.7,4.7,0,0,1,.07-1.2A1.72,1.72,0,0,1,35,6.79a1.87,1.87,0,0,1,1.94,1.29A4.82,4.82,0,0,1,37,9.36Z"/><path class="a" d="M40.9,9.36a6.1,6.1,0,0,1-.08,1.1A1.78,1.78,0,0,1,39,11.88a1.7,1.7,0,0,1-1.91-1.36A6,6,0,0,1,37,9.27a4.7,4.7,0,0,1,.07-1.2,1.72,1.72,0,0,1,1.8-1.28,1.87,1.87,0,0,1,1.94,1.29A4.82,4.82,0,0,1,40.9,9.36Z"/><path class="a" d="M29.26,9.39a5.92,5.92,0,0,0,.08,1.09,1.79,1.79,0,0,0,1.86,1.43,1.7,1.7,0,0,0,1.9-1.37,5.91,5.91,0,0,0,0-1.24,4.81,4.81,0,0,0-.07-1.21,1.71,1.71,0,0,0-1.8-1.27,1.8,1.8,0,0,0-2,1.18A5.74,5.74,0,0,0,29.26,9.39Z"/><path class="a" d="M13.81,9.36a6,6,0,0,1-.09,1.1,1.78,1.78,0,0,1-1.85,1.42A1.68,1.68,0,0,1,10,10.52a5.41,5.41,0,0,1-.05-1.25A4.3,4.3,0,0,1,10,8.07a1.73,1.73,0,0,1,1.81-1.28,1.85,1.85,0,0,1,1.93,1.29A4.8,4.8,0,0,1,13.81,9.36Z"/><path class="a" d="M21.52,9.36a6.1,6.1,0,0,1-.08,1.1,1.79,1.79,0,0,1-1.86,1.42,1.7,1.7,0,0,1-1.9-1.36,6,6,0,0,1-.05-1.25,4.7,4.7,0,0,1,.07-1.2,1.72,1.72,0,0,1,1.8-1.28,1.87,1.87,0,0,1,1.94,1.29A4.82,4.82,0,0,1,21.52,9.36Z"/><path class="a" d="M25.41,9.36a6.1,6.1,0,0,1-.08,1.1,1.79,1.79,0,0,1-1.86,1.42,1.7,1.7,0,0,1-1.9-1.36,6,6,0,0,1-.05-1.25,4.7,4.7,0,0,1,.07-1.2,1.72,1.72,0,0,1,1.8-1.28,1.87,1.87,0,0,1,1.94,1.29A4.82,4.82,0,0,1,25.41,9.36Z"/><path class="a" d="M13.77,9.39a5.92,5.92,0,0,0,.08,1.09,1.79,1.79,0,0,0,1.85,1.43,1.7,1.7,0,0,0,1.91-1.37,5.91,5.91,0,0,0,.05-1.24,4.81,4.81,0,0,0-.07-1.21,1.71,1.71,0,0,0-1.8-1.27,1.82,1.82,0,0,0-2,1.18A5.75,5.75,0,0,0,13.77,9.39Z"/><path class="a" d="M40.93,9.39A5.85,5.85,0,0,0,41,10.48a1.78,1.78,0,0,0,1.85,1.43,1.7,1.7,0,0,0,1.9-1.37,5.91,5.91,0,0,0,0-1.24,4.82,4.82,0,0,0-.06-1.21A1.72,1.72,0,0,0,43,6.82,1.8,1.8,0,0,0,41,8,5.74,5.74,0,0,0,40.93,9.39Z"/><path class="a" d="M52.94,9.21A5.85,5.85,0,0,0,53,10.3a1.78,1.78,0,0,0,1.85,1.42,1.69,1.69,0,0,0,1.91-1.36,6,6,0,0,0,0-1.24,4.37,4.37,0,0,0-.06-1.21A1.74,1.74,0,0,0,55,6.63a1.83,1.83,0,0,0-2,1.19A5.68,5.68,0,0,0,52.94,9.21Z"/><path class="a" d="M9.21,56a5.92,5.92,0,0,0,.08,1.09,1.79,1.79,0,0,0,1.86,1.42,1.69,1.69,0,0,0,1.9-1.36,5.94,5.94,0,0,0,0-1.24A4.78,4.78,0,0,0,13,54.74a1.73,1.73,0,0,0-1.8-1.28,1.82,1.82,0,0,0-2,1.19A5.68,5.68,0,0,0,9.21,56Z"/><path class="a" d="M13.08,56a5.92,5.92,0,0,0,.08,1.09A1.78,1.78,0,0,0,15,58.55a1.69,1.69,0,0,0,1.91-1.36A5.39,5.39,0,0,0,17,56a4.37,4.37,0,0,0-.06-1.21,1.73,1.73,0,0,0-1.8-1.28,1.83,1.83,0,0,0-2,1.19A5.7,5.7,0,0,0,13.08,56Z"/><path class="a" d="M20.88,56.09a5.85,5.85,0,0,1-.09,1.09,1.78,1.78,0,0,1-1.85,1.43A1.68,1.68,0,0,1,17,57.24,5.3,5.3,0,0,1,17,56a4.82,4.82,0,0,1,.06-1.21,1.72,1.72,0,0,1,1.81-1.27,1.8,1.8,0,0,1,1.95,1.18A5.74,5.74,0,0,1,20.88,56.09Z"/><path class="a" d="M20.82,56.09a5.92,5.92,0,0,0,.08,1.09,1.79,1.79,0,0,0,1.86,1.43,1.7,1.7,0,0,0,1.9-1.37A5.91,5.91,0,0,0,24.71,56a4.39,4.39,0,0,0-.07-1.21,1.7,1.7,0,0,0-1.8-1.27,1.8,1.8,0,0,0-1.95,1.18A5.74,5.74,0,0,0,20.82,56.09Z"/><path class="a" d="M28.65,56.09a5.85,5.85,0,0,1-.09,1.09,1.78,1.78,0,0,1-1.85,1.43,1.7,1.7,0,0,1-1.91-1.37,6,6,0,0,1,0-1.24,4.39,4.39,0,0,1,.06-1.21,1.72,1.72,0,0,1,1.81-1.27,1.81,1.81,0,0,1,1.95,1.18A5.74,5.74,0,0,1,28.65,56.09Z"/><path class="a" d="M28.7,56.09a5.92,5.92,0,0,0,.08,1.09,1.79,1.79,0,0,0,1.86,1.43,1.7,1.7,0,0,0,1.9-1.37A5.91,5.91,0,0,0,32.59,56a4.81,4.81,0,0,0-.07-1.21,1.71,1.71,0,0,0-1.8-1.27,1.82,1.82,0,0,0-2,1.18A5.75,5.75,0,0,0,28.7,56.09Z"/><path class="a" d="M36.44,56.09a5.92,5.92,0,0,1-.08,1.09,1.79,1.79,0,0,1-1.86,1.43,1.7,1.7,0,0,1-1.9-1.37A5.91,5.91,0,0,1,32.55,56a4.81,4.81,0,0,1,.07-1.21,1.71,1.71,0,0,1,1.8-1.27,1.8,1.8,0,0,1,1.95,1.18A5.74,5.74,0,0,1,36.44,56.09Z"/><path class="a" d="M36.49,56.12a5.92,5.92,0,0,0,.08,1.09,1.79,1.79,0,0,0,1.86,1.42,1.69,1.69,0,0,0,1.9-1.36A5.91,5.91,0,0,0,40.38,56a4.78,4.78,0,0,0-.07-1.21,1.73,1.73,0,0,0-1.8-1.28,1.84,1.84,0,0,0-2,1.19A6.25,6.25,0,0,0,36.49,56.12Z"/><path class="a" d="M44.28,56.09a5.92,5.92,0,0,1-.08,1.09,1.79,1.79,0,0,1-1.85,1.43,1.7,1.7,0,0,1-1.91-1.37,5.36,5.36,0,0,1,0-1.24,4.39,4.39,0,0,1,.06-1.21,1.71,1.71,0,0,1,1.8-1.27,1.81,1.81,0,0,1,2,1.18A5.75,5.75,0,0,1,44.28,56.09Z"/><path class="a" d="M56.83,56.09a5.92,5.92,0,0,1-.08,1.09,1.79,1.79,0,0,1-1.86,1.43A1.7,1.7,0,0,1,53,57.24,5.91,5.91,0,0,1,52.94,56,4.81,4.81,0,0,1,53,54.79a1.71,1.71,0,0,1,1.8-1.27,1.82,1.82,0,0,1,2,1.18A6.31,6.31,0,0,1,56.83,56.09Z"/><path class="a" d="M13.5,62.72a5.92,5.92,0,0,0,.08,1.09,1.78,1.78,0,0,0,1.85,1.42,1.69,1.69,0,0,0,1.91-1.36,5.91,5.91,0,0,0,.05-1.24,4.78,4.78,0,0,0-.07-1.21,1.73,1.73,0,0,0-1.8-1.28,1.84,1.84,0,0,0-2,1.19A5.73,5.73,0,0,0,13.5,62.72Z"/><path class="a" d="M17.46,62.72a5.85,5.85,0,0,0,.09,1.09,1.78,1.78,0,0,0,1.85,1.42,1.68,1.68,0,0,0,1.9-1.36,5.3,5.3,0,0,0,.05-1.24,4.37,4.37,0,0,0-.06-1.21,1.74,1.74,0,0,0-1.81-1.28,1.83,1.83,0,0,0-1.95,1.19A5.71,5.71,0,0,0,17.46,62.72Z"/><path class="a" d="M25.27,62.77a6,6,0,0,1-.09,1.1,1.78,1.78,0,0,1-1.85,1.42,1.7,1.7,0,0,1-1.91-1.36,6.12,6.12,0,0,1,0-1.25,4.32,4.32,0,0,1,.06-1.2,1.72,1.72,0,0,1,1.81-1.28,1.81,1.81,0,0,1,1.95,1.19A5.63,5.63,0,0,1,25.27,62.77Z"/><path class="a" d="M25.21,62.77a6.1,6.1,0,0,0,.08,1.1,1.79,1.79,0,0,0,1.86,1.42,1.7,1.7,0,0,0,1.9-1.36,6,6,0,0,0,.05-1.25,4.73,4.73,0,0,0-.07-1.2,1.72,1.72,0,0,0-1.8-1.28,1.81,1.81,0,0,0-1.95,1.19A5.63,5.63,0,0,0,25.21,62.77Z"/><path class="a" d="M33.09,62.77a6.1,6.1,0,0,1-.08,1.1,1.79,1.79,0,0,1-1.86,1.42,1.7,1.7,0,0,1-1.9-1.36,6,6,0,0,1-.05-1.25,4.73,4.73,0,0,1,.07-1.2,1.72,1.72,0,0,1,1.8-1.28,1.81,1.81,0,0,1,2,1.19A5.63,5.63,0,0,1,33.09,62.77Z"/><path class="a" d="M33.14,62.77a6,6,0,0,0,.09,1.1,1.77,1.77,0,0,0,1.85,1.42A1.7,1.7,0,0,0,37,63.93,6,6,0,0,0,37,62.68a4.74,4.74,0,0,0-.06-1.2,1.73,1.73,0,0,0-1.81-1.28,1.81,1.81,0,0,0-1.95,1.19A5.63,5.63,0,0,0,33.14,62.77Z"/><path class="a" d="M41,62.77a6.1,6.1,0,0,1-.08,1.1,1.78,1.78,0,0,1-1.85,1.42,1.7,1.7,0,0,1-1.91-1.36,5.48,5.48,0,0,1,0-1.25,4.32,4.32,0,0,1,.06-1.2A1.72,1.72,0,0,1,39,60.2a1.82,1.82,0,0,1,2,1.19A5.65,5.65,0,0,1,41,62.77Z"/><path class="a" d="M41.08,62.8a5.11,5.11,0,0,0,.09,1.09A1.77,1.77,0,0,0,43,65.32,1.7,1.7,0,0,0,44.92,64a5.91,5.91,0,0,0,0-1.24,4.29,4.29,0,0,0-.07-1.2,1.7,1.7,0,0,0-1.8-1.28,1.8,1.8,0,0,0-2,1.18A5.74,5.74,0,0,0,41.08,62.8Z"/><path class="a" d="M48.88,62.77a6,6,0,0,1-.09,1.1,1.77,1.77,0,0,1-1.85,1.42A1.69,1.69,0,0,1,45,63.93a6,6,0,0,1,0-1.25,4.74,4.74,0,0,1,.06-1.2,1.73,1.73,0,0,1,1.81-1.28,1.81,1.81,0,0,1,2,1.19A5.63,5.63,0,0,1,48.88,62.77Z"/><path class="a" d="M48.91,62.77a6.1,6.1,0,0,0,.08,1.1,1.79,1.79,0,0,0,1.86,1.42,1.7,1.7,0,0,0,1.9-1.36,6,6,0,0,0,0-1.25,4.31,4.31,0,0,0-.07-1.2,1.71,1.71,0,0,0-1.8-1.28,1.81,1.81,0,0,0-2,1.19A5.63,5.63,0,0,0,48.91,62.77Z"/><path class="a" d="M13.5,2.57a6,6,0,0,0,.08,1.1,1.78,1.78,0,0,0,1.85,1.42,1.7,1.7,0,0,0,1.91-1.36,6,6,0,0,0,.05-1.24,4.78,4.78,0,0,0-.07-1.21A1.73,1.73,0,0,0,15.52,0a1.83,1.83,0,0,0-2,1.19A5.65,5.65,0,0,0,13.5,2.57Z"/><path class="a" d="M17.46,2.57a6,6,0,0,0,.09,1.1A1.78,1.78,0,0,0,19.4,5.09a1.68,1.68,0,0,0,1.9-1.36,5.35,5.35,0,0,0,.05-1.24,4.37,4.37,0,0,0-.06-1.21A1.74,1.74,0,0,0,19.48,0a1.81,1.81,0,0,0-1.95,1.19A5.63,5.63,0,0,0,17.46,2.57Z"/><path class="a" d="M25.27,2.63a5.85,5.85,0,0,1-.09,1.09,1.78,1.78,0,0,1-1.85,1.42,1.69,1.69,0,0,1-1.91-1.36,6,6,0,0,1,0-1.24,4.37,4.37,0,0,1,.06-1.21A1.73,1.73,0,0,1,23.25.05,1.83,1.83,0,0,1,25.2,1.24,5.68,5.68,0,0,1,25.27,2.63Z"/><path class="a" d="M25.21,2.63a5.92,5.92,0,0,0,.08,1.09,1.79,1.79,0,0,0,1.86,1.42,1.69,1.69,0,0,0,1.9-1.36,5.91,5.91,0,0,0,.05-1.24A4.78,4.78,0,0,0,29,1.33,1.73,1.73,0,0,0,27.23.05a1.82,1.82,0,0,0-1.95,1.19A5.68,5.68,0,0,0,25.21,2.63Z"/><path class="a" d="M33.09,2.63A5.92,5.92,0,0,1,33,3.72a1.79,1.79,0,0,1-1.86,1.42,1.69,1.69,0,0,1-1.9-1.36,5.91,5.91,0,0,1-.05-1.24,4.78,4.78,0,0,1,.07-1.21A1.73,1.73,0,0,1,31.07.05a1.82,1.82,0,0,1,2,1.19A5.68,5.68,0,0,1,33.09,2.63Z"/><path class="a" d="M33.14,2.63a5.85,5.85,0,0,0,.09,1.09,1.77,1.77,0,0,0,1.85,1.42A1.69,1.69,0,0,0,37,3.78,5.91,5.91,0,0,0,37,2.54,4.8,4.8,0,0,0,37,1.33,1.74,1.74,0,0,0,35.16.05a1.82,1.82,0,0,0-1.95,1.19A5.68,5.68,0,0,0,33.14,2.63Z"/><path class="a" d="M41,2.63A5.92,5.92,0,0,1,41,3.72,1.78,1.78,0,0,1,39.1,5.14a1.69,1.69,0,0,1-1.91-1.36,5.36,5.36,0,0,1,0-1.24,4.37,4.37,0,0,1,.06-1.21A1.73,1.73,0,0,1,39,.05a1.83,1.83,0,0,1,2,1.19A5.7,5.7,0,0,1,41,2.63Z"/><path class="a" d="M41.08,2.66a5.11,5.11,0,0,0,.09,1.09A1.77,1.77,0,0,0,43,5.17a1.69,1.69,0,0,0,1.9-1.36,5.94,5.94,0,0,0,0-1.24,4.36,4.36,0,0,0-.07-1.21A1.72,1.72,0,0,0,43.1.08a1.82,1.82,0,0,0-2,1.19A5.68,5.68,0,0,0,41.08,2.66Z"/><path class="a" d="M48.88,2.63a5.85,5.85,0,0,1-.09,1.09,1.77,1.77,0,0,1-1.85,1.42A1.68,1.68,0,0,1,45,3.78a5.91,5.91,0,0,1,0-1.24,4.8,4.8,0,0,1,.06-1.21A1.74,1.74,0,0,1,46.86.05a1.82,1.82,0,0,1,2,1.19A5.68,5.68,0,0,1,48.88,2.63Z"/><path class="a" d="M48.91,2.63A5.92,5.92,0,0,0,49,3.72a1.79,1.79,0,0,0,1.86,1.42,1.69,1.69,0,0,0,1.9-1.36,5.91,5.91,0,0,0,0-1.24,4.36,4.36,0,0,0-.07-1.21A1.72,1.72,0,0,0,50.93.05a1.82,1.82,0,0,0-2,1.19A5.68,5.68,0,0,0,48.91,2.63Z"/><path class="a" d="M1.7,42.67a5.92,5.92,0,0,0,.08,1.09,1.78,1.78,0,0,0,1.86,1.43,1.7,1.7,0,0,0,1.9-1.37,5.91,5.91,0,0,0,0-1.24,4.7,4.7,0,0,0-.07-1.2,1.71,1.71,0,0,0-1.8-1.28,1.8,1.8,0,0,0-1.95,1.18A5.74,5.74,0,0,0,1.7,42.67Z"/><path class="a" d="M5.67,42.67a5.92,5.92,0,0,0,.08,1.09A1.77,1.77,0,0,0,7.6,45.19a1.7,1.7,0,0,0,1.91-1.37,6,6,0,0,0,0-1.24,4.3,4.3,0,0,0-.06-1.2A1.71,1.71,0,0,0,7.68,40.1a1.81,1.81,0,0,0-1.95,1.18A5.75,5.75,0,0,0,5.67,42.67Z"/><path class="a" d="M13.47,42.72a6,6,0,0,1-.09,1.1,1.78,1.78,0,0,1-1.85,1.42,1.68,1.68,0,0,1-1.9-1.36,5.35,5.35,0,0,1-.05-1.24,4.37,4.37,0,0,1,.06-1.21,1.74,1.74,0,0,1,1.81-1.28,1.81,1.81,0,0,1,2,1.19A5.63,5.63,0,0,1,13.47,42.72Z"/><path class="a" d="M13.41,42.72a6,6,0,0,0,.08,1.1,1.79,1.79,0,0,0,1.86,1.42,1.7,1.7,0,0,0,1.9-1.36,6,6,0,0,0,.05-1.24,4.78,4.78,0,0,0-.07-1.21,1.73,1.73,0,0,0-1.8-1.28,1.81,1.81,0,0,0-1.95,1.19A5.63,5.63,0,0,0,13.41,42.72Z"/><path class="a" d="M21.29,42.72a6,6,0,0,1-.08,1.1,1.79,1.79,0,0,1-1.86,1.42,1.7,1.7,0,0,1-1.9-1.36,6,6,0,0,1-.05-1.24,4.78,4.78,0,0,1,.07-1.21,1.73,1.73,0,0,1,1.8-1.28,1.83,1.83,0,0,1,2,1.19A6.19,6.19,0,0,1,21.29,42.72Z"/><path class="a" d="M21.34,42.72a6,6,0,0,0,.09,1.1,1.78,1.78,0,0,0,1.85,1.42,1.68,1.68,0,0,0,1.9-1.36,5.35,5.35,0,0,0,.05-1.24,4.37,4.37,0,0,0-.06-1.21,1.74,1.74,0,0,0-1.81-1.28,1.81,1.81,0,0,0-1.95,1.19A5.63,5.63,0,0,0,21.34,42.72Z"/><path class="a" d="M29.24,42.72a6,6,0,0,1-.09,1.1,1.78,1.78,0,0,1-1.85,1.42,1.7,1.7,0,0,1-1.91-1.36,6,6,0,0,1,0-1.24,4.37,4.37,0,0,1,.06-1.21,1.73,1.73,0,0,1,1.81-1.28,1.81,1.81,0,0,1,2,1.19A5.63,5.63,0,0,1,29.24,42.72Z"/><path class="a" d="M29.28,42.75a6,6,0,0,0,.09,1.1,1.78,1.78,0,0,0,1.85,1.42,1.68,1.68,0,0,0,1.9-1.36,5.41,5.41,0,0,0,.05-1.25,4.32,4.32,0,0,0-.06-1.2,1.73,1.73,0,0,0-1.81-1.28,1.81,1.81,0,0,0-1.95,1.19A5.63,5.63,0,0,0,29.28,42.75Z"/><path class="a" d="M37.08,42.72a6,6,0,0,1-.08,1.1,1.79,1.79,0,0,1-1.86,1.42,1.7,1.7,0,0,1-1.9-1.36,6,6,0,0,1-.05-1.24,4.36,4.36,0,0,1,.07-1.21,1.72,1.72,0,0,1,1.8-1.28A1.81,1.81,0,0,1,37,41.34,5.63,5.63,0,0,1,37.08,42.72Z"/><path class="a" d="M37.11,42.72a6,6,0,0,0,.09,1.1,1.77,1.77,0,0,0,1.85,1.42A1.69,1.69,0,0,0,41,43.88a6,6,0,0,0,0-1.24,4.8,4.8,0,0,0-.06-1.21,1.74,1.74,0,0,0-1.81-1.28,1.81,1.81,0,0,0-2,1.19A5.63,5.63,0,0,0,37.11,42.72Z"/><path class="a" d="M1.7,22.62a6.1,6.1,0,0,0,.08,1.1,1.79,1.79,0,0,0,1.86,1.42,1.7,1.7,0,0,0,1.9-1.36,6,6,0,0,0,0-1.25,4.7,4.7,0,0,0-.07-1.2,1.72,1.72,0,0,0-1.8-1.28,1.81,1.81,0,0,0-1.95,1.19A5.63,5.63,0,0,0,1.7,22.62Z"/><path class="a" d="M5.67,22.62a6.1,6.1,0,0,0,.08,1.1A1.78,1.78,0,0,0,7.6,25.14a1.7,1.7,0,0,0,1.91-1.36,6.12,6.12,0,0,0,0-1.25,4.3,4.3,0,0,0-.06-1.2,1.72,1.72,0,0,0-1.81-1.28,1.81,1.81,0,0,0-1.95,1.19A5.65,5.65,0,0,0,5.67,22.62Z"/><path class="a" d="M13.47,22.68a5.85,5.85,0,0,1-.09,1.09,1.78,1.78,0,0,1-1.85,1.42,1.68,1.68,0,0,1-1.9-1.36,5.33,5.33,0,0,1-.05-1.24,4.37,4.37,0,0,1,.06-1.21,1.74,1.74,0,0,1,1.81-1.28,1.82,1.82,0,0,1,2,1.19A5.68,5.68,0,0,1,13.47,22.68Z"/><path class="a" d="M13.41,22.68a5.92,5.92,0,0,0,.08,1.09,1.79,1.79,0,0,0,1.86,1.42,1.69,1.69,0,0,0,1.9-1.36,5.94,5.94,0,0,0,.05-1.24,4.78,4.78,0,0,0-.07-1.21,1.73,1.73,0,0,0-1.8-1.28,1.82,1.82,0,0,0-1.95,1.19A5.68,5.68,0,0,0,13.41,22.68Z"/><path class="a" d="M21.29,22.68a5.92,5.92,0,0,1-.08,1.09,1.79,1.79,0,0,1-1.86,1.42,1.69,1.69,0,0,1-1.9-1.36,5.94,5.94,0,0,1-.05-1.24,4.78,4.78,0,0,1,.07-1.21,1.73,1.73,0,0,1,1.8-1.28,1.84,1.84,0,0,1,2,1.19A6.25,6.25,0,0,1,21.29,22.68Z"/><path class="a" d="M21.34,22.68a5.85,5.85,0,0,0,.09,1.09,1.78,1.78,0,0,0,1.85,1.42,1.68,1.68,0,0,0,1.9-1.36,5.33,5.33,0,0,0,.05-1.24,4.37,4.37,0,0,0-.06-1.21,1.74,1.74,0,0,0-1.81-1.28,1.83,1.83,0,0,0-1.95,1.19A5.68,5.68,0,0,0,21.34,22.68Z"/><path class="a" d="M29.24,22.68a5.85,5.85,0,0,1-.09,1.09,1.78,1.78,0,0,1-1.85,1.42,1.69,1.69,0,0,1-1.91-1.36,6,6,0,0,1,0-1.24,4.37,4.37,0,0,1,.06-1.21,1.73,1.73,0,0,1,1.81-1.28,1.83,1.83,0,0,1,2,1.19A5.68,5.68,0,0,1,29.24,22.68Z"/><path class="a" d="M29.28,22.7a6,6,0,0,0,.09,1.1,1.78,1.78,0,0,0,1.85,1.42,1.68,1.68,0,0,0,1.9-1.36,5.35,5.35,0,0,0,.05-1.24,4.37,4.37,0,0,0-.06-1.21,1.74,1.74,0,0,0-1.81-1.28,1.81,1.81,0,0,0-1.95,1.19A5.63,5.63,0,0,0,29.28,22.7Z"/><path class="a" d="M37.08,22.68A5.92,5.92,0,0,1,37,23.77a1.79,1.79,0,0,1-1.86,1.42,1.69,1.69,0,0,1-1.9-1.36,5.94,5.94,0,0,1-.05-1.24,4.36,4.36,0,0,1,.07-1.21,1.72,1.72,0,0,1,1.8-1.28A1.82,1.82,0,0,1,37,21.29,5.68,5.68,0,0,1,37.08,22.68Z"/><path class="a" d="M37.11,22.68a5.85,5.85,0,0,0,.09,1.09,1.77,1.77,0,0,0,1.85,1.42A1.68,1.68,0,0,0,41,23.83a5.94,5.94,0,0,0,0-1.24,4.8,4.8,0,0,0-.06-1.21,1.74,1.74,0,0,0-1.81-1.28,1.82,1.82,0,0,0-2,1.19A5.68,5.68,0,0,0,37.11,22.68Z"/><path class="a" d="M0,36a5.92,5.92,0,0,0,.08,1.09A1.79,1.79,0,0,0,2,38.5a1.69,1.69,0,0,0,1.9-1.36,5.94,5.94,0,0,0,0-1.24,4.78,4.78,0,0,0-.07-1.21A1.73,1.73,0,0,0,2,33.41,1.82,1.82,0,0,0,.08,34.6,5.68,5.68,0,0,0,0,36Z"/><path class="a" d="M4,36a5.92,5.92,0,0,0,.08,1.09A1.78,1.78,0,0,0,5.91,38.5a1.69,1.69,0,0,0,1.91-1.36,6,6,0,0,0,0-1.24,4.37,4.37,0,0,0-.06-1.21A1.73,1.73,0,0,0,6,33.41,1.83,1.83,0,0,0,4,34.6,5.7,5.7,0,0,0,4,36Z"/><path class="a" d="M11.78,36a6,6,0,0,1-.09,1.1,1.78,1.78,0,0,1-1.85,1.42,1.68,1.68,0,0,1-1.9-1.37A5.3,5.3,0,0,1,7.89,36,4.3,4.3,0,0,1,8,34.75a1.73,1.73,0,0,1,1.81-1.28,1.8,1.8,0,0,1,2,1.19A5.63,5.63,0,0,1,11.78,36Z"/><path class="a" d="M11.72,36a6.1,6.1,0,0,0,.08,1.1,1.79,1.79,0,0,0,1.86,1.42,1.7,1.7,0,0,0,1.9-1.37,5.91,5.91,0,0,0,0-1.24,4.7,4.7,0,0,0-.07-1.2,1.72,1.72,0,0,0-1.8-1.28,1.8,1.8,0,0,0-2,1.19A5.63,5.63,0,0,0,11.72,36Z"/><path class="a" d="M19.6,36a6.1,6.1,0,0,1-.08,1.1,1.79,1.79,0,0,1-1.86,1.42,1.7,1.7,0,0,1-1.9-1.37,5.91,5.91,0,0,1,0-1.24,4.7,4.7,0,0,1,.07-1.2,1.72,1.72,0,0,1,1.8-1.28,1.8,1.8,0,0,1,2,1.19A5.63,5.63,0,0,1,19.6,36Z"/><path class="a" d="M19.65,36a6,6,0,0,0,.09,1.1,1.78,1.78,0,0,0,1.85,1.42,1.68,1.68,0,0,0,1.9-1.37A5.3,5.3,0,0,0,23.54,36a4.3,4.3,0,0,0-.06-1.2,1.73,1.73,0,0,0-1.81-1.28,1.8,1.8,0,0,0-2,1.19A5.63,5.63,0,0,0,19.65,36Z"/><path class="a" d="M27.55,36a6,6,0,0,1-.09,1.1,1.78,1.78,0,0,1-1.85,1.42,1.7,1.7,0,0,1-1.91-1.37,6,6,0,0,1,0-1.24,4.3,4.3,0,0,1,.06-1.2,1.72,1.72,0,0,1,1.81-1.28,1.8,1.8,0,0,1,1.95,1.19A5.63,5.63,0,0,1,27.55,36Z"/><path class="a" d="M27.59,36.07a5.85,5.85,0,0,0,.09,1.09,1.78,1.78,0,0,0,1.85,1.43,1.68,1.68,0,0,0,1.9-1.37A5.3,5.3,0,0,0,31.48,36a4.39,4.39,0,0,0-.06-1.21,1.72,1.72,0,0,0-1.81-1.27,1.8,1.8,0,0,0-1.95,1.18A5.74,5.74,0,0,0,27.59,36.07Z"/><path class="a" d="M35.39,36a5.26,5.26,0,0,1-.09,1.1,1.77,1.77,0,0,1-1.85,1.42,1.7,1.7,0,0,1-1.9-1.37A5.91,5.91,0,0,1,31.5,36a4.29,4.29,0,0,1,.07-1.2,1.71,1.71,0,0,1,1.8-1.28,1.8,1.8,0,0,1,2,1.19A5.63,5.63,0,0,1,35.39,36Z"/><path class="a" d="M35.42,36a6,6,0,0,0,.09,1.1,1.77,1.77,0,0,0,1.85,1.42,1.7,1.7,0,0,0,1.9-1.37A5.91,5.91,0,0,0,39.31,36a4.72,4.72,0,0,0-.06-1.2,1.73,1.73,0,0,0-1.81-1.28,1.8,1.8,0,0,0-1.95,1.19A5.63,5.63,0,0,0,35.42,36Z"/><path class="a" d="M0,29.3a6,6,0,0,0,.08,1.1A1.79,1.79,0,0,0,2,31.82a1.69,1.69,0,0,0,1.9-1.36,6,6,0,0,0,0-1.24A4.78,4.78,0,0,0,3.83,28,1.73,1.73,0,0,0,2,26.73,1.81,1.81,0,0,0,.08,27.92,5.63,5.63,0,0,0,0,29.3Z"/><path class="a" d="M4,29.3a6,6,0,0,0,.08,1.1,1.78,1.78,0,0,0,1.85,1.42,1.69,1.69,0,0,0,1.91-1.36,6,6,0,0,0,0-1.24A4.37,4.37,0,0,0,7.8,28,1.73,1.73,0,0,0,6,26.73,1.81,1.81,0,0,0,4,27.92,5.65,5.65,0,0,0,4,29.3Z"/><path class="a" d="M11.78,29.36a5.85,5.85,0,0,1-.09,1.09,1.78,1.78,0,0,1-1.85,1.42,1.68,1.68,0,0,1-1.9-1.36,5.3,5.3,0,0,1-.05-1.24A4.37,4.37,0,0,1,8,28.06a1.72,1.72,0,0,1,1.81-1.27,1.81,1.81,0,0,1,2,1.18A5.71,5.71,0,0,1,11.78,29.36Z"/><path class="a" d="M11.72,29.36a5.92,5.92,0,0,0,.08,1.09,1.79,1.79,0,0,0,1.86,1.42,1.69,1.69,0,0,0,1.9-1.36,5.91,5.91,0,0,0,0-1.24,4.78,4.78,0,0,0-.07-1.21,1.71,1.71,0,0,0-1.8-1.27,1.8,1.8,0,0,0-2,1.18A5.71,5.71,0,0,0,11.72,29.36Z"/><path class="a" d="M19.6,29.36a5.92,5.92,0,0,1-.08,1.09,1.79,1.79,0,0,1-1.86,1.42,1.69,1.69,0,0,1-1.9-1.36,5.91,5.91,0,0,1,0-1.24,4.78,4.78,0,0,1,.07-1.21,1.71,1.71,0,0,1,1.8-1.27,1.8,1.8,0,0,1,2,1.18A5.71,5.71,0,0,1,19.6,29.36Z"/><path class="a" d="M19.65,29.36a5.85,5.85,0,0,0,.09,1.09,1.78,1.78,0,0,0,1.85,1.42,1.68,1.68,0,0,0,1.9-1.36,5.3,5.3,0,0,0,.05-1.24,4.37,4.37,0,0,0-.06-1.21,1.72,1.72,0,0,0-1.81-1.27,1.81,1.81,0,0,0-2,1.18A5.71,5.71,0,0,0,19.65,29.36Z"/><path class="a" d="M27.55,29.36a5.85,5.85,0,0,1-.09,1.09,1.78,1.78,0,0,1-1.85,1.42,1.69,1.69,0,0,1-1.91-1.36,6,6,0,0,1,0-1.24,4.37,4.37,0,0,1,.06-1.21,1.71,1.71,0,0,1,1.81-1.27A1.81,1.81,0,0,1,27.48,28,5.71,5.71,0,0,1,27.55,29.36Z"/><path class="a" d="M27.59,29.39a5.85,5.85,0,0,0,.09,1.09,1.78,1.78,0,0,0,1.85,1.42,1.68,1.68,0,0,0,1.9-1.36,5.33,5.33,0,0,0,.05-1.24,4.37,4.37,0,0,0-.06-1.21,1.74,1.74,0,0,0-1.81-1.28A1.82,1.82,0,0,0,27.66,28,5.68,5.68,0,0,0,27.59,29.39Z"/><path class="a" d="M35.39,29.36a5.11,5.11,0,0,1-.09,1.09,1.77,1.77,0,0,1-1.85,1.42,1.69,1.69,0,0,1-1.9-1.36,5.91,5.91,0,0,1-.05-1.24,4.36,4.36,0,0,1,.07-1.21,1.7,1.7,0,0,1,1.8-1.27,1.8,1.8,0,0,1,2,1.18A5.71,5.71,0,0,1,35.39,29.36Z"/><path class="a" d="M35.42,29.36a5.85,5.85,0,0,0,.09,1.09,1.77,1.77,0,0,0,1.85,1.42,1.69,1.69,0,0,0,1.9-1.36,5.91,5.91,0,0,0,.05-1.24,4.8,4.8,0,0,0-.06-1.21,1.72,1.72,0,0,0-1.81-1.27A1.8,1.8,0,0,0,35.49,28,5.71,5.71,0,0,0,35.42,29.36Z"/></svg>