<svg xmlns="http://www.w3.org/2000/svg" width="61.18" height="65.32" viewBox="0 0 61.18 65.32"><defs><style>.a{fill:#21364f;}</style></defs><title>Asset 139</title><path class="a" d="M29.7,36a6,6,0,0,0-.08-1.1,1.78,1.78,0,0,0-1.85-1.42,1.69,1.69,0,0,0-1.91,1.36,6,6,0,0,0-.05,1.24,4.78,4.78,0,0,0,.07,1.21,1.73,1.73,0,0,0,1.8,1.28,1.87,1.87,0,0,0,1.94-1.29A4.82,4.82,0,0,0,29.7,36Z"/><path class="a" d="M37.42,36a5.89,5.89,0,0,0-.09-1.1,1.78,1.78,0,0,0-1.85-1.42,1.68,1.68,0,0,0-1.9,1.36,5.35,5.35,0,0,0,0,1.24,4.37,4.37,0,0,0,.06,1.21,1.74,1.74,0,0,0,1.81,1.28,1.85,1.85,0,0,0,1.93-1.29A4.8,4.8,0,0,0,37.42,36Z"/><path class="a" d="M41.31,36a5.89,5.89,0,0,0-.09-1.1,1.77,1.77,0,0,0-1.85-1.42,1.69,1.69,0,0,0-1.9,1.36,6,6,0,0,0,0,1.24,4.8,4.8,0,0,0,.06,1.21,1.74,1.74,0,0,0,1.81,1.28,1.87,1.87,0,0,0,1.94-1.29A4.82,4.82,0,0,0,41.31,36Z"/><path class="a" d="M29.66,36a5.89,5.89,0,0,1,.09-1.1,1.78,1.78,0,0,1,1.85-1.42,1.68,1.68,0,0,1,1.9,1.36,5.35,5.35,0,0,1,0,1.24,4.37,4.37,0,0,1-.06,1.21,1.74,1.74,0,0,1-1.81,1.28,1.81,1.81,0,0,1-1.95-1.19A5.63,5.63,0,0,1,29.66,36Z"/><path class="a" d="M14.21,36a6,6,0,0,0-.08-1.1,1.79,1.79,0,0,0-1.86-1.42,1.69,1.69,0,0,0-1.9,1.36,6,6,0,0,0,0,1.24,4.78,4.78,0,0,0,.07,1.21,1.73,1.73,0,0,0,1.8,1.28,1.87,1.87,0,0,0,1.94-1.29A4.82,4.82,0,0,0,14.21,36Z"/><path class="a" d="M21.92,36a6,6,0,0,0-.08-1.1A1.78,1.78,0,0,0,20,33.46a1.69,1.69,0,0,0-1.91,1.36,6,6,0,0,0,0,1.24,4.37,4.37,0,0,0,.06,1.21,1.73,1.73,0,0,0,1.81,1.28,1.85,1.85,0,0,0,1.93-1.29A4.82,4.82,0,0,0,21.92,36Z"/><path class="a" d="M25.82,36a5.89,5.89,0,0,0-.09-1.1,1.78,1.78,0,0,0-1.85-1.42A1.69,1.69,0,0,0,22,34.82a6,6,0,0,0,0,1.24A4.37,4.37,0,0,0,22,37.27a1.74,1.74,0,0,0,1.81,1.28,1.85,1.85,0,0,0,1.93-1.29A4.8,4.8,0,0,0,25.82,36Z"/><path class="a" d="M14.17,36a5.15,5.15,0,0,1,.09-1.1,1.77,1.77,0,0,1,1.85-1.42A1.69,1.69,0,0,1,18,34.82a6,6,0,0,1,0,1.24A4.36,4.36,0,0,1,18,37.27a1.72,1.72,0,0,1-1.8,1.28,1.81,1.81,0,0,1-2-1.19A5.63,5.63,0,0,1,14.17,36Z"/><path class="a" d="M41.29,36a6,6,0,0,1,.08-1.1,1.79,1.79,0,0,1,1.86-1.42,1.69,1.69,0,0,1,1.9,1.36,6,6,0,0,1,0,1.24,4.78,4.78,0,0,1-.07,1.21,1.73,1.73,0,0,1-1.8,1.28,1.81,1.81,0,0,1-2-1.19A5.63,5.63,0,0,1,41.29,36Z"/><path class="a" d="M45.18,36a6,6,0,0,1,.08-1.1,1.79,1.79,0,0,1,1.86-1.42A1.69,1.69,0,0,1,49,34.82a6,6,0,0,1,0,1.24A4.78,4.78,0,0,1,49,37.27a1.73,1.73,0,0,1-1.8,1.28,1.81,1.81,0,0,1-2-1.19A5.63,5.63,0,0,1,45.18,36Z"/><path class="a" d="M29.7,42.67a6,6,0,0,0-.08-1.1,1.78,1.78,0,0,0-1.85-1.42,1.7,1.7,0,0,0-1.91,1.36,6,6,0,0,0-.05,1.24A4.78,4.78,0,0,0,25.88,44a1.73,1.73,0,0,0,1.8,1.28A1.87,1.87,0,0,0,29.62,44,4.82,4.82,0,0,0,29.7,42.67Z"/><path class="a" d="M37.42,42.67a6,6,0,0,0-.09-1.1,1.78,1.78,0,0,0-1.85-1.42,1.68,1.68,0,0,0-1.9,1.36,5.35,5.35,0,0,0,0,1.24A4.37,4.37,0,0,0,33.59,44a1.74,1.74,0,0,0,1.81,1.28A1.85,1.85,0,0,0,37.33,44,4.8,4.8,0,0,0,37.42,42.67Z"/><path class="a" d="M41.31,42.67a6,6,0,0,0-.09-1.1,1.77,1.77,0,0,0-1.85-1.42,1.7,1.7,0,0,0-1.9,1.36,6,6,0,0,0,0,1.24A4.8,4.8,0,0,0,37.48,44a1.74,1.74,0,0,0,1.81,1.28A1.87,1.87,0,0,0,41.23,44,4.82,4.82,0,0,0,41.31,42.67Z"/><path class="a" d="M29.66,42.67a6,6,0,0,1,.09-1.1,1.78,1.78,0,0,1,1.85-1.42,1.68,1.68,0,0,1,1.9,1.36,5.35,5.35,0,0,1,0,1.24A4.37,4.37,0,0,1,33.49,44a1.74,1.74,0,0,1-1.81,1.28,1.81,1.81,0,0,1-1.95-1.19A5.63,5.63,0,0,1,29.66,42.67Z"/><path class="a" d="M14.21,42.67a6,6,0,0,0-.08-1.1,1.79,1.79,0,0,0-1.86-1.42,1.7,1.7,0,0,0-1.9,1.36,6,6,0,0,0,0,1.24A4.78,4.78,0,0,0,10.39,44a1.73,1.73,0,0,0,1.8,1.28A1.87,1.87,0,0,0,14.13,44,4.82,4.82,0,0,0,14.21,42.67Z"/><path class="a" d="M21.92,42.67a6,6,0,0,0-.08-1.1A1.78,1.78,0,0,0,20,40.15a1.7,1.7,0,0,0-1.91,1.36,6,6,0,0,0,0,1.24A4.37,4.37,0,0,0,18.1,44a1.73,1.73,0,0,0,1.81,1.28A1.85,1.85,0,0,0,21.84,44,4.82,4.82,0,0,0,21.92,42.67Z"/><path class="a" d="M25.82,42.67a6,6,0,0,0-.09-1.1,1.78,1.78,0,0,0-1.85-1.42A1.7,1.7,0,0,0,22,41.51a6,6,0,0,0,0,1.24A4.37,4.37,0,0,0,22,44a1.74,1.74,0,0,0,1.81,1.28A1.85,1.85,0,0,0,25.73,44,4.8,4.8,0,0,0,25.82,42.67Z"/><path class="a" d="M14.17,42.67a5.2,5.2,0,0,1,.09-1.1,1.77,1.77,0,0,1,1.85-1.42A1.7,1.7,0,0,1,18,41.51a6,6,0,0,1,0,1.24A4.36,4.36,0,0,1,18,44a1.72,1.72,0,0,1-1.8,1.28,1.81,1.81,0,0,1-2-1.19A5.63,5.63,0,0,1,14.17,42.67Z"/><path class="a" d="M41.29,42.67a6,6,0,0,1,.08-1.1,1.79,1.79,0,0,1,1.86-1.42,1.7,1.7,0,0,1,1.9,1.36,6,6,0,0,1,0,1.24A4.78,4.78,0,0,1,45.11,44a1.73,1.73,0,0,1-1.8,1.28,1.81,1.81,0,0,1-2-1.19A5.63,5.63,0,0,1,41.29,42.67Z"/><path class="a" d="M45.18,42.67a6,6,0,0,1,.08-1.1,1.79,1.79,0,0,1,1.86-1.42A1.7,1.7,0,0,1,49,41.51a6,6,0,0,1,0,1.24A4.78,4.78,0,0,1,49,44a1.73,1.73,0,0,1-1.8,1.28,1.81,1.81,0,0,1-2-1.19A5.63,5.63,0,0,1,45.18,42.67Z"/><path class="a" d="M29.7,49.36a6.1,6.1,0,0,0-.08-1.1,1.78,1.78,0,0,0-1.85-1.42,1.7,1.7,0,0,0-1.91,1.37,5.91,5.91,0,0,0-.05,1.24,4.7,4.7,0,0,0,.07,1.2,1.71,1.71,0,0,0,1.8,1.28,1.87,1.87,0,0,0,1.94-1.29A4.82,4.82,0,0,0,29.7,49.36Z"/><path class="a" d="M37.42,49.36a6,6,0,0,0-.09-1.1,1.78,1.78,0,0,0-1.85-1.42,1.68,1.68,0,0,0-1.9,1.37,5.3,5.3,0,0,0,0,1.24,4.3,4.3,0,0,0,.06,1.2,1.72,1.72,0,0,0,1.81,1.28,1.85,1.85,0,0,0,1.93-1.29A4.8,4.8,0,0,0,37.42,49.36Z"/><path class="a" d="M41.31,49.36a6,6,0,0,0-.09-1.1,1.77,1.77,0,0,0-1.85-1.42,1.7,1.7,0,0,0-1.9,1.37,5.91,5.91,0,0,0,0,1.24,4.72,4.72,0,0,0,.06,1.2,1.72,1.72,0,0,0,1.81,1.28,1.87,1.87,0,0,0,1.94-1.29A4.82,4.82,0,0,0,41.31,49.36Z"/><path class="a" d="M29.66,49.36a6,6,0,0,1,.09-1.1,1.78,1.78,0,0,1,1.85-1.42,1.68,1.68,0,0,1,1.9,1.37,5.3,5.3,0,0,1,0,1.24,4.3,4.3,0,0,1-.06,1.2,1.72,1.72,0,0,1-1.81,1.28,1.81,1.81,0,0,1-1.95-1.18A5.74,5.74,0,0,1,29.66,49.36Z"/><path class="a" d="M14.21,49.36a6.1,6.1,0,0,0-.08-1.1,1.79,1.79,0,0,0-1.86-1.42,1.7,1.7,0,0,0-1.9,1.37,5.91,5.91,0,0,0,0,1.24,4.7,4.7,0,0,0,.07,1.2,1.71,1.71,0,0,0,1.8,1.28,1.87,1.87,0,0,0,1.94-1.29A4.82,4.82,0,0,0,14.21,49.36Z"/><path class="a" d="M21.92,49.36a6.1,6.1,0,0,0-.08-1.1A1.78,1.78,0,0,0,20,46.84a1.7,1.7,0,0,0-1.91,1.37,6,6,0,0,0,0,1.24,4.3,4.3,0,0,0,.06,1.2,1.71,1.71,0,0,0,1.81,1.28,1.85,1.85,0,0,0,1.93-1.29A4.82,4.82,0,0,0,21.92,49.36Z"/><path class="a" d="M25.82,49.36a6,6,0,0,0-.09-1.1,1.78,1.78,0,0,0-1.85-1.42A1.7,1.7,0,0,0,22,48.21a6,6,0,0,0,0,1.24,4.3,4.3,0,0,0,.06,1.2,1.72,1.72,0,0,0,1.81,1.28,1.85,1.85,0,0,0,1.93-1.29A4.8,4.8,0,0,0,25.82,49.36Z"/><path class="a" d="M14.17,49.36a5.26,5.26,0,0,1,.09-1.1,1.77,1.77,0,0,1,1.85-1.42A1.7,1.7,0,0,1,18,48.21a5.91,5.91,0,0,1,0,1.24,4.29,4.29,0,0,1-.07,1.2,1.7,1.7,0,0,1-1.8,1.28,1.8,1.8,0,0,1-2-1.18A5.74,5.74,0,0,1,14.17,49.36Z"/><path class="a" d="M41.29,49.36a6.1,6.1,0,0,1,.08-1.1,1.79,1.79,0,0,1,1.86-1.42,1.7,1.7,0,0,1,1.9,1.37,5.91,5.91,0,0,1,0,1.24,4.7,4.7,0,0,1-.07,1.2,1.71,1.71,0,0,1-1.8,1.28,1.8,1.8,0,0,1-2-1.18A5.74,5.74,0,0,1,41.29,49.36Z"/><path class="a" d="M45.18,49.36a6.1,6.1,0,0,1,.08-1.1,1.79,1.79,0,0,1,1.86-1.42A1.7,1.7,0,0,1,49,48.21a5.91,5.91,0,0,1,0,1.24,4.7,4.7,0,0,1-.07,1.2,1.71,1.71,0,0,1-1.8,1.28,1.8,1.8,0,0,1-2-1.18A5.74,5.74,0,0,1,45.18,49.36Z"/><path class="a" d="M29.7,56.05A5.92,5.92,0,0,0,29.62,55a1.79,1.79,0,0,0-1.85-1.43,1.7,1.7,0,0,0-1.91,1.37,5.91,5.91,0,0,0-.05,1.24,4.78,4.78,0,0,0,.07,1.21,1.71,1.71,0,0,0,1.8,1.27,1.87,1.87,0,0,0,1.94-1.29A4.82,4.82,0,0,0,29.7,56.05Z"/><path class="a" d="M37.42,56.05A5.85,5.85,0,0,0,37.33,55a1.78,1.78,0,0,0-1.85-1.43,1.68,1.68,0,0,0-1.9,1.37,5.3,5.3,0,0,0,0,1.24,4.37,4.37,0,0,0,.06,1.21,1.72,1.72,0,0,0,1.81,1.27,1.85,1.85,0,0,0,1.93-1.29A4.8,4.8,0,0,0,37.42,56.05Z"/><path class="a" d="M41.31,56.05A5.85,5.85,0,0,0,41.22,55a1.78,1.78,0,0,0-1.85-1.43,1.7,1.7,0,0,0-1.9,1.37,5.91,5.91,0,0,0,0,1.24,4.8,4.8,0,0,0,.06,1.21,1.72,1.72,0,0,0,1.81,1.27,1.87,1.87,0,0,0,1.94-1.29A4.82,4.82,0,0,0,41.31,56.05Z"/><path class="a" d="M29.66,56.05A5.85,5.85,0,0,1,29.75,55a1.78,1.78,0,0,1,1.85-1.43,1.68,1.68,0,0,1,1.9,1.37,5.3,5.3,0,0,1,0,1.24,4.37,4.37,0,0,1-.06,1.21,1.72,1.72,0,0,1-1.81,1.27,1.81,1.81,0,0,1-1.95-1.18A5.74,5.74,0,0,1,29.66,56.05Z"/><path class="a" d="M14.21,56.05A5.92,5.92,0,0,0,14.13,55a1.79,1.79,0,0,0-1.86-1.43,1.7,1.7,0,0,0-1.9,1.37,5.91,5.91,0,0,0,0,1.24,4.78,4.78,0,0,0,.07,1.21,1.71,1.71,0,0,0,1.8,1.27,1.87,1.87,0,0,0,1.94-1.29A4.82,4.82,0,0,0,14.21,56.05Z"/><path class="a" d="M21.92,56.05A5.92,5.92,0,0,0,21.84,55,1.78,1.78,0,0,0,20,53.53a1.7,1.7,0,0,0-1.91,1.37,6,6,0,0,0,0,1.24,4.37,4.37,0,0,0,.06,1.21,1.71,1.71,0,0,0,1.81,1.27,1.85,1.85,0,0,0,1.93-1.29A4.82,4.82,0,0,0,21.92,56.05Z"/><path class="a" d="M25.82,56.05A5.85,5.85,0,0,0,25.73,55a1.78,1.78,0,0,0-1.85-1.43A1.7,1.7,0,0,0,22,54.9a6,6,0,0,0,0,1.24A4.37,4.37,0,0,0,22,57.35a1.72,1.72,0,0,0,1.81,1.27,1.85,1.85,0,0,0,1.93-1.29A4.8,4.8,0,0,0,25.82,56.05Z"/><path class="a" d="M14.17,56.05A5.11,5.11,0,0,1,14.26,55a1.78,1.78,0,0,1,1.85-1.43A1.7,1.7,0,0,1,18,54.9a5.91,5.91,0,0,1,0,1.24A4.36,4.36,0,0,1,18,57.35a1.7,1.7,0,0,1-1.8,1.27,1.8,1.8,0,0,1-2-1.18A5.74,5.74,0,0,1,14.17,56.05Z"/><path class="a" d="M41.29,56.05A5.92,5.92,0,0,1,41.37,55a1.79,1.79,0,0,1,1.86-1.43,1.7,1.7,0,0,1,1.9,1.37,5.91,5.91,0,0,1,0,1.24,4.78,4.78,0,0,1-.07,1.21,1.71,1.71,0,0,1-1.8,1.27,1.8,1.8,0,0,1-2-1.18A5.74,5.74,0,0,1,41.29,56.05Z"/><path class="a" d="M45.18,56.05A5.92,5.92,0,0,1,45.26,55a1.79,1.79,0,0,1,1.86-1.43A1.7,1.7,0,0,1,49,54.9a5.91,5.91,0,0,1,0,1.24A4.78,4.78,0,0,1,49,57.35a1.71,1.71,0,0,1-1.8,1.27,1.8,1.8,0,0,1-2-1.18A5.74,5.74,0,0,1,45.18,56.05Z"/><path class="a" d="M29.7,62.74a5.92,5.92,0,0,0-.08-1.09,1.78,1.78,0,0,0-1.85-1.42,1.69,1.69,0,0,0-1.91,1.36,5.94,5.94,0,0,0-.05,1.24A4.78,4.78,0,0,0,25.88,64a1.73,1.73,0,0,0,1.8,1.28A1.88,1.88,0,0,0,29.62,64,4.89,4.89,0,0,0,29.7,62.74Z"/><path class="a" d="M37.42,62.74a5.85,5.85,0,0,0-.09-1.09,1.78,1.78,0,0,0-1.85-1.42,1.68,1.68,0,0,0-1.9,1.36,5.33,5.33,0,0,0,0,1.24A4.37,4.37,0,0,0,33.59,64a1.74,1.74,0,0,0,1.81,1.28A1.86,1.86,0,0,0,37.33,64,4.88,4.88,0,0,0,37.42,62.74Z"/><path class="a" d="M41.31,62.74a5.85,5.85,0,0,0-.09-1.09,1.77,1.77,0,0,0-1.85-1.42,1.69,1.69,0,0,0-1.9,1.36,5.94,5.94,0,0,0,0,1.24A4.8,4.8,0,0,0,37.48,64a1.74,1.74,0,0,0,1.81,1.28A1.88,1.88,0,0,0,41.23,64,4.89,4.89,0,0,0,41.31,62.74Z"/><path class="a" d="M29.66,62.74a5.85,5.85,0,0,1,.09-1.09,1.78,1.78,0,0,1,1.85-1.42,1.68,1.68,0,0,1,1.9,1.36,5.33,5.33,0,0,1,0,1.24A4.37,4.37,0,0,1,33.49,64a1.74,1.74,0,0,1-1.81,1.28,1.83,1.83,0,0,1-1.95-1.19A5.68,5.68,0,0,1,29.66,62.74Z"/><path class="a" d="M14.21,62.74a5.92,5.92,0,0,0-.08-1.09,1.79,1.79,0,0,0-1.86-1.42,1.69,1.69,0,0,0-1.9,1.36,5.94,5.94,0,0,0,0,1.24A4.78,4.78,0,0,0,10.39,64a1.73,1.73,0,0,0,1.8,1.28A1.88,1.88,0,0,0,14.13,64,4.89,4.89,0,0,0,14.21,62.74Z"/><path class="a" d="M21.92,62.74a5.92,5.92,0,0,0-.08-1.09A1.78,1.78,0,0,0,20,60.23a1.69,1.69,0,0,0-1.91,1.36,6,6,0,0,0,0,1.24A4.37,4.37,0,0,0,18.1,64a1.73,1.73,0,0,0,1.81,1.28A1.86,1.86,0,0,0,21.84,64,4.89,4.89,0,0,0,21.92,62.74Z"/><path class="a" d="M25.82,62.74a5.85,5.85,0,0,0-.09-1.09,1.78,1.78,0,0,0-1.85-1.42A1.69,1.69,0,0,0,22,61.59a6,6,0,0,0,0,1.24A4.37,4.37,0,0,0,22,64a1.74,1.74,0,0,0,1.81,1.28A1.86,1.86,0,0,0,25.73,64,4.88,4.88,0,0,0,25.82,62.74Z"/><path class="a" d="M14.17,62.74a5.11,5.11,0,0,1,.09-1.09,1.77,1.77,0,0,1,1.85-1.42A1.69,1.69,0,0,1,18,61.59a5.94,5.94,0,0,1,0,1.24A4.36,4.36,0,0,1,18,64a1.72,1.72,0,0,1-1.8,1.28,1.82,1.82,0,0,1-2-1.19A5.68,5.68,0,0,1,14.17,62.74Z"/><path class="a" d="M41.29,62.74a5.92,5.92,0,0,1,.08-1.09,1.79,1.79,0,0,1,1.86-1.42,1.69,1.69,0,0,1,1.9,1.36,5.94,5.94,0,0,1,0,1.24A4.78,4.78,0,0,1,45.11,64a1.73,1.73,0,0,1-1.8,1.28,1.82,1.82,0,0,1-2-1.19A5.68,5.68,0,0,1,41.29,62.74Z"/><path class="a" d="M45.18,62.74a5.92,5.92,0,0,1,.08-1.09,1.79,1.79,0,0,1,1.86-1.42A1.69,1.69,0,0,1,49,61.59a5.94,5.94,0,0,1,0,1.24A4.78,4.78,0,0,1,49,64a1.73,1.73,0,0,1-1.8,1.28,1.82,1.82,0,0,1-2-1.19A5.68,5.68,0,0,1,45.18,62.74Z"/><path class="a" d="M19.39,2.52a5.2,5.2,0,0,0-.09-1.1A1.77,1.77,0,0,0,17.45,0a1.7,1.7,0,0,0-1.9,1.36A6,6,0,0,0,15.5,2.6a4.36,4.36,0,0,0,.07,1.21,1.72,1.72,0,0,0,1.8,1.28A1.87,1.87,0,0,0,19.31,3.8,4.82,4.82,0,0,0,19.39,2.52Z"/><path class="a" d="M27.1,2.52A6,6,0,0,0,27,1.42,1.79,1.79,0,0,0,25.16,0a1.7,1.7,0,0,0-1.9,1.36,6,6,0,0,0-.05,1.24,4.78,4.78,0,0,0,.07,1.21,1.73,1.73,0,0,0,1.8,1.28A1.87,1.87,0,0,0,27,3.8,4.82,4.82,0,0,0,27.1,2.52Z"/><path class="a" d="M31,2.52a6,6,0,0,0-.08-1.1A1.78,1.78,0,0,0,29.06,0a1.7,1.7,0,0,0-1.91,1.36,5.41,5.41,0,0,0,0,1.24,4.37,4.37,0,0,0,.06,1.21A1.73,1.73,0,0,0,29,5.09,1.86,1.86,0,0,0,30.91,3.8,4.82,4.82,0,0,0,31,2.52Z"/><path class="a" d="M19.35,2.52a6,6,0,0,1,.08-1.1A1.79,1.79,0,0,1,21.29,0a1.7,1.7,0,0,1,1.9,1.36,6,6,0,0,1,0,1.24,4.78,4.78,0,0,1-.07,1.21,1.73,1.73,0,0,1-1.8,1.28A1.81,1.81,0,0,1,19.42,3.9,5.63,5.63,0,0,1,19.35,2.52Z"/><path class="a" d="M3.9,2.52a6,6,0,0,0-.09-1.1A1.78,1.78,0,0,0,2,0,1.68,1.68,0,0,0,.06,1.36,5.35,5.35,0,0,0,0,2.6,4.37,4.37,0,0,0,.07,3.81,1.74,1.74,0,0,0,1.88,5.09,1.85,1.85,0,0,0,3.81,3.8,4.8,4.8,0,0,0,3.9,2.52Z"/><path class="a" d="M11.61,2.52a6,6,0,0,0-.08-1.1A1.79,1.79,0,0,0,9.67,0a1.7,1.7,0,0,0-1.9,1.36,6,6,0,0,0,0,1.24,4.78,4.78,0,0,0,.07,1.21,1.73,1.73,0,0,0,1.8,1.28A1.87,1.87,0,0,0,11.53,3.8,4.82,4.82,0,0,0,11.61,2.52Z"/><path class="a" d="M15.5,2.52a6,6,0,0,0-.08-1.1A1.79,1.79,0,0,0,13.56,0a1.7,1.7,0,0,0-1.9,1.36,6,6,0,0,0-.05,1.24,4.78,4.78,0,0,0,.07,1.21,1.73,1.73,0,0,0,1.8,1.28A1.87,1.87,0,0,0,15.42,3.8,4.82,4.82,0,0,0,15.5,2.52Z"/><path class="a" d="M3.86,2.52a6,6,0,0,1,.08-1.1A1.78,1.78,0,0,1,5.79,0,1.7,1.7,0,0,1,7.7,1.36a6,6,0,0,1,0,1.24,4.78,4.78,0,0,1-.07,1.21,1.73,1.73,0,0,1-1.8,1.28,1.83,1.83,0,0,1-2-1.19A5.65,5.65,0,0,1,3.86,2.52Z"/><path class="a" d="M31,2.52a6,6,0,0,1,.09-1.1A1.77,1.77,0,0,1,33,0a1.69,1.69,0,0,1,1.9,1.36,6,6,0,0,1,0,1.24,4.8,4.8,0,0,1-.06,1.21A1.74,1.74,0,0,1,33,5.09,1.81,1.81,0,0,1,31.09,3.9,5.63,5.63,0,0,1,31,2.52Z"/><path class="a" d="M57.28,2.52a6,6,0,0,1,.09-1.1A1.78,1.78,0,0,1,59.22,0a1.68,1.68,0,0,1,1.9,1.36,5.35,5.35,0,0,1,.05,1.24,4.8,4.8,0,0,1-.06,1.21A1.74,1.74,0,0,1,59.3,5.09,1.87,1.87,0,0,1,57.36,3.8,4.82,4.82,0,0,1,57.28,2.52Z"/><path class="a" d="M28.64,29.28a5.85,5.85,0,0,0-.09-1.09,1.77,1.77,0,0,0-1.85-1.42,1.69,1.69,0,0,0-1.9,1.36,5.94,5.94,0,0,0-.05,1.24,4.8,4.8,0,0,0,.06,1.21,1.74,1.74,0,0,0,1.81,1.28,1.88,1.88,0,0,0,1.94-1.29A4.89,4.89,0,0,0,28.64,29.28Z"/><path class="a" d="M36.35,29.28a5.92,5.92,0,0,0-.08-1.09,1.79,1.79,0,0,0-1.86-1.42,1.69,1.69,0,0,0-1.9,1.36,5.94,5.94,0,0,0,0,1.24,4.78,4.78,0,0,0,.07,1.21,1.73,1.73,0,0,0,1.8,1.28,1.88,1.88,0,0,0,1.94-1.29A4.89,4.89,0,0,0,36.35,29.28Z"/><path class="a" d="M40.24,29.28a5.92,5.92,0,0,0-.08-1.09,1.78,1.78,0,0,0-1.85-1.42,1.69,1.69,0,0,0-1.91,1.36,5.94,5.94,0,0,0,0,1.24,4.78,4.78,0,0,0,.07,1.21,1.73,1.73,0,0,0,1.8,1.28,1.88,1.88,0,0,0,1.94-1.29A4.89,4.89,0,0,0,40.24,29.28Z"/><path class="a" d="M28.6,29.28a5.92,5.92,0,0,1,.08-1.09,1.79,1.79,0,0,1,1.86-1.42,1.69,1.69,0,0,1,1.9,1.36,5.94,5.94,0,0,1,.05,1.24,4.78,4.78,0,0,1-.07,1.21,1.73,1.73,0,0,1-1.8,1.28,1.82,1.82,0,0,1-1.95-1.19A5.68,5.68,0,0,1,28.6,29.28Z"/><path class="a" d="M13.15,29.28a5.85,5.85,0,0,0-.09-1.09,1.78,1.78,0,0,0-1.85-1.42,1.68,1.68,0,0,0-1.9,1.36,5.33,5.33,0,0,0-.05,1.24,4.37,4.37,0,0,0,.06,1.21,1.74,1.74,0,0,0,1.81,1.28,1.86,1.86,0,0,0,1.93-1.29A4.88,4.88,0,0,0,13.15,29.28Z"/><path class="a" d="M20.86,29.28a5.92,5.92,0,0,0-.08-1.09,1.79,1.79,0,0,0-1.86-1.42A1.69,1.69,0,0,0,17,28.13,5.94,5.94,0,0,0,17,29.37,4.78,4.78,0,0,0,17,30.58a1.73,1.73,0,0,0,1.8,1.28,1.88,1.88,0,0,0,1.94-1.29A4.89,4.89,0,0,0,20.86,29.28Z"/><path class="a" d="M24.75,29.28a5.92,5.92,0,0,0-.08-1.09,1.79,1.79,0,0,0-1.86-1.42,1.69,1.69,0,0,0-1.9,1.36,5.94,5.94,0,0,0-.05,1.24,4.78,4.78,0,0,0,.07,1.21,1.73,1.73,0,0,0,1.8,1.28,1.88,1.88,0,0,0,1.94-1.29A4.89,4.89,0,0,0,24.75,29.28Z"/><path class="a" d="M13.11,29.28a5.92,5.92,0,0,1,.08-1.09A1.78,1.78,0,0,1,15,26.77,1.69,1.69,0,0,1,17,28.13,5.94,5.94,0,0,1,17,29.37a4.78,4.78,0,0,1-.07,1.21,1.73,1.73,0,0,1-1.8,1.28,1.84,1.84,0,0,1-2-1.19A5.7,5.7,0,0,1,13.11,29.28Z"/><path class="a" d="M40.27,29.28a5.85,5.85,0,0,1,.09-1.09,1.77,1.77,0,0,1,1.85-1.42,1.69,1.69,0,0,1,1.9,1.36,5.94,5.94,0,0,1,0,1.24,4.8,4.8,0,0,1-.06,1.21,1.74,1.74,0,0,1-1.81,1.28,1.82,1.82,0,0,1-1.95-1.19A5.68,5.68,0,0,1,40.27,29.28Z"/><path class="a" d="M47.92,29.28A5.85,5.85,0,0,1,48,28.19a1.78,1.78,0,0,1,1.85-1.42,1.69,1.69,0,0,1,1.91,1.36,6,6,0,0,1,0,1.24,4.37,4.37,0,0,1-.06,1.21,1.73,1.73,0,0,1-1.81,1.28A1.83,1.83,0,0,1,48,30.67,5.68,5.68,0,0,1,47.92,29.28Z"/><path class="a" d="M25.9,22.59a5.92,5.92,0,0,0-.08-1.09A1.78,1.78,0,0,0,24,20.08a1.69,1.69,0,0,0-1.91,1.36,6,6,0,0,0,0,1.24,4.37,4.37,0,0,0,.06,1.21,1.73,1.73,0,0,0,1.81,1.28,1.87,1.87,0,0,0,1.93-1.3A4.82,4.82,0,0,0,25.9,22.59Z"/><path class="a" d="M33.62,22.59a5.11,5.11,0,0,0-.09-1.09,1.77,1.77,0,0,0-1.85-1.42,1.69,1.69,0,0,0-1.9,1.36,5.91,5.91,0,0,0-.05,1.24,4.36,4.36,0,0,0,.07,1.21,1.72,1.72,0,0,0,1.8,1.28,1.89,1.89,0,0,0,1.94-1.3A4.82,4.82,0,0,0,33.62,22.59Z"/><path class="a" d="M37.51,22.59a5.92,5.92,0,0,0-.08-1.09,1.79,1.79,0,0,0-1.86-1.42,1.69,1.69,0,0,0-1.9,1.36,5.91,5.91,0,0,0-.05,1.24,4.36,4.36,0,0,0,.07,1.21,1.72,1.72,0,0,0,1.8,1.28,1.89,1.89,0,0,0,1.94-1.3A4.82,4.82,0,0,0,37.51,22.59Z"/><path class="a" d="M25.87,22.59A5.92,5.92,0,0,1,26,21.5a1.78,1.78,0,0,1,1.85-1.42,1.69,1.69,0,0,1,1.91,1.36,6,6,0,0,1,0,1.24,4.37,4.37,0,0,1-.06,1.21,1.73,1.73,0,0,1-1.81,1.28A1.83,1.83,0,0,1,25.93,24,5.73,5.73,0,0,1,25.87,22.59Z"/><path class="a" d="M10.41,22.59a5.92,5.92,0,0,0-.08-1.09,1.79,1.79,0,0,0-1.86-1.42,1.69,1.69,0,0,0-1.9,1.36,5.91,5.91,0,0,0-.05,1.24,4.78,4.78,0,0,0,.07,1.21,1.73,1.73,0,0,0,1.8,1.28,1.88,1.88,0,0,0,1.94-1.3A4.82,4.82,0,0,0,10.41,22.59Z"/><path class="a" d="M18.13,22.59A5.85,5.85,0,0,0,18,21.5a1.78,1.78,0,0,0-1.85-1.42,1.68,1.68,0,0,0-1.9,1.36,5.3,5.3,0,0,0,0,1.24,4.37,4.37,0,0,0,.06,1.21,1.74,1.74,0,0,0,1.81,1.28A1.87,1.87,0,0,0,18,23.87,4.8,4.8,0,0,0,18.13,22.59Z"/><path class="a" d="M22,22.59a5.85,5.85,0,0,0-.09-1.09,1.78,1.78,0,0,0-1.85-1.42,1.68,1.68,0,0,0-1.9,1.36,5.3,5.3,0,0,0-.05,1.24,4.8,4.8,0,0,0,.06,1.21A1.74,1.74,0,0,0,20,25.17a1.89,1.89,0,0,0,1.94-1.3A4.82,4.82,0,0,0,22,22.59Z"/><path class="a" d="M10.37,22.59a5.85,5.85,0,0,1,.09-1.09,1.78,1.78,0,0,1,1.85-1.42,1.68,1.68,0,0,1,1.9,1.36,5.3,5.3,0,0,1,0,1.24,4.37,4.37,0,0,1-.06,1.21,1.74,1.74,0,0,1-1.81,1.28,1.82,1.82,0,0,1-2-1.19A5.71,5.71,0,0,1,10.37,22.59Z"/><path class="a" d="M37.54,22.59a5.92,5.92,0,0,1,.08-1.09,1.79,1.79,0,0,1,1.86-1.42,1.69,1.69,0,0,1,1.9,1.36,5.91,5.91,0,0,1,0,1.24,4.78,4.78,0,0,1-.07,1.21,1.73,1.73,0,0,1-1.8,1.28,1.82,1.82,0,0,1-2-1.19A5.71,5.71,0,0,1,37.54,22.59Z"/><path class="a" d="M50.4,22.59a5.92,5.92,0,0,1,.08-1.09,1.78,1.78,0,0,1,1.85-1.42,1.69,1.69,0,0,1,1.91,1.36,5.36,5.36,0,0,1,0,1.24,4.37,4.37,0,0,1-.06,1.21,1.73,1.73,0,0,1-1.8,1.28,1.83,1.83,0,0,1-2-1.19A5.73,5.73,0,0,1,50.4,22.59Z"/><path class="a" d="M23.66,15.9a5.92,5.92,0,0,0-.08-1.09,1.78,1.78,0,0,0-1.85-1.43,1.7,1.7,0,0,0-1.91,1.37,5.36,5.36,0,0,0,0,1.24,4.3,4.3,0,0,0,.06,1.2,1.71,1.71,0,0,0,1.8,1.28,1.86,1.86,0,0,0,1.94-1.29A4.82,4.82,0,0,0,23.66,15.9Z"/><path class="a" d="M31.38,15.9a5.85,5.85,0,0,0-.09-1.09,1.77,1.77,0,0,0-1.85-1.43,1.68,1.68,0,0,0-1.9,1.37A5.3,5.3,0,0,0,27.49,16a4.72,4.72,0,0,0,.06,1.2,1.72,1.72,0,0,0,1.81,1.28,1.87,1.87,0,0,0,1.94-1.29A4.82,4.82,0,0,0,31.38,15.9Z"/><path class="a" d="M35.27,15.9a5.11,5.11,0,0,0-.09-1.09,1.77,1.77,0,0,0-1.85-1.43,1.7,1.7,0,0,0-1.9,1.37A5.91,5.91,0,0,0,31.38,16a4.29,4.29,0,0,0,.07,1.2,1.7,1.7,0,0,0,1.8,1.28,1.87,1.87,0,0,0,1.94-1.29A4.82,4.82,0,0,0,35.27,15.9Z"/><path class="a" d="M23.62,15.9a5.85,5.85,0,0,1,.09-1.09,1.77,1.77,0,0,1,1.85-1.43,1.7,1.7,0,0,1,1.91,1.37,6,6,0,0,1,0,1.24,4.3,4.3,0,0,1-.06,1.2,1.72,1.72,0,0,1-1.81,1.28,1.81,1.81,0,0,1-1.95-1.18A5.74,5.74,0,0,1,23.62,15.9Z"/><path class="a" d="M8.17,15.9a5.92,5.92,0,0,0-.08-1.09,1.78,1.78,0,0,0-1.86-1.43,1.7,1.7,0,0,0-1.9,1.37,5.91,5.91,0,0,0,0,1.24,4.7,4.7,0,0,0,.07,1.2,1.71,1.71,0,0,0,1.8,1.28,1.87,1.87,0,0,0,1.94-1.29A4.82,4.82,0,0,0,8.17,15.9Z"/><path class="a" d="M15.89,15.9a5.85,5.85,0,0,0-.09-1.09A1.77,1.77,0,0,0,14,13.38,1.7,1.7,0,0,0,12,14.75,6,6,0,0,0,12,16a4.3,4.3,0,0,0,.06,1.2,1.71,1.71,0,0,0,1.81,1.28,1.85,1.85,0,0,0,1.93-1.29A4.8,4.8,0,0,0,15.89,15.9Z"/><path class="a" d="M19.78,15.9a5.85,5.85,0,0,0-.09-1.09,1.77,1.77,0,0,0-1.85-1.43,1.68,1.68,0,0,0-1.9,1.37,5.3,5.3,0,0,0,0,1.24,4.3,4.3,0,0,0,.06,1.2,1.72,1.72,0,0,0,1.81,1.28,1.85,1.85,0,0,0,1.93-1.29A4.8,4.8,0,0,0,19.78,15.9Z"/><path class="a" d="M8.13,15.9a5.85,5.85,0,0,1,.09-1.09,1.77,1.77,0,0,1,1.85-1.43A1.7,1.7,0,0,1,12,14.75,5.91,5.91,0,0,1,12,16a4.72,4.72,0,0,1-.06,1.2,1.72,1.72,0,0,1-1.81,1.28,1.8,1.8,0,0,1-2-1.18A5.74,5.74,0,0,1,8.13,15.9Z"/><path class="a" d="M35.3,15.9a5.92,5.92,0,0,1,.08-1.09,1.78,1.78,0,0,1,1.86-1.43,1.7,1.7,0,0,1,1.9,1.37,5.91,5.91,0,0,1,0,1.24,4.7,4.7,0,0,1-.07,1.2,1.71,1.71,0,0,1-1.8,1.28,1.82,1.82,0,0,1-2-1.18A6.31,6.31,0,0,1,35.3,15.9Z"/><path class="a" d="M52.76,15.9a5.92,5.92,0,0,1,.08-1.09,1.78,1.78,0,0,1,1.86-1.43,1.7,1.7,0,0,1,1.9,1.37,5.91,5.91,0,0,1,0,1.24,4.7,4.7,0,0,1-.07,1.2,1.71,1.71,0,0,1-1.8,1.28,1.8,1.8,0,0,1-2-1.18A5.74,5.74,0,0,1,52.76,15.9Z"/><path class="a" d="M21.34,9.21a6.1,6.1,0,0,0-.08-1.1A1.79,1.79,0,0,0,19.4,6.69a1.7,1.7,0,0,0-1.9,1.36,6,6,0,0,0-.05,1.25,4.73,4.73,0,0,0,.07,1.2,1.72,1.72,0,0,0,1.8,1.28,1.87,1.87,0,0,0,1.94-1.29A4.82,4.82,0,0,0,21.34,9.21Z"/><path class="a" d="M29.06,9.21A6,6,0,0,0,29,8.11a1.78,1.78,0,0,0-1.85-1.42,1.68,1.68,0,0,0-1.9,1.36,5.41,5.41,0,0,0,0,1.25,4.32,4.32,0,0,0,.06,1.2A1.73,1.73,0,0,0,27,11.78,1.85,1.85,0,0,0,29,10.49,4.8,4.8,0,0,0,29.06,9.21Z"/><path class="a" d="M33,9.21a6,6,0,0,0-.09-1.1A1.78,1.78,0,0,0,31,6.69a1.68,1.68,0,0,0-1.9,1.36,5.41,5.41,0,0,0-.05,1.25,4.32,4.32,0,0,0,.06,1.2,1.73,1.73,0,0,0,1.81,1.28,1.85,1.85,0,0,0,1.93-1.29A4.8,4.8,0,0,0,33,9.21Z"/><path class="a" d="M21.3,9.21a6,6,0,0,1,.09-1.1,1.78,1.78,0,0,1,1.85-1.42,1.68,1.68,0,0,1,1.9,1.36,5.41,5.41,0,0,1,.05,1.25,4.32,4.32,0,0,1-.06,1.2,1.73,1.73,0,0,1-1.81,1.28,1.81,1.81,0,0,1-1.95-1.19A5.63,5.63,0,0,1,21.3,9.21Z"/><path class="a" d="M5.85,9.21a6.1,6.1,0,0,0-.08-1.1A1.79,1.79,0,0,0,3.91,6.69,1.7,1.7,0,0,0,2,8.05,6,6,0,0,0,2,9.3,4.73,4.73,0,0,0,2,10.5a1.72,1.72,0,0,0,1.8,1.28,1.87,1.87,0,0,0,1.94-1.29A4.82,4.82,0,0,0,5.85,9.21Z"/><path class="a" d="M13.56,9.21a6.1,6.1,0,0,0-.08-1.1,1.78,1.78,0,0,0-1.85-1.42A1.7,1.7,0,0,0,9.72,8.05a5.48,5.48,0,0,0,0,1.25,4.32,4.32,0,0,0,.06,1.2,1.72,1.72,0,0,0,1.8,1.28,1.86,1.86,0,0,0,1.94-1.29A4.82,4.82,0,0,0,13.56,9.21Z"/><path class="a" d="M17.45,9.21a6.1,6.1,0,0,0-.08-1.1,1.78,1.78,0,0,0-1.85-1.42,1.7,1.7,0,0,0-1.91,1.36,6.12,6.12,0,0,0,0,1.25,4.32,4.32,0,0,0,.06,1.2,1.72,1.72,0,0,0,1.81,1.28,1.85,1.85,0,0,0,1.93-1.29A4.82,4.82,0,0,0,17.45,9.21Z"/><path class="a" d="M5.81,9.21a6.1,6.1,0,0,1,.08-1.1A1.79,1.79,0,0,1,7.75,6.69a1.7,1.7,0,0,1,1.9,1.36,6,6,0,0,1,0,1.25,4.31,4.31,0,0,1-.07,1.2,1.71,1.71,0,0,1-1.8,1.28,1.81,1.81,0,0,1-1.95-1.19A5.63,5.63,0,0,1,5.81,9.21Z"/><path class="a" d="M33,9.21a6.1,6.1,0,0,1,.08-1.1,1.78,1.78,0,0,1,1.85-1.42,1.7,1.7,0,0,1,1.91,1.36,6.12,6.12,0,0,1,0,1.25,4.32,4.32,0,0,1-.06,1.2A1.72,1.72,0,0,1,35,11.78a1.82,1.82,0,0,1-2-1.19A5.65,5.65,0,0,1,33,9.21Z"/><path class="a" d="M55.09,9.21a6.1,6.1,0,0,1,.08-1.1A1.79,1.79,0,0,1,57,6.69a1.7,1.7,0,0,1,1.9,1.36A6,6,0,0,1,59,9.3a4.31,4.31,0,0,1-.07,1.2,1.71,1.71,0,0,1-1.8,1.28,1.81,1.81,0,0,1-2-1.19A5.63,5.63,0,0,1,55.09,9.21Z"/></svg>