<svg xmlns="http://www.w3.org/2000/svg" width="57.27" height="65.32" viewBox="0 0 57.27 65.32"><defs><style>.a{fill:#21364f;}</style></defs><title>Asset 138</title><path class="a" d="M19.39,29.28a5.11,5.11,0,0,0-.09-1.09,1.77,1.77,0,0,0-1.85-1.42,1.69,1.69,0,0,0-1.9,1.36,5.94,5.94,0,0,0-.05,1.24,4.36,4.36,0,0,0,.07,1.21,1.72,1.72,0,0,0,1.8,1.28,1.88,1.88,0,0,0,1.94-1.29A4.89,4.89,0,0,0,19.39,29.28Z"/><path class="a" d="M27.1,29.28A5.92,5.92,0,0,0,27,28.19a1.79,1.79,0,0,0-1.86-1.42,1.69,1.69,0,0,0-1.9,1.36,5.94,5.94,0,0,0-.05,1.24,4.78,4.78,0,0,0,.07,1.21,1.73,1.73,0,0,0,1.8,1.28A1.88,1.88,0,0,0,27,30.57,4.89,4.89,0,0,0,27.1,29.28Z"/><path class="a" d="M31,29.28a5.92,5.92,0,0,0-.08-1.09,1.78,1.78,0,0,0-1.85-1.42,1.69,1.69,0,0,0-1.91,1.36,5.39,5.39,0,0,0,0,1.24,4.37,4.37,0,0,0,.06,1.21A1.73,1.73,0,0,0,29,31.86a1.87,1.87,0,0,0,1.94-1.29A4.89,4.89,0,0,0,31,29.28Z"/><path class="a" d="M19.35,29.28a5.92,5.92,0,0,1,.08-1.09,1.79,1.79,0,0,1,1.86-1.42,1.69,1.69,0,0,1,1.9,1.36,5.94,5.94,0,0,1,0,1.24,4.78,4.78,0,0,1-.07,1.21,1.73,1.73,0,0,1-1.8,1.28,1.82,1.82,0,0,1-1.95-1.19A5.68,5.68,0,0,1,19.35,29.28Z"/><path class="a" d="M3.9,29.28a5.85,5.85,0,0,0-.09-1.09A1.78,1.78,0,0,0,2,26.77a1.68,1.68,0,0,0-1.9,1.36,5.33,5.33,0,0,0,0,1.24,4.37,4.37,0,0,0,.06,1.21,1.74,1.74,0,0,0,1.81,1.28,1.86,1.86,0,0,0,1.93-1.29A4.88,4.88,0,0,0,3.9,29.28Z"/><path class="a" d="M11.61,29.28a5.92,5.92,0,0,0-.08-1.09,1.79,1.79,0,0,0-1.86-1.42,1.69,1.69,0,0,0-1.9,1.36,5.94,5.94,0,0,0,0,1.24,4.78,4.78,0,0,0,.07,1.21,1.73,1.73,0,0,0,1.8,1.28,1.88,1.88,0,0,0,1.94-1.29A4.89,4.89,0,0,0,11.61,29.28Z"/><path class="a" d="M15.5,29.28a5.92,5.92,0,0,0-.08-1.09,1.79,1.79,0,0,0-1.86-1.42,1.69,1.69,0,0,0-1.9,1.36,5.94,5.94,0,0,0-.05,1.24,4.78,4.78,0,0,0,.07,1.21,1.73,1.73,0,0,0,1.8,1.28,1.88,1.88,0,0,0,1.94-1.29A4.89,4.89,0,0,0,15.5,29.28Z"/><path class="a" d="M3.86,29.28a5.92,5.92,0,0,1,.08-1.09,1.78,1.78,0,0,1,1.85-1.42A1.69,1.69,0,0,1,7.7,28.13a5.94,5.94,0,0,1,0,1.24,4.78,4.78,0,0,1-.07,1.21,1.73,1.73,0,0,1-1.8,1.28,1.84,1.84,0,0,1-2-1.19A5.7,5.7,0,0,1,3.86,29.28Z"/><path class="a" d="M31,29.28a5.85,5.85,0,0,1,.09-1.09,1.78,1.78,0,0,1,1.85-1.42,1.69,1.69,0,0,1,1.91,1.36,6,6,0,0,1,0,1.24,4.37,4.37,0,0,1-.06,1.21A1.74,1.74,0,0,1,33,31.86a1.83,1.83,0,0,1-2-1.19A5.68,5.68,0,0,1,31,29.28Z"/><path class="a" d="M34.87,29.28A5.92,5.92,0,0,1,35,28.19a1.78,1.78,0,0,1,1.85-1.42,1.69,1.69,0,0,1,1.91,1.36,6,6,0,0,1,0,1.24,4.37,4.37,0,0,1-.06,1.21,1.73,1.73,0,0,1-1.81,1.28,1.83,1.83,0,0,1-2-1.19A5.7,5.7,0,0,1,34.87,29.28Z"/><path class="a" d="M53.38,62.74a5.92,5.92,0,0,1,.08-1.09,1.79,1.79,0,0,1,1.86-1.42,1.69,1.69,0,0,1,1.9,1.36,5.94,5.94,0,0,1,.05,1.24A4.78,4.78,0,0,1,57.2,64a1.73,1.73,0,0,1-1.8,1.28,1.82,1.82,0,0,1-1.95-1.19A5.68,5.68,0,0,1,53.38,62.74Z"/><path class="a" d="M19.74,62.74a5.92,5.92,0,0,0-.08-1.09,1.78,1.78,0,0,0-1.85-1.42,1.69,1.69,0,0,0-1.91,1.36,6,6,0,0,0,0,1.24A4.37,4.37,0,0,0,15.92,64a1.73,1.73,0,0,0,1.8,1.28A1.87,1.87,0,0,0,19.66,64,4.89,4.89,0,0,0,19.74,62.74Z"/><path class="a" d="M27.46,62.74a5.85,5.85,0,0,0-.09-1.09,1.77,1.77,0,0,0-1.85-1.42,1.69,1.69,0,0,0-1.9,1.36,5.94,5.94,0,0,0-.05,1.24A4.8,4.8,0,0,0,23.63,64a1.74,1.74,0,0,0,1.81,1.28A1.88,1.88,0,0,0,27.38,64,4.89,4.89,0,0,0,27.46,62.74Z"/><path class="a" d="M31.35,62.74a5.11,5.11,0,0,0-.09-1.09,1.77,1.77,0,0,0-1.85-1.42,1.69,1.69,0,0,0-1.9,1.36,5.94,5.94,0,0,0-.05,1.24A4.36,4.36,0,0,0,27.53,64a1.72,1.72,0,0,0,1.8,1.28A1.88,1.88,0,0,0,31.27,64,4.89,4.89,0,0,0,31.35,62.74Z"/><path class="a" d="M19.7,62.74a5.85,5.85,0,0,1,.09-1.09,1.78,1.78,0,0,1,1.85-1.42,1.69,1.69,0,0,1,1.91,1.36,6,6,0,0,1,0,1.24A4.37,4.37,0,0,1,23.53,64a1.73,1.73,0,0,1-1.81,1.28,1.83,1.83,0,0,1-1.95-1.19A5.68,5.68,0,0,1,19.7,62.74Z"/><path class="a" d="M4.25,62.74a5.92,5.92,0,0,0-.08-1.09,1.79,1.79,0,0,0-1.86-1.42,1.69,1.69,0,0,0-1.9,1.36,5.94,5.94,0,0,0,0,1.24A4.78,4.78,0,0,0,.43,64a1.73,1.73,0,0,0,1.8,1.28A1.88,1.88,0,0,0,4.17,64,4.89,4.89,0,0,0,4.25,62.74Z"/><path class="a" d="M12,62.74a5.85,5.85,0,0,0-.09-1.09A1.78,1.78,0,0,0,10,60.23a1.69,1.69,0,0,0-1.91,1.36,6,6,0,0,0,0,1.24A4.37,4.37,0,0,0,8.14,64,1.74,1.74,0,0,0,10,65.32,1.86,1.86,0,0,0,11.88,64,4.88,4.88,0,0,0,12,62.74Z"/><path class="a" d="M15.86,62.74a5.85,5.85,0,0,0-.09-1.09,1.78,1.78,0,0,0-1.85-1.42A1.68,1.68,0,0,0,12,61.59a5.33,5.33,0,0,0,0,1.24A4.37,4.37,0,0,0,12,64a1.74,1.74,0,0,0,1.81,1.28A1.86,1.86,0,0,0,15.77,64,4.88,4.88,0,0,0,15.86,62.74Z"/><path class="a" d="M4.21,62.74a5.85,5.85,0,0,1,.09-1.09,1.78,1.78,0,0,1,1.85-1.42,1.68,1.68,0,0,1,1.9,1.36,5.33,5.33,0,0,1,0,1.24A4.8,4.8,0,0,1,8,64a1.74,1.74,0,0,1-1.81,1.28,1.82,1.82,0,0,1-1.95-1.19A5.68,5.68,0,0,1,4.21,62.74Z"/><path class="a" d="M31.38,62.74a5.92,5.92,0,0,1,.08-1.09,1.79,1.79,0,0,1,1.86-1.42,1.69,1.69,0,0,1,1.9,1.36,5.94,5.94,0,0,1,.05,1.24A4.78,4.78,0,0,1,35.2,64a1.73,1.73,0,0,1-1.8,1.28,1.82,1.82,0,0,1-1.95-1.19A5.68,5.68,0,0,1,31.38,62.74Z"/><path class="a" d="M19.74,2.52a6,6,0,0,0-.08-1.1A1.78,1.78,0,0,0,17.81,0,1.7,1.7,0,0,0,15.9,1.36a6,6,0,0,0,0,1.24,4.37,4.37,0,0,0,.06,1.21,1.73,1.73,0,0,0,1.8,1.28A1.86,1.86,0,0,0,19.66,3.8,4.82,4.82,0,0,0,19.74,2.52Z"/><path class="a" d="M27.46,2.52a6,6,0,0,0-.09-1.1A1.77,1.77,0,0,0,25.52,0a1.7,1.7,0,0,0-1.9,1.36,6,6,0,0,0-.05,1.24,4.8,4.8,0,0,0,.06,1.21,1.74,1.74,0,0,0,1.81,1.28A1.87,1.87,0,0,0,27.38,3.8,4.82,4.82,0,0,0,27.46,2.52Z"/><path class="a" d="M31.35,2.52a5.2,5.2,0,0,0-.09-1.1A1.77,1.77,0,0,0,29.41,0a1.7,1.7,0,0,0-1.9,1.36,6,6,0,0,0-.05,1.24,4.36,4.36,0,0,0,.07,1.21,1.72,1.72,0,0,0,1.8,1.28A1.87,1.87,0,0,0,31.27,3.8,4.82,4.82,0,0,0,31.35,2.52Z"/><path class="a" d="M19.7,2.52a6,6,0,0,1,.09-1.1A1.78,1.78,0,0,1,21.64,0a1.7,1.7,0,0,1,1.91,1.36,6,6,0,0,1,0,1.24,4.37,4.37,0,0,1-.06,1.21,1.73,1.73,0,0,1-1.81,1.28A1.81,1.81,0,0,1,19.77,3.9,5.63,5.63,0,0,1,19.7,2.52Z"/><path class="a" d="M4.25,2.52a6,6,0,0,0-.08-1.1A1.79,1.79,0,0,0,2.31,0,1.7,1.7,0,0,0,.41,1.36a6,6,0,0,0,0,1.24A4.78,4.78,0,0,0,.43,3.81a1.73,1.73,0,0,0,1.8,1.28A1.87,1.87,0,0,0,4.17,3.8,4.82,4.82,0,0,0,4.25,2.52Z"/><path class="a" d="M12,2.52a6,6,0,0,0-.09-1.1A1.78,1.78,0,0,0,10,0,1.7,1.7,0,0,0,8.12,1.36a6,6,0,0,0,0,1.24,4.37,4.37,0,0,0,.06,1.21A1.74,1.74,0,0,0,10,5.09,1.85,1.85,0,0,0,11.88,3.8,4.8,4.8,0,0,0,12,2.52Z"/><path class="a" d="M15.86,2.52a6,6,0,0,0-.09-1.1A1.78,1.78,0,0,0,13.92,0,1.68,1.68,0,0,0,12,1.36,5.35,5.35,0,0,0,12,2.6,4.37,4.37,0,0,0,12,3.81a1.74,1.74,0,0,0,1.81,1.28A1.85,1.85,0,0,0,15.77,3.8,4.8,4.8,0,0,0,15.86,2.52Z"/><path class="a" d="M4.21,2.52a6,6,0,0,1,.09-1.1A1.78,1.78,0,0,1,6.15,0a1.68,1.68,0,0,1,1.9,1.36,5.35,5.35,0,0,1,0,1.24A4.8,4.8,0,0,1,8,3.81,1.74,1.74,0,0,1,6.23,5.09,1.81,1.81,0,0,1,4.28,3.9,5.63,5.63,0,0,1,4.21,2.52Z"/><path class="a" d="M31.38,2.52a6,6,0,0,1,.08-1.1A1.79,1.79,0,0,1,33.32,0a1.7,1.7,0,0,1,1.9,1.36,6,6,0,0,1,.05,1.24,4.78,4.78,0,0,1-.07,1.21,1.73,1.73,0,0,1-1.8,1.28A1.81,1.81,0,0,1,31.45,3.9,5.63,5.63,0,0,1,31.38,2.52Z"/><path class="a" d="M50.42,2.52a6,6,0,0,1,.08-1.1A1.79,1.79,0,0,1,52.36,0a1.7,1.7,0,0,1,1.9,1.36,6,6,0,0,1,.05,1.24,4.78,4.78,0,0,1-.07,1.21,1.73,1.73,0,0,1-1.8,1.28A1.87,1.87,0,0,1,50.5,3.8,4.82,4.82,0,0,1,50.42,2.52Z"/><path class="a" d="M15.89,36a6,6,0,0,1,.08-1.1,1.78,1.78,0,0,1,1.85-1.42,1.69,1.69,0,0,1,1.91,1.36,6,6,0,0,1,0,1.24,4.37,4.37,0,0,1-.06,1.21,1.73,1.73,0,0,1-1.81,1.28A1.85,1.85,0,0,1,16,37.26,4.82,4.82,0,0,1,15.89,36Z"/><path class="a" d="M8.17,36a5.89,5.89,0,0,1,.09-1.1,1.77,1.77,0,0,1,1.85-1.42A1.69,1.69,0,0,1,12,34.82a6,6,0,0,1,.05,1.24A4.8,4.8,0,0,1,12,37.27a1.74,1.74,0,0,1-1.81,1.28,1.87,1.87,0,0,1-1.94-1.29A4.82,4.82,0,0,1,8.17,36Z"/><path class="a" d="M4.28,36a6,6,0,0,1,.08-1.1,1.79,1.79,0,0,1,1.86-1.42,1.69,1.69,0,0,1,1.9,1.36,6,6,0,0,1,.05,1.24,4.36,4.36,0,0,1-.07,1.21,1.72,1.72,0,0,1-1.8,1.28,1.87,1.87,0,0,1-1.94-1.29A4.82,4.82,0,0,1,4.28,36Z"/><path class="a" d="M15.93,36a5.89,5.89,0,0,0-.09-1.1A1.78,1.78,0,0,0,14,33.46a1.69,1.69,0,0,0-1.91,1.36,6,6,0,0,0,0,1.24,4.37,4.37,0,0,0,.06,1.21,1.73,1.73,0,0,0,1.81,1.28,1.81,1.81,0,0,0,1.95-1.19A5.63,5.63,0,0,0,15.93,36Z"/><path class="a" d="M31.38,36a6,6,0,0,1,.08-1.1,1.79,1.79,0,0,1,1.86-1.42,1.69,1.69,0,0,1,1.9,1.36,6,6,0,0,1,.05,1.24,4.78,4.78,0,0,1-.07,1.21,1.73,1.73,0,0,1-1.8,1.28,1.87,1.87,0,0,1-1.94-1.29A4.82,4.82,0,0,1,31.38,36Z"/><path class="a" d="M23.66,36a5.89,5.89,0,0,1,.09-1.1,1.78,1.78,0,0,1,1.85-1.42,1.68,1.68,0,0,1,1.9,1.36,5.35,5.35,0,0,1,.05,1.24,4.37,4.37,0,0,1-.06,1.21,1.74,1.74,0,0,1-1.81,1.28,1.85,1.85,0,0,1-1.93-1.29A4.8,4.8,0,0,1,23.66,36Z"/><path class="a" d="M19.77,36a5.89,5.89,0,0,1,.09-1.1,1.78,1.78,0,0,1,1.85-1.42,1.68,1.68,0,0,1,1.9,1.36,5.35,5.35,0,0,1,.05,1.24,4.37,4.37,0,0,1-.06,1.21,1.74,1.74,0,0,1-1.81,1.28,1.87,1.87,0,0,1-1.94-1.29A5.28,5.28,0,0,1,19.77,36Z"/><path class="a" d="M31.42,36a5.89,5.89,0,0,0-.09-1.1,1.78,1.78,0,0,0-1.85-1.42,1.68,1.68,0,0,0-1.9,1.36,5.35,5.35,0,0,0,0,1.24,4.37,4.37,0,0,0,.06,1.21,1.74,1.74,0,0,0,1.81,1.28,1.81,1.81,0,0,0,2-1.19A5.63,5.63,0,0,0,31.42,36Z"/><path class="a" d="M4.25,36a6,6,0,0,0-.08-1.1,1.79,1.79,0,0,0-1.86-1.42,1.69,1.69,0,0,0-1.9,1.36,6,6,0,0,0,0,1.24,4.78,4.78,0,0,0,.07,1.21,1.73,1.73,0,0,0,1.8,1.28,1.81,1.81,0,0,0,1.95-1.19A5.63,5.63,0,0,0,4.25,36Z"/><path class="a" d="M38.13,36a6,6,0,0,1,.08-1.1,1.79,1.79,0,0,1,1.86-1.42A1.69,1.69,0,0,1,42,34.82,6,6,0,0,1,42,36.06,4.78,4.78,0,0,1,42,37.27a1.73,1.73,0,0,1-1.8,1.28,1.87,1.87,0,0,1-1.94-1.29A4.82,4.82,0,0,1,38.13,36Z"/><path class="a" d="M19.74,22.81a6,6,0,0,0-.08-1.1,1.78,1.78,0,0,0-1.85-1.42,1.7,1.7,0,0,0-1.91,1.36,6,6,0,0,0,0,1.24,4.37,4.37,0,0,0,.06,1.21,1.73,1.73,0,0,0,1.8,1.28,1.86,1.86,0,0,0,1.94-1.29A4.82,4.82,0,0,0,19.74,22.81Z"/><path class="a" d="M27.46,22.81a6,6,0,0,0-.09-1.1,1.77,1.77,0,0,0-1.85-1.42,1.7,1.7,0,0,0-1.9,1.36,6,6,0,0,0-.05,1.24,4.8,4.8,0,0,0,.06,1.21,1.74,1.74,0,0,0,1.81,1.28,1.87,1.87,0,0,0,1.94-1.29A4.82,4.82,0,0,0,27.46,22.81Z"/><path class="a" d="M31.35,22.81a5.2,5.2,0,0,0-.09-1.1,1.77,1.77,0,0,0-1.85-1.42,1.7,1.7,0,0,0-1.9,1.36,6,6,0,0,0-.05,1.24,4.36,4.36,0,0,0,.07,1.21,1.72,1.72,0,0,0,1.8,1.28,1.87,1.87,0,0,0,1.94-1.29A4.82,4.82,0,0,0,31.35,22.81Z"/><path class="a" d="M19.7,22.81a6,6,0,0,1,.09-1.1,1.78,1.78,0,0,1,1.85-1.42,1.7,1.7,0,0,1,1.91,1.36,6,6,0,0,1,0,1.24,4.37,4.37,0,0,1-.06,1.21,1.73,1.73,0,0,1-1.81,1.28,1.81,1.81,0,0,1-1.95-1.19A5.63,5.63,0,0,1,19.7,22.81Z"/><path class="a" d="M4.25,22.81a6,6,0,0,0-.08-1.1,1.79,1.79,0,0,0-1.86-1.42,1.7,1.7,0,0,0-1.9,1.36,6,6,0,0,0,0,1.24A4.78,4.78,0,0,0,.43,24.1a1.73,1.73,0,0,0,1.8,1.28,1.87,1.87,0,0,0,1.94-1.29A4.82,4.82,0,0,0,4.25,22.81Z"/><path class="a" d="M12,22.81a6,6,0,0,0-.09-1.1A1.78,1.78,0,0,0,10,20.29a1.7,1.7,0,0,0-1.91,1.36,6,6,0,0,0,0,1.24,4.37,4.37,0,0,0,.06,1.21A1.74,1.74,0,0,0,10,25.38a1.85,1.85,0,0,0,1.93-1.29A4.8,4.8,0,0,0,12,22.81Z"/><path class="a" d="M15.86,22.81a6,6,0,0,0-.09-1.1,1.78,1.78,0,0,0-1.85-1.42A1.68,1.68,0,0,0,12,21.65a5.35,5.35,0,0,0,0,1.24A4.37,4.37,0,0,0,12,24.1a1.74,1.74,0,0,0,1.81,1.28,1.85,1.85,0,0,0,1.93-1.29A4.8,4.8,0,0,0,15.86,22.81Z"/><path class="a" d="M4.21,22.81a6,6,0,0,1,.09-1.1,1.78,1.78,0,0,1,1.85-1.42,1.68,1.68,0,0,1,1.9,1.36,5.35,5.35,0,0,1,0,1.24A4.8,4.8,0,0,1,8,24.1a1.74,1.74,0,0,1-1.81,1.28,1.81,1.81,0,0,1-1.95-1.19A5.63,5.63,0,0,1,4.21,22.81Z"/><path class="a" d="M31.38,22.81a6,6,0,0,1,.08-1.1,1.79,1.79,0,0,1,1.86-1.42,1.7,1.7,0,0,1,1.9,1.36,6,6,0,0,1,.05,1.24,4.78,4.78,0,0,1-.07,1.21,1.73,1.73,0,0,1-1.8,1.28,1.81,1.81,0,0,1-1.95-1.19A5.63,5.63,0,0,1,31.38,22.81Z"/><path class="a" d="M39.06,22.38a6,6,0,0,1,.08-1.1A1.79,1.79,0,0,1,41,19.86a1.7,1.7,0,0,1,1.9,1.36A6,6,0,0,1,43,22.46a4.78,4.78,0,0,1-.07,1.21A1.73,1.73,0,0,1,41.08,25a1.81,1.81,0,0,1-1.95-1.19A5.63,5.63,0,0,1,39.06,22.38Z"/><path class="a" d="M19.74,56.05A5.92,5.92,0,0,0,19.66,55a1.79,1.79,0,0,0-1.85-1.43A1.7,1.7,0,0,0,15.9,54.9a6,6,0,0,0,0,1.24,4.37,4.37,0,0,0,.06,1.21,1.71,1.71,0,0,0,1.8,1.27,1.86,1.86,0,0,0,1.94-1.29A4.82,4.82,0,0,0,19.74,56.05Z"/><path class="a" d="M27.46,56.05A5.85,5.85,0,0,0,27.37,55a1.78,1.78,0,0,0-1.85-1.43,1.7,1.7,0,0,0-1.9,1.37,5.91,5.91,0,0,0-.05,1.24,4.8,4.8,0,0,0,.06,1.21,1.72,1.72,0,0,0,1.81,1.27,1.87,1.87,0,0,0,1.94-1.29A4.82,4.82,0,0,0,27.46,56.05Z"/><path class="a" d="M31.35,56.05A5.11,5.11,0,0,0,31.26,55a1.78,1.78,0,0,0-1.85-1.43,1.7,1.7,0,0,0-1.9,1.37,5.91,5.91,0,0,0-.05,1.24,4.36,4.36,0,0,0,.07,1.21,1.7,1.7,0,0,0,1.8,1.27,1.87,1.87,0,0,0,1.94-1.29A4.82,4.82,0,0,0,31.35,56.05Z"/><path class="a" d="M19.7,56.05A5.85,5.85,0,0,1,19.79,55a1.78,1.78,0,0,1,1.85-1.43,1.7,1.7,0,0,1,1.91,1.37,6,6,0,0,1,0,1.24,4.37,4.37,0,0,1-.06,1.21,1.71,1.71,0,0,1-1.81,1.27,1.81,1.81,0,0,1-1.95-1.18A5.74,5.74,0,0,1,19.7,56.05Z"/><path class="a" d="M4.25,56.05A5.92,5.92,0,0,0,4.17,55a1.79,1.79,0,0,0-1.86-1.43A1.7,1.7,0,0,0,.41,54.9a5.91,5.91,0,0,0,0,1.24,4.78,4.78,0,0,0,.07,1.21,1.71,1.71,0,0,0,1.8,1.27,1.87,1.87,0,0,0,1.94-1.29A4.82,4.82,0,0,0,4.25,56.05Z"/><path class="a" d="M12,56.05A5.85,5.85,0,0,0,11.88,55,1.78,1.78,0,0,0,10,53.53,1.7,1.7,0,0,0,8.12,54.9a6,6,0,0,0,0,1.24,4.37,4.37,0,0,0,.06,1.21A1.72,1.72,0,0,0,10,58.62a1.85,1.85,0,0,0,1.93-1.29A4.8,4.8,0,0,0,12,56.05Z"/><path class="a" d="M15.86,56.05A5.85,5.85,0,0,0,15.77,55a1.78,1.78,0,0,0-1.85-1.43A1.68,1.68,0,0,0,12,54.9a5.3,5.3,0,0,0,0,1.24A4.37,4.37,0,0,0,12,57.35a1.72,1.72,0,0,0,1.81,1.27,1.85,1.85,0,0,0,1.93-1.29A4.8,4.8,0,0,0,15.86,56.05Z"/><path class="a" d="M4.21,56.05A5.85,5.85,0,0,1,4.3,55a1.78,1.78,0,0,1,1.85-1.43,1.68,1.68,0,0,1,1.9,1.37,5.3,5.3,0,0,1,0,1.24A4.8,4.8,0,0,1,8,57.35a1.72,1.72,0,0,1-1.81,1.27,1.8,1.8,0,0,1-1.95-1.18A5.74,5.74,0,0,1,4.21,56.05Z"/><path class="a" d="M31.38,56.05A5.92,5.92,0,0,1,31.46,55a1.79,1.79,0,0,1,1.86-1.43,1.7,1.7,0,0,1,1.9,1.37,5.91,5.91,0,0,1,.05,1.24,4.78,4.78,0,0,1-.07,1.21,1.71,1.71,0,0,1-1.8,1.27,1.8,1.8,0,0,1-1.95-1.18A5.74,5.74,0,0,1,31.38,56.05Z"/><path class="a" d="M49.93,56.05A5.92,5.92,0,0,1,50,55a1.79,1.79,0,0,1,1.86-1.43,1.7,1.7,0,0,1,1.9,1.37,5.91,5.91,0,0,1,0,1.24,4.78,4.78,0,0,1-.07,1.21A1.71,1.71,0,0,1,52,58.62a1.8,1.8,0,0,1-2-1.18A5.74,5.74,0,0,1,49.93,56.05Z"/><path class="a" d="M19.74,15.9a5.92,5.92,0,0,0-.08-1.09,1.78,1.78,0,0,0-1.85-1.43,1.7,1.7,0,0,0-1.91,1.37,6,6,0,0,0,0,1.24,4.3,4.3,0,0,0,.06,1.2,1.71,1.71,0,0,0,1.8,1.28,1.86,1.86,0,0,0,1.94-1.29A4.82,4.82,0,0,0,19.74,15.9Z"/><path class="a" d="M27.46,15.9a5.85,5.85,0,0,0-.09-1.09,1.77,1.77,0,0,0-1.85-1.43,1.7,1.7,0,0,0-1.9,1.37A5.91,5.91,0,0,0,23.57,16a4.72,4.72,0,0,0,.06,1.2,1.72,1.72,0,0,0,1.81,1.28,1.87,1.87,0,0,0,1.94-1.29A4.82,4.82,0,0,0,27.46,15.9Z"/><path class="a" d="M31.35,15.9a5.11,5.11,0,0,0-.09-1.09,1.77,1.77,0,0,0-1.85-1.43,1.7,1.7,0,0,0-1.9,1.37A5.91,5.91,0,0,0,27.46,16a4.29,4.29,0,0,0,.07,1.2,1.7,1.7,0,0,0,1.8,1.28,1.87,1.87,0,0,0,1.94-1.29A4.82,4.82,0,0,0,31.35,15.9Z"/><path class="a" d="M19.7,15.9a5.85,5.85,0,0,1,.09-1.09,1.77,1.77,0,0,1,1.85-1.43,1.7,1.7,0,0,1,1.91,1.37,6,6,0,0,1,0,1.24,4.3,4.3,0,0,1-.06,1.2,1.71,1.71,0,0,1-1.81,1.28,1.81,1.81,0,0,1-1.95-1.18A5.74,5.74,0,0,1,19.7,15.9Z"/><path class="a" d="M4.25,15.9a5.92,5.92,0,0,0-.08-1.09,1.78,1.78,0,0,0-1.86-1.43,1.7,1.7,0,0,0-1.9,1.37A5.91,5.91,0,0,0,.36,16a4.7,4.7,0,0,0,.07,1.2,1.71,1.71,0,0,0,1.8,1.28,1.87,1.87,0,0,0,1.94-1.29A4.82,4.82,0,0,0,4.25,15.9Z"/><path class="a" d="M12,15.9a5.85,5.85,0,0,0-.09-1.09A1.77,1.77,0,0,0,10,13.38a1.7,1.7,0,0,0-1.91,1.37,6,6,0,0,0,0,1.24,4.3,4.3,0,0,0,.06,1.2A1.72,1.72,0,0,0,10,18.47a1.85,1.85,0,0,0,1.93-1.29A4.8,4.8,0,0,0,12,15.9Z"/><path class="a" d="M15.86,15.9a5.85,5.85,0,0,0-.09-1.09,1.77,1.77,0,0,0-1.85-1.43A1.68,1.68,0,0,0,12,14.75,5.3,5.3,0,0,0,12,16a4.3,4.3,0,0,0,.06,1.2,1.72,1.72,0,0,0,1.81,1.28,1.85,1.85,0,0,0,1.93-1.29A4.8,4.8,0,0,0,15.86,15.9Z"/><path class="a" d="M4.21,15.9a5.85,5.85,0,0,1,.09-1.09,1.77,1.77,0,0,1,1.85-1.43,1.68,1.68,0,0,1,1.9,1.37A5.3,5.3,0,0,1,8.1,16,4.72,4.72,0,0,1,8,17.19a1.72,1.72,0,0,1-1.81,1.28,1.8,1.8,0,0,1-1.95-1.18A5.74,5.74,0,0,1,4.21,15.9Z"/><path class="a" d="M31.38,15.9a5.92,5.92,0,0,1,.08-1.09,1.78,1.78,0,0,1,1.86-1.43,1.7,1.7,0,0,1,1.9,1.37A5.91,5.91,0,0,1,35.27,16a4.7,4.7,0,0,1-.07,1.2,1.71,1.71,0,0,1-1.8,1.28,1.8,1.8,0,0,1-1.95-1.18A5.74,5.74,0,0,1,31.38,15.9Z"/><path class="a" d="M42.54,15.9a5.92,5.92,0,0,1,.08-1.09,1.78,1.78,0,0,1,1.85-1.43,1.7,1.7,0,0,1,1.91,1.37,5.36,5.36,0,0,1,0,1.24,4.3,4.3,0,0,1-.06,1.2,1.71,1.71,0,0,1-1.8,1.28,1.81,1.81,0,0,1-2-1.18A5.75,5.75,0,0,1,42.54,15.9Z"/><path class="a" d="M19.74,49.36a6.1,6.1,0,0,0-.08-1.1,1.78,1.78,0,0,0-1.85-1.42,1.7,1.7,0,0,0-1.91,1.37,6,6,0,0,0,0,1.24,4.3,4.3,0,0,0,.06,1.2,1.71,1.71,0,0,0,1.8,1.28,1.86,1.86,0,0,0,1.94-1.29A4.82,4.82,0,0,0,19.74,49.36Z"/><path class="a" d="M27.46,49.36a6,6,0,0,0-.09-1.1,1.77,1.77,0,0,0-1.85-1.42,1.7,1.7,0,0,0-1.9,1.37,5.91,5.91,0,0,0-.05,1.24,4.72,4.72,0,0,0,.06,1.2,1.72,1.72,0,0,0,1.81,1.28,1.87,1.87,0,0,0,1.94-1.29A4.82,4.82,0,0,0,27.46,49.36Z"/><path class="a" d="M31.35,49.36a5.26,5.26,0,0,0-.09-1.1,1.77,1.77,0,0,0-1.85-1.42,1.7,1.7,0,0,0-1.9,1.37,5.91,5.91,0,0,0-.05,1.24,4.29,4.29,0,0,0,.07,1.2,1.7,1.7,0,0,0,1.8,1.28,1.87,1.87,0,0,0,1.94-1.29A4.82,4.82,0,0,0,31.35,49.36Z"/><path class="a" d="M19.7,49.36a6,6,0,0,1,.09-1.1,1.78,1.78,0,0,1,1.85-1.42,1.7,1.7,0,0,1,1.91,1.37,6,6,0,0,1,0,1.24,4.3,4.3,0,0,1-.06,1.2,1.71,1.71,0,0,1-1.81,1.28,1.81,1.81,0,0,1-1.95-1.18A5.74,5.74,0,0,1,19.7,49.36Z"/><path class="a" d="M4.25,49.36a6.1,6.1,0,0,0-.08-1.1,1.79,1.79,0,0,0-1.86-1.42,1.7,1.7,0,0,0-1.9,1.37,5.91,5.91,0,0,0,0,1.24,4.7,4.7,0,0,0,.07,1.2,1.71,1.71,0,0,0,1.8,1.28,1.87,1.87,0,0,0,1.94-1.29A4.82,4.82,0,0,0,4.25,49.36Z"/><path class="a" d="M12,49.36a6,6,0,0,0-.09-1.1A1.78,1.78,0,0,0,10,46.84a1.7,1.7,0,0,0-1.91,1.37,6,6,0,0,0,0,1.24,4.3,4.3,0,0,0,.06,1.2A1.72,1.72,0,0,0,10,51.93a1.85,1.85,0,0,0,1.93-1.29A4.8,4.8,0,0,0,12,49.36Z"/><path class="a" d="M15.86,49.36a6,6,0,0,0-.09-1.1,1.78,1.78,0,0,0-1.85-1.42A1.68,1.68,0,0,0,12,48.21a5.3,5.3,0,0,0,0,1.24,4.3,4.3,0,0,0,.06,1.2,1.72,1.72,0,0,0,1.81,1.28,1.85,1.85,0,0,0,1.93-1.29A4.8,4.8,0,0,0,15.86,49.36Z"/><path class="a" d="M4.21,49.36a6,6,0,0,1,.09-1.1,1.78,1.78,0,0,1,1.85-1.42,1.68,1.68,0,0,1,1.9,1.37,5.3,5.3,0,0,1,0,1.24A4.72,4.72,0,0,1,8,50.65a1.72,1.72,0,0,1-1.81,1.28,1.8,1.8,0,0,1-1.95-1.18A5.74,5.74,0,0,1,4.21,49.36Z"/><path class="a" d="M31.33,49.36a6.1,6.1,0,0,1,.08-1.1,1.79,1.79,0,0,1,1.86-1.42,1.7,1.7,0,0,1,1.9,1.37,5.91,5.91,0,0,1,0,1.24,4.7,4.7,0,0,1-.07,1.2,1.71,1.71,0,0,1-1.8,1.28,1.8,1.8,0,0,1-2-1.18A5.74,5.74,0,0,1,31.33,49.36Z"/><path class="a" d="M46,49.36a6,6,0,0,1,.09-1.1,1.77,1.77,0,0,1,1.85-1.42,1.69,1.69,0,0,1,1.9,1.37,5.91,5.91,0,0,1,.05,1.24,4.72,4.72,0,0,1-.06,1.2A1.72,1.72,0,0,1,48,51.93a1.8,1.8,0,0,1-1.95-1.18A5.74,5.74,0,0,1,46,49.36Z"/><path class="a" d="M19.74,9.21a6.1,6.1,0,0,0-.08-1.1,1.78,1.78,0,0,0-1.85-1.42A1.7,1.7,0,0,0,15.9,8.05a6.12,6.12,0,0,0,0,1.25,4.32,4.32,0,0,0,.06,1.2,1.72,1.72,0,0,0,1.8,1.28,1.86,1.86,0,0,0,1.94-1.29A4.82,4.82,0,0,0,19.74,9.21Z"/><path class="a" d="M27.46,9.21a6,6,0,0,0-.09-1.1,1.77,1.77,0,0,0-1.85-1.42,1.7,1.7,0,0,0-1.9,1.36,6,6,0,0,0-.05,1.25,4.74,4.74,0,0,0,.06,1.2,1.73,1.73,0,0,0,1.81,1.28,1.87,1.87,0,0,0,1.94-1.29A4.82,4.82,0,0,0,27.46,9.21Z"/><path class="a" d="M31.35,9.21a5.26,5.26,0,0,0-.09-1.1,1.77,1.77,0,0,0-1.85-1.42,1.7,1.7,0,0,0-1.9,1.36,6,6,0,0,0-.05,1.25,4.31,4.31,0,0,0,.07,1.2,1.71,1.71,0,0,0,1.8,1.28,1.87,1.87,0,0,0,1.94-1.29A4.82,4.82,0,0,0,31.35,9.21Z"/><path class="a" d="M19.7,9.21a6,6,0,0,1,.09-1.1,1.78,1.78,0,0,1,1.85-1.42,1.7,1.7,0,0,1,1.91,1.36,6.12,6.12,0,0,1,0,1.25,4.32,4.32,0,0,1-.06,1.2,1.72,1.72,0,0,1-1.81,1.28,1.81,1.81,0,0,1-1.95-1.19A5.63,5.63,0,0,1,19.7,9.21Z"/><path class="a" d="M4.25,9.21a6.1,6.1,0,0,0-.08-1.1A1.79,1.79,0,0,0,2.31,6.69,1.7,1.7,0,0,0,.41,8.05a6,6,0,0,0,0,1.25,4.73,4.73,0,0,0,.07,1.2,1.72,1.72,0,0,0,1.8,1.28,1.87,1.87,0,0,0,1.94-1.29A4.82,4.82,0,0,0,4.25,9.21Z"/><path class="a" d="M12,9.21a6,6,0,0,0-.09-1.1A1.78,1.78,0,0,0,10,6.69,1.7,1.7,0,0,0,8.12,8.05a6.12,6.12,0,0,0,0,1.25,4.32,4.32,0,0,0,.06,1.2A1.73,1.73,0,0,0,10,11.78a1.85,1.85,0,0,0,1.93-1.29A4.8,4.8,0,0,0,12,9.21Z"/><path class="a" d="M15.86,9.21a6,6,0,0,0-.09-1.1,1.78,1.78,0,0,0-1.85-1.42A1.68,1.68,0,0,0,12,8.05,5.41,5.41,0,0,0,12,9.3,4.32,4.32,0,0,0,12,10.5a1.73,1.73,0,0,0,1.81,1.28,1.85,1.85,0,0,0,1.93-1.29A4.8,4.8,0,0,0,15.86,9.21Z"/><path class="a" d="M4.21,9.21a6,6,0,0,1,.09-1.1A1.78,1.78,0,0,1,6.15,6.69a1.68,1.68,0,0,1,1.9,1.36,5.41,5.41,0,0,1,0,1.25A4.74,4.74,0,0,1,8,10.5a1.73,1.73,0,0,1-1.81,1.28,1.81,1.81,0,0,1-1.95-1.19A5.63,5.63,0,0,1,4.21,9.21Z"/><path class="a" d="M31.38,9.21a6.1,6.1,0,0,1,.08-1.1,1.79,1.79,0,0,1,1.86-1.42,1.7,1.7,0,0,1,1.9,1.36,6,6,0,0,1,.05,1.25,4.73,4.73,0,0,1-.07,1.2,1.72,1.72,0,0,1-1.8,1.28,1.81,1.81,0,0,1-1.95-1.19A5.63,5.63,0,0,1,31.38,9.21Z"/><path class="a" d="M46.38,9.21a6,6,0,0,1,.09-1.1,1.78,1.78,0,0,1,1.85-1.42,1.7,1.7,0,0,1,1.91,1.36,6.12,6.12,0,0,1,0,1.25,4.32,4.32,0,0,1-.06,1.2,1.72,1.72,0,0,1-1.81,1.28,1.81,1.81,0,0,1-1.95-1.19A5.63,5.63,0,0,1,46.38,9.21Z"/><path class="a" d="M19.74,42.67a6,6,0,0,0-.08-1.1,1.78,1.78,0,0,0-1.85-1.42,1.7,1.7,0,0,0-1.91,1.36,6,6,0,0,0,0,1.24A4.37,4.37,0,0,0,15.92,44a1.73,1.73,0,0,0,1.8,1.28A1.86,1.86,0,0,0,19.66,44,4.82,4.82,0,0,0,19.74,42.67Z"/><path class="a" d="M27.46,42.67a6,6,0,0,0-.09-1.1,1.77,1.77,0,0,0-1.85-1.42,1.7,1.7,0,0,0-1.9,1.36,6,6,0,0,0-.05,1.24A4.8,4.8,0,0,0,23.63,44a1.74,1.74,0,0,0,1.81,1.28A1.87,1.87,0,0,0,27.38,44,4.82,4.82,0,0,0,27.46,42.67Z"/><path class="a" d="M31.35,42.67a5.2,5.2,0,0,0-.09-1.1,1.77,1.77,0,0,0-1.85-1.42,1.7,1.7,0,0,0-1.9,1.36,6,6,0,0,0-.05,1.24A4.36,4.36,0,0,0,27.53,44a1.72,1.72,0,0,0,1.8,1.28A1.87,1.87,0,0,0,31.27,44,4.82,4.82,0,0,0,31.35,42.67Z"/><path class="a" d="M19.7,42.67a6,6,0,0,1,.09-1.1,1.78,1.78,0,0,1,1.85-1.42,1.7,1.7,0,0,1,1.91,1.36,6,6,0,0,1,0,1.24A4.37,4.37,0,0,1,23.53,44a1.73,1.73,0,0,1-1.81,1.28,1.81,1.81,0,0,1-1.95-1.19A5.63,5.63,0,0,1,19.7,42.67Z"/><path class="a" d="M4.25,42.67a6,6,0,0,0-.08-1.1,1.79,1.79,0,0,0-1.86-1.42,1.7,1.7,0,0,0-1.9,1.36,6,6,0,0,0,0,1.24A4.78,4.78,0,0,0,.43,44a1.73,1.73,0,0,0,1.8,1.28A1.87,1.87,0,0,0,4.17,44,4.82,4.82,0,0,0,4.25,42.67Z"/><path class="a" d="M12,42.67a6,6,0,0,0-.09-1.1A1.78,1.78,0,0,0,10,40.15a1.7,1.7,0,0,0-1.91,1.36,6,6,0,0,0,0,1.24A4.37,4.37,0,0,0,8.14,44,1.74,1.74,0,0,0,10,45.24,1.85,1.85,0,0,0,11.88,44,4.8,4.8,0,0,0,12,42.67Z"/><path class="a" d="M15.86,42.67a6,6,0,0,0-.09-1.1,1.78,1.78,0,0,0-1.85-1.42A1.68,1.68,0,0,0,12,41.51a5.35,5.35,0,0,0,0,1.24A4.37,4.37,0,0,0,12,44a1.74,1.74,0,0,0,1.81,1.28A1.85,1.85,0,0,0,15.77,44,4.8,4.8,0,0,0,15.86,42.67Z"/><path class="a" d="M4.21,42.67a6,6,0,0,1,.09-1.1,1.78,1.78,0,0,1,1.85-1.42,1.68,1.68,0,0,1,1.9,1.36,5.35,5.35,0,0,1,0,1.24A4.8,4.8,0,0,1,8,44a1.74,1.74,0,0,1-1.81,1.28,1.81,1.81,0,0,1-1.95-1.19A5.63,5.63,0,0,1,4.21,42.67Z"/><path class="a" d="M31.38,42.67a6,6,0,0,1,.08-1.1,1.79,1.79,0,0,1,1.86-1.42,1.7,1.7,0,0,1,1.9,1.36,6,6,0,0,1,.05,1.24A4.78,4.78,0,0,1,35.2,44a1.73,1.73,0,0,1-1.8,1.28,1.81,1.81,0,0,1-1.95-1.19A5.63,5.63,0,0,1,31.38,42.67Z"/><path class="a" d="M42.12,42.67a6,6,0,0,1,.08-1.1,1.79,1.79,0,0,1,1.86-1.42A1.7,1.7,0,0,1,46,41.51a6,6,0,0,1,0,1.24A4.78,4.78,0,0,1,45.94,44a1.73,1.73,0,0,1-1.8,1.28,1.81,1.81,0,0,1-2-1.19A5.63,5.63,0,0,1,42.12,42.67Z"/></svg>