<svg xmlns="http://www.w3.org/2000/svg" width="55.9" height="65.32" viewBox="0 0 55.9 65.32"><defs><style>.a{fill:#21364f;}</style></defs><title>Asset 146</title><path class="a" d="M20.42,9.21a6,6,0,0,0-.09-1.1,1.78,1.78,0,0,0-1.85-1.42,1.7,1.7,0,0,0-1.91,1.36,6.12,6.12,0,0,0,0,1.25,4.32,4.32,0,0,0,.06,1.2,1.73,1.73,0,0,0,1.81,1.28,1.85,1.85,0,0,0,1.93-1.29A4.8,4.8,0,0,0,20.42,9.21Z"/><path class="a" d="M28.13,9.21a6.1,6.1,0,0,0-.08-1.1,1.79,1.79,0,0,0-1.86-1.42,1.7,1.7,0,0,0-1.9,1.36,6,6,0,0,0-.05,1.25,4.73,4.73,0,0,0,.07,1.2,1.72,1.72,0,0,0,1.8,1.28,1.87,1.87,0,0,0,1.94-1.29A4.82,4.82,0,0,0,28.13,9.21Z"/><path class="a" d="M32,9.21a6.1,6.1,0,0,0-.08-1.1,1.79,1.79,0,0,0-1.86-1.42,1.7,1.7,0,0,0-1.9,1.36,6,6,0,0,0-.05,1.25,4.73,4.73,0,0,0,.07,1.2A1.72,1.72,0,0,0,30,11.78a1.87,1.87,0,0,0,1.94-1.29A4.82,4.82,0,0,0,32,9.21Z"/><path class="a" d="M20.38,9.21a6.1,6.1,0,0,1,.08-1.1,1.78,1.78,0,0,1,1.85-1.42,1.7,1.7,0,0,1,1.91,1.36,5.48,5.48,0,0,1,0,1.25,4.32,4.32,0,0,1-.06,1.2,1.72,1.72,0,0,1-1.8,1.28,1.82,1.82,0,0,1-2-1.19A5.65,5.65,0,0,1,20.38,9.21Z"/><path class="a" d="M4.92,9.21a6.1,6.1,0,0,0-.08-1.1A1.78,1.78,0,0,0,3,6.69,1.7,1.7,0,0,0,1.08,8.05,5.48,5.48,0,0,0,1,9.3a4.32,4.32,0,0,0,.06,1.2,1.72,1.72,0,0,0,1.8,1.28,1.86,1.86,0,0,0,1.94-1.29A4.82,4.82,0,0,0,4.92,9.21Z"/><path class="a" d="M12.64,9.21a6,6,0,0,0-.09-1.1A1.77,1.77,0,0,0,10.7,6.69,1.68,1.68,0,0,0,8.8,8.05,5.41,5.41,0,0,0,8.75,9.3a4.74,4.74,0,0,0,.06,1.2,1.73,1.73,0,0,0,1.81,1.28,1.87,1.87,0,0,0,1.94-1.29A4.82,4.82,0,0,0,12.64,9.21Z"/><path class="a" d="M16.53,9.21a5.26,5.26,0,0,0-.09-1.1,1.77,1.77,0,0,0-1.85-1.42,1.7,1.7,0,0,0-1.9,1.36,6,6,0,0,0,0,1.25,4.31,4.31,0,0,0,.07,1.2,1.71,1.71,0,0,0,1.8,1.28,1.87,1.87,0,0,0,1.94-1.29A4.82,4.82,0,0,0,16.53,9.21Z"/><path class="a" d="M4.88,9.21A6,6,0,0,1,5,8.11,1.78,1.78,0,0,1,6.82,6.69,1.7,1.7,0,0,1,8.73,8.05a6.12,6.12,0,0,1,0,1.25,4.32,4.32,0,0,1-.06,1.2A1.72,1.72,0,0,1,6.9,11.78,1.81,1.81,0,0,1,5,10.59,5.63,5.63,0,0,1,4.88,9.21Z"/><path class="a" d="M32,9.21a5.26,5.26,0,0,1,.09-1.1,1.77,1.77,0,0,1,1.85-1.42,1.7,1.7,0,0,1,1.9,1.36,6,6,0,0,1,0,1.25,4.31,4.31,0,0,1-.07,1.2A1.71,1.71,0,0,1,34,11.78a1.81,1.81,0,0,1-2-1.19A5.63,5.63,0,0,1,32,9.21Z"/><path class="a" d="M35.89,9.21A6,6,0,0,1,36,8.11a1.78,1.78,0,0,1,1.85-1.42,1.68,1.68,0,0,1,1.9,1.36,5.41,5.41,0,0,1,.05,1.25,4.74,4.74,0,0,1-.06,1.2,1.73,1.73,0,0,1-1.81,1.28A1.81,1.81,0,0,1,36,10.59,5.63,5.63,0,0,1,35.89,9.21Z"/><path class="a" d="M20.42,15.9a5.85,5.85,0,0,0-.09-1.09,1.77,1.77,0,0,0-1.85-1.43,1.7,1.7,0,0,0-1.91,1.37,6,6,0,0,0,0,1.24,4.3,4.3,0,0,0,.06,1.2,1.72,1.72,0,0,0,1.81,1.28,1.85,1.85,0,0,0,1.93-1.29A4.8,4.8,0,0,0,20.42,15.9Z"/><path class="a" d="M28.13,15.9a5.92,5.92,0,0,0-.08-1.09,1.78,1.78,0,0,0-1.86-1.43,1.7,1.7,0,0,0-1.9,1.37A5.91,5.91,0,0,0,24.24,16a4.7,4.7,0,0,0,.07,1.2,1.71,1.71,0,0,0,1.8,1.28,1.87,1.87,0,0,0,1.94-1.29A4.82,4.82,0,0,0,28.13,15.9Z"/><path class="a" d="M32,15.9a5.92,5.92,0,0,0-.08-1.09,1.78,1.78,0,0,0-1.86-1.43,1.7,1.7,0,0,0-1.9,1.37A5.91,5.91,0,0,0,28.13,16a4.7,4.7,0,0,0,.07,1.2A1.71,1.71,0,0,0,30,18.47a1.87,1.87,0,0,0,1.94-1.29A4.82,4.82,0,0,0,32,15.9Z"/><path class="a" d="M20.38,15.9a5.92,5.92,0,0,1,.08-1.09,1.78,1.78,0,0,1,1.85-1.43,1.7,1.7,0,0,1,1.91,1.37,5.36,5.36,0,0,1,0,1.24,4.3,4.3,0,0,1-.06,1.2,1.71,1.71,0,0,1-1.8,1.28,1.81,1.81,0,0,1-2-1.18A5.75,5.75,0,0,1,20.38,15.9Z"/><path class="a" d="M4.92,15.9a5.92,5.92,0,0,0-.08-1.09A1.78,1.78,0,0,0,3,13.38a1.7,1.7,0,0,0-1.91,1.37A5.36,5.36,0,0,0,1,16a4.3,4.3,0,0,0,.06,1.2,1.71,1.71,0,0,0,1.8,1.28,1.86,1.86,0,0,0,1.94-1.29A4.82,4.82,0,0,0,4.92,15.9Z"/><path class="a" d="M12.64,15.9a5.85,5.85,0,0,0-.09-1.09,1.77,1.77,0,0,0-1.85-1.43,1.68,1.68,0,0,0-1.9,1.37A5.3,5.3,0,0,0,8.75,16a4.72,4.72,0,0,0,.06,1.2,1.72,1.72,0,0,0,1.81,1.28,1.87,1.87,0,0,0,1.94-1.29A4.82,4.82,0,0,0,12.64,15.9Z"/><path class="a" d="M16.53,15.9a5.11,5.11,0,0,0-.09-1.09,1.77,1.77,0,0,0-1.85-1.43,1.7,1.7,0,0,0-1.9,1.37,5.91,5.91,0,0,0,0,1.24,4.29,4.29,0,0,0,.07,1.2,1.7,1.7,0,0,0,1.8,1.28,1.87,1.87,0,0,0,1.94-1.29A4.82,4.82,0,0,0,16.53,15.9Z"/><path class="a" d="M4.88,15.9A5.85,5.85,0,0,1,5,14.81a1.77,1.77,0,0,1,1.85-1.43,1.7,1.7,0,0,1,1.91,1.37,6,6,0,0,1,0,1.24,4.3,4.3,0,0,1-.06,1.2A1.71,1.71,0,0,1,6.9,18.47,1.81,1.81,0,0,1,5,17.29,5.74,5.74,0,0,1,4.88,15.9Z"/><path class="a" d="M32,15.9a5.11,5.11,0,0,1,.09-1.09,1.77,1.77,0,0,1,1.85-1.43,1.7,1.7,0,0,1,1.9,1.37,5.91,5.91,0,0,1,0,1.24,4.29,4.29,0,0,1-.07,1.2A1.7,1.7,0,0,1,34,18.47a1.8,1.8,0,0,1-2-1.18A5.74,5.74,0,0,1,32,15.9Z"/><path class="a" d="M35.89,15.9A5.85,5.85,0,0,1,36,14.81a1.77,1.77,0,0,1,1.85-1.43,1.68,1.68,0,0,1,1.9,1.37A5.3,5.3,0,0,1,39.78,16a4.72,4.72,0,0,1-.06,1.2,1.72,1.72,0,0,1-1.81,1.28A1.8,1.8,0,0,1,36,17.29,5.74,5.74,0,0,1,35.89,15.9Z"/><path class="a" d="M20.42,22.59a5.85,5.85,0,0,0-.09-1.09,1.78,1.78,0,0,0-1.85-1.42,1.69,1.69,0,0,0-1.91,1.36,6,6,0,0,0,0,1.24,4.37,4.37,0,0,0,.06,1.21,1.74,1.74,0,0,0,1.81,1.28,1.87,1.87,0,0,0,1.93-1.3A4.8,4.8,0,0,0,20.42,22.59Z"/><path class="a" d="M28.13,22.59a5.92,5.92,0,0,0-.08-1.09,1.79,1.79,0,0,0-1.86-1.42,1.69,1.69,0,0,0-1.9,1.36,5.91,5.91,0,0,0-.05,1.24,4.78,4.78,0,0,0,.07,1.21,1.73,1.73,0,0,0,1.8,1.28,1.89,1.89,0,0,0,1.94-1.3A4.82,4.82,0,0,0,28.13,22.59Z"/><path class="a" d="M32,22.59a5.92,5.92,0,0,0-.08-1.09,1.79,1.79,0,0,0-1.86-1.42,1.69,1.69,0,0,0-1.9,1.36,5.91,5.91,0,0,0-.05,1.24,4.78,4.78,0,0,0,.07,1.21A1.73,1.73,0,0,0,30,25.17a1.89,1.89,0,0,0,1.94-1.3A4.82,4.82,0,0,0,32,22.59Z"/><path class="a" d="M20.38,22.59a5.92,5.92,0,0,1,.08-1.09,1.78,1.78,0,0,1,1.85-1.42,1.69,1.69,0,0,1,1.91,1.36,5.36,5.36,0,0,1,0,1.24,4.37,4.37,0,0,1-.06,1.21,1.73,1.73,0,0,1-1.8,1.28,1.83,1.83,0,0,1-2-1.19A5.73,5.73,0,0,1,20.38,22.59Z"/><path class="a" d="M4.92,22.59a5.92,5.92,0,0,0-.08-1.09A1.78,1.78,0,0,0,3,20.08a1.69,1.69,0,0,0-1.91,1.36,5.36,5.36,0,0,0,0,1.24,4.37,4.37,0,0,0,.06,1.21,1.73,1.73,0,0,0,1.8,1.28,1.88,1.88,0,0,0,1.94-1.3A4.82,4.82,0,0,0,4.92,22.59Z"/><path class="a" d="M12.64,22.59a5.85,5.85,0,0,0-.09-1.09,1.77,1.77,0,0,0-1.85-1.42,1.68,1.68,0,0,0-1.9,1.36,5.3,5.3,0,0,0-.05,1.24,4.8,4.8,0,0,0,.06,1.21,1.74,1.74,0,0,0,1.81,1.28,1.89,1.89,0,0,0,1.94-1.3A4.82,4.82,0,0,0,12.64,22.59Z"/><path class="a" d="M16.53,22.59a5.11,5.11,0,0,0-.09-1.09,1.77,1.77,0,0,0-1.85-1.42,1.69,1.69,0,0,0-1.9,1.36,5.91,5.91,0,0,0,0,1.24,4.36,4.36,0,0,0,.07,1.21,1.72,1.72,0,0,0,1.8,1.28,1.89,1.89,0,0,0,1.94-1.3A4.82,4.82,0,0,0,16.53,22.59Z"/><path class="a" d="M4.88,22.59A5.85,5.85,0,0,1,5,21.5a1.78,1.78,0,0,1,1.85-1.42,1.69,1.69,0,0,1,1.91,1.36,6,6,0,0,1,0,1.24,4.37,4.37,0,0,1-.06,1.21A1.73,1.73,0,0,1,6.9,25.17,1.83,1.83,0,0,1,5,24,5.71,5.71,0,0,1,4.88,22.59Z"/><path class="a" d="M32,22.59a5.11,5.11,0,0,1,.09-1.09,1.77,1.77,0,0,1,1.85-1.42,1.69,1.69,0,0,1,1.9,1.36,5.91,5.91,0,0,1,0,1.24,4.36,4.36,0,0,1-.07,1.21A1.72,1.72,0,0,1,34,25.17a1.82,1.82,0,0,1-2-1.19A5.71,5.71,0,0,1,32,22.59Z"/><path class="a" d="M35.89,22.59A5.85,5.85,0,0,1,36,21.5a1.78,1.78,0,0,1,1.85-1.42,1.68,1.68,0,0,1,1.9,1.36,5.3,5.3,0,0,1,.05,1.24,4.8,4.8,0,0,1-.06,1.21,1.74,1.74,0,0,1-1.81,1.28A1.82,1.82,0,0,1,36,24,5.71,5.71,0,0,1,35.89,22.59Z"/><path class="a" d="M20.42,29.28a5.85,5.85,0,0,0-.09-1.09,1.78,1.78,0,0,0-1.85-1.42,1.69,1.69,0,0,0-1.91,1.36,6,6,0,0,0,0,1.24,4.37,4.37,0,0,0,.06,1.21,1.74,1.74,0,0,0,1.81,1.28,1.86,1.86,0,0,0,1.93-1.29A4.88,4.88,0,0,0,20.42,29.28Z"/><path class="a" d="M28.13,29.28a5.92,5.92,0,0,0-.08-1.09,1.79,1.79,0,0,0-1.86-1.42,1.69,1.69,0,0,0-1.9,1.36,5.94,5.94,0,0,0-.05,1.24,4.78,4.78,0,0,0,.07,1.21,1.73,1.73,0,0,0,1.8,1.28,1.88,1.88,0,0,0,1.94-1.29A4.89,4.89,0,0,0,28.13,29.28Z"/><path class="a" d="M32,29.28a5.92,5.92,0,0,0-.08-1.09,1.79,1.79,0,0,0-1.86-1.42,1.69,1.69,0,0,0-1.9,1.36,5.94,5.94,0,0,0-.05,1.24,4.78,4.78,0,0,0,.07,1.21A1.73,1.73,0,0,0,30,31.86a1.88,1.88,0,0,0,1.94-1.29A4.89,4.89,0,0,0,32,29.28Z"/><path class="a" d="M20.38,29.28a5.92,5.92,0,0,1,.08-1.09,1.78,1.78,0,0,1,1.85-1.42,1.69,1.69,0,0,1,1.91,1.36,5.39,5.39,0,0,1,0,1.24,4.37,4.37,0,0,1-.06,1.21,1.73,1.73,0,0,1-1.8,1.28,1.83,1.83,0,0,1-2-1.19A5.7,5.7,0,0,1,20.38,29.28Z"/><path class="a" d="M4.92,29.28a5.92,5.92,0,0,0-.08-1.09A1.78,1.78,0,0,0,3,26.77a1.69,1.69,0,0,0-1.91,1.36,5.39,5.39,0,0,0,0,1.24,4.37,4.37,0,0,0,.06,1.21,1.73,1.73,0,0,0,1.8,1.28,1.87,1.87,0,0,0,1.94-1.29A4.89,4.89,0,0,0,4.92,29.28Z"/><path class="a" d="M12.64,29.28a5.85,5.85,0,0,0-.09-1.09,1.77,1.77,0,0,0-1.85-1.42,1.68,1.68,0,0,0-1.9,1.36,5.33,5.33,0,0,0-.05,1.24,4.8,4.8,0,0,0,.06,1.21,1.74,1.74,0,0,0,1.81,1.28,1.88,1.88,0,0,0,1.94-1.29A4.89,4.89,0,0,0,12.64,29.28Z"/><path class="a" d="M16.53,29.28a5.11,5.11,0,0,0-.09-1.09,1.77,1.77,0,0,0-1.85-1.42,1.69,1.69,0,0,0-1.9,1.36,5.94,5.94,0,0,0,0,1.24,4.36,4.36,0,0,0,.07,1.21,1.72,1.72,0,0,0,1.8,1.28,1.88,1.88,0,0,0,1.94-1.29A4.89,4.89,0,0,0,16.53,29.28Z"/><path class="a" d="M4.88,29.28A5.85,5.85,0,0,1,5,28.19a1.78,1.78,0,0,1,1.85-1.42,1.69,1.69,0,0,1,1.91,1.36,6,6,0,0,1,0,1.24,4.37,4.37,0,0,1-.06,1.21A1.73,1.73,0,0,1,6.9,31.86,1.83,1.83,0,0,1,5,30.67,5.68,5.68,0,0,1,4.88,29.28Z"/><path class="a" d="M32,29.28a5.11,5.11,0,0,1,.09-1.09,1.77,1.77,0,0,1,1.85-1.42,1.69,1.69,0,0,1,1.9,1.36,5.94,5.94,0,0,1,0,1.24,4.36,4.36,0,0,1-.07,1.21A1.72,1.72,0,0,1,34,31.86a1.82,1.82,0,0,1-2-1.19A5.68,5.68,0,0,1,32,29.28Z"/><path class="a" d="M35.89,29.28A5.85,5.85,0,0,1,36,28.19a1.78,1.78,0,0,1,1.85-1.42,1.68,1.68,0,0,1,1.9,1.36,5.33,5.33,0,0,1,.05,1.24,4.8,4.8,0,0,1-.06,1.21,1.74,1.74,0,0,1-1.81,1.28A1.82,1.82,0,0,1,36,30.67,5.68,5.68,0,0,1,35.89,29.28Z"/><path class="a" d="M27.93,62.74a5.92,5.92,0,0,0-.08-1.09A1.78,1.78,0,0,0,26,60.23a1.69,1.69,0,0,0-1.91,1.36,6,6,0,0,0,0,1.24A4.37,4.37,0,0,0,24.11,64a1.73,1.73,0,0,0,1.81,1.28A1.86,1.86,0,0,0,27.85,64,4.89,4.89,0,0,0,27.93,62.74Z"/><path class="a" d="M35.65,62.74a5.85,5.85,0,0,0-.09-1.09,1.77,1.77,0,0,0-1.85-1.42,1.69,1.69,0,0,0-1.9,1.36,5.94,5.94,0,0,0,0,1.24A4.8,4.8,0,0,0,31.82,64a1.74,1.74,0,0,0,1.81,1.28A1.88,1.88,0,0,0,35.57,64,4.89,4.89,0,0,0,35.65,62.74Z"/><path class="a" d="M39.54,62.74a5.92,5.92,0,0,0-.08-1.09,1.79,1.79,0,0,0-1.86-1.42,1.69,1.69,0,0,0-1.9,1.36,5.94,5.94,0,0,0-.05,1.24A4.36,4.36,0,0,0,35.72,64a1.72,1.72,0,0,0,1.8,1.28A1.88,1.88,0,0,0,39.46,64,4.89,4.89,0,0,0,39.54,62.74Z"/><path class="a" d="M27.9,62.74A5.92,5.92,0,0,1,28,61.65a1.78,1.78,0,0,1,1.85-1.42,1.69,1.69,0,0,1,1.91,1.36,6,6,0,0,1,0,1.24A4.37,4.37,0,0,1,31.72,64a1.73,1.73,0,0,1-1.81,1.28A1.83,1.83,0,0,1,28,64.13,5.7,5.7,0,0,1,27.9,62.74Z"/><path class="a" d="M12.44,62.74a5.92,5.92,0,0,0-.08-1.09,1.79,1.79,0,0,0-1.86-1.42,1.69,1.69,0,0,0-1.9,1.36,5.94,5.94,0,0,0,0,1.24A4.78,4.78,0,0,0,8.62,64a1.73,1.73,0,0,0,1.8,1.28A1.88,1.88,0,0,0,12.36,64,4.89,4.89,0,0,0,12.44,62.74Z"/><path class="a" d="M20.16,62.74a5.85,5.85,0,0,0-.09-1.09,1.78,1.78,0,0,0-1.85-1.42,1.68,1.68,0,0,0-1.9,1.36,5.33,5.33,0,0,0-.05,1.24A4.37,4.37,0,0,0,16.33,64a1.74,1.74,0,0,0,1.81,1.28A1.86,1.86,0,0,0,20.07,64,4.88,4.88,0,0,0,20.16,62.74Z"/><path class="a" d="M24.05,62.74A5.85,5.85,0,0,0,24,61.65a1.78,1.78,0,0,0-1.85-1.42,1.68,1.68,0,0,0-1.9,1.36,5.33,5.33,0,0,0-.05,1.24A4.37,4.37,0,0,0,20.22,64,1.74,1.74,0,0,0,22,65.32,1.88,1.88,0,0,0,24,64,5.36,5.36,0,0,0,24.05,62.74Z"/><path class="a" d="M12.4,62.74a5.85,5.85,0,0,1,.09-1.09,1.78,1.78,0,0,1,1.85-1.42,1.68,1.68,0,0,1,1.9,1.36,5.33,5.33,0,0,1,.05,1.24A4.37,4.37,0,0,1,16.23,64a1.74,1.74,0,0,1-1.81,1.28,1.82,1.82,0,0,1-1.95-1.19A5.68,5.68,0,0,1,12.4,62.74Z"/><path class="a" d="M39.52,62.74a5.92,5.92,0,0,1,.08-1.09,1.79,1.79,0,0,1,1.86-1.42,1.69,1.69,0,0,1,1.9,1.36,5.94,5.94,0,0,1,0,1.24A4.78,4.78,0,0,1,43.34,64a1.73,1.73,0,0,1-1.8,1.28,1.82,1.82,0,0,1-1.95-1.19A5.68,5.68,0,0,1,39.52,62.74Z"/><path class="a" d="M43.41,62.74a5.11,5.11,0,0,1,.09-1.09,1.77,1.77,0,0,1,1.85-1.42,1.69,1.69,0,0,1,1.9,1.36,5.94,5.94,0,0,1,0,1.24A4.36,4.36,0,0,1,47.23,64a1.72,1.72,0,0,1-1.8,1.28,1.82,1.82,0,0,1-2-1.19A5.68,5.68,0,0,1,43.41,62.74Z"/><path class="a" d="M29.81,36a5.89,5.89,0,0,0-.09-1.1,1.78,1.78,0,0,0-1.85-1.42A1.68,1.68,0,0,0,26,34.82a5.35,5.35,0,0,0,0,1.24A4.37,4.37,0,0,0,26,37.27a1.74,1.74,0,0,0,1.81,1.28,1.85,1.85,0,0,0,1.93-1.29A4.8,4.8,0,0,0,29.81,36Z"/><path class="a" d="M37.52,36a6,6,0,0,0-.08-1.1,1.79,1.79,0,0,0-1.86-1.42,1.69,1.69,0,0,0-1.9,1.36,6,6,0,0,0,0,1.24,4.78,4.78,0,0,0,.07,1.21,1.73,1.73,0,0,0,1.8,1.28,1.87,1.87,0,0,0,1.94-1.29A4.82,4.82,0,0,0,37.52,36Z"/><path class="a" d="M41.41,36a6,6,0,0,0-.08-1.1,1.79,1.79,0,0,0-1.86-1.42,1.69,1.69,0,0,0-1.9,1.36,6,6,0,0,0,0,1.24,4.78,4.78,0,0,0,.07,1.21,1.73,1.73,0,0,0,1.8,1.28,1.87,1.87,0,0,0,1.94-1.29A4.82,4.82,0,0,0,41.41,36Z"/><path class="a" d="M29.77,36a6,6,0,0,1,.08-1.1,1.78,1.78,0,0,1,1.85-1.42,1.69,1.69,0,0,1,1.91,1.36,6,6,0,0,1,0,1.24,4.78,4.78,0,0,1-.07,1.21,1.73,1.73,0,0,1-1.8,1.28,1.83,1.83,0,0,1-2-1.19A5.65,5.65,0,0,1,29.77,36Z"/><path class="a" d="M14.31,36a6,6,0,0,0-.08-1.1,1.78,1.78,0,0,0-1.85-1.42,1.69,1.69,0,0,0-1.91,1.36,6,6,0,0,0,0,1.24,4.37,4.37,0,0,0,.06,1.21,1.73,1.73,0,0,0,1.81,1.28,1.85,1.85,0,0,0,1.93-1.29A4.82,4.82,0,0,0,14.31,36Z"/><path class="a" d="M22,36a5.89,5.89,0,0,0-.09-1.1,1.77,1.77,0,0,0-1.85-1.42,1.69,1.69,0,0,0-1.9,1.36,6,6,0,0,0-.05,1.24,4.8,4.8,0,0,0,.06,1.21A1.74,1.74,0,0,0,20,38.55,1.87,1.87,0,0,0,22,37.26,4.82,4.82,0,0,0,22,36Z"/><path class="a" d="M25.92,36a6,6,0,0,0-.08-1.1A1.79,1.79,0,0,0,24,33.46a1.69,1.69,0,0,0-1.9,1.36,6,6,0,0,0,0,1.24,4.36,4.36,0,0,0,.07,1.21,1.72,1.72,0,0,0,1.8,1.28,1.87,1.87,0,0,0,1.94-1.29A4.82,4.82,0,0,0,25.92,36Z"/><path class="a" d="M14.27,36a5.89,5.89,0,0,1,.09-1.1,1.78,1.78,0,0,1,1.85-1.42,1.69,1.69,0,0,1,1.91,1.36,6,6,0,0,1,0,1.24,4.37,4.37,0,0,1-.06,1.21,1.73,1.73,0,0,1-1.81,1.28,1.81,1.81,0,0,1-1.95-1.19A5.63,5.63,0,0,1,14.27,36Z"/><path class="a" d="M41.39,36a5.89,5.89,0,0,1,.09-1.1,1.77,1.77,0,0,1,1.85-1.42,1.69,1.69,0,0,1,1.9,1.36,6,6,0,0,1,.05,1.24,4.8,4.8,0,0,1-.06,1.21,1.74,1.74,0,0,1-1.81,1.28,1.81,1.81,0,0,1-1.95-1.19A5.63,5.63,0,0,1,41.39,36Z"/><path class="a" d="M45.28,36a5.89,5.89,0,0,1,.09-1.1,1.78,1.78,0,0,1,1.85-1.42,1.68,1.68,0,0,1,1.9,1.36,5.35,5.35,0,0,1,.05,1.24,4.37,4.37,0,0,1-.06,1.21,1.74,1.74,0,0,1-1.81,1.28,1.81,1.81,0,0,1-1.95-1.19A5.63,5.63,0,0,1,45.28,36Z"/><path class="a" d="M35.74,42.67a6,6,0,0,0-.08-1.1,1.78,1.78,0,0,0-1.85-1.42,1.7,1.7,0,0,0-1.91,1.36,6,6,0,0,0,0,1.24A4.37,4.37,0,0,0,31.92,44a1.73,1.73,0,0,0,1.81,1.28A1.85,1.85,0,0,0,35.66,44,4.82,4.82,0,0,0,35.74,42.67Z"/><path class="a" d="M43.46,42.67a6,6,0,0,0-.09-1.1,1.77,1.77,0,0,0-1.85-1.42,1.7,1.7,0,0,0-1.9,1.36,6,6,0,0,0,0,1.24A4.8,4.8,0,0,0,39.63,44a1.74,1.74,0,0,0,1.81,1.28A1.87,1.87,0,0,0,43.38,44,4.82,4.82,0,0,0,43.46,42.67Z"/><path class="a" d="M47.35,42.67a6,6,0,0,0-.08-1.1,1.79,1.79,0,0,0-1.86-1.42,1.7,1.7,0,0,0-1.9,1.36,6,6,0,0,0,0,1.24A4.36,4.36,0,0,0,43.53,44a1.72,1.72,0,0,0,1.8,1.28A1.87,1.87,0,0,0,47.27,44,4.82,4.82,0,0,0,47.35,42.67Z"/><path class="a" d="M35.7,42.67a6,6,0,0,1,.09-1.1,1.78,1.78,0,0,1,1.85-1.42,1.7,1.7,0,0,1,1.91,1.36,6,6,0,0,1,0,1.24A4.37,4.37,0,0,1,39.53,44a1.73,1.73,0,0,1-1.81,1.28,1.81,1.81,0,0,1-1.95-1.19A5.63,5.63,0,0,1,35.7,42.67Z"/><path class="a" d="M20.25,42.67a6,6,0,0,0-.08-1.1,1.79,1.79,0,0,0-1.86-1.42,1.7,1.7,0,0,0-1.9,1.36,6,6,0,0,0-.05,1.24A4.78,4.78,0,0,0,16.43,44a1.73,1.73,0,0,0,1.8,1.28A1.87,1.87,0,0,0,20.17,44,4.82,4.82,0,0,0,20.25,42.67Z"/><path class="a" d="M28,42.67a6,6,0,0,0-.09-1.1A1.78,1.78,0,0,0,26,40.15a1.68,1.68,0,0,0-1.9,1.36,5.35,5.35,0,0,0-.05,1.24A4.37,4.37,0,0,0,24.14,44,1.74,1.74,0,0,0,26,45.24,1.85,1.85,0,0,0,27.88,44,4.8,4.8,0,0,0,28,42.67Z"/><path class="a" d="M31.86,42.67a6,6,0,0,0-.09-1.1,1.78,1.78,0,0,0-1.85-1.42A1.68,1.68,0,0,0,28,41.51,5.35,5.35,0,0,0,28,42.75,4.37,4.37,0,0,0,28,44a1.74,1.74,0,0,0,1.81,1.28A1.85,1.85,0,0,0,31.77,44,4.8,4.8,0,0,0,31.86,42.67Z"/><path class="a" d="M20.21,42.67a6,6,0,0,1,.09-1.1,1.78,1.78,0,0,1,1.85-1.42,1.68,1.68,0,0,1,1.9,1.36,5.35,5.35,0,0,1,.05,1.24A4.37,4.37,0,0,1,24,44a1.74,1.74,0,0,1-1.81,1.28,1.81,1.81,0,0,1-1.95-1.19A5.63,5.63,0,0,1,20.21,42.67Z"/><path class="a" d="M47.33,42.67a6,6,0,0,1,.08-1.1,1.79,1.79,0,0,1,1.86-1.42,1.7,1.7,0,0,1,1.9,1.36,6,6,0,0,1,0,1.24A4.78,4.78,0,0,1,51.15,44a1.73,1.73,0,0,1-1.8,1.28,1.81,1.81,0,0,1-2-1.19A5.63,5.63,0,0,1,47.33,42.67Z"/><path class="a" d="M51.22,42.67a6,6,0,0,1,.08-1.1,1.79,1.79,0,0,1,1.86-1.42,1.7,1.7,0,0,1,1.9,1.36,6,6,0,0,1,0,1.24A4.36,4.36,0,0,1,55,44a1.72,1.72,0,0,1-1.8,1.28,1.81,1.81,0,0,1-2-1.19A5.63,5.63,0,0,1,51.22,42.67Z"/><path class="a" d="M40.37,2.52a6,6,0,0,0-.08-1.1A1.79,1.79,0,0,0,38.43,0a1.7,1.7,0,0,0-1.9,1.36,6,6,0,0,0-.05,1.24,4.36,4.36,0,0,0,.07,1.21,1.72,1.72,0,0,0,1.8,1.28A1.87,1.87,0,0,0,40.29,3.8,4.82,4.82,0,0,0,40.37,2.52Z"/><path class="a" d="M48.08,2.52A6,6,0,0,0,48,1.42,1.78,1.78,0,0,0,46.15,0a1.7,1.7,0,0,0-1.91,1.36,6,6,0,0,0-.05,1.24,4.78,4.78,0,0,0,.07,1.21,1.73,1.73,0,0,0,1.8,1.28A1.87,1.87,0,0,0,48,3.8,4.82,4.82,0,0,0,48.08,2.52Z"/><path class="a" d="M52,2.52a6,6,0,0,0-.08-1.1A1.78,1.78,0,0,0,50,0a1.7,1.7,0,0,0-1.91,1.36,6,6,0,0,0,0,1.24,4.37,4.37,0,0,0,.06,1.21A1.73,1.73,0,0,0,50,5.09,1.85,1.85,0,0,0,51.89,3.8,4.82,4.82,0,0,0,52,2.52Z"/><path class="a" d="M40.33,2.52a6,6,0,0,1,.08-1.1A1.79,1.79,0,0,1,42.27,0a1.7,1.7,0,0,1,1.9,1.36,6,6,0,0,1,0,1.24,4.78,4.78,0,0,1-.07,1.21,1.73,1.73,0,0,1-1.8,1.28,1.81,1.81,0,0,1-2-1.19A5.63,5.63,0,0,1,40.33,2.52Z"/><path class="a" d="M32.59,2.52a6,6,0,0,0-.08-1.1A1.79,1.79,0,0,0,30.65,0a1.7,1.7,0,0,0-1.9,1.36A6,6,0,0,0,28.7,2.6a4.78,4.78,0,0,0,.07,1.21,1.73,1.73,0,0,0,1.8,1.28A1.87,1.87,0,0,0,32.51,3.8,4.82,4.82,0,0,0,32.59,2.52Z"/><path class="a" d="M36.48,2.52a6,6,0,0,0-.08-1.1A1.79,1.79,0,0,0,34.54,0a1.7,1.7,0,0,0-1.9,1.36,6,6,0,0,0,0,1.24,4.78,4.78,0,0,0,.07,1.21,1.73,1.73,0,0,0,1.8,1.28A1.87,1.87,0,0,0,36.4,3.8,4.82,4.82,0,0,0,36.48,2.52Z"/><path class="a" d="M24.84,2.52a6,6,0,0,1,.08-1.1A1.79,1.79,0,0,1,26.78,0a1.7,1.7,0,0,1,1.9,1.36,6,6,0,0,1,.05,1.24,4.78,4.78,0,0,1-.07,1.21,1.73,1.73,0,0,1-1.8,1.28A1.81,1.81,0,0,1,24.91,3.9,5.63,5.63,0,0,1,24.84,2.52Z"/><path class="a" d="M52,2.52a6,6,0,0,1,.09-1.1A1.78,1.78,0,0,1,53.94,0a1.68,1.68,0,0,1,1.9,1.36,5.35,5.35,0,0,1,0,1.24,4.37,4.37,0,0,1-.06,1.21A1.74,1.74,0,0,1,54,5.09a1.81,1.81,0,0,1-2-1.19A5.63,5.63,0,0,1,52,2.52Z"/><path class="a" d="M3.86,2.52a6,6,0,0,1,.08-1.1A1.78,1.78,0,0,1,5.79,0,1.7,1.7,0,0,1,7.7,1.36a6,6,0,0,1,0,1.24,4.78,4.78,0,0,1-.07,1.21,1.73,1.73,0,0,1-1.8,1.28A1.87,1.87,0,0,1,3.94,3.8,4.82,4.82,0,0,1,3.86,2.52Z"/><path class="a" d="M3.9,2.52a6,6,0,0,0-.09-1.1A1.78,1.78,0,0,0,2,0,1.68,1.68,0,0,0,.06,1.36,5.35,5.35,0,0,0,0,2.6,4.37,4.37,0,0,0,.07,3.81,1.74,1.74,0,0,0,1.88,5.09a1.81,1.81,0,0,0,2-1.19A5.63,5.63,0,0,0,3.9,2.52Z"/><path class="a" d="M38.81,49.36a6,6,0,0,0-.09-1.1,1.77,1.77,0,0,0-1.85-1.42A1.7,1.7,0,0,0,35,48.21a5.91,5.91,0,0,0,0,1.24,4.72,4.72,0,0,0,.06,1.2,1.72,1.72,0,0,0,1.81,1.28,1.87,1.87,0,0,0,1.94-1.29A4.82,4.82,0,0,0,38.81,49.36Z"/><path class="a" d="M46.52,49.36a6.1,6.1,0,0,0-.08-1.1,1.79,1.79,0,0,0-1.86-1.42,1.7,1.7,0,0,0-1.9,1.37,5.91,5.91,0,0,0,0,1.24,4.7,4.7,0,0,0,.07,1.2,1.71,1.71,0,0,0,1.8,1.28,1.87,1.87,0,0,0,1.94-1.29A4.82,4.82,0,0,0,46.52,49.36Z"/><path class="a" d="M50.41,49.36a6.1,6.1,0,0,0-.08-1.1,1.78,1.78,0,0,0-1.85-1.42,1.7,1.7,0,0,0-1.91,1.37,5.91,5.91,0,0,0,0,1.24,4.7,4.7,0,0,0,.07,1.2,1.71,1.71,0,0,0,1.8,1.28,1.87,1.87,0,0,0,1.94-1.29A4.82,4.82,0,0,0,50.41,49.36Z"/><path class="a" d="M38.77,49.36a6.1,6.1,0,0,1,.08-1.1,1.79,1.79,0,0,1,1.86-1.42,1.7,1.7,0,0,1,1.9,1.37,5.91,5.91,0,0,1,0,1.24,4.7,4.7,0,0,1-.07,1.2,1.71,1.71,0,0,1-1.8,1.28,1.8,1.8,0,0,1-1.95-1.18A5.74,5.74,0,0,1,38.77,49.36Z"/><path class="a" d="M23.32,49.36a6,6,0,0,0-.09-1.1,1.78,1.78,0,0,0-1.85-1.42,1.68,1.68,0,0,0-1.9,1.37,5.3,5.3,0,0,0-.05,1.24,4.3,4.3,0,0,0,.06,1.2,1.72,1.72,0,0,0,1.81,1.28,1.85,1.85,0,0,0,1.93-1.29A4.8,4.8,0,0,0,23.32,49.36Z"/><path class="a" d="M31,49.36a6.1,6.1,0,0,0-.08-1.1,1.79,1.79,0,0,0-1.86-1.42,1.7,1.7,0,0,0-1.9,1.37,5.91,5.91,0,0,0-.05,1.24,4.7,4.7,0,0,0,.07,1.2A1.71,1.71,0,0,0,29,51.93,1.87,1.87,0,0,0,31,50.64,4.82,4.82,0,0,0,31,49.36Z"/><path class="a" d="M34.92,49.36a6.1,6.1,0,0,0-.08-1.1A1.79,1.79,0,0,0,33,46.84a1.7,1.7,0,0,0-1.9,1.37,5.91,5.91,0,0,0,0,1.24,4.7,4.7,0,0,0,.07,1.2,1.71,1.71,0,0,0,1.8,1.28,1.87,1.87,0,0,0,1.94-1.29A4.82,4.82,0,0,0,34.92,49.36Z"/><path class="a" d="M23.28,49.36a6.1,6.1,0,0,1,.08-1.1,1.78,1.78,0,0,1,1.85-1.42,1.7,1.7,0,0,1,1.91,1.37,5.91,5.91,0,0,1,.05,1.24,4.7,4.7,0,0,1-.07,1.2,1.71,1.71,0,0,1-1.8,1.28,1.82,1.82,0,0,1-2-1.18A5.75,5.75,0,0,1,23.28,49.36Z"/><path class="a" d="M50.39,49.36a6,6,0,0,1,.09-1.1,1.78,1.78,0,0,1,1.85-1.42,1.68,1.68,0,0,1,1.9,1.37,5.3,5.3,0,0,1,.05,1.24,4.3,4.3,0,0,1-.06,1.2,1.72,1.72,0,0,1-1.81,1.28,1.81,1.81,0,0,1-1.95-1.18A5.74,5.74,0,0,1,50.39,49.36Z"/><path class="a" d="M.69,49.36a6.1,6.1,0,0,1,.08-1.1,1.78,1.78,0,0,1,1.85-1.42,1.7,1.7,0,0,1,1.91,1.37,5.91,5.91,0,0,1,0,1.24,4.7,4.7,0,0,1-.07,1.2,1.71,1.71,0,0,1-1.8,1.28,1.82,1.82,0,0,1-2-1.18A5.75,5.75,0,0,1,.69,49.36Z"/><path class="a" d="M35.61,56.05A5.11,5.11,0,0,0,35.52,55a1.78,1.78,0,0,0-1.85-1.43,1.7,1.7,0,0,0-1.9,1.37,5.91,5.91,0,0,0-.05,1.24,4.36,4.36,0,0,0,.07,1.21,1.7,1.7,0,0,0,1.8,1.27,1.87,1.87,0,0,0,1.94-1.29A4.82,4.82,0,0,0,35.61,56.05Z"/><path class="a" d="M43.32,56.05A5.92,5.92,0,0,0,43.24,55a1.79,1.79,0,0,0-1.86-1.43,1.7,1.7,0,0,0-1.9,1.37,5.91,5.91,0,0,0,0,1.24,4.78,4.78,0,0,0,.07,1.21,1.71,1.71,0,0,0,1.8,1.27,1.87,1.87,0,0,0,1.94-1.29A4.82,4.82,0,0,0,43.32,56.05Z"/><path class="a" d="M47.21,56.05A5.92,5.92,0,0,0,47.13,55a1.79,1.79,0,0,0-1.85-1.43,1.7,1.7,0,0,0-1.91,1.37,5.36,5.36,0,0,0,0,1.24,4.37,4.37,0,0,0,.06,1.21,1.71,1.71,0,0,0,1.8,1.27,1.86,1.86,0,0,0,1.94-1.29A4.82,4.82,0,0,0,47.21,56.05Z"/><path class="a" d="M35.57,56.05A5.92,5.92,0,0,1,35.65,55a1.79,1.79,0,0,1,1.86-1.43,1.7,1.7,0,0,1,1.9,1.37,5.91,5.91,0,0,1,.05,1.24,4.78,4.78,0,0,1-.07,1.21,1.71,1.71,0,0,1-1.8,1.27,1.8,1.8,0,0,1-2-1.18A5.74,5.74,0,0,1,35.57,56.05Z"/><path class="a" d="M20.12,56.05A5.85,5.85,0,0,0,20,55a1.78,1.78,0,0,0-1.85-1.43,1.68,1.68,0,0,0-1.9,1.37,5.3,5.3,0,0,0-.05,1.24,4.37,4.37,0,0,0,.06,1.21,1.72,1.72,0,0,0,1.81,1.27A1.85,1.85,0,0,0,20,57.33,4.8,4.8,0,0,0,20.12,56.05Z"/><path class="a" d="M27.83,56.05A5.92,5.92,0,0,0,27.75,55a1.79,1.79,0,0,0-1.86-1.43A1.7,1.7,0,0,0,24,54.9a5.91,5.91,0,0,0,0,1.24A4.78,4.78,0,0,0,24,57.35a1.71,1.71,0,0,0,1.8,1.27,1.87,1.87,0,0,0,1.94-1.29A4.82,4.82,0,0,0,27.83,56.05Z"/><path class="a" d="M31.72,56.05A5.92,5.92,0,0,0,31.64,55a1.79,1.79,0,0,0-1.86-1.43,1.7,1.7,0,0,0-1.9,1.37,5.91,5.91,0,0,0-.05,1.24,4.78,4.78,0,0,0,.07,1.21,1.71,1.71,0,0,0,1.8,1.27,1.87,1.87,0,0,0,1.94-1.29A4.82,4.82,0,0,0,31.72,56.05Z"/><path class="a" d="M20.08,56.05A5.92,5.92,0,0,1,20.16,55,1.79,1.79,0,0,1,22,53.53a1.7,1.7,0,0,1,1.9,1.37,5.91,5.91,0,0,1,0,1.24,4.78,4.78,0,0,1-.07,1.21,1.71,1.71,0,0,1-1.8,1.27,1.82,1.82,0,0,1-2-1.18A5.75,5.75,0,0,1,20.08,56.05Z"/><path class="a" d="M47.24,56.05A5.85,5.85,0,0,1,47.33,55a1.78,1.78,0,0,1,1.85-1.43,1.68,1.68,0,0,1,1.9,1.37,5.3,5.3,0,0,1,.05,1.24,4.8,4.8,0,0,1-.06,1.21,1.72,1.72,0,0,1-1.81,1.27,1.8,1.8,0,0,1-1.95-1.18A5.74,5.74,0,0,1,47.24,56.05Z"/><path class="a" d="M3.34,56.05A5.92,5.92,0,0,1,3.42,55a1.79,1.79,0,0,1,1.86-1.43,1.7,1.7,0,0,1,1.9,1.37,5.91,5.91,0,0,1,.05,1.24,4.78,4.78,0,0,1-.07,1.21,1.71,1.71,0,0,1-1.8,1.27,1.8,1.8,0,0,1-1.95-1.18A5.74,5.74,0,0,1,3.34,56.05Z"/></svg>