<svg xmlns="http://www.w3.org/2000/svg" width="66.62" height="65.32" viewBox="0 0 66.62 65.32"><defs><style>.a{fill:#21364f;}</style></defs><title>Asset 144</title><path class="a" d="M45.71,22.56a6.1,6.1,0,0,0-.08-1.1A1.78,1.78,0,0,0,43.78,20a1.7,1.7,0,0,0-1.91,1.37,6,6,0,0,0,0,1.24,4.3,4.3,0,0,0,.06,1.2,1.71,1.71,0,0,0,1.81,1.28,1.85,1.85,0,0,0,1.93-1.29A4.82,4.82,0,0,0,45.71,22.56Z"/><path class="a" d="M53.43,22.56a5.26,5.26,0,0,0-.09-1.1A1.77,1.77,0,0,0,51.49,20a1.7,1.7,0,0,0-1.9,1.37,5.91,5.91,0,0,0-.05,1.24,4.29,4.29,0,0,0,.07,1.2,1.7,1.7,0,0,0,1.8,1.28,1.87,1.87,0,0,0,1.94-1.29A4.82,4.82,0,0,0,53.43,22.56Z"/><path class="a" d="M57.32,22.56a6.1,6.1,0,0,0-.08-1.1A1.79,1.79,0,0,0,55.38,20a1.7,1.7,0,0,0-1.9,1.37,5.91,5.91,0,0,0,0,1.24,4.7,4.7,0,0,0,.07,1.2,1.71,1.71,0,0,0,1.8,1.28,1.87,1.87,0,0,0,1.94-1.29A4.82,4.82,0,0,0,57.32,22.56Z"/><path class="a" d="M45.68,22.56a6.1,6.1,0,0,1,.08-1.1A1.78,1.78,0,0,1,47.61,20a1.7,1.7,0,0,1,1.91,1.37,6,6,0,0,1,0,1.24,4.3,4.3,0,0,1-.06,1.2,1.71,1.71,0,0,1-1.81,1.28A1.81,1.81,0,0,1,45.74,24,5.75,5.75,0,0,1,45.68,22.56Z"/><path class="a" d="M30.22,22.56a6.1,6.1,0,0,0-.08-1.1A1.79,1.79,0,0,0,28.28,20a1.7,1.7,0,0,0-1.9,1.37,5.91,5.91,0,0,0-.05,1.24,4.7,4.7,0,0,0,.07,1.2,1.71,1.71,0,0,0,1.8,1.28,1.87,1.87,0,0,0,1.94-1.29A4.82,4.82,0,0,0,30.22,22.56Z"/><path class="a" d="M37.94,22.56a6,6,0,0,0-.09-1.1A1.78,1.78,0,0,0,36,20a1.68,1.68,0,0,0-1.9,1.37,5.3,5.3,0,0,0-.05,1.24,4.3,4.3,0,0,0,.06,1.2,1.72,1.72,0,0,0,1.81,1.28,1.85,1.85,0,0,0,1.93-1.29A4.8,4.8,0,0,0,37.94,22.56Z"/><path class="a" d="M41.83,22.56a6,6,0,0,0-.09-1.1A1.77,1.77,0,0,0,39.89,20,1.68,1.68,0,0,0,38,21.41a5.3,5.3,0,0,0-.05,1.24,4.72,4.72,0,0,0,.06,1.2,1.72,1.72,0,0,0,1.81,1.28,1.87,1.87,0,0,0,1.94-1.29A4.82,4.82,0,0,0,41.83,22.56Z"/><path class="a" d="M30.18,22.56a6,6,0,0,1,.09-1.1A1.78,1.78,0,0,1,32.12,20,1.68,1.68,0,0,1,34,21.41a5.3,5.3,0,0,1,0,1.24,4.3,4.3,0,0,1-.06,1.2,1.72,1.72,0,0,1-1.81,1.28,1.8,1.8,0,0,1-2-1.18A5.74,5.74,0,0,1,30.18,22.56Z"/><path class="a" d="M57.3,22.56a6.1,6.1,0,0,1,.08-1.1A1.79,1.79,0,0,1,59.24,20a1.7,1.7,0,0,1,1.9,1.37,5.91,5.91,0,0,1,0,1.24,4.7,4.7,0,0,1-.07,1.2,1.71,1.71,0,0,1-1.8,1.28,1.8,1.8,0,0,1-2-1.18A5.74,5.74,0,0,1,57.3,22.56Z"/><path class="a" d="M61.19,22.56a5.26,5.26,0,0,1,.09-1.1A1.77,1.77,0,0,1,63.13,20,1.7,1.7,0,0,1,65,21.41a5.91,5.91,0,0,1,0,1.24,4.29,4.29,0,0,1-.07,1.2,1.7,1.7,0,0,1-1.8,1.28,1.8,1.8,0,0,1-2-1.18A5.74,5.74,0,0,1,61.19,22.56Z"/><path class="a" d="M35.37,2.52a6,6,0,0,0-.08-1.1A1.78,1.78,0,0,0,33.44,0a1.7,1.7,0,0,0-1.91,1.36,6,6,0,0,0,0,1.24,4.37,4.37,0,0,0,.06,1.21,1.73,1.73,0,0,0,1.81,1.28A1.85,1.85,0,0,0,35.29,3.8,4.82,4.82,0,0,0,35.37,2.52Z"/><path class="a" d="M43.09,2.52A6,6,0,0,0,43,1.42,1.77,1.77,0,0,0,41.15,0a1.7,1.7,0,0,0-1.9,1.36,6,6,0,0,0,0,1.24,4.8,4.8,0,0,0,.06,1.21,1.74,1.74,0,0,0,1.81,1.28A1.87,1.87,0,0,0,43,3.8,4.82,4.82,0,0,0,43.09,2.52Z"/><path class="a" d="M47,2.52a6,6,0,0,0-.08-1.1A1.79,1.79,0,0,0,45,0a1.7,1.7,0,0,0-1.9,1.36,6,6,0,0,0,0,1.24,4.36,4.36,0,0,0,.07,1.21A1.72,1.72,0,0,0,45,5.09,1.87,1.87,0,0,0,46.9,3.8,4.82,4.82,0,0,0,47,2.52Z"/><path class="a" d="M35.34,2.52a6,6,0,0,1,.08-1.1A1.78,1.78,0,0,1,37.27,0a1.7,1.7,0,0,1,1.91,1.36,6,6,0,0,1,0,1.24,4.37,4.37,0,0,1-.06,1.21,1.73,1.73,0,0,1-1.81,1.28,1.81,1.81,0,0,1-2-1.19A5.65,5.65,0,0,1,35.34,2.52Z"/><path class="a" d="M19.88,2.52a6,6,0,0,0-.08-1.1A1.79,1.79,0,0,0,17.94,0,1.7,1.7,0,0,0,16,1.36,6,6,0,0,0,16,2.6a4.78,4.78,0,0,0,.07,1.21,1.73,1.73,0,0,0,1.8,1.28A1.87,1.87,0,0,0,19.8,3.8,4.82,4.82,0,0,0,19.88,2.52Z"/><path class="a" d="M27.6,2.52a6,6,0,0,0-.09-1.1A1.78,1.78,0,0,0,25.66,0a1.68,1.68,0,0,0-1.9,1.36,5.35,5.35,0,0,0-.05,1.24,4.37,4.37,0,0,0,.06,1.21,1.74,1.74,0,0,0,1.81,1.28A1.85,1.85,0,0,0,27.51,3.8,4.8,4.8,0,0,0,27.6,2.52Z"/><path class="a" d="M31.49,2.52a6,6,0,0,0-.09-1.1A1.78,1.78,0,0,0,29.55,0a1.68,1.68,0,0,0-1.9,1.36,5.35,5.35,0,0,0,0,1.24,4.37,4.37,0,0,0,.06,1.21,1.74,1.74,0,0,0,1.81,1.28A1.87,1.87,0,0,0,31.41,3.8,5.28,5.28,0,0,0,31.49,2.52Z"/><path class="a" d="M19.84,2.52a6,6,0,0,1,.09-1.1A1.78,1.78,0,0,1,21.78,0a1.68,1.68,0,0,1,1.9,1.36,5.35,5.35,0,0,1,.05,1.24,4.37,4.37,0,0,1-.06,1.21,1.74,1.74,0,0,1-1.81,1.28A1.81,1.81,0,0,1,19.91,3.9,5.63,5.63,0,0,1,19.84,2.52Z"/><path class="a" d="M47,2.52A6,6,0,0,1,47,1.42,1.79,1.79,0,0,1,48.9,0a1.7,1.7,0,0,1,1.9,1.36,6,6,0,0,1,.05,1.24,4.78,4.78,0,0,1-.07,1.21A1.73,1.73,0,0,1,49,5.09,1.81,1.81,0,0,1,47,3.9,5.63,5.63,0,0,1,47,2.52Z"/><path class="a" d="M50.85,2.52a5.2,5.2,0,0,1,.09-1.1A1.77,1.77,0,0,1,52.79,0a1.7,1.7,0,0,1,1.9,1.36,6,6,0,0,1,.05,1.24,4.36,4.36,0,0,1-.07,1.21,1.72,1.72,0,0,1-1.8,1.28A1.81,1.81,0,0,1,50.92,3.9,5.63,5.63,0,0,1,50.85,2.52Z"/><path class="a" d="M42.11,29.24A5.85,5.85,0,0,0,42,28.15a1.77,1.77,0,0,0-1.85-1.43,1.68,1.68,0,0,0-1.9,1.37,5.3,5.3,0,0,0-.05,1.24,4.39,4.39,0,0,0,.06,1.21,1.72,1.72,0,0,0,1.81,1.27A1.85,1.85,0,0,0,42,30.52,4.8,4.8,0,0,0,42.11,29.24Z"/><path class="a" d="M49.82,29.24a5.92,5.92,0,0,0-.08-1.09,1.78,1.78,0,0,0-1.86-1.43A1.7,1.7,0,0,0,46,28.09a5.91,5.91,0,0,0,0,1.24A4.81,4.81,0,0,0,46,30.54a1.71,1.71,0,0,0,1.8,1.27,1.87,1.87,0,0,0,1.94-1.29A4.82,4.82,0,0,0,49.82,29.24Z"/><path class="a" d="M53.71,29.24a5.92,5.92,0,0,0-.08-1.09,1.78,1.78,0,0,0-1.86-1.43,1.7,1.7,0,0,0-1.9,1.37,5.91,5.91,0,0,0,0,1.24,4.81,4.81,0,0,0,.07,1.21,1.71,1.71,0,0,0,1.8,1.27,1.87,1.87,0,0,0,1.94-1.29A4.82,4.82,0,0,0,53.71,29.24Z"/><path class="a" d="M42.07,29.24a5.92,5.92,0,0,1,.08-1.09A1.78,1.78,0,0,1,44,26.72a1.7,1.7,0,0,1,1.9,1.37A5.91,5.91,0,0,1,46,29.33a4.81,4.81,0,0,1-.07,1.21,1.71,1.71,0,0,1-1.8,1.27,1.82,1.82,0,0,1-2-1.18A5.75,5.75,0,0,1,42.07,29.24Z"/><path class="a" d="M26.61,29.24a5.92,5.92,0,0,0-.08-1.09,1.77,1.77,0,0,0-1.85-1.43,1.7,1.7,0,0,0-1.91,1.37,6,6,0,0,0,0,1.24,4.39,4.39,0,0,0,.06,1.21,1.71,1.71,0,0,0,1.81,1.27,1.85,1.85,0,0,0,1.93-1.29A4.82,4.82,0,0,0,26.61,29.24Z"/><path class="a" d="M34.33,29.24a5.85,5.85,0,0,0-.09-1.09,1.77,1.77,0,0,0-1.85-1.43,1.7,1.7,0,0,0-1.9,1.37,5.91,5.91,0,0,0,0,1.24,4.82,4.82,0,0,0,.06,1.21,1.72,1.72,0,0,0,1.81,1.27,1.87,1.87,0,0,0,1.94-1.29A4.82,4.82,0,0,0,34.33,29.24Z"/><path class="a" d="M38.22,29.24a5.92,5.92,0,0,0-.08-1.09,1.78,1.78,0,0,0-1.86-1.43,1.7,1.7,0,0,0-1.9,1.37,5.91,5.91,0,0,0-.05,1.24,4.39,4.39,0,0,0,.07,1.21,1.7,1.7,0,0,0,1.8,1.27,1.87,1.87,0,0,0,1.94-1.29A4.82,4.82,0,0,0,38.22,29.24Z"/><path class="a" d="M26.58,29.24a5.92,5.92,0,0,1,.08-1.09,1.77,1.77,0,0,1,1.85-1.43,1.7,1.7,0,0,1,1.91,1.37,6,6,0,0,1,0,1.24,4.39,4.39,0,0,1-.06,1.21,1.71,1.71,0,0,1-1.81,1.27,1.81,1.81,0,0,1-1.95-1.18A5.75,5.75,0,0,1,26.58,29.24Z"/><path class="a" d="M53.69,29.24a5.85,5.85,0,0,1,.09-1.09,1.77,1.77,0,0,1,1.85-1.43,1.7,1.7,0,0,1,1.9,1.37,5.91,5.91,0,0,1,0,1.24,4.82,4.82,0,0,1-.06,1.21,1.72,1.72,0,0,1-1.81,1.27,1.8,1.8,0,0,1-2-1.18A5.74,5.74,0,0,1,53.69,29.24Z"/><path class="a" d="M57.58,29.24a5.85,5.85,0,0,1,.09-1.09,1.77,1.77,0,0,1,1.85-1.43,1.68,1.68,0,0,1,1.9,1.37,5.3,5.3,0,0,1,0,1.24,4.39,4.39,0,0,1-.06,1.21,1.72,1.72,0,0,1-1.81,1.27,1.8,1.8,0,0,1-2-1.18A5.74,5.74,0,0,1,57.58,29.24Z"/><path class="a" d="M38.57,35.92a5.92,5.92,0,0,0-.08-1.09,1.79,1.79,0,0,0-1.86-1.42,1.69,1.69,0,0,0-1.9,1.36,5.91,5.91,0,0,0,0,1.24,4.78,4.78,0,0,0,.07,1.21,1.71,1.71,0,0,0,1.8,1.27,1.87,1.87,0,0,0,1.94-1.29A4.82,4.82,0,0,0,38.57,35.92Z"/><path class="a" d="M46.28,35.92a5.92,5.92,0,0,0-.08-1.09,1.78,1.78,0,0,0-1.85-1.42,1.69,1.69,0,0,0-1.91,1.36,6,6,0,0,0,0,1.24,4.37,4.37,0,0,0,.06,1.21,1.71,1.71,0,0,0,1.8,1.27A1.86,1.86,0,0,0,46.2,37.2,4.82,4.82,0,0,0,46.28,35.92Z"/><path class="a" d="M50.18,35.92a5.85,5.85,0,0,0-.09-1.09,1.78,1.78,0,0,0-1.85-1.42,1.69,1.69,0,0,0-1.91,1.36,6,6,0,0,0,0,1.24,4.37,4.37,0,0,0,.06,1.21,1.71,1.71,0,0,0,1.81,1.27,1.85,1.85,0,0,0,1.93-1.29A4.8,4.8,0,0,0,50.18,35.92Z"/><path class="a" d="M38.53,35.92a5.92,5.92,0,0,1,.08-1.09,1.79,1.79,0,0,1,1.86-1.42,1.69,1.69,0,0,1,1.9,1.36A5.91,5.91,0,0,1,42.42,36a4.36,4.36,0,0,1-.07,1.21,1.7,1.7,0,0,1-1.8,1.27,1.8,1.8,0,0,1-1.95-1.18A5.71,5.71,0,0,1,38.53,35.92Z"/><path class="a" d="M23.08,35.92A5.85,5.85,0,0,0,23,34.83a1.77,1.77,0,0,0-1.85-1.42,1.69,1.69,0,0,0-1.9,1.36,5.91,5.91,0,0,0,0,1.24,4.8,4.8,0,0,0,.06,1.21,1.72,1.72,0,0,0,1.81,1.27A1.87,1.87,0,0,0,23,37.2,4.82,4.82,0,0,0,23.08,35.92Z"/><path class="a" d="M30.79,35.92a5.92,5.92,0,0,0-.08-1.09,1.79,1.79,0,0,0-1.86-1.42A1.69,1.69,0,0,0,27,34.77,5.91,5.91,0,0,0,26.9,36,4.78,4.78,0,0,0,27,37.22a1.71,1.71,0,0,0,1.8,1.27,1.87,1.87,0,0,0,1.94-1.29A4.82,4.82,0,0,0,30.79,35.92Z"/><path class="a" d="M34.68,35.92a5.92,5.92,0,0,0-.08-1.09,1.78,1.78,0,0,0-1.85-1.42,1.69,1.69,0,0,0-1.91,1.36A5.91,5.91,0,0,0,30.79,36a4.78,4.78,0,0,0,.07,1.21,1.71,1.71,0,0,0,1.8,1.27A1.87,1.87,0,0,0,34.6,37.2,4.82,4.82,0,0,0,34.68,35.92Z"/><path class="a" d="M23,35.92a5.92,5.92,0,0,1,.08-1.09A1.79,1.79,0,0,1,25,33.41a1.69,1.69,0,0,1,1.9,1.36A5.91,5.91,0,0,1,26.93,36a4.78,4.78,0,0,1-.07,1.21,1.71,1.71,0,0,1-1.8,1.27,1.8,1.8,0,0,1-1.95-1.18A5.71,5.71,0,0,1,23,35.92Z"/><path class="a" d="M50.16,35.92a5.92,5.92,0,0,1,.08-1.09,1.78,1.78,0,0,1,1.85-1.42A1.69,1.69,0,0,1,54,34.77,6,6,0,0,1,54,36,4.37,4.37,0,0,1,54,37.22a1.71,1.71,0,0,1-1.8,1.27,1.81,1.81,0,0,1-2-1.18A5.73,5.73,0,0,1,50.16,35.92Z"/><path class="a" d="M54.05,35.92a5.92,5.92,0,0,1,.08-1.09A1.78,1.78,0,0,1,56,33.41a1.69,1.69,0,0,1,1.91,1.36,5.91,5.91,0,0,1,0,1.24,4.78,4.78,0,0,1-.07,1.21,1.71,1.71,0,0,1-1.8,1.27,1.82,1.82,0,0,1-2-1.18A5.73,5.73,0,0,1,54.05,35.92Z"/><path class="a" d="M33.72,42.6a5.85,5.85,0,0,0-.09-1.09,1.78,1.78,0,0,0-1.85-1.42,1.69,1.69,0,0,0-1.91,1.36,6,6,0,0,0,0,1.24,4.37,4.37,0,0,0,.06,1.21,1.74,1.74,0,0,0,1.81,1.28,1.86,1.86,0,0,0,1.93-1.3A4.77,4.77,0,0,0,33.72,42.6Z"/><path class="a" d="M41.43,42.6a5.92,5.92,0,0,0-.08-1.09,1.79,1.79,0,0,0-1.86-1.42,1.69,1.69,0,0,0-1.9,1.36,5.91,5.91,0,0,0-.05,1.24,4.78,4.78,0,0,0,.07,1.21,1.73,1.73,0,0,0,1.8,1.28,1.88,1.88,0,0,0,1.94-1.3A4.79,4.79,0,0,0,41.43,42.6Z"/><path class="a" d="M45.32,42.6a5.92,5.92,0,0,0-.08-1.09,1.79,1.79,0,0,0-1.86-1.42,1.69,1.69,0,0,0-1.9,1.36,5.91,5.91,0,0,0,0,1.24,4.78,4.78,0,0,0,.07,1.21,1.73,1.73,0,0,0,1.8,1.28,1.88,1.88,0,0,0,1.94-1.3A4.79,4.79,0,0,0,45.32,42.6Z"/><path class="a" d="M33.68,42.6a5.92,5.92,0,0,1,.08-1.09,1.78,1.78,0,0,1,1.85-1.42,1.69,1.69,0,0,1,1.91,1.36,5.36,5.36,0,0,1,0,1.24,4.37,4.37,0,0,1-.06,1.21,1.73,1.73,0,0,1-1.8,1.28,1.83,1.83,0,0,1-2-1.19A5.7,5.7,0,0,1,33.68,42.6Z"/><path class="a" d="M18.22,42.6a5.92,5.92,0,0,0-.08-1.09,1.78,1.78,0,0,0-1.85-1.42,1.69,1.69,0,0,0-1.91,1.36,5.36,5.36,0,0,0,0,1.24,4.37,4.37,0,0,0,.06,1.21,1.73,1.73,0,0,0,1.8,1.28,1.86,1.86,0,0,0,1.94-1.3A4.79,4.79,0,0,0,18.22,42.6Z"/><path class="a" d="M25.94,42.6a5.85,5.85,0,0,0-.09-1.09A1.77,1.77,0,0,0,24,40.09a1.68,1.68,0,0,0-1.9,1.36,5.3,5.3,0,0,0-.05,1.24,4.8,4.8,0,0,0,.06,1.21,1.74,1.74,0,0,0,1.81,1.28,1.88,1.88,0,0,0,1.94-1.3A4.79,4.79,0,0,0,25.94,42.6Z"/><path class="a" d="M29.83,42.6a5.11,5.11,0,0,0-.09-1.09,1.77,1.77,0,0,0-1.85-1.42A1.69,1.69,0,0,0,26,41.45a5.91,5.91,0,0,0,0,1.24A4.36,4.36,0,0,0,26,43.9a1.72,1.72,0,0,0,1.8,1.28,1.88,1.88,0,0,0,1.94-1.3A4.79,4.79,0,0,0,29.83,42.6Z"/><path class="a" d="M18.18,42.6a5.85,5.85,0,0,1,.09-1.09,1.78,1.78,0,0,1,1.85-1.42A1.69,1.69,0,0,1,22,41.45a6,6,0,0,1,0,1.24A4.37,4.37,0,0,1,22,43.9a1.74,1.74,0,0,1-1.81,1.28A1.83,1.83,0,0,1,18.25,44,5.68,5.68,0,0,1,18.18,42.6Z"/><path class="a" d="M45.3,42.6a5.11,5.11,0,0,1,.09-1.09,1.77,1.77,0,0,1,1.85-1.42,1.69,1.69,0,0,1,1.9,1.36,5.91,5.91,0,0,1,0,1.24,4.36,4.36,0,0,1-.07,1.21,1.72,1.72,0,0,1-1.8,1.28,1.82,1.82,0,0,1-2-1.19A5.68,5.68,0,0,1,45.3,42.6Z"/><path class="a" d="M49.19,42.6a5.85,5.85,0,0,1,.09-1.09,1.77,1.77,0,0,1,1.85-1.42A1.68,1.68,0,0,1,53,41.45a5.3,5.3,0,0,1,0,1.24A4.8,4.8,0,0,1,53,43.9a1.74,1.74,0,0,1-1.81,1.28,1.82,1.82,0,0,1-2-1.19A5.68,5.68,0,0,1,49.19,42.6Z"/><path class="a" d="M29,49.28a5.85,5.85,0,0,0-.09-1.09A1.77,1.77,0,0,0,27,46.77a1.69,1.69,0,0,0-1.9,1.36,5.94,5.94,0,0,0-.05,1.24,4.8,4.8,0,0,0,.06,1.21,1.74,1.74,0,0,0,1.81,1.28,1.88,1.88,0,0,0,1.94-1.29A4.89,4.89,0,0,0,29,49.28Z"/><path class="a" d="M36.66,49.28a5.92,5.92,0,0,0-.08-1.09,1.79,1.79,0,0,0-1.86-1.42,1.69,1.69,0,0,0-1.9,1.36,5.94,5.94,0,0,0,0,1.24,4.78,4.78,0,0,0,.07,1.21,1.73,1.73,0,0,0,1.8,1.28,1.88,1.88,0,0,0,1.94-1.29A4.89,4.89,0,0,0,36.66,49.28Z"/><path class="a" d="M40.55,49.28a5.92,5.92,0,0,0-.08-1.09,1.78,1.78,0,0,0-1.85-1.42,1.69,1.69,0,0,0-1.91,1.36,5.94,5.94,0,0,0-.05,1.24,4.78,4.78,0,0,0,.07,1.21,1.73,1.73,0,0,0,1.8,1.28,1.88,1.88,0,0,0,1.94-1.29A4.89,4.89,0,0,0,40.55,49.28Z"/><path class="a" d="M28.91,49.28A5.92,5.92,0,0,1,29,48.19a1.79,1.79,0,0,1,1.86-1.42,1.69,1.69,0,0,1,1.9,1.36,5.94,5.94,0,0,1,0,1.24,4.78,4.78,0,0,1-.07,1.21,1.73,1.73,0,0,1-1.8,1.28A1.82,1.82,0,0,1,29,50.67,5.68,5.68,0,0,1,28.91,49.28Z"/><path class="a" d="M13.46,49.28a5.85,5.85,0,0,0-.09-1.09,1.78,1.78,0,0,0-1.85-1.42,1.68,1.68,0,0,0-1.9,1.36,5.33,5.33,0,0,0,0,1.24,4.37,4.37,0,0,0,.06,1.21,1.74,1.74,0,0,0,1.81,1.28,1.86,1.86,0,0,0,1.93-1.29A4.88,4.88,0,0,0,13.46,49.28Z"/><path class="a" d="M21.17,49.28a5.92,5.92,0,0,0-.08-1.09,1.79,1.79,0,0,0-1.86-1.42,1.69,1.69,0,0,0-1.9,1.36,5.94,5.94,0,0,0,0,1.24,4.78,4.78,0,0,0,.07,1.21,1.73,1.73,0,0,0,1.8,1.28,1.88,1.88,0,0,0,1.94-1.29A4.89,4.89,0,0,0,21.17,49.28Z"/><path class="a" d="M25.06,49.28A5.92,5.92,0,0,0,25,48.19a1.79,1.79,0,0,0-1.86-1.42,1.69,1.69,0,0,0-1.9,1.36,5.94,5.94,0,0,0,0,1.24,4.78,4.78,0,0,0,.07,1.21A1.73,1.73,0,0,0,23,51.86,1.88,1.88,0,0,0,25,50.57,4.89,4.89,0,0,0,25.06,49.28Z"/><path class="a" d="M13.42,49.28a5.92,5.92,0,0,1,.08-1.09,1.78,1.78,0,0,1,1.85-1.42,1.69,1.69,0,0,1,1.91,1.36,5.94,5.94,0,0,1,0,1.24,4.78,4.78,0,0,1-.07,1.21,1.73,1.73,0,0,1-1.8,1.28,1.84,1.84,0,0,1-2-1.19A5.7,5.7,0,0,1,13.42,49.28Z"/><path class="a" d="M40.53,49.28a5.85,5.85,0,0,1,.09-1.09,1.78,1.78,0,0,1,1.85-1.42,1.68,1.68,0,0,1,1.9,1.36,5.33,5.33,0,0,1,.05,1.24,4.37,4.37,0,0,1-.06,1.21,1.74,1.74,0,0,1-1.81,1.28,1.83,1.83,0,0,1-1.95-1.19A5.68,5.68,0,0,1,40.53,49.28Z"/><path class="a" d="M44.43,49.28a5.92,5.92,0,0,1,.08-1.09,1.78,1.78,0,0,1,1.85-1.42,1.69,1.69,0,0,1,1.91,1.36,6,6,0,0,1,0,1.24,4.37,4.37,0,0,1-.06,1.21,1.73,1.73,0,0,1-1.81,1.28,1.83,1.83,0,0,1-1.95-1.19A5.7,5.7,0,0,1,44.43,49.28Z"/><path class="a" d="M22.84,56a5.92,5.92,0,0,0-.08-1.09,1.79,1.79,0,0,0-1.86-1.42A1.69,1.69,0,0,0,19,54.81,5.94,5.94,0,0,0,19,56.05,4.78,4.78,0,0,0,19,57.26a1.73,1.73,0,0,0,1.8,1.28,1.88,1.88,0,0,0,1.94-1.29A4.89,4.89,0,0,0,22.84,56Z"/><path class="a" d="M30.56,56a5.85,5.85,0,0,0-.09-1.09,1.78,1.78,0,0,0-1.85-1.42,1.68,1.68,0,0,0-1.9,1.36,5.33,5.33,0,0,0,0,1.24,4.37,4.37,0,0,0,.06,1.21,1.74,1.74,0,0,0,1.81,1.28,1.86,1.86,0,0,0,1.93-1.29A4.88,4.88,0,0,0,30.56,56Z"/><path class="a" d="M34.45,56a5.85,5.85,0,0,0-.09-1.09,1.77,1.77,0,0,0-1.85-1.42,1.68,1.68,0,0,0-1.9,1.36,5.33,5.33,0,0,0-.05,1.24,4.8,4.8,0,0,0,.06,1.21,1.74,1.74,0,0,0,1.81,1.28,1.88,1.88,0,0,0,1.94-1.29A4.89,4.89,0,0,0,34.45,56Z"/><path class="a" d="M22.8,56a5.85,5.85,0,0,1,.09-1.09,1.78,1.78,0,0,1,1.85-1.42,1.68,1.68,0,0,1,1.9,1.36,5.33,5.33,0,0,1,.05,1.24,4.37,4.37,0,0,1-.06,1.21,1.74,1.74,0,0,1-1.81,1.28,1.82,1.82,0,0,1-1.95-1.19A5.68,5.68,0,0,1,22.8,56Z"/><path class="a" d="M7.35,56a5.92,5.92,0,0,0-.08-1.09,1.79,1.79,0,0,0-1.86-1.42,1.69,1.69,0,0,0-1.9,1.36,5.94,5.94,0,0,0,0,1.24,4.78,4.78,0,0,0,.07,1.21,1.73,1.73,0,0,0,1.8,1.28,1.88,1.88,0,0,0,1.94-1.29A4.89,4.89,0,0,0,7.35,56Z"/><path class="a" d="M15.06,56A5.92,5.92,0,0,0,15,54.87a1.78,1.78,0,0,0-1.85-1.42,1.69,1.69,0,0,0-1.91,1.36,6,6,0,0,0,0,1.24,4.37,4.37,0,0,0,.06,1.21,1.73,1.73,0,0,0,1.81,1.28A1.86,1.86,0,0,0,15,57.25,4.89,4.89,0,0,0,15.06,56Z"/><path class="a" d="M19,56a5.85,5.85,0,0,0-.09-1.09A1.78,1.78,0,0,0,17,53.45a1.69,1.69,0,0,0-1.91,1.36,6,6,0,0,0,0,1.24,4.37,4.37,0,0,0,.06,1.21,1.73,1.73,0,0,0,1.81,1.28,1.86,1.86,0,0,0,1.93-1.29A4.88,4.88,0,0,0,19,56Z"/><path class="a" d="M7.31,56a5.11,5.11,0,0,1,.09-1.09,1.77,1.77,0,0,1,1.85-1.42,1.69,1.69,0,0,1,1.9,1.36,5.94,5.94,0,0,1,0,1.24,4.36,4.36,0,0,1-.07,1.21,1.72,1.72,0,0,1-1.8,1.28,1.82,1.82,0,0,1-1.95-1.19A5.68,5.68,0,0,1,7.31,56Z"/><path class="a" d="M34.43,56a5.92,5.92,0,0,1,.08-1.09,1.79,1.79,0,0,1,1.86-1.42,1.69,1.69,0,0,1,1.9,1.36,5.94,5.94,0,0,1,0,1.24,4.78,4.78,0,0,1-.07,1.21,1.73,1.73,0,0,1-1.8,1.28,1.82,1.82,0,0,1-2-1.19A5.68,5.68,0,0,1,34.43,56Z"/><path class="a" d="M38.32,56a5.92,5.92,0,0,1,.08-1.09,1.79,1.79,0,0,1,1.86-1.42,1.69,1.69,0,0,1,1.9,1.36,5.94,5.94,0,0,1,.05,1.24,4.78,4.78,0,0,1-.07,1.21,1.73,1.73,0,0,1-1.8,1.28,1.82,1.82,0,0,1-2-1.19A5.68,5.68,0,0,1,38.32,56Z"/><path class="a" d="M40,62.55a6.1,6.1,0,0,0-.08-1.1A1.79,1.79,0,0,0,38,60a1.7,1.7,0,0,0-1.9,1.36,6,6,0,0,0,0,1.25,4.73,4.73,0,0,0,.07,1.2A1.72,1.72,0,0,0,38,65.12a1.87,1.87,0,0,0,1.94-1.29A4.82,4.82,0,0,0,40,62.55Z"/><path class="a" d="M47.7,62.55a6,6,0,0,0-.09-1.1A1.78,1.78,0,0,0,45.76,60a1.68,1.68,0,0,0-1.9,1.36,5.41,5.41,0,0,0,0,1.25,4.32,4.32,0,0,0,.06,1.2,1.73,1.73,0,0,0,1.81,1.28,1.85,1.85,0,0,0,1.93-1.29A4.8,4.8,0,0,0,47.7,62.55Z"/><path class="a" d="M51.59,62.55a6,6,0,0,0-.09-1.1A1.78,1.78,0,0,0,49.65,60a1.68,1.68,0,0,0-1.9,1.36,5.41,5.41,0,0,0,0,1.25,4.32,4.32,0,0,0,.06,1.2,1.73,1.73,0,0,0,1.81,1.28,1.87,1.87,0,0,0,1.94-1.29A5.28,5.28,0,0,0,51.59,62.55Z"/><path class="a" d="M39.94,62.55a6,6,0,0,1,.09-1.1A1.78,1.78,0,0,1,41.88,60a1.68,1.68,0,0,1,1.9,1.36,5.41,5.41,0,0,1,0,1.25,4.32,4.32,0,0,1-.06,1.2A1.73,1.73,0,0,1,42,65.12a1.81,1.81,0,0,1-2-1.19A5.63,5.63,0,0,1,39.94,62.55Z"/><path class="a" d="M32.2,62.55a6.1,6.1,0,0,0-.08-1.1A1.78,1.78,0,0,0,30.27,60a1.7,1.7,0,0,0-1.91,1.36,6.12,6.12,0,0,0,0,1.25,4.32,4.32,0,0,0,.06,1.2,1.72,1.72,0,0,0,1.81,1.28,1.85,1.85,0,0,0,1.93-1.29A4.82,4.82,0,0,0,32.2,62.55Z"/><path class="a" d="M36.1,62.55a6,6,0,0,0-.09-1.1A1.78,1.78,0,0,0,34.16,60a1.7,1.7,0,0,0-1.91,1.36,6.12,6.12,0,0,0,0,1.25,4.32,4.32,0,0,0,.06,1.2,1.72,1.72,0,0,0,1.81,1.28A1.85,1.85,0,0,0,36,63.83,4.8,4.8,0,0,0,36.1,62.55Z"/><path class="a" d="M24.45,62.55a6.1,6.1,0,0,1,.08-1.1A1.79,1.79,0,0,1,26.39,60a1.7,1.7,0,0,1,1.9,1.36,6,6,0,0,1,.05,1.25,4.31,4.31,0,0,1-.07,1.2,1.71,1.71,0,0,1-1.8,1.28,1.81,1.81,0,0,1-1.95-1.19A5.63,5.63,0,0,1,24.45,62.55Z"/><path class="a" d="M51.62,62.55a6.1,6.1,0,0,1,.08-1.1A1.78,1.78,0,0,1,53.55,60a1.7,1.7,0,0,1,1.91,1.36,5.48,5.48,0,0,1,0,1.25,4.32,4.32,0,0,1-.06,1.2,1.72,1.72,0,0,1-1.8,1.28,1.82,1.82,0,0,1-2-1.19A5.65,5.65,0,0,1,51.62,62.55Z"/><path class="a" d="M3.9,62.74a5.85,5.85,0,0,0-.09-1.09A1.78,1.78,0,0,0,2,60.23a1.68,1.68,0,0,0-1.9,1.36,5.33,5.33,0,0,0,0,1.24A4.37,4.37,0,0,0,.07,64a1.74,1.74,0,0,0,1.81,1.28A1.86,1.86,0,0,0,3.81,64,4.88,4.88,0,0,0,3.9,62.74Z"/><path class="a" d="M3.93,62.74A5.92,5.92,0,0,1,4,61.65a1.78,1.78,0,0,1,1.85-1.42,1.69,1.69,0,0,1,1.91,1.36,6,6,0,0,1,0,1.24A4.37,4.37,0,0,1,7.75,64a1.73,1.73,0,0,1-1.81,1.28A1.83,1.83,0,0,1,4,64.13,5.7,5.7,0,0,1,3.93,62.74Z"/><path class="a" d="M51.09,16A5.92,5.92,0,0,0,51,14.87a1.79,1.79,0,0,0-1.86-1.42,1.69,1.69,0,0,0-1.9,1.36,5.94,5.94,0,0,0,0,1.24,4.78,4.78,0,0,0,.07,1.21,1.73,1.73,0,0,0,1.8,1.28A1.88,1.88,0,0,0,51,17.25,4.89,4.89,0,0,0,51.09,16Z"/><path class="a" d="M58.8,16a5.92,5.92,0,0,0-.08-1.09,1.78,1.78,0,0,0-1.85-1.42A1.69,1.69,0,0,0,55,14.81a6,6,0,0,0,0,1.24A4.37,4.37,0,0,0,55,17.26a1.73,1.73,0,0,0,1.81,1.28,1.86,1.86,0,0,0,1.93-1.29A4.89,4.89,0,0,0,58.8,16Z"/><path class="a" d="M62.7,16a5.85,5.85,0,0,0-.09-1.09,1.78,1.78,0,0,0-1.85-1.42,1.68,1.68,0,0,0-1.9,1.36,5.33,5.33,0,0,0,0,1.24,4.37,4.37,0,0,0,.06,1.21,1.74,1.74,0,0,0,1.81,1.28,1.86,1.86,0,0,0,1.93-1.29A4.88,4.88,0,0,0,62.7,16Z"/><path class="a" d="M51.05,16a5.85,5.85,0,0,1,.09-1.09A1.77,1.77,0,0,1,53,13.45a1.69,1.69,0,0,1,1.9,1.36,5.94,5.94,0,0,1,0,1.24,4.8,4.8,0,0,1-.06,1.21,1.74,1.74,0,0,1-1.81,1.28,1.82,1.82,0,0,1-2-1.19A5.68,5.68,0,0,1,51.05,16Z"/><path class="a" d="M35.6,16a5.92,5.92,0,0,0-.08-1.09,1.79,1.79,0,0,0-1.86-1.42,1.69,1.69,0,0,0-1.9,1.36,5.94,5.94,0,0,0-.05,1.24,4.36,4.36,0,0,0,.07,1.21,1.72,1.72,0,0,0,1.8,1.28,1.88,1.88,0,0,0,1.94-1.29A4.89,4.89,0,0,0,35.6,16Z"/><path class="a" d="M43.31,16a5.92,5.92,0,0,0-.08-1.09,1.78,1.78,0,0,0-1.85-1.42,1.69,1.69,0,0,0-1.91,1.36,5.94,5.94,0,0,0,0,1.24,4.78,4.78,0,0,0,.07,1.21,1.73,1.73,0,0,0,1.8,1.28,1.88,1.88,0,0,0,1.94-1.29A4.89,4.89,0,0,0,43.31,16Z"/><path class="a" d="M47.2,16a5.92,5.92,0,0,0-.08-1.09,1.78,1.78,0,0,0-1.85-1.42,1.69,1.69,0,0,0-1.91,1.36,6,6,0,0,0,0,1.24,4.37,4.37,0,0,0,.06,1.21,1.73,1.73,0,0,0,1.8,1.28,1.87,1.87,0,0,0,1.94-1.29A4.89,4.89,0,0,0,47.2,16Z"/><path class="a" d="M35.56,16a5.92,5.92,0,0,1,.08-1.09,1.79,1.79,0,0,1,1.86-1.42,1.69,1.69,0,0,1,1.9,1.36,5.94,5.94,0,0,1,.05,1.24,4.78,4.78,0,0,1-.07,1.21,1.73,1.73,0,0,1-1.8,1.28,1.82,1.82,0,0,1-1.95-1.19A5.68,5.68,0,0,1,35.56,16Z"/><path class="a" d="M62.73,16a5.92,5.92,0,0,1,.08-1.09,1.78,1.78,0,0,1,1.85-1.42,1.69,1.69,0,0,1,1.91,1.36,6,6,0,0,1,0,1.24,4.37,4.37,0,0,1-.06,1.21,1.73,1.73,0,0,1-1.81,1.28,1.83,1.83,0,0,1-1.95-1.19A5.7,5.7,0,0,1,62.73,16Z"/><path class="a" d="M8.09,15.79a5.92,5.92,0,0,1,.08-1.09A1.79,1.79,0,0,1,10,13.28a1.69,1.69,0,0,1,1.9,1.36A5.94,5.94,0,0,1,12,15.88a4.78,4.78,0,0,1-.07,1.21,1.73,1.73,0,0,1-1.8,1.28,1.82,1.82,0,0,1-1.95-1.19A5.68,5.68,0,0,1,8.09,15.79Z"/><path class="a" d="M47.11,9.29A5.92,5.92,0,0,0,47,8.2a1.79,1.79,0,0,0-1.86-1.43,1.7,1.7,0,0,0-1.9,1.37,5.91,5.91,0,0,0-.05,1.24,4.81,4.81,0,0,0,.07,1.21,1.71,1.71,0,0,0,1.8,1.27A1.87,1.87,0,0,0,47,10.57,4.82,4.82,0,0,0,47.11,9.29Z"/><path class="a" d="M54.82,9.29a5.92,5.92,0,0,0-.08-1.09,1.78,1.78,0,0,0-1.85-1.43A1.7,1.7,0,0,0,51,8.14a6,6,0,0,0,0,1.24A4.39,4.39,0,0,0,51,10.59a1.71,1.71,0,0,0,1.81,1.27,1.85,1.85,0,0,0,1.93-1.29A4.82,4.82,0,0,0,54.82,9.29Z"/><path class="a" d="M58.72,9.29a5.85,5.85,0,0,0-.09-1.09,1.78,1.78,0,0,0-1.85-1.43,1.7,1.7,0,0,0-1.91,1.37,6,6,0,0,0,0,1.24,4.39,4.39,0,0,0,.06,1.21,1.72,1.72,0,0,0,1.81,1.27,1.85,1.85,0,0,0,1.93-1.29A4.8,4.8,0,0,0,58.72,9.29Z"/><path class="a" d="M47.07,9.29a5.11,5.11,0,0,1,.09-1.09A1.78,1.78,0,0,1,49,6.77a1.7,1.7,0,0,1,1.9,1.37A5.91,5.91,0,0,1,51,9.38a4.39,4.39,0,0,1-.07,1.21,1.7,1.7,0,0,1-1.8,1.27,1.8,1.8,0,0,1-2-1.18A5.74,5.74,0,0,1,47.07,9.29Z"/><path class="a" d="M31.62,9.29a5.11,5.11,0,0,0-.09-1.09,1.78,1.78,0,0,0-1.85-1.43,1.7,1.7,0,0,0-1.9,1.37,5.91,5.91,0,0,0-.05,1.24,4.39,4.39,0,0,0,.07,1.21,1.7,1.7,0,0,0,1.8,1.27,1.87,1.87,0,0,0,1.94-1.29A4.82,4.82,0,0,0,31.62,9.29Z"/><path class="a" d="M39.33,9.29a5.92,5.92,0,0,0-.08-1.09,1.79,1.79,0,0,0-1.86-1.43,1.7,1.7,0,0,0-1.9,1.37,5.91,5.91,0,0,0-.05,1.24,4.81,4.81,0,0,0,.07,1.21,1.71,1.71,0,0,0,1.8,1.27,1.87,1.87,0,0,0,1.94-1.29A4.82,4.82,0,0,0,39.33,9.29Z"/><path class="a" d="M43.22,9.29a5.92,5.92,0,0,0-.08-1.09,1.79,1.79,0,0,0-1.85-1.43,1.7,1.7,0,0,0-1.91,1.37,5.36,5.36,0,0,0,0,1.24,4.39,4.39,0,0,0,.06,1.21,1.71,1.71,0,0,0,1.8,1.27,1.86,1.86,0,0,0,1.94-1.29A4.82,4.82,0,0,0,43.22,9.29Z"/><path class="a" d="M31.58,9.29a5.92,5.92,0,0,1,.08-1.09,1.79,1.79,0,0,1,1.86-1.43,1.7,1.7,0,0,1,1.9,1.37,5.91,5.91,0,0,1,0,1.24,4.81,4.81,0,0,1-.07,1.21,1.71,1.71,0,0,1-1.8,1.27,1.8,1.8,0,0,1-2-1.18A5.74,5.74,0,0,1,31.58,9.29Z"/><path class="a" d="M58.74,9.29a5.85,5.85,0,0,1,.09-1.09,1.78,1.78,0,0,1,1.85-1.43,1.7,1.7,0,0,1,1.91,1.37,6,6,0,0,1,0,1.24,4.39,4.39,0,0,1-.06,1.21,1.71,1.71,0,0,1-1.81,1.27,1.81,1.81,0,0,1-1.95-1.18A5.74,5.74,0,0,1,58.74,9.29Z"/><path class="a" d="M10.73,9.1A5.92,5.92,0,0,1,10.81,8a1.79,1.79,0,0,1,1.86-1.42A1.69,1.69,0,0,1,14.57,8a5.94,5.94,0,0,1,0,1.24,4.78,4.78,0,0,1-.07,1.21,1.73,1.73,0,0,1-1.8,1.28,1.82,1.82,0,0,1-1.95-1.19A5.68,5.68,0,0,1,10.73,9.1Z"/></svg>