<svg xmlns="http://www.w3.org/2000/svg" width="61.78" height="65.32" viewBox="0 0 61.78 65.32"><defs><style>.a{fill:#21364f;}</style></defs><title>Asset 148</title><path class="a" d="M42.1,42.67a6,6,0,0,0-.09-1.1,1.78,1.78,0,0,0-1.85-1.42,1.68,1.68,0,0,0-1.9,1.36,5.35,5.35,0,0,0,0,1.24A4.37,4.37,0,0,0,38.27,44a1.74,1.74,0,0,0,1.81,1.28A1.85,1.85,0,0,0,42,44,4.8,4.8,0,0,0,42.1,42.67Z"/><path class="a" d="M49.81,42.67a6,6,0,0,0-.08-1.1,1.79,1.79,0,0,0-1.86-1.42A1.7,1.7,0,0,0,46,41.51a6,6,0,0,0,0,1.24A4.78,4.78,0,0,0,46,44a1.73,1.73,0,0,0,1.8,1.28A1.87,1.87,0,0,0,49.73,44,4.82,4.82,0,0,0,49.81,42.67Z"/><path class="a" d="M53.7,42.67a6,6,0,0,0-.08-1.1,1.79,1.79,0,0,0-1.86-1.42,1.7,1.7,0,0,0-1.9,1.36,6,6,0,0,0,0,1.24A4.78,4.78,0,0,0,49.88,44a1.73,1.73,0,0,0,1.8,1.28A1.87,1.87,0,0,0,53.62,44,4.82,4.82,0,0,0,53.7,42.67Z"/><path class="a" d="M42.06,42.67a6,6,0,0,1,.08-1.1A1.78,1.78,0,0,1,44,40.15a1.7,1.7,0,0,1,1.91,1.36A6,6,0,0,1,46,42.75,4.78,4.78,0,0,1,45.88,44a1.73,1.73,0,0,1-1.8,1.28,1.83,1.83,0,0,1-2-1.19A5.65,5.65,0,0,1,42.06,42.67Z"/><path class="a" d="M26.6,42.67a6,6,0,0,0-.08-1.1,1.78,1.78,0,0,0-1.85-1.42,1.7,1.7,0,0,0-1.91,1.36,6,6,0,0,0,0,1.24A4.37,4.37,0,0,0,22.78,44a1.73,1.73,0,0,0,1.81,1.28A1.85,1.85,0,0,0,26.52,44,4.82,4.82,0,0,0,26.6,42.67Z"/><path class="a" d="M34.32,42.67a6,6,0,0,0-.09-1.1,1.77,1.77,0,0,0-1.85-1.42,1.7,1.7,0,0,0-1.9,1.36,6,6,0,0,0-.05,1.24A4.8,4.8,0,0,0,30.49,44a1.74,1.74,0,0,0,1.81,1.28A1.87,1.87,0,0,0,34.24,44,4.82,4.82,0,0,0,34.32,42.67Z"/><path class="a" d="M38.21,42.67a6,6,0,0,0-.08-1.1,1.79,1.79,0,0,0-1.86-1.42,1.7,1.7,0,0,0-1.9,1.36,6,6,0,0,0,0,1.24A4.36,4.36,0,0,0,34.39,44a1.72,1.72,0,0,0,1.8,1.28A1.87,1.87,0,0,0,38.13,44,4.82,4.82,0,0,0,38.21,42.67Z"/><path class="a" d="M26.56,42.67a6,6,0,0,1,.09-1.1,1.78,1.78,0,0,1,1.85-1.42,1.7,1.7,0,0,1,1.91,1.36,6,6,0,0,1,0,1.24A4.37,4.37,0,0,1,30.39,44a1.73,1.73,0,0,1-1.81,1.28,1.81,1.81,0,0,1-1.95-1.19A5.63,5.63,0,0,1,26.56,42.67Z"/><path class="a" d="M53.68,42.67a6,6,0,0,1,.09-1.1,1.77,1.77,0,0,1,1.85-1.42,1.7,1.7,0,0,1,1.9,1.36,6,6,0,0,1,0,1.24A4.8,4.8,0,0,1,57.51,44a1.74,1.74,0,0,1-1.81,1.28,1.81,1.81,0,0,1-2-1.19A5.63,5.63,0,0,1,53.68,42.67Z"/><path class="a" d="M57.57,42.67a6,6,0,0,1,.09-1.1,1.78,1.78,0,0,1,1.85-1.42,1.68,1.68,0,0,1,1.9,1.36,5.35,5.35,0,0,1,.05,1.24A4.37,4.37,0,0,1,61.4,44a1.74,1.74,0,0,1-1.81,1.28,1.81,1.81,0,0,1-2-1.19A5.63,5.63,0,0,1,57.57,42.67Z"/><path class="a" d="M40.65,22.59a5.92,5.92,0,0,0-.08-1.09,1.78,1.78,0,0,0-1.85-1.42,1.69,1.69,0,0,0-1.91,1.36,6,6,0,0,0,0,1.24,4.37,4.37,0,0,0,.06,1.21,1.73,1.73,0,0,0,1.81,1.28,1.87,1.87,0,0,0,1.93-1.3A4.82,4.82,0,0,0,40.65,22.59Z"/><path class="a" d="M48.37,22.59a5.85,5.85,0,0,0-.09-1.09,1.77,1.77,0,0,0-1.85-1.42,1.69,1.69,0,0,0-1.9,1.36,5.91,5.91,0,0,0-.05,1.24,4.8,4.8,0,0,0,.06,1.21,1.74,1.74,0,0,0,1.81,1.28,1.89,1.89,0,0,0,1.94-1.3A4.82,4.82,0,0,0,48.37,22.59Z"/><path class="a" d="M52.26,22.59a5.92,5.92,0,0,0-.08-1.09,1.79,1.79,0,0,0-1.86-1.42,1.69,1.69,0,0,0-1.9,1.36,5.91,5.91,0,0,0-.05,1.24,4.36,4.36,0,0,0,.07,1.21,1.72,1.72,0,0,0,1.8,1.28,1.89,1.89,0,0,0,1.94-1.3A4.82,4.82,0,0,0,52.26,22.59Z"/><path class="a" d="M40.61,22.59a5.85,5.85,0,0,1,.09-1.09,1.78,1.78,0,0,1,1.85-1.42,1.69,1.69,0,0,1,1.91,1.36,6,6,0,0,1,0,1.24,4.37,4.37,0,0,1-.06,1.21,1.73,1.73,0,0,1-1.81,1.28,1.83,1.83,0,0,1-2-1.19A5.71,5.71,0,0,1,40.61,22.59Z"/><path class="a" d="M25.16,22.59a5.92,5.92,0,0,0-.08-1.09,1.79,1.79,0,0,0-1.86-1.42,1.69,1.69,0,0,0-1.9,1.36,5.91,5.91,0,0,0-.05,1.24,4.78,4.78,0,0,0,.07,1.21,1.73,1.73,0,0,0,1.8,1.28,1.88,1.88,0,0,0,1.94-1.3A4.82,4.82,0,0,0,25.16,22.59Z"/><path class="a" d="M32.88,22.59a5.85,5.85,0,0,0-.09-1.09,1.78,1.78,0,0,0-1.85-1.42A1.68,1.68,0,0,0,29,21.44,5.3,5.3,0,0,0,29,22.68a4.37,4.37,0,0,0,.06,1.21,1.74,1.74,0,0,0,1.81,1.28,1.87,1.87,0,0,0,1.93-1.3A4.8,4.8,0,0,0,32.88,22.59Z"/><path class="a" d="M36.77,22.59a5.85,5.85,0,0,0-.09-1.09,1.78,1.78,0,0,0-1.85-1.42,1.68,1.68,0,0,0-1.9,1.36,5.3,5.3,0,0,0,0,1.24,4.37,4.37,0,0,0,.06,1.21,1.74,1.74,0,0,0,1.81,1.28,1.89,1.89,0,0,0,1.94-1.3A5.28,5.28,0,0,0,36.77,22.59Z"/><path class="a" d="M25.12,22.59a5.85,5.85,0,0,1,.09-1.09,1.78,1.78,0,0,1,1.85-1.42A1.68,1.68,0,0,1,29,21.44,5.3,5.3,0,0,1,29,22.68,4.37,4.37,0,0,1,29,23.89a1.74,1.74,0,0,1-1.81,1.28A1.82,1.82,0,0,1,25.19,24,5.71,5.71,0,0,1,25.12,22.59Z"/><path class="a" d="M52.24,22.59a5.92,5.92,0,0,1,.08-1.09,1.79,1.79,0,0,1,1.86-1.42,1.69,1.69,0,0,1,1.9,1.36,5.91,5.91,0,0,1,.05,1.24,4.78,4.78,0,0,1-.07,1.21,1.73,1.73,0,0,1-1.8,1.28A1.82,1.82,0,0,1,52.31,24,5.71,5.71,0,0,1,52.24,22.59Z"/><path class="a" d="M56.13,22.59a5.11,5.11,0,0,1,.09-1.09,1.77,1.77,0,0,1,1.85-1.42A1.69,1.69,0,0,1,60,21.44,5.91,5.91,0,0,1,60,22.68,4.36,4.36,0,0,1,60,23.89a1.72,1.72,0,0,1-1.8,1.28A1.82,1.82,0,0,1,56.2,24,5.71,5.71,0,0,1,56.13,22.59Z"/><path class="a" d="M30.27,62.74a5.85,5.85,0,0,0-.09-1.09,1.77,1.77,0,0,0-1.85-1.42,1.69,1.69,0,0,0-1.9,1.36,5.94,5.94,0,0,0-.05,1.24A4.8,4.8,0,0,0,26.44,64a1.74,1.74,0,0,0,1.81,1.28A1.88,1.88,0,0,0,30.19,64,4.89,4.89,0,0,0,30.27,62.74Z"/><path class="a" d="M38,62.74a5.92,5.92,0,0,0-.08-1.09A1.79,1.79,0,0,0,36,60.23a1.69,1.69,0,0,0-1.9,1.36,5.94,5.94,0,0,0,0,1.24A4.78,4.78,0,0,0,34.16,64,1.73,1.73,0,0,0,36,65.32,1.88,1.88,0,0,0,37.9,64,4.89,4.89,0,0,0,38,62.74Z"/><path class="a" d="M41.87,62.74a5.92,5.92,0,0,0-.08-1.09,1.78,1.78,0,0,0-1.85-1.42A1.69,1.69,0,0,0,38,61.59,5.94,5.94,0,0,0,38,62.83,4.78,4.78,0,0,0,38.05,64a1.73,1.73,0,0,0,1.8,1.28A1.88,1.88,0,0,0,41.79,64,4.89,4.89,0,0,0,41.87,62.74Z"/><path class="a" d="M30.23,62.74a5.92,5.92,0,0,1,.08-1.09,1.79,1.79,0,0,1,1.86-1.42,1.69,1.69,0,0,1,1.9,1.36,5.94,5.94,0,0,1,0,1.24A4.78,4.78,0,0,1,34.05,64a1.73,1.73,0,0,1-1.8,1.28,1.82,1.82,0,0,1-1.95-1.19A5.68,5.68,0,0,1,30.23,62.74Z"/><path class="a" d="M14.78,62.74a5.85,5.85,0,0,0-.09-1.09,1.78,1.78,0,0,0-1.85-1.42,1.68,1.68,0,0,0-1.9,1.36,5.33,5.33,0,0,0,0,1.24A4.37,4.37,0,0,0,11,64a1.74,1.74,0,0,0,1.81,1.28A1.86,1.86,0,0,0,14.69,64,4.88,4.88,0,0,0,14.78,62.74Z"/><path class="a" d="M22.49,62.74a5.92,5.92,0,0,0-.08-1.09,1.79,1.79,0,0,0-1.86-1.42,1.69,1.69,0,0,0-1.9,1.36,5.94,5.94,0,0,0,0,1.24A4.78,4.78,0,0,0,18.67,64a1.73,1.73,0,0,0,1.8,1.28A1.88,1.88,0,0,0,22.41,64,4.89,4.89,0,0,0,22.49,62.74Z"/><path class="a" d="M26.38,62.74a5.92,5.92,0,0,0-.08-1.09,1.79,1.79,0,0,0-1.86-1.42,1.69,1.69,0,0,0-1.9,1.36,5.94,5.94,0,0,0-.05,1.24A4.78,4.78,0,0,0,22.56,64a1.73,1.73,0,0,0,1.8,1.28A1.88,1.88,0,0,0,26.3,64,4.89,4.89,0,0,0,26.38,62.74Z"/><path class="a" d="M14.74,62.74a5.92,5.92,0,0,1,.08-1.09,1.78,1.78,0,0,1,1.85-1.42,1.69,1.69,0,0,1,1.91,1.36,5.94,5.94,0,0,1,.05,1.24A4.78,4.78,0,0,1,18.56,64a1.73,1.73,0,0,1-1.8,1.28,1.84,1.84,0,0,1-2-1.19A5.7,5.7,0,0,1,14.74,62.74Z"/><path class="a" d="M41.85,62.74a5.85,5.85,0,0,1,.09-1.09,1.78,1.78,0,0,1,1.85-1.42,1.68,1.68,0,0,1,1.9,1.36,5.33,5.33,0,0,1,.05,1.24A4.37,4.37,0,0,1,45.68,64a1.74,1.74,0,0,1-1.81,1.28,1.83,1.83,0,0,1-1.95-1.19A5.68,5.68,0,0,1,41.85,62.74Z"/><path class="a" d="M45.75,62.74a5.92,5.92,0,0,1,.08-1.09,1.78,1.78,0,0,1,1.85-1.42,1.69,1.69,0,0,1,1.91,1.36,6,6,0,0,1,0,1.24A4.37,4.37,0,0,1,49.57,64a1.73,1.73,0,0,1-1.81,1.28,1.83,1.83,0,0,1-1.95-1.19A5.7,5.7,0,0,1,45.75,62.74Z"/><path class="a" d="M30.06,29.28A5.85,5.85,0,0,0,30,28.19a1.78,1.78,0,0,0-1.85-1.42,1.68,1.68,0,0,0-1.9,1.36,5.33,5.33,0,0,0,0,1.24,4.37,4.37,0,0,0,.06,1.21A1.74,1.74,0,0,0,28,31.86,1.86,1.86,0,0,0,30,30.57,4.88,4.88,0,0,0,30.06,29.28Z"/><path class="a" d="M37.77,29.28a5.92,5.92,0,0,0-.08-1.09,1.79,1.79,0,0,0-1.86-1.42,1.69,1.69,0,0,0-1.9,1.36,5.94,5.94,0,0,0,0,1.24A4.78,4.78,0,0,0,34,30.58a1.73,1.73,0,0,0,1.8,1.28,1.88,1.88,0,0,0,1.94-1.29A4.89,4.89,0,0,0,37.77,29.28Z"/><path class="a" d="M41.66,29.28a5.92,5.92,0,0,0-.08-1.09,1.79,1.79,0,0,0-1.86-1.42,1.69,1.69,0,0,0-1.9,1.36,5.94,5.94,0,0,0,0,1.24,4.78,4.78,0,0,0,.07,1.21,1.73,1.73,0,0,0,1.8,1.28,1.88,1.88,0,0,0,1.94-1.29A4.89,4.89,0,0,0,41.66,29.28Z"/><path class="a" d="M30,29.28a5.92,5.92,0,0,1,.08-1.09A1.79,1.79,0,0,1,32,26.77a1.69,1.69,0,0,1,1.9,1.36,5.94,5.94,0,0,1,0,1.24,4.78,4.78,0,0,1-.07,1.21A1.73,1.73,0,0,1,32,31.86a1.84,1.84,0,0,1-2-1.19A5.7,5.7,0,0,1,30,29.28Z"/><path class="a" d="M14.56,29.28a5.92,5.92,0,0,0-.08-1.09,1.78,1.78,0,0,0-1.85-1.42,1.69,1.69,0,0,0-1.91,1.36,6,6,0,0,0,0,1.24,4.37,4.37,0,0,0,.06,1.21,1.73,1.73,0,0,0,1.81,1.28,1.86,1.86,0,0,0,1.93-1.29A4.89,4.89,0,0,0,14.56,29.28Z"/><path class="a" d="M22.28,29.28a5.11,5.11,0,0,0-.09-1.09,1.77,1.77,0,0,0-1.85-1.42,1.69,1.69,0,0,0-1.9,1.36,5.94,5.94,0,0,0-.05,1.24,4.36,4.36,0,0,0,.07,1.21,1.72,1.72,0,0,0,1.8,1.28,1.88,1.88,0,0,0,1.94-1.29A4.89,4.89,0,0,0,22.28,29.28Z"/><path class="a" d="M26.17,29.28a5.92,5.92,0,0,0-.08-1.09,1.79,1.79,0,0,0-1.86-1.42,1.69,1.69,0,0,0-1.9,1.36,5.94,5.94,0,0,0,0,1.24,4.36,4.36,0,0,0,.07,1.21,1.73,1.73,0,0,0,1.8,1.28,1.88,1.88,0,0,0,1.94-1.29A4.89,4.89,0,0,0,26.17,29.28Z"/><path class="a" d="M14.53,29.28a5.92,5.92,0,0,1,.08-1.09,1.78,1.78,0,0,1,1.85-1.42,1.69,1.69,0,0,1,1.91,1.36,6,6,0,0,1,0,1.24,4.37,4.37,0,0,1-.06,1.21,1.73,1.73,0,0,1-1.81,1.28,1.83,1.83,0,0,1-1.95-1.19A5.7,5.7,0,0,1,14.53,29.28Z"/><path class="a" d="M41.64,29.28a5.85,5.85,0,0,1,.09-1.09,1.77,1.77,0,0,1,1.85-1.42,1.68,1.68,0,0,1,1.9,1.36,5.94,5.94,0,0,1,.05,1.24,4.8,4.8,0,0,1-.06,1.21,1.74,1.74,0,0,1-1.81,1.28,1.82,1.82,0,0,1-1.95-1.19A5.68,5.68,0,0,1,41.64,29.28Z"/><path class="a" d="M45.53,29.28a5.85,5.85,0,0,1,.09-1.09,1.78,1.78,0,0,1,1.85-1.42,1.68,1.68,0,0,1,1.9,1.36,5.33,5.33,0,0,1,.05,1.24,4.37,4.37,0,0,1-.06,1.21,1.74,1.74,0,0,1-1.81,1.28,1.82,1.82,0,0,1-1.95-1.19A5.68,5.68,0,0,1,45.53,29.28Z"/><path class="a" d="M39.18,36a6,6,0,0,0-.08-1.1,1.79,1.79,0,0,0-1.86-1.42,1.69,1.69,0,0,0-1.9,1.36,6,6,0,0,0-.05,1.24,4.36,4.36,0,0,0,.07,1.21,1.72,1.72,0,0,0,1.8,1.28,1.87,1.87,0,0,0,1.94-1.29A4.82,4.82,0,0,0,39.18,36Z"/><path class="a" d="M46.89,36a6,6,0,0,0-.08-1.1A1.78,1.78,0,0,0,45,33.46a1.69,1.69,0,0,0-1.91,1.36,6,6,0,0,0,0,1.24,4.78,4.78,0,0,0,.07,1.21,1.73,1.73,0,0,0,1.8,1.28,1.87,1.87,0,0,0,1.94-1.29A4.82,4.82,0,0,0,46.89,36Z"/><path class="a" d="M50.78,36a6,6,0,0,0-.08-1.1,1.78,1.78,0,0,0-1.85-1.42,1.69,1.69,0,0,0-1.91,1.36,6,6,0,0,0,0,1.24A4.37,4.37,0,0,0,47,37.27a1.73,1.73,0,0,0,1.81,1.28,1.85,1.85,0,0,0,1.93-1.29A4.82,4.82,0,0,0,50.78,36Z"/><path class="a" d="M39.14,36a6,6,0,0,1,.08-1.1,1.79,1.79,0,0,1,1.86-1.42A1.69,1.69,0,0,1,43,34.82,6,6,0,0,1,43,36.06,4.78,4.78,0,0,1,43,37.27a1.73,1.73,0,0,1-1.8,1.28,1.81,1.81,0,0,1-1.95-1.19A5.63,5.63,0,0,1,39.14,36Z"/><path class="a" d="M23.69,36a5.89,5.89,0,0,0-.09-1.1,1.78,1.78,0,0,0-1.85-1.42,1.68,1.68,0,0,0-1.9,1.36,5.35,5.35,0,0,0-.05,1.24,4.37,4.37,0,0,0,.06,1.21,1.74,1.74,0,0,0,1.81,1.28,1.87,1.87,0,0,0,1.94-1.29A5.28,5.28,0,0,0,23.69,36Z"/><path class="a" d="M31.4,36a6,6,0,0,0-.08-1.1,1.79,1.79,0,0,0-1.86-1.42,1.69,1.69,0,0,0-1.9,1.36,6,6,0,0,0,0,1.24,4.78,4.78,0,0,0,.07,1.21,1.73,1.73,0,0,0,1.8,1.28,1.87,1.87,0,0,0,1.94-1.29A4.82,4.82,0,0,0,31.4,36Z"/><path class="a" d="M35.29,36a6,6,0,0,0-.08-1.1,1.79,1.79,0,0,0-1.86-1.42,1.69,1.69,0,0,0-1.9,1.36,6,6,0,0,0-.05,1.24,4.78,4.78,0,0,0,.07,1.21,1.73,1.73,0,0,0,1.8,1.28,1.87,1.87,0,0,0,1.94-1.29A4.82,4.82,0,0,0,35.29,36Z"/><path class="a" d="M23.65,36a6,6,0,0,1,.08-1.1,1.79,1.79,0,0,1,1.86-1.42,1.69,1.69,0,0,1,1.9,1.36,6,6,0,0,1,.05,1.24,4.78,4.78,0,0,1-.07,1.21,1.73,1.73,0,0,1-1.8,1.28,1.81,1.81,0,0,1-2-1.19A5.63,5.63,0,0,1,23.65,36Z"/><path class="a" d="M50.77,36a6,6,0,0,1,.08-1.1,1.78,1.78,0,0,1,1.85-1.42,1.69,1.69,0,0,1,1.91,1.36,6,6,0,0,1,0,1.24,4.37,4.37,0,0,1-.06,1.21,1.73,1.73,0,0,1-1.81,1.28,1.81,1.81,0,0,1-2-1.19A5.65,5.65,0,0,1,50.77,36Z"/><path class="a" d="M54.66,36a6,6,0,0,1,.08-1.1,1.78,1.78,0,0,1,1.85-1.42,1.69,1.69,0,0,1,1.91,1.36,5.41,5.41,0,0,1,0,1.24,4.37,4.37,0,0,1-.06,1.21,1.73,1.73,0,0,1-1.8,1.28,1.82,1.82,0,0,1-2-1.19A5.65,5.65,0,0,1,54.66,36Z"/><path class="a" d="M29.1,2.52A6,6,0,0,0,29,1.42,1.79,1.79,0,0,0,27.16,0a1.7,1.7,0,0,0-1.9,1.36,6,6,0,0,0-.05,1.24,4.78,4.78,0,0,0,.07,1.21,1.73,1.73,0,0,0,1.8,1.28A1.87,1.87,0,0,0,29,3.8,4.82,4.82,0,0,0,29.1,2.52Z"/><path class="a" d="M36.81,2.52a6,6,0,0,0-.08-1.1A1.78,1.78,0,0,0,34.88,0,1.7,1.7,0,0,0,33,1.36a6,6,0,0,0,0,1.24A4.37,4.37,0,0,0,33,3.81,1.73,1.73,0,0,0,34.8,5.09,1.85,1.85,0,0,0,36.73,3.8,4.82,4.82,0,0,0,36.81,2.52Z"/><path class="a" d="M40.71,2.52a6,6,0,0,0-.09-1.1A1.78,1.78,0,0,0,38.77,0a1.7,1.7,0,0,0-1.91,1.36,6,6,0,0,0,0,1.24,4.37,4.37,0,0,0,.06,1.21,1.73,1.73,0,0,0,1.81,1.28A1.85,1.85,0,0,0,40.62,3.8,4.8,4.8,0,0,0,40.71,2.52Z"/><path class="a" d="M29.06,2.52a5.2,5.2,0,0,1,.09-1.1A1.77,1.77,0,0,1,31,0a1.7,1.7,0,0,1,1.9,1.36A6,6,0,0,1,33,2.6a4.36,4.36,0,0,1-.07,1.21,1.72,1.72,0,0,1-1.8,1.28A1.81,1.81,0,0,1,29.13,3.9,5.63,5.63,0,0,1,29.06,2.52Z"/><path class="a" d="M13.61,2.52a5.2,5.2,0,0,0-.09-1.1A1.77,1.77,0,0,0,11.67,0a1.7,1.7,0,0,0-1.9,1.36,6,6,0,0,0,0,1.24,4.36,4.36,0,0,0,.07,1.21,1.72,1.72,0,0,0,1.8,1.28A1.87,1.87,0,0,0,13.53,3.8,4.82,4.82,0,0,0,13.61,2.52Z"/><path class="a" d="M21.32,2.52a6,6,0,0,0-.08-1.1A1.79,1.79,0,0,0,19.38,0a1.7,1.7,0,0,0-1.9,1.36,6,6,0,0,0-.05,1.24,4.78,4.78,0,0,0,.07,1.21,1.73,1.73,0,0,0,1.8,1.28A1.87,1.87,0,0,0,21.24,3.8,4.82,4.82,0,0,0,21.32,2.52Z"/><path class="a" d="M25.21,2.52a6,6,0,0,0-.08-1.1A1.78,1.78,0,0,0,23.28,0a1.7,1.7,0,0,0-1.91,1.36,5.41,5.41,0,0,0,0,1.24,4.37,4.37,0,0,0,.06,1.21,1.73,1.73,0,0,0,1.8,1.28A1.86,1.86,0,0,0,25.13,3.8,4.82,4.82,0,0,0,25.21,2.52Z"/><path class="a" d="M13.57,2.52a6,6,0,0,1,.08-1.1A1.79,1.79,0,0,1,15.51,0a1.7,1.7,0,0,1,1.9,1.36,6,6,0,0,1,.05,1.24,4.78,4.78,0,0,1-.07,1.21,1.73,1.73,0,0,1-1.8,1.28A1.81,1.81,0,0,1,13.64,3.9,5.63,5.63,0,0,1,13.57,2.52Z"/><path class="a" d="M40.69,2.52a6,6,0,0,1,.08-1.1A1.78,1.78,0,0,1,42.62,0a1.7,1.7,0,0,1,1.91,1.36,5.41,5.41,0,0,1,0,1.24,4.37,4.37,0,0,1-.06,1.21,1.73,1.73,0,0,1-1.8,1.28,1.82,1.82,0,0,1-2-1.19A5.65,5.65,0,0,1,40.69,2.52Z"/><path class="a" d="M44.58,2.52a6,6,0,0,1,.08-1.1A1.79,1.79,0,0,1,46.52,0a1.7,1.7,0,0,1,1.9,1.36,6,6,0,0,1,0,1.24,4.78,4.78,0,0,1-.07,1.21,1.73,1.73,0,0,1-1.8,1.28,1.83,1.83,0,0,1-2-1.19A5.65,5.65,0,0,1,44.58,2.52Z"/><path class="a" d="M40,55.89a6,6,0,0,0-.08-1.1,1.79,1.79,0,0,0-1.86-1.42,1.7,1.7,0,0,0-1.9,1.36,6,6,0,0,0,0,1.24,4.36,4.36,0,0,0,.07,1.21A1.72,1.72,0,0,0,38,58.46,1.87,1.87,0,0,0,40,57.17,4.82,4.82,0,0,0,40,55.89Z"/><path class="a" d="M47.74,55.89a6,6,0,0,0-.08-1.1,1.78,1.78,0,0,0-1.85-1.42,1.7,1.7,0,0,0-1.91,1.36,6,6,0,0,0,0,1.24,4.78,4.78,0,0,0,.07,1.21,1.73,1.73,0,0,0,1.8,1.28,1.87,1.87,0,0,0,1.94-1.29A4.82,4.82,0,0,0,47.74,55.89Z"/><path class="a" d="M51.63,55.89a6,6,0,0,0-.08-1.1,1.78,1.78,0,0,0-1.85-1.42,1.7,1.7,0,0,0-1.91,1.36,6,6,0,0,0,0,1.24,4.37,4.37,0,0,0,.06,1.21,1.73,1.73,0,0,0,1.81,1.28,1.85,1.85,0,0,0,1.93-1.29A4.82,4.82,0,0,0,51.63,55.89Z"/><path class="a" d="M40,55.89a6,6,0,0,1,.08-1.1,1.79,1.79,0,0,1,1.86-1.42,1.7,1.7,0,0,1,1.9,1.36A6,6,0,0,1,43.88,56a4.78,4.78,0,0,1-.07,1.21A1.73,1.73,0,0,1,42,58.46a1.81,1.81,0,0,1-1.95-1.19A5.63,5.63,0,0,1,40,55.89Z"/><path class="a" d="M24.54,55.89a6,6,0,0,0-.09-1.1,1.78,1.78,0,0,0-1.85-1.42,1.68,1.68,0,0,0-1.9,1.36A5.35,5.35,0,0,0,20.65,56a4.37,4.37,0,0,0,.06,1.21,1.74,1.74,0,0,0,1.81,1.28,1.87,1.87,0,0,0,1.94-1.29A5.28,5.28,0,0,0,24.54,55.89Z"/><path class="a" d="M32.25,55.89a6,6,0,0,0-.08-1.1,1.79,1.79,0,0,0-1.86-1.42,1.7,1.7,0,0,0-1.9,1.36A6,6,0,0,0,28.36,56a4.78,4.78,0,0,0,.07,1.21,1.73,1.73,0,0,0,1.8,1.28,1.87,1.87,0,0,0,1.94-1.29A4.82,4.82,0,0,0,32.25,55.89Z"/><path class="a" d="M36.14,55.89a6,6,0,0,0-.08-1.1,1.79,1.79,0,0,0-1.86-1.42,1.7,1.7,0,0,0-1.9,1.36,6,6,0,0,0,0,1.24,4.78,4.78,0,0,0,.07,1.21,1.73,1.73,0,0,0,1.8,1.28,1.87,1.87,0,0,0,1.94-1.29A4.82,4.82,0,0,0,36.14,55.89Z"/><path class="a" d="M24.5,55.89a6,6,0,0,1,.08-1.1,1.79,1.79,0,0,1,1.86-1.42,1.7,1.7,0,0,1,1.9,1.36A6,6,0,0,1,28.39,56a4.78,4.78,0,0,1-.07,1.21,1.73,1.73,0,0,1-1.8,1.28,1.81,1.81,0,0,1-1.95-1.19A5.63,5.63,0,0,1,24.5,55.89Z"/><path class="a" d="M51.66,55.89a6,6,0,0,1,.09-1.1,1.78,1.78,0,0,1,1.85-1.42,1.68,1.68,0,0,1,1.9,1.36,5.35,5.35,0,0,1,0,1.24,4.37,4.37,0,0,1-.06,1.21,1.74,1.74,0,0,1-1.81,1.28,1.81,1.81,0,0,1-2-1.19A5.63,5.63,0,0,1,51.66,55.89Z"/><path class="a" d="M4,56.21a5.92,5.92,0,0,1,.08-1.09A1.79,1.79,0,0,1,5.93,53.7a1.69,1.69,0,0,1,1.9,1.36,6,6,0,0,1,0,1.24,4.78,4.78,0,0,1-.07,1.21A1.73,1.73,0,0,1,6,58.79,1.81,1.81,0,0,1,4.06,57.6,5.68,5.68,0,0,1,4,56.21Z"/><path class="a" d="M46.29,15.94a5.92,5.92,0,0,0-.08-1.09,1.78,1.78,0,0,0-1.85-1.42,1.69,1.69,0,0,0-1.91,1.36,5.36,5.36,0,0,0,0,1.24,4.37,4.37,0,0,0,.06,1.21,1.73,1.73,0,0,0,1.8,1.28,1.87,1.87,0,0,0,1.94-1.3A4.79,4.79,0,0,0,46.29,15.94Z"/><path class="a" d="M54,15.94a5.85,5.85,0,0,0-.09-1.09,1.78,1.78,0,0,0-1.85-1.42,1.68,1.68,0,0,0-1.9,1.36A5.3,5.3,0,0,0,50.12,16a4.37,4.37,0,0,0,.06,1.21A1.74,1.74,0,0,0,52,18.52a1.88,1.88,0,0,0,1.94-1.3A5.24,5.24,0,0,0,54,15.94Z"/><path class="a" d="M57.9,15.94a5.85,5.85,0,0,0-.09-1.09A1.77,1.77,0,0,0,56,13.43a1.69,1.69,0,0,0-1.9,1.36A5.91,5.91,0,0,0,54,16a4.8,4.8,0,0,0,.06,1.21,1.74,1.74,0,0,0,1.81,1.28,1.88,1.88,0,0,0,1.94-1.3A4.79,4.79,0,0,0,57.9,15.94Z"/><path class="a" d="M46.25,15.94a5.85,5.85,0,0,1,.09-1.09,1.78,1.78,0,0,1,1.85-1.42,1.68,1.68,0,0,1,1.9,1.36,5.3,5.3,0,0,1,0,1.24,4.37,4.37,0,0,1-.06,1.21,1.74,1.74,0,0,1-1.81,1.28,1.83,1.83,0,0,1-2-1.19A5.68,5.68,0,0,1,46.25,15.94Z"/><path class="a" d="M30.8,15.94a5.92,5.92,0,0,0-.08-1.09,1.79,1.79,0,0,0-1.86-1.42A1.69,1.69,0,0,0,27,14.79,5.91,5.91,0,0,0,26.91,16,4.78,4.78,0,0,0,27,17.24a1.73,1.73,0,0,0,1.8,1.28,1.88,1.88,0,0,0,1.94-1.3A4.79,4.79,0,0,0,30.8,15.94Z"/><path class="a" d="M38.52,15.94a5.85,5.85,0,0,0-.09-1.09,1.78,1.78,0,0,0-1.85-1.42,1.69,1.69,0,0,0-1.91,1.36,6,6,0,0,0,0,1.24,4.37,4.37,0,0,0,.06,1.21,1.73,1.73,0,0,0,1.81,1.28,1.86,1.86,0,0,0,1.93-1.3A4.77,4.77,0,0,0,38.52,15.94Z"/><path class="a" d="M42.41,15.94a5.85,5.85,0,0,0-.09-1.09,1.78,1.78,0,0,0-1.85-1.42,1.68,1.68,0,0,0-1.9,1.36,5.3,5.3,0,0,0,0,1.24,4.37,4.37,0,0,0,.06,1.21,1.74,1.74,0,0,0,1.81,1.28,1.86,1.86,0,0,0,1.93-1.3A4.77,4.77,0,0,0,42.41,15.94Z"/><path class="a" d="M30.76,15.94a5.85,5.85,0,0,1,.09-1.09,1.77,1.77,0,0,1,1.85-1.42,1.69,1.69,0,0,1,1.9,1.36,5.91,5.91,0,0,1,0,1.24,4.8,4.8,0,0,1-.06,1.21,1.74,1.74,0,0,1-1.81,1.28,1.82,1.82,0,0,1-2-1.19A5.68,5.68,0,0,1,30.76,15.94Z"/><path class="a" d="M57.88,15.94A5.92,5.92,0,0,1,58,14.85a1.79,1.79,0,0,1,1.86-1.42,1.69,1.69,0,0,1,1.9,1.36A5.91,5.91,0,0,1,61.77,16a4.78,4.78,0,0,1-.07,1.21,1.73,1.73,0,0,1-1.8,1.28A1.82,1.82,0,0,1,58,17.33,5.68,5.68,0,0,1,57.88,15.94Z"/><path class="a" d="M.43,15.86a6,6,0,0,1,.08-1.1,1.78,1.78,0,0,1,1.85-1.42A1.7,1.7,0,0,1,4.27,14.7,6,6,0,0,1,4.32,16a4.73,4.73,0,0,1-.07,1.2,1.73,1.73,0,0,1-1.8,1.28,1.83,1.83,0,0,1-2-1.19A5.65,5.65,0,0,1,.43,15.86Z"/><path class="a" d="M43.67,49.36a6,6,0,0,0-.09-1.1,1.77,1.77,0,0,0-1.85-1.42,1.7,1.7,0,0,0-1.9,1.37,5.91,5.91,0,0,0,0,1.24,4.72,4.72,0,0,0,.06,1.2,1.72,1.72,0,0,0,1.81,1.28,1.87,1.87,0,0,0,1.94-1.29A4.82,4.82,0,0,0,43.67,49.36Z"/><path class="a" d="M51.38,49.36a6.1,6.1,0,0,0-.08-1.1,1.79,1.79,0,0,0-1.86-1.42,1.7,1.7,0,0,0-1.9,1.37,5.91,5.91,0,0,0,0,1.24,4.7,4.7,0,0,0,.07,1.2,1.71,1.71,0,0,0,1.8,1.28,1.87,1.87,0,0,0,1.94-1.29A4.82,4.82,0,0,0,51.38,49.36Z"/><path class="a" d="M55.27,49.36a6.1,6.1,0,0,0-.08-1.1,1.78,1.78,0,0,0-1.85-1.42,1.7,1.7,0,0,0-1.91,1.37,5.91,5.91,0,0,0,0,1.24,4.7,4.7,0,0,0,.07,1.2,1.71,1.71,0,0,0,1.8,1.28,1.87,1.87,0,0,0,1.94-1.29A4.82,4.82,0,0,0,55.27,49.36Z"/><path class="a" d="M43.63,49.36a6.1,6.1,0,0,1,.08-1.1,1.79,1.79,0,0,1,1.86-1.42,1.7,1.7,0,0,1,1.9,1.37,5.91,5.91,0,0,1,.05,1.24,4.7,4.7,0,0,1-.07,1.2,1.71,1.71,0,0,1-1.8,1.28,1.8,1.8,0,0,1-1.95-1.18A5.74,5.74,0,0,1,43.63,49.36Z"/><path class="a" d="M28.18,49.36a6,6,0,0,0-.09-1.1,1.78,1.78,0,0,0-1.85-1.42,1.68,1.68,0,0,0-1.9,1.37,5.3,5.3,0,0,0-.05,1.24,4.3,4.3,0,0,0,.06,1.2,1.72,1.72,0,0,0,1.81,1.28,1.85,1.85,0,0,0,1.93-1.29A4.8,4.8,0,0,0,28.18,49.36Z"/><path class="a" d="M35.89,49.36a6.1,6.1,0,0,0-.08-1.1A1.79,1.79,0,0,0,34,46.84a1.7,1.7,0,0,0-1.9,1.37,5.91,5.91,0,0,0,0,1.24,4.7,4.7,0,0,0,.07,1.2,1.71,1.71,0,0,0,1.8,1.28,1.87,1.87,0,0,0,1.94-1.29A4.82,4.82,0,0,0,35.89,49.36Z"/><path class="a" d="M39.78,49.36a6.1,6.1,0,0,0-.08-1.1,1.79,1.79,0,0,0-1.86-1.42,1.7,1.7,0,0,0-1.9,1.37,5.91,5.91,0,0,0,0,1.24,4.7,4.7,0,0,0,.07,1.2,1.71,1.71,0,0,0,1.8,1.28,1.87,1.87,0,0,0,1.94-1.29A4.82,4.82,0,0,0,39.78,49.36Z"/><path class="a" d="M28.14,49.36a6.1,6.1,0,0,1,.08-1.1,1.78,1.78,0,0,1,1.85-1.42A1.7,1.7,0,0,1,32,48.21,5.91,5.91,0,0,1,32,49.45a4.7,4.7,0,0,1-.07,1.2,1.71,1.71,0,0,1-1.8,1.28,1.82,1.82,0,0,1-2-1.18A5.75,5.75,0,0,1,28.14,49.36Z"/><path class="a" d="M55.3,49.36a6,6,0,0,1,.09-1.1,1.77,1.77,0,0,1,1.85-1.42,1.7,1.7,0,0,1,1.9,1.37,5.91,5.91,0,0,1,0,1.24,4.72,4.72,0,0,1-.06,1.2,1.72,1.72,0,0,1-1.81,1.28,1.8,1.8,0,0,1-2-1.18A5.74,5.74,0,0,1,55.3,49.36Z"/><path class="a" d="M0,49.36a6.1,6.1,0,0,1,.08-1.1A1.79,1.79,0,0,1,2,46.84a1.7,1.7,0,0,1,1.9,1.37,5.91,5.91,0,0,1,0,1.24,4.7,4.7,0,0,1-.07,1.2A1.71,1.71,0,0,1,2,51.93,1.8,1.8,0,0,1,.08,50.75,5.74,5.74,0,0,1,0,49.36Z"/><path class="a" d="M42.18,9.21a6.1,6.1,0,0,0-.08-1.1,1.78,1.78,0,0,0-1.85-1.42,1.7,1.7,0,0,0-1.91,1.36,6.12,6.12,0,0,0,0,1.25,4.32,4.32,0,0,0,.06,1.2,1.72,1.72,0,0,0,1.8,1.28,1.86,1.86,0,0,0,1.94-1.29A4.82,4.82,0,0,0,42.18,9.21Z"/><path class="a" d="M49.9,9.21a6,6,0,0,0-.09-1.1A1.77,1.77,0,0,0,48,6.69a1.7,1.7,0,0,0-1.9,1.36A6,6,0,0,0,46,9.3a4.74,4.74,0,0,0,.06,1.2,1.73,1.73,0,0,0,1.81,1.28,1.87,1.87,0,0,0,1.94-1.29A4.82,4.82,0,0,0,49.9,9.21Z"/><path class="a" d="M53.79,9.21a5.26,5.26,0,0,0-.09-1.1,1.77,1.77,0,0,0-1.85-1.42A1.7,1.7,0,0,0,50,8.05,6,6,0,0,0,49.9,9.3,4.31,4.31,0,0,0,50,10.5a1.71,1.71,0,0,0,1.8,1.28,1.87,1.87,0,0,0,1.94-1.29A4.82,4.82,0,0,0,53.79,9.21Z"/><path class="a" d="M42.14,9.21a6,6,0,0,1,.09-1.1,1.78,1.78,0,0,1,1.85-1.42A1.7,1.7,0,0,1,46,8.05,6.12,6.12,0,0,1,46,9.3,4.32,4.32,0,0,1,46,10.5a1.72,1.72,0,0,1-1.81,1.28,1.81,1.81,0,0,1-1.95-1.19A5.63,5.63,0,0,1,42.14,9.21Z"/><path class="a" d="M26.69,9.21a6.1,6.1,0,0,0-.08-1.1,1.79,1.79,0,0,0-1.86-1.42,1.7,1.7,0,0,0-1.9,1.36A6,6,0,0,0,22.8,9.3a4.73,4.73,0,0,0,.07,1.2,1.72,1.72,0,0,0,1.8,1.28,1.87,1.87,0,0,0,1.94-1.29A4.82,4.82,0,0,0,26.69,9.21Z"/><path class="a" d="M34.41,9.21a6,6,0,0,0-.09-1.1,1.78,1.78,0,0,0-1.85-1.42,1.7,1.7,0,0,0-1.91,1.36,6.12,6.12,0,0,0,0,1.25,4.32,4.32,0,0,0,.06,1.2,1.73,1.73,0,0,0,1.81,1.28,1.85,1.85,0,0,0,1.93-1.29A4.8,4.8,0,0,0,34.41,9.21Z"/><path class="a" d="M38.3,9.21a6,6,0,0,0-.09-1.1,1.78,1.78,0,0,0-1.85-1.42,1.68,1.68,0,0,0-1.9,1.36,5.41,5.41,0,0,0-.05,1.25,4.32,4.32,0,0,0,.06,1.2,1.73,1.73,0,0,0,1.81,1.28,1.85,1.85,0,0,0,1.93-1.29A4.8,4.8,0,0,0,38.3,9.21Z"/><path class="a" d="M26.65,9.21a6,6,0,0,1,.09-1.1,1.78,1.78,0,0,1,1.85-1.42,1.68,1.68,0,0,1,1.9,1.36,5.41,5.41,0,0,1,.05,1.25,4.74,4.74,0,0,1-.06,1.2,1.73,1.73,0,0,1-1.81,1.28,1.81,1.81,0,0,1-2-1.19A5.63,5.63,0,0,1,26.65,9.21Z"/><path class="a" d="M53.82,9.21a6.1,6.1,0,0,1,.08-1.1,1.79,1.79,0,0,1,1.86-1.42,1.7,1.7,0,0,1,1.9,1.36,6,6,0,0,1,.05,1.25,4.73,4.73,0,0,1-.07,1.2,1.72,1.72,0,0,1-1.8,1.28,1.81,1.81,0,0,1-2-1.19A5.63,5.63,0,0,1,53.82,9.21Z"/><path class="a" d="M3.93,9.21A6.1,6.1,0,0,1,4,8.11,1.79,1.79,0,0,1,5.87,6.69a1.7,1.7,0,0,1,1.9,1.36A6,6,0,0,1,7.82,9.3a4.73,4.73,0,0,1-.07,1.2A1.72,1.72,0,0,1,6,11.78,1.81,1.81,0,0,1,4,10.59,5.63,5.63,0,0,1,3.93,9.21Z"/></svg>