<svg xmlns="http://www.w3.org/2000/svg" width="67.61" height="65.32" viewBox="0 0 67.61 65.32"><defs><style>.a{fill:#889bcf;}.b{fill:#86aca8;}.c{fill:#fbf175;}.d{fill:#ffd69f;}.e{fill:#eb666a;}</style></defs><title>Asset 91</title><path class="a" d="M34.41,2.57a6,6,0,0,1-.08,1.1,1.78,1.78,0,0,1-1.85,1.42,1.7,1.7,0,0,1-1.91-1.36,6,6,0,0,1,0-1.24,4.37,4.37,0,0,1,.06-1.21A1.73,1.73,0,0,1,32.39,0a1.86,1.86,0,0,1,1.94,1.29A4.82,4.82,0,0,1,34.41,2.57Z"/><path class="a" d="M42.13,2.57A6,6,0,0,1,42,3.67a1.77,1.77,0,0,1-1.85,1.42,1.7,1.7,0,0,1-1.9-1.36,6,6,0,0,1,0-1.24,4.8,4.8,0,0,1,.06-1.21A1.74,1.74,0,0,1,40.11,0a1.87,1.87,0,0,1,1.94,1.29A4.82,4.82,0,0,1,42.13,2.57Z"/><path class="a" d="M46,2.57a5.2,5.2,0,0,1-.09,1.1,1.77,1.77,0,0,1-1.85,1.42,1.7,1.7,0,0,1-1.9-1.36,6,6,0,0,1,0-1.24,4.36,4.36,0,0,1,.07-1.21A1.72,1.72,0,0,1,44,0a1.87,1.87,0,0,1,1.94,1.29A4.82,4.82,0,0,1,46,2.57Z"/><path class="a" d="M34.37,2.6a6,6,0,0,0,.09,1.1,1.78,1.78,0,0,0,1.85,1.42,1.7,1.7,0,0,0,1.91-1.37,6,6,0,0,0,0-1.24,4.3,4.3,0,0,0-.06-1.2A1.72,1.72,0,0,0,36.39,0a1.8,1.8,0,0,0-2,1.19A5.63,5.63,0,0,0,34.37,2.6Z"/><path class="a" d="M18.92,2.57a6,6,0,0,1-.08,1.1A1.79,1.79,0,0,1,17,5.09a1.7,1.7,0,0,1-1.9-1.36A6,6,0,0,1,15,2.49a4.78,4.78,0,0,1,.07-1.21A1.73,1.73,0,0,1,16.9,0a1.87,1.87,0,0,1,1.94,1.29A4.82,4.82,0,0,1,18.92,2.57Z"/><path class="a" d="M26.64,2.57a6,6,0,0,1-.09,1.1A1.78,1.78,0,0,1,24.7,5.09a1.7,1.7,0,0,1-1.91-1.36,6,6,0,0,1,0-1.24,4.37,4.37,0,0,1,.06-1.21A1.74,1.74,0,0,1,24.62,0a1.85,1.85,0,0,1,1.93,1.29A4.8,4.8,0,0,1,26.64,2.57Z"/><path class="a" d="M30.53,2.57a6,6,0,0,1-.09,1.1,1.78,1.78,0,0,1-1.85,1.42,1.68,1.68,0,0,1-1.9-1.36,5.35,5.35,0,0,1-.05-1.24,4.37,4.37,0,0,1,.06-1.21A1.74,1.74,0,0,1,28.51,0a1.85,1.85,0,0,1,1.93,1.29A4.8,4.8,0,0,1,30.53,2.57Z"/><path class="a" d="M18.88,2.6A6,6,0,0,0,19,3.7a1.78,1.78,0,0,0,1.85,1.42,1.68,1.68,0,0,0,1.9-1.37,5.3,5.3,0,0,0,.05-1.24,4.72,4.72,0,0,0-.06-1.2A1.73,1.73,0,0,0,20.9,0,1.8,1.8,0,0,0,19,1.22,5.63,5.63,0,0,0,18.88,2.6Z"/><path class="a" d="M46,2.65a5.92,5.92,0,0,0,.08,1.09,1.79,1.79,0,0,0,1.86,1.43,1.7,1.7,0,0,0,1.9-1.37,5.91,5.91,0,0,0,0-1.24,4.81,4.81,0,0,0-.07-1.21A1.71,1.71,0,0,0,48,.08a1.8,1.8,0,0,0-2,1.18A5.74,5.74,0,0,0,46,2.65Z"/><path class="a" d="M49.89,2.65A5.92,5.92,0,0,0,50,3.74a1.79,1.79,0,0,0,1.86,1.43,1.7,1.7,0,0,0,1.9-1.37,5.91,5.91,0,0,0,.05-1.24,4.39,4.39,0,0,0-.07-1.21A1.7,1.7,0,0,0,51.91.08,1.8,1.8,0,0,0,50,1.26,5.74,5.74,0,0,0,49.89,2.65Z"/><path class="b" d="M34.6,56.05A5.92,5.92,0,0,0,34.52,55a1.79,1.79,0,0,0-1.86-1.42,1.69,1.69,0,0,0-1.9,1.36,6,6,0,0,0-.05,1.24,4.78,4.78,0,0,0,.07,1.21,1.73,1.73,0,0,0,1.8,1.28,1.87,1.87,0,0,0,1.94-1.29A4.87,4.87,0,0,0,34.6,56.05Z"/><path class="b" d="M42.32,56.05A5.85,5.85,0,0,0,42.23,55a1.78,1.78,0,0,0-1.85-1.42,1.68,1.68,0,0,0-1.9,1.36,5.35,5.35,0,0,0,0,1.24,4.37,4.37,0,0,0,.06,1.21,1.74,1.74,0,0,0,1.81,1.28,1.85,1.85,0,0,0,1.93-1.29A4.85,4.85,0,0,0,42.32,56.05Z"/><path class="b" d="M46.21,56.05A5.85,5.85,0,0,0,46.12,55a1.78,1.78,0,0,0-1.85-1.42,1.68,1.68,0,0,0-1.9,1.36,5.35,5.35,0,0,0,0,1.24,4.37,4.37,0,0,0,.06,1.21,1.74,1.74,0,0,0,1.81,1.28,1.85,1.85,0,0,0,1.93-1.29A4.85,4.85,0,0,0,46.21,56.05Z"/><path class="b" d="M34.56,56.05A5.85,5.85,0,0,1,34.65,55a1.78,1.78,0,0,1,1.85-1.42,1.68,1.68,0,0,1,1.9,1.36,5.35,5.35,0,0,1,.05,1.24,4.37,4.37,0,0,1-.06,1.21,1.74,1.74,0,0,1-1.81,1.28,1.81,1.81,0,0,1-1.95-1.19A5.68,5.68,0,0,1,34.56,56.05Z"/><path class="b" d="M19.11,56.05A5.92,5.92,0,0,0,19,55a1.79,1.79,0,0,0-1.86-1.42,1.69,1.69,0,0,0-1.9,1.36,6,6,0,0,0,0,1.24,4.78,4.78,0,0,0,.07,1.21,1.73,1.73,0,0,0,1.8,1.28A1.87,1.87,0,0,0,19,57.34,4.87,4.87,0,0,0,19.11,56.05Z"/><path class="b" d="M26.82,56.05A5.92,5.92,0,0,0,26.74,55a1.78,1.78,0,0,0-1.85-1.42A1.69,1.69,0,0,0,23,54.9a5.41,5.41,0,0,0,0,1.24A4.37,4.37,0,0,0,23,57.35a1.73,1.73,0,0,0,1.8,1.28,1.86,1.86,0,0,0,1.94-1.29A4.87,4.87,0,0,0,26.82,56.05Z"/><path class="b" d="M30.71,56.05A5.92,5.92,0,0,0,30.63,55a1.78,1.78,0,0,0-1.85-1.42,1.69,1.69,0,0,0-1.91,1.36,6,6,0,0,0,0,1.24,4.37,4.37,0,0,0,.06,1.21,1.73,1.73,0,0,0,1.81,1.28,1.85,1.85,0,0,0,1.93-1.29A4.87,4.87,0,0,0,30.71,56.05Z"/><path class="b" d="M19.07,56.05A5.92,5.92,0,0,1,19.15,55,1.79,1.79,0,0,1,21,53.54a1.69,1.69,0,0,1,1.9,1.36A6,6,0,0,1,23,56.14a4.36,4.36,0,0,1-.07,1.21,1.72,1.72,0,0,1-1.8,1.28,1.81,1.81,0,0,1-1.95-1.19A5.68,5.68,0,0,1,19.07,56.05Z"/><path class="b" d="M46.19,56.05A5.92,5.92,0,0,1,46.27,55a1.79,1.79,0,0,1,1.86-1.42A1.69,1.69,0,0,1,50,54.9a6,6,0,0,1,0,1.24A4.78,4.78,0,0,1,50,57.35a1.73,1.73,0,0,1-1.8,1.28,1.83,1.83,0,0,1-2-1.19A6.25,6.25,0,0,1,46.19,56.05Z"/><path class="b" d="M50.08,56.05A5.92,5.92,0,0,1,50.16,55,1.79,1.79,0,0,1,52,53.54a1.69,1.69,0,0,1,1.9,1.36,6,6,0,0,1,0,1.24,4.78,4.78,0,0,1-.07,1.21,1.73,1.73,0,0,1-1.8,1.28,1.81,1.81,0,0,1-2-1.19A5.68,5.68,0,0,1,50.08,56.05Z"/><path class="a" d="M47.72,36a5.92,5.92,0,0,1,.08-1.09,1.79,1.79,0,0,1,1.86-1.42,1.69,1.69,0,0,1,1.9,1.36,5.91,5.91,0,0,1,0,1.24,4.78,4.78,0,0,1-.07,1.21,1.73,1.73,0,0,1-1.8,1.28,1.87,1.87,0,0,1-1.94-1.3A4.79,4.79,0,0,1,47.72,36Z"/><path class="a" d="M63.21,36a5.92,5.92,0,0,1,.08-1.09,1.79,1.79,0,0,1,1.86-1.42,1.69,1.69,0,0,1,1.9,1.36,5.91,5.91,0,0,1,0,1.24A4.78,4.78,0,0,1,67,37.29a1.73,1.73,0,0,1-1.8,1.28,1.88,1.88,0,0,1-1.94-1.3A4.79,4.79,0,0,1,63.21,36Z"/><path class="a" d="M55.5,36a5.92,5.92,0,0,1,.08-1.09,1.78,1.78,0,0,1,1.85-1.42,1.69,1.69,0,0,1,1.91,1.36,5.36,5.36,0,0,1,0,1.24,4.37,4.37,0,0,1-.06,1.21,1.73,1.73,0,0,1-1.8,1.28,1.86,1.86,0,0,1-1.94-1.3A4.79,4.79,0,0,1,55.5,36Z"/><path class="a" d="M51.61,36a5.92,5.92,0,0,1,.08-1.09,1.78,1.78,0,0,1,1.85-1.42,1.69,1.69,0,0,1,1.91,1.36,6,6,0,0,1,0,1.24,4.37,4.37,0,0,1-.06,1.21,1.73,1.73,0,0,1-1.81,1.28,1.86,1.86,0,0,1-1.93-1.3A4.79,4.79,0,0,1,51.61,36Z"/><path class="a" d="M63.25,36a5.92,5.92,0,0,0-.08-1.09,1.79,1.79,0,0,0-1.86-1.42,1.69,1.69,0,0,0-1.9,1.36,5.91,5.91,0,0,0,0,1.24,4.78,4.78,0,0,0,.07,1.21,1.73,1.73,0,0,0,1.8,1.28,1.82,1.82,0,0,0,2-1.19A5.68,5.68,0,0,0,63.25,36Z"/><path class="a" d="M.28,36A5.92,5.92,0,0,1,.36,34.9a1.79,1.79,0,0,1,1.86-1.42,1.69,1.69,0,0,1,1.9,1.36,5.91,5.91,0,0,1,0,1.24,4.78,4.78,0,0,1-.07,1.21,1.73,1.73,0,0,1-1.8,1.28,1.88,1.88,0,0,1-1.94-1.3A4.79,4.79,0,0,1,.28,36Z"/><path class="a" d="M15.77,36a5.85,5.85,0,0,1,.09-1.09,1.77,1.77,0,0,1,1.85-1.42,1.68,1.68,0,0,1,1.9,1.36,5.91,5.91,0,0,1,.05,1.24,4.8,4.8,0,0,1-.06,1.21,1.74,1.74,0,0,1-1.81,1.28,1.88,1.88,0,0,1-1.94-1.3A4.79,4.79,0,0,1,15.77,36Z"/><path class="a" d="M8.06,36a5.92,5.92,0,0,1,.08-1.09A1.79,1.79,0,0,1,10,33.48a1.69,1.69,0,0,1,1.9,1.36,5.91,5.91,0,0,1,0,1.24,4.78,4.78,0,0,1-.07,1.21,1.73,1.73,0,0,1-1.8,1.28,1.87,1.87,0,0,1-1.94-1.3A4.79,4.79,0,0,1,8.06,36Z"/><path class="a" d="M4.17,36a5.92,5.92,0,0,1,.08-1.09,1.79,1.79,0,0,1,1.86-1.42A1.69,1.69,0,0,1,8,34.84a5.91,5.91,0,0,1,.05,1.24A4.78,4.78,0,0,1,8,37.29a1.73,1.73,0,0,1-1.8,1.28,1.87,1.87,0,0,1-1.94-1.3A4.79,4.79,0,0,1,4.17,36Z"/><path class="a" d="M15.81,36a5.92,5.92,0,0,0-.08-1.09,1.79,1.79,0,0,0-1.86-1.42A1.69,1.69,0,0,0,12,34.84a5.91,5.91,0,0,0-.05,1.24A4.78,4.78,0,0,0,12,37.29a1.73,1.73,0,0,0,1.8,1.28,1.82,1.82,0,0,0,2-1.19A5.68,5.68,0,0,0,15.81,36Z"/><path class="c" d="M51.92,29.3a5.92,5.92,0,0,0-.08-1.09A1.79,1.79,0,0,0,50,26.79a1.69,1.69,0,0,0-1.9,1.36,5.94,5.94,0,0,0,0,1.24,4.78,4.78,0,0,0,.07,1.21,1.73,1.73,0,0,0,1.8,1.28,1.88,1.88,0,0,0,1.94-1.29A4.89,4.89,0,0,0,51.92,29.3Z"/><path class="c" d="M59.64,29.3a5.85,5.85,0,0,0-.09-1.09,1.78,1.78,0,0,0-1.85-1.42,1.69,1.69,0,0,0-1.91,1.36,6,6,0,0,0,0,1.24,4.37,4.37,0,0,0,.06,1.21,1.73,1.73,0,0,0,1.81,1.28,1.86,1.86,0,0,0,1.93-1.29A4.88,4.88,0,0,0,59.64,29.3Z"/><path class="c" d="M63.53,29.3a5.85,5.85,0,0,0-.09-1.09,1.78,1.78,0,0,0-1.85-1.42,1.68,1.68,0,0,0-1.9,1.36,5.33,5.33,0,0,0,0,1.24,4.37,4.37,0,0,0,.06,1.21,1.74,1.74,0,0,0,1.81,1.28,1.86,1.86,0,0,0,1.93-1.29A4.88,4.88,0,0,0,63.53,29.3Z"/><path class="c" d="M51.88,29.3A5.85,5.85,0,0,1,52,28.21a1.77,1.77,0,0,1,1.85-1.42,1.69,1.69,0,0,1,1.9,1.36,5.94,5.94,0,0,1,.05,1.24,4.8,4.8,0,0,1-.06,1.21,1.74,1.74,0,0,1-1.81,1.28A1.82,1.82,0,0,1,52,30.69,5.68,5.68,0,0,1,51.88,29.3Z"/><path class="c" d="M63.56,29.3a5.92,5.92,0,0,1,.08-1.09,1.78,1.78,0,0,1,1.85-1.42,1.69,1.69,0,0,1,1.91,1.36,6,6,0,0,1,0,1.24,4.37,4.37,0,0,1-.06,1.21,1.73,1.73,0,0,1-1.81,1.28,1.83,1.83,0,0,1-1.95-1.19A5.7,5.7,0,0,1,63.56,29.3Z"/><path class="c" d="M4.42,29.3a5.92,5.92,0,0,0-.08-1.09,1.78,1.78,0,0,0-1.85-1.42A1.69,1.69,0,0,0,.58,28.15a5.39,5.39,0,0,0,0,1.24A4.37,4.37,0,0,0,.6,30.6a1.73,1.73,0,0,0,1.8,1.28,1.87,1.87,0,0,0,1.94-1.29A4.89,4.89,0,0,0,4.42,29.3Z"/><path class="c" d="M12.14,29.3a5.85,5.85,0,0,0-.09-1.09,1.78,1.78,0,0,0-1.85-1.42,1.68,1.68,0,0,0-1.9,1.36,5.33,5.33,0,0,0-.05,1.24,4.37,4.37,0,0,0,.06,1.21,1.74,1.74,0,0,0,1.81,1.28,1.88,1.88,0,0,0,1.94-1.29A5.36,5.36,0,0,0,12.14,29.3Z"/><path class="c" d="M16,29.3a5.85,5.85,0,0,0-.09-1.09,1.77,1.77,0,0,0-1.85-1.42,1.69,1.69,0,0,0-1.9,1.36,5.94,5.94,0,0,0,0,1.24,4.8,4.8,0,0,0,.06,1.21A1.74,1.74,0,0,0,14,31.88,1.88,1.88,0,0,0,16,30.59,4.89,4.89,0,0,0,16,29.3Z"/><path class="c" d="M4.38,29.3a5.85,5.85,0,0,1,.09-1.09,1.78,1.78,0,0,1,1.85-1.42,1.68,1.68,0,0,1,1.9,1.36,5.33,5.33,0,0,1,0,1.24,4.37,4.37,0,0,1-.06,1.21A1.74,1.74,0,0,1,6.4,31.88a1.83,1.83,0,0,1-1.95-1.19A5.68,5.68,0,0,1,4.38,29.3Z"/><path class="c" d="M16.06,29.3a5.92,5.92,0,0,1,.08-1.09A1.79,1.79,0,0,1,18,26.79a1.69,1.69,0,0,1,1.9,1.36A5.94,5.94,0,0,1,20,29.39a4.78,4.78,0,0,1-.07,1.21,1.73,1.73,0,0,1-1.8,1.28,1.84,1.84,0,0,1-2-1.19A5.7,5.7,0,0,1,16.06,29.3Z"/><path class="d" d="M7.06,15.93A6,6,0,0,0,7,14.83a1.78,1.78,0,0,0-1.85-1.42,1.68,1.68,0,0,0-1.9,1.37A5.3,5.3,0,0,0,3.17,16a4.3,4.3,0,0,0,.06,1.2A1.72,1.72,0,0,0,5,18.5,1.85,1.85,0,0,0,7,17.21,4.8,4.8,0,0,0,7.06,15.93Z"/><path class="d" d="M14.77,15.93a6.1,6.1,0,0,0-.08-1.1,1.79,1.79,0,0,0-1.86-1.42,1.7,1.7,0,0,0-1.9,1.37,5.91,5.91,0,0,0,0,1.24,4.7,4.7,0,0,0,.07,1.2,1.71,1.71,0,0,0,1.8,1.28,1.87,1.87,0,0,0,1.94-1.29A4.82,4.82,0,0,0,14.77,15.93Z"/><path class="d" d="M18.66,15.93a6.1,6.1,0,0,0-.08-1.1,1.79,1.79,0,0,0-1.86-1.42,1.7,1.7,0,0,0-1.9,1.37A5.91,5.91,0,0,0,14.77,16a4.7,4.7,0,0,0,.07,1.2,1.71,1.71,0,0,0,1.8,1.28,1.87,1.87,0,0,0,1.94-1.29A4.82,4.82,0,0,0,18.66,15.93Z"/><path class="d" d="M7,15.93a6.1,6.1,0,0,1,.08-1.1A1.79,1.79,0,0,1,9,13.41a1.7,1.7,0,0,1,1.9,1.37A5.91,5.91,0,0,1,10.91,16a4.7,4.7,0,0,1-.07,1.2A1.71,1.71,0,0,1,9,18.5a1.82,1.82,0,0,1-2-1.18A6.31,6.31,0,0,1,7,15.93Z"/><path class="d" d="M18.64,15.93a6,6,0,0,1,.09-1.1,1.78,1.78,0,0,1,1.85-1.42,1.68,1.68,0,0,1,1.9,1.37A5.3,5.3,0,0,1,22.53,16a4.3,4.3,0,0,1-.06,1.2,1.72,1.72,0,0,1-1.81,1.28,1.8,1.8,0,0,1-1.95-1.18A5.74,5.74,0,0,1,18.64,15.93Z"/><path class="d" d="M50.72,15.93a6.1,6.1,0,0,0-.08-1.1,1.78,1.78,0,0,0-1.85-1.42,1.7,1.7,0,0,0-1.91,1.37,6,6,0,0,0,0,1.24,4.3,4.3,0,0,0,.06,1.2,1.71,1.71,0,0,0,1.81,1.28,1.85,1.85,0,0,0,1.93-1.29A4.82,4.82,0,0,0,50.72,15.93Z"/><path class="d" d="M58.44,15.93a6,6,0,0,0-.09-1.1,1.77,1.77,0,0,0-1.85-1.42,1.7,1.7,0,0,0-1.9,1.37A5.91,5.91,0,0,0,54.55,16a4.72,4.72,0,0,0,.06,1.2,1.72,1.72,0,0,0,1.81,1.28,1.87,1.87,0,0,0,1.94-1.29A4.82,4.82,0,0,0,58.44,15.93Z"/><path class="d" d="M62.33,15.93a6.1,6.1,0,0,0-.08-1.1,1.79,1.79,0,0,0-1.86-1.42,1.7,1.7,0,0,0-1.9,1.37A5.91,5.91,0,0,0,58.44,16a4.29,4.29,0,0,0,.07,1.2,1.7,1.7,0,0,0,1.8,1.28,1.87,1.87,0,0,0,1.94-1.29A4.82,4.82,0,0,0,62.33,15.93Z"/><path class="d" d="M50.68,15.93a6,6,0,0,1,.09-1.1,1.78,1.78,0,0,1,1.85-1.42,1.7,1.7,0,0,1,1.91,1.37,6,6,0,0,1,0,1.24,4.3,4.3,0,0,1-.06,1.2A1.71,1.71,0,0,1,52.7,18.5a1.81,1.81,0,0,1-2-1.18A5.74,5.74,0,0,1,50.68,15.93Z"/><path class="d" d="M62.31,15.93a6.1,6.1,0,0,1,.08-1.1,1.79,1.79,0,0,1,1.86-1.42,1.7,1.7,0,0,1,1.9,1.37,5.91,5.91,0,0,1,0,1.24,4.7,4.7,0,0,1-.07,1.2,1.71,1.71,0,0,1-1.8,1.28,1.8,1.8,0,0,1-1.95-1.18A5.74,5.74,0,0,1,62.31,15.93Z"/><path class="e" d="M14.22,9.24a5.92,5.92,0,0,0-.08-1.09,1.79,1.79,0,0,0-1.86-1.42,1.69,1.69,0,0,0-1.9,1.36,5.91,5.91,0,0,0-.05,1.24,4.78,4.78,0,0,0,.07,1.21,1.73,1.73,0,0,0,1.8,1.28,1.88,1.88,0,0,0,1.94-1.3A4.82,4.82,0,0,0,14.22,9.24Z"/><path class="e" d="M21.94,9.24a5.85,5.85,0,0,0-.09-1.09A1.78,1.78,0,0,0,20,6.73a1.69,1.69,0,0,0-1.91,1.36,6,6,0,0,0,0,1.24,4.37,4.37,0,0,0,.06,1.21,1.73,1.73,0,0,0,1.81,1.28,1.87,1.87,0,0,0,1.93-1.3A4.8,4.8,0,0,0,21.94,9.24Z"/><path class="e" d="M25.83,9.24a5.85,5.85,0,0,0-.09-1.09,1.78,1.78,0,0,0-1.85-1.42A1.68,1.68,0,0,0,22,8.09a5.3,5.3,0,0,0,0,1.24A4.37,4.37,0,0,0,22,10.54a1.74,1.74,0,0,0,1.81,1.28,1.87,1.87,0,0,0,1.93-1.3A4.8,4.8,0,0,0,25.83,9.24Z"/><path class="e" d="M14.18,9.24a5.85,5.85,0,0,1,.09-1.09,1.77,1.77,0,0,1,1.85-1.42A1.68,1.68,0,0,1,18,8.09a5.91,5.91,0,0,1,.05,1.24A4.8,4.8,0,0,1,18,10.54a1.74,1.74,0,0,1-1.81,1.28,1.82,1.82,0,0,1-1.95-1.19A5.71,5.71,0,0,1,14.18,9.24Z"/><path class="e" d="M25.86,9.24a5.92,5.92,0,0,1,.08-1.09,1.78,1.78,0,0,1,1.85-1.42A1.69,1.69,0,0,1,29.7,8.09a6,6,0,0,1,0,1.24,4.37,4.37,0,0,1-.06,1.21,1.73,1.73,0,0,1-1.81,1.28,1.83,1.83,0,0,1-1.95-1.19A5.73,5.73,0,0,1,25.86,9.24Z"/><path class="e" d="M43.56,9.24a5.92,5.92,0,0,0-.08-1.09,1.79,1.79,0,0,0-1.86-1.42,1.69,1.69,0,0,0-1.9,1.36,5.91,5.91,0,0,0,0,1.24,4.78,4.78,0,0,0,.07,1.21,1.73,1.73,0,0,0,1.8,1.28,1.89,1.89,0,0,0,1.94-1.3A4.82,4.82,0,0,0,43.56,9.24Z"/><path class="e" d="M51.27,9.24a5.92,5.92,0,0,0-.08-1.09,1.78,1.78,0,0,0-1.85-1.42,1.69,1.69,0,0,0-1.91,1.36,5.36,5.36,0,0,0,0,1.24,4.37,4.37,0,0,0,.06,1.21,1.73,1.73,0,0,0,1.8,1.28,1.88,1.88,0,0,0,1.94-1.3A4.82,4.82,0,0,0,51.27,9.24Z"/><path class="e" d="M55.16,9.24a5.92,5.92,0,0,0-.08-1.09,1.78,1.78,0,0,0-1.85-1.42,1.69,1.69,0,0,0-1.91,1.36,6,6,0,0,0,0,1.24,4.37,4.37,0,0,0,.06,1.21,1.73,1.73,0,0,0,1.81,1.28,1.87,1.87,0,0,0,1.93-1.3A4.82,4.82,0,0,0,55.16,9.24Z"/><path class="e" d="M43.52,9.24a5.92,5.92,0,0,1,.08-1.09,1.79,1.79,0,0,1,1.86-1.42,1.69,1.69,0,0,1,1.9,1.36,5.91,5.91,0,0,1,0,1.24,4.78,4.78,0,0,1-.07,1.21,1.73,1.73,0,0,1-1.8,1.28,1.82,1.82,0,0,1-1.95-1.19A5.71,5.71,0,0,1,43.52,9.24Z"/><path class="e" d="M55.19,9.24a5.85,5.85,0,0,1,.09-1.09,1.78,1.78,0,0,1,1.85-1.42A1.68,1.68,0,0,1,59,8.09a5.3,5.3,0,0,1,0,1.24A4.37,4.37,0,0,1,59,10.54a1.74,1.74,0,0,1-1.81,1.28,1.82,1.82,0,0,1-2-1.19A5.71,5.71,0,0,1,55.19,9.24Z"/><path class="b" d="M3.9,22.62a6,6,0,0,0-.09-1.1A1.78,1.78,0,0,0,2,20.1a1.68,1.68,0,0,0-1.9,1.36A5.35,5.35,0,0,0,0,22.7a4.37,4.37,0,0,0,.06,1.21,1.74,1.74,0,0,0,1.81,1.28A1.85,1.85,0,0,0,3.81,23.9,4.8,4.8,0,0,0,3.9,22.62Z"/><path class="b" d="M11.61,22.62a6,6,0,0,0-.08-1.1A1.79,1.79,0,0,0,9.67,20.1a1.7,1.7,0,0,0-1.9,1.36,6,6,0,0,0,0,1.24,4.78,4.78,0,0,0,.07,1.21,1.73,1.73,0,0,0,1.8,1.28,1.87,1.87,0,0,0,1.94-1.29A4.82,4.82,0,0,0,11.61,22.62Z"/><path class="b" d="M15.5,22.62a6,6,0,0,0-.08-1.1,1.79,1.79,0,0,0-1.86-1.42,1.7,1.7,0,0,0-1.9,1.36,6,6,0,0,0-.05,1.24,4.78,4.78,0,0,0,.07,1.21,1.73,1.73,0,0,0,1.8,1.28,1.87,1.87,0,0,0,1.94-1.29A4.82,4.82,0,0,0,15.5,22.62Z"/><path class="b" d="M3.86,22.62a6,6,0,0,1,.08-1.1A1.78,1.78,0,0,1,5.79,20.1,1.7,1.7,0,0,1,7.7,21.46a6,6,0,0,1,0,1.24,4.78,4.78,0,0,1-.07,1.21,1.73,1.73,0,0,1-1.8,1.28,1.83,1.83,0,0,1-2-1.19A5.65,5.65,0,0,1,3.86,22.62Z"/><path class="b" d="M15.53,22.62a6,6,0,0,1,.08-1.1,1.79,1.79,0,0,1,1.86-1.42,1.7,1.7,0,0,1,1.9,1.36,6,6,0,0,1,.05,1.24,4.78,4.78,0,0,1-.07,1.21,1.73,1.73,0,0,1-1.8,1.28,1.81,1.81,0,0,1-2-1.19A5.63,5.63,0,0,1,15.53,22.62Z"/><path class="b" d="M52.08,22.62a6,6,0,0,0-.09-1.1,1.78,1.78,0,0,0-1.85-1.42,1.68,1.68,0,0,0-1.9,1.36,5.35,5.35,0,0,0-.05,1.24,4.37,4.37,0,0,0,.06,1.21,1.74,1.74,0,0,0,1.81,1.28A1.85,1.85,0,0,0,52,23.9,4.8,4.8,0,0,0,52.08,22.62Z"/><path class="b" d="M59.79,22.62a6,6,0,0,0-.08-1.1,1.79,1.79,0,0,0-1.86-1.42A1.7,1.7,0,0,0,56,21.46a6,6,0,0,0-.05,1.24A4.78,4.78,0,0,0,56,23.91a1.73,1.73,0,0,0,1.8,1.28,1.87,1.87,0,0,0,1.94-1.29A4.82,4.82,0,0,0,59.79,22.62Z"/><path class="b" d="M63.68,22.62a6,6,0,0,0-.08-1.1,1.79,1.79,0,0,0-1.86-1.42,1.7,1.7,0,0,0-1.9,1.36,6,6,0,0,0-.05,1.24,4.78,4.78,0,0,0,.07,1.21,1.73,1.73,0,0,0,1.8,1.28A1.87,1.87,0,0,0,63.6,23.9,4.82,4.82,0,0,0,63.68,22.62Z"/><path class="b" d="M52,22.62a6,6,0,0,1,.08-1.1A1.79,1.79,0,0,1,54,20.1a1.7,1.7,0,0,1,1.9,1.36,6,6,0,0,1,0,1.24,4.78,4.78,0,0,1-.07,1.21,1.73,1.73,0,0,1-1.8,1.28,1.83,1.83,0,0,1-2-1.19A5.65,5.65,0,0,1,52,22.62Z"/><path class="b" d="M63.71,22.62a6,6,0,0,1,.08-1.1,1.79,1.79,0,0,1,1.86-1.42,1.7,1.7,0,0,1,1.9,1.36,6,6,0,0,1,0,1.24,4.78,4.78,0,0,1-.07,1.21,1.73,1.73,0,0,1-1.8,1.28,1.81,1.81,0,0,1-2-1.19A5.63,5.63,0,0,1,63.71,22.62Z"/><path class="c" d="M25.15,62.74a5.11,5.11,0,0,0-.09-1.09,1.77,1.77,0,0,0-1.85-1.42,1.69,1.69,0,0,0-1.9,1.36,5.94,5.94,0,0,0,0,1.24A4.36,4.36,0,0,0,21.33,64a1.72,1.72,0,0,0,1.8,1.28A1.88,1.88,0,0,0,25.07,64,4.89,4.89,0,0,0,25.15,62.74Z"/><path class="c" d="M32.86,62.74a5.92,5.92,0,0,0-.08-1.09,1.79,1.79,0,0,0-1.86-1.42A1.69,1.69,0,0,0,29,61.59,5.94,5.94,0,0,0,29,62.83,4.78,4.78,0,0,0,29,64a1.73,1.73,0,0,0,1.8,1.28A1.88,1.88,0,0,0,32.78,64,4.89,4.89,0,0,0,32.86,62.74Z"/><path class="c" d="M36.75,62.74a5.92,5.92,0,0,0-.08-1.09,1.78,1.78,0,0,0-1.85-1.42,1.69,1.69,0,0,0-1.91,1.36,5.39,5.39,0,0,0,0,1.24A4.37,4.37,0,0,0,32.93,64a1.73,1.73,0,0,0,1.8,1.28A1.87,1.87,0,0,0,36.67,64,4.89,4.89,0,0,0,36.75,62.74Z"/><path class="c" d="M25.11,62.74a5.92,5.92,0,0,1,.08-1.09,1.79,1.79,0,0,1,1.86-1.42A1.69,1.69,0,0,1,29,61.59,5.94,5.94,0,0,1,29,62.83,4.78,4.78,0,0,1,28.93,64a1.73,1.73,0,0,1-1.8,1.28,1.82,1.82,0,0,1-1.95-1.19A5.68,5.68,0,0,1,25.11,62.74Z"/><path class="c" d="M21.26,62.74a5.92,5.92,0,0,0-.08-1.09,1.79,1.79,0,0,0-1.86-1.42,1.69,1.69,0,0,0-1.9,1.36,5.94,5.94,0,0,0-.05,1.24A4.78,4.78,0,0,0,17.44,64a1.73,1.73,0,0,0,1.8,1.28A1.88,1.88,0,0,0,21.18,64,4.89,4.89,0,0,0,21.26,62.74Z"/><path class="c" d="M36.78,62.74a5.85,5.85,0,0,1,.09-1.09,1.77,1.77,0,0,1,1.85-1.42,1.68,1.68,0,0,1,1.9,1.36,5.33,5.33,0,0,1,.05,1.24A4.8,4.8,0,0,1,40.61,64a1.74,1.74,0,0,1-1.81,1.28,1.82,1.82,0,0,1-1.95-1.19A5.68,5.68,0,0,1,36.78,62.74Z"/><path class="c" d="M55.57,62.74a5.85,5.85,0,0,0-.09-1.09,1.78,1.78,0,0,0-1.85-1.42,1.69,1.69,0,0,0-1.91,1.36,6,6,0,0,0,0,1.24A4.37,4.37,0,0,0,51.74,64a1.74,1.74,0,0,0,1.81,1.28A1.86,1.86,0,0,0,55.48,64,4.88,4.88,0,0,0,55.57,62.74Z"/><path class="c" d="M59.46,62.74a5.85,5.85,0,0,0-.09-1.09,1.78,1.78,0,0,0-1.85-1.42,1.68,1.68,0,0,0-1.9,1.36,5.33,5.33,0,0,0,0,1.24A4.37,4.37,0,0,0,55.63,64a1.74,1.74,0,0,0,1.81,1.28A1.86,1.86,0,0,0,59.37,64,4.88,4.88,0,0,0,59.46,62.74Z"/><path class="c" d="M47.81,62.74a5.85,5.85,0,0,1,.09-1.09,1.78,1.78,0,0,1,1.85-1.42,1.68,1.68,0,0,1,1.9,1.36,5.33,5.33,0,0,1,.05,1.24A4.8,4.8,0,0,1,51.64,64a1.74,1.74,0,0,1-1.81,1.28,1.82,1.82,0,0,1-1.95-1.19A5.68,5.68,0,0,1,47.81,62.74Z"/><path class="c" d="M59.49,62.74a5.92,5.92,0,0,1,.08-1.09,1.78,1.78,0,0,1,1.85-1.42,1.69,1.69,0,0,1,1.91,1.36,6,6,0,0,1,0,1.24A4.37,4.37,0,0,1,63.31,64a1.73,1.73,0,0,1-1.81,1.28,1.83,1.83,0,0,1-2-1.19A5.7,5.7,0,0,1,59.49,62.74Z"/><path class="d" d="M39,49.37a6,6,0,0,0-.09-1.1,1.78,1.78,0,0,0-1.85-1.42,1.68,1.68,0,0,0-1.9,1.36,5.41,5.41,0,0,0,0,1.25,4.32,4.32,0,0,0,.06,1.2A1.74,1.74,0,0,0,37,51.94a1.85,1.85,0,0,0,1.93-1.29A4.8,4.8,0,0,0,39,49.37Z"/><path class="d" d="M39,49.37a6,6,0,0,1,.09-1.1A1.78,1.78,0,0,1,41,46.85a1.7,1.7,0,0,1,1.91,1.36,6.12,6.12,0,0,1,0,1.25,4.32,4.32,0,0,1-.06,1.2,1.73,1.73,0,0,1-1.81,1.28,1.81,1.81,0,0,1-2-1.19A5.63,5.63,0,0,1,39,49.37Z"/><path class="d" d="M54.5,49.37a6,6,0,0,0-.08-1.1,1.79,1.79,0,0,0-1.86-1.42,1.7,1.7,0,0,0-1.9,1.36,6,6,0,0,0,0,1.25,4.73,4.73,0,0,0,.07,1.2,1.73,1.73,0,0,0,1.8,1.28,1.87,1.87,0,0,0,1.94-1.29A4.82,4.82,0,0,0,54.5,49.37Z"/><path class="d" d="M58.39,49.37a6,6,0,0,0-.08-1.1,1.79,1.79,0,0,0-1.86-1.42,1.7,1.7,0,0,0-1.9,1.36,6,6,0,0,0,0,1.25,4.73,4.73,0,0,0,.07,1.2,1.73,1.73,0,0,0,1.8,1.28,1.87,1.87,0,0,0,1.94-1.29A4.82,4.82,0,0,0,58.39,49.37Z"/><path class="d" d="M46.75,49.37a6,6,0,0,1,.08-1.1,1.79,1.79,0,0,1,1.86-1.42,1.7,1.7,0,0,1,1.9,1.36,6,6,0,0,1,0,1.25,4.73,4.73,0,0,1-.07,1.2,1.73,1.73,0,0,1-1.8,1.28,1.83,1.83,0,0,1-2-1.19A6.19,6.19,0,0,1,46.75,49.37Z"/><path class="d" d="M58.37,49.37a6,6,0,0,1,.09-1.1,1.78,1.78,0,0,1,1.85-1.42,1.68,1.68,0,0,1,1.9,1.36,5.41,5.41,0,0,1,0,1.25,4.32,4.32,0,0,1-.06,1.2,1.74,1.74,0,0,1-1.81,1.28,1.81,1.81,0,0,1-2-1.19A5.63,5.63,0,0,1,58.37,49.37Z"/><path class="d" d="M12.93,49.37a6,6,0,0,0-.09-1.1A1.77,1.77,0,0,0,11,46.85a1.7,1.7,0,0,0-1.9,1.36A6,6,0,0,0,9,49.46a4.74,4.74,0,0,0,.06,1.2,1.74,1.74,0,0,0,1.81,1.28,1.87,1.87,0,0,0,1.94-1.29A4.82,4.82,0,0,0,12.93,49.37Z"/><path class="d" d="M16.82,49.37a6,6,0,0,0-.08-1.1,1.79,1.79,0,0,0-1.86-1.42A1.7,1.7,0,0,0,13,48.21a6,6,0,0,0-.05,1.25,4.31,4.31,0,0,0,.07,1.2,1.72,1.72,0,0,0,1.8,1.28,1.87,1.87,0,0,0,1.94-1.29A4.82,4.82,0,0,0,16.82,49.37Z"/><path class="d" d="M5.17,49.37a6,6,0,0,1,.09-1.1,1.78,1.78,0,0,1,1.85-1.42A1.7,1.7,0,0,1,9,48.21a6.12,6.12,0,0,1,0,1.25A4.32,4.32,0,0,1,9,50.66a1.73,1.73,0,0,1-1.81,1.28,1.81,1.81,0,0,1-1.95-1.19A5.63,5.63,0,0,1,5.17,49.37Z"/><path class="d" d="M16.85,49.37a6,6,0,0,1,.08-1.1,1.79,1.79,0,0,1,1.86-1.42,1.7,1.7,0,0,1,1.9,1.36,6,6,0,0,1,0,1.25,4.73,4.73,0,0,1-.07,1.2,1.73,1.73,0,0,1-1.8,1.28,1.81,1.81,0,0,1-1.95-1.19A5.63,5.63,0,0,1,16.85,49.37Z"/><path class="e" d="M34.63,42.68a5.92,5.92,0,0,0-.08-1.09,1.78,1.78,0,0,0-1.86-1.43,1.7,1.7,0,0,0-1.9,1.37,5.91,5.91,0,0,0-.05,1.24,4.7,4.7,0,0,0,.07,1.2,1.71,1.71,0,0,0,1.8,1.28A1.87,1.87,0,0,0,34.55,44,4.82,4.82,0,0,0,34.63,42.68Z"/><path class="e" d="M34.66,42.68a5.92,5.92,0,0,1,.08-1.09,1.78,1.78,0,0,1,1.86-1.43,1.7,1.7,0,0,1,1.9,1.37,5.91,5.91,0,0,1,0,1.24,4.7,4.7,0,0,1-.07,1.2,1.71,1.71,0,0,1-1.8,1.28,1.8,1.8,0,0,1-2-1.18A5.74,5.74,0,0,1,34.66,42.68Z"/><path class="e" d="M9,42.68a5.92,5.92,0,0,0-.08-1.09,1.78,1.78,0,0,0-1.85-1.43,1.7,1.7,0,0,0-1.91,1.37,5.91,5.91,0,0,0,0,1.24A4.7,4.7,0,0,0,5.19,44,1.71,1.71,0,0,0,7,45.25,1.87,1.87,0,0,0,8.93,44,4.82,4.82,0,0,0,9,42.68Z"/><path class="e" d="M12.9,42.68a5.92,5.92,0,0,0-.08-1.09A1.78,1.78,0,0,0,11,40.16a1.7,1.7,0,0,0-1.91,1.37,6,6,0,0,0,0,1.24A4.3,4.3,0,0,0,9.08,44a1.71,1.71,0,0,0,1.8,1.28A1.86,1.86,0,0,0,12.82,44,4.82,4.82,0,0,0,12.9,42.68Z"/><path class="e" d="M1.26,42.68a5.92,5.92,0,0,1,.08-1.09A1.78,1.78,0,0,1,3.2,40.16a1.7,1.7,0,0,1,1.9,1.37,5.91,5.91,0,0,1,.05,1.24A4.7,4.7,0,0,1,5.08,44a1.71,1.71,0,0,1-1.8,1.28,1.8,1.8,0,0,1-1.95-1.18A5.74,5.74,0,0,1,1.26,42.68Z"/><path class="e" d="M12.93,42.68A5.85,5.85,0,0,1,13,41.59a1.77,1.77,0,0,1,1.85-1.43,1.68,1.68,0,0,1,1.9,1.37,5.3,5.3,0,0,1,.05,1.24,4.3,4.3,0,0,1-.06,1.2A1.72,1.72,0,0,1,15,45.25,1.8,1.8,0,0,1,13,44.07,5.74,5.74,0,0,1,12.93,42.68Z"/><path class="e" d="M56.75,42.68a5.92,5.92,0,0,0-.08-1.09,1.78,1.78,0,0,0-1.86-1.43,1.7,1.7,0,0,0-1.9,1.37,5.91,5.91,0,0,0,0,1.24,4.29,4.29,0,0,0,.07,1.2,1.7,1.7,0,0,0,1.8,1.28A1.87,1.87,0,0,0,56.67,44,4.82,4.82,0,0,0,56.75,42.68Z"/><path class="e" d="M60.64,42.68a5.92,5.92,0,0,0-.08-1.09,1.78,1.78,0,0,0-1.86-1.43,1.7,1.7,0,0,0-1.9,1.37,5.91,5.91,0,0,0,0,1.24,4.7,4.7,0,0,0,.07,1.2,1.71,1.71,0,0,0,1.8,1.28A1.87,1.87,0,0,0,60.56,44,4.82,4.82,0,0,0,60.64,42.68Z"/><path class="e" d="M49,42.68a5.92,5.92,0,0,1,.08-1.09,1.78,1.78,0,0,1,1.85-1.43,1.7,1.7,0,0,1,1.91,1.37,6,6,0,0,1,0,1.24,4.3,4.3,0,0,1-.06,1.2A1.71,1.71,0,0,1,51,45.25a1.81,1.81,0,0,1-2-1.18A5.75,5.75,0,0,1,49,42.68Z"/><path class="e" d="M60.67,42.68a5.92,5.92,0,0,1,.08-1.09,1.78,1.78,0,0,1,1.86-1.43,1.7,1.7,0,0,1,1.9,1.37,5.91,5.91,0,0,1,0,1.24,4.7,4.7,0,0,1-.07,1.2,1.71,1.71,0,0,1-1.8,1.28,1.8,1.8,0,0,1-1.95-1.18A5.74,5.74,0,0,1,60.67,42.68Z"/></svg>