<svg xmlns="http://www.w3.org/2000/svg" width="66.44" height="65.32" viewBox="0 0 66.44 65.32"><defs><style>.a{fill:#fbf175;}.b{fill:#889bcf;}.c{fill:#86aca8;}.d{fill:#ffd69f;}.e{fill:#eb666a;}</style></defs><title>Asset 100</title><path class="a" d="M33.23,29.28a5.85,5.85,0,0,0-.09-1.09,1.78,1.78,0,0,0-1.85-1.42,1.69,1.69,0,0,0-1.91,1.36,6,6,0,0,0,0,1.24,4.37,4.37,0,0,0,.06,1.21,1.74,1.74,0,0,0,1.81,1.28,1.86,1.86,0,0,0,1.93-1.29A4.88,4.88,0,0,0,33.23,29.28Z"/><path class="a" d="M40.94,29.28a5.92,5.92,0,0,0-.08-1.09A1.79,1.79,0,0,0,39,26.77a1.69,1.69,0,0,0-1.9,1.36,5.94,5.94,0,0,0-.05,1.24,4.78,4.78,0,0,0,.07,1.21,1.73,1.73,0,0,0,1.8,1.28,1.88,1.88,0,0,0,1.94-1.29A4.89,4.89,0,0,0,40.94,29.28Z"/><path class="a" d="M44.83,29.28a5.92,5.92,0,0,0-.08-1.09,1.79,1.79,0,0,0-1.86-1.42A1.69,1.69,0,0,0,41,28.13a5.94,5.94,0,0,0-.05,1.24A4.78,4.78,0,0,0,41,30.58a1.73,1.73,0,0,0,1.8,1.28,1.88,1.88,0,0,0,1.94-1.29A4.89,4.89,0,0,0,44.83,29.28Z"/><path class="a" d="M33.19,29.28a5.92,5.92,0,0,1,.08-1.09,1.78,1.78,0,0,1,1.85-1.42A1.69,1.69,0,0,1,37,28.13a5.39,5.39,0,0,1,0,1.24A4.37,4.37,0,0,1,37,30.58a1.73,1.73,0,0,1-1.8,1.28,1.83,1.83,0,0,1-2-1.19A5.7,5.7,0,0,1,33.19,29.28Z"/><path class="a" d="M25.45,29.28a5.85,5.85,0,0,0-.09-1.09,1.77,1.77,0,0,0-1.85-1.42,1.68,1.68,0,0,0-1.9,1.36,5.33,5.33,0,0,0-.05,1.24,4.8,4.8,0,0,0,.06,1.21,1.74,1.74,0,0,0,1.81,1.28,1.88,1.88,0,0,0,1.94-1.29A4.89,4.89,0,0,0,25.45,29.28Z"/><path class="a" d="M29.34,29.28a5.11,5.11,0,0,0-.09-1.09,1.77,1.77,0,0,0-1.85-1.42,1.69,1.69,0,0,0-1.9,1.36,5.94,5.94,0,0,0-.05,1.24,4.36,4.36,0,0,0,.07,1.21,1.72,1.72,0,0,0,1.8,1.28,1.88,1.88,0,0,0,1.94-1.29A4.89,4.89,0,0,0,29.34,29.28Z"/><path class="a" d="M17.69,29.28a5.85,5.85,0,0,1,.09-1.09,1.78,1.78,0,0,1,1.85-1.42,1.69,1.69,0,0,1,1.91,1.36,6,6,0,0,1,0,1.24,4.37,4.37,0,0,1-.06,1.21,1.74,1.74,0,0,1-1.81,1.28,1.83,1.83,0,0,1-1.95-1.19A5.68,5.68,0,0,1,17.69,29.28Z"/><path class="a" d="M44.86,29.28a5.92,5.92,0,0,1,.08-1.09,1.79,1.79,0,0,1,1.86-1.42,1.69,1.69,0,0,1,1.9,1.36,5.94,5.94,0,0,1,0,1.24,4.78,4.78,0,0,1-.07,1.21,1.73,1.73,0,0,1-1.8,1.28,1.82,1.82,0,0,1-2-1.19A5.68,5.68,0,0,1,44.86,29.28Z"/><path class="a" d="M0,29.28a5.92,5.92,0,0,1,.08-1.09A1.79,1.79,0,0,1,2,26.77a1.69,1.69,0,0,1,1.9,1.36,5.94,5.94,0,0,1,0,1.24,4.78,4.78,0,0,1-.07,1.21A1.73,1.73,0,0,1,2,31.86,1.82,1.82,0,0,1,.08,30.67,5.68,5.68,0,0,1,0,29.28Z"/><path class="a" d="M62.55,29.28a5.92,5.92,0,0,1,.08-1.09,1.78,1.78,0,0,1,1.85-1.42,1.69,1.69,0,0,1,1.91,1.36,6,6,0,0,1,0,1.24,4.37,4.37,0,0,1-.06,1.21,1.73,1.73,0,0,1-1.81,1.28,1.83,1.83,0,0,1-2-1.19A5.7,5.7,0,0,1,62.55,29.28Z"/><path class="b" d="M0,2.52a6,6,0,0,1,.09-1.1A1.78,1.78,0,0,1,1.94,0a1.68,1.68,0,0,1,1.9,1.36A5.35,5.35,0,0,1,3.89,2.6a4.37,4.37,0,0,1-.06,1.21A1.74,1.74,0,0,1,2,5.09,1.85,1.85,0,0,1,.09,3.8,4.8,4.8,0,0,1,0,2.52Z"/><path class="b" d="M15.5,2.52a6,6,0,0,1,.08-1.1A1.78,1.78,0,0,1,17.43,0a1.7,1.7,0,0,1,1.91,1.36,6,6,0,0,1,0,1.24,4.37,4.37,0,0,1-.06,1.21,1.73,1.73,0,0,1-1.81,1.28A1.85,1.85,0,0,1,15.58,3.8,4.82,4.82,0,0,1,15.5,2.52Z"/><path class="b" d="M7.78,2.52a5.2,5.2,0,0,1,.09-1.1A1.77,1.77,0,0,1,9.72,0a1.7,1.7,0,0,1,1.9,1.36,6,6,0,0,1,.05,1.24,4.36,4.36,0,0,1-.07,1.21A1.72,1.72,0,0,1,9.8,5.09,1.87,1.87,0,0,1,7.86,3.8,4.82,4.82,0,0,1,7.78,2.52Z"/><path class="b" d="M3.89,2.52A6,6,0,0,1,4,1.42,1.79,1.79,0,0,1,5.83,0a1.7,1.7,0,0,1,1.9,1.36,6,6,0,0,1,0,1.24,4.78,4.78,0,0,1-.07,1.21,1.73,1.73,0,0,1-1.8,1.28A1.87,1.87,0,0,1,4,3.8,4.82,4.82,0,0,1,3.89,2.52Z"/><path class="b" d="M15.53,2.52a6,6,0,0,0-.08-1.1A1.78,1.78,0,0,0,13.6,0a1.7,1.7,0,0,0-1.91,1.36,6,6,0,0,0,0,1.24,4.37,4.37,0,0,0,.06,1.21,1.73,1.73,0,0,0,1.81,1.28,1.81,1.81,0,0,0,2-1.19A5.65,5.65,0,0,0,15.53,2.52Z"/><path class="b" d="M47.05,2.52a6,6,0,0,1,.09-1.1A1.78,1.78,0,0,1,49,0a1.68,1.68,0,0,1,1.9,1.36,5.35,5.35,0,0,1,0,1.24,4.37,4.37,0,0,1-.06,1.21,1.74,1.74,0,0,1-1.81,1.28A1.85,1.85,0,0,1,47.14,3.8,4.8,4.8,0,0,1,47.05,2.52Z"/><path class="b" d="M62.55,2.52a6,6,0,0,1,.08-1.1A1.78,1.78,0,0,1,64.48,0a1.7,1.7,0,0,1,1.91,1.36,6,6,0,0,1,0,1.24,4.37,4.37,0,0,1-.06,1.21,1.73,1.73,0,0,1-1.81,1.28A1.85,1.85,0,0,1,62.63,3.8,4.82,4.82,0,0,1,62.55,2.52Z"/><path class="b" d="M54.83,2.52a6,6,0,0,1,.09-1.1A1.77,1.77,0,0,1,56.77,0a1.7,1.7,0,0,1,1.9,1.36,6,6,0,0,1,0,1.24,4.8,4.8,0,0,1-.06,1.21,1.74,1.74,0,0,1-1.81,1.28A1.87,1.87,0,0,1,54.91,3.8,4.82,4.82,0,0,1,54.83,2.52Z"/><path class="b" d="M50.94,2.52A6,6,0,0,1,51,1.42,1.79,1.79,0,0,1,52.88,0a1.7,1.7,0,0,1,1.9,1.36,6,6,0,0,1,0,1.24,4.36,4.36,0,0,1-.07,1.21A1.72,1.72,0,0,1,53,5.09,1.87,1.87,0,0,1,51,3.8,4.82,4.82,0,0,1,50.94,2.52Z"/><path class="b" d="M62.59,2.52a6,6,0,0,0-.09-1.1A1.78,1.78,0,0,0,60.65,0a1.7,1.7,0,0,0-1.91,1.36,6,6,0,0,0,0,1.24,4.37,4.37,0,0,0,.06,1.21,1.73,1.73,0,0,0,1.81,1.28,1.81,1.81,0,0,0,2-1.19A5.63,5.63,0,0,0,62.59,2.52Z"/><path class="c" d="M3.9,22.59a5.85,5.85,0,0,0-.09-1.09A1.78,1.78,0,0,0,2,20.08a1.68,1.68,0,0,0-1.9,1.36,5.3,5.3,0,0,0,0,1.24,4.37,4.37,0,0,0,.06,1.21,1.74,1.74,0,0,0,1.81,1.28,1.87,1.87,0,0,0,1.93-1.3A4.8,4.8,0,0,0,3.9,22.59Z"/><path class="c" d="M11.61,22.59a5.92,5.92,0,0,0-.08-1.09,1.79,1.79,0,0,0-1.86-1.42,1.69,1.69,0,0,0-1.9,1.36,5.91,5.91,0,0,0,0,1.24,4.78,4.78,0,0,0,.07,1.21,1.73,1.73,0,0,0,1.8,1.28,1.89,1.89,0,0,0,1.94-1.3A4.82,4.82,0,0,0,11.61,22.59Z"/><path class="c" d="M15.5,22.59a5.92,5.92,0,0,0-.08-1.09,1.79,1.79,0,0,0-1.86-1.42,1.69,1.69,0,0,0-1.9,1.36,5.91,5.91,0,0,0-.05,1.24,4.78,4.78,0,0,0,.07,1.21,1.73,1.73,0,0,0,1.8,1.28,1.89,1.89,0,0,0,1.94-1.3A4.82,4.82,0,0,0,15.5,22.59Z"/><path class="c" d="M3.86,22.59a5.92,5.92,0,0,1,.08-1.09,1.78,1.78,0,0,1,1.85-1.42A1.69,1.69,0,0,1,7.7,21.44a5.91,5.91,0,0,1,0,1.24,4.78,4.78,0,0,1-.07,1.21,1.73,1.73,0,0,1-1.8,1.28,1.84,1.84,0,0,1-2-1.19A5.73,5.73,0,0,1,3.86,22.59Z"/><path class="c" d="M15.53,22.59a5.92,5.92,0,0,1,.08-1.09,1.79,1.79,0,0,1,1.86-1.42,1.69,1.69,0,0,1,1.9,1.36,5.91,5.91,0,0,1,.05,1.24,4.78,4.78,0,0,1-.07,1.21,1.73,1.73,0,0,1-1.8,1.28,1.82,1.82,0,0,1-2-1.19A5.71,5.71,0,0,1,15.53,22.59Z"/><path class="c" d="M50.91,22.59a5.92,5.92,0,0,0-.08-1.09A1.79,1.79,0,0,0,49,20.08a1.69,1.69,0,0,0-1.9,1.36,5.91,5.91,0,0,0,0,1.24,4.78,4.78,0,0,0,.07,1.21,1.73,1.73,0,0,0,1.8,1.28,1.88,1.88,0,0,0,1.94-1.3A4.82,4.82,0,0,0,50.91,22.59Z"/><path class="c" d="M58.63,22.59a5.85,5.85,0,0,0-.09-1.09,1.78,1.78,0,0,0-1.85-1.42,1.69,1.69,0,0,0-1.91,1.36,6,6,0,0,0,0,1.24,4.37,4.37,0,0,0,.06,1.21,1.74,1.74,0,0,0,1.81,1.28,1.87,1.87,0,0,0,1.93-1.3A4.8,4.8,0,0,0,58.63,22.59Z"/><path class="c" d="M62.52,22.59a5.85,5.85,0,0,0-.09-1.09,1.78,1.78,0,0,0-1.85-1.42,1.68,1.68,0,0,0-1.9,1.36,5.3,5.3,0,0,0,0,1.24,4.37,4.37,0,0,0,.06,1.21,1.74,1.74,0,0,0,1.81,1.28,1.87,1.87,0,0,0,1.93-1.3A4.8,4.8,0,0,0,62.52,22.59Z"/><path class="c" d="M50.87,22.59A5.85,5.85,0,0,1,51,21.5a1.78,1.78,0,0,1,1.85-1.42,1.68,1.68,0,0,1,1.9,1.36,5.3,5.3,0,0,1,0,1.24,4.37,4.37,0,0,1-.06,1.21,1.74,1.74,0,0,1-1.81,1.28,1.82,1.82,0,0,1-2-1.19A5.71,5.71,0,0,1,50.87,22.59Z"/><path class="c" d="M62.55,22.59a5.92,5.92,0,0,1,.08-1.09,1.78,1.78,0,0,1,1.85-1.42,1.69,1.69,0,0,1,1.91,1.36,6,6,0,0,1,0,1.24,4.37,4.37,0,0,1-.06,1.21,1.73,1.73,0,0,1-1.81,1.28,1.83,1.83,0,0,1-2-1.19A5.73,5.73,0,0,1,62.55,22.59Z"/><path class="d" d="M3.9,15.9a5.85,5.85,0,0,0-.09-1.09A1.77,1.77,0,0,0,2,13.38a1.68,1.68,0,0,0-1.9,1.37A5.3,5.3,0,0,0,0,16a4.3,4.3,0,0,0,.06,1.2,1.72,1.72,0,0,0,1.81,1.28,1.85,1.85,0,0,0,1.93-1.29A4.8,4.8,0,0,0,3.9,15.9Z"/><path class="d" d="M11.61,15.9a5.92,5.92,0,0,0-.08-1.09,1.78,1.78,0,0,0-1.86-1.43,1.7,1.7,0,0,0-1.9,1.37,5.91,5.91,0,0,0,0,1.24,4.7,4.7,0,0,0,.07,1.2,1.71,1.71,0,0,0,1.8,1.28,1.87,1.87,0,0,0,1.94-1.29A4.82,4.82,0,0,0,11.61,15.9Z"/><path class="d" d="M15.5,15.9a5.92,5.92,0,0,0-.08-1.09,1.78,1.78,0,0,0-1.86-1.43,1.7,1.7,0,0,0-1.9,1.37A5.91,5.91,0,0,0,11.61,16a4.7,4.7,0,0,0,.07,1.2,1.71,1.71,0,0,0,1.8,1.28,1.87,1.87,0,0,0,1.94-1.29A4.82,4.82,0,0,0,15.5,15.9Z"/><path class="d" d="M3.86,15.9a5.92,5.92,0,0,1,.08-1.09,1.78,1.78,0,0,1,1.85-1.43A1.7,1.7,0,0,1,7.7,14.75a5.91,5.91,0,0,1,0,1.24,4.7,4.7,0,0,1-.07,1.2,1.71,1.71,0,0,1-1.8,1.28,1.82,1.82,0,0,1-2-1.18A5.75,5.75,0,0,1,3.86,15.9Z"/><path class="d" d="M15.48,15.9a5.85,5.85,0,0,1,.09-1.09,1.77,1.77,0,0,1,1.85-1.43,1.7,1.7,0,0,1,1.9,1.37A5.91,5.91,0,0,1,19.37,16a4.72,4.72,0,0,1-.06,1.2,1.72,1.72,0,0,1-1.81,1.28,1.8,1.8,0,0,1-1.95-1.18A5.74,5.74,0,0,1,15.48,15.9Z"/><path class="d" d="M51,15.9a5.92,5.92,0,0,0-.08-1.09A1.78,1.78,0,0,0,49,13.38a1.7,1.7,0,0,0-1.9,1.37,5.91,5.91,0,0,0,0,1.24,4.7,4.7,0,0,0,.07,1.2,1.71,1.71,0,0,0,1.8,1.28,1.87,1.87,0,0,0,1.94-1.29A4.82,4.82,0,0,0,51,15.9Z"/><path class="d" d="M58.67,15.9a5.92,5.92,0,0,0-.08-1.09,1.78,1.78,0,0,0-1.85-1.43,1.7,1.7,0,0,0-1.91,1.37,6,6,0,0,0,0,1.24,4.3,4.3,0,0,0,.06,1.2,1.71,1.71,0,0,0,1.8,1.28,1.86,1.86,0,0,0,1.94-1.29A4.82,4.82,0,0,0,58.67,15.9Z"/><path class="d" d="M62.57,15.9a5.85,5.85,0,0,0-.09-1.09,1.77,1.77,0,0,0-1.85-1.43,1.7,1.7,0,0,0-1.91,1.37,6,6,0,0,0,0,1.24,4.3,4.3,0,0,0,.06,1.2,1.71,1.71,0,0,0,1.81,1.28,1.85,1.85,0,0,0,1.93-1.29A4.8,4.8,0,0,0,62.57,15.9Z"/><path class="d" d="M50.92,15.9A5.92,5.92,0,0,1,51,14.81a1.78,1.78,0,0,1,1.86-1.43,1.7,1.7,0,0,1,1.9,1.37A5.91,5.91,0,0,1,54.81,16a4.29,4.29,0,0,1-.07,1.2,1.7,1.7,0,0,1-1.8,1.28A1.8,1.8,0,0,1,51,17.29,5.74,5.74,0,0,1,50.92,15.9Z"/><path class="d" d="M62.55,15.9a5.92,5.92,0,0,1,.08-1.09,1.78,1.78,0,0,1,1.85-1.43,1.7,1.7,0,0,1,1.91,1.37,6,6,0,0,1,0,1.24,4.3,4.3,0,0,1-.06,1.2,1.71,1.71,0,0,1-1.81,1.28,1.81,1.81,0,0,1-2-1.18A5.75,5.75,0,0,1,62.55,15.9Z"/><path class="e" d="M3.9,9.21a6,6,0,0,0-.09-1.1A1.78,1.78,0,0,0,2,6.69,1.68,1.68,0,0,0,.06,8.05,5.41,5.41,0,0,0,0,9.3a4.32,4.32,0,0,0,.06,1.2,1.73,1.73,0,0,0,1.81,1.28,1.85,1.85,0,0,0,1.93-1.29A4.8,4.8,0,0,0,3.9,9.21Z"/><path class="e" d="M11.61,9.21a6.1,6.1,0,0,0-.08-1.1A1.79,1.79,0,0,0,9.67,6.69a1.7,1.7,0,0,0-1.9,1.36,6,6,0,0,0,0,1.25,4.73,4.73,0,0,0,.07,1.2,1.72,1.72,0,0,0,1.8,1.28,1.87,1.87,0,0,0,1.94-1.29A4.82,4.82,0,0,0,11.61,9.21Z"/><path class="e" d="M15.5,9.21a6.1,6.1,0,0,0-.08-1.1,1.79,1.79,0,0,0-1.86-1.42,1.7,1.7,0,0,0-1.9,1.36,6,6,0,0,0-.05,1.25,4.73,4.73,0,0,0,.07,1.2,1.72,1.72,0,0,0,1.8,1.28,1.87,1.87,0,0,0,1.94-1.29A4.82,4.82,0,0,0,15.5,9.21Z"/><path class="e" d="M3.86,9.21a6.1,6.1,0,0,1,.08-1.1A1.78,1.78,0,0,1,5.79,6.69,1.7,1.7,0,0,1,7.7,8.05a6,6,0,0,1,0,1.25,4.73,4.73,0,0,1-.07,1.2,1.72,1.72,0,0,1-1.8,1.28,1.83,1.83,0,0,1-2-1.19A5.65,5.65,0,0,1,3.86,9.21Z"/><path class="e" d="M15.53,9.21a6.1,6.1,0,0,1,.08-1.1,1.79,1.79,0,0,1,1.86-1.42,1.7,1.7,0,0,1,1.9,1.36,6,6,0,0,1,.05,1.25,4.73,4.73,0,0,1-.07,1.2,1.72,1.72,0,0,1-1.8,1.28,1.81,1.81,0,0,1-2-1.19A5.63,5.63,0,0,1,15.53,9.21Z"/><path class="e" d="M50.91,9.21a6.1,6.1,0,0,0-.08-1.1A1.79,1.79,0,0,0,49,6.69a1.7,1.7,0,0,0-1.9,1.36A6,6,0,0,0,47,9.3a4.73,4.73,0,0,0,.07,1.2,1.72,1.72,0,0,0,1.8,1.28,1.87,1.87,0,0,0,1.94-1.29A4.82,4.82,0,0,0,50.91,9.21Z"/><path class="e" d="M58.63,9.21a6,6,0,0,0-.09-1.1,1.78,1.78,0,0,0-1.85-1.42,1.7,1.7,0,0,0-1.91,1.36,6.12,6.12,0,0,0,0,1.25,4.32,4.32,0,0,0,.06,1.2,1.73,1.73,0,0,0,1.81,1.28,1.85,1.85,0,0,0,1.93-1.29A4.8,4.8,0,0,0,58.63,9.21Z"/><path class="e" d="M62.52,9.21a6,6,0,0,0-.09-1.1,1.78,1.78,0,0,0-1.85-1.42,1.68,1.68,0,0,0-1.9,1.36,5.41,5.41,0,0,0,0,1.25,4.32,4.32,0,0,0,.06,1.2,1.73,1.73,0,0,0,1.81,1.28,1.85,1.85,0,0,0,1.93-1.29A4.8,4.8,0,0,0,62.52,9.21Z"/><path class="e" d="M50.87,9.21A6,6,0,0,1,51,8.11a1.78,1.78,0,0,1,1.85-1.42,1.68,1.68,0,0,1,1.9,1.36,5.41,5.41,0,0,1,0,1.25,4.32,4.32,0,0,1-.06,1.2,1.73,1.73,0,0,1-1.81,1.28,1.81,1.81,0,0,1-2-1.19A5.63,5.63,0,0,1,50.87,9.21Z"/><path class="e" d="M62.55,9.21a6.1,6.1,0,0,1,.08-1.1,1.78,1.78,0,0,1,1.85-1.42,1.7,1.7,0,0,1,1.91,1.36,6.12,6.12,0,0,1,0,1.25,4.32,4.32,0,0,1-.06,1.2,1.72,1.72,0,0,1-1.81,1.28,1.81,1.81,0,0,1-2-1.19A5.65,5.65,0,0,1,62.55,9.21Z"/><path class="b" d="M0,36a5.89,5.89,0,0,1,.09-1.1,1.78,1.78,0,0,1,1.85-1.42,1.68,1.68,0,0,1,1.9,1.36,5.35,5.35,0,0,1,.05,1.24,4.37,4.37,0,0,1-.06,1.21A1.74,1.74,0,0,1,2,38.55,1.85,1.85,0,0,1,.09,37.26,4.8,4.8,0,0,1,0,36Z"/><path class="b" d="M15.5,36a6,6,0,0,1,.08-1.1,1.78,1.78,0,0,1,1.85-1.42,1.69,1.69,0,0,1,1.91,1.36,6,6,0,0,1,0,1.24,4.37,4.37,0,0,1-.06,1.21,1.73,1.73,0,0,1-1.81,1.28,1.85,1.85,0,0,1-1.93-1.29A4.82,4.82,0,0,1,15.5,36Z"/><path class="b" d="M7.78,36a5.15,5.15,0,0,1,.09-1.1,1.77,1.77,0,0,1,1.85-1.42,1.69,1.69,0,0,1,1.9,1.36,6,6,0,0,1,.05,1.24,4.36,4.36,0,0,1-.07,1.21,1.72,1.72,0,0,1-1.8,1.28,1.87,1.87,0,0,1-1.94-1.29A4.82,4.82,0,0,1,7.78,36Z"/><path class="b" d="M3.89,36A6,6,0,0,1,4,34.88a1.79,1.79,0,0,1,1.86-1.42,1.69,1.69,0,0,1,1.9,1.36,6,6,0,0,1,0,1.24,4.78,4.78,0,0,1-.07,1.21,1.73,1.73,0,0,1-1.8,1.28A1.87,1.87,0,0,1,4,37.26,4.82,4.82,0,0,1,3.89,36Z"/><path class="b" d="M15.53,36a6,6,0,0,0-.08-1.1,1.78,1.78,0,0,0-1.85-1.42,1.69,1.69,0,0,0-1.91,1.36,6,6,0,0,0,0,1.24,4.37,4.37,0,0,0,.06,1.21,1.73,1.73,0,0,0,1.81,1.28,1.81,1.81,0,0,0,2-1.19A5.65,5.65,0,0,0,15.53,36Z"/><path class="b" d="M47.05,36a5.89,5.89,0,0,1,.09-1.1A1.78,1.78,0,0,1,49,33.46a1.68,1.68,0,0,1,1.9,1.36,5.35,5.35,0,0,1,0,1.24,4.37,4.37,0,0,1-.06,1.21,1.74,1.74,0,0,1-1.81,1.28,1.85,1.85,0,0,1-1.93-1.29A4.8,4.8,0,0,1,47.05,36Z"/><path class="b" d="M62.55,36a6,6,0,0,1,.08-1.1,1.78,1.78,0,0,1,1.85-1.42,1.69,1.69,0,0,1,1.91,1.36,6,6,0,0,1,0,1.24,4.37,4.37,0,0,1-.06,1.21,1.73,1.73,0,0,1-1.81,1.28,1.85,1.85,0,0,1-1.93-1.29A4.82,4.82,0,0,1,62.55,36Z"/><path class="b" d="M54.83,36a5.89,5.89,0,0,1,.09-1.1,1.77,1.77,0,0,1,1.85-1.42,1.69,1.69,0,0,1,1.9,1.36,6,6,0,0,1,0,1.24,4.8,4.8,0,0,1-.06,1.21,1.74,1.74,0,0,1-1.81,1.28,1.87,1.87,0,0,1-1.94-1.29A4.82,4.82,0,0,1,54.83,36Z"/><path class="b" d="M50.94,36a6,6,0,0,1,.08-1.1,1.79,1.79,0,0,1,1.86-1.42,1.69,1.69,0,0,1,1.9,1.36,6,6,0,0,1,0,1.24,4.36,4.36,0,0,1-.07,1.21A1.72,1.72,0,0,1,53,38.55,1.87,1.87,0,0,1,51,37.26,4.82,4.82,0,0,1,50.94,36Z"/><path class="b" d="M62.59,36a5.89,5.89,0,0,0-.09-1.1,1.78,1.78,0,0,0-1.85-1.42,1.69,1.69,0,0,0-1.91,1.36,6,6,0,0,0,0,1.24,4.37,4.37,0,0,0,.06,1.21,1.73,1.73,0,0,0,1.81,1.28,1.81,1.81,0,0,0,2-1.19A5.63,5.63,0,0,0,62.59,36Z"/><path class="c" d="M3.9,56.05A5.85,5.85,0,0,0,3.81,55,1.78,1.78,0,0,0,2,53.53,1.68,1.68,0,0,0,.06,54.9a5.3,5.3,0,0,0,0,1.24,4.37,4.37,0,0,0,.06,1.21,1.72,1.72,0,0,0,1.81,1.27,1.85,1.85,0,0,0,1.93-1.29A4.8,4.8,0,0,0,3.9,56.05Z"/><path class="c" d="M11.61,56.05A5.92,5.92,0,0,0,11.53,55a1.79,1.79,0,0,0-1.86-1.43,1.7,1.7,0,0,0-1.9,1.37,5.91,5.91,0,0,0,0,1.24,4.78,4.78,0,0,0,.07,1.21,1.71,1.71,0,0,0,1.8,1.27,1.87,1.87,0,0,0,1.94-1.29A4.82,4.82,0,0,0,11.61,56.05Z"/><path class="c" d="M15.5,56.05A5.92,5.92,0,0,0,15.42,55a1.79,1.79,0,0,0-1.86-1.43,1.7,1.7,0,0,0-1.9,1.37,5.91,5.91,0,0,0-.05,1.24,4.78,4.78,0,0,0,.07,1.21,1.71,1.71,0,0,0,1.8,1.27,1.87,1.87,0,0,0,1.94-1.29A4.82,4.82,0,0,0,15.5,56.05Z"/><path class="c" d="M3.86,56.05A5.92,5.92,0,0,1,3.94,55a1.79,1.79,0,0,1,1.85-1.43A1.7,1.7,0,0,1,7.7,54.9a5.91,5.91,0,0,1,0,1.24,4.78,4.78,0,0,1-.07,1.21,1.71,1.71,0,0,1-1.8,1.27,1.82,1.82,0,0,1-2-1.18A5.75,5.75,0,0,1,3.86,56.05Z"/><path class="c" d="M15.53,56.05A5.92,5.92,0,0,1,15.61,55a1.79,1.79,0,0,1,1.86-1.43,1.7,1.7,0,0,1,1.9,1.37,5.91,5.91,0,0,1,.05,1.24,4.78,4.78,0,0,1-.07,1.21,1.71,1.71,0,0,1-1.8,1.27,1.8,1.8,0,0,1-2-1.18A5.74,5.74,0,0,1,15.53,56.05Z"/><path class="c" d="M50.91,56.05A5.92,5.92,0,0,0,50.83,55,1.79,1.79,0,0,0,49,53.53a1.7,1.7,0,0,0-1.9,1.37,5.91,5.91,0,0,0,0,1.24,4.78,4.78,0,0,0,.07,1.21,1.71,1.71,0,0,0,1.8,1.27,1.87,1.87,0,0,0,1.94-1.29A4.82,4.82,0,0,0,50.91,56.05Z"/><path class="c" d="M58.63,56.05A5.85,5.85,0,0,0,58.54,55a1.78,1.78,0,0,0-1.85-1.43,1.7,1.7,0,0,0-1.91,1.37,6,6,0,0,0,0,1.24,4.37,4.37,0,0,0,.06,1.21,1.72,1.72,0,0,0,1.81,1.27,1.85,1.85,0,0,0,1.93-1.29A4.8,4.8,0,0,0,58.63,56.05Z"/><path class="c" d="M62.52,56.05A5.85,5.85,0,0,0,62.43,55a1.78,1.78,0,0,0-1.85-1.43,1.68,1.68,0,0,0-1.9,1.37,5.3,5.3,0,0,0,0,1.24,4.37,4.37,0,0,0,.06,1.21,1.72,1.72,0,0,0,1.81,1.27,1.85,1.85,0,0,0,1.93-1.29A4.8,4.8,0,0,0,62.52,56.05Z"/><path class="c" d="M50.87,56.05A5.85,5.85,0,0,1,51,55a1.78,1.78,0,0,1,1.85-1.43,1.68,1.68,0,0,1,1.9,1.37,5.3,5.3,0,0,1,0,1.24,4.37,4.37,0,0,1-.06,1.21,1.72,1.72,0,0,1-1.81,1.27,1.8,1.8,0,0,1-2-1.18A5.74,5.74,0,0,1,50.87,56.05Z"/><path class="c" d="M62.55,56.05A5.92,5.92,0,0,1,62.63,55a1.79,1.79,0,0,1,1.85-1.43,1.7,1.7,0,0,1,1.91,1.37,6,6,0,0,1,0,1.24,4.37,4.37,0,0,1-.06,1.21,1.71,1.71,0,0,1-1.81,1.27,1.81,1.81,0,0,1-2-1.18A5.75,5.75,0,0,1,62.55,56.05Z"/><path class="d" d="M3.9,49.36a6,6,0,0,0-.09-1.1A1.78,1.78,0,0,0,2,46.84a1.68,1.68,0,0,0-1.9,1.37,5.3,5.3,0,0,0,0,1.24,4.3,4.3,0,0,0,.06,1.2,1.72,1.72,0,0,0,1.81,1.28,1.85,1.85,0,0,0,1.93-1.29A4.8,4.8,0,0,0,3.9,49.36Z"/><path class="d" d="M11.61,49.36a6.1,6.1,0,0,0-.08-1.1,1.79,1.79,0,0,0-1.86-1.42,1.7,1.7,0,0,0-1.9,1.37,5.91,5.91,0,0,0,0,1.24,4.7,4.7,0,0,0,.07,1.2,1.71,1.71,0,0,0,1.8,1.28,1.87,1.87,0,0,0,1.94-1.29A4.82,4.82,0,0,0,11.61,49.36Z"/><path class="d" d="M15.5,49.36a6.1,6.1,0,0,0-.08-1.1,1.79,1.79,0,0,0-1.86-1.42,1.7,1.7,0,0,0-1.9,1.37,5.91,5.91,0,0,0-.05,1.24,4.7,4.7,0,0,0,.07,1.2,1.71,1.71,0,0,0,1.8,1.28,1.87,1.87,0,0,0,1.94-1.29A4.82,4.82,0,0,0,15.5,49.36Z"/><path class="d" d="M3.86,49.36a6.1,6.1,0,0,1,.08-1.1,1.78,1.78,0,0,1,1.85-1.42A1.7,1.7,0,0,1,7.7,48.21a5.91,5.91,0,0,1,0,1.24,4.7,4.7,0,0,1-.07,1.2,1.71,1.71,0,0,1-1.8,1.28,1.82,1.82,0,0,1-2-1.18A5.75,5.75,0,0,1,3.86,49.36Z"/><path class="d" d="M15.48,49.36a6,6,0,0,1,.09-1.1,1.77,1.77,0,0,1,1.85-1.42,1.7,1.7,0,0,1,1.9,1.37,5.91,5.91,0,0,1,.05,1.24,4.72,4.72,0,0,1-.06,1.2,1.72,1.72,0,0,1-1.81,1.28,1.8,1.8,0,0,1-1.95-1.18A5.74,5.74,0,0,1,15.48,49.36Z"/><path class="d" d="M51,49.36a6.1,6.1,0,0,0-.08-1.1A1.79,1.79,0,0,0,49,46.84a1.7,1.7,0,0,0-1.9,1.37,5.91,5.91,0,0,0,0,1.24,4.7,4.7,0,0,0,.07,1.2,1.71,1.71,0,0,0,1.8,1.28,1.87,1.87,0,0,0,1.94-1.29A4.82,4.82,0,0,0,51,49.36Z"/><path class="d" d="M58.67,49.36a6.1,6.1,0,0,0-.08-1.1,1.78,1.78,0,0,0-1.85-1.42,1.7,1.7,0,0,0-1.91,1.37,6,6,0,0,0,0,1.24,4.3,4.3,0,0,0,.06,1.2,1.71,1.71,0,0,0,1.8,1.28,1.86,1.86,0,0,0,1.94-1.29A4.82,4.82,0,0,0,58.67,49.36Z"/><path class="d" d="M62.57,49.36a6,6,0,0,0-.09-1.1,1.78,1.78,0,0,0-1.85-1.42,1.7,1.7,0,0,0-1.91,1.37,6,6,0,0,0,0,1.24,4.3,4.3,0,0,0,.06,1.2,1.71,1.71,0,0,0,1.81,1.28,1.85,1.85,0,0,0,1.93-1.29A4.8,4.8,0,0,0,62.57,49.36Z"/><path class="d" d="M50.92,49.36a6.1,6.1,0,0,1,.08-1.1,1.79,1.79,0,0,1,1.86-1.42,1.7,1.7,0,0,1,1.9,1.37,5.91,5.91,0,0,1,.05,1.24,4.29,4.29,0,0,1-.07,1.2,1.7,1.7,0,0,1-1.8,1.28A1.8,1.8,0,0,1,51,50.75,5.74,5.74,0,0,1,50.92,49.36Z"/><path class="d" d="M62.55,49.36a6.1,6.1,0,0,1,.08-1.1,1.78,1.78,0,0,1,1.85-1.42,1.7,1.7,0,0,1,1.91,1.37,6,6,0,0,1,0,1.24,4.3,4.3,0,0,1-.06,1.2,1.71,1.71,0,0,1-1.81,1.28,1.81,1.81,0,0,1-2-1.18A5.75,5.75,0,0,1,62.55,49.36Z"/><path class="e" d="M3.9,42.67a6,6,0,0,0-.09-1.1A1.78,1.78,0,0,0,2,40.15a1.68,1.68,0,0,0-1.9,1.36,5.35,5.35,0,0,0,0,1.24A4.37,4.37,0,0,0,.07,44a1.74,1.74,0,0,0,1.81,1.28A1.85,1.85,0,0,0,3.81,44,4.8,4.8,0,0,0,3.9,42.67Z"/><path class="e" d="M11.61,42.67a6,6,0,0,0-.08-1.1,1.79,1.79,0,0,0-1.86-1.42,1.7,1.7,0,0,0-1.9,1.36,6,6,0,0,0,0,1.24A4.78,4.78,0,0,0,7.79,44a1.73,1.73,0,0,0,1.8,1.28A1.87,1.87,0,0,0,11.53,44,4.82,4.82,0,0,0,11.61,42.67Z"/><path class="e" d="M15.5,42.67a6,6,0,0,0-.08-1.1,1.79,1.79,0,0,0-1.86-1.42,1.7,1.7,0,0,0-1.9,1.36,6,6,0,0,0-.05,1.24A4.78,4.78,0,0,0,11.68,44a1.73,1.73,0,0,0,1.8,1.28A1.87,1.87,0,0,0,15.42,44,4.82,4.82,0,0,0,15.5,42.67Z"/><path class="e" d="M3.86,42.67a6,6,0,0,1,.08-1.1,1.78,1.78,0,0,1,1.85-1.42A1.7,1.7,0,0,1,7.7,41.51a6,6,0,0,1,0,1.24A4.78,4.78,0,0,1,7.68,44a1.73,1.73,0,0,1-1.8,1.28,1.83,1.83,0,0,1-2-1.19A5.65,5.65,0,0,1,3.86,42.67Z"/><path class="e" d="M15.53,42.67a6,6,0,0,1,.08-1.1,1.79,1.79,0,0,1,1.86-1.42,1.7,1.7,0,0,1,1.9,1.36,6,6,0,0,1,.05,1.24A4.78,4.78,0,0,1,19.35,44a1.73,1.73,0,0,1-1.8,1.28,1.81,1.81,0,0,1-2-1.19A5.63,5.63,0,0,1,15.53,42.67Z"/><path class="e" d="M50.91,42.67a6,6,0,0,0-.08-1.1A1.79,1.79,0,0,0,49,40.15a1.7,1.7,0,0,0-1.9,1.36,6,6,0,0,0,0,1.24A4.78,4.78,0,0,0,47.09,44a1.73,1.73,0,0,0,1.8,1.28A1.87,1.87,0,0,0,50.83,44,4.82,4.82,0,0,0,50.91,42.67Z"/><path class="e" d="M58.63,42.67a6,6,0,0,0-.09-1.1,1.78,1.78,0,0,0-1.85-1.42,1.7,1.7,0,0,0-1.91,1.36,6,6,0,0,0,0,1.24A4.37,4.37,0,0,0,54.8,44a1.74,1.74,0,0,0,1.81,1.28A1.85,1.85,0,0,0,58.54,44,4.8,4.8,0,0,0,58.63,42.67Z"/><path class="e" d="M62.52,42.67a6,6,0,0,0-.09-1.1,1.78,1.78,0,0,0-1.85-1.42,1.68,1.68,0,0,0-1.9,1.36,5.35,5.35,0,0,0,0,1.24A4.37,4.37,0,0,0,58.69,44a1.74,1.74,0,0,0,1.81,1.28A1.85,1.85,0,0,0,62.43,44,4.8,4.8,0,0,0,62.52,42.67Z"/><path class="e" d="M50.87,42.67a6,6,0,0,1,.09-1.1,1.78,1.78,0,0,1,1.85-1.42,1.68,1.68,0,0,1,1.9,1.36,5.35,5.35,0,0,1,0,1.24A4.37,4.37,0,0,1,54.7,44a1.74,1.74,0,0,1-1.81,1.28,1.81,1.81,0,0,1-2-1.19A5.63,5.63,0,0,1,50.87,42.67Z"/><path class="e" d="M62.55,42.67a6,6,0,0,1,.08-1.1,1.78,1.78,0,0,1,1.85-1.42,1.7,1.7,0,0,1,1.91,1.36,6,6,0,0,1,0,1.24A4.37,4.37,0,0,1,66.37,44a1.73,1.73,0,0,1-1.81,1.28,1.81,1.81,0,0,1-2-1.19A5.65,5.65,0,0,1,62.55,42.67Z"/><path class="a" d="M3.9,62.74a5.85,5.85,0,0,0-.09-1.09A1.78,1.78,0,0,0,2,60.23a1.68,1.68,0,0,0-1.9,1.36,5.33,5.33,0,0,0,0,1.24A4.37,4.37,0,0,0,.07,64a1.74,1.74,0,0,0,1.81,1.28A1.86,1.86,0,0,0,3.81,64,4.88,4.88,0,0,0,3.9,62.74Z"/><path class="a" d="M11.61,62.74a5.92,5.92,0,0,0-.08-1.09,1.79,1.79,0,0,0-1.86-1.42,1.69,1.69,0,0,0-1.9,1.36,5.94,5.94,0,0,0,0,1.24A4.78,4.78,0,0,0,7.79,64a1.73,1.73,0,0,0,1.8,1.28A1.88,1.88,0,0,0,11.53,64,4.89,4.89,0,0,0,11.61,62.74Z"/><path class="a" d="M15.5,62.74a5.92,5.92,0,0,0-.08-1.09,1.79,1.79,0,0,0-1.86-1.42,1.69,1.69,0,0,0-1.9,1.36,5.94,5.94,0,0,0-.05,1.24A4.78,4.78,0,0,0,11.68,64a1.73,1.73,0,0,0,1.8,1.28A1.88,1.88,0,0,0,15.42,64,4.89,4.89,0,0,0,15.5,62.74Z"/><path class="a" d="M3.86,62.74a5.92,5.92,0,0,1,.08-1.09,1.78,1.78,0,0,1,1.85-1.42A1.69,1.69,0,0,1,7.7,61.59a5.94,5.94,0,0,1,0,1.24A4.78,4.78,0,0,1,7.68,64a1.73,1.73,0,0,1-1.8,1.28,1.84,1.84,0,0,1-2-1.19A5.7,5.7,0,0,1,3.86,62.74Z"/><path class="a" d="M15.53,62.74a5.92,5.92,0,0,1,.08-1.09,1.79,1.79,0,0,1,1.86-1.42,1.69,1.69,0,0,1,1.9,1.36,5.94,5.94,0,0,1,.05,1.24A4.78,4.78,0,0,1,19.35,64a1.73,1.73,0,0,1-1.8,1.28,1.82,1.82,0,0,1-2-1.19A5.68,5.68,0,0,1,15.53,62.74Z"/><path class="a" d="M50.91,62.74a5.92,5.92,0,0,0-.08-1.09A1.79,1.79,0,0,0,49,60.23a1.69,1.69,0,0,0-1.9,1.36,5.94,5.94,0,0,0,0,1.24A4.78,4.78,0,0,0,47.09,64a1.73,1.73,0,0,0,1.8,1.28A1.88,1.88,0,0,0,50.83,64,4.89,4.89,0,0,0,50.91,62.74Z"/><path class="a" d="M58.63,62.74a5.85,5.85,0,0,0-.09-1.09,1.78,1.78,0,0,0-1.85-1.42,1.69,1.69,0,0,0-1.91,1.36,6,6,0,0,0,0,1.24A4.37,4.37,0,0,0,54.8,64a1.74,1.74,0,0,0,1.81,1.28A1.86,1.86,0,0,0,58.54,64,4.88,4.88,0,0,0,58.63,62.74Z"/><path class="a" d="M62.52,62.74a5.85,5.85,0,0,0-.09-1.09,1.78,1.78,0,0,0-1.85-1.42,1.68,1.68,0,0,0-1.9,1.36,5.33,5.33,0,0,0,0,1.24A4.37,4.37,0,0,0,58.69,64a1.74,1.74,0,0,0,1.81,1.28A1.86,1.86,0,0,0,62.43,64,4.88,4.88,0,0,0,62.52,62.74Z"/><path class="a" d="M50.87,62.74A5.85,5.85,0,0,1,51,61.65a1.78,1.78,0,0,1,1.85-1.42,1.68,1.68,0,0,1,1.9,1.36,5.33,5.33,0,0,1,0,1.24A4.37,4.37,0,0,1,54.7,64a1.74,1.74,0,0,1-1.81,1.28,1.82,1.82,0,0,1-2-1.19A5.68,5.68,0,0,1,50.87,62.74Z"/><path class="a" d="M62.55,62.74a5.92,5.92,0,0,1,.08-1.09,1.78,1.78,0,0,1,1.85-1.42,1.69,1.69,0,0,1,1.91,1.36,6,6,0,0,1,0,1.24A4.37,4.37,0,0,1,66.37,64a1.73,1.73,0,0,1-1.81,1.28,1.83,1.83,0,0,1-2-1.19A5.7,5.7,0,0,1,62.55,62.74Z"/></svg>