<svg xmlns="http://www.w3.org/2000/svg" width="65.14" height="65.32" viewBox="0 0 65.14 65.32"><defs><style>.a{fill:#fbf175;}.b{fill:#889bcf;}.c{fill:#86aca8;}.d{fill:#ffd69f;}.e{fill:#eb666a;}</style></defs><title>Asset 114</title><path class="a" d="M32.58,62.74a5.85,5.85,0,0,0-.09-1.09,1.78,1.78,0,0,0-1.85-1.42,1.68,1.68,0,0,0-1.9,1.36,5.33,5.33,0,0,0,0,1.24A4.37,4.37,0,0,0,28.75,64a1.74,1.74,0,0,0,1.81,1.28A1.88,1.88,0,0,0,32.5,64,5.36,5.36,0,0,0,32.58,62.74Z"/><path class="a" d="M40.29,62.74a5.92,5.92,0,0,0-.08-1.09,1.79,1.79,0,0,0-1.86-1.42,1.69,1.69,0,0,0-1.9,1.36,5.94,5.94,0,0,0-.05,1.24A4.78,4.78,0,0,0,36.47,64a1.73,1.73,0,0,0,1.8,1.28A1.88,1.88,0,0,0,40.21,64,4.89,4.89,0,0,0,40.29,62.74Z"/><path class="a" d="M44.18,62.74a5.92,5.92,0,0,0-.08-1.09,1.79,1.79,0,0,0-1.86-1.42,1.69,1.69,0,0,0-1.9,1.36,5.94,5.94,0,0,0-.05,1.24A4.78,4.78,0,0,0,40.36,64a1.73,1.73,0,0,0,1.8,1.28A1.88,1.88,0,0,0,44.1,64,4.89,4.89,0,0,0,44.18,62.74Z"/><path class="a" d="M32.54,62.74a5.92,5.92,0,0,1,.08-1.09,1.79,1.79,0,0,1,1.86-1.42,1.69,1.69,0,0,1,1.9,1.36,5.94,5.94,0,0,1,0,1.24A4.78,4.78,0,0,1,36.36,64a1.73,1.73,0,0,1-1.8,1.28,1.82,1.82,0,0,1-2-1.19A5.68,5.68,0,0,1,32.54,62.74Z"/><path class="a" d="M17.09,62.74A5.85,5.85,0,0,0,17,61.65a1.78,1.78,0,0,0-1.85-1.42,1.69,1.69,0,0,0-1.91,1.36,6,6,0,0,0,0,1.24A4.37,4.37,0,0,0,13.26,64a1.73,1.73,0,0,0,1.81,1.28A1.86,1.86,0,0,0,17,64,4.88,4.88,0,0,0,17.09,62.74Z"/><path class="a" d="M24.8,62.74a5.92,5.92,0,0,0-.08-1.09,1.79,1.79,0,0,0-1.86-1.42A1.69,1.69,0,0,0,21,61.59a5.94,5.94,0,0,0-.05,1.24A4.36,4.36,0,0,0,21,64a1.72,1.72,0,0,0,1.8,1.28A1.88,1.88,0,0,0,24.72,64,4.89,4.89,0,0,0,24.8,62.74Z"/><path class="a" d="M28.69,62.74a5.92,5.92,0,0,0-.08-1.09,1.79,1.79,0,0,0-1.86-1.42,1.69,1.69,0,0,0-1.9,1.36,5.94,5.94,0,0,0-.05,1.24A4.78,4.78,0,0,0,24.87,64a1.73,1.73,0,0,0,1.8,1.28A1.88,1.88,0,0,0,28.61,64,4.89,4.89,0,0,0,28.69,62.74Z"/><path class="a" d="M17.05,62.74a5.92,5.92,0,0,1,.08-1.09A1.78,1.78,0,0,1,19,60.23a1.69,1.69,0,0,1,1.91,1.36,6,6,0,0,1,0,1.24A4.37,4.37,0,0,1,20.87,64a1.73,1.73,0,0,1-1.8,1.28,1.83,1.83,0,0,1-2-1.19A5.7,5.7,0,0,1,17.05,62.74Z"/><path class="a" d="M44.16,62.74a5.85,5.85,0,0,1,.09-1.09,1.78,1.78,0,0,1,1.85-1.42A1.68,1.68,0,0,1,48,61.59a5.33,5.33,0,0,1,0,1.24A4.37,4.37,0,0,1,48,64a1.74,1.74,0,0,1-1.81,1.28,1.82,1.82,0,0,1-2-1.19A5.68,5.68,0,0,1,44.16,62.74Z"/><path class="a" d="M48.05,62.74a5.85,5.85,0,0,1,.09-1.09A1.78,1.78,0,0,1,50,60.23a1.69,1.69,0,0,1,1.91,1.36,6,6,0,0,1,0,1.24A4.37,4.37,0,0,1,51.88,64a1.74,1.74,0,0,1-1.81,1.28,1.83,1.83,0,0,1-2-1.19A5.68,5.68,0,0,1,48.05,62.74Z"/><path class="b" d="M32.58,2.52a6,6,0,0,0-.09-1.1A1.78,1.78,0,0,0,30.64,0a1.68,1.68,0,0,0-1.9,1.36,5.35,5.35,0,0,0,0,1.24,4.37,4.37,0,0,0,.06,1.21,1.74,1.74,0,0,0,1.81,1.28A1.87,1.87,0,0,0,32.5,3.8,5.28,5.28,0,0,0,32.58,2.52Z"/><path class="b" d="M40.29,2.52a6,6,0,0,0-.08-1.1A1.79,1.79,0,0,0,38.35,0a1.7,1.7,0,0,0-1.9,1.36A6,6,0,0,0,36.4,2.6a4.78,4.78,0,0,0,.07,1.21,1.73,1.73,0,0,0,1.8,1.28A1.87,1.87,0,0,0,40.21,3.8,4.82,4.82,0,0,0,40.29,2.52Z"/><path class="b" d="M44.18,2.52a6,6,0,0,0-.08-1.1A1.79,1.79,0,0,0,42.24,0a1.7,1.7,0,0,0-1.9,1.36,6,6,0,0,0-.05,1.24,4.78,4.78,0,0,0,.07,1.21,1.73,1.73,0,0,0,1.8,1.28A1.87,1.87,0,0,0,44.1,3.8,4.82,4.82,0,0,0,44.18,2.52Z"/><path class="b" d="M32.54,2.52a6,6,0,0,1,.08-1.1A1.79,1.79,0,0,1,34.48,0a1.7,1.7,0,0,1,1.9,1.36,6,6,0,0,1,0,1.24,4.78,4.78,0,0,1-.07,1.21,1.73,1.73,0,0,1-1.8,1.28,1.81,1.81,0,0,1-2-1.19A5.63,5.63,0,0,1,32.54,2.52Z"/><path class="b" d="M17.09,2.52A6,6,0,0,0,17,1.42,1.78,1.78,0,0,0,15.15,0a1.7,1.7,0,0,0-1.91,1.36,6,6,0,0,0,0,1.24,4.37,4.37,0,0,0,.06,1.21,1.73,1.73,0,0,0,1.81,1.28A1.85,1.85,0,0,0,17,3.8,4.8,4.8,0,0,0,17.09,2.52Z"/><path class="b" d="M24.8,2.52a6,6,0,0,0-.08-1.1A1.79,1.79,0,0,0,22.86,0,1.7,1.7,0,0,0,21,1.36a6,6,0,0,0-.05,1.24A4.36,4.36,0,0,0,21,3.81a1.72,1.72,0,0,0,1.8,1.28A1.87,1.87,0,0,0,24.72,3.8,4.82,4.82,0,0,0,24.8,2.52Z"/><path class="b" d="M28.69,2.52a6,6,0,0,0-.08-1.1A1.79,1.79,0,0,0,26.75,0a1.7,1.7,0,0,0-1.9,1.36A6,6,0,0,0,24.8,2.6a4.78,4.78,0,0,0,.07,1.21,1.73,1.73,0,0,0,1.8,1.28A1.87,1.87,0,0,0,28.61,3.8,4.82,4.82,0,0,0,28.69,2.52Z"/><path class="b" d="M17.05,2.52a6,6,0,0,1,.08-1.1A1.78,1.78,0,0,1,19,0a1.7,1.7,0,0,1,1.91,1.36,6,6,0,0,1,0,1.24,4.37,4.37,0,0,1-.06,1.21,1.73,1.73,0,0,1-1.8,1.28,1.82,1.82,0,0,1-2-1.19A5.65,5.65,0,0,1,17.05,2.52Z"/><path class="b" d="M44.16,2.52a6,6,0,0,1,.09-1.1A1.78,1.78,0,0,1,46.1,0,1.68,1.68,0,0,1,48,1.36a5.35,5.35,0,0,1,0,1.24A4.37,4.37,0,0,1,48,3.81a1.74,1.74,0,0,1-1.81,1.28,1.81,1.81,0,0,1-2-1.19A5.63,5.63,0,0,1,44.16,2.52Z"/><path class="b" d="M48.05,2.52a6,6,0,0,1,.09-1.1A1.78,1.78,0,0,1,50,0,1.7,1.7,0,0,1,51.9,1.36a6,6,0,0,1,0,1.24,4.37,4.37,0,0,1-.06,1.21,1.74,1.74,0,0,1-1.81,1.28,1.81,1.81,0,0,1-2-1.19A5.63,5.63,0,0,1,48.05,2.52Z"/><path class="c" d="M48.11,22.59A5.92,5.92,0,0,0,48,21.5a1.78,1.78,0,0,0-1.85-1.42,1.69,1.69,0,0,0-1.91,1.36,5.36,5.36,0,0,0,0,1.24,4.37,4.37,0,0,0,.06,1.21,1.73,1.73,0,0,0,1.8,1.28A1.88,1.88,0,0,0,48,23.87,4.82,4.82,0,0,0,48.11,22.59Z"/><path class="c" d="M55.83,22.59a5.85,5.85,0,0,0-.09-1.09,1.78,1.78,0,0,0-1.85-1.42A1.68,1.68,0,0,0,52,21.44a5.3,5.3,0,0,0-.05,1.24A4.37,4.37,0,0,0,52,23.89a1.74,1.74,0,0,0,1.81,1.28,1.89,1.89,0,0,0,1.94-1.3A5.28,5.28,0,0,0,55.83,22.59Z"/><path class="c" d="M59.72,22.59a5.85,5.85,0,0,0-.09-1.09,1.77,1.77,0,0,0-1.85-1.42,1.69,1.69,0,0,0-1.9,1.36,5.91,5.91,0,0,0-.05,1.24,4.8,4.8,0,0,0,.06,1.21,1.74,1.74,0,0,0,1.81,1.28,1.89,1.89,0,0,0,1.94-1.3A4.82,4.82,0,0,0,59.72,22.59Z"/><path class="c" d="M48.07,22.59a5.85,5.85,0,0,1,.09-1.09A1.78,1.78,0,0,1,50,20.08a1.68,1.68,0,0,1,1.9,1.36A5.3,5.3,0,0,1,52,22.68a4.37,4.37,0,0,1-.06,1.21,1.74,1.74,0,0,1-1.81,1.28,1.83,1.83,0,0,1-2-1.19A5.71,5.71,0,0,1,48.07,22.59Z"/><path class="c" d="M59.75,22.59a5.92,5.92,0,0,1,.08-1.09,1.79,1.79,0,0,1,1.86-1.42,1.69,1.69,0,0,1,1.9,1.36,5.91,5.91,0,0,1,0,1.24,4.78,4.78,0,0,1-.07,1.21,1.73,1.73,0,0,1-1.8,1.28,1.84,1.84,0,0,1-2-1.19A5.73,5.73,0,0,1,59.75,22.59Z"/><path class="c" d="M5.39,22.59a5.92,5.92,0,0,0-.08-1.09,1.79,1.79,0,0,0-1.86-1.42,1.69,1.69,0,0,0-1.9,1.36,5.91,5.91,0,0,0-.05,1.24,4.78,4.78,0,0,0,.07,1.21,1.73,1.73,0,0,0,1.8,1.28,1.88,1.88,0,0,0,1.94-1.3A4.82,4.82,0,0,0,5.39,22.59Z"/><path class="c" d="M13.11,22.59A5.85,5.85,0,0,0,13,21.5a1.78,1.78,0,0,0-1.85-1.42,1.68,1.68,0,0,0-1.9,1.36,5.3,5.3,0,0,0,0,1.24,4.37,4.37,0,0,0,.06,1.21,1.74,1.74,0,0,0,1.81,1.28A1.87,1.87,0,0,0,13,23.87,4.8,4.8,0,0,0,13.11,22.59Z"/><path class="c" d="M17,22.59a5.85,5.85,0,0,0-.09-1.09,1.78,1.78,0,0,0-1.85-1.42,1.68,1.68,0,0,0-1.9,1.36,5.3,5.3,0,0,0-.05,1.24,4.37,4.37,0,0,0,.06,1.21A1.74,1.74,0,0,0,15,25.17a1.89,1.89,0,0,0,1.94-1.3A5.28,5.28,0,0,0,17,22.59Z"/><path class="c" d="M5.35,22.59a5.85,5.85,0,0,1,.09-1.09,1.78,1.78,0,0,1,1.85-1.42,1.68,1.68,0,0,1,1.9,1.36,5.3,5.3,0,0,1,.05,1.24,4.37,4.37,0,0,1-.06,1.21,1.74,1.74,0,0,1-1.81,1.28A1.82,1.82,0,0,1,5.42,24,5.71,5.71,0,0,1,5.35,22.59Z"/><path class="c" d="M17,22.59a5.92,5.92,0,0,1,.08-1.09A1.78,1.78,0,0,1,19,20.08a1.69,1.69,0,0,1,1.91,1.36,5.36,5.36,0,0,1,0,1.24,4.37,4.37,0,0,1-.06,1.21,1.73,1.73,0,0,1-1.8,1.28,1.83,1.83,0,0,1-2-1.19A5.73,5.73,0,0,1,17,22.59Z"/><path class="c" d="M42,56.05A5.85,5.85,0,0,0,41.91,55a1.78,1.78,0,0,0-1.85-1.43,1.69,1.69,0,0,0-1.9,1.37,5.91,5.91,0,0,0,0,1.24,4.8,4.8,0,0,0,.06,1.21A1.72,1.72,0,0,0,40,58.62a1.87,1.87,0,0,0,1.94-1.29A4.82,4.82,0,0,0,42,56.05Z"/><path class="c" d="M49.71,56.05A5.92,5.92,0,0,0,49.63,55a1.79,1.79,0,0,0-1.86-1.43,1.7,1.7,0,0,0-1.9,1.37,5.91,5.91,0,0,0,0,1.24,4.78,4.78,0,0,0,.07,1.21,1.71,1.71,0,0,0,1.8,1.27,1.87,1.87,0,0,0,1.94-1.29A4.82,4.82,0,0,0,49.71,56.05Z"/><path class="c" d="M53.6,56.05A5.92,5.92,0,0,0,53.52,55a1.79,1.79,0,0,0-1.86-1.43,1.7,1.7,0,0,0-1.9,1.37,5.91,5.91,0,0,0,0,1.24,4.78,4.78,0,0,0,.07,1.21,1.71,1.71,0,0,0,1.8,1.27,1.87,1.87,0,0,0,1.94-1.29A4.82,4.82,0,0,0,53.6,56.05Z"/><path class="c" d="M42,56.05A5.92,5.92,0,0,1,42,55a1.79,1.79,0,0,1,1.86-1.43,1.7,1.7,0,0,1,1.9,1.37,5.91,5.91,0,0,1,.05,1.24,4.78,4.78,0,0,1-.07,1.21A1.71,1.71,0,0,1,44,58.62,1.8,1.8,0,0,1,42,57.44,5.74,5.74,0,0,1,42,56.05Z"/><path class="c" d="M53.63,56.05A5.11,5.11,0,0,1,53.72,55a1.78,1.78,0,0,1,1.85-1.43,1.7,1.7,0,0,1,1.9,1.37,5.91,5.91,0,0,1,.05,1.24,4.36,4.36,0,0,1-.07,1.21,1.7,1.7,0,0,1-1.8,1.27,1.8,1.8,0,0,1-1.95-1.18A5.74,5.74,0,0,1,53.63,56.05Z"/><path class="c" d="M11.51,56.05A5.85,5.85,0,0,0,11.42,55a1.78,1.78,0,0,0-1.85-1.43,1.7,1.7,0,0,0-1.9,1.37,5.91,5.91,0,0,0,0,1.24,4.8,4.8,0,0,0,.06,1.21,1.72,1.72,0,0,0,1.81,1.27,1.87,1.87,0,0,0,1.94-1.29A4.82,4.82,0,0,0,11.51,56.05Z"/><path class="c" d="M19.22,56.05A5.92,5.92,0,0,0,19.14,55a1.79,1.79,0,0,0-1.86-1.43,1.7,1.7,0,0,0-1.9,1.37,5.91,5.91,0,0,0-.05,1.24,4.78,4.78,0,0,0,.07,1.21,1.71,1.71,0,0,0,1.8,1.27,1.87,1.87,0,0,0,1.94-1.29A4.82,4.82,0,0,0,19.22,56.05Z"/><path class="c" d="M23.11,56.05A5.92,5.92,0,0,0,23,55a1.79,1.79,0,0,0-1.86-1.43,1.7,1.7,0,0,0-1.9,1.37,5.91,5.91,0,0,0-.05,1.24,4.78,4.78,0,0,0,.07,1.21,1.71,1.71,0,0,0,1.8,1.27A1.87,1.87,0,0,0,23,57.33,4.82,4.82,0,0,0,23.11,56.05Z"/><path class="c" d="M11.47,56.05A5.92,5.92,0,0,1,11.55,55a1.79,1.79,0,0,1,1.86-1.43,1.7,1.7,0,0,1,1.9,1.37,5.91,5.91,0,0,1,0,1.24,4.78,4.78,0,0,1-.07,1.21,1.71,1.71,0,0,1-1.8,1.27,1.8,1.8,0,0,1-2-1.18A5.74,5.74,0,0,1,11.47,56.05Z"/><path class="c" d="M23.14,56.05A5.85,5.85,0,0,1,23.23,55a1.78,1.78,0,0,1,1.85-1.43A1.7,1.7,0,0,1,27,54.9,5.91,5.91,0,0,1,27,56.14,4.8,4.8,0,0,1,27,57.35a1.72,1.72,0,0,1-1.81,1.27,1.8,1.8,0,0,1-1.95-1.18A5.74,5.74,0,0,1,23.14,56.05Z"/><path class="d" d="M46.91,15.9a5.92,5.92,0,0,0-.08-1.09A1.77,1.77,0,0,0,45,13.38a1.7,1.7,0,0,0-1.91,1.37A6,6,0,0,0,43,16a4.3,4.3,0,0,0,.06,1.2,1.71,1.71,0,0,0,1.81,1.28,1.85,1.85,0,0,0,1.93-1.29A4.82,4.82,0,0,0,46.91,15.9Z"/><path class="d" d="M54.63,15.9a5.11,5.11,0,0,0-.09-1.09,1.77,1.77,0,0,0-1.85-1.43,1.7,1.7,0,0,0-1.9,1.37,5.91,5.91,0,0,0,0,1.24,4.29,4.29,0,0,0,.07,1.2,1.7,1.7,0,0,0,1.8,1.28,1.87,1.87,0,0,0,1.94-1.29A4.82,4.82,0,0,0,54.63,15.9Z"/><path class="d" d="M58.52,15.9a5.92,5.92,0,0,0-.08-1.09,1.78,1.78,0,0,0-1.86-1.43,1.7,1.7,0,0,0-1.9,1.37,5.91,5.91,0,0,0,0,1.24,4.7,4.7,0,0,0,.07,1.2,1.71,1.71,0,0,0,1.8,1.28,1.87,1.87,0,0,0,1.94-1.29A4.82,4.82,0,0,0,58.52,15.9Z"/><path class="d" d="M46.88,15.9A5.92,5.92,0,0,1,47,14.81a1.77,1.77,0,0,1,1.85-1.43,1.7,1.7,0,0,1,1.91,1.37,6,6,0,0,1,0,1.24,4.3,4.3,0,0,1-.06,1.2,1.71,1.71,0,0,1-1.81,1.28,1.81,1.81,0,0,1-2-1.18A5.75,5.75,0,0,1,46.88,15.9Z"/><path class="d" d="M58.55,15.9a5.92,5.92,0,0,1,.08-1.09,1.78,1.78,0,0,1,1.86-1.43,1.7,1.7,0,0,1,1.9,1.37,5.91,5.91,0,0,1,0,1.24,4.7,4.7,0,0,1-.07,1.2,1.71,1.71,0,0,1-1.8,1.28,1.8,1.8,0,0,1-2-1.18A5.74,5.74,0,0,1,58.55,15.9Z"/><path class="d" d="M6.59,15.9a5.92,5.92,0,0,0-.08-1.09,1.78,1.78,0,0,0-1.86-1.43,1.7,1.7,0,0,0-1.9,1.37A5.91,5.91,0,0,0,2.7,16a4.7,4.7,0,0,0,.07,1.2,1.71,1.71,0,0,0,1.8,1.28,1.87,1.87,0,0,0,1.94-1.29A4.82,4.82,0,0,0,6.59,15.9Z"/><path class="d" d="M14.3,15.9a5.92,5.92,0,0,0-.08-1.09,1.77,1.77,0,0,0-1.85-1.43,1.7,1.7,0,0,0-1.91,1.37,6,6,0,0,0,0,1.24,4.3,4.3,0,0,0,.06,1.2,1.71,1.71,0,0,0,1.81,1.28,1.85,1.85,0,0,0,1.93-1.29A4.82,4.82,0,0,0,14.3,15.9Z"/><path class="d" d="M18.2,15.9a5.85,5.85,0,0,0-.09-1.09,1.77,1.77,0,0,0-1.85-1.43,1.7,1.7,0,0,0-1.91,1.37,6,6,0,0,0,0,1.24,4.3,4.3,0,0,0,.06,1.2,1.72,1.72,0,0,0,1.81,1.28,1.85,1.85,0,0,0,1.93-1.29A4.8,4.8,0,0,0,18.2,15.9Z"/><path class="d" d="M6.55,15.9a5.11,5.11,0,0,1,.09-1.09,1.77,1.77,0,0,1,1.85-1.43,1.7,1.7,0,0,1,1.9,1.37,5.91,5.91,0,0,1,0,1.24,4.29,4.29,0,0,1-.07,1.2,1.7,1.7,0,0,1-1.8,1.28,1.8,1.8,0,0,1-1.95-1.18A5.74,5.74,0,0,1,6.55,15.9Z"/><path class="d" d="M18.22,15.9a5.85,5.85,0,0,1,.09-1.09,1.77,1.77,0,0,1,1.85-1.43,1.7,1.7,0,0,1,1.91,1.37,6,6,0,0,1,0,1.24,4.3,4.3,0,0,1-.06,1.2,1.71,1.71,0,0,1-1.81,1.28,1.81,1.81,0,0,1-1.95-1.18A5.74,5.74,0,0,1,18.22,15.9Z"/><path class="d" d="M45.42,49.36a6.1,6.1,0,0,0-.08-1.1,1.79,1.79,0,0,0-1.86-1.42,1.7,1.7,0,0,0-1.9,1.37,5.91,5.91,0,0,0,0,1.24,4.7,4.7,0,0,0,.07,1.2,1.71,1.71,0,0,0,1.8,1.28,1.87,1.87,0,0,0,1.94-1.29A4.82,4.82,0,0,0,45.42,49.36Z"/><path class="d" d="M53.14,49.36a6,6,0,0,0-.09-1.1,1.78,1.78,0,0,0-1.85-1.42,1.68,1.68,0,0,0-1.9,1.37,5.3,5.3,0,0,0,0,1.24,4.3,4.3,0,0,0,.06,1.2,1.72,1.72,0,0,0,1.81,1.28,1.85,1.85,0,0,0,1.93-1.29A4.8,4.8,0,0,0,53.14,49.36Z"/><path class="d" d="M57,49.36a6,6,0,0,0-.09-1.1,1.78,1.78,0,0,0-1.85-1.42,1.68,1.68,0,0,0-1.9,1.37,5.3,5.3,0,0,0,0,1.24,4.3,4.3,0,0,0,.06,1.2A1.72,1.72,0,0,0,55,51.93,1.87,1.87,0,0,0,57,50.64,5.28,5.28,0,0,0,57,49.36Z"/><path class="d" d="M45.38,49.36a6,6,0,0,1,.09-1.1,1.78,1.78,0,0,1,1.85-1.42,1.68,1.68,0,0,1,1.9,1.37,5.3,5.3,0,0,1,.05,1.24,4.3,4.3,0,0,1-.06,1.2,1.72,1.72,0,0,1-1.81,1.28,1.8,1.8,0,0,1-1.95-1.18A5.74,5.74,0,0,1,45.38,49.36Z"/><path class="d" d="M57.06,49.36a6.1,6.1,0,0,1,.08-1.1A1.78,1.78,0,0,1,59,46.84a1.7,1.7,0,0,1,1.91,1.37,6,6,0,0,1,0,1.24,4.3,4.3,0,0,1-.06,1.2,1.71,1.71,0,0,1-1.8,1.28,1.81,1.81,0,0,1-2-1.18A5.75,5.75,0,0,1,57.06,49.36Z"/><path class="d" d="M8.08,49.36A6.1,6.1,0,0,0,8,48.26a1.78,1.78,0,0,0-1.85-1.42,1.7,1.7,0,0,0-1.91,1.37,5.36,5.36,0,0,0,0,1.24,4.3,4.3,0,0,0,.06,1.2,1.71,1.71,0,0,0,1.8,1.28A1.86,1.86,0,0,0,8,50.64,4.82,4.82,0,0,0,8.08,49.36Z"/><path class="d" d="M15.8,49.36a6,6,0,0,0-.09-1.1,1.78,1.78,0,0,0-1.85-1.42A1.68,1.68,0,0,0,12,48.21a5.3,5.3,0,0,0-.05,1.24,4.3,4.3,0,0,0,.06,1.2,1.72,1.72,0,0,0,1.81,1.28,1.87,1.87,0,0,0,1.94-1.29A5.28,5.28,0,0,0,15.8,49.36Z"/><path class="d" d="M19.69,49.36a6,6,0,0,0-.09-1.1,1.77,1.77,0,0,0-1.85-1.42,1.7,1.7,0,0,0-1.9,1.37,5.91,5.91,0,0,0,0,1.24,4.72,4.72,0,0,0,.06,1.2,1.72,1.72,0,0,0,1.81,1.28,1.87,1.87,0,0,0,1.94-1.29A4.82,4.82,0,0,0,19.69,49.36Z"/><path class="d" d="M8,49.36a6,6,0,0,1,.09-1.1A1.78,1.78,0,0,1,10,46.84a1.68,1.68,0,0,1,1.9,1.37,5.3,5.3,0,0,1,0,1.24,4.3,4.3,0,0,1-.06,1.2,1.72,1.72,0,0,1-1.81,1.28,1.81,1.81,0,0,1-2-1.18A5.74,5.74,0,0,1,8,49.36Z"/><path class="d" d="M19.72,49.36a6.1,6.1,0,0,1,.08-1.1,1.79,1.79,0,0,1,1.86-1.42,1.7,1.7,0,0,1,1.9,1.37,5.91,5.91,0,0,1,.05,1.24,4.7,4.7,0,0,1-.07,1.2,1.71,1.71,0,0,1-1.8,1.28,1.82,1.82,0,0,1-2-1.18A5.75,5.75,0,0,1,19.72,49.36Z"/><path class="e" d="M10.75,9.21a6,6,0,0,0-.09-1.1A1.78,1.78,0,0,0,8.81,6.69,1.7,1.7,0,0,0,6.9,8.05a6.12,6.12,0,0,0,0,1.25,4.32,4.32,0,0,0,.06,1.2,1.72,1.72,0,0,0,1.81,1.28,1.85,1.85,0,0,0,1.93-1.29A4.8,4.8,0,0,0,10.75,9.21Z"/><path class="e" d="M18.46,9.21a5.26,5.26,0,0,0-.09-1.1,1.77,1.77,0,0,0-1.85-1.42,1.7,1.7,0,0,0-1.9,1.36,6,6,0,0,0,0,1.25,4.31,4.31,0,0,0,.07,1.2,1.71,1.71,0,0,0,1.8,1.28,1.87,1.87,0,0,0,1.94-1.29A4.82,4.82,0,0,0,18.46,9.21Z"/><path class="e" d="M22.35,9.21a6.1,6.1,0,0,0-.08-1.1,1.79,1.79,0,0,0-1.86-1.42,1.7,1.7,0,0,0-1.9,1.36,6,6,0,0,0-.05,1.25,4.73,4.73,0,0,0,.07,1.2,1.72,1.72,0,0,0,1.8,1.28,1.87,1.87,0,0,0,1.94-1.29A4.82,4.82,0,0,0,22.35,9.21Z"/><path class="e" d="M10.71,9.21a6.1,6.1,0,0,1,.08-1.1,1.78,1.78,0,0,1,1.85-1.42,1.7,1.7,0,0,1,1.91,1.36,6.12,6.12,0,0,1,0,1.25,4.32,4.32,0,0,1-.06,1.2,1.72,1.72,0,0,1-1.81,1.28,1.81,1.81,0,0,1-2-1.19A5.65,5.65,0,0,1,10.71,9.21Z"/><path class="e" d="M22.38,9.21a6.1,6.1,0,0,1,.08-1.1,1.79,1.79,0,0,1,1.86-1.42,1.7,1.7,0,0,1,1.9,1.36,6,6,0,0,1,.05,1.25,4.73,4.73,0,0,1-.07,1.2,1.72,1.72,0,0,1-1.8,1.28,1.81,1.81,0,0,1-1.95-1.19A5.63,5.63,0,0,1,22.38,9.21Z"/><path class="e" d="M42.76,9.21a6.1,6.1,0,0,0-.08-1.1,1.79,1.79,0,0,0-1.86-1.42,1.7,1.7,0,0,0-1.9,1.36,6,6,0,0,0-.05,1.25,4.73,4.73,0,0,0,.07,1.2,1.72,1.72,0,0,0,1.8,1.28,1.87,1.87,0,0,0,1.94-1.29A4.82,4.82,0,0,0,42.76,9.21Z"/><path class="e" d="M50.47,9.21a6.1,6.1,0,0,0-.08-1.1,1.78,1.78,0,0,0-1.85-1.42,1.7,1.7,0,0,0-1.91,1.36,6.12,6.12,0,0,0,0,1.25,4.32,4.32,0,0,0,.06,1.2,1.72,1.72,0,0,0,1.81,1.28,1.85,1.85,0,0,0,1.93-1.29A4.82,4.82,0,0,0,50.47,9.21Z"/><path class="e" d="M54.37,9.21a6,6,0,0,0-.09-1.1,1.78,1.78,0,0,0-1.85-1.42,1.7,1.7,0,0,0-1.91,1.36,6.12,6.12,0,0,0,0,1.25,4.32,4.32,0,0,0,.06,1.2,1.72,1.72,0,0,0,1.81,1.28,1.85,1.85,0,0,0,1.93-1.29A4.8,4.8,0,0,0,54.37,9.21Z"/><path class="e" d="M42.72,9.21a5.26,5.26,0,0,1,.09-1.1,1.77,1.77,0,0,1,1.85-1.42,1.7,1.7,0,0,1,1.9,1.36,6,6,0,0,1,0,1.25,4.31,4.31,0,0,1-.07,1.2,1.71,1.71,0,0,1-1.8,1.28,1.81,1.81,0,0,1-2-1.19A5.63,5.63,0,0,1,42.72,9.21Z"/><path class="e" d="M54.39,9.21a6,6,0,0,1,.09-1.1,1.78,1.78,0,0,1,1.85-1.42,1.7,1.7,0,0,1,1.91,1.36,6.12,6.12,0,0,1,0,1.25,4.32,4.32,0,0,1-.06,1.2,1.73,1.73,0,0,1-1.81,1.28,1.81,1.81,0,0,1-1.95-1.19A5.63,5.63,0,0,1,54.39,9.21Z"/><path class="e" d="M5.15,42.67a6,6,0,0,0-.09-1.1,1.78,1.78,0,0,0-1.85-1.42,1.68,1.68,0,0,0-1.9,1.36,5.35,5.35,0,0,0-.05,1.24A4.37,4.37,0,0,0,1.32,44a1.74,1.74,0,0,0,1.81,1.28A1.85,1.85,0,0,0,5.06,44,4.8,4.8,0,0,0,5.15,42.67Z"/><path class="e" d="M12.86,42.67a6,6,0,0,0-.08-1.1,1.79,1.79,0,0,0-1.86-1.42A1.7,1.7,0,0,0,9,41.51a6,6,0,0,0,0,1.24A4.78,4.78,0,0,0,9,44a1.73,1.73,0,0,0,1.8,1.28A1.87,1.87,0,0,0,12.78,44,4.82,4.82,0,0,0,12.86,42.67Z"/><path class="e" d="M16.75,42.67a6,6,0,0,0-.08-1.1,1.79,1.79,0,0,0-1.86-1.42,1.7,1.7,0,0,0-1.9,1.36,6,6,0,0,0-.05,1.24A4.78,4.78,0,0,0,12.93,44a1.73,1.73,0,0,0,1.8,1.28A1.87,1.87,0,0,0,16.67,44,4.82,4.82,0,0,0,16.75,42.67Z"/><path class="e" d="M5.11,42.67a6,6,0,0,1,.08-1.1,1.79,1.79,0,0,1,1.86-1.42A1.7,1.7,0,0,1,9,41.51,6,6,0,0,1,9,42.75,4.78,4.78,0,0,1,8.93,44a1.73,1.73,0,0,1-1.8,1.28,1.83,1.83,0,0,1-2-1.19A6.19,6.19,0,0,1,5.11,42.67Z"/><path class="e" d="M16.78,42.67a6,6,0,0,1,.08-1.1,1.79,1.79,0,0,1,1.86-1.42,1.7,1.7,0,0,1,1.9,1.36,6,6,0,0,1,.05,1.24A4.36,4.36,0,0,1,20.6,44a1.72,1.72,0,0,1-1.8,1.28,1.81,1.81,0,0,1-1.95-1.19A5.63,5.63,0,0,1,16.78,42.67Z"/><path class="e" d="M48.36,42.67a5.2,5.2,0,0,0-.09-1.1,1.77,1.77,0,0,0-1.85-1.42,1.7,1.7,0,0,0-1.9,1.36,6,6,0,0,0-.05,1.24A4.36,4.36,0,0,0,44.54,44a1.72,1.72,0,0,0,1.8,1.28A1.87,1.87,0,0,0,48.28,44,4.82,4.82,0,0,0,48.36,42.67Z"/><path class="e" d="M56.07,42.67a6,6,0,0,0-.08-1.1,1.79,1.79,0,0,0-1.86-1.42,1.7,1.7,0,0,0-1.9,1.36,6,6,0,0,0,0,1.24A4.78,4.78,0,0,0,52.25,44a1.73,1.73,0,0,0,1.8,1.28A1.87,1.87,0,0,0,56,44,4.82,4.82,0,0,0,56.07,42.67Z"/><path class="e" d="M60,42.67a6,6,0,0,0-.08-1.1A1.78,1.78,0,0,0,58,40.15a1.7,1.7,0,0,0-1.91,1.36,5.41,5.41,0,0,0,0,1.24A4.37,4.37,0,0,0,56.14,44a1.73,1.73,0,0,0,1.8,1.28A1.86,1.86,0,0,0,59.88,44,4.82,4.82,0,0,0,60,42.67Z"/><path class="e" d="M48.32,42.67a6,6,0,0,1,.08-1.1,1.79,1.79,0,0,1,1.86-1.42,1.7,1.7,0,0,1,1.9,1.36,6,6,0,0,1,.05,1.24A4.78,4.78,0,0,1,52.14,44a1.73,1.73,0,0,1-1.8,1.28,1.81,1.81,0,0,1-2-1.19A5.63,5.63,0,0,1,48.32,42.67Z"/><path class="e" d="M60,42.67a6,6,0,0,1,.09-1.1,1.77,1.77,0,0,1,1.85-1.42,1.68,1.68,0,0,1,1.9,1.36,5.35,5.35,0,0,1,.05,1.24A4.8,4.8,0,0,1,63.82,44,1.74,1.74,0,0,1,62,45.24a1.81,1.81,0,0,1-1.95-1.19A5.63,5.63,0,0,1,60,42.67Z"/><path class="b" d="M7.76,36a6,6,0,0,0-.08-1.1,1.79,1.79,0,0,0-1.86-1.42,1.69,1.69,0,0,0-1.9,1.36,6,6,0,0,0,0,1.24,4.78,4.78,0,0,0,.07,1.21,1.73,1.73,0,0,0,1.8,1.28,1.87,1.87,0,0,0,1.94-1.29A4.82,4.82,0,0,0,7.76,36Z"/><path class="b" d="M11.65,36a6,6,0,0,0-.08-1.1,1.79,1.79,0,0,0-1.86-1.42,1.69,1.69,0,0,0-1.9,1.36,6,6,0,0,0,0,1.24,4.78,4.78,0,0,0,.07,1.21,1.73,1.73,0,0,0,1.8,1.28,1.87,1.87,0,0,0,1.94-1.29A4.82,4.82,0,0,0,11.65,36Z"/><path class="b" d="M0,36a6,6,0,0,1,.08-1.1A1.79,1.79,0,0,1,2,33.46a1.69,1.69,0,0,1,1.9,1.36,6,6,0,0,1,0,1.24,4.78,4.78,0,0,1-.07,1.21A1.73,1.73,0,0,1,2,38.55,1.81,1.81,0,0,1,.08,37.36,5.63,5.63,0,0,1,0,36Z"/><path class="b" d="M11.68,36a5.15,5.15,0,0,1,.09-1.1,1.77,1.77,0,0,1,1.85-1.42,1.69,1.69,0,0,1,1.9,1.36,6,6,0,0,1,.05,1.24,4.36,4.36,0,0,1-.07,1.21,1.72,1.72,0,0,1-1.8,1.28,1.81,1.81,0,0,1-1.95-1.19A5.63,5.63,0,0,1,11.68,36Z"/><path class="b" d="M57.32,36a6,6,0,0,0-.08-1.1,1.78,1.78,0,0,0-1.85-1.42,1.69,1.69,0,0,0-1.91,1.36,6,6,0,0,0,0,1.24,4.78,4.78,0,0,0,.07,1.21,1.73,1.73,0,0,0,1.8,1.28,1.87,1.87,0,0,0,1.94-1.29A4.82,4.82,0,0,0,57.32,36Z"/><path class="b" d="M61.21,36a6,6,0,0,0-.08-1.1,1.78,1.78,0,0,0-1.85-1.42,1.69,1.69,0,0,0-1.91,1.36,6,6,0,0,0,0,1.24,4.37,4.37,0,0,0,.06,1.21,1.73,1.73,0,0,0,1.81,1.28,1.85,1.85,0,0,0,1.93-1.29A4.82,4.82,0,0,0,61.21,36Z"/><path class="b" d="M49.57,36a6,6,0,0,1,.08-1.1,1.79,1.79,0,0,1,1.86-1.42,1.69,1.69,0,0,1,1.9,1.36,6,6,0,0,1,.05,1.24,4.78,4.78,0,0,1-.07,1.21,1.73,1.73,0,0,1-1.8,1.28,1.81,1.81,0,0,1-2-1.19A5.63,5.63,0,0,1,49.57,36Z"/><path class="b" d="M61.24,36a5.89,5.89,0,0,1,.09-1.1,1.78,1.78,0,0,1,1.85-1.42,1.68,1.68,0,0,1,1.9,1.36,5.35,5.35,0,0,1,0,1.24,4.37,4.37,0,0,1-.06,1.21,1.74,1.74,0,0,1-1.81,1.28,1.81,1.81,0,0,1-1.95-1.19A5.63,5.63,0,0,1,61.24,36Z"/><path class="b" d="M32.55,36a6,6,0,0,1,.08-1.1,1.79,1.79,0,0,1,1.86-1.42,1.69,1.69,0,0,1,1.9,1.36,6,6,0,0,1,0,1.24,4.78,4.78,0,0,1-.07,1.21,1.73,1.73,0,0,1-1.8,1.28,1.87,1.87,0,0,1-1.94-1.29A4.82,4.82,0,0,1,32.55,36Z"/><path class="b" d="M32.59,36a6,6,0,0,0-.08-1.1,1.79,1.79,0,0,0-1.86-1.42,1.69,1.69,0,0,0-1.9,1.36,6,6,0,0,0-.05,1.24,4.36,4.36,0,0,0,.07,1.21,1.72,1.72,0,0,0,1.8,1.28,1.81,1.81,0,0,0,2-1.19A5.63,5.63,0,0,0,32.59,36Z"/><path class="a" d="M7.81,29.28a5.92,5.92,0,0,0-.08-1.09,1.78,1.78,0,0,0-1.85-1.42A1.69,1.69,0,0,0,4,28.13a5.94,5.94,0,0,0-.05,1.24A4.78,4.78,0,0,0,4,30.58a1.73,1.73,0,0,0,1.8,1.28,1.88,1.88,0,0,0,1.94-1.29A4.89,4.89,0,0,0,7.81,29.28Z"/><path class="a" d="M11.7,29.28a5.92,5.92,0,0,0-.08-1.09,1.78,1.78,0,0,0-1.85-1.42,1.69,1.69,0,0,0-1.91,1.36,6,6,0,0,0,0,1.24,4.37,4.37,0,0,0,.06,1.21,1.73,1.73,0,0,0,1.81,1.28,1.86,1.86,0,0,0,1.93-1.29A4.89,4.89,0,0,0,11.7,29.28Z"/><path class="a" d="M.06,29.28a5.92,5.92,0,0,1,.08-1.09A1.79,1.79,0,0,1,2,26.77a1.69,1.69,0,0,1,1.9,1.36A5.94,5.94,0,0,1,4,29.37a4.78,4.78,0,0,1-.07,1.21,1.73,1.73,0,0,1-1.8,1.28A1.82,1.82,0,0,1,.13,30.67,5.68,5.68,0,0,1,.06,29.28Z"/><path class="a" d="M11.73,29.28a5.85,5.85,0,0,1,.09-1.09,1.78,1.78,0,0,1,1.85-1.42,1.68,1.68,0,0,1,1.9,1.36,5.33,5.33,0,0,1,0,1.24,4.37,4.37,0,0,1-.06,1.21,1.74,1.74,0,0,1-1.81,1.28,1.82,1.82,0,0,1-1.95-1.19A5.68,5.68,0,0,1,11.73,29.28Z"/><path class="a" d="M57.27,29.28a5.92,5.92,0,0,0-.08-1.09,1.79,1.79,0,0,0-1.86-1.42,1.69,1.69,0,0,0-1.9,1.36,5.94,5.94,0,0,0,0,1.24,4.78,4.78,0,0,0,.07,1.21,1.73,1.73,0,0,0,1.8,1.28,1.88,1.88,0,0,0,1.94-1.29A4.89,4.89,0,0,0,57.27,29.28Z"/><path class="a" d="M61.16,29.28a5.92,5.92,0,0,0-.08-1.09,1.79,1.79,0,0,0-1.86-1.42,1.69,1.69,0,0,0-1.9,1.36,5.94,5.94,0,0,0,0,1.24,4.78,4.78,0,0,0,.07,1.21,1.73,1.73,0,0,0,1.8,1.28,1.88,1.88,0,0,0,1.94-1.29A4.89,4.89,0,0,0,61.16,29.28Z"/><path class="a" d="M49.52,29.28a5.92,5.92,0,0,1,.08-1.09,1.79,1.79,0,0,1,1.86-1.42,1.69,1.69,0,0,1,1.9,1.36,5.94,5.94,0,0,1,0,1.24,4.78,4.78,0,0,1-.07,1.21,1.73,1.73,0,0,1-1.8,1.28,1.82,1.82,0,0,1-1.95-1.19A5.68,5.68,0,0,1,49.52,29.28Z"/><path class="a" d="M61.19,29.28a5.11,5.11,0,0,1,.09-1.09,1.77,1.77,0,0,1,1.85-1.42A1.69,1.69,0,0,1,65,28.13a5.94,5.94,0,0,1,0,1.24A4.36,4.36,0,0,1,65,30.58a1.72,1.72,0,0,1-1.8,1.28,1.82,1.82,0,0,1-2-1.19A5.68,5.68,0,0,1,61.19,29.28Z"/><path class="a" d="M32.56,29.28a5.85,5.85,0,0,0-.09-1.09,1.78,1.78,0,0,0-1.85-1.42,1.69,1.69,0,0,0-1.91,1.36,6,6,0,0,0,0,1.24,4.37,4.37,0,0,0,.06,1.21,1.73,1.73,0,0,0,1.81,1.28,1.86,1.86,0,0,0,1.93-1.29A4.88,4.88,0,0,0,32.56,29.28Z"/><path class="a" d="M32.58,29.28a5.85,5.85,0,0,1,.09-1.09,1.78,1.78,0,0,1,1.85-1.42,1.69,1.69,0,0,1,1.91,1.36,6,6,0,0,1,0,1.24,4.37,4.37,0,0,1-.06,1.21,1.74,1.74,0,0,1-1.81,1.28,1.83,1.83,0,0,1-2-1.19A5.68,5.68,0,0,1,32.58,29.28Z"/></svg>