<svg xmlns="http://www.w3.org/2000/svg" width="54.16" height="65.32" viewBox="0 0 54.16 65.32"><defs><style>.a{fill:#eb666a;}.b{fill:#ffd69f;}.c{fill:#86aca8;}.d{fill:#fbf175;}.e{fill:#889bcf;}</style></defs><title>Asset 99</title><path class="a" d="M19.86,42.67a5.2,5.2,0,0,0-.09-1.1,1.77,1.77,0,0,0-1.85-1.42A1.7,1.7,0,0,0,16,41.51a6,6,0,0,0,0,1.24A4.36,4.36,0,0,0,16,44a1.72,1.72,0,0,0,1.8,1.28A1.87,1.87,0,0,0,19.78,44,4.82,4.82,0,0,0,19.86,42.67Z"/><path class="a" d="M27.57,42.67a6,6,0,0,0-.08-1.1,1.79,1.79,0,0,0-1.86-1.42,1.7,1.7,0,0,0-1.9,1.36,6,6,0,0,0-.05,1.24A4.78,4.78,0,0,0,23.75,44a1.73,1.73,0,0,0,1.8,1.28A1.87,1.87,0,0,0,27.49,44,4.82,4.82,0,0,0,27.57,42.67Z"/><path class="a" d="M31.46,42.67a6,6,0,0,0-.08-1.1,1.78,1.78,0,0,0-1.85-1.42,1.7,1.7,0,0,0-1.91,1.36,5.41,5.41,0,0,0,0,1.24A4.37,4.37,0,0,0,27.64,44a1.73,1.73,0,0,0,1.8,1.28A1.86,1.86,0,0,0,31.38,44,4.82,4.82,0,0,0,31.46,42.67Z"/><path class="a" d="M19.82,42.67a6,6,0,0,1,.08-1.1,1.79,1.79,0,0,1,1.86-1.42,1.7,1.7,0,0,1,1.9,1.36,6,6,0,0,1,.05,1.24A4.78,4.78,0,0,1,23.64,44a1.73,1.73,0,0,1-1.8,1.28,1.81,1.81,0,0,1-1.95-1.19A5.63,5.63,0,0,1,19.82,42.67Z"/><path class="a" d="M4.37,42.67a6,6,0,0,0-.09-1.1,1.78,1.78,0,0,0-1.85-1.42,1.68,1.68,0,0,0-1.9,1.36,5.35,5.35,0,0,0-.05,1.24A4.37,4.37,0,0,0,.54,44a1.74,1.74,0,0,0,1.81,1.28A1.85,1.85,0,0,0,4.28,44,4.8,4.8,0,0,0,4.37,42.67Z"/><path class="a" d="M12.08,42.67a6,6,0,0,0-.08-1.1,1.79,1.79,0,0,0-1.86-1.42,1.7,1.7,0,0,0-1.9,1.36,6,6,0,0,0-.05,1.24A4.78,4.78,0,0,0,8.26,44a1.73,1.73,0,0,0,1.8,1.28A1.87,1.87,0,0,0,12,44,4.82,4.82,0,0,0,12.08,42.67Z"/><path class="a" d="M16,42.67a6,6,0,0,0-.08-1.1A1.79,1.79,0,0,0,14,40.15a1.7,1.7,0,0,0-1.9,1.36,6,6,0,0,0-.05,1.24A4.78,4.78,0,0,0,12.15,44,1.73,1.73,0,0,0,14,45.24,1.87,1.87,0,0,0,15.89,44,4.82,4.82,0,0,0,16,42.67Z"/><path class="a" d="M4.33,42.67a6,6,0,0,1,.08-1.1,1.79,1.79,0,0,1,1.86-1.42,1.7,1.7,0,0,1,1.9,1.36,6,6,0,0,1,.05,1.24A4.78,4.78,0,0,1,8.15,44a1.73,1.73,0,0,1-1.8,1.28,1.83,1.83,0,0,1-2-1.19A5.65,5.65,0,0,1,4.33,42.67Z"/><path class="a" d="M31.44,42.67a6,6,0,0,1,.09-1.1,1.78,1.78,0,0,1,1.85-1.42,1.7,1.7,0,0,1,1.91,1.36,6,6,0,0,1,0,1.24A4.37,4.37,0,0,1,35.27,44a1.73,1.73,0,0,1-1.81,1.28,1.81,1.81,0,0,1-1.95-1.19A5.63,5.63,0,0,1,31.44,42.67Z"/><path class="a" d="M35.34,42.67a6,6,0,0,1,.08-1.1,1.78,1.78,0,0,1,1.85-1.42,1.7,1.7,0,0,1,1.91,1.36,6,6,0,0,1,0,1.24A4.37,4.37,0,0,1,39.16,44a1.73,1.73,0,0,1-1.81,1.28,1.81,1.81,0,0,1-2-1.19A5.65,5.65,0,0,1,35.34,42.67Z"/><path class="b" d="M19.86,49.36a5.26,5.26,0,0,0-.09-1.1,1.77,1.77,0,0,0-1.85-1.42A1.7,1.7,0,0,0,16,48.21a5.91,5.91,0,0,0,0,1.24,4.29,4.29,0,0,0,.07,1.2,1.7,1.7,0,0,0,1.8,1.28,1.87,1.87,0,0,0,1.94-1.29A4.82,4.82,0,0,0,19.86,49.36Z"/><path class="b" d="M27.57,49.36a6.1,6.1,0,0,0-.08-1.1,1.79,1.79,0,0,0-1.86-1.42,1.7,1.7,0,0,0-1.9,1.37,5.91,5.91,0,0,0-.05,1.24,4.7,4.7,0,0,0,.07,1.2,1.71,1.71,0,0,0,1.8,1.28,1.87,1.87,0,0,0,1.94-1.29A4.82,4.82,0,0,0,27.57,49.36Z"/><path class="b" d="M31.46,49.36a6.1,6.1,0,0,0-.08-1.1,1.78,1.78,0,0,0-1.85-1.42,1.7,1.7,0,0,0-1.91,1.37,5.36,5.36,0,0,0,0,1.24,4.3,4.3,0,0,0,.06,1.2,1.71,1.71,0,0,0,1.8,1.28,1.86,1.86,0,0,0,1.94-1.29A4.82,4.82,0,0,0,31.46,49.36Z"/><path class="b" d="M19.82,49.36a6.1,6.1,0,0,1,.08-1.1,1.79,1.79,0,0,1,1.86-1.42,1.7,1.7,0,0,1,1.9,1.37,5.91,5.91,0,0,1,.05,1.24,4.7,4.7,0,0,1-.07,1.2,1.71,1.71,0,0,1-1.8,1.28,1.8,1.8,0,0,1-1.95-1.18A5.74,5.74,0,0,1,19.82,49.36Z"/><path class="b" d="M4.37,49.36a6,6,0,0,0-.09-1.1,1.78,1.78,0,0,0-1.85-1.42,1.68,1.68,0,0,0-1.9,1.37,5.3,5.3,0,0,0-.05,1.24,4.3,4.3,0,0,0,.06,1.2,1.72,1.72,0,0,0,1.81,1.28,1.85,1.85,0,0,0,1.93-1.29A4.8,4.8,0,0,0,4.37,49.36Z"/><path class="b" d="M12.08,49.36a6.1,6.1,0,0,0-.08-1.1,1.79,1.79,0,0,0-1.86-1.42,1.7,1.7,0,0,0-1.9,1.37,5.91,5.91,0,0,0-.05,1.24,4.7,4.7,0,0,0,.07,1.2,1.71,1.71,0,0,0,1.8,1.28A1.87,1.87,0,0,0,12,50.64,4.82,4.82,0,0,0,12.08,49.36Z"/><path class="b" d="M16,49.36a6.1,6.1,0,0,0-.08-1.1A1.79,1.79,0,0,0,14,46.84a1.7,1.7,0,0,0-1.9,1.37,5.91,5.91,0,0,0-.05,1.24,4.7,4.7,0,0,0,.07,1.2A1.71,1.71,0,0,0,14,51.93a1.87,1.87,0,0,0,1.94-1.29A4.82,4.82,0,0,0,16,49.36Z"/><path class="b" d="M4.33,49.36a6.1,6.1,0,0,1,.08-1.1,1.79,1.79,0,0,1,1.86-1.42,1.7,1.7,0,0,1,1.9,1.37,5.91,5.91,0,0,1,.05,1.24,4.7,4.7,0,0,1-.07,1.2,1.71,1.71,0,0,1-1.8,1.28,1.82,1.82,0,0,1-2-1.18A5.75,5.75,0,0,1,4.33,49.36Z"/><path class="b" d="M31.44,49.36a6,6,0,0,1,.09-1.1,1.78,1.78,0,0,1,1.85-1.42,1.7,1.7,0,0,1,1.91,1.37,6,6,0,0,1,0,1.24,4.3,4.3,0,0,1-.06,1.2,1.71,1.71,0,0,1-1.81,1.28,1.81,1.81,0,0,1-1.95-1.18A5.74,5.74,0,0,1,31.44,49.36Z"/><path class="b" d="M35.34,49.36a6.1,6.1,0,0,1,.08-1.1,1.78,1.78,0,0,1,1.85-1.42,1.7,1.7,0,0,1,1.91,1.37,6,6,0,0,1,0,1.24,4.3,4.3,0,0,1-.06,1.2,1.71,1.71,0,0,1-1.81,1.28,1.81,1.81,0,0,1-2-1.18A5.75,5.75,0,0,1,35.34,49.36Z"/><path class="c" d="M19.86,56.05A5.11,5.11,0,0,0,19.77,55a1.78,1.78,0,0,0-1.85-1.43A1.7,1.7,0,0,0,16,54.9a5.91,5.91,0,0,0,0,1.24A4.36,4.36,0,0,0,16,57.35a1.7,1.7,0,0,0,1.8,1.27,1.87,1.87,0,0,0,1.94-1.29A4.82,4.82,0,0,0,19.86,56.05Z"/><path class="c" d="M27.57,56.05A5.92,5.92,0,0,0,27.49,55a1.79,1.79,0,0,0-1.86-1.43,1.7,1.7,0,0,0-1.9,1.37,5.91,5.91,0,0,0-.05,1.24,4.78,4.78,0,0,0,.07,1.21,1.71,1.71,0,0,0,1.8,1.27,1.87,1.87,0,0,0,1.94-1.29A4.82,4.82,0,0,0,27.57,56.05Z"/><path class="c" d="M31.46,56.05A5.92,5.92,0,0,0,31.38,55a1.79,1.79,0,0,0-1.85-1.43,1.7,1.7,0,0,0-1.91,1.37,5.36,5.36,0,0,0,0,1.24,4.37,4.37,0,0,0,.06,1.21,1.71,1.71,0,0,0,1.8,1.27,1.86,1.86,0,0,0,1.94-1.29A4.82,4.82,0,0,0,31.46,56.05Z"/><path class="c" d="M19.82,56.05A5.92,5.92,0,0,1,19.9,55a1.79,1.79,0,0,1,1.86-1.43,1.7,1.7,0,0,1,1.9,1.37,5.91,5.91,0,0,1,.05,1.24,4.78,4.78,0,0,1-.07,1.21,1.71,1.71,0,0,1-1.8,1.27,1.8,1.8,0,0,1-1.95-1.18A5.74,5.74,0,0,1,19.82,56.05Z"/><path class="c" d="M4.37,56.05A5.85,5.85,0,0,0,4.28,55a1.78,1.78,0,0,0-1.85-1.43A1.68,1.68,0,0,0,.53,54.9a5.3,5.3,0,0,0-.05,1.24,4.37,4.37,0,0,0,.06,1.21,1.72,1.72,0,0,0,1.81,1.27,1.85,1.85,0,0,0,1.93-1.29A4.8,4.8,0,0,0,4.37,56.05Z"/><path class="c" d="M12.08,56.05A5.92,5.92,0,0,0,12,55a1.79,1.79,0,0,0-1.86-1.43,1.7,1.7,0,0,0-1.9,1.37,5.91,5.91,0,0,0-.05,1.24,4.78,4.78,0,0,0,.07,1.21,1.71,1.71,0,0,0,1.8,1.27A1.87,1.87,0,0,0,12,57.33,4.82,4.82,0,0,0,12.08,56.05Z"/><path class="c" d="M16,56.05A5.92,5.92,0,0,0,15.89,55,1.79,1.79,0,0,0,14,53.53a1.7,1.7,0,0,0-1.9,1.37,5.91,5.91,0,0,0-.05,1.24,4.78,4.78,0,0,0,.07,1.21A1.71,1.71,0,0,0,14,58.62a1.87,1.87,0,0,0,1.94-1.29A4.82,4.82,0,0,0,16,56.05Z"/><path class="c" d="M4.33,56.05A5.92,5.92,0,0,1,4.41,55a1.79,1.79,0,0,1,1.86-1.43,1.7,1.7,0,0,1,1.9,1.37,5.91,5.91,0,0,1,.05,1.24,4.78,4.78,0,0,1-.07,1.21,1.71,1.71,0,0,1-1.8,1.27,1.82,1.82,0,0,1-2-1.18A5.75,5.75,0,0,1,4.33,56.05Z"/><path class="c" d="M31.44,56.05A5.85,5.85,0,0,1,31.53,55a1.78,1.78,0,0,1,1.85-1.43,1.7,1.7,0,0,1,1.91,1.37,6,6,0,0,1,0,1.24,4.37,4.37,0,0,1-.06,1.21,1.71,1.71,0,0,1-1.81,1.27,1.81,1.81,0,0,1-1.95-1.18A5.74,5.74,0,0,1,31.44,56.05Z"/><path class="c" d="M35.34,56.05A5.92,5.92,0,0,1,35.42,55a1.78,1.78,0,0,1,1.85-1.43,1.7,1.7,0,0,1,1.91,1.37,6,6,0,0,1,0,1.24,4.37,4.37,0,0,1-.06,1.21,1.71,1.71,0,0,1-1.81,1.27,1.81,1.81,0,0,1-2-1.18A5.75,5.75,0,0,1,35.34,56.05Z"/><path class="d" d="M19.86,62.74a5.11,5.11,0,0,0-.09-1.09,1.77,1.77,0,0,0-1.85-1.42A1.69,1.69,0,0,0,16,61.59a5.94,5.94,0,0,0,0,1.24A4.36,4.36,0,0,0,16,64a1.72,1.72,0,0,0,1.8,1.28A1.88,1.88,0,0,0,19.78,64,4.89,4.89,0,0,0,19.86,62.74Z"/><path class="d" d="M27.57,62.74a5.92,5.92,0,0,0-.08-1.09,1.79,1.79,0,0,0-1.86-1.42,1.69,1.69,0,0,0-1.9,1.36,5.94,5.94,0,0,0-.05,1.24A4.78,4.78,0,0,0,23.75,64a1.73,1.73,0,0,0,1.8,1.28A1.88,1.88,0,0,0,27.49,64,4.89,4.89,0,0,0,27.57,62.74Z"/><path class="d" d="M31.46,62.74a5.92,5.92,0,0,0-.08-1.09,1.78,1.78,0,0,0-1.85-1.42,1.69,1.69,0,0,0-1.91,1.36,5.39,5.39,0,0,0,0,1.24A4.37,4.37,0,0,0,27.64,64a1.73,1.73,0,0,0,1.8,1.28A1.87,1.87,0,0,0,31.38,64,4.89,4.89,0,0,0,31.46,62.74Z"/><path class="d" d="M19.82,62.74a5.92,5.92,0,0,1,.08-1.09,1.79,1.79,0,0,1,1.86-1.42,1.69,1.69,0,0,1,1.9,1.36,5.94,5.94,0,0,1,.05,1.24A4.78,4.78,0,0,1,23.64,64a1.73,1.73,0,0,1-1.8,1.28,1.82,1.82,0,0,1-1.95-1.19A5.68,5.68,0,0,1,19.82,62.74Z"/><path class="d" d="M4.37,62.74a5.85,5.85,0,0,0-.09-1.09,1.78,1.78,0,0,0-1.85-1.42,1.68,1.68,0,0,0-1.9,1.36,5.33,5.33,0,0,0-.05,1.24A4.37,4.37,0,0,0,.54,64a1.74,1.74,0,0,0,1.81,1.28A1.86,1.86,0,0,0,4.28,64,4.88,4.88,0,0,0,4.37,62.74Z"/><path class="d" d="M12.08,62.74A5.92,5.92,0,0,0,12,61.65a1.79,1.79,0,0,0-1.86-1.42,1.69,1.69,0,0,0-1.9,1.36,5.94,5.94,0,0,0-.05,1.24A4.78,4.78,0,0,0,8.26,64a1.73,1.73,0,0,0,1.8,1.28A1.88,1.88,0,0,0,12,64,4.89,4.89,0,0,0,12.08,62.74Z"/><path class="d" d="M16,62.74a5.92,5.92,0,0,0-.08-1.09A1.79,1.79,0,0,0,14,60.23a1.69,1.69,0,0,0-1.9,1.36,5.94,5.94,0,0,0-.05,1.24A4.78,4.78,0,0,0,12.15,64,1.73,1.73,0,0,0,14,65.32,1.88,1.88,0,0,0,15.89,64,4.89,4.89,0,0,0,16,62.74Z"/><path class="d" d="M4.33,62.74a5.92,5.92,0,0,1,.08-1.09,1.79,1.79,0,0,1,1.86-1.42,1.69,1.69,0,0,1,1.9,1.36,5.94,5.94,0,0,1,.05,1.24A4.78,4.78,0,0,1,8.15,64a1.73,1.73,0,0,1-1.8,1.28,1.84,1.84,0,0,1-2-1.19A5.7,5.7,0,0,1,4.33,62.74Z"/><path class="d" d="M31.44,62.74a5.85,5.85,0,0,1,.09-1.09,1.78,1.78,0,0,1,1.85-1.42,1.69,1.69,0,0,1,1.91,1.36,6,6,0,0,1,0,1.24A4.37,4.37,0,0,1,35.27,64a1.73,1.73,0,0,1-1.81,1.28,1.83,1.83,0,0,1-1.95-1.19A5.68,5.68,0,0,1,31.44,62.74Z"/><path class="d" d="M35.34,62.74a5.92,5.92,0,0,1,.08-1.09,1.78,1.78,0,0,1,1.85-1.42,1.69,1.69,0,0,1,1.91,1.36,6,6,0,0,1,0,1.24A4.37,4.37,0,0,1,39.16,64a1.73,1.73,0,0,1-1.81,1.28,1.83,1.83,0,0,1-2-1.19A5.7,5.7,0,0,1,35.34,62.74Z"/><path class="d" d="M19.86,29.28a5.11,5.11,0,0,0-.09-1.09,1.77,1.77,0,0,0-1.85-1.42A1.69,1.69,0,0,0,16,28.13a5.94,5.94,0,0,0,0,1.24A4.36,4.36,0,0,0,16,30.58a1.72,1.72,0,0,0,1.8,1.28,1.88,1.88,0,0,0,1.94-1.29A4.89,4.89,0,0,0,19.86,29.28Z"/><path class="d" d="M27.57,29.28a5.92,5.92,0,0,0-.08-1.09,1.79,1.79,0,0,0-1.86-1.42,1.69,1.69,0,0,0-1.9,1.36,5.94,5.94,0,0,0-.05,1.24,4.78,4.78,0,0,0,.07,1.21,1.73,1.73,0,0,0,1.8,1.28,1.88,1.88,0,0,0,1.94-1.29A4.89,4.89,0,0,0,27.57,29.28Z"/><path class="d" d="M31.46,29.28a5.92,5.92,0,0,0-.08-1.09,1.78,1.78,0,0,0-1.85-1.42,1.69,1.69,0,0,0-1.91,1.36,5.39,5.39,0,0,0,0,1.24,4.37,4.37,0,0,0,.06,1.21,1.73,1.73,0,0,0,1.8,1.28,1.87,1.87,0,0,0,1.94-1.29A4.89,4.89,0,0,0,31.46,29.28Z"/><path class="d" d="M19.82,29.28a5.92,5.92,0,0,1,.08-1.09,1.79,1.79,0,0,1,1.86-1.42,1.69,1.69,0,0,1,1.9,1.36,5.94,5.94,0,0,1,.05,1.24,4.78,4.78,0,0,1-.07,1.21,1.73,1.73,0,0,1-1.8,1.28,1.82,1.82,0,0,1-1.95-1.19A5.68,5.68,0,0,1,19.82,29.28Z"/><path class="d" d="M4.37,29.28a5.85,5.85,0,0,0-.09-1.09,1.78,1.78,0,0,0-1.85-1.42,1.68,1.68,0,0,0-1.9,1.36,5.33,5.33,0,0,0-.05,1.24,4.37,4.37,0,0,0,.06,1.21,1.74,1.74,0,0,0,1.81,1.28,1.86,1.86,0,0,0,1.93-1.29A4.88,4.88,0,0,0,4.37,29.28Z"/><path class="d" d="M12.08,29.28A5.92,5.92,0,0,0,12,28.19a1.79,1.79,0,0,0-1.86-1.42,1.69,1.69,0,0,0-1.9,1.36,5.94,5.94,0,0,0-.05,1.24,4.78,4.78,0,0,0,.07,1.21,1.73,1.73,0,0,0,1.8,1.28A1.88,1.88,0,0,0,12,30.57,4.89,4.89,0,0,0,12.08,29.28Z"/><path class="d" d="M16,29.28a5.92,5.92,0,0,0-.08-1.09A1.79,1.79,0,0,0,14,26.77a1.69,1.69,0,0,0-1.9,1.36,5.94,5.94,0,0,0-.05,1.24,4.78,4.78,0,0,0,.07,1.21A1.73,1.73,0,0,0,14,31.86a1.88,1.88,0,0,0,1.94-1.29A4.89,4.89,0,0,0,16,29.28Z"/><path class="d" d="M4.33,29.28a5.92,5.92,0,0,1,.08-1.09,1.79,1.79,0,0,1,1.86-1.42,1.69,1.69,0,0,1,1.9,1.36,5.94,5.94,0,0,1,.05,1.24,4.78,4.78,0,0,1-.07,1.21,1.73,1.73,0,0,1-1.8,1.28,1.84,1.84,0,0,1-2-1.19A5.7,5.7,0,0,1,4.33,29.28Z"/><path class="d" d="M31.49,29.28a5.85,5.85,0,0,1,.09-1.09,1.78,1.78,0,0,1,1.85-1.42,1.68,1.68,0,0,1,1.9,1.36,5.33,5.33,0,0,1,.05,1.24,4.8,4.8,0,0,1-.06,1.21,1.74,1.74,0,0,1-1.81,1.28,1.82,1.82,0,0,1-1.95-1.19A5.68,5.68,0,0,1,31.49,29.28Z"/><path class="d" d="M45.7,29.28a5.92,5.92,0,0,1,.08-1.09,1.79,1.79,0,0,1,1.86-1.42,1.69,1.69,0,0,1,1.9,1.36,5.94,5.94,0,0,1,.05,1.24,4.78,4.78,0,0,1-.07,1.21,1.73,1.73,0,0,1-1.8,1.28,1.82,1.82,0,0,1-1.95-1.19A5.68,5.68,0,0,1,45.7,29.28Z"/><path class="c" d="M19.39,22.59a5.11,5.11,0,0,0-.09-1.09,1.77,1.77,0,0,0-1.85-1.42,1.69,1.69,0,0,0-1.9,1.36,5.91,5.91,0,0,0-.05,1.24,4.36,4.36,0,0,0,.07,1.21,1.72,1.72,0,0,0,1.8,1.28,1.89,1.89,0,0,0,1.94-1.3A4.82,4.82,0,0,0,19.39,22.59Z"/><path class="c" d="M27.1,22.59A5.92,5.92,0,0,0,27,21.5a1.79,1.79,0,0,0-1.86-1.42,1.69,1.69,0,0,0-1.9,1.36,5.91,5.91,0,0,0-.05,1.24,4.78,4.78,0,0,0,.07,1.21,1.73,1.73,0,0,0,1.8,1.28A1.88,1.88,0,0,0,27,23.87,4.82,4.82,0,0,0,27.1,22.59Z"/><path class="c" d="M31,22.59a5.92,5.92,0,0,0-.08-1.09,1.78,1.78,0,0,0-1.85-1.42,1.69,1.69,0,0,0-1.91,1.36,5.36,5.36,0,0,0,0,1.24,4.37,4.37,0,0,0,.06,1.21A1.73,1.73,0,0,0,29,25.17a1.88,1.88,0,0,0,1.94-1.3A4.82,4.82,0,0,0,31,22.59Z"/><path class="c" d="M19.35,22.59a5.92,5.92,0,0,1,.08-1.09,1.79,1.79,0,0,1,1.86-1.42,1.69,1.69,0,0,1,1.9,1.36,5.91,5.91,0,0,1,0,1.24,4.78,4.78,0,0,1-.07,1.21,1.73,1.73,0,0,1-1.8,1.28A1.82,1.82,0,0,1,19.42,24,5.71,5.71,0,0,1,19.35,22.59Z"/><path class="c" d="M3.9,22.59a5.85,5.85,0,0,0-.09-1.09A1.78,1.78,0,0,0,2,20.08a1.68,1.68,0,0,0-1.9,1.36,5.3,5.3,0,0,0,0,1.24,4.37,4.37,0,0,0,.06,1.21,1.74,1.74,0,0,0,1.81,1.28,1.87,1.87,0,0,0,1.93-1.3A4.8,4.8,0,0,0,3.9,22.59Z"/><path class="c" d="M11.61,22.59a5.92,5.92,0,0,0-.08-1.09,1.79,1.79,0,0,0-1.86-1.42,1.69,1.69,0,0,0-1.9,1.36,5.91,5.91,0,0,0,0,1.24,4.78,4.78,0,0,0,.07,1.21,1.73,1.73,0,0,0,1.8,1.28,1.89,1.89,0,0,0,1.94-1.3A4.82,4.82,0,0,0,11.61,22.59Z"/><path class="c" d="M15.5,22.59a5.92,5.92,0,0,0-.08-1.09,1.79,1.79,0,0,0-1.86-1.42,1.69,1.69,0,0,0-1.9,1.36,5.91,5.91,0,0,0-.05,1.24,4.78,4.78,0,0,0,.07,1.21,1.73,1.73,0,0,0,1.8,1.28,1.89,1.89,0,0,0,1.94-1.3A4.82,4.82,0,0,0,15.5,22.59Z"/><path class="c" d="M3.86,22.59a5.92,5.92,0,0,1,.08-1.09,1.78,1.78,0,0,1,1.85-1.42A1.69,1.69,0,0,1,7.7,21.44a5.91,5.91,0,0,1,0,1.24,4.78,4.78,0,0,1-.07,1.21,1.73,1.73,0,0,1-1.8,1.28,1.84,1.84,0,0,1-2-1.19A5.73,5.73,0,0,1,3.86,22.59Z"/><path class="c" d="M31,22.59a5.85,5.85,0,0,1,.09-1.09A1.77,1.77,0,0,1,33,20.08a1.68,1.68,0,0,1,1.9,1.36,5.91,5.91,0,0,1,0,1.24,4.8,4.8,0,0,1-.06,1.21A1.74,1.74,0,0,1,33,25.17,1.82,1.82,0,0,1,31.09,24,5.71,5.71,0,0,1,31,22.59Z"/><path class="c" d="M49.07,22.59a5.92,5.92,0,0,1,.08-1.09A1.79,1.79,0,0,1,51,20.08a1.69,1.69,0,0,1,1.9,1.36A5.91,5.91,0,0,1,53,22.68a4.78,4.78,0,0,1-.07,1.21,1.73,1.73,0,0,1-1.8,1.28,1.82,1.82,0,0,1-2-1.19A5.71,5.71,0,0,1,49.07,22.59Z"/><path class="b" d="M19.86,15.9a5.11,5.11,0,0,0-.09-1.09,1.77,1.77,0,0,0-1.85-1.43A1.7,1.7,0,0,0,16,14.75,5.91,5.91,0,0,0,16,16a4.29,4.29,0,0,0,.07,1.2,1.7,1.7,0,0,0,1.8,1.28,1.87,1.87,0,0,0,1.94-1.29A4.82,4.82,0,0,0,19.86,15.9Z"/><path class="b" d="M27.57,15.9a5.92,5.92,0,0,0-.08-1.09,1.78,1.78,0,0,0-1.86-1.43,1.7,1.7,0,0,0-1.9,1.37A5.91,5.91,0,0,0,23.68,16a4.7,4.7,0,0,0,.07,1.2,1.71,1.71,0,0,0,1.8,1.28,1.87,1.87,0,0,0,1.94-1.29A4.82,4.82,0,0,0,27.57,15.9Z"/><path class="b" d="M31.46,15.9a5.92,5.92,0,0,0-.08-1.09,1.78,1.78,0,0,0-1.85-1.43,1.7,1.7,0,0,0-1.91,1.37,5.36,5.36,0,0,0,0,1.24,4.3,4.3,0,0,0,.06,1.2,1.71,1.71,0,0,0,1.8,1.28,1.86,1.86,0,0,0,1.94-1.29A4.82,4.82,0,0,0,31.46,15.9Z"/><path class="b" d="M19.82,15.9a5.92,5.92,0,0,1,.08-1.09,1.78,1.78,0,0,1,1.86-1.43,1.7,1.7,0,0,1,1.9,1.37A5.91,5.91,0,0,1,23.71,16a4.7,4.7,0,0,1-.07,1.2,1.71,1.71,0,0,1-1.8,1.28,1.8,1.8,0,0,1-1.95-1.18A5.74,5.74,0,0,1,19.82,15.9Z"/><path class="b" d="M4.37,15.9a5.85,5.85,0,0,0-.09-1.09,1.77,1.77,0,0,0-1.85-1.43,1.68,1.68,0,0,0-1.9,1.37A5.3,5.3,0,0,0,.48,16a4.3,4.3,0,0,0,.06,1.2,1.72,1.72,0,0,0,1.81,1.28,1.85,1.85,0,0,0,1.93-1.29A4.8,4.8,0,0,0,4.37,15.9Z"/><path class="b" d="M12.08,15.9A5.92,5.92,0,0,0,12,14.81a1.78,1.78,0,0,0-1.86-1.43,1.7,1.7,0,0,0-1.9,1.37A5.91,5.91,0,0,0,8.19,16a4.7,4.7,0,0,0,.07,1.2,1.71,1.71,0,0,0,1.8,1.28A1.87,1.87,0,0,0,12,17.18,4.82,4.82,0,0,0,12.08,15.9Z"/><path class="b" d="M16,15.9a5.92,5.92,0,0,0-.08-1.09A1.78,1.78,0,0,0,14,13.38a1.7,1.7,0,0,0-1.9,1.37A5.91,5.91,0,0,0,12.08,16a4.7,4.7,0,0,0,.07,1.2A1.71,1.71,0,0,0,14,18.47a1.87,1.87,0,0,0,1.94-1.29A4.82,4.82,0,0,0,16,15.9Z"/><path class="b" d="M4.33,15.9a5.92,5.92,0,0,1,.08-1.09,1.78,1.78,0,0,1,1.86-1.43,1.7,1.7,0,0,1,1.9,1.37A5.91,5.91,0,0,1,8.22,16a4.7,4.7,0,0,1-.07,1.2,1.71,1.71,0,0,1-1.8,1.28,1.82,1.82,0,0,1-2-1.18A5.75,5.75,0,0,1,4.33,15.9Z"/><path class="b" d="M31.49,15.9a5.85,5.85,0,0,1,.09-1.09,1.77,1.77,0,0,1,1.85-1.43,1.68,1.68,0,0,1,1.9,1.37A5.3,5.3,0,0,1,35.38,16a4.72,4.72,0,0,1-.06,1.2,1.72,1.72,0,0,1-1.81,1.28,1.8,1.8,0,0,1-1.95-1.18A5.74,5.74,0,0,1,31.49,15.9Z"/><path class="b" d="M50.26,15.9a5.85,5.85,0,0,1,.09-1.09,1.77,1.77,0,0,1,1.85-1.43,1.68,1.68,0,0,1,1.9,1.37,5.3,5.3,0,0,1,0,1.24,4.3,4.3,0,0,1-.06,1.2,1.72,1.72,0,0,1-1.81,1.28,1.81,1.81,0,0,1-2-1.18A5.74,5.74,0,0,1,50.26,15.9Z"/><path class="a" d="M19.86,9.21a5.26,5.26,0,0,0-.09-1.1,1.77,1.77,0,0,0-1.85-1.42A1.7,1.7,0,0,0,16,8.05,6,6,0,0,0,16,9.3,4.31,4.31,0,0,0,16,10.5a1.71,1.71,0,0,0,1.8,1.28,1.87,1.87,0,0,0,1.94-1.29A4.82,4.82,0,0,0,19.86,9.21Z"/><path class="a" d="M27.57,9.21a6.1,6.1,0,0,0-.08-1.1,1.79,1.79,0,0,0-1.86-1.42,1.7,1.7,0,0,0-1.9,1.36,6,6,0,0,0-.05,1.25,4.73,4.73,0,0,0,.07,1.2,1.72,1.72,0,0,0,1.8,1.28,1.87,1.87,0,0,0,1.94-1.29A4.82,4.82,0,0,0,27.57,9.21Z"/><path class="a" d="M31.46,9.21a6.1,6.1,0,0,0-.08-1.1,1.78,1.78,0,0,0-1.85-1.42,1.7,1.7,0,0,0-1.91,1.36,5.48,5.48,0,0,0,0,1.25,4.32,4.32,0,0,0,.06,1.2,1.72,1.72,0,0,0,1.8,1.28,1.86,1.86,0,0,0,1.94-1.29A4.82,4.82,0,0,0,31.46,9.21Z"/><path class="a" d="M19.82,9.21a6.1,6.1,0,0,1,.08-1.1,1.79,1.79,0,0,1,1.86-1.42,1.7,1.7,0,0,1,1.9,1.36,6,6,0,0,1,.05,1.25,4.73,4.73,0,0,1-.07,1.2,1.72,1.72,0,0,1-1.8,1.28,1.81,1.81,0,0,1-1.95-1.19A5.63,5.63,0,0,1,19.82,9.21Z"/><path class="a" d="M4.37,9.21a6,6,0,0,0-.09-1.1A1.78,1.78,0,0,0,2.43,6.69,1.68,1.68,0,0,0,.53,8.05,5.41,5.41,0,0,0,.48,9.3a4.32,4.32,0,0,0,.06,1.2,1.73,1.73,0,0,0,1.81,1.28,1.85,1.85,0,0,0,1.93-1.29A4.8,4.8,0,0,0,4.37,9.21Z"/><path class="a" d="M12.08,9.21A6.1,6.1,0,0,0,12,8.11a1.79,1.79,0,0,0-1.86-1.42,1.7,1.7,0,0,0-1.9,1.36A6,6,0,0,0,8.19,9.3a4.73,4.73,0,0,0,.07,1.2,1.72,1.72,0,0,0,1.8,1.28A1.87,1.87,0,0,0,12,10.49,4.82,4.82,0,0,0,12.08,9.21Z"/><path class="a" d="M16,9.21a6.1,6.1,0,0,0-.08-1.1A1.79,1.79,0,0,0,14,6.69a1.7,1.7,0,0,0-1.9,1.36,6,6,0,0,0-.05,1.25,4.73,4.73,0,0,0,.07,1.2A1.72,1.72,0,0,0,14,11.78a1.87,1.87,0,0,0,1.94-1.29A4.82,4.82,0,0,0,16,9.21Z"/><path class="a" d="M4.33,9.21a6.1,6.1,0,0,1,.08-1.1A1.79,1.79,0,0,1,6.27,6.69a1.7,1.7,0,0,1,1.9,1.36A6,6,0,0,1,8.22,9.3a4.73,4.73,0,0,1-.07,1.2,1.72,1.72,0,0,1-1.8,1.28,1.83,1.83,0,0,1-2-1.19A5.65,5.65,0,0,1,4.33,9.21Z"/><path class="a" d="M31.49,9.21a6,6,0,0,1,.09-1.1,1.78,1.78,0,0,1,1.85-1.42,1.68,1.68,0,0,1,1.9,1.36,5.41,5.41,0,0,1,.05,1.25,4.74,4.74,0,0,1-.06,1.2,1.73,1.73,0,0,1-1.81,1.28,1.81,1.81,0,0,1-1.95-1.19A5.63,5.63,0,0,1,31.49,9.21Z"/><path class="a" d="M47.05,9.21a6,6,0,0,1,.09-1.1A1.78,1.78,0,0,1,49,6.69a1.68,1.68,0,0,1,1.9,1.36,5.41,5.41,0,0,1,0,1.25,4.32,4.32,0,0,1-.06,1.2,1.73,1.73,0,0,1-1.81,1.28,1.81,1.81,0,0,1-2-1.19A5.63,5.63,0,0,1,47.05,9.21Z"/><path class="e" d="M4.37,2.52a6,6,0,0,0-.09-1.1A1.78,1.78,0,0,0,2.43,0,1.68,1.68,0,0,0,.53,1.36,5.35,5.35,0,0,0,.48,2.6,4.37,4.37,0,0,0,.54,3.81,1.74,1.74,0,0,0,2.35,5.09,1.85,1.85,0,0,0,4.28,3.8,4.8,4.8,0,0,0,4.37,2.52Z"/><path class="e" d="M12.08,2.52A6,6,0,0,0,12,1.42,1.79,1.79,0,0,0,10.14,0a1.7,1.7,0,0,0-1.9,1.36A6,6,0,0,0,8.19,2.6a4.78,4.78,0,0,0,.07,1.21,1.73,1.73,0,0,0,1.8,1.28A1.87,1.87,0,0,0,12,3.8,4.82,4.82,0,0,0,12.08,2.52Z"/><path class="e" d="M16,2.52a6,6,0,0,0-.08-1.1A1.79,1.79,0,0,0,14,0a1.7,1.7,0,0,0-1.9,1.36,6,6,0,0,0-.05,1.24,4.78,4.78,0,0,0,.07,1.21A1.73,1.73,0,0,0,14,5.09,1.87,1.87,0,0,0,15.89,3.8,4.82,4.82,0,0,0,16,2.52Z"/><path class="e" d="M4.33,2.52a6,6,0,0,1,.08-1.1A1.79,1.79,0,0,1,6.27,0a1.7,1.7,0,0,1,1.9,1.36A6,6,0,0,1,8.22,2.6a4.78,4.78,0,0,1-.07,1.21,1.73,1.73,0,0,1-1.8,1.28,1.83,1.83,0,0,1-2-1.19A5.65,5.65,0,0,1,4.33,2.52Z"/><path class="e" d="M16,2.52a6,6,0,0,1,.08-1.1A1.79,1.79,0,0,1,17.94,0a1.7,1.7,0,0,1,1.9,1.36,6,6,0,0,1,.05,1.24,4.36,4.36,0,0,1-.07,1.21A1.72,1.72,0,0,1,18,5.09,1.81,1.81,0,0,1,16.07,3.9,5.63,5.63,0,0,1,16,2.52Z"/><path class="e" d="M30.56,2.52a6,6,0,0,0-.08-1.1A1.79,1.79,0,0,0,28.62,0a1.7,1.7,0,0,0-1.9,1.36,6,6,0,0,0,0,1.24,4.78,4.78,0,0,0,.07,1.21,1.73,1.73,0,0,0,1.8,1.28A1.87,1.87,0,0,0,30.48,3.8,4.82,4.82,0,0,0,30.56,2.52Z"/><path class="e" d="M38.28,2.52a6,6,0,0,0-.09-1.1A1.78,1.78,0,0,0,36.34,0a1.68,1.68,0,0,0-1.9,1.36,5.35,5.35,0,0,0,0,1.24,4.37,4.37,0,0,0,.06,1.21,1.74,1.74,0,0,0,1.81,1.28A1.85,1.85,0,0,0,38.19,3.8,4.8,4.8,0,0,0,38.28,2.52Z"/><path class="e" d="M42.17,2.52a6,6,0,0,0-.09-1.1A1.78,1.78,0,0,0,40.23,0a1.68,1.68,0,0,0-1.9,1.36,5.35,5.35,0,0,0,0,1.24,4.37,4.37,0,0,0,.06,1.21,1.74,1.74,0,0,0,1.81,1.28A1.87,1.87,0,0,0,42.09,3.8,5.28,5.28,0,0,0,42.17,2.52Z"/><path class="e" d="M30.52,2.52a6,6,0,0,1,.09-1.1A1.78,1.78,0,0,1,32.46,0a1.68,1.68,0,0,1,1.9,1.36,5.35,5.35,0,0,1,0,1.24,4.37,4.37,0,0,1-.06,1.21,1.74,1.74,0,0,1-1.81,1.28A1.81,1.81,0,0,1,30.59,3.9,5.63,5.63,0,0,1,30.52,2.52Z"/><path class="e" d="M42.2,2.52a6,6,0,0,1,.08-1.1A1.78,1.78,0,0,1,44.13,0,1.7,1.7,0,0,1,46,1.36a5.41,5.41,0,0,1,0,1.24A4.37,4.37,0,0,1,46,3.81a1.73,1.73,0,0,1-1.8,1.28,1.82,1.82,0,0,1-2-1.19A5.65,5.65,0,0,1,42.2,2.52Z"/><path class="e" d="M4.37,36a5.89,5.89,0,0,0-.09-1.1,1.78,1.78,0,0,0-1.85-1.42,1.68,1.68,0,0,0-1.9,1.36,5.35,5.35,0,0,0-.05,1.24,4.37,4.37,0,0,0,.06,1.21,1.74,1.74,0,0,0,1.81,1.28,1.85,1.85,0,0,0,1.93-1.29A4.8,4.8,0,0,0,4.37,36Z"/><path class="e" d="M12.08,36a6,6,0,0,0-.08-1.1,1.79,1.79,0,0,0-1.86-1.42,1.69,1.69,0,0,0-1.9,1.36,6,6,0,0,0-.05,1.24,4.78,4.78,0,0,0,.07,1.21,1.73,1.73,0,0,0,1.8,1.28A1.87,1.87,0,0,0,12,37.26,4.82,4.82,0,0,0,12.08,36Z"/><path class="e" d="M16,36a6,6,0,0,0-.08-1.1A1.79,1.79,0,0,0,14,33.46a1.69,1.69,0,0,0-1.9,1.36,6,6,0,0,0-.05,1.24,4.78,4.78,0,0,0,.07,1.21A1.73,1.73,0,0,0,14,38.55a1.87,1.87,0,0,0,1.94-1.29A4.82,4.82,0,0,0,16,36Z"/><path class="e" d="M4.33,36a6,6,0,0,1,.08-1.1,1.79,1.79,0,0,1,1.86-1.42,1.69,1.69,0,0,1,1.9,1.36,6,6,0,0,1,.05,1.24,4.78,4.78,0,0,1-.07,1.21,1.73,1.73,0,0,1-1.8,1.28,1.83,1.83,0,0,1-2-1.19A5.65,5.65,0,0,1,4.33,36Z"/><path class="e" d="M16,36a6,6,0,0,1,.08-1.1,1.79,1.79,0,0,1,1.86-1.42,1.69,1.69,0,0,1,1.9,1.36,6,6,0,0,1,.05,1.24,4.36,4.36,0,0,1-.07,1.21A1.72,1.72,0,0,1,18,38.55a1.81,1.81,0,0,1-1.95-1.19A5.63,5.63,0,0,1,16,36Z"/><path class="e" d="M30.56,36a6,6,0,0,0-.08-1.1,1.79,1.79,0,0,0-1.86-1.42,1.69,1.69,0,0,0-1.9,1.36,6,6,0,0,0,0,1.24,4.78,4.78,0,0,0,.07,1.21,1.73,1.73,0,0,0,1.8,1.28,1.87,1.87,0,0,0,1.94-1.29A4.82,4.82,0,0,0,30.56,36Z"/><path class="e" d="M38.28,36a5.89,5.89,0,0,0-.09-1.1,1.78,1.78,0,0,0-1.85-1.42,1.68,1.68,0,0,0-1.9,1.36,5.35,5.35,0,0,0,0,1.24,4.37,4.37,0,0,0,.06,1.21,1.74,1.74,0,0,0,1.81,1.28,1.85,1.85,0,0,0,1.93-1.29A4.8,4.8,0,0,0,38.28,36Z"/><path class="e" d="M42.17,36a5.89,5.89,0,0,0-.09-1.1,1.78,1.78,0,0,0-1.85-1.42,1.68,1.68,0,0,0-1.9,1.36,5.35,5.35,0,0,0,0,1.24,4.37,4.37,0,0,0,.06,1.21,1.74,1.74,0,0,0,1.81,1.28,1.87,1.87,0,0,0,1.94-1.29A5.28,5.28,0,0,0,42.17,36Z"/><path class="e" d="M30.52,36a5.89,5.89,0,0,1,.09-1.1,1.78,1.78,0,0,1,1.85-1.42,1.68,1.68,0,0,1,1.9,1.36,5.35,5.35,0,0,1,0,1.24,4.37,4.37,0,0,1-.06,1.21,1.74,1.74,0,0,1-1.81,1.28,1.81,1.81,0,0,1-1.95-1.19A5.63,5.63,0,0,1,30.52,36Z"/><path class="e" d="M42.2,36a6,6,0,0,1,.08-1.1,1.78,1.78,0,0,1,1.85-1.42A1.69,1.69,0,0,1,46,34.82a5.41,5.41,0,0,1,0,1.24A4.37,4.37,0,0,1,46,37.27a1.73,1.73,0,0,1-1.8,1.28,1.82,1.82,0,0,1-2-1.19A5.65,5.65,0,0,1,42.2,36Z"/></svg>