<svg xmlns="http://www.w3.org/2000/svg" width="66.08" height="65.32" viewBox="0 0 66.08 65.32"><defs><style>.a{fill:#eb666a;}.b{fill:#fbf175;}.c{fill:#ffd69f;}.d{fill:#889bcf;}.e{fill:#86aca8;}</style></defs><title>Asset 92</title><path class="a" d="M19.35,9.21a6.1,6.1,0,0,1,.08-1.1,1.79,1.79,0,0,1,1.86-1.42,1.7,1.7,0,0,1,1.9,1.36,6,6,0,0,1,0,1.25,4.73,4.73,0,0,1-.07,1.2,1.72,1.72,0,0,1-1.8,1.28,1.81,1.81,0,0,1-1.95-1.19A5.63,5.63,0,0,1,19.35,9.21Z"/><path class="a" d="M42.84,9.21a6.1,6.1,0,0,1,.08-1.1,1.79,1.79,0,0,1,1.86-1.42,1.7,1.7,0,0,1,1.9,1.36,6,6,0,0,1,0,1.25,4.73,4.73,0,0,1-.07,1.2,1.72,1.72,0,0,1-1.8,1.28,1.81,1.81,0,0,1-2-1.19A5.63,5.63,0,0,1,42.84,9.21Z"/><path class="a" d="M58.26,9.21a6.1,6.1,0,0,0-.08-1.1,1.79,1.79,0,0,0-1.86-1.42,1.7,1.7,0,0,0-1.9,1.36,6,6,0,0,0-.05,1.25,4.73,4.73,0,0,0,.07,1.2,1.72,1.72,0,0,0,1.8,1.28,1.87,1.87,0,0,0,1.94-1.29A4.82,4.82,0,0,0,58.26,9.21Z"/><path class="a" d="M62.15,9.21a6.1,6.1,0,0,0-.08-1.1,1.79,1.79,0,0,0-1.86-1.42,1.7,1.7,0,0,0-1.9,1.36,6,6,0,0,0-.05,1.25,4.73,4.73,0,0,0,.07,1.2,1.72,1.72,0,0,0,1.8,1.28,1.87,1.87,0,0,0,1.94-1.29A4.82,4.82,0,0,0,62.15,9.21Z"/><path class="a" d="M50.51,9.21a6.1,6.1,0,0,1,.08-1.1,1.78,1.78,0,0,1,1.85-1.42,1.7,1.7,0,0,1,1.91,1.36,5.48,5.48,0,0,1,0,1.25,4.32,4.32,0,0,1-.06,1.2,1.72,1.72,0,0,1-1.8,1.28,1.82,1.82,0,0,1-2-1.19A5.65,5.65,0,0,1,50.51,9.21Z"/><path class="a" d="M62.18,9.21a6.1,6.1,0,0,1,.08-1.1,1.79,1.79,0,0,1,1.86-1.42A1.7,1.7,0,0,1,66,8.05a6,6,0,0,1,0,1.25A4.73,4.73,0,0,1,66,10.5a1.72,1.72,0,0,1-1.8,1.28,1.81,1.81,0,0,1-2-1.19A5.63,5.63,0,0,1,62.18,9.21Z"/><path class="a" d="M7.76,9.21a6.1,6.1,0,0,0-.08-1.1A1.79,1.79,0,0,0,5.82,6.69a1.7,1.7,0,0,0-1.9,1.36,6,6,0,0,0,0,1.25,4.73,4.73,0,0,0,.07,1.2,1.72,1.72,0,0,0,1.8,1.28,1.87,1.87,0,0,0,1.94-1.29A4.82,4.82,0,0,0,7.76,9.21Z"/><path class="a" d="M11.65,9.21a6.1,6.1,0,0,0-.08-1.1A1.79,1.79,0,0,0,9.71,6.69a1.7,1.7,0,0,0-1.9,1.36,6,6,0,0,0,0,1.25,4.73,4.73,0,0,0,.07,1.2,1.72,1.72,0,0,0,1.8,1.28,1.87,1.87,0,0,0,1.94-1.29A4.82,4.82,0,0,0,11.65,9.21Z"/><path class="a" d="M0,9.21a6.1,6.1,0,0,1,.08-1.1A1.79,1.79,0,0,1,2,6.69a1.7,1.7,0,0,1,1.9,1.36,6,6,0,0,1,0,1.25,4.73,4.73,0,0,1-.07,1.2A1.72,1.72,0,0,1,2,11.78,1.81,1.81,0,0,1,.08,10.59,5.63,5.63,0,0,1,0,9.21Z"/><path class="a" d="M11.68,9.21a5.26,5.26,0,0,1,.09-1.1,1.77,1.77,0,0,1,1.85-1.42,1.7,1.7,0,0,1,1.9,1.36,6,6,0,0,1,.05,1.25,4.31,4.31,0,0,1-.07,1.2,1.71,1.71,0,0,1-1.8,1.28,1.81,1.81,0,0,1-1.95-1.19A5.63,5.63,0,0,1,11.68,9.21Z"/><path class="b" d="M33,29.28a5.85,5.85,0,0,1,.09-1.09,1.78,1.78,0,0,1,1.85-1.42,1.68,1.68,0,0,1,1.9,1.36,5.33,5.33,0,0,1,0,1.24,4.37,4.37,0,0,1-.06,1.21A1.74,1.74,0,0,1,35,31.86a1.83,1.83,0,0,1-2-1.19A5.68,5.68,0,0,1,33,29.28Z"/><path class="b" d="M29.18,29.28a5.85,5.85,0,0,1,.09-1.09,1.78,1.78,0,0,1,1.85-1.42A1.69,1.69,0,0,1,33,28.13a6,6,0,0,1,0,1.24A4.37,4.37,0,0,1,33,30.58a1.74,1.74,0,0,1-1.81,1.28,1.83,1.83,0,0,1-1.95-1.19A5.68,5.68,0,0,1,29.18,29.28Z"/><path class="b" d="M58.26,29.28a5.92,5.92,0,0,0-.08-1.09,1.79,1.79,0,0,0-1.86-1.42,1.69,1.69,0,0,0-1.9,1.36,5.94,5.94,0,0,0-.05,1.24,4.78,4.78,0,0,0,.07,1.21,1.73,1.73,0,0,0,1.8,1.28,1.88,1.88,0,0,0,1.94-1.29A4.89,4.89,0,0,0,58.26,29.28Z"/><path class="b" d="M62.15,29.28a5.92,5.92,0,0,0-.08-1.09,1.79,1.79,0,0,0-1.86-1.42,1.69,1.69,0,0,0-1.9,1.36,5.94,5.94,0,0,0-.05,1.24,4.78,4.78,0,0,0,.07,1.21,1.73,1.73,0,0,0,1.8,1.28,1.88,1.88,0,0,0,1.94-1.29A4.89,4.89,0,0,0,62.15,29.28Z"/><path class="b" d="M50.51,29.28a5.92,5.92,0,0,1,.08-1.09,1.78,1.78,0,0,1,1.85-1.42,1.69,1.69,0,0,1,1.91,1.36,5.39,5.39,0,0,1,0,1.24,4.37,4.37,0,0,1-.06,1.21,1.73,1.73,0,0,1-1.8,1.28,1.83,1.83,0,0,1-2-1.19A5.7,5.7,0,0,1,50.51,29.28Z"/><path class="b" d="M62.18,29.28a5.92,5.92,0,0,1,.08-1.09,1.79,1.79,0,0,1,1.86-1.42A1.69,1.69,0,0,1,66,28.13a5.94,5.94,0,0,1,0,1.24A4.78,4.78,0,0,1,66,30.58a1.73,1.73,0,0,1-1.8,1.28,1.82,1.82,0,0,1-2-1.19A5.68,5.68,0,0,1,62.18,29.28Z"/><path class="b" d="M7.76,29.28a5.92,5.92,0,0,0-.08-1.09,1.79,1.79,0,0,0-1.86-1.42,1.69,1.69,0,0,0-1.9,1.36,5.94,5.94,0,0,0,0,1.24,4.78,4.78,0,0,0,.07,1.21,1.73,1.73,0,0,0,1.8,1.28,1.88,1.88,0,0,0,1.94-1.29A4.89,4.89,0,0,0,7.76,29.28Z"/><path class="b" d="M11.65,29.28a5.92,5.92,0,0,0-.08-1.09,1.79,1.79,0,0,0-1.86-1.42,1.69,1.69,0,0,0-1.9,1.36,5.94,5.94,0,0,0,0,1.24,4.78,4.78,0,0,0,.07,1.21,1.73,1.73,0,0,0,1.8,1.28,1.88,1.88,0,0,0,1.94-1.29A4.89,4.89,0,0,0,11.65,29.28Z"/><path class="b" d="M0,29.28a5.92,5.92,0,0,1,.08-1.09A1.79,1.79,0,0,1,2,26.77a1.69,1.69,0,0,1,1.9,1.36,5.94,5.94,0,0,1,0,1.24,4.78,4.78,0,0,1-.07,1.21A1.73,1.73,0,0,1,2,31.86,1.82,1.82,0,0,1,.08,30.67,5.68,5.68,0,0,1,0,29.28Z"/><path class="b" d="M11.68,29.28a5.11,5.11,0,0,1,.09-1.09,1.77,1.77,0,0,1,1.85-1.42,1.69,1.69,0,0,1,1.9,1.36,5.94,5.94,0,0,1,.05,1.24,4.36,4.36,0,0,1-.07,1.21,1.72,1.72,0,0,1-1.8,1.28,1.82,1.82,0,0,1-1.95-1.19A5.68,5.68,0,0,1,11.68,29.28Z"/><path class="c" d="M23.27,15.9a5.92,5.92,0,0,1,.08-1.09,1.78,1.78,0,0,1,1.86-1.43,1.7,1.7,0,0,1,1.9,1.37A5.91,5.91,0,0,1,27.16,16a4.7,4.7,0,0,1-.07,1.2,1.71,1.71,0,0,1-1.8,1.28,1.8,1.8,0,0,1-1.95-1.18A5.74,5.74,0,0,1,23.27,15.9Z"/><path class="c" d="M38.92,15.9A5.92,5.92,0,0,1,39,14.81a1.78,1.78,0,0,1,1.86-1.43,1.7,1.7,0,0,1,1.9,1.37A5.91,5.91,0,0,1,42.81,16a4.7,4.7,0,0,1-.07,1.2,1.71,1.71,0,0,1-1.8,1.28A1.8,1.8,0,0,1,39,17.29,5.74,5.74,0,0,1,38.92,15.9Z"/><path class="c" d="M58.26,15.9a5.92,5.92,0,0,0-.08-1.09,1.78,1.78,0,0,0-1.86-1.43,1.7,1.7,0,0,0-1.9,1.37A5.91,5.91,0,0,0,54.37,16a4.7,4.7,0,0,0,.07,1.2,1.71,1.71,0,0,0,1.8,1.28,1.87,1.87,0,0,0,1.94-1.29A4.82,4.82,0,0,0,58.26,15.9Z"/><path class="c" d="M62.15,15.9a5.92,5.92,0,0,0-.08-1.09,1.78,1.78,0,0,0-1.86-1.43,1.7,1.7,0,0,0-1.9,1.37A5.91,5.91,0,0,0,58.26,16a4.7,4.7,0,0,0,.07,1.2,1.71,1.71,0,0,0,1.8,1.28,1.87,1.87,0,0,0,1.94-1.29A4.82,4.82,0,0,0,62.15,15.9Z"/><path class="c" d="M50.51,15.9a5.92,5.92,0,0,1,.08-1.09,1.78,1.78,0,0,1,1.85-1.43,1.7,1.7,0,0,1,1.91,1.37,5.36,5.36,0,0,1,0,1.24,4.3,4.3,0,0,1-.06,1.2,1.71,1.71,0,0,1-1.8,1.28,1.81,1.81,0,0,1-2-1.18A5.75,5.75,0,0,1,50.51,15.9Z"/><path class="c" d="M62.18,15.9a5.92,5.92,0,0,1,.08-1.09,1.78,1.78,0,0,1,1.86-1.43A1.7,1.7,0,0,1,66,14.75a5.91,5.91,0,0,1,0,1.24,4.7,4.7,0,0,1-.07,1.2,1.71,1.71,0,0,1-1.8,1.28,1.8,1.8,0,0,1-2-1.18A5.74,5.74,0,0,1,62.18,15.9Z"/><path class="c" d="M7.76,15.9a5.92,5.92,0,0,0-.08-1.09,1.78,1.78,0,0,0-1.86-1.43,1.7,1.7,0,0,0-1.9,1.37,5.91,5.91,0,0,0,0,1.24,4.7,4.7,0,0,0,.07,1.2,1.71,1.71,0,0,0,1.8,1.28,1.87,1.87,0,0,0,1.94-1.29A4.82,4.82,0,0,0,7.76,15.9Z"/><path class="c" d="M11.65,15.9a5.92,5.92,0,0,0-.08-1.09,1.78,1.78,0,0,0-1.86-1.43,1.7,1.7,0,0,0-1.9,1.37,5.91,5.91,0,0,0,0,1.24,4.7,4.7,0,0,0,.07,1.2,1.71,1.71,0,0,0,1.8,1.28,1.87,1.87,0,0,0,1.94-1.29A4.82,4.82,0,0,0,11.65,15.9Z"/><path class="c" d="M0,15.9a5.92,5.92,0,0,1,.08-1.09A1.78,1.78,0,0,1,2,13.38a1.7,1.7,0,0,1,1.9,1.37A5.91,5.91,0,0,1,3.9,16a4.7,4.7,0,0,1-.07,1.2A1.71,1.71,0,0,1,2,18.47,1.8,1.8,0,0,1,.08,17.29,5.74,5.74,0,0,1,0,15.9Z"/><path class="c" d="M11.68,15.9a5.11,5.11,0,0,1,.09-1.09,1.77,1.77,0,0,1,1.85-1.43,1.7,1.7,0,0,1,1.9,1.37A5.91,5.91,0,0,1,15.57,16a4.29,4.29,0,0,1-.07,1.2,1.7,1.7,0,0,1-1.8,1.28,1.8,1.8,0,0,1-1.95-1.18A5.74,5.74,0,0,1,11.68,15.9Z"/><path class="d" d="M46.69,36a6,6,0,0,1,.08-1.1,1.79,1.79,0,0,1,1.86-1.42,1.69,1.69,0,0,1,1.9,1.36,6,6,0,0,1,0,1.24,4.78,4.78,0,0,1-.07,1.21,1.73,1.73,0,0,1-1.8,1.28,1.87,1.87,0,0,1-1.94-1.29A4.82,4.82,0,0,1,46.69,36Z"/><path class="d" d="M62.18,36a6,6,0,0,1,.08-1.1,1.79,1.79,0,0,1,1.86-1.42A1.69,1.69,0,0,1,66,34.82a6,6,0,0,1,0,1.24A4.78,4.78,0,0,1,66,37.27a1.73,1.73,0,0,1-1.8,1.28,1.87,1.87,0,0,1-1.94-1.29A4.82,4.82,0,0,1,62.18,36Z"/><path class="d" d="M54.47,36a6,6,0,0,1,.08-1.1,1.78,1.78,0,0,1,1.85-1.42,1.69,1.69,0,0,1,1.91,1.36,6,6,0,0,1,0,1.24,4.37,4.37,0,0,1-.06,1.21,1.73,1.73,0,0,1-1.8,1.28,1.86,1.86,0,0,1-1.94-1.29A4.82,4.82,0,0,1,54.47,36Z"/><path class="d" d="M50.57,36a5.89,5.89,0,0,1,.09-1.1,1.78,1.78,0,0,1,1.85-1.42,1.69,1.69,0,0,1,1.91,1.36,6,6,0,0,1,0,1.24,4.37,4.37,0,0,1-.06,1.21,1.73,1.73,0,0,1-1.81,1.28,1.85,1.85,0,0,1-1.93-1.29A4.8,4.8,0,0,1,50.57,36Z"/><path class="d" d="M62.22,36a6,6,0,0,0-.08-1.1,1.79,1.79,0,0,0-1.86-1.42,1.69,1.69,0,0,0-1.9,1.36,6,6,0,0,0-.05,1.24,4.36,4.36,0,0,0,.07,1.21,1.72,1.72,0,0,0,1.8,1.28,1.81,1.81,0,0,0,1.95-1.19A5.63,5.63,0,0,0,62.22,36Z"/><path class="d" d="M0,36a5.89,5.89,0,0,1,.09-1.1,1.78,1.78,0,0,1,1.85-1.42,1.68,1.68,0,0,1,1.9,1.36,5.35,5.35,0,0,1,.05,1.24,4.37,4.37,0,0,1-.06,1.21A1.74,1.74,0,0,1,2,38.55,1.85,1.85,0,0,1,.09,37.26,4.8,4.8,0,0,1,0,36Z"/><path class="d" d="M15.5,36a6,6,0,0,1,.08-1.1,1.78,1.78,0,0,1,1.85-1.42,1.69,1.69,0,0,1,1.91,1.36,6,6,0,0,1,0,1.24,4.37,4.37,0,0,1-.06,1.21,1.73,1.73,0,0,1-1.81,1.28,1.85,1.85,0,0,1-1.93-1.29A4.82,4.82,0,0,1,15.5,36Z"/><path class="d" d="M7.78,36a5.15,5.15,0,0,1,.09-1.1,1.77,1.77,0,0,1,1.85-1.42,1.69,1.69,0,0,1,1.9,1.36,6,6,0,0,1,.05,1.24,4.36,4.36,0,0,1-.07,1.21,1.72,1.72,0,0,1-1.8,1.28,1.87,1.87,0,0,1-1.94-1.29A4.82,4.82,0,0,1,7.78,36Z"/><path class="d" d="M3.89,36A6,6,0,0,1,4,34.88a1.79,1.79,0,0,1,1.86-1.42,1.69,1.69,0,0,1,1.9,1.36,6,6,0,0,1,0,1.24,4.78,4.78,0,0,1-.07,1.21,1.73,1.73,0,0,1-1.8,1.28A1.87,1.87,0,0,1,4,37.26,4.82,4.82,0,0,1,3.89,36Z"/><path class="d" d="M15.53,36a6,6,0,0,0-.08-1.1,1.78,1.78,0,0,0-1.85-1.42,1.69,1.69,0,0,0-1.91,1.36,6,6,0,0,0,0,1.24,4.37,4.37,0,0,0,.06,1.21,1.73,1.73,0,0,0,1.81,1.28,1.81,1.81,0,0,0,2-1.19A5.65,5.65,0,0,0,15.53,36Z"/><path class="d" d="M46.69,2.52a6,6,0,0,1,.08-1.1A1.79,1.79,0,0,1,48.63,0a1.7,1.7,0,0,1,1.9,1.36,6,6,0,0,1,0,1.24,4.78,4.78,0,0,1-.07,1.21,1.73,1.73,0,0,1-1.8,1.28A1.87,1.87,0,0,1,46.77,3.8,4.82,4.82,0,0,1,46.69,2.52Z"/><path class="d" d="M62.18,2.52a6,6,0,0,1,.08-1.1A1.79,1.79,0,0,1,64.12,0,1.7,1.7,0,0,1,66,1.36a6,6,0,0,1,0,1.24A4.78,4.78,0,0,1,66,3.81a1.73,1.73,0,0,1-1.8,1.28A1.87,1.87,0,0,1,62.26,3.8,4.82,4.82,0,0,1,62.18,2.52Z"/><path class="d" d="M54.47,2.52a6,6,0,0,1,.08-1.1A1.78,1.78,0,0,1,56.4,0a1.7,1.7,0,0,1,1.91,1.36,6,6,0,0,1,0,1.24,4.37,4.37,0,0,1-.06,1.21,1.73,1.73,0,0,1-1.8,1.28A1.86,1.86,0,0,1,54.55,3.8,4.82,4.82,0,0,1,54.47,2.52Z"/><path class="d" d="M50.57,2.52a6,6,0,0,1,.09-1.1A1.78,1.78,0,0,1,52.51,0a1.7,1.7,0,0,1,1.91,1.36,6,6,0,0,1,0,1.24,4.37,4.37,0,0,1-.06,1.21,1.73,1.73,0,0,1-1.81,1.28A1.85,1.85,0,0,1,50.66,3.8,4.8,4.8,0,0,1,50.57,2.52Z"/><path class="d" d="M62.22,2.52a6,6,0,0,0-.08-1.1A1.79,1.79,0,0,0,60.28,0a1.7,1.7,0,0,0-1.9,1.36,6,6,0,0,0-.05,1.24,4.36,4.36,0,0,0,.07,1.21,1.72,1.72,0,0,0,1.8,1.28A1.81,1.81,0,0,0,62.15,3.9,5.63,5.63,0,0,0,62.22,2.52Z"/><path class="d" d="M0,2.52a6,6,0,0,1,.09-1.1A1.78,1.78,0,0,1,1.94,0a1.68,1.68,0,0,1,1.9,1.36A5.35,5.35,0,0,1,3.89,2.6a4.37,4.37,0,0,1-.06,1.21A1.74,1.74,0,0,1,2,5.09,1.85,1.85,0,0,1,.09,3.8,4.8,4.8,0,0,1,0,2.52Z"/><path class="d" d="M15.5,2.52a6,6,0,0,1,.08-1.1A1.78,1.78,0,0,1,17.43,0a1.7,1.7,0,0,1,1.91,1.36,6,6,0,0,1,0,1.24,4.37,4.37,0,0,1-.06,1.21,1.73,1.73,0,0,1-1.81,1.28A1.85,1.85,0,0,1,15.58,3.8,4.82,4.82,0,0,1,15.5,2.52Z"/><path class="d" d="M7.78,2.52a5.2,5.2,0,0,1,.09-1.1A1.77,1.77,0,0,1,9.72,0a1.7,1.7,0,0,1,1.9,1.36,6,6,0,0,1,.05,1.24,4.36,4.36,0,0,1-.07,1.21A1.72,1.72,0,0,1,9.8,5.09,1.87,1.87,0,0,1,7.86,3.8,4.82,4.82,0,0,1,7.78,2.52Z"/><path class="d" d="M3.89,2.52A6,6,0,0,1,4,1.42,1.79,1.79,0,0,1,5.83,0a1.7,1.7,0,0,1,1.9,1.36,6,6,0,0,1,0,1.24,4.78,4.78,0,0,1-.07,1.21,1.73,1.73,0,0,1-1.8,1.28A1.87,1.87,0,0,1,4,3.8,4.82,4.82,0,0,1,3.89,2.52Z"/><path class="d" d="M15.53,2.52a6,6,0,0,0-.08-1.1A1.78,1.78,0,0,0,13.6,0a1.7,1.7,0,0,0-1.91,1.36,6,6,0,0,0,0,1.24,4.37,4.37,0,0,0,.06,1.21,1.73,1.73,0,0,0,1.81,1.28,1.81,1.81,0,0,0,2-1.19A5.65,5.65,0,0,0,15.53,2.52Z"/><path class="c" d="M3.9,49.36a6,6,0,0,0-.09-1.1A1.78,1.78,0,0,0,2,46.84a1.68,1.68,0,0,0-1.9,1.37,5.3,5.3,0,0,0,0,1.24,4.3,4.3,0,0,0,.06,1.2,1.72,1.72,0,0,0,1.81,1.28,1.85,1.85,0,0,0,1.93-1.29A4.8,4.8,0,0,0,3.9,49.36Z"/><path class="c" d="M11.61,49.36a6.1,6.1,0,0,0-.08-1.1,1.79,1.79,0,0,0-1.86-1.42,1.7,1.7,0,0,0-1.9,1.37,5.91,5.91,0,0,0,0,1.24,4.7,4.7,0,0,0,.07,1.2,1.71,1.71,0,0,0,1.8,1.28,1.87,1.87,0,0,0,1.94-1.29A4.82,4.82,0,0,0,11.61,49.36Z"/><path class="c" d="M15.5,49.36a6.1,6.1,0,0,0-.08-1.1,1.79,1.79,0,0,0-1.86-1.42,1.7,1.7,0,0,0-1.9,1.37,5.91,5.91,0,0,0-.05,1.24,4.7,4.7,0,0,0,.07,1.2,1.71,1.71,0,0,0,1.8,1.28,1.87,1.87,0,0,0,1.94-1.29A4.82,4.82,0,0,0,15.5,49.36Z"/><path class="c" d="M3.86,49.36a6.1,6.1,0,0,1,.08-1.1,1.78,1.78,0,0,1,1.85-1.42A1.7,1.7,0,0,1,7.7,48.21a5.91,5.91,0,0,1,0,1.24,4.7,4.7,0,0,1-.07,1.2,1.71,1.71,0,0,1-1.8,1.28,1.82,1.82,0,0,1-2-1.18A5.75,5.75,0,0,1,3.86,49.36Z"/><path class="c" d="M15.48,49.36a6,6,0,0,1,.09-1.1,1.77,1.77,0,0,1,1.85-1.42,1.7,1.7,0,0,1,1.9,1.37,5.91,5.91,0,0,1,.05,1.24,4.72,4.72,0,0,1-.06,1.2,1.72,1.72,0,0,1-1.81,1.28,1.8,1.8,0,0,1-1.95-1.18A5.74,5.74,0,0,1,15.48,49.36Z"/><path class="c" d="M50.59,49.36a6.1,6.1,0,0,0-.08-1.1,1.78,1.78,0,0,0-1.85-1.42,1.7,1.7,0,0,0-1.91,1.37,6,6,0,0,0,0,1.24,4.3,4.3,0,0,0,.06,1.2,1.71,1.71,0,0,0,1.81,1.28,1.85,1.85,0,0,0,1.93-1.29A4.82,4.82,0,0,0,50.59,49.36Z"/><path class="c" d="M58.31,49.36a6,6,0,0,0-.09-1.1,1.77,1.77,0,0,0-1.85-1.42,1.7,1.7,0,0,0-1.9,1.37,5.91,5.91,0,0,0,0,1.24,4.72,4.72,0,0,0,.06,1.2,1.72,1.72,0,0,0,1.81,1.28,1.87,1.87,0,0,0,1.94-1.29A4.82,4.82,0,0,0,58.31,49.36Z"/><path class="c" d="M62.2,49.36a6.1,6.1,0,0,0-.08-1.1,1.79,1.79,0,0,0-1.86-1.42,1.7,1.7,0,0,0-1.9,1.37,5.91,5.91,0,0,0,0,1.24,4.29,4.29,0,0,0,.07,1.2,1.7,1.7,0,0,0,1.8,1.28,1.87,1.87,0,0,0,1.94-1.29A4.82,4.82,0,0,0,62.2,49.36Z"/><path class="c" d="M50.55,49.36a6,6,0,0,1,.09-1.1,1.78,1.78,0,0,1,1.85-1.42,1.7,1.7,0,0,1,1.91,1.37,6,6,0,0,1,0,1.24,4.3,4.3,0,0,1-.06,1.2,1.71,1.71,0,0,1-1.81,1.28,1.81,1.81,0,0,1-2-1.18A5.74,5.74,0,0,1,50.55,49.36Z"/><path class="c" d="M62.18,49.36a6.1,6.1,0,0,1,.08-1.1,1.79,1.79,0,0,1,1.86-1.42A1.7,1.7,0,0,1,66,48.21a5.91,5.91,0,0,1,0,1.24,4.7,4.7,0,0,1-.07,1.2,1.71,1.71,0,0,1-1.8,1.28,1.8,1.8,0,0,1-2-1.18A5.74,5.74,0,0,1,62.18,49.36Z"/><path class="a" d="M3.9,42.67a6,6,0,0,0-.09-1.1A1.78,1.78,0,0,0,2,40.15a1.68,1.68,0,0,0-1.9,1.36,5.35,5.35,0,0,0,0,1.24A4.37,4.37,0,0,0,.07,44a1.74,1.74,0,0,0,1.81,1.28A1.85,1.85,0,0,0,3.81,44,4.8,4.8,0,0,0,3.9,42.67Z"/><path class="a" d="M11.61,42.67a6,6,0,0,0-.08-1.1,1.79,1.79,0,0,0-1.86-1.42,1.7,1.7,0,0,0-1.9,1.36,6,6,0,0,0,0,1.24A4.78,4.78,0,0,0,7.79,44a1.73,1.73,0,0,0,1.8,1.28A1.87,1.87,0,0,0,11.53,44,4.82,4.82,0,0,0,11.61,42.67Z"/><path class="a" d="M15.5,42.67a6,6,0,0,0-.08-1.1,1.79,1.79,0,0,0-1.86-1.42,1.7,1.7,0,0,0-1.9,1.36,6,6,0,0,0-.05,1.24A4.78,4.78,0,0,0,11.68,44a1.73,1.73,0,0,0,1.8,1.28A1.87,1.87,0,0,0,15.42,44,4.82,4.82,0,0,0,15.5,42.67Z"/><path class="a" d="M3.86,42.67a6,6,0,0,1,.08-1.1,1.78,1.78,0,0,1,1.85-1.42A1.7,1.7,0,0,1,7.7,41.51a6,6,0,0,1,0,1.24A4.78,4.78,0,0,1,7.68,44a1.73,1.73,0,0,1-1.8,1.28,1.83,1.83,0,0,1-2-1.19A5.65,5.65,0,0,1,3.86,42.67Z"/><path class="a" d="M15.53,42.67a6,6,0,0,1,.08-1.1,1.79,1.79,0,0,1,1.86-1.42,1.7,1.7,0,0,1,1.9,1.36,6,6,0,0,1,.05,1.24A4.78,4.78,0,0,1,19.35,44a1.73,1.73,0,0,1-1.8,1.28,1.81,1.81,0,0,1-2-1.19A5.63,5.63,0,0,1,15.53,42.67Z"/><path class="a" d="M50.55,42.67a6,6,0,0,0-.09-1.1,1.78,1.78,0,0,0-1.85-1.42,1.68,1.68,0,0,0-1.9,1.36,5.35,5.35,0,0,0-.05,1.24A4.37,4.37,0,0,0,46.72,44a1.74,1.74,0,0,0,1.81,1.28A1.85,1.85,0,0,0,50.46,44,4.8,4.8,0,0,0,50.55,42.67Z"/><path class="a" d="M58.26,42.67a6,6,0,0,0-.08-1.1,1.79,1.79,0,0,0-1.86-1.42,1.7,1.7,0,0,0-1.9,1.36,6,6,0,0,0-.05,1.24A4.78,4.78,0,0,0,54.44,44a1.73,1.73,0,0,0,1.8,1.28A1.87,1.87,0,0,0,58.18,44,4.82,4.82,0,0,0,58.26,42.67Z"/><path class="a" d="M62.15,42.67a6,6,0,0,0-.08-1.1,1.79,1.79,0,0,0-1.86-1.42,1.7,1.7,0,0,0-1.9,1.36,6,6,0,0,0-.05,1.24A4.78,4.78,0,0,0,58.33,44a1.73,1.73,0,0,0,1.8,1.28A1.87,1.87,0,0,0,62.07,44,4.82,4.82,0,0,0,62.15,42.67Z"/><path class="a" d="M50.51,42.67a6,6,0,0,1,.08-1.1,1.78,1.78,0,0,1,1.85-1.42,1.7,1.7,0,0,1,1.91,1.36,5.41,5.41,0,0,1,0,1.24A4.37,4.37,0,0,1,54.33,44a1.73,1.73,0,0,1-1.8,1.28,1.82,1.82,0,0,1-2-1.19A5.65,5.65,0,0,1,50.51,42.67Z"/><path class="a" d="M62.18,42.67a6,6,0,0,1,.08-1.1,1.79,1.79,0,0,1,1.86-1.42A1.7,1.7,0,0,1,66,41.51a6,6,0,0,1,0,1.24A4.78,4.78,0,0,1,66,44a1.73,1.73,0,0,1-1.8,1.28,1.81,1.81,0,0,1-2-1.19A5.63,5.63,0,0,1,62.18,42.67Z"/><path class="b" d="M50.55,62.74a5.85,5.85,0,0,0-.09-1.09,1.78,1.78,0,0,0-1.85-1.42,1.68,1.68,0,0,0-1.9,1.36,5.33,5.33,0,0,0-.05,1.24A4.37,4.37,0,0,0,46.72,64a1.74,1.74,0,0,0,1.81,1.28A1.86,1.86,0,0,0,50.46,64,4.88,4.88,0,0,0,50.55,62.74Z"/><path class="b" d="M58.26,62.74a5.92,5.92,0,0,0-.08-1.09,1.79,1.79,0,0,0-1.86-1.42,1.69,1.69,0,0,0-1.9,1.36,5.94,5.94,0,0,0-.05,1.24A4.78,4.78,0,0,0,54.44,64a1.73,1.73,0,0,0,1.8,1.28A1.88,1.88,0,0,0,58.18,64,4.89,4.89,0,0,0,58.26,62.74Z"/><path class="b" d="M62.15,62.74a5.92,5.92,0,0,0-.08-1.09,1.79,1.79,0,0,0-1.86-1.42,1.69,1.69,0,0,0-1.9,1.36,5.94,5.94,0,0,0-.05,1.24A4.78,4.78,0,0,0,58.33,64a1.73,1.73,0,0,0,1.8,1.28A1.88,1.88,0,0,0,62.07,64,4.89,4.89,0,0,0,62.15,62.74Z"/><path class="b" d="M50.51,62.74a5.92,5.92,0,0,1,.08-1.09,1.78,1.78,0,0,1,1.85-1.42,1.69,1.69,0,0,1,1.91,1.36,5.39,5.39,0,0,1,0,1.24A4.37,4.37,0,0,1,54.33,64a1.73,1.73,0,0,1-1.8,1.28,1.83,1.83,0,0,1-2-1.19A5.7,5.7,0,0,1,50.51,62.74Z"/><path class="b" d="M62.18,62.74a5.92,5.92,0,0,1,.08-1.09,1.79,1.79,0,0,1,1.86-1.42A1.69,1.69,0,0,1,66,61.59a5.94,5.94,0,0,1,0,1.24A4.78,4.78,0,0,1,66,64a1.73,1.73,0,0,1-1.8,1.28,1.82,1.82,0,0,1-2-1.19A5.68,5.68,0,0,1,62.18,62.74Z"/><path class="b" d="M3.9,62.74a5.85,5.85,0,0,0-.09-1.09A1.78,1.78,0,0,0,2,60.23a1.68,1.68,0,0,0-1.9,1.36,5.33,5.33,0,0,0,0,1.24A4.37,4.37,0,0,0,.07,64a1.74,1.74,0,0,0,1.81,1.28A1.86,1.86,0,0,0,3.81,64,4.88,4.88,0,0,0,3.9,62.74Z"/><path class="b" d="M11.61,62.74a5.92,5.92,0,0,0-.08-1.09,1.79,1.79,0,0,0-1.86-1.42,1.69,1.69,0,0,0-1.9,1.36,5.94,5.94,0,0,0,0,1.24A4.78,4.78,0,0,0,7.79,64a1.73,1.73,0,0,0,1.8,1.28A1.88,1.88,0,0,0,11.53,64,4.89,4.89,0,0,0,11.61,62.74Z"/><path class="b" d="M15.5,62.74a5.92,5.92,0,0,0-.08-1.09,1.79,1.79,0,0,0-1.86-1.42,1.69,1.69,0,0,0-1.9,1.36,5.94,5.94,0,0,0-.05,1.24A4.78,4.78,0,0,0,11.68,64a1.73,1.73,0,0,0,1.8,1.28A1.88,1.88,0,0,0,15.42,64,4.89,4.89,0,0,0,15.5,62.74Z"/><path class="b" d="M3.86,62.74a5.92,5.92,0,0,1,.08-1.09,1.78,1.78,0,0,1,1.85-1.42A1.69,1.69,0,0,1,7.7,61.59a5.94,5.94,0,0,1,0,1.24A4.78,4.78,0,0,1,7.68,64a1.73,1.73,0,0,1-1.8,1.28,1.84,1.84,0,0,1-2-1.19A5.7,5.7,0,0,1,3.86,62.74Z"/><path class="b" d="M15.53,62.74a5.92,5.92,0,0,1,.08-1.09,1.79,1.79,0,0,1,1.86-1.42,1.69,1.69,0,0,1,1.9,1.36,5.94,5.94,0,0,1,.05,1.24A4.78,4.78,0,0,1,19.35,64a1.73,1.73,0,0,1-1.8,1.28,1.82,1.82,0,0,1-2-1.19A5.68,5.68,0,0,1,15.53,62.74Z"/><path class="e" d="M3.9,56.05A5.85,5.85,0,0,0,3.81,55,1.78,1.78,0,0,0,2,53.53,1.68,1.68,0,0,0,.06,54.9a5.3,5.3,0,0,0,0,1.24,4.37,4.37,0,0,0,.06,1.21,1.72,1.72,0,0,0,1.81,1.27,1.85,1.85,0,0,0,1.93-1.29A4.8,4.8,0,0,0,3.9,56.05Z"/><path class="e" d="M11.61,56.05A5.92,5.92,0,0,0,11.53,55a1.79,1.79,0,0,0-1.86-1.43,1.7,1.7,0,0,0-1.9,1.37,5.91,5.91,0,0,0,0,1.24,4.78,4.78,0,0,0,.07,1.21,1.71,1.71,0,0,0,1.8,1.27,1.87,1.87,0,0,0,1.94-1.29A4.82,4.82,0,0,0,11.61,56.05Z"/><path class="e" d="M15.5,56.05A5.92,5.92,0,0,0,15.42,55a1.79,1.79,0,0,0-1.86-1.43,1.7,1.7,0,0,0-1.9,1.37,5.91,5.91,0,0,0-.05,1.24,4.78,4.78,0,0,0,.07,1.21,1.71,1.71,0,0,0,1.8,1.27,1.87,1.87,0,0,0,1.94-1.29A4.82,4.82,0,0,0,15.5,56.05Z"/><path class="e" d="M3.86,56.05A5.92,5.92,0,0,1,3.94,55a1.79,1.79,0,0,1,1.85-1.43A1.7,1.7,0,0,1,7.7,54.9a5.91,5.91,0,0,1,0,1.24,4.78,4.78,0,0,1-.07,1.21,1.71,1.71,0,0,1-1.8,1.27,1.82,1.82,0,0,1-2-1.18A5.75,5.75,0,0,1,3.86,56.05Z"/><path class="e" d="M15.53,56.05A5.92,5.92,0,0,1,15.61,55a1.79,1.79,0,0,1,1.86-1.43,1.7,1.7,0,0,1,1.9,1.37,5.91,5.91,0,0,1,.05,1.24,4.78,4.78,0,0,1-.07,1.21,1.71,1.71,0,0,1-1.8,1.27,1.8,1.8,0,0,1-2-1.18A5.74,5.74,0,0,1,15.53,56.05Z"/><path class="e" d="M50.55,56.05A5.85,5.85,0,0,0,50.46,55a1.78,1.78,0,0,0-1.85-1.43,1.68,1.68,0,0,0-1.9,1.37,5.3,5.3,0,0,0-.05,1.24,4.37,4.37,0,0,0,.06,1.21,1.72,1.72,0,0,0,1.81,1.27,1.85,1.85,0,0,0,1.93-1.29A4.8,4.8,0,0,0,50.55,56.05Z"/><path class="e" d="M58.26,56.05A5.92,5.92,0,0,0,58.18,55a1.79,1.79,0,0,0-1.86-1.43,1.7,1.7,0,0,0-1.9,1.37,5.91,5.91,0,0,0-.05,1.24,4.78,4.78,0,0,0,.07,1.21,1.71,1.71,0,0,0,1.8,1.27,1.87,1.87,0,0,0,1.94-1.29A4.82,4.82,0,0,0,58.26,56.05Z"/><path class="e" d="M62.15,56.05A5.92,5.92,0,0,0,62.07,55a1.79,1.79,0,0,0-1.86-1.43,1.7,1.7,0,0,0-1.9,1.37,5.91,5.91,0,0,0-.05,1.24,4.78,4.78,0,0,0,.07,1.21,1.71,1.71,0,0,0,1.8,1.27,1.87,1.87,0,0,0,1.94-1.29A4.82,4.82,0,0,0,62.15,56.05Z"/><path class="e" d="M50.51,56.05A5.92,5.92,0,0,1,50.59,55a1.79,1.79,0,0,1,1.85-1.43,1.7,1.7,0,0,1,1.91,1.37,5.36,5.36,0,0,1,0,1.24,4.37,4.37,0,0,1-.06,1.21,1.71,1.71,0,0,1-1.8,1.27,1.81,1.81,0,0,1-2-1.18A5.75,5.75,0,0,1,50.51,56.05Z"/><path class="e" d="M62.18,56.05A5.92,5.92,0,0,1,62.26,55a1.79,1.79,0,0,1,1.86-1.43A1.7,1.7,0,0,1,66,54.9a5.91,5.91,0,0,1,0,1.24A4.78,4.78,0,0,1,66,57.35a1.71,1.71,0,0,1-1.8,1.27,1.8,1.8,0,0,1-2-1.18A5.74,5.74,0,0,1,62.18,56.05Z"/><path class="e" d="M26.33,22.59a5.92,5.92,0,0,1,.08-1.09,1.79,1.79,0,0,1,1.86-1.42,1.69,1.69,0,0,1,1.9,1.36,5.91,5.91,0,0,1,0,1.24,4.78,4.78,0,0,1-.07,1.21,1.73,1.73,0,0,1-1.8,1.28,1.84,1.84,0,0,1-2-1.19A5.73,5.73,0,0,1,26.33,22.59Z"/><path class="e" d="M35.86,22.59a5.92,5.92,0,0,1,.08-1.09,1.79,1.79,0,0,1,1.86-1.42,1.69,1.69,0,0,1,1.9,1.36,5.91,5.91,0,0,1,0,1.24,4.36,4.36,0,0,1-.07,1.21,1.72,1.72,0,0,1-1.8,1.28,1.82,1.82,0,0,1-2-1.19A5.71,5.71,0,0,1,35.86,22.59Z"/><path class="e" d="M58.26,22.59a5.92,5.92,0,0,0-.08-1.09,1.79,1.79,0,0,0-1.86-1.42,1.69,1.69,0,0,0-1.9,1.36,5.91,5.91,0,0,0-.05,1.24,4.78,4.78,0,0,0,.07,1.21,1.73,1.73,0,0,0,1.8,1.28,1.89,1.89,0,0,0,1.94-1.3A4.82,4.82,0,0,0,58.26,22.59Z"/><path class="e" d="M62.15,22.59a5.92,5.92,0,0,0-.08-1.09,1.79,1.79,0,0,0-1.86-1.42,1.69,1.69,0,0,0-1.9,1.36,5.91,5.91,0,0,0-.05,1.24,4.78,4.78,0,0,0,.07,1.21,1.73,1.73,0,0,0,1.8,1.28,1.89,1.89,0,0,0,1.94-1.3A4.82,4.82,0,0,0,62.15,22.59Z"/><path class="e" d="M50.51,22.59a5.92,5.92,0,0,1,.08-1.09,1.78,1.78,0,0,1,1.85-1.42,1.69,1.69,0,0,1,1.91,1.36,5.36,5.36,0,0,1,0,1.24,4.37,4.37,0,0,1-.06,1.21,1.73,1.73,0,0,1-1.8,1.28,1.83,1.83,0,0,1-2-1.19A5.73,5.73,0,0,1,50.51,22.59Z"/><path class="e" d="M62.18,22.59a5.92,5.92,0,0,1,.08-1.09,1.79,1.79,0,0,1,1.86-1.42A1.69,1.69,0,0,1,66,21.44a5.91,5.91,0,0,1,0,1.24A4.78,4.78,0,0,1,66,23.89a1.73,1.73,0,0,1-1.8,1.28,1.82,1.82,0,0,1-2-1.19A5.71,5.71,0,0,1,62.18,22.59Z"/><path class="e" d="M7.76,22.59a5.92,5.92,0,0,0-.08-1.09,1.79,1.79,0,0,0-1.86-1.42,1.69,1.69,0,0,0-1.9,1.36,5.91,5.91,0,0,0,0,1.24,4.78,4.78,0,0,0,.07,1.21,1.73,1.73,0,0,0,1.8,1.28,1.89,1.89,0,0,0,1.94-1.3A4.82,4.82,0,0,0,7.76,22.59Z"/><path class="e" d="M11.65,22.59a5.92,5.92,0,0,0-.08-1.09,1.79,1.79,0,0,0-1.86-1.42,1.69,1.69,0,0,0-1.9,1.36,5.91,5.91,0,0,0,0,1.24,4.78,4.78,0,0,0,.07,1.21,1.73,1.73,0,0,0,1.8,1.28,1.88,1.88,0,0,0,1.94-1.3A4.82,4.82,0,0,0,11.65,22.59Z"/><path class="e" d="M0,22.59A5.92,5.92,0,0,1,.09,21.5,1.79,1.79,0,0,1,2,20.08a1.69,1.69,0,0,1,1.9,1.36,5.91,5.91,0,0,1,0,1.24,4.78,4.78,0,0,1-.07,1.21A1.73,1.73,0,0,1,2,25.17,1.82,1.82,0,0,1,.08,24,5.71,5.71,0,0,1,0,22.59Z"/><path class="e" d="M11.68,22.59a5.11,5.11,0,0,1,.09-1.09,1.77,1.77,0,0,1,1.85-1.42,1.69,1.69,0,0,1,1.9,1.36,5.91,5.91,0,0,1,.05,1.24,4.36,4.36,0,0,1-.07,1.21,1.72,1.72,0,0,1-1.8,1.28A1.82,1.82,0,0,1,11.75,24,5.71,5.71,0,0,1,11.68,22.59Z"/></svg>