<svg xmlns="http://www.w3.org/2000/svg" width="48.02" height="65.32" viewBox="0 0 48.02 65.32"><defs><style>.a{fill:#eb666a;}.b{fill:#ffd69f;}.c{fill:#86aca8;}.d{fill:#fbf175;}.e{fill:#889bcf;}</style></defs><title>Asset 89</title><path class="a" d="M24,9.21a6,6,0,0,0-.09-1.1,1.77,1.77,0,0,0-1.85-1.42,1.69,1.69,0,0,0-1.9,1.36,6,6,0,0,0-.05,1.25,4.74,4.74,0,0,0,.06,1.2A1.73,1.73,0,0,0,22,11.78a1.87,1.87,0,0,0,1.94-1.29A4.82,4.82,0,0,0,24,9.21Z"/><path class="a" d="M31.73,9.21a6.1,6.1,0,0,0-.08-1.1,1.79,1.79,0,0,0-1.86-1.42,1.7,1.7,0,0,0-1.9,1.36,6,6,0,0,0-.05,1.25,4.73,4.73,0,0,0,.07,1.2,1.72,1.72,0,0,0,1.8,1.28,1.87,1.87,0,0,0,1.94-1.29A4.82,4.82,0,0,0,31.73,9.21Z"/><path class="a" d="M35.62,9.21a6.1,6.1,0,0,0-.08-1.1,1.79,1.79,0,0,0-1.86-1.42,1.7,1.7,0,0,0-1.9,1.36,6,6,0,0,0-.05,1.25,4.73,4.73,0,0,0,.07,1.2,1.72,1.72,0,0,0,1.8,1.28,1.87,1.87,0,0,0,1.94-1.29A4.82,4.82,0,0,0,35.62,9.21Z"/><path class="a" d="M24,9.21a6.1,6.1,0,0,1,.08-1.1,1.79,1.79,0,0,1,1.86-1.42,1.7,1.7,0,0,1,1.9,1.36,6,6,0,0,1,.05,1.25,4.73,4.73,0,0,1-.07,1.2A1.72,1.72,0,0,1,26,11.78a1.81,1.81,0,0,1-1.95-1.19A5.63,5.63,0,0,1,24,9.21Z"/><path class="a" d="M8.53,9.21a6,6,0,0,0-.09-1.1A1.78,1.78,0,0,0,6.59,6.69,1.7,1.7,0,0,0,4.68,8.05a6.12,6.12,0,0,0,0,1.25,4.32,4.32,0,0,0,.06,1.2,1.72,1.72,0,0,0,1.81,1.28,1.85,1.85,0,0,0,1.93-1.29A4.8,4.8,0,0,0,8.53,9.21Z"/><path class="a" d="M16.24,9.21a6.1,6.1,0,0,0-.08-1.1A1.79,1.79,0,0,0,14.3,6.69a1.7,1.7,0,0,0-1.9,1.36,6,6,0,0,0-.05,1.25,4.31,4.31,0,0,0,.07,1.2,1.71,1.71,0,0,0,1.8,1.28,1.87,1.87,0,0,0,1.94-1.29A4.82,4.82,0,0,0,16.24,9.21Z"/><path class="a" d="M20.13,9.21a6.1,6.1,0,0,0-.08-1.1,1.79,1.79,0,0,0-1.86-1.42,1.7,1.7,0,0,0-1.9,1.36,6,6,0,0,0-.05,1.25,4.73,4.73,0,0,0,.07,1.2,1.72,1.72,0,0,0,1.8,1.28,1.87,1.87,0,0,0,1.94-1.29A4.82,4.82,0,0,0,20.13,9.21Z"/><path class="a" d="M8.49,9.21a6.1,6.1,0,0,1,.08-1.1,1.78,1.78,0,0,1,1.85-1.42,1.7,1.7,0,0,1,1.91,1.36,5.48,5.48,0,0,1,0,1.25,4.32,4.32,0,0,1-.06,1.2,1.72,1.72,0,0,1-1.8,1.28,1.82,1.82,0,0,1-2-1.19A5.65,5.65,0,0,1,8.49,9.21Z"/><path class="a" d="M35.6,9.21a6,6,0,0,1,.09-1.1,1.78,1.78,0,0,1,1.85-1.42,1.68,1.68,0,0,1,1.9,1.36,5.41,5.41,0,0,1,.05,1.25,4.32,4.32,0,0,1-.06,1.2,1.73,1.73,0,0,1-1.81,1.28,1.81,1.81,0,0,1-1.95-1.19A5.63,5.63,0,0,1,35.6,9.21Z"/><path class="a" d="M39.49,9.21a6,6,0,0,1,.09-1.1,1.78,1.78,0,0,1,1.85-1.42,1.7,1.7,0,0,1,1.91,1.36,6.12,6.12,0,0,1,0,1.25,4.32,4.32,0,0,1-.06,1.2,1.72,1.72,0,0,1-1.81,1.28,1.81,1.81,0,0,1-1.95-1.19A5.63,5.63,0,0,1,39.49,9.21Z"/><path class="b" d="M24,15.9a5.85,5.85,0,0,0-.09-1.09,1.77,1.77,0,0,0-1.85-1.43,1.69,1.69,0,0,0-1.9,1.37A5.91,5.91,0,0,0,20.13,16a4.72,4.72,0,0,0,.06,1.2A1.72,1.72,0,0,0,22,18.47a1.87,1.87,0,0,0,1.94-1.29A4.82,4.82,0,0,0,24,15.9Z"/><path class="b" d="M31.73,15.9a5.92,5.92,0,0,0-.08-1.09,1.78,1.78,0,0,0-1.86-1.43,1.7,1.7,0,0,0-1.9,1.37A5.91,5.91,0,0,0,27.84,16a4.7,4.7,0,0,0,.07,1.2,1.71,1.71,0,0,0,1.8,1.28,1.87,1.87,0,0,0,1.94-1.29A4.82,4.82,0,0,0,31.73,15.9Z"/><path class="b" d="M35.62,15.9a5.92,5.92,0,0,0-.08-1.09,1.78,1.78,0,0,0-1.86-1.43,1.7,1.7,0,0,0-1.9,1.37A5.91,5.91,0,0,0,31.73,16a4.7,4.7,0,0,0,.07,1.2,1.71,1.71,0,0,0,1.8,1.28,1.87,1.87,0,0,0,1.94-1.29A4.82,4.82,0,0,0,35.62,15.9Z"/><path class="b" d="M24,15.9a5.92,5.92,0,0,1,.08-1.09,1.78,1.78,0,0,1,1.86-1.43,1.7,1.7,0,0,1,1.9,1.37A5.91,5.91,0,0,1,27.87,16a4.7,4.7,0,0,1-.07,1.2A1.71,1.71,0,0,1,26,18.47a1.8,1.8,0,0,1-1.95-1.18A5.74,5.74,0,0,1,24,15.9Z"/><path class="b" d="M8.53,15.9a5.85,5.85,0,0,0-.09-1.09,1.77,1.77,0,0,0-1.85-1.43,1.7,1.7,0,0,0-1.91,1.37,6,6,0,0,0,0,1.24,4.3,4.3,0,0,0,.06,1.2,1.71,1.71,0,0,0,1.81,1.28,1.85,1.85,0,0,0,1.93-1.29A4.8,4.8,0,0,0,8.53,15.9Z"/><path class="b" d="M16.24,15.9a5.92,5.92,0,0,0-.08-1.09,1.78,1.78,0,0,0-1.86-1.43,1.7,1.7,0,0,0-1.9,1.37A5.91,5.91,0,0,0,12.35,16a4.29,4.29,0,0,0,.07,1.2,1.7,1.7,0,0,0,1.8,1.28,1.87,1.87,0,0,0,1.94-1.29A4.82,4.82,0,0,0,16.24,15.9Z"/><path class="b" d="M20.13,15.9a5.92,5.92,0,0,0-.08-1.09,1.78,1.78,0,0,0-1.86-1.43,1.7,1.7,0,0,0-1.9,1.37A5.91,5.91,0,0,0,16.24,16a4.7,4.7,0,0,0,.07,1.2,1.71,1.71,0,0,0,1.8,1.28,1.87,1.87,0,0,0,1.94-1.29A4.82,4.82,0,0,0,20.13,15.9Z"/><path class="b" d="M8.49,15.9a5.92,5.92,0,0,1,.08-1.09,1.78,1.78,0,0,1,1.85-1.43,1.7,1.7,0,0,1,1.91,1.37,5.36,5.36,0,0,1,0,1.24,4.3,4.3,0,0,1-.06,1.2,1.71,1.71,0,0,1-1.8,1.28,1.81,1.81,0,0,1-2-1.18A5.75,5.75,0,0,1,8.49,15.9Z"/><path class="b" d="M35.6,15.9a5.85,5.85,0,0,1,.09-1.09,1.77,1.77,0,0,1,1.85-1.43,1.68,1.68,0,0,1,1.9,1.37A5.3,5.3,0,0,1,39.49,16a4.3,4.3,0,0,1-.06,1.2,1.72,1.72,0,0,1-1.81,1.28,1.8,1.8,0,0,1-1.95-1.18A5.74,5.74,0,0,1,35.6,15.9Z"/><path class="b" d="M39.49,15.9a5.85,5.85,0,0,1,.09-1.09,1.77,1.77,0,0,1,1.85-1.43,1.7,1.7,0,0,1,1.91,1.37,6,6,0,0,1,0,1.24,4.3,4.3,0,0,1-.06,1.2,1.71,1.71,0,0,1-1.81,1.28,1.81,1.81,0,0,1-1.95-1.18A5.74,5.74,0,0,1,39.49,15.9Z"/><path class="c" d="M24,22.59a5.85,5.85,0,0,0-.09-1.09,1.77,1.77,0,0,0-1.85-1.42,1.68,1.68,0,0,0-1.9,1.36,5.91,5.91,0,0,0-.05,1.24,4.8,4.8,0,0,0,.06,1.21A1.74,1.74,0,0,0,22,25.17a1.89,1.89,0,0,0,1.94-1.3A4.82,4.82,0,0,0,24,22.59Z"/><path class="c" d="M31.73,22.59a5.92,5.92,0,0,0-.08-1.09,1.79,1.79,0,0,0-1.86-1.42,1.69,1.69,0,0,0-1.9,1.36,5.91,5.91,0,0,0-.05,1.24,4.78,4.78,0,0,0,.07,1.21,1.73,1.73,0,0,0,1.8,1.28,1.88,1.88,0,0,0,1.94-1.3A4.82,4.82,0,0,0,31.73,22.59Z"/><path class="c" d="M35.62,22.59a5.92,5.92,0,0,0-.08-1.09,1.79,1.79,0,0,0-1.86-1.42,1.69,1.69,0,0,0-1.9,1.36,5.91,5.91,0,0,0-.05,1.24,4.78,4.78,0,0,0,.07,1.21,1.73,1.73,0,0,0,1.8,1.28,1.88,1.88,0,0,0,1.94-1.3A4.82,4.82,0,0,0,35.62,22.59Z"/><path class="c" d="M24,22.59a5.92,5.92,0,0,1,.08-1.09,1.79,1.79,0,0,1,1.86-1.42,1.69,1.69,0,0,1,1.9,1.36,5.91,5.91,0,0,1,.05,1.24,4.78,4.78,0,0,1-.07,1.21A1.73,1.73,0,0,1,26,25.17,1.82,1.82,0,0,1,24.05,24,5.71,5.71,0,0,1,24,22.59Z"/><path class="c" d="M8.53,22.59a5.85,5.85,0,0,0-.09-1.09,1.78,1.78,0,0,0-1.85-1.42,1.69,1.69,0,0,0-1.91,1.36,6,6,0,0,0,0,1.24,4.37,4.37,0,0,0,.06,1.21,1.73,1.73,0,0,0,1.81,1.28,1.87,1.87,0,0,0,1.93-1.3A4.8,4.8,0,0,0,8.53,22.59Z"/><path class="c" d="M16.24,22.59a5.92,5.92,0,0,0-.08-1.09,1.79,1.79,0,0,0-1.86-1.42,1.69,1.69,0,0,0-1.9,1.36,5.91,5.91,0,0,0-.05,1.24,4.36,4.36,0,0,0,.07,1.21,1.72,1.72,0,0,0,1.8,1.28,1.89,1.89,0,0,0,1.94-1.3A4.82,4.82,0,0,0,16.24,22.59Z"/><path class="c" d="M20.13,22.59a5.92,5.92,0,0,0-.08-1.09,1.79,1.79,0,0,0-1.86-1.42,1.69,1.69,0,0,0-1.9,1.36,5.91,5.91,0,0,0-.05,1.24,4.78,4.78,0,0,0,.07,1.21,1.73,1.73,0,0,0,1.8,1.28,1.89,1.89,0,0,0,1.94-1.3A4.82,4.82,0,0,0,20.13,22.59Z"/><path class="c" d="M8.49,22.59a5.92,5.92,0,0,1,.08-1.09,1.78,1.78,0,0,1,1.85-1.42,1.69,1.69,0,0,1,1.91,1.36,5.36,5.36,0,0,1,0,1.24,4.37,4.37,0,0,1-.06,1.21,1.73,1.73,0,0,1-1.8,1.28,1.83,1.83,0,0,1-2-1.19A5.73,5.73,0,0,1,8.49,22.59Z"/><path class="c" d="M35.6,22.59a5.85,5.85,0,0,1,.09-1.09,1.78,1.78,0,0,1,1.85-1.42,1.68,1.68,0,0,1,1.9,1.36,5.3,5.3,0,0,1,.05,1.24,4.37,4.37,0,0,1-.06,1.21,1.74,1.74,0,0,1-1.81,1.28A1.82,1.82,0,0,1,35.67,24,5.71,5.71,0,0,1,35.6,22.59Z"/><path class="c" d="M39.49,22.59a5.85,5.85,0,0,1,.09-1.09,1.78,1.78,0,0,1,1.85-1.42,1.69,1.69,0,0,1,1.91,1.36,6,6,0,0,1,0,1.24,4.37,4.37,0,0,1-.06,1.21,1.73,1.73,0,0,1-1.81,1.28A1.83,1.83,0,0,1,39.56,24,5.71,5.71,0,0,1,39.49,22.59Z"/><path class="d" d="M24,29.28a5.85,5.85,0,0,0-.09-1.09,1.77,1.77,0,0,0-1.85-1.42,1.68,1.68,0,0,0-1.9,1.36,5.94,5.94,0,0,0-.05,1.24,4.8,4.8,0,0,0,.06,1.21A1.74,1.74,0,0,0,22,31.86a1.88,1.88,0,0,0,1.94-1.29A4.89,4.89,0,0,0,24,29.28Z"/><path class="d" d="M31.73,29.28a5.92,5.92,0,0,0-.08-1.09,1.79,1.79,0,0,0-1.86-1.42,1.69,1.69,0,0,0-1.9,1.36,5.94,5.94,0,0,0-.05,1.24,4.78,4.78,0,0,0,.07,1.21,1.73,1.73,0,0,0,1.8,1.28,1.88,1.88,0,0,0,1.94-1.29A4.89,4.89,0,0,0,31.73,29.28Z"/><path class="d" d="M35.62,29.28a5.92,5.92,0,0,0-.08-1.09,1.79,1.79,0,0,0-1.86-1.42,1.69,1.69,0,0,0-1.9,1.36,5.94,5.94,0,0,0-.05,1.24,4.78,4.78,0,0,0,.07,1.21,1.73,1.73,0,0,0,1.8,1.28,1.88,1.88,0,0,0,1.94-1.29A4.89,4.89,0,0,0,35.62,29.28Z"/><path class="d" d="M24,29.28a5.92,5.92,0,0,1,.08-1.09,1.79,1.79,0,0,1,1.86-1.42,1.69,1.69,0,0,1,1.9,1.36,5.94,5.94,0,0,1,.05,1.24,4.78,4.78,0,0,1-.07,1.21A1.73,1.73,0,0,1,26,31.86a1.82,1.82,0,0,1-1.95-1.19A5.68,5.68,0,0,1,24,29.28Z"/><path class="d" d="M8.53,29.28a5.85,5.85,0,0,0-.09-1.09,1.78,1.78,0,0,0-1.85-1.42,1.69,1.69,0,0,0-1.91,1.36,6,6,0,0,0,0,1.24,4.37,4.37,0,0,0,.06,1.21,1.73,1.73,0,0,0,1.81,1.28,1.86,1.86,0,0,0,1.93-1.29A4.88,4.88,0,0,0,8.53,29.28Z"/><path class="d" d="M16.24,29.28a5.92,5.92,0,0,0-.08-1.09,1.79,1.79,0,0,0-1.86-1.42,1.69,1.69,0,0,0-1.9,1.36,5.94,5.94,0,0,0-.05,1.24,4.36,4.36,0,0,0,.07,1.21,1.72,1.72,0,0,0,1.8,1.28,1.88,1.88,0,0,0,1.94-1.29A4.89,4.89,0,0,0,16.24,29.28Z"/><path class="d" d="M20.13,29.28a5.92,5.92,0,0,0-.08-1.09,1.79,1.79,0,0,0-1.86-1.42,1.69,1.69,0,0,0-1.9,1.36,5.94,5.94,0,0,0-.05,1.24,4.78,4.78,0,0,0,.07,1.21,1.73,1.73,0,0,0,1.8,1.28,1.88,1.88,0,0,0,1.94-1.29A4.89,4.89,0,0,0,20.13,29.28Z"/><path class="d" d="M8.49,29.28a5.92,5.92,0,0,1,.08-1.09,1.78,1.78,0,0,1,1.85-1.42,1.69,1.69,0,0,1,1.91,1.36,5.39,5.39,0,0,1,0,1.24,4.37,4.37,0,0,1-.06,1.21,1.73,1.73,0,0,1-1.8,1.28,1.83,1.83,0,0,1-2-1.19A5.7,5.7,0,0,1,8.49,29.28Z"/><path class="d" d="M35.6,29.28a5.85,5.85,0,0,1,.09-1.09,1.78,1.78,0,0,1,1.85-1.42,1.68,1.68,0,0,1,1.9,1.36,5.33,5.33,0,0,1,.05,1.24,4.37,4.37,0,0,1-.06,1.21,1.74,1.74,0,0,1-1.81,1.28,1.82,1.82,0,0,1-1.95-1.19A5.68,5.68,0,0,1,35.6,29.28Z"/><path class="d" d="M39.49,29.28a5.85,5.85,0,0,1,.09-1.09,1.78,1.78,0,0,1,1.85-1.42,1.69,1.69,0,0,1,1.91,1.36,6,6,0,0,1,0,1.24,4.37,4.37,0,0,1-.06,1.21,1.73,1.73,0,0,1-1.81,1.28,1.83,1.83,0,0,1-1.95-1.19A5.68,5.68,0,0,1,39.49,29.28Z"/><path class="e" d="M24,36a5.89,5.89,0,0,0-.09-1.1,1.77,1.77,0,0,0-1.85-1.42,1.68,1.68,0,0,0-1.9,1.36,6,6,0,0,0-.05,1.24,4.8,4.8,0,0,0,.06,1.21A1.74,1.74,0,0,0,22,38.55a1.87,1.87,0,0,0,1.94-1.29A4.82,4.82,0,0,0,24,36Z"/><path class="e" d="M31.73,36a6,6,0,0,0-.08-1.1,1.79,1.79,0,0,0-1.86-1.42,1.69,1.69,0,0,0-1.9,1.36,6,6,0,0,0-.05,1.24,4.78,4.78,0,0,0,.07,1.21,1.73,1.73,0,0,0,1.8,1.28,1.87,1.87,0,0,0,1.94-1.29A4.82,4.82,0,0,0,31.73,36Z"/><path class="e" d="M35.62,36a6,6,0,0,0-.08-1.1,1.79,1.79,0,0,0-1.86-1.42,1.69,1.69,0,0,0-1.9,1.36,6,6,0,0,0-.05,1.24,4.78,4.78,0,0,0,.07,1.21,1.73,1.73,0,0,0,1.8,1.28,1.87,1.87,0,0,0,1.94-1.29A4.82,4.82,0,0,0,35.62,36Z"/><path class="e" d="M24,36a6,6,0,0,1,.08-1.1,1.79,1.79,0,0,1,1.86-1.42,1.69,1.69,0,0,1,1.9,1.36,6,6,0,0,1,.05,1.24,4.78,4.78,0,0,1-.07,1.21A1.73,1.73,0,0,1,26,38.55a1.81,1.81,0,0,1-1.95-1.19A5.63,5.63,0,0,1,24,36Z"/><path class="e" d="M8.53,36a5.89,5.89,0,0,0-.09-1.1,1.78,1.78,0,0,0-1.85-1.42,1.69,1.69,0,0,0-1.91,1.36,6,6,0,0,0,0,1.24,4.37,4.37,0,0,0,.06,1.21,1.73,1.73,0,0,0,1.81,1.28,1.85,1.85,0,0,0,1.93-1.29A4.8,4.8,0,0,0,8.53,36Z"/><path class="e" d="M16.24,36a6,6,0,0,0-.08-1.1,1.79,1.79,0,0,0-1.86-1.42,1.69,1.69,0,0,0-1.9,1.36,6,6,0,0,0-.05,1.24,4.36,4.36,0,0,0,.07,1.21,1.72,1.72,0,0,0,1.8,1.28,1.87,1.87,0,0,0,1.94-1.29A4.82,4.82,0,0,0,16.24,36Z"/><path class="e" d="M20.13,36a6,6,0,0,0-.08-1.1,1.79,1.79,0,0,0-1.86-1.42,1.69,1.69,0,0,0-1.9,1.36,6,6,0,0,0-.05,1.24,4.78,4.78,0,0,0,.07,1.21,1.73,1.73,0,0,0,1.8,1.28,1.87,1.87,0,0,0,1.94-1.29A4.82,4.82,0,0,0,20.13,36Z"/><path class="e" d="M8.49,36a6,6,0,0,1,.08-1.1,1.78,1.78,0,0,1,1.85-1.42,1.69,1.69,0,0,1,1.91,1.36,5.41,5.41,0,0,1,0,1.24,4.37,4.37,0,0,1-.06,1.21,1.73,1.73,0,0,1-1.8,1.28,1.82,1.82,0,0,1-2-1.19A5.65,5.65,0,0,1,8.49,36Z"/><path class="e" d="M35.6,36a5.89,5.89,0,0,1,.09-1.1,1.78,1.78,0,0,1,1.85-1.42,1.68,1.68,0,0,1,1.9,1.36,5.35,5.35,0,0,1,.05,1.24,4.37,4.37,0,0,1-.06,1.21,1.74,1.74,0,0,1-1.81,1.28,1.81,1.81,0,0,1-1.95-1.19A5.63,5.63,0,0,1,35.6,36Z"/><path class="e" d="M39.49,36a5.89,5.89,0,0,1,.09-1.1,1.78,1.78,0,0,1,1.85-1.42,1.69,1.69,0,0,1,1.91,1.36,6,6,0,0,1,0,1.24,4.37,4.37,0,0,1-.06,1.21,1.73,1.73,0,0,1-1.81,1.28,1.81,1.81,0,0,1-1.95-1.19A5.63,5.63,0,0,1,39.49,36Z"/><path class="a" d="M24,42.67a6,6,0,0,0-.09-1.1,1.77,1.77,0,0,0-1.85-1.42,1.69,1.69,0,0,0-1.9,1.36,6,6,0,0,0-.05,1.24A4.8,4.8,0,0,0,20.19,44,1.74,1.74,0,0,0,22,45.24,1.87,1.87,0,0,0,23.94,44,4.82,4.82,0,0,0,24,42.67Z"/><path class="a" d="M31.73,42.67a6,6,0,0,0-.08-1.1,1.79,1.79,0,0,0-1.86-1.42,1.7,1.7,0,0,0-1.9,1.36,6,6,0,0,0-.05,1.24A4.78,4.78,0,0,0,27.91,44a1.73,1.73,0,0,0,1.8,1.28A1.87,1.87,0,0,0,31.65,44,4.82,4.82,0,0,0,31.73,42.67Z"/><path class="a" d="M35.62,42.67a6,6,0,0,0-.08-1.1,1.79,1.79,0,0,0-1.86-1.42,1.7,1.7,0,0,0-1.9,1.36,6,6,0,0,0-.05,1.24A4.78,4.78,0,0,0,31.8,44a1.73,1.73,0,0,0,1.8,1.28A1.87,1.87,0,0,0,35.54,44,4.82,4.82,0,0,0,35.62,42.67Z"/><path class="a" d="M24,42.67a6,6,0,0,1,.08-1.1,1.79,1.79,0,0,1,1.86-1.42,1.7,1.7,0,0,1,1.9,1.36,6,6,0,0,1,.05,1.24A4.78,4.78,0,0,1,27.8,44,1.73,1.73,0,0,1,26,45.24a1.81,1.81,0,0,1-1.95-1.19A5.63,5.63,0,0,1,24,42.67Z"/><path class="a" d="M8.53,42.67a6,6,0,0,0-.09-1.1,1.78,1.78,0,0,0-1.85-1.42,1.7,1.7,0,0,0-1.91,1.36,6,6,0,0,0,0,1.24A4.37,4.37,0,0,0,4.7,44a1.73,1.73,0,0,0,1.81,1.28A1.85,1.85,0,0,0,8.44,44,4.8,4.8,0,0,0,8.53,42.67Z"/><path class="a" d="M16.24,42.67a6,6,0,0,0-.08-1.1,1.79,1.79,0,0,0-1.86-1.42,1.7,1.7,0,0,0-1.9,1.36,6,6,0,0,0-.05,1.24A4.36,4.36,0,0,0,12.42,44a1.72,1.72,0,0,0,1.8,1.28A1.87,1.87,0,0,0,16.16,44,4.82,4.82,0,0,0,16.24,42.67Z"/><path class="a" d="M20.13,42.67a6,6,0,0,0-.08-1.1,1.79,1.79,0,0,0-1.86-1.42,1.7,1.7,0,0,0-1.9,1.36,6,6,0,0,0-.05,1.24A4.78,4.78,0,0,0,16.31,44a1.73,1.73,0,0,0,1.8,1.28A1.87,1.87,0,0,0,20.05,44,4.82,4.82,0,0,0,20.13,42.67Z"/><path class="a" d="M8.49,42.67a6,6,0,0,1,.08-1.1,1.78,1.78,0,0,1,1.85-1.42,1.7,1.7,0,0,1,1.91,1.36,5.41,5.41,0,0,1,0,1.24A4.37,4.37,0,0,1,12.31,44a1.73,1.73,0,0,1-1.8,1.28,1.82,1.82,0,0,1-2-1.19A5.65,5.65,0,0,1,8.49,42.67Z"/><path class="a" d="M35.6,42.67a6,6,0,0,1,.09-1.1,1.78,1.78,0,0,1,1.85-1.42,1.68,1.68,0,0,1,1.9,1.36,5.35,5.35,0,0,1,.05,1.24A4.37,4.37,0,0,1,39.43,44a1.74,1.74,0,0,1-1.81,1.28,1.81,1.81,0,0,1-1.95-1.19A5.63,5.63,0,0,1,35.6,42.67Z"/><path class="a" d="M39.49,42.67a6,6,0,0,1,.09-1.1,1.78,1.78,0,0,1,1.85-1.42,1.7,1.7,0,0,1,1.91,1.36,6,6,0,0,1,0,1.24A4.37,4.37,0,0,1,43.32,44a1.73,1.73,0,0,1-1.81,1.28,1.81,1.81,0,0,1-1.95-1.19A5.63,5.63,0,0,1,39.49,42.67Z"/><path class="b" d="M24,49.36a6,6,0,0,0-.09-1.1,1.77,1.77,0,0,0-1.85-1.42,1.69,1.69,0,0,0-1.9,1.37,5.91,5.91,0,0,0-.05,1.24,4.72,4.72,0,0,0,.06,1.2A1.72,1.72,0,0,0,22,51.93a1.87,1.87,0,0,0,1.94-1.29A4.82,4.82,0,0,0,24,49.36Z"/><path class="b" d="M31.73,49.36a6.1,6.1,0,0,0-.08-1.1,1.79,1.79,0,0,0-1.86-1.42,1.7,1.7,0,0,0-1.9,1.37,5.91,5.91,0,0,0-.05,1.24,4.7,4.7,0,0,0,.07,1.2,1.71,1.71,0,0,0,1.8,1.28,1.87,1.87,0,0,0,1.94-1.29A4.82,4.82,0,0,0,31.73,49.36Z"/><path class="b" d="M35.62,49.36a6.1,6.1,0,0,0-.08-1.1,1.79,1.79,0,0,0-1.86-1.42,1.7,1.7,0,0,0-1.9,1.37,5.91,5.91,0,0,0-.05,1.24,4.7,4.7,0,0,0,.07,1.2,1.71,1.71,0,0,0,1.8,1.28,1.87,1.87,0,0,0,1.94-1.29A4.82,4.82,0,0,0,35.62,49.36Z"/><path class="b" d="M24,49.36a6.1,6.1,0,0,1,.08-1.1,1.79,1.79,0,0,1,1.86-1.42,1.7,1.7,0,0,1,1.9,1.37,5.91,5.91,0,0,1,.05,1.24,4.7,4.7,0,0,1-.07,1.2A1.71,1.71,0,0,1,26,51.93a1.8,1.8,0,0,1-1.95-1.18A5.74,5.74,0,0,1,24,49.36Z"/><path class="b" d="M8.53,49.36a6,6,0,0,0-.09-1.1,1.78,1.78,0,0,0-1.85-1.42,1.7,1.7,0,0,0-1.91,1.37,6,6,0,0,0,0,1.24,4.3,4.3,0,0,0,.06,1.2,1.71,1.71,0,0,0,1.81,1.28,1.85,1.85,0,0,0,1.93-1.29A4.8,4.8,0,0,0,8.53,49.36Z"/><path class="b" d="M16.24,49.36a6.1,6.1,0,0,0-.08-1.1,1.79,1.79,0,0,0-1.86-1.42,1.7,1.7,0,0,0-1.9,1.37,5.91,5.91,0,0,0-.05,1.24,4.29,4.29,0,0,0,.07,1.2,1.7,1.7,0,0,0,1.8,1.28,1.87,1.87,0,0,0,1.94-1.29A4.82,4.82,0,0,0,16.24,49.36Z"/><path class="b" d="M20.13,49.36a6.1,6.1,0,0,0-.08-1.1,1.79,1.79,0,0,0-1.86-1.42,1.7,1.7,0,0,0-1.9,1.37,5.91,5.91,0,0,0-.05,1.24,4.7,4.7,0,0,0,.07,1.2,1.71,1.71,0,0,0,1.8,1.28,1.87,1.87,0,0,0,1.94-1.29A4.82,4.82,0,0,0,20.13,49.36Z"/><path class="b" d="M8.49,49.36a6.1,6.1,0,0,1,.08-1.1,1.78,1.78,0,0,1,1.85-1.42,1.7,1.7,0,0,1,1.91,1.37,5.36,5.36,0,0,1,0,1.24,4.3,4.3,0,0,1-.06,1.2,1.71,1.71,0,0,1-1.8,1.28,1.81,1.81,0,0,1-2-1.18A5.75,5.75,0,0,1,8.49,49.36Z"/><path class="b" d="M35.6,49.36a6,6,0,0,1,.09-1.1,1.78,1.78,0,0,1,1.85-1.42,1.68,1.68,0,0,1,1.9,1.37,5.3,5.3,0,0,1,.05,1.24,4.3,4.3,0,0,1-.06,1.2,1.72,1.72,0,0,1-1.81,1.28,1.8,1.8,0,0,1-1.95-1.18A5.74,5.74,0,0,1,35.6,49.36Z"/><path class="b" d="M39.49,49.36a6,6,0,0,1,.09-1.1,1.78,1.78,0,0,1,1.85-1.42,1.7,1.7,0,0,1,1.91,1.37,6,6,0,0,1,0,1.24,4.3,4.3,0,0,1-.06,1.2,1.71,1.71,0,0,1-1.81,1.28,1.81,1.81,0,0,1-1.95-1.18A5.74,5.74,0,0,1,39.49,49.36Z"/><path class="c" d="M24,56.05A5.85,5.85,0,0,0,23.93,55a1.78,1.78,0,0,0-1.85-1.43,1.69,1.69,0,0,0-1.9,1.37,5.91,5.91,0,0,0-.05,1.24,4.8,4.8,0,0,0,.06,1.21A1.72,1.72,0,0,0,22,58.62a1.87,1.87,0,0,0,1.94-1.29A4.82,4.82,0,0,0,24,56.05Z"/><path class="c" d="M31.73,56.05A5.92,5.92,0,0,0,31.65,55a1.79,1.79,0,0,0-1.86-1.43,1.7,1.7,0,0,0-1.9,1.37,5.91,5.91,0,0,0-.05,1.24,4.78,4.78,0,0,0,.07,1.21,1.71,1.71,0,0,0,1.8,1.27,1.87,1.87,0,0,0,1.94-1.29A4.82,4.82,0,0,0,31.73,56.05Z"/><path class="c" d="M35.62,56.05A5.92,5.92,0,0,0,35.54,55a1.79,1.79,0,0,0-1.86-1.43,1.7,1.7,0,0,0-1.9,1.37,5.91,5.91,0,0,0-.05,1.24,4.78,4.78,0,0,0,.07,1.21,1.71,1.71,0,0,0,1.8,1.27,1.87,1.87,0,0,0,1.94-1.29A4.82,4.82,0,0,0,35.62,56.05Z"/><path class="c" d="M24,56.05A5.92,5.92,0,0,1,24.06,55a1.79,1.79,0,0,1,1.86-1.43,1.7,1.7,0,0,1,1.9,1.37,5.91,5.91,0,0,1,.05,1.24,4.78,4.78,0,0,1-.07,1.21A1.71,1.71,0,0,1,26,58.62a1.8,1.8,0,0,1-1.95-1.18A5.74,5.74,0,0,1,24,56.05Z"/><path class="c" d="M8.53,56.05A5.85,5.85,0,0,0,8.44,55a1.78,1.78,0,0,0-1.85-1.43A1.7,1.7,0,0,0,4.68,54.9a6,6,0,0,0,0,1.24,4.37,4.37,0,0,0,.06,1.21,1.71,1.71,0,0,0,1.81,1.27,1.85,1.85,0,0,0,1.93-1.29A4.8,4.8,0,0,0,8.53,56.05Z"/><path class="c" d="M16.24,56.05A5.92,5.92,0,0,0,16.16,55a1.79,1.79,0,0,0-1.86-1.43,1.7,1.7,0,0,0-1.9,1.37,5.91,5.91,0,0,0-.05,1.24,4.36,4.36,0,0,0,.07,1.21,1.7,1.7,0,0,0,1.8,1.27,1.87,1.87,0,0,0,1.94-1.29A4.82,4.82,0,0,0,16.24,56.05Z"/><path class="c" d="M20.13,56.05A5.92,5.92,0,0,0,20.05,55a1.79,1.79,0,0,0-1.86-1.43,1.7,1.7,0,0,0-1.9,1.37,5.91,5.91,0,0,0-.05,1.24,4.78,4.78,0,0,0,.07,1.21,1.71,1.71,0,0,0,1.8,1.27,1.87,1.87,0,0,0,1.94-1.29A4.82,4.82,0,0,0,20.13,56.05Z"/><path class="c" d="M8.49,56.05A5.92,5.92,0,0,1,8.57,55a1.79,1.79,0,0,1,1.85-1.43,1.7,1.7,0,0,1,1.91,1.37,5.36,5.36,0,0,1,0,1.24,4.37,4.37,0,0,1-.06,1.21,1.71,1.71,0,0,1-1.8,1.27,1.81,1.81,0,0,1-2-1.18A5.75,5.75,0,0,1,8.49,56.05Z"/><path class="c" d="M35.6,56.05A5.85,5.85,0,0,1,35.69,55a1.78,1.78,0,0,1,1.85-1.43,1.68,1.68,0,0,1,1.9,1.37,5.3,5.3,0,0,1,.05,1.24,4.37,4.37,0,0,1-.06,1.21,1.72,1.72,0,0,1-1.81,1.27,1.8,1.8,0,0,1-1.95-1.18A5.74,5.74,0,0,1,35.6,56.05Z"/><path class="c" d="M39.49,56.05A5.85,5.85,0,0,1,39.58,55a1.78,1.78,0,0,1,1.85-1.43,1.7,1.7,0,0,1,1.91,1.37,6,6,0,0,1,0,1.24,4.37,4.37,0,0,1-.06,1.21,1.71,1.71,0,0,1-1.81,1.27,1.81,1.81,0,0,1-1.95-1.18A5.74,5.74,0,0,1,39.49,56.05Z"/><path class="d" d="M20.1,62.74A5.92,5.92,0,0,0,20,61.65a1.79,1.79,0,0,0-1.86-1.42,1.69,1.69,0,0,0-1.9,1.36,5.94,5.94,0,0,0-.05,1.24A4.78,4.78,0,0,0,16.28,64a1.73,1.73,0,0,0,1.8,1.28A1.88,1.88,0,0,0,20,64,4.89,4.89,0,0,0,20.1,62.74Z"/><path class="d" d="M27.81,62.74a5.92,5.92,0,0,0-.08-1.09,1.78,1.78,0,0,0-1.85-1.42A1.69,1.69,0,0,0,24,61.59a6,6,0,0,0,0,1.24A4.37,4.37,0,0,0,24,64a1.73,1.73,0,0,0,1.81,1.28A1.86,1.86,0,0,0,27.73,64,4.89,4.89,0,0,0,27.81,62.74Z"/><path class="d" d="M31.71,62.74a5.85,5.85,0,0,0-.09-1.09,1.78,1.78,0,0,0-1.85-1.42,1.68,1.68,0,0,0-1.9,1.36,5.33,5.33,0,0,0-.05,1.24A4.37,4.37,0,0,0,27.88,64a1.74,1.74,0,0,0,1.81,1.28A1.86,1.86,0,0,0,31.62,64,4.88,4.88,0,0,0,31.71,62.74Z"/><path class="d" d="M20.06,62.74a5.85,5.85,0,0,1,.09-1.09A1.77,1.77,0,0,1,22,60.23a1.69,1.69,0,0,1,1.9,1.36A5.94,5.94,0,0,1,24,62.83,4.8,4.8,0,0,1,23.89,64a1.74,1.74,0,0,1-1.81,1.28,1.82,1.82,0,0,1-1.95-1.19A5.68,5.68,0,0,1,20.06,62.74Z"/><path class="d" d="M16.21,62.74a5.92,5.92,0,0,0-.08-1.09,1.78,1.78,0,0,0-1.85-1.42,1.69,1.69,0,0,0-1.91,1.36,5.39,5.39,0,0,0,0,1.24A4.37,4.37,0,0,0,12.39,64a1.73,1.73,0,0,0,1.8,1.28A1.87,1.87,0,0,0,16.13,64,4.89,4.89,0,0,0,16.21,62.74Z"/><path class="d" d="M31.73,62.74a5.85,5.85,0,0,1,.09-1.09,1.78,1.78,0,0,1,1.85-1.42,1.69,1.69,0,0,1,1.91,1.36,6,6,0,0,1,0,1.24A4.37,4.37,0,0,1,35.56,64a1.73,1.73,0,0,1-1.81,1.28,1.83,1.83,0,0,1-1.95-1.19A5.68,5.68,0,0,1,31.73,62.74Z"/><path class="d" d="M44.09,62.74A5.92,5.92,0,0,0,44,61.65a1.78,1.78,0,0,0-1.85-1.42,1.69,1.69,0,0,0-1.91,1.36,6,6,0,0,0,0,1.24A4.37,4.37,0,0,0,40.27,64a1.73,1.73,0,0,0,1.81,1.28A1.86,1.86,0,0,0,44,64,4.89,4.89,0,0,0,44.09,62.74Z"/><path class="d" d="M44.12,62.74a5.85,5.85,0,0,1,.09-1.09,1.78,1.78,0,0,1,1.85-1.42A1.68,1.68,0,0,1,48,61.59a5.33,5.33,0,0,1,0,1.24A4.37,4.37,0,0,1,48,64a1.74,1.74,0,0,1-1.81,1.28,1.83,1.83,0,0,1-2-1.19A5.68,5.68,0,0,1,44.12,62.74Z"/><path class="d" d="M3.9,62.74a5.85,5.85,0,0,0-.09-1.09A1.78,1.78,0,0,0,2,60.23a1.68,1.68,0,0,0-1.9,1.36,5.33,5.33,0,0,0,0,1.24A4.37,4.37,0,0,0,.07,64a1.74,1.74,0,0,0,1.81,1.28A1.86,1.86,0,0,0,3.81,64,4.88,4.88,0,0,0,3.9,62.74Z"/><path class="d" d="M3.93,62.74A5.92,5.92,0,0,1,4,61.65a1.78,1.78,0,0,1,1.85-1.42,1.69,1.69,0,0,1,1.91,1.36,6,6,0,0,1,0,1.24A4.37,4.37,0,0,1,7.75,64a1.73,1.73,0,0,1-1.81,1.28A1.83,1.83,0,0,1,4,64.13,5.7,5.7,0,0,1,3.93,62.74Z"/><path class="e" d="M20.14,2.52a6,6,0,0,0-.09-1.1A1.78,1.78,0,0,0,18.2,0a1.68,1.68,0,0,0-1.9,1.36,5.35,5.35,0,0,0-.05,1.24,4.37,4.37,0,0,0,.06,1.21,1.74,1.74,0,0,0,1.81,1.28A1.85,1.85,0,0,0,20.05,3.8,4.8,4.8,0,0,0,20.14,2.52Z"/><path class="e" d="M27.85,2.52a6,6,0,0,0-.08-1.1A1.79,1.79,0,0,0,25.91,0,1.7,1.7,0,0,0,24,1.36,6,6,0,0,0,24,2.6,4.78,4.78,0,0,0,24,3.81a1.73,1.73,0,0,0,1.8,1.28A1.87,1.87,0,0,0,27.77,3.8,4.82,4.82,0,0,0,27.85,2.52Z"/><path class="e" d="M31.74,2.52a6,6,0,0,0-.08-1.1A1.79,1.79,0,0,0,29.8,0a1.7,1.7,0,0,0-1.9,1.36,6,6,0,0,0,0,1.24,4.78,4.78,0,0,0,.07,1.21,1.73,1.73,0,0,0,1.8,1.28A1.87,1.87,0,0,0,31.66,3.8,4.82,4.82,0,0,0,31.74,2.52Z"/><path class="e" d="M20.1,2.52a6,6,0,0,1,.08-1.1A1.79,1.79,0,0,1,22,0a1.7,1.7,0,0,1,1.9,1.36A6,6,0,0,1,24,2.6a4.78,4.78,0,0,1-.07,1.21,1.73,1.73,0,0,1-1.8,1.28,1.83,1.83,0,0,1-2-1.19A5.65,5.65,0,0,1,20.1,2.52Z"/><path class="e" d="M16.25,2.52a6,6,0,0,0-.08-1.1A1.79,1.79,0,0,0,14.31,0a1.7,1.7,0,0,0-1.9,1.36,6,6,0,0,0-.05,1.24,4.78,4.78,0,0,0,.07,1.21,1.73,1.73,0,0,0,1.8,1.28A1.87,1.87,0,0,0,16.17,3.8,4.82,4.82,0,0,0,16.25,2.52Z"/><path class="e" d="M31.77,2.52a6,6,0,0,1,.08-1.1A1.79,1.79,0,0,1,33.71,0a1.7,1.7,0,0,1,1.9,1.36,6,6,0,0,1,0,1.24,4.36,4.36,0,0,1-.07,1.21,1.72,1.72,0,0,1-1.8,1.28A1.81,1.81,0,0,1,31.84,3.9,5.63,5.63,0,0,1,31.77,2.52Z"/><path class="e" d="M44,2.52A6,6,0,0,0,44,1.42,1.78,1.78,0,0,0,42.11,0,1.7,1.7,0,0,0,40.2,1.36a6,6,0,0,0,0,1.24,4.37,4.37,0,0,0,.06,1.21A1.73,1.73,0,0,0,42,5.09,1.85,1.85,0,0,0,44,3.8,4.82,4.82,0,0,0,44,2.52Z"/><path class="e" d="M44.07,2.52a6,6,0,0,1,.09-1.1A1.78,1.78,0,0,1,46,0a1.68,1.68,0,0,1,1.9,1.36A5.35,5.35,0,0,1,48,2.6a4.37,4.37,0,0,1-.06,1.21,1.74,1.74,0,0,1-1.81,1.28,1.81,1.81,0,0,1-2-1.19A5.63,5.63,0,0,1,44.07,2.52Z"/><path class="e" d="M4,2.52a6,6,0,0,0-.09-1.1A1.78,1.78,0,0,0,2,0,1.68,1.68,0,0,0,.11,1.36a5.35,5.35,0,0,0,0,1.24A4.37,4.37,0,0,0,.12,3.81,1.74,1.74,0,0,0,1.93,5.09,1.85,1.85,0,0,0,3.86,3.8,4.8,4.8,0,0,0,4,2.52Z"/><path class="e" d="M4,2.52a6,6,0,0,1,.08-1.1A1.78,1.78,0,0,1,5.91,0,1.7,1.7,0,0,1,7.82,1.36a6,6,0,0,1,0,1.24A4.37,4.37,0,0,1,7.8,3.81,1.73,1.73,0,0,1,6,5.09,1.81,1.81,0,0,1,4,3.9,5.65,5.65,0,0,1,4,2.52Z"/></svg>