<svg xmlns="http://www.w3.org/2000/svg" width="60.7" height="65.32" viewBox="0 0 60.7 65.32"><defs><style>.a{fill:#889bcf;}.b{fill:#fbf175;}.c{fill:#86aca8;}.d{fill:#eb666a;}.e{fill:#ffd69f;}</style></defs><title>Asset 87</title><path class="a" d="M31.41,2.57a6,6,0,0,1-.09,1.1,1.78,1.78,0,0,1-1.85,1.42,1.7,1.7,0,0,1-1.91-1.36,6,6,0,0,1,0-1.24,4.37,4.37,0,0,1,.06-1.21A1.73,1.73,0,0,1,29.39,0a1.85,1.85,0,0,1,1.93,1.29A4.8,4.8,0,0,1,31.41,2.57Z"/><path class="a" d="M39.12,2.57A6,6,0,0,1,39,3.67a1.79,1.79,0,0,1-1.86,1.42,1.7,1.7,0,0,1-1.9-1.36,6,6,0,0,1-.05-1.24,4.36,4.36,0,0,1,.07-1.21A1.72,1.72,0,0,1,37.1,0,1.87,1.87,0,0,1,39,1.29,4.82,4.82,0,0,1,39.12,2.57Z"/><path class="a" d="M43,2.57a6,6,0,0,1-.08,1.1,1.79,1.79,0,0,1-1.86,1.42,1.7,1.7,0,0,1-1.9-1.36,6,6,0,0,1-.05-1.24,4.78,4.78,0,0,1,.07-1.21A1.73,1.73,0,0,1,41,0a1.87,1.87,0,0,1,1.94,1.29A4.82,4.82,0,0,1,43,2.57Z"/><path class="a" d="M31.37,2.6a6.1,6.1,0,0,0,.08,1.1A1.78,1.78,0,0,0,33.3,5.12a1.7,1.7,0,0,0,1.91-1.37,5.36,5.36,0,0,0,0-1.24,4.3,4.3,0,0,0-.06-1.2A1.72,1.72,0,0,0,33.39,0a1.81,1.81,0,0,0-2,1.19A5.65,5.65,0,0,0,31.37,2.6Z"/><path class="a" d="M15.91,2.57a6,6,0,0,1-.08,1.1A1.78,1.78,0,0,1,14,5.09a1.7,1.7,0,0,1-1.91-1.36,5.41,5.41,0,0,1,0-1.24,4.37,4.37,0,0,1,.06-1.21A1.73,1.73,0,0,1,13.89,0a1.86,1.86,0,0,1,1.94,1.29A4.82,4.82,0,0,1,15.91,2.57Z"/><path class="a" d="M23.63,2.57a6,6,0,0,1-.09,1.1,1.78,1.78,0,0,1-1.85,1.42,1.68,1.68,0,0,1-1.9-1.36,5.35,5.35,0,0,1-.05-1.24,4.37,4.37,0,0,1,.06-1.21A1.74,1.74,0,0,1,21.61,0a1.87,1.87,0,0,1,1.94,1.29A5.28,5.28,0,0,1,23.63,2.57Z"/><path class="a" d="M27.52,2.57a6,6,0,0,1-.09,1.1,1.77,1.77,0,0,1-1.85,1.42,1.7,1.7,0,0,1-1.9-1.36,6,6,0,0,1-.05-1.24,4.8,4.8,0,0,1,.06-1.21A1.74,1.74,0,0,1,25.5,0a1.87,1.87,0,0,1,1.94,1.29A4.82,4.82,0,0,1,27.52,2.57Z"/><path class="a" d="M15.87,2.6A6,6,0,0,0,16,3.7a1.78,1.78,0,0,0,1.85,1.42,1.68,1.68,0,0,0,1.9-1.37,5.3,5.3,0,0,0,.05-1.24,4.3,4.3,0,0,0-.06-1.2A1.73,1.73,0,0,0,17.89,0a1.8,1.8,0,0,0-2,1.19A5.63,5.63,0,0,0,15.87,2.6Z"/><path class="a" d="M43,2.65a5.11,5.11,0,0,0,.09,1.09,1.78,1.78,0,0,0,1.85,1.43,1.7,1.7,0,0,0,1.9-1.37,5.91,5.91,0,0,0,.05-1.24,4.39,4.39,0,0,0-.07-1.21A1.7,1.7,0,0,0,45,.08a1.8,1.8,0,0,0-1.95,1.18A5.74,5.74,0,0,0,43,2.65Z"/><path class="a" d="M46.88,2.65A5.85,5.85,0,0,0,47,3.74a1.78,1.78,0,0,0,1.85,1.43,1.7,1.7,0,0,0,1.9-1.37,5.91,5.91,0,0,0,.05-1.24,4.82,4.82,0,0,0-.06-1.21A1.72,1.72,0,0,0,48.9.08,1.8,1.8,0,0,0,47,1.26,5.74,5.74,0,0,0,46.88,2.65Z"/><path class="b" d="M29.8,62.74a5.92,5.92,0,0,0-.08-1.09,1.79,1.79,0,0,0-1.86-1.42A1.69,1.69,0,0,0,26,61.59a5.94,5.94,0,0,0-.05,1.24A4.78,4.78,0,0,0,26,64a1.73,1.73,0,0,0,1.8,1.28A1.88,1.88,0,0,0,29.72,64,4.89,4.89,0,0,0,29.8,62.74Z"/><path class="b" d="M37.51,62.74a5.92,5.92,0,0,0-.08-1.09,1.78,1.78,0,0,0-1.85-1.42,1.69,1.69,0,0,0-1.91,1.36,6,6,0,0,0,0,1.24A4.37,4.37,0,0,0,33.69,64a1.73,1.73,0,0,0,1.81,1.28A1.86,1.86,0,0,0,37.43,64,4.89,4.89,0,0,0,37.51,62.74Z"/><path class="b" d="M41.41,62.74a5.85,5.85,0,0,0-.09-1.09,1.78,1.78,0,0,0-1.85-1.42,1.69,1.69,0,0,0-1.91,1.36,6,6,0,0,0,0,1.24A4.37,4.37,0,0,0,37.58,64a1.74,1.74,0,0,0,1.81,1.28A1.86,1.86,0,0,0,41.32,64,4.88,4.88,0,0,0,41.41,62.74Z"/><path class="b" d="M29.76,62.74a5.11,5.11,0,0,1,.09-1.09,1.77,1.77,0,0,1,1.85-1.42,1.69,1.69,0,0,1,1.9,1.36,5.94,5.94,0,0,1,0,1.24A4.36,4.36,0,0,1,33.58,64a1.72,1.72,0,0,1-1.8,1.28,1.82,1.82,0,0,1-2-1.19A5.68,5.68,0,0,1,29.76,62.74Z"/><path class="b" d="M14.31,62.74a5.11,5.11,0,0,0-.09-1.09,1.77,1.77,0,0,0-1.85-1.42,1.69,1.69,0,0,0-1.9,1.36,5.94,5.94,0,0,0-.05,1.24A4.36,4.36,0,0,0,10.49,64a1.72,1.72,0,0,0,1.8,1.28A1.88,1.88,0,0,0,14.23,64,4.89,4.89,0,0,0,14.31,62.74Z"/><path class="b" d="M22,62.74a5.92,5.92,0,0,0-.08-1.09,1.79,1.79,0,0,0-1.86-1.42,1.69,1.69,0,0,0-1.9,1.36,5.94,5.94,0,0,0-.05,1.24A4.78,4.78,0,0,0,18.2,64,1.73,1.73,0,0,0,20,65.32,1.88,1.88,0,0,0,21.94,64,4.89,4.89,0,0,0,22,62.74Z"/><path class="b" d="M25.91,62.74a5.92,5.92,0,0,0-.08-1.09A1.78,1.78,0,0,0,24,60.23a1.69,1.69,0,0,0-1.91,1.36,5.39,5.39,0,0,0,0,1.24A4.37,4.37,0,0,0,22.09,64a1.73,1.73,0,0,0,1.8,1.28A1.87,1.87,0,0,0,25.83,64,4.89,4.89,0,0,0,25.91,62.74Z"/><path class="b" d="M14.27,62.74a5.92,5.92,0,0,1,.08-1.09,1.79,1.79,0,0,1,1.86-1.42,1.69,1.69,0,0,1,1.9,1.36,5.94,5.94,0,0,1,.05,1.24A4.78,4.78,0,0,1,18.09,64a1.73,1.73,0,0,1-1.8,1.28,1.82,1.82,0,0,1-1.95-1.19A5.68,5.68,0,0,1,14.27,62.74Z"/><path class="b" d="M41.39,62.74a5.92,5.92,0,0,1,.08-1.09,1.78,1.78,0,0,1,1.85-1.42,1.69,1.69,0,0,1,1.91,1.36,5.39,5.39,0,0,1,0,1.24A4.37,4.37,0,0,1,45.21,64a1.73,1.73,0,0,1-1.8,1.28,1.83,1.83,0,0,1-2-1.19A5.7,5.7,0,0,1,41.39,62.74Z"/><path class="b" d="M45.28,62.74a5.92,5.92,0,0,1,.08-1.09,1.79,1.79,0,0,1,1.86-1.42,1.69,1.69,0,0,1,1.9,1.36,5.94,5.94,0,0,1,.05,1.24A4.78,4.78,0,0,1,49.1,64a1.73,1.73,0,0,1-1.8,1.28,1.84,1.84,0,0,1-2-1.19A6.25,6.25,0,0,1,45.28,62.74Z"/><path class="b" d="M19.39,29.3a5.11,5.11,0,0,0-.09-1.09,1.77,1.77,0,0,0-1.85-1.42,1.69,1.69,0,0,0-1.9,1.36,5.94,5.94,0,0,0-.05,1.24,4.36,4.36,0,0,0,.07,1.21,1.72,1.72,0,0,0,1.8,1.28,1.88,1.88,0,0,0,1.94-1.29A4.89,4.89,0,0,0,19.39,29.3Z"/><path class="b" d="M27.1,29.3A5.92,5.92,0,0,0,27,28.21a1.79,1.79,0,0,0-1.86-1.42,1.69,1.69,0,0,0-1.9,1.36,5.94,5.94,0,0,0-.05,1.24,4.78,4.78,0,0,0,.07,1.21,1.73,1.73,0,0,0,1.8,1.28A1.88,1.88,0,0,0,27,30.59,4.89,4.89,0,0,0,27.1,29.3Z"/><path class="b" d="M31,29.3a5.92,5.92,0,0,0-.08-1.09,1.78,1.78,0,0,0-1.85-1.42,1.69,1.69,0,0,0-1.91,1.36,5.39,5.39,0,0,0,0,1.24,4.37,4.37,0,0,0,.06,1.21A1.73,1.73,0,0,0,29,31.88a1.87,1.87,0,0,0,1.94-1.29A4.89,4.89,0,0,0,31,29.3Z"/><path class="b" d="M19.35,29.3a5.92,5.92,0,0,1,.08-1.09,1.79,1.79,0,0,1,1.86-1.42,1.69,1.69,0,0,1,1.9,1.36,5.94,5.94,0,0,1,0,1.24,4.78,4.78,0,0,1-.07,1.21,1.73,1.73,0,0,1-1.8,1.28,1.82,1.82,0,0,1-1.95-1.19A5.68,5.68,0,0,1,19.35,29.3Z"/><path class="b" d="M3.9,29.3a5.85,5.85,0,0,0-.09-1.09A1.78,1.78,0,0,0,2,26.79a1.68,1.68,0,0,0-1.9,1.36,5.33,5.33,0,0,0,0,1.24A4.37,4.37,0,0,0,.07,30.6a1.74,1.74,0,0,0,1.81,1.28,1.86,1.86,0,0,0,1.93-1.29A4.88,4.88,0,0,0,3.9,29.3Z"/><path class="b" d="M11.61,29.3a5.92,5.92,0,0,0-.08-1.09,1.79,1.79,0,0,0-1.86-1.42,1.69,1.69,0,0,0-1.9,1.36,5.94,5.94,0,0,0,0,1.24,4.78,4.78,0,0,0,.07,1.21,1.73,1.73,0,0,0,1.8,1.28,1.88,1.88,0,0,0,1.94-1.29A4.89,4.89,0,0,0,11.61,29.3Z"/><path class="b" d="M15.5,29.3a5.92,5.92,0,0,0-.08-1.09,1.79,1.79,0,0,0-1.86-1.42,1.69,1.69,0,0,0-1.9,1.36,5.94,5.94,0,0,0-.05,1.24,4.78,4.78,0,0,0,.07,1.21,1.73,1.73,0,0,0,1.8,1.28,1.88,1.88,0,0,0,1.94-1.29A4.89,4.89,0,0,0,15.5,29.3Z"/><path class="b" d="M3.86,29.3a5.92,5.92,0,0,1,.08-1.09,1.78,1.78,0,0,1,1.85-1.42A1.69,1.69,0,0,1,7.7,28.15a5.94,5.94,0,0,1,0,1.24,4.78,4.78,0,0,1-.07,1.21,1.73,1.73,0,0,1-1.8,1.28,1.84,1.84,0,0,1-2-1.19A5.7,5.7,0,0,1,3.86,29.3Z"/><path class="b" d="M31,29.3a5.85,5.85,0,0,1,.09-1.09,1.78,1.78,0,0,1,1.85-1.42,1.69,1.69,0,0,1,1.91,1.36,6,6,0,0,1,0,1.24,4.37,4.37,0,0,1-.06,1.21A1.74,1.74,0,0,1,33,31.88a1.83,1.83,0,0,1-2-1.19A5.68,5.68,0,0,1,31,29.3Z"/><path class="b" d="M34.87,29.3A5.92,5.92,0,0,1,35,28.21a1.78,1.78,0,0,1,1.85-1.42,1.69,1.69,0,0,1,1.91,1.36,6,6,0,0,1,0,1.24,4.37,4.37,0,0,1-.06,1.21,1.73,1.73,0,0,1-1.81,1.28,1.83,1.83,0,0,1-2-1.19A5.7,5.7,0,0,1,34.87,29.3Z"/><path class="c" d="M20.15,22.62a6,6,0,0,0-.08-1.1,1.79,1.79,0,0,0-1.86-1.42,1.7,1.7,0,0,0-1.9,1.36,6,6,0,0,0,0,1.24,4.78,4.78,0,0,0,.07,1.21,1.73,1.73,0,0,0,1.8,1.28,1.87,1.87,0,0,0,1.94-1.29A4.82,4.82,0,0,0,20.15,22.62Z"/><path class="c" d="M27.87,22.62a6,6,0,0,0-.09-1.1,1.78,1.78,0,0,0-1.85-1.42A1.68,1.68,0,0,0,24,21.46,5.35,5.35,0,0,0,24,22.7,4.37,4.37,0,0,0,24,23.91a1.74,1.74,0,0,0,1.81,1.28,1.85,1.85,0,0,0,1.93-1.29A4.8,4.8,0,0,0,27.87,22.62Z"/><path class="c" d="M31.76,22.62a6,6,0,0,0-.09-1.1,1.78,1.78,0,0,0-1.85-1.42,1.68,1.68,0,0,0-1.9,1.36,5.35,5.35,0,0,0-.05,1.24,4.8,4.8,0,0,0,.06,1.21,1.74,1.74,0,0,0,1.81,1.28,1.87,1.87,0,0,0,1.94-1.29A4.82,4.82,0,0,0,31.76,22.62Z"/><path class="c" d="M20.11,22.62a6,6,0,0,1,.09-1.1,1.78,1.78,0,0,1,1.85-1.42A1.68,1.68,0,0,1,24,21.46,5.35,5.35,0,0,1,24,22.7a4.37,4.37,0,0,1-.06,1.21,1.74,1.74,0,0,1-1.81,1.28A1.81,1.81,0,0,1,20.18,24,5.63,5.63,0,0,1,20.11,22.62Z"/><path class="c" d="M4.66,22.62a6,6,0,0,0-.08-1.1A1.79,1.79,0,0,0,2.72,20.1a1.7,1.7,0,0,0-1.9,1.36,6,6,0,0,0,0,1.24,4.78,4.78,0,0,0,.07,1.21,1.73,1.73,0,0,0,1.8,1.28A1.87,1.87,0,0,0,4.58,23.9,4.82,4.82,0,0,0,4.66,22.62Z"/><path class="c" d="M12.37,22.62a6,6,0,0,0-.08-1.1,1.78,1.78,0,0,0-1.85-1.42,1.7,1.7,0,0,0-1.91,1.36,6,6,0,0,0,0,1.24,4.37,4.37,0,0,0,.06,1.21,1.73,1.73,0,0,0,1.81,1.28,1.85,1.85,0,0,0,1.93-1.29A4.82,4.82,0,0,0,12.37,22.62Z"/><path class="c" d="M16.27,22.62a6,6,0,0,0-.09-1.1,1.78,1.78,0,0,0-1.85-1.42,1.7,1.7,0,0,0-1.91,1.36,6,6,0,0,0,0,1.24,4.37,4.37,0,0,0,.06,1.21,1.73,1.73,0,0,0,1.81,1.28,1.85,1.85,0,0,0,1.93-1.29A4.8,4.8,0,0,0,16.27,22.62Z"/><path class="c" d="M4.62,22.62a5.2,5.2,0,0,1,.09-1.1A1.77,1.77,0,0,1,6.56,20.1a1.7,1.7,0,0,1,1.9,1.36,6,6,0,0,1,0,1.24,4.36,4.36,0,0,1-.07,1.21,1.72,1.72,0,0,1-1.8,1.28A1.81,1.81,0,0,1,4.69,24,5.63,5.63,0,0,1,4.62,22.62Z"/><path class="c" d="M31.74,22.62a6,6,0,0,1,.08-1.1,1.79,1.79,0,0,1,1.86-1.42,1.7,1.7,0,0,1,1.9,1.36,6,6,0,0,1,.05,1.24,4.78,4.78,0,0,1-.07,1.21,1.73,1.73,0,0,1-1.8,1.28A1.81,1.81,0,0,1,31.81,24,5.63,5.63,0,0,1,31.74,22.62Z"/><path class="c" d="M35.63,22.62a6,6,0,0,1,.08-1.1,1.79,1.79,0,0,1,1.86-1.42,1.7,1.7,0,0,1,1.9,1.36,6,6,0,0,1,.05,1.24,4.78,4.78,0,0,1-.07,1.21,1.73,1.73,0,0,1-1.8,1.28A1.81,1.81,0,0,1,35.7,24,5.63,5.63,0,0,1,35.63,22.62Z"/><path class="c" d="M24.69,56.05A5.92,5.92,0,0,0,24.61,55a1.78,1.78,0,0,0-1.85-1.42,1.69,1.69,0,0,0-1.91,1.36,6,6,0,0,0,0,1.24,4.37,4.37,0,0,0,.06,1.21,1.73,1.73,0,0,0,1.81,1.28,1.85,1.85,0,0,0,1.93-1.29A4.87,4.87,0,0,0,24.69,56.05Z"/><path class="c" d="M32.41,56.05A5.85,5.85,0,0,0,32.32,55a1.77,1.77,0,0,0-1.85-1.42,1.69,1.69,0,0,0-1.9,1.36,6,6,0,0,0-.05,1.24,4.8,4.8,0,0,0,.06,1.21,1.74,1.74,0,0,0,1.81,1.28,1.87,1.87,0,0,0,1.94-1.29A4.87,4.87,0,0,0,32.41,56.05Z"/><path class="c" d="M36.3,56.05A5.92,5.92,0,0,0,36.22,55a1.79,1.79,0,0,0-1.86-1.42,1.69,1.69,0,0,0-1.9,1.36,6,6,0,0,0-.05,1.24,4.36,4.36,0,0,0,.07,1.21,1.72,1.72,0,0,0,1.8,1.28,1.87,1.87,0,0,0,1.94-1.29A4.87,4.87,0,0,0,36.3,56.05Z"/><path class="c" d="M24.65,56.05A5.85,5.85,0,0,1,24.74,55a1.78,1.78,0,0,1,1.85-1.42A1.69,1.69,0,0,1,28.5,54.9a6,6,0,0,1,0,1.24,4.37,4.37,0,0,1-.06,1.21,1.73,1.73,0,0,1-1.81,1.28,1.81,1.81,0,0,1-2-1.19A5.68,5.68,0,0,1,24.65,56.05Z"/><path class="c" d="M9.2,56.05A5.92,5.92,0,0,0,9.12,55a1.79,1.79,0,0,0-1.86-1.42,1.69,1.69,0,0,0-1.9,1.36,6,6,0,0,0-.05,1.24,4.78,4.78,0,0,0,.07,1.21,1.73,1.73,0,0,0,1.8,1.28,1.87,1.87,0,0,0,1.94-1.29A4.87,4.87,0,0,0,9.2,56.05Z"/><path class="c" d="M16.92,56.05A5.85,5.85,0,0,0,16.83,55,1.78,1.78,0,0,0,15,53.54a1.68,1.68,0,0,0-1.9,1.36A5.35,5.35,0,0,0,13,56.14a4.37,4.37,0,0,0,.06,1.21,1.74,1.74,0,0,0,1.81,1.28,1.85,1.85,0,0,0,1.93-1.29A4.85,4.85,0,0,0,16.92,56.05Z"/><path class="c" d="M20.81,56.05A5.85,5.85,0,0,0,20.72,55a1.78,1.78,0,0,0-1.85-1.42A1.68,1.68,0,0,0,17,54.9a5.35,5.35,0,0,0,0,1.24A4.37,4.37,0,0,0,17,57.35a1.74,1.74,0,0,0,1.81,1.28,1.85,1.85,0,0,0,1.93-1.29A4.85,4.85,0,0,0,20.81,56.05Z"/><path class="c" d="M9.16,56.05A5.85,5.85,0,0,1,9.25,55a1.78,1.78,0,0,1,1.85-1.42A1.68,1.68,0,0,1,13,54.9a5.35,5.35,0,0,1,.05,1.24A4.37,4.37,0,0,1,13,57.35a1.74,1.74,0,0,1-1.81,1.28,1.81,1.81,0,0,1-1.95-1.19A5.68,5.68,0,0,1,9.16,56.05Z"/><path class="c" d="M36.33,56.05A5.92,5.92,0,0,1,36.41,55a1.79,1.79,0,0,1,1.86-1.42,1.69,1.69,0,0,1,1.9,1.36,6,6,0,0,1,0,1.24,4.78,4.78,0,0,1-.07,1.21,1.73,1.73,0,0,1-1.8,1.28,1.81,1.81,0,0,1-2-1.19A5.68,5.68,0,0,1,36.33,56.05Z"/><path class="c" d="M50.13,56.05A5.92,5.92,0,0,1,50.21,55a1.79,1.79,0,0,1,1.86-1.42A1.69,1.69,0,0,1,54,54.9,6,6,0,0,1,54,56.14,4.78,4.78,0,0,1,54,57.35a1.73,1.73,0,0,1-1.8,1.28,1.81,1.81,0,0,1-1.95-1.19A5.68,5.68,0,0,1,50.13,56.05Z"/><path class="d" d="M26.36,9.24a5.92,5.92,0,0,0-.08-1.09,1.79,1.79,0,0,0-1.86-1.42,1.69,1.69,0,0,0-1.9,1.36,5.91,5.91,0,0,0-.05,1.24,4.78,4.78,0,0,0,.07,1.21,1.73,1.73,0,0,0,1.8,1.28,1.89,1.89,0,0,0,1.94-1.3A4.82,4.82,0,0,0,26.36,9.24Z"/><path class="d" d="M34.07,9.24A5.92,5.92,0,0,0,34,8.15a1.78,1.78,0,0,0-1.85-1.42,1.69,1.69,0,0,0-1.91,1.36,5.36,5.36,0,0,0,0,1.24,4.37,4.37,0,0,0,.06,1.21,1.73,1.73,0,0,0,1.8,1.28A1.88,1.88,0,0,0,34,10.52,4.82,4.82,0,0,0,34.07,9.24Z"/><path class="d" d="M38,9.24a5.92,5.92,0,0,0-.08-1.09A1.78,1.78,0,0,0,36,6.73a1.69,1.69,0,0,0-1.91,1.36,6,6,0,0,0,0,1.24,4.37,4.37,0,0,0,.06,1.21A1.73,1.73,0,0,0,36,11.82a1.87,1.87,0,0,0,1.93-1.3A4.82,4.82,0,0,0,38,9.24Z"/><path class="d" d="M26.32,9.24a5.92,5.92,0,0,1,.08-1.09,1.79,1.79,0,0,1,1.86-1.42,1.69,1.69,0,0,1,1.9,1.36,5.91,5.91,0,0,1,.05,1.24,4.78,4.78,0,0,1-.07,1.21,1.73,1.73,0,0,1-1.8,1.28,1.82,1.82,0,0,1-1.95-1.19A5.71,5.71,0,0,1,26.32,9.24Z"/><path class="d" d="M10.87,9.24a5.85,5.85,0,0,0-.09-1.09A1.77,1.77,0,0,0,8.93,6.73,1.68,1.68,0,0,0,7,8.09,5.91,5.91,0,0,0,7,9.33,4.8,4.8,0,0,0,7,10.54a1.74,1.74,0,0,0,1.81,1.28,1.89,1.89,0,0,0,1.94-1.3A4.82,4.82,0,0,0,10.87,9.24Z"/><path class="d" d="M18.58,9.24a5.92,5.92,0,0,0-.08-1.09,1.79,1.79,0,0,0-1.86-1.42,1.69,1.69,0,0,0-1.9,1.36,5.91,5.91,0,0,0-.05,1.24,4.78,4.78,0,0,0,.07,1.21,1.73,1.73,0,0,0,1.8,1.28,1.88,1.88,0,0,0,1.94-1.3A4.82,4.82,0,0,0,18.58,9.24Z"/><path class="d" d="M22.47,9.24a5.92,5.92,0,0,0-.08-1.09,1.79,1.79,0,0,0-1.86-1.42,1.69,1.69,0,0,0-1.9,1.36,5.91,5.91,0,0,0-.05,1.24,4.78,4.78,0,0,0,.07,1.21,1.73,1.73,0,0,0,1.8,1.28,1.88,1.88,0,0,0,1.94-1.3A4.82,4.82,0,0,0,22.47,9.24Z"/><path class="d" d="M10.83,9.24a5.92,5.92,0,0,1,.08-1.09,1.79,1.79,0,0,1,1.86-1.42,1.69,1.69,0,0,1,1.9,1.36,5.91,5.91,0,0,1,.05,1.24,4.78,4.78,0,0,1-.07,1.21,1.73,1.73,0,0,1-1.8,1.28,1.82,1.82,0,0,1-1.95-1.19A5.71,5.71,0,0,1,10.83,9.24Z"/><path class="d" d="M38,9.24a5.85,5.85,0,0,1,.09-1.09,1.78,1.78,0,0,1,1.85-1.42,1.68,1.68,0,0,1,1.9,1.36,5.3,5.3,0,0,1,.05,1.24,4.37,4.37,0,0,1-.06,1.21A1.74,1.74,0,0,1,40,11.82a1.83,1.83,0,0,1-1.95-1.19A5.71,5.71,0,0,1,38,9.24Z"/><path class="d" d="M51.56,9.24a5.85,5.85,0,0,1,.09-1.09A1.78,1.78,0,0,1,53.5,6.73a1.68,1.68,0,0,1,1.9,1.36,5.3,5.3,0,0,1,.05,1.24,4.37,4.37,0,0,1-.06,1.21,1.74,1.74,0,0,1-1.81,1.28,1.83,1.83,0,0,1-1.95-1.19A5.71,5.71,0,0,1,51.56,9.24Z"/><path class="e" d="M22.73,49.37a6,6,0,0,0-.08-1.1,1.78,1.78,0,0,0-1.85-1.42,1.7,1.7,0,0,0-1.91,1.36,5.48,5.48,0,0,0,0,1.25,4.32,4.32,0,0,0,.06,1.2,1.73,1.73,0,0,0,1.8,1.28,1.86,1.86,0,0,0,1.94-1.29A4.82,4.82,0,0,0,22.73,49.37Z"/><path class="e" d="M30.45,49.37a6,6,0,0,0-.09-1.1,1.78,1.78,0,0,0-1.85-1.42,1.68,1.68,0,0,0-1.9,1.36,5.41,5.41,0,0,0-.05,1.25,4.32,4.32,0,0,0,.06,1.2,1.74,1.74,0,0,0,1.81,1.28,1.87,1.87,0,0,0,1.94-1.29A5.28,5.28,0,0,0,30.45,49.37Z"/><path class="e" d="M34.34,49.37a6,6,0,0,0-.09-1.1,1.77,1.77,0,0,0-1.85-1.42,1.7,1.7,0,0,0-1.9,1.36,6,6,0,0,0-.05,1.25,4.74,4.74,0,0,0,.06,1.2,1.74,1.74,0,0,0,1.81,1.28,1.87,1.87,0,0,0,1.94-1.29A4.82,4.82,0,0,0,34.34,49.37Z"/><path class="e" d="M22.69,49.37a6,6,0,0,1,.09-1.1,1.78,1.78,0,0,1,1.85-1.42,1.68,1.68,0,0,1,1.9,1.36,5.41,5.41,0,0,1,0,1.25,4.32,4.32,0,0,1-.06,1.2,1.74,1.74,0,0,1-1.81,1.28,1.81,1.81,0,0,1-1.95-1.19A5.63,5.63,0,0,1,22.69,49.37Z"/><path class="e" d="M7.24,49.37a6,6,0,0,0-.08-1.1A1.79,1.79,0,0,0,5.3,46.85a1.7,1.7,0,0,0-1.9,1.36,6,6,0,0,0,0,1.25,4.73,4.73,0,0,0,.07,1.2,1.73,1.73,0,0,0,1.8,1.28,1.87,1.87,0,0,0,1.94-1.29A4.82,4.82,0,0,0,7.24,49.37Z"/><path class="e" d="M15,49.37a6,6,0,0,0-.09-1.1A1.78,1.78,0,0,0,13,46.85a1.7,1.7,0,0,0-1.91,1.36,6.12,6.12,0,0,0,0,1.25,4.32,4.32,0,0,0,.06,1.2,1.73,1.73,0,0,0,1.81,1.28,1.85,1.85,0,0,0,1.93-1.29A4.8,4.8,0,0,0,15,49.37Z"/><path class="e" d="M18.85,49.37a6,6,0,0,0-.09-1.1,1.78,1.78,0,0,0-1.85-1.42A1.68,1.68,0,0,0,15,48.21a5.41,5.41,0,0,0,0,1.25,4.32,4.32,0,0,0,.06,1.2,1.74,1.74,0,0,0,1.81,1.28,1.85,1.85,0,0,0,1.93-1.29A4.8,4.8,0,0,0,18.85,49.37Z"/><path class="e" d="M7.2,49.37a6,6,0,0,1,.09-1.1,1.77,1.77,0,0,1,1.85-1.42A1.7,1.7,0,0,1,11,48.21a6,6,0,0,1,.05,1.25,4.74,4.74,0,0,1-.06,1.2,1.74,1.74,0,0,1-1.81,1.28,1.81,1.81,0,0,1-2-1.19A5.63,5.63,0,0,1,7.2,49.37Z"/><path class="e" d="M34.32,49.37a6,6,0,0,1,.08-1.1,1.79,1.79,0,0,1,1.86-1.42,1.7,1.7,0,0,1,1.9,1.36,6,6,0,0,1,.05,1.25,4.73,4.73,0,0,1-.07,1.2,1.73,1.73,0,0,1-1.8,1.28,1.81,1.81,0,0,1-2-1.19A5.63,5.63,0,0,1,34.32,49.37Z"/><path class="e" d="M53.73,49.37a5.2,5.2,0,0,1,.09-1.1,1.77,1.77,0,0,1,1.85-1.42,1.7,1.7,0,0,1,1.9,1.36,6,6,0,0,1,0,1.25,4.31,4.31,0,0,1-.07,1.2,1.72,1.72,0,0,1-1.8,1.28,1.81,1.81,0,0,1-2-1.19A5.63,5.63,0,0,1,53.73,49.37Z"/><path class="e" d="M54.55,15.93a6.1,6.1,0,0,1,.08-1.1,1.79,1.79,0,0,1,1.86-1.42,1.7,1.7,0,0,1,1.9,1.37,5.91,5.91,0,0,1,0,1.24,4.7,4.7,0,0,1-.07,1.2,1.71,1.71,0,0,1-1.8,1.28,1.82,1.82,0,0,1-2-1.18A6.31,6.31,0,0,1,54.55,15.93Z"/><path class="e" d="M32.61,15.93a6,6,0,0,0-.09-1.1,1.78,1.78,0,0,0-1.85-1.42,1.7,1.7,0,0,0-1.91,1.37,6,6,0,0,0,0,1.24,4.3,4.3,0,0,0,.06,1.2,1.71,1.71,0,0,0,1.81,1.28,1.85,1.85,0,0,0,1.93-1.29A4.8,4.8,0,0,0,32.61,15.93Z"/><path class="e" d="M36.5,15.93a6,6,0,0,0-.09-1.1,1.78,1.78,0,0,0-1.85-1.42,1.68,1.68,0,0,0-1.9,1.37,5.3,5.3,0,0,0,0,1.24,4.3,4.3,0,0,0,.06,1.2,1.72,1.72,0,0,0,1.81,1.28,1.85,1.85,0,0,0,1.93-1.29A4.8,4.8,0,0,0,36.5,15.93Z"/><path class="e" d="M24.85,15.93a6,6,0,0,1,.09-1.1,1.77,1.77,0,0,1,1.85-1.42,1.7,1.7,0,0,1,1.9,1.37,5.91,5.91,0,0,1,0,1.24,4.72,4.72,0,0,1-.06,1.2,1.72,1.72,0,0,1-1.81,1.28,1.8,1.8,0,0,1-1.95-1.18A5.74,5.74,0,0,1,24.85,15.93Z"/><path class="e" d="M36.53,15.93a6.1,6.1,0,0,1,.08-1.1,1.78,1.78,0,0,1,1.85-1.42,1.7,1.7,0,0,1,1.91,1.37,6,6,0,0,1,0,1.24,4.3,4.3,0,0,1-.06,1.2,1.71,1.71,0,0,1-1.81,1.28,1.81,1.81,0,0,1-1.95-1.18A5.75,5.75,0,0,1,36.53,15.93Z"/><path class="e" d="M4.43,15.93a6.1,6.1,0,0,0-.08-1.1,1.79,1.79,0,0,0-1.86-1.42,1.7,1.7,0,0,0-1.9,1.37A5.91,5.91,0,0,0,.54,16a4.7,4.7,0,0,0,.07,1.2,1.71,1.71,0,0,0,1.8,1.28,1.87,1.87,0,0,0,1.94-1.29A4.82,4.82,0,0,0,4.43,15.93Z"/><path class="e" d="M12.14,15.93a6.1,6.1,0,0,0-.08-1.1,1.78,1.78,0,0,0-1.85-1.42A1.7,1.7,0,0,0,8.3,14.78a6,6,0,0,0,0,1.24,4.3,4.3,0,0,0,.06,1.2,1.71,1.71,0,0,0,1.81,1.28,1.85,1.85,0,0,0,1.93-1.29A4.82,4.82,0,0,0,12.14,15.93Z"/><path class="e" d="M16,15.93a6,6,0,0,0-.09-1.1,1.78,1.78,0,0,0-1.85-1.42,1.7,1.7,0,0,0-1.91,1.37,6,6,0,0,0,0,1.24,4.3,4.3,0,0,0,.06,1.2A1.71,1.71,0,0,0,14,18.5,1.85,1.85,0,0,0,16,17.21,4.8,4.8,0,0,0,16,15.93Z"/><path class="e" d="M4.39,15.93a5.26,5.26,0,0,1,.09-1.1,1.77,1.77,0,0,1,1.85-1.42,1.7,1.7,0,0,1,1.9,1.37,5.91,5.91,0,0,1,0,1.24,4.29,4.29,0,0,1-.07,1.2,1.7,1.7,0,0,1-1.8,1.28,1.8,1.8,0,0,1-1.95-1.18A5.74,5.74,0,0,1,4.39,15.93Z"/><path class="e" d="M16.06,15.93a6,6,0,0,1,.09-1.1A1.78,1.78,0,0,1,18,13.41a1.7,1.7,0,0,1,1.91,1.37A6,6,0,0,1,20,16a4.3,4.3,0,0,1-.06,1.2,1.71,1.71,0,0,1-1.81,1.28,1.81,1.81,0,0,1-1.95-1.18A5.74,5.74,0,0,1,16.06,15.93Z"/><path class="d" d="M56.3,42.68a5.85,5.85,0,0,1,.09-1.09,1.77,1.77,0,0,1,1.85-1.43,1.68,1.68,0,0,1,1.9,1.37,5.3,5.3,0,0,1,0,1.24,4.3,4.3,0,0,1-.06,1.2,1.72,1.72,0,0,1-1.81,1.28,1.81,1.81,0,0,1-2-1.18A5.74,5.74,0,0,1,56.3,42.68Z"/><path class="d" d="M4.33,42.68a5.85,5.85,0,0,0-.09-1.09,1.77,1.77,0,0,0-1.85-1.43A1.7,1.7,0,0,0,.48,41.53a6,6,0,0,0,0,1.24A4.3,4.3,0,0,0,.5,44a1.72,1.72,0,0,0,1.81,1.28A1.85,1.85,0,0,0,4.24,44,4.8,4.8,0,0,0,4.33,42.68Z"/><path class="d" d="M12,42.68A5.92,5.92,0,0,0,12,41.59a1.78,1.78,0,0,0-1.86-1.43,1.7,1.7,0,0,0-1.9,1.37,5.91,5.91,0,0,0,0,1.24A4.7,4.7,0,0,0,8.22,44,1.71,1.71,0,0,0,10,45.25,1.87,1.87,0,0,0,12,44,4.82,4.82,0,0,0,12,42.68Z"/><path class="d" d="M15.93,42.68a5.92,5.92,0,0,0-.08-1.09A1.78,1.78,0,0,0,14,40.16a1.7,1.7,0,0,0-1.9,1.37A5.91,5.91,0,0,0,12,42.77a4.7,4.7,0,0,0,.07,1.2,1.71,1.71,0,0,0,1.8,1.28A1.87,1.87,0,0,0,15.85,44,4.82,4.82,0,0,0,15.93,42.68Z"/><path class="d" d="M4.29,42.68a5.92,5.92,0,0,1,.08-1.09,1.78,1.78,0,0,1,1.85-1.43,1.7,1.7,0,0,1,1.91,1.37,5.36,5.36,0,0,1,0,1.24A4.3,4.3,0,0,1,8.11,44a1.71,1.71,0,0,1-1.8,1.28,1.81,1.81,0,0,1-2-1.18A5.75,5.75,0,0,1,4.29,42.68Z"/><path class="d" d="M16,42.68A5.92,5.92,0,0,1,16,41.59a1.78,1.78,0,0,1,1.86-1.43,1.7,1.7,0,0,1,1.9,1.37,5.91,5.91,0,0,1,.05,1.24,4.7,4.7,0,0,1-.07,1.2A1.71,1.71,0,0,1,18,45.25,1.8,1.8,0,0,1,16,44.07,5.74,5.74,0,0,1,16,42.68Z"/><path class="d" d="M30.58,42.68a5.85,5.85,0,0,0-.09-1.09,1.77,1.77,0,0,0-1.85-1.43,1.68,1.68,0,0,0-1.9,1.37,5.3,5.3,0,0,0,0,1.24,4.3,4.3,0,0,0,.06,1.2,1.72,1.72,0,0,0,1.81,1.28A1.85,1.85,0,0,0,30.49,44,4.8,4.8,0,0,0,30.58,42.68Z"/><path class="d" d="M34.47,42.68a5.85,5.85,0,0,0-.09-1.09,1.77,1.77,0,0,0-1.85-1.43,1.68,1.68,0,0,0-1.9,1.37,5.3,5.3,0,0,0-.05,1.24,4.3,4.3,0,0,0,.06,1.2,1.72,1.72,0,0,0,1.81,1.28A1.85,1.85,0,0,0,34.38,44,4.8,4.8,0,0,0,34.47,42.68Z"/><path class="d" d="M22.82,42.68a5.85,5.85,0,0,1,.09-1.09,1.77,1.77,0,0,1,1.85-1.43,1.68,1.68,0,0,1,1.9,1.37,5.3,5.3,0,0,1,.05,1.24,4.3,4.3,0,0,1-.06,1.2,1.72,1.72,0,0,1-1.81,1.28,1.8,1.8,0,0,1-1.95-1.18A5.74,5.74,0,0,1,22.82,42.68Z"/><path class="d" d="M34.5,42.68a5.92,5.92,0,0,1,.08-1.09,1.78,1.78,0,0,1,1.85-1.43,1.7,1.7,0,0,1,1.91,1.37,6,6,0,0,1,0,1.24,4.3,4.3,0,0,1-.06,1.2,1.71,1.71,0,0,1-1.8,1.28,1.81,1.81,0,0,1-2-1.18A5.75,5.75,0,0,1,34.5,42.68Z"/><path class="a" d="M7.81,36a5.92,5.92,0,0,0-.08-1.09,1.79,1.79,0,0,0-1.86-1.42A1.69,1.69,0,0,0,4,34.84a5.91,5.91,0,0,0-.05,1.24A4.78,4.78,0,0,0,4,37.29a1.73,1.73,0,0,0,1.8,1.28,1.88,1.88,0,0,0,1.94-1.3A4.79,4.79,0,0,0,7.81,36Z"/><path class="a" d="M11.7,36a5.92,5.92,0,0,0-.08-1.09,1.79,1.79,0,0,0-1.86-1.42,1.69,1.69,0,0,0-1.9,1.36,5.91,5.91,0,0,0-.05,1.24,4.78,4.78,0,0,0,.07,1.21,1.73,1.73,0,0,0,1.8,1.28,1.87,1.87,0,0,0,1.94-1.3A4.79,4.79,0,0,0,11.7,36Z"/><path class="a" d="M.06,36A5.92,5.92,0,0,1,.14,34.9,1.79,1.79,0,0,1,2,33.48a1.69,1.69,0,0,1,1.9,1.36A5.91,5.91,0,0,1,4,36.08a4.78,4.78,0,0,1-.07,1.21,1.73,1.73,0,0,1-1.8,1.28A1.82,1.82,0,0,1,.13,37.38,5.68,5.68,0,0,1,.06,36Z"/><path class="a" d="M11.73,36a5.11,5.11,0,0,1,.09-1.09,1.77,1.77,0,0,1,1.85-1.42,1.69,1.69,0,0,1,1.9,1.36,5.91,5.91,0,0,1,0,1.24,4.36,4.36,0,0,1-.07,1.21,1.72,1.72,0,0,1-1.8,1.28,1.82,1.82,0,0,1-1.95-1.19A5.68,5.68,0,0,1,11.73,36Z"/><path class="a" d="M52.88,36a5.92,5.92,0,0,0-.08-1.09,1.79,1.79,0,0,0-1.86-1.42A1.69,1.69,0,0,0,49,34.84a5.91,5.91,0,0,0,0,1.24,4.78,4.78,0,0,0,.07,1.21,1.73,1.73,0,0,0,1.8,1.28,1.87,1.87,0,0,0,1.94-1.3A4.79,4.79,0,0,0,52.88,36Z"/><path class="a" d="M56.77,36a5.92,5.92,0,0,0-.08-1.09,1.79,1.79,0,0,0-1.86-1.42,1.69,1.69,0,0,0-1.9,1.36,5.91,5.91,0,0,0,0,1.24A4.78,4.78,0,0,0,53,37.29a1.73,1.73,0,0,0,1.8,1.28,1.87,1.87,0,0,0,1.94-1.3A4.79,4.79,0,0,0,56.77,36Z"/><path class="a" d="M56.8,36a5.11,5.11,0,0,1,.09-1.09,1.77,1.77,0,0,1,1.85-1.42,1.69,1.69,0,0,1,1.9,1.36,5.91,5.91,0,0,1,0,1.24,4.36,4.36,0,0,1-.07,1.21,1.72,1.72,0,0,1-1.8,1.28,1.82,1.82,0,0,1-2-1.19A5.68,5.68,0,0,1,56.8,36Z"/><path class="a" d="M30.87,36a5.92,5.92,0,0,0-.08-1.09,1.79,1.79,0,0,0-1.86-1.42A1.69,1.69,0,0,0,27,34.84,5.91,5.91,0,0,0,27,36.08a4.78,4.78,0,0,0,.07,1.21,1.73,1.73,0,0,0,1.8,1.28,1.87,1.87,0,0,0,1.94-1.3A4.79,4.79,0,0,0,30.87,36Z"/><path class="a" d="M34.76,36a5.92,5.92,0,0,0-.08-1.09,1.79,1.79,0,0,0-1.86-1.42,1.69,1.69,0,0,0-1.9,1.36,5.91,5.91,0,0,0-.05,1.24,4.78,4.78,0,0,0,.07,1.21,1.73,1.73,0,0,0,1.8,1.28,1.87,1.87,0,0,0,1.94-1.3A4.79,4.79,0,0,0,34.76,36Z"/><path class="a" d="M34.79,36a5.11,5.11,0,0,1,.09-1.09,1.77,1.77,0,0,1,1.85-1.42,1.69,1.69,0,0,1,1.9,1.36,5.91,5.91,0,0,1,0,1.24,4.36,4.36,0,0,1-.07,1.21,1.72,1.72,0,0,1-1.8,1.28,1.82,1.82,0,0,1-2-1.19A5.68,5.68,0,0,1,34.79,36Z"/></svg>