<svg xmlns="http://www.w3.org/2000/svg" width="66" height="65.32" viewBox="0 0 66 65.32"><defs><style>.a{fill:#eb666a;}.b{fill:#ffd69f;}.c{fill:#86aca8;}.d{fill:#fbf175;}.e{fill:#889bcf;}</style></defs><title>Asset 93</title><path class="a" d="M46.62,9.21a6.1,6.1,0,0,0-.08-1.1,1.79,1.79,0,0,0-1.86-1.42,1.7,1.7,0,0,0-1.9,1.36,6,6,0,0,0-.05,1.25,4.73,4.73,0,0,0,.07,1.2,1.72,1.72,0,0,0,1.8,1.28,1.87,1.87,0,0,0,1.94-1.29A4.82,4.82,0,0,0,46.62,9.21Z"/><path class="a" d="M54.34,9.21a6,6,0,0,0-.09-1.1A1.78,1.78,0,0,0,52.4,6.69a1.68,1.68,0,0,0-1.9,1.36,5.41,5.41,0,0,0,0,1.25,4.32,4.32,0,0,0,.06,1.2,1.73,1.73,0,0,0,1.81,1.28,1.85,1.85,0,0,0,1.93-1.29A4.8,4.8,0,0,0,54.34,9.21Z"/><path class="a" d="M58.23,9.21a6,6,0,0,0-.09-1.1,1.77,1.77,0,0,0-1.85-1.42,1.7,1.7,0,0,0-1.9,1.36,6,6,0,0,0,0,1.25,4.74,4.74,0,0,0,.06,1.2,1.73,1.73,0,0,0,1.81,1.28,1.87,1.87,0,0,0,1.94-1.29A4.82,4.82,0,0,0,58.23,9.21Z"/><path class="a" d="M46.58,9.21a6,6,0,0,1,.09-1.1,1.78,1.78,0,0,1,1.85-1.42,1.68,1.68,0,0,1,1.9,1.36,5.41,5.41,0,0,1,0,1.25,4.32,4.32,0,0,1-.06,1.2,1.73,1.73,0,0,1-1.81,1.28,1.81,1.81,0,0,1-2-1.19A5.63,5.63,0,0,1,46.58,9.21Z"/><path class="a" d="M31.13,9.21a6.1,6.1,0,0,0-.08-1.1,1.79,1.79,0,0,0-1.86-1.42,1.7,1.7,0,0,0-1.9,1.36,6,6,0,0,0-.05,1.25,4.73,4.73,0,0,0,.07,1.2,1.72,1.72,0,0,0,1.8,1.28,1.87,1.87,0,0,0,1.94-1.29A4.82,4.82,0,0,0,31.13,9.21Z"/><path class="a" d="M38.84,9.21a6.1,6.1,0,0,0-.08-1.1,1.78,1.78,0,0,0-1.85-1.42A1.7,1.7,0,0,0,35,8.05,6.12,6.12,0,0,0,35,9.3,4.32,4.32,0,0,0,35,10.5a1.72,1.72,0,0,0,1.81,1.28,1.85,1.85,0,0,0,1.93-1.29A4.82,4.82,0,0,0,38.84,9.21Z"/><path class="a" d="M42.74,9.21a6,6,0,0,0-.09-1.1A1.78,1.78,0,0,0,40.8,6.69a1.7,1.7,0,0,0-1.91,1.36,6.12,6.12,0,0,0,0,1.25,4.32,4.32,0,0,0,.06,1.2,1.73,1.73,0,0,0,1.81,1.28,1.85,1.85,0,0,0,1.93-1.29A4.8,4.8,0,0,0,42.74,9.21Z"/><path class="a" d="M31.09,9.21a5.26,5.26,0,0,1,.09-1.1A1.77,1.77,0,0,1,33,6.69a1.7,1.7,0,0,1,1.9,1.36A6,6,0,0,1,35,9.3a4.31,4.31,0,0,1-.07,1.2,1.71,1.71,0,0,1-1.8,1.28,1.81,1.81,0,0,1-1.95-1.19A5.63,5.63,0,0,1,31.09,9.21Z"/><path class="a" d="M58.21,9.21a6.1,6.1,0,0,1,.08-1.1,1.79,1.79,0,0,1,1.86-1.42,1.7,1.7,0,0,1,1.9,1.36A6,6,0,0,1,62.1,9.3,4.73,4.73,0,0,1,62,10.5a1.72,1.72,0,0,1-1.8,1.28,1.81,1.81,0,0,1-1.95-1.19A5.63,5.63,0,0,1,58.21,9.21Z"/><path class="a" d="M62.1,9.21a6.1,6.1,0,0,1,.08-1.1A1.79,1.79,0,0,1,64,6.69a1.7,1.7,0,0,1,1.9,1.36A6,6,0,0,1,66,9.3a4.73,4.73,0,0,1-.07,1.2,1.72,1.72,0,0,1-1.8,1.28,1.81,1.81,0,0,1-2-1.19A5.63,5.63,0,0,1,62.1,9.21Z"/><path class="b" d="M43.23,15.9a5.92,5.92,0,0,0-.08-1.09,1.78,1.78,0,0,0-1.86-1.43,1.7,1.7,0,0,0-1.9,1.37,5.91,5.91,0,0,0,0,1.24,4.7,4.7,0,0,0,.07,1.2,1.71,1.71,0,0,0,1.8,1.28,1.87,1.87,0,0,0,1.94-1.29A4.82,4.82,0,0,0,43.23,15.9Z"/><path class="b" d="M50.94,15.9a5.92,5.92,0,0,0-.08-1.09A1.78,1.78,0,0,0,49,13.38a1.7,1.7,0,0,0-1.91,1.37,5.36,5.36,0,0,0,0,1.24,4.3,4.3,0,0,0,.06,1.2,1.71,1.71,0,0,0,1.8,1.28,1.86,1.86,0,0,0,1.94-1.29A4.82,4.82,0,0,0,50.94,15.9Z"/><path class="b" d="M54.83,15.9a5.92,5.92,0,0,0-.08-1.09,1.77,1.77,0,0,0-1.85-1.43A1.7,1.7,0,0,0,51,14.75,6,6,0,0,0,51,16a4.3,4.3,0,0,0,.06,1.2,1.71,1.71,0,0,0,1.81,1.28,1.85,1.85,0,0,0,1.93-1.29A4.82,4.82,0,0,0,54.83,15.9Z"/><path class="b" d="M43.19,15.9a5.92,5.92,0,0,1,.08-1.09,1.78,1.78,0,0,1,1.86-1.43A1.7,1.7,0,0,1,47,14.75a5.91,5.91,0,0,1,0,1.24,4.7,4.7,0,0,1-.07,1.2,1.71,1.71,0,0,1-1.8,1.28,1.8,1.8,0,0,1-2-1.18A5.74,5.74,0,0,1,43.19,15.9Z"/><path class="b" d="M27.74,15.9a5.85,5.85,0,0,0-.09-1.09,1.77,1.77,0,0,0-1.85-1.43,1.69,1.69,0,0,0-1.9,1.37,5.91,5.91,0,0,0,0,1.24,4.72,4.72,0,0,0,.06,1.2,1.72,1.72,0,0,0,1.81,1.28,1.87,1.87,0,0,0,1.94-1.29A4.82,4.82,0,0,0,27.74,15.9Z"/><path class="b" d="M35.45,15.9a5.92,5.92,0,0,0-.08-1.09,1.78,1.78,0,0,0-1.86-1.43,1.7,1.7,0,0,0-1.9,1.37A5.91,5.91,0,0,0,31.56,16a4.7,4.7,0,0,0,.07,1.2,1.71,1.71,0,0,0,1.8,1.28,1.87,1.87,0,0,0,1.94-1.29A4.82,4.82,0,0,0,35.45,15.9Z"/><path class="b" d="M39.34,15.9a5.92,5.92,0,0,0-.08-1.09,1.78,1.78,0,0,0-1.86-1.43,1.7,1.7,0,0,0-1.9,1.37,5.91,5.91,0,0,0,0,1.24,4.7,4.7,0,0,0,.07,1.2,1.71,1.71,0,0,0,1.8,1.28,1.87,1.87,0,0,0,1.94-1.29A4.82,4.82,0,0,0,39.34,15.9Z"/><path class="b" d="M27.7,15.9a5.92,5.92,0,0,1,.08-1.09,1.78,1.78,0,0,1,1.86-1.43,1.7,1.7,0,0,1,1.9,1.37A5.91,5.91,0,0,1,31.59,16a4.7,4.7,0,0,1-.07,1.2,1.71,1.71,0,0,1-1.8,1.28,1.8,1.8,0,0,1-1.95-1.18A5.74,5.74,0,0,1,27.7,15.9Z"/><path class="b" d="M54.82,15.9a5.92,5.92,0,0,1,.08-1.09,1.77,1.77,0,0,1,1.85-1.43,1.7,1.7,0,0,1,1.91,1.37,6,6,0,0,1,0,1.24,4.3,4.3,0,0,1-.06,1.2,1.71,1.71,0,0,1-1.81,1.28,1.81,1.81,0,0,1-1.95-1.18A5.75,5.75,0,0,1,54.82,15.9Z"/><path class="b" d="M58.71,15.9a5.92,5.92,0,0,1,.08-1.09,1.78,1.78,0,0,1,1.85-1.43,1.7,1.7,0,0,1,1.91,1.37,5.36,5.36,0,0,1,0,1.24,4.3,4.3,0,0,1-.06,1.2,1.71,1.71,0,0,1-1.8,1.28,1.81,1.81,0,0,1-2-1.18A5.75,5.75,0,0,1,58.71,15.9Z"/><path class="c" d="M40,22.59a5.92,5.92,0,0,0-.08-1.09A1.79,1.79,0,0,0,38,20.08a1.69,1.69,0,0,0-1.9,1.36,5.91,5.91,0,0,0,0,1.24,4.78,4.78,0,0,0,.07,1.21A1.73,1.73,0,0,0,38,25.17a1.89,1.89,0,0,0,1.94-1.3A4.82,4.82,0,0,0,40,22.59Z"/><path class="c" d="M47.69,22.59a5.92,5.92,0,0,0-.08-1.09,1.78,1.78,0,0,0-1.85-1.42,1.69,1.69,0,0,0-1.91,1.36,6,6,0,0,0,0,1.24,4.37,4.37,0,0,0,.06,1.21,1.73,1.73,0,0,0,1.8,1.28,1.88,1.88,0,0,0,1.94-1.3A4.82,4.82,0,0,0,47.69,22.59Z"/><path class="c" d="M51.58,22.59a5.92,5.92,0,0,0-.08-1.09,1.78,1.78,0,0,0-1.85-1.42,1.69,1.69,0,0,0-1.91,1.36,6,6,0,0,0,0,1.24,4.37,4.37,0,0,0,.06,1.21,1.73,1.73,0,0,0,1.81,1.28,1.87,1.87,0,0,0,1.93-1.3A4.82,4.82,0,0,0,51.58,22.59Z"/><path class="c" d="M39.94,22.59A5.92,5.92,0,0,1,40,21.5a1.79,1.79,0,0,1,1.86-1.42,1.69,1.69,0,0,1,1.9,1.36,5.91,5.91,0,0,1,0,1.24,4.36,4.36,0,0,1-.07,1.21A1.72,1.72,0,0,1,42,25.17,1.82,1.82,0,0,1,40,24,5.71,5.71,0,0,1,39.94,22.59Z"/><path class="c" d="M24.49,22.59a5.85,5.85,0,0,0-.09-1.09,1.77,1.77,0,0,0-1.85-1.42,1.69,1.69,0,0,0-1.9,1.36,5.91,5.91,0,0,0,0,1.24,4.8,4.8,0,0,0,.06,1.21,1.74,1.74,0,0,0,1.81,1.28,1.89,1.89,0,0,0,1.94-1.3A4.82,4.82,0,0,0,24.49,22.59Z"/><path class="c" d="M32.2,22.59a5.92,5.92,0,0,0-.08-1.09,1.79,1.79,0,0,0-1.86-1.42,1.69,1.69,0,0,0-1.9,1.36,5.91,5.91,0,0,0-.05,1.24,4.78,4.78,0,0,0,.07,1.21,1.73,1.73,0,0,0,1.8,1.28,1.88,1.88,0,0,0,1.94-1.3A4.82,4.82,0,0,0,32.2,22.59Z"/><path class="c" d="M36.09,22.59A5.92,5.92,0,0,0,36,21.5a1.78,1.78,0,0,0-1.85-1.42,1.69,1.69,0,0,0-1.91,1.36,5.91,5.91,0,0,0,0,1.24,4.78,4.78,0,0,0,.07,1.21,1.73,1.73,0,0,0,1.8,1.28A1.88,1.88,0,0,0,36,23.87,4.82,4.82,0,0,0,36.09,22.59Z"/><path class="c" d="M24.45,22.59a5.92,5.92,0,0,1,.08-1.09,1.79,1.79,0,0,1,1.86-1.42,1.69,1.69,0,0,1,1.9,1.36,5.91,5.91,0,0,1,.05,1.24,4.78,4.78,0,0,1-.07,1.21,1.73,1.73,0,0,1-1.8,1.28A1.82,1.82,0,0,1,24.52,24,5.71,5.71,0,0,1,24.45,22.59Z"/><path class="c" d="M51.57,22.59a5.92,5.92,0,0,1,.08-1.09,1.78,1.78,0,0,1,1.85-1.42,1.69,1.69,0,0,1,1.91,1.36,6,6,0,0,1,0,1.24,4.37,4.37,0,0,1-.06,1.21,1.73,1.73,0,0,1-1.81,1.28A1.83,1.83,0,0,1,51.63,24,5.73,5.73,0,0,1,51.57,22.59Z"/><path class="c" d="M55.46,22.59a5.92,5.92,0,0,1,.08-1.09,1.78,1.78,0,0,1,1.85-1.42,1.69,1.69,0,0,1,1.91,1.36,5.91,5.91,0,0,1,.05,1.24,4.78,4.78,0,0,1-.07,1.21,1.73,1.73,0,0,1-1.8,1.28,1.84,1.84,0,0,1-2-1.19A5.73,5.73,0,0,1,55.46,22.59Z"/><path class="d" d="M36.61,29.28a5.85,5.85,0,0,0-.09-1.09,1.77,1.77,0,0,0-1.85-1.42,1.69,1.69,0,0,0-1.9,1.36,5.94,5.94,0,0,0-.05,1.24,4.8,4.8,0,0,0,.06,1.21,1.74,1.74,0,0,0,1.81,1.28,1.88,1.88,0,0,0,1.94-1.29A4.89,4.89,0,0,0,36.61,29.28Z"/><path class="d" d="M44.32,29.28a5.92,5.92,0,0,0-.08-1.09,1.79,1.79,0,0,0-1.86-1.42,1.69,1.69,0,0,0-1.9,1.36,5.94,5.94,0,0,0,0,1.24,4.78,4.78,0,0,0,.07,1.21,1.73,1.73,0,0,0,1.8,1.28,1.88,1.88,0,0,0,1.94-1.29A4.89,4.89,0,0,0,44.32,29.28Z"/><path class="d" d="M48.21,29.28a5.92,5.92,0,0,0-.08-1.09,1.78,1.78,0,0,0-1.85-1.42,1.69,1.69,0,0,0-1.91,1.36,5.94,5.94,0,0,0,0,1.24,4.78,4.78,0,0,0,.07,1.21,1.73,1.73,0,0,0,1.8,1.28,1.88,1.88,0,0,0,1.94-1.29A4.89,4.89,0,0,0,48.21,29.28Z"/><path class="d" d="M36.57,29.28a5.92,5.92,0,0,1,.08-1.09,1.79,1.79,0,0,1,1.86-1.42,1.69,1.69,0,0,1,1.9,1.36,5.94,5.94,0,0,1,.05,1.24,4.78,4.78,0,0,1-.07,1.21,1.73,1.73,0,0,1-1.8,1.28,1.82,1.82,0,0,1-2-1.19A5.68,5.68,0,0,1,36.57,29.28Z"/><path class="d" d="M21.12,29.28A5.85,5.85,0,0,0,21,28.19a1.78,1.78,0,0,0-1.85-1.42,1.68,1.68,0,0,0-1.9,1.36,5.33,5.33,0,0,0-.05,1.24,4.37,4.37,0,0,0,.06,1.21,1.74,1.74,0,0,0,1.81,1.28A1.86,1.86,0,0,0,21,30.57,4.88,4.88,0,0,0,21.12,29.28Z"/><path class="d" d="M28.83,29.28a5.92,5.92,0,0,0-.08-1.09,1.79,1.79,0,0,0-1.86-1.42A1.69,1.69,0,0,0,25,28.13a5.94,5.94,0,0,0,0,1.24A4.78,4.78,0,0,0,25,30.58a1.73,1.73,0,0,0,1.8,1.28,1.88,1.88,0,0,0,1.94-1.29A4.89,4.89,0,0,0,28.83,29.28Z"/><path class="d" d="M32.72,29.28a5.92,5.92,0,0,0-.08-1.09,1.79,1.79,0,0,0-1.86-1.42,1.69,1.69,0,0,0-1.9,1.36,5.94,5.94,0,0,0-.05,1.24,4.78,4.78,0,0,0,.07,1.21,1.73,1.73,0,0,0,1.8,1.28,1.88,1.88,0,0,0,1.94-1.29A4.89,4.89,0,0,0,32.72,29.28Z"/><path class="d" d="M21.08,29.28a5.92,5.92,0,0,1,.08-1.09A1.78,1.78,0,0,1,23,26.77a1.69,1.69,0,0,1,1.91,1.36,5.39,5.39,0,0,1,0,1.24,4.37,4.37,0,0,1-.06,1.21,1.73,1.73,0,0,1-1.8,1.28,1.83,1.83,0,0,1-2-1.19A5.7,5.7,0,0,1,21.08,29.28Z"/><path class="d" d="M48.19,29.28a5.85,5.85,0,0,1,.09-1.09,1.78,1.78,0,0,1,1.85-1.42A1.68,1.68,0,0,1,52,28.13a5.33,5.33,0,0,1,0,1.24A4.37,4.37,0,0,1,52,30.58a1.74,1.74,0,0,1-1.81,1.28,1.83,1.83,0,0,1-2-1.19A5.68,5.68,0,0,1,48.19,29.28Z"/><path class="d" d="M52.08,29.28a5.85,5.85,0,0,1,.09-1.09A1.78,1.78,0,0,1,54,26.77a1.69,1.69,0,0,1,1.91,1.36,6,6,0,0,1,0,1.24,4.37,4.37,0,0,1-.06,1.21,1.73,1.73,0,0,1-1.81,1.28,1.83,1.83,0,0,1-2-1.19A5.68,5.68,0,0,1,52.08,29.28Z"/><path class="e" d="M34.5,36a5.89,5.89,0,0,0-.09-1.1,1.78,1.78,0,0,0-1.85-1.42,1.68,1.68,0,0,0-1.9,1.36,5.35,5.35,0,0,0-.05,1.24,4.37,4.37,0,0,0,.06,1.21,1.74,1.74,0,0,0,1.81,1.28,1.85,1.85,0,0,0,1.93-1.29A4.8,4.8,0,0,0,34.5,36Z"/><path class="e" d="M42.21,36a6,6,0,0,0-.08-1.1,1.79,1.79,0,0,0-1.86-1.42,1.69,1.69,0,0,0-1.9,1.36,6,6,0,0,0,0,1.24,4.78,4.78,0,0,0,.07,1.21,1.73,1.73,0,0,0,1.8,1.28,1.87,1.87,0,0,0,1.94-1.29A4.82,4.82,0,0,0,42.21,36Z"/><path class="e" d="M46.1,36a6,6,0,0,0-.08-1.1,1.79,1.79,0,0,0-1.86-1.42,1.69,1.69,0,0,0-1.9,1.36,6,6,0,0,0,0,1.24,4.78,4.78,0,0,0,.07,1.21,1.73,1.73,0,0,0,1.8,1.28A1.87,1.87,0,0,0,46,37.26,4.82,4.82,0,0,0,46.1,36Z"/><path class="e" d="M34.46,36a6,6,0,0,1,.08-1.1,1.79,1.79,0,0,1,1.86-1.42,1.69,1.69,0,0,1,1.9,1.36,6,6,0,0,1,.05,1.24,4.78,4.78,0,0,1-.07,1.21,1.73,1.73,0,0,1-1.8,1.28,1.83,1.83,0,0,1-2-1.19A6.19,6.19,0,0,1,34.46,36Z"/><path class="e" d="M19,36a6,6,0,0,0-.08-1.1,1.78,1.78,0,0,0-1.85-1.42,1.69,1.69,0,0,0-1.91,1.36,6,6,0,0,0,0,1.24,4.37,4.37,0,0,0,.06,1.21A1.73,1.73,0,0,0,17,38.55a1.85,1.85,0,0,0,1.93-1.29A4.82,4.82,0,0,0,19,36Z"/><path class="e" d="M26.72,36a5.15,5.15,0,0,0-.09-1.1,1.77,1.77,0,0,0-1.85-1.42,1.69,1.69,0,0,0-1.9,1.36,6,6,0,0,0-.05,1.24,4.36,4.36,0,0,0,.07,1.21,1.72,1.72,0,0,0,1.8,1.28,1.87,1.87,0,0,0,1.94-1.29A4.82,4.82,0,0,0,26.72,36Z"/><path class="e" d="M30.61,36a6,6,0,0,0-.08-1.1,1.79,1.79,0,0,0-1.86-1.42,1.69,1.69,0,0,0-1.9,1.36,6,6,0,0,0-.05,1.24,4.78,4.78,0,0,0,.07,1.21,1.73,1.73,0,0,0,1.8,1.28,1.87,1.87,0,0,0,1.94-1.29A4.82,4.82,0,0,0,30.61,36Z"/><path class="e" d="M19,36a6,6,0,0,1,.08-1.1,1.78,1.78,0,0,1,1.85-1.42,1.69,1.69,0,0,1,1.91,1.36,6,6,0,0,1,0,1.24,4.37,4.37,0,0,1-.06,1.21A1.73,1.73,0,0,1,21,38.55,1.81,1.81,0,0,1,19,37.36,5.65,5.65,0,0,1,19,36Z"/><path class="e" d="M46.08,36a5.89,5.89,0,0,1,.09-1.1A1.78,1.78,0,0,1,48,33.46a1.68,1.68,0,0,1,1.9,1.36,5.35,5.35,0,0,1,0,1.24,4.37,4.37,0,0,1-.06,1.21,1.74,1.74,0,0,1-1.81,1.28,1.81,1.81,0,0,1-2-1.19A5.63,5.63,0,0,1,46.08,36Z"/><path class="e" d="M50,36a5.89,5.89,0,0,1,.09-1.1,1.78,1.78,0,0,1,1.85-1.42,1.68,1.68,0,0,1,1.9,1.36,5.35,5.35,0,0,1,0,1.24,4.37,4.37,0,0,1-.06,1.21A1.74,1.74,0,0,1,52,38.55a1.81,1.81,0,0,1-2-1.19A5.63,5.63,0,0,1,50,36Z"/><path class="a" d="M31.68,42.67a6,6,0,0,0-.08-1.1,1.79,1.79,0,0,0-1.86-1.42,1.7,1.7,0,0,0-1.9,1.36,6,6,0,0,0-.05,1.24A4.78,4.78,0,0,0,27.86,44a1.73,1.73,0,0,0,1.8,1.28A1.87,1.87,0,0,0,31.6,44,4.82,4.82,0,0,0,31.68,42.67Z"/><path class="a" d="M39.4,42.67a6,6,0,0,0-.09-1.1,1.78,1.78,0,0,0-1.85-1.42,1.7,1.7,0,0,0-1.91,1.36,6,6,0,0,0,0,1.24A4.37,4.37,0,0,0,35.57,44a1.73,1.73,0,0,0,1.81,1.28A1.85,1.85,0,0,0,39.31,44,4.8,4.8,0,0,0,39.4,42.67Z"/><path class="a" d="M43.29,42.67a6,6,0,0,0-.09-1.1,1.78,1.78,0,0,0-1.85-1.42,1.68,1.68,0,0,0-1.9,1.36,5.35,5.35,0,0,0-.05,1.24A4.37,4.37,0,0,0,39.46,44a1.74,1.74,0,0,0,1.81,1.28A1.85,1.85,0,0,0,43.2,44,4.8,4.8,0,0,0,43.29,42.67Z"/><path class="a" d="M31.64,42.67a6,6,0,0,1,.09-1.1,1.77,1.77,0,0,1,1.85-1.42,1.69,1.69,0,0,1,1.9,1.36,6,6,0,0,1,.05,1.24A4.8,4.8,0,0,1,35.47,44a1.74,1.74,0,0,1-1.81,1.28,1.81,1.81,0,0,1-1.95-1.19A5.63,5.63,0,0,1,31.64,42.67Z"/><path class="a" d="M16.19,42.67a6,6,0,0,0-.08-1.1,1.79,1.79,0,0,0-1.86-1.42,1.7,1.7,0,0,0-1.9,1.36,6,6,0,0,0,0,1.24A4.78,4.78,0,0,0,12.37,44a1.73,1.73,0,0,0,1.8,1.28A1.87,1.87,0,0,0,16.11,44,4.82,4.82,0,0,0,16.19,42.67Z"/><path class="a" d="M23.9,42.67a6,6,0,0,0-.08-1.1A1.78,1.78,0,0,0,22,40.15a1.7,1.7,0,0,0-1.91,1.36,5.41,5.41,0,0,0,0,1.24A4.37,4.37,0,0,0,20.08,44a1.73,1.73,0,0,0,1.8,1.28A1.86,1.86,0,0,0,23.82,44,4.82,4.82,0,0,0,23.9,42.67Z"/><path class="a" d="M27.79,42.67a6,6,0,0,0-.08-1.1,1.78,1.78,0,0,0-1.85-1.42A1.7,1.7,0,0,0,24,41.51a6,6,0,0,0,0,1.24A4.37,4.37,0,0,0,24,44a1.73,1.73,0,0,0,1.81,1.28A1.85,1.85,0,0,0,27.71,44,4.82,4.82,0,0,0,27.79,42.67Z"/><path class="a" d="M16.15,42.67a6,6,0,0,1,.08-1.1,1.79,1.79,0,0,1,1.86-1.42A1.7,1.7,0,0,1,20,41.51,6,6,0,0,1,20,42.75,4.78,4.78,0,0,1,20,44a1.73,1.73,0,0,1-1.8,1.28,1.81,1.81,0,0,1-2-1.19A5.63,5.63,0,0,1,16.15,42.67Z"/><path class="a" d="M43.27,42.67a6,6,0,0,1,.08-1.1,1.79,1.79,0,0,1,1.86-1.42,1.7,1.7,0,0,1,1.9,1.36,6,6,0,0,1,0,1.24A4.78,4.78,0,0,1,47.09,44a1.73,1.73,0,0,1-1.8,1.28,1.83,1.83,0,0,1-2-1.19A5.65,5.65,0,0,1,43.27,42.67Z"/><path class="a" d="M47.16,42.67a6,6,0,0,1,.08-1.1,1.79,1.79,0,0,1,1.86-1.42A1.7,1.7,0,0,1,51,41.51a6,6,0,0,1,0,1.24A4.78,4.78,0,0,1,51,44a1.73,1.73,0,0,1-1.8,1.28,1.81,1.81,0,0,1-2-1.19A5.63,5.63,0,0,1,47.16,42.67Z"/><path class="b" d="M28.81,49.36a6.1,6.1,0,0,0-.08-1.1,1.79,1.79,0,0,0-1.86-1.42A1.7,1.7,0,0,0,25,48.21a5.91,5.91,0,0,0,0,1.24,4.7,4.7,0,0,0,.07,1.2,1.71,1.71,0,0,0,1.8,1.28,1.87,1.87,0,0,0,1.94-1.29A4.82,4.82,0,0,0,28.81,49.36Z"/><path class="b" d="M36.52,49.36a6.1,6.1,0,0,0-.08-1.1,1.78,1.78,0,0,0-1.85-1.42,1.7,1.7,0,0,0-1.91,1.37,6,6,0,0,0,0,1.24,4.3,4.3,0,0,0,.06,1.2,1.71,1.71,0,0,0,1.8,1.28,1.86,1.86,0,0,0,1.94-1.29A4.82,4.82,0,0,0,36.52,49.36Z"/><path class="b" d="M40.42,49.36a6,6,0,0,0-.09-1.1,1.78,1.78,0,0,0-1.85-1.42,1.7,1.7,0,0,0-1.91,1.37,6,6,0,0,0,0,1.24,4.3,4.3,0,0,0,.06,1.2,1.71,1.71,0,0,0,1.81,1.28,1.85,1.85,0,0,0,1.93-1.29A4.8,4.8,0,0,0,40.42,49.36Z"/><path class="b" d="M28.77,49.36a6.1,6.1,0,0,1,.08-1.1,1.79,1.79,0,0,1,1.86-1.42,1.7,1.7,0,0,1,1.9,1.37,5.91,5.91,0,0,1,0,1.24,4.29,4.29,0,0,1-.07,1.2,1.7,1.7,0,0,1-1.8,1.28,1.8,1.8,0,0,1-1.95-1.18A5.74,5.74,0,0,1,28.77,49.36Z"/><path class="b" d="M13.32,49.36a6,6,0,0,0-.09-1.1,1.77,1.77,0,0,0-1.85-1.42,1.7,1.7,0,0,0-1.9,1.37,5.91,5.91,0,0,0-.05,1.24,4.72,4.72,0,0,0,.06,1.2,1.72,1.72,0,0,0,1.81,1.28,1.87,1.87,0,0,0,1.94-1.29A4.82,4.82,0,0,0,13.32,49.36Z"/><path class="b" d="M21,49.36a6.1,6.1,0,0,0-.08-1.1,1.79,1.79,0,0,0-1.86-1.42,1.7,1.7,0,0,0-1.9,1.37,5.91,5.91,0,0,0-.05,1.24,4.7,4.7,0,0,0,.07,1.2A1.71,1.71,0,0,0,19,51.93,1.87,1.87,0,0,0,21,50.64,4.82,4.82,0,0,0,21,49.36Z"/><path class="b" d="M24.92,49.36a6.1,6.1,0,0,0-.08-1.1A1.78,1.78,0,0,0,23,46.84a1.7,1.7,0,0,0-1.91,1.37,5.91,5.91,0,0,0,0,1.24,4.7,4.7,0,0,0,.07,1.2,1.71,1.71,0,0,0,1.8,1.28,1.87,1.87,0,0,0,1.94-1.29A4.82,4.82,0,0,0,24.92,49.36Z"/><path class="b" d="M13.28,49.36a6.1,6.1,0,0,1,.08-1.1,1.79,1.79,0,0,1,1.86-1.42,1.7,1.7,0,0,1,1.9,1.37,5.91,5.91,0,0,1,.05,1.24,4.7,4.7,0,0,1-.07,1.2,1.71,1.71,0,0,1-1.8,1.28,1.8,1.8,0,0,1-2-1.18A5.74,5.74,0,0,1,13.28,49.36Z"/><path class="b" d="M40.4,49.36a6.1,6.1,0,0,1,.08-1.1,1.78,1.78,0,0,1,1.85-1.42,1.7,1.7,0,0,1,1.91,1.37,6,6,0,0,1,0,1.24,4.3,4.3,0,0,1-.06,1.2,1.71,1.71,0,0,1-1.8,1.28,1.81,1.81,0,0,1-2-1.18A5.75,5.75,0,0,1,40.4,49.36Z"/><path class="b" d="M44.29,49.36a6.1,6.1,0,0,1,.08-1.1,1.78,1.78,0,0,1,1.85-1.42,1.7,1.7,0,0,1,1.91,1.37,5.91,5.91,0,0,1,0,1.24,4.7,4.7,0,0,1-.07,1.2,1.71,1.71,0,0,1-1.8,1.28,1.82,1.82,0,0,1-2-1.18A5.75,5.75,0,0,1,44.29,49.36Z"/><path class="c" d="M24,56.05A5.92,5.92,0,0,0,24,55a1.79,1.79,0,0,0-1.85-1.43,1.7,1.7,0,0,0-1.91,1.37,5.36,5.36,0,0,0,0,1.24,4.37,4.37,0,0,0,.06,1.21A1.71,1.71,0,0,0,22,58.62,1.86,1.86,0,0,0,24,57.33,4.82,4.82,0,0,0,24,56.05Z"/><path class="c" d="M31.75,56.05A5.85,5.85,0,0,0,31.66,55a1.78,1.78,0,0,0-1.85-1.43,1.69,1.69,0,0,0-1.9,1.37,5.91,5.91,0,0,0-.05,1.24,4.8,4.8,0,0,0,.06,1.21,1.72,1.72,0,0,0,1.81,1.27,1.87,1.87,0,0,0,1.94-1.29A4.82,4.82,0,0,0,31.75,56.05Z"/><path class="c" d="M35.64,56.05A5.11,5.11,0,0,0,35.55,55a1.78,1.78,0,0,0-1.85-1.43,1.7,1.7,0,0,0-1.9,1.37,5.91,5.91,0,0,0-.05,1.24,4.36,4.36,0,0,0,.07,1.21,1.7,1.7,0,0,0,1.8,1.27,1.87,1.87,0,0,0,1.94-1.29A4.82,4.82,0,0,0,35.64,56.05Z"/><path class="c" d="M24,56.05A5.85,5.85,0,0,1,24.08,55a1.78,1.78,0,0,1,1.85-1.43,1.7,1.7,0,0,1,1.91,1.37,6,6,0,0,1,0,1.24,4.37,4.37,0,0,1-.06,1.21A1.71,1.71,0,0,1,26,58.62a1.81,1.81,0,0,1-2-1.18A5.74,5.74,0,0,1,24,56.05Z"/><path class="c" d="M8.54,56.05A5.92,5.92,0,0,0,8.46,55,1.79,1.79,0,0,0,6.6,53.53,1.7,1.7,0,0,0,4.7,54.9a5.91,5.91,0,0,0,0,1.24,4.78,4.78,0,0,0,.07,1.21,1.71,1.71,0,0,0,1.8,1.27,1.87,1.87,0,0,0,1.94-1.29A4.82,4.82,0,0,0,8.54,56.05Z"/><path class="c" d="M16.26,56.05A5.85,5.85,0,0,0,16.17,55a1.78,1.78,0,0,0-1.85-1.43,1.7,1.7,0,0,0-1.91,1.37,6,6,0,0,0,0,1.24,4.37,4.37,0,0,0,.06,1.21,1.71,1.71,0,0,0,1.81,1.27,1.85,1.85,0,0,0,1.93-1.29A4.8,4.8,0,0,0,16.26,56.05Z"/><path class="c" d="M20.15,56.05A5.85,5.85,0,0,0,20.06,55a1.78,1.78,0,0,0-1.85-1.43,1.68,1.68,0,0,0-1.9,1.37,5.3,5.3,0,0,0,0,1.24,4.37,4.37,0,0,0,.06,1.21,1.72,1.72,0,0,0,1.81,1.27,1.85,1.85,0,0,0,1.93-1.29A4.8,4.8,0,0,0,20.15,56.05Z"/><path class="c" d="M8.5,56.05A5.85,5.85,0,0,1,8.59,55a1.78,1.78,0,0,1,1.85-1.43,1.69,1.69,0,0,1,1.9,1.37,5.91,5.91,0,0,1,.05,1.24,4.8,4.8,0,0,1-.06,1.21,1.72,1.72,0,0,1-1.81,1.27,1.8,1.8,0,0,1-1.95-1.18A5.74,5.74,0,0,1,8.5,56.05Z"/><path class="c" d="M35.62,56.05A5.92,5.92,0,0,1,35.7,55a1.79,1.79,0,0,1,1.86-1.43,1.7,1.7,0,0,1,1.9,1.37,5.91,5.91,0,0,1,0,1.24,4.78,4.78,0,0,1-.07,1.21,1.71,1.71,0,0,1-1.8,1.27,1.8,1.8,0,0,1-2-1.18A5.74,5.74,0,0,1,35.62,56.05Z"/><path class="c" d="M39.51,56.05A5.92,5.92,0,0,1,39.59,55a1.79,1.79,0,0,1,1.86-1.43,1.7,1.7,0,0,1,1.9,1.37,5.91,5.91,0,0,1,0,1.24,4.36,4.36,0,0,1-.07,1.21,1.7,1.7,0,0,1-1.8,1.27,1.8,1.8,0,0,1-2-1.18A5.74,5.74,0,0,1,39.51,56.05Z"/><path class="d" d="M3.9,62.74a5.85,5.85,0,0,0-.09-1.09A1.78,1.78,0,0,0,2,60.23a1.68,1.68,0,0,0-1.9,1.36,5.33,5.33,0,0,0,0,1.24A4.37,4.37,0,0,0,.07,64a1.74,1.74,0,0,0,1.81,1.28A1.86,1.86,0,0,0,3.81,64,4.88,4.88,0,0,0,3.9,62.74Z"/><path class="d" d="M3.93,62.74A5.92,5.92,0,0,1,4,61.65a1.78,1.78,0,0,1,1.85-1.42,1.69,1.69,0,0,1,1.91,1.36,6,6,0,0,1,0,1.24A4.37,4.37,0,0,1,7.75,64a1.73,1.73,0,0,1-1.81,1.28A1.83,1.83,0,0,1,4,64.13,5.7,5.7,0,0,1,3.93,62.74Z"/><path class="d" d="M39.76,62.74a5.92,5.92,0,0,0-.08-1.09,1.79,1.79,0,0,0-1.86-1.42,1.69,1.69,0,0,0-1.9,1.36,5.94,5.94,0,0,0-.05,1.24A4.78,4.78,0,0,0,35.94,64a1.73,1.73,0,0,0,1.8,1.28A1.88,1.88,0,0,0,39.68,64,4.89,4.89,0,0,0,39.76,62.74Z"/><path class="d" d="M47.47,62.74a5.92,5.92,0,0,0-.08-1.09,1.78,1.78,0,0,0-1.85-1.42,1.69,1.69,0,0,0-1.91,1.36,5.39,5.39,0,0,0,0,1.24A4.37,4.37,0,0,0,43.65,64a1.73,1.73,0,0,0,1.8,1.28A1.87,1.87,0,0,0,47.39,64,4.89,4.89,0,0,0,47.47,62.74Z"/><path class="d" d="M51.36,62.74a5.92,5.92,0,0,0-.08-1.09,1.78,1.78,0,0,0-1.85-1.42,1.69,1.69,0,0,0-1.91,1.36,6,6,0,0,0,0,1.24A4.37,4.37,0,0,0,47.54,64a1.73,1.73,0,0,0,1.81,1.28A1.86,1.86,0,0,0,51.28,64,4.89,4.89,0,0,0,51.36,62.74Z"/><path class="d" d="M39.72,62.74a5.92,5.92,0,0,1,.08-1.09,1.79,1.79,0,0,1,1.86-1.42,1.69,1.69,0,0,1,1.9,1.36,5.94,5.94,0,0,1,0,1.24A4.36,4.36,0,0,1,43.54,64a1.72,1.72,0,0,1-1.8,1.28,1.82,1.82,0,0,1-2-1.19A5.68,5.68,0,0,1,39.72,62.74Z"/><path class="d" d="M32,62.74a5.92,5.92,0,0,0-.08-1.09A1.79,1.79,0,0,0,30,60.23a1.69,1.69,0,0,0-1.9,1.36,5.94,5.94,0,0,0-.05,1.24A4.78,4.78,0,0,0,28.16,64,1.73,1.73,0,0,0,30,65.32,1.88,1.88,0,0,0,31.9,64,4.89,4.89,0,0,0,32,62.74Z"/><path class="d" d="M35.87,62.74a5.92,5.92,0,0,0-.08-1.09,1.78,1.78,0,0,0-1.85-1.42A1.69,1.69,0,0,0,32,61.59,5.94,5.94,0,0,0,32,62.83,4.78,4.78,0,0,0,32.05,64a1.73,1.73,0,0,0,1.8,1.28A1.88,1.88,0,0,0,35.79,64,4.89,4.89,0,0,0,35.87,62.74Z"/><path class="d" d="M24.23,62.74a5.92,5.92,0,0,1,.08-1.09,1.79,1.79,0,0,1,1.86-1.42,1.69,1.69,0,0,1,1.9,1.36,5.94,5.94,0,0,1,.05,1.24A4.78,4.78,0,0,1,28.05,64a1.73,1.73,0,0,1-1.8,1.28,1.82,1.82,0,0,1-1.95-1.19A5.68,5.68,0,0,1,24.23,62.74Z"/><path class="d" d="M51.39,62.74a5.85,5.85,0,0,1,.09-1.09,1.78,1.78,0,0,1,1.85-1.42,1.68,1.68,0,0,1,1.9,1.36,5.33,5.33,0,0,1,.05,1.24A4.37,4.37,0,0,1,55.22,64a1.74,1.74,0,0,1-1.81,1.28,1.83,1.83,0,0,1-1.95-1.19A5.68,5.68,0,0,1,51.39,62.74Z"/><path class="e" d="M62.07,2.52A6,6,0,0,0,62,1.42,1.79,1.79,0,0,0,60.13,0a1.7,1.7,0,0,0-1.9,1.36,6,6,0,0,0,0,1.24,4.78,4.78,0,0,0,.07,1.21,1.73,1.73,0,0,0,1.8,1.28A1.87,1.87,0,0,0,62,3.8,4.82,4.82,0,0,0,62.07,2.52Z"/><path class="e" d="M62.1,2.52a6,6,0,0,1,.08-1.1A1.79,1.79,0,0,1,64,0a1.7,1.7,0,0,1,1.9,1.36A6,6,0,0,1,66,2.6a4.78,4.78,0,0,1-.07,1.21,1.73,1.73,0,0,1-1.8,1.28,1.81,1.81,0,0,1-2-1.19A5.63,5.63,0,0,1,62.1,2.52Z"/><path class="e" d="M29.33,2.52a6,6,0,0,0-.09-1.1A1.78,1.78,0,0,0,27.39,0a1.7,1.7,0,0,0-1.91,1.36,6,6,0,0,0,0,1.24,4.37,4.37,0,0,0,.06,1.21,1.73,1.73,0,0,0,1.81,1.28A1.85,1.85,0,0,0,29.24,3.8,4.8,4.8,0,0,0,29.33,2.52Z"/><path class="e" d="M37,2.52A6,6,0,0,0,37,1.42,1.79,1.79,0,0,0,35.1,0a1.7,1.7,0,0,0-1.9,1.36,6,6,0,0,0-.05,1.24,4.36,4.36,0,0,0,.07,1.21A1.73,1.73,0,0,0,35,5.09,1.87,1.87,0,0,0,37,3.8,4.82,4.82,0,0,0,37,2.52Z"/><path class="e" d="M40.93,2.52a6,6,0,0,0-.08-1.1A1.79,1.79,0,0,0,39,0a1.7,1.7,0,0,0-1.9,1.36A6,6,0,0,0,37,2.6a4.78,4.78,0,0,0,.07,1.21,1.73,1.73,0,0,0,1.8,1.28A1.87,1.87,0,0,0,40.85,3.8,4.82,4.82,0,0,0,40.93,2.52Z"/><path class="e" d="M29.29,2.52a6,6,0,0,1,.08-1.1A1.78,1.78,0,0,1,31.22,0a1.7,1.7,0,0,1,1.91,1.36,5.41,5.41,0,0,1,0,1.24,4.37,4.37,0,0,1-.06,1.21,1.73,1.73,0,0,1-1.8,1.28,1.82,1.82,0,0,1-2-1.19A5.65,5.65,0,0,1,29.29,2.52Z"/><path class="e" d="M21.55,2.52a6,6,0,0,0-.09-1.1A1.78,1.78,0,0,0,19.61,0a1.68,1.68,0,0,0-1.9,1.36,5.35,5.35,0,0,0-.05,1.24,4.8,4.8,0,0,0,.06,1.21,1.74,1.74,0,0,0,1.81,1.28A1.87,1.87,0,0,0,21.47,3.8,4.82,4.82,0,0,0,21.55,2.52Z"/><path class="e" d="M25.44,2.52a5.2,5.2,0,0,0-.09-1.1A1.77,1.77,0,0,0,23.5,0a1.7,1.7,0,0,0-1.9,1.36,6,6,0,0,0-.05,1.24,4.36,4.36,0,0,0,.07,1.21,1.72,1.72,0,0,0,1.8,1.28A1.87,1.87,0,0,0,25.36,3.8,4.82,4.82,0,0,0,25.44,2.52Z"/><path class="e" d="M13.79,2.52a6,6,0,0,1,.09-1.1A1.78,1.78,0,0,1,15.73,0a1.7,1.7,0,0,1,1.91,1.36,6,6,0,0,1,0,1.24,4.37,4.37,0,0,1-.06,1.21,1.74,1.74,0,0,1-1.81,1.28,1.81,1.81,0,0,1-2-1.19A5.63,5.63,0,0,1,13.79,2.52Z"/><path class="e" d="M41,2.52A6,6,0,0,1,41,1.42,1.79,1.79,0,0,1,42.9,0a1.7,1.7,0,0,1,1.9,1.36,6,6,0,0,1,.05,1.24,4.78,4.78,0,0,1-.07,1.21A1.73,1.73,0,0,1,43,5.09,1.81,1.81,0,0,1,41,3.9,5.63,5.63,0,0,1,41,2.52Z"/></svg>