<svg xmlns="http://www.w3.org/2000/svg" width="66.12" height="65.32" viewBox="0 0 66.12 65.32"><defs><style>.a{fill:#fbf175;}.b{fill:#889bcf;}.c{fill:#86aca8;}.d{fill:#ffd69f;}.e{fill:#eb666a;}</style></defs><title>Asset 83</title><path class="a" d="M36.24,62.74a5.85,5.85,0,0,0-.09-1.09,1.78,1.78,0,0,0-1.85-1.42,1.69,1.69,0,0,0-1.91,1.36,6,6,0,0,0,0,1.24A4.37,4.37,0,0,0,32.41,64a1.73,1.73,0,0,0,1.81,1.28A1.86,1.86,0,0,0,36.15,64,4.88,4.88,0,0,0,36.24,62.74Z"/><path class="a" d="M44,62.74a5.92,5.92,0,0,0-.08-1.09A1.79,1.79,0,0,0,42,60.23a1.69,1.69,0,0,0-1.9,1.36,5.94,5.94,0,0,0,0,1.24A4.36,4.36,0,0,0,40.13,64a1.72,1.72,0,0,0,1.8,1.28A1.88,1.88,0,0,0,43.87,64,4.89,4.89,0,0,0,44,62.74Z"/><path class="a" d="M47.84,62.74a5.92,5.92,0,0,0-.08-1.09,1.79,1.79,0,0,0-1.86-1.42A1.69,1.69,0,0,0,44,61.59a5.94,5.94,0,0,0,0,1.24A4.78,4.78,0,0,0,44,64a1.73,1.73,0,0,0,1.8,1.28A1.88,1.88,0,0,0,47.76,64,4.89,4.89,0,0,0,47.84,62.74Z"/><path class="a" d="M36.2,62.71a5.92,5.92,0,0,1,.08-1.09,1.78,1.78,0,0,1,1.85-1.42A1.69,1.69,0,0,1,40,61.56a6,6,0,0,1,0,1.24A4.37,4.37,0,0,1,40,64a1.73,1.73,0,0,1-1.8,1.28,1.82,1.82,0,0,1-2-1.19A5.7,5.7,0,0,1,36.2,62.71Z"/><path class="a" d="M20.74,62.74a5.92,5.92,0,0,0-.08-1.09,1.78,1.78,0,0,0-1.85-1.42,1.69,1.69,0,0,0-1.91,1.36,5.94,5.94,0,0,0,0,1.24A4.78,4.78,0,0,0,16.92,64a1.73,1.73,0,0,0,1.8,1.28A1.88,1.88,0,0,0,20.66,64,4.89,4.89,0,0,0,20.74,62.74Z"/><path class="a" d="M28.46,62.74a5.85,5.85,0,0,0-.09-1.09,1.78,1.78,0,0,0-1.85-1.42,1.68,1.68,0,0,0-1.9,1.36,5.33,5.33,0,0,0-.05,1.24A4.37,4.37,0,0,0,24.63,64a1.74,1.74,0,0,0,1.81,1.28A1.86,1.86,0,0,0,28.37,64,4.88,4.88,0,0,0,28.46,62.74Z"/><path class="a" d="M32.35,62.74a5.85,5.85,0,0,0-.09-1.09,1.77,1.77,0,0,0-1.85-1.42,1.69,1.69,0,0,0-1.9,1.36,5.94,5.94,0,0,0-.05,1.24A4.8,4.8,0,0,0,28.52,64a1.74,1.74,0,0,0,1.81,1.28A1.88,1.88,0,0,0,32.27,64,4.89,4.89,0,0,0,32.35,62.74Z"/><path class="a" d="M20.7,62.71a5.85,5.85,0,0,1,.09-1.09,1.78,1.78,0,0,1,1.85-1.42,1.68,1.68,0,0,1,1.9,1.36,5.35,5.35,0,0,1,.05,1.24A4.37,4.37,0,0,1,24.53,64a1.74,1.74,0,0,1-1.81,1.28,1.81,1.81,0,0,1-1.95-1.19A5.68,5.68,0,0,1,20.7,62.71Z"/><path class="a" d="M47.82,62.67a5.2,5.2,0,0,1,.09-1.1,1.77,1.77,0,0,1,1.85-1.42,1.7,1.7,0,0,1,1.9,1.36,6,6,0,0,1,.05,1.24A4.36,4.36,0,0,1,51.64,64a1.72,1.72,0,0,1-1.8,1.28,1.81,1.81,0,0,1-2-1.19A5.63,5.63,0,0,1,47.82,62.67Z"/><path class="a" d="M51.71,62.67a6,6,0,0,1,.09-1.1,1.77,1.77,0,0,1,1.85-1.42,1.7,1.7,0,0,1,1.9,1.36,6,6,0,0,1,.05,1.24A4.8,4.8,0,0,1,55.54,64a1.74,1.74,0,0,1-1.81,1.28,1.81,1.81,0,0,1-1.95-1.19A5.63,5.63,0,0,1,51.71,62.67Z"/><path class="b" d="M15.53,36a5.92,5.92,0,0,1,.08-1.09,1.79,1.79,0,0,1,1.86-1.42,1.69,1.69,0,0,1,1.9,1.36,5.94,5.94,0,0,1,.05,1.24,4.78,4.78,0,0,1-.07,1.21,1.73,1.73,0,0,1-1.8,1.28,1.88,1.88,0,0,1-1.94-1.29A4.89,4.89,0,0,1,15.53,36Z"/><path class="b" d="M7.82,36a5.92,5.92,0,0,1,.08-1.09,1.78,1.78,0,0,1,1.85-1.42,1.69,1.69,0,0,1,1.91,1.36,5.39,5.39,0,0,1,0,1.24,4.37,4.37,0,0,1-.06,1.21,1.73,1.73,0,0,1-1.8,1.28A1.87,1.87,0,0,1,7.9,37.26,4.89,4.89,0,0,1,7.82,36Z"/><path class="b" d="M3.93,36A5.92,5.92,0,0,1,4,34.88a1.78,1.78,0,0,1,1.85-1.42,1.69,1.69,0,0,1,1.91,1.36,6,6,0,0,1,0,1.24,4.37,4.37,0,0,1-.06,1.21,1.73,1.73,0,0,1-1.81,1.28A1.86,1.86,0,0,1,4,37.26,4.89,4.89,0,0,1,3.93,36Z"/><path class="b" d="M15.57,36a6,6,0,0,0-.08-1.1,1.79,1.79,0,0,0-1.86-1.42,1.7,1.7,0,0,0-1.9,1.36A6,6,0,0,0,11.68,36a4.78,4.78,0,0,0,.07,1.21,1.73,1.73,0,0,0,1.8,1.28,1.81,1.81,0,0,0,1.95-1.19A5.63,5.63,0,0,0,15.57,36Z"/><path class="b" d="M31,36a5.85,5.85,0,0,1,.09-1.09A1.77,1.77,0,0,1,33,33.46a1.68,1.68,0,0,1,1.9,1.36,5.94,5.94,0,0,1,0,1.24,4.8,4.8,0,0,1-.06,1.21A1.74,1.74,0,0,1,33,38.55a1.88,1.88,0,0,1-1.94-1.29A4.89,4.89,0,0,1,31,36Z"/><path class="b" d="M23.31,36a5.92,5.92,0,0,1,.08-1.09,1.79,1.79,0,0,1,1.86-1.42,1.69,1.69,0,0,1,1.9,1.36,5.94,5.94,0,0,1,.05,1.24,4.78,4.78,0,0,1-.07,1.21,1.73,1.73,0,0,1-1.8,1.28,1.88,1.88,0,0,1-1.94-1.29A4.89,4.89,0,0,1,23.31,36Z"/><path class="b" d="M19.42,36a5.92,5.92,0,0,1,.08-1.09,1.79,1.79,0,0,1,1.86-1.42,1.69,1.69,0,0,1,1.9,1.36,5.94,5.94,0,0,1,0,1.24,4.78,4.78,0,0,1-.07,1.21,1.73,1.73,0,0,1-1.8,1.28,1.88,1.88,0,0,1-1.94-1.29A4.89,4.89,0,0,1,19.42,36Z"/><path class="b" d="M31.06,36a6,6,0,0,0-.08-1.1,1.79,1.79,0,0,0-1.86-1.42,1.7,1.7,0,0,0-1.9,1.36,6,6,0,0,0,0,1.24,4.78,4.78,0,0,0,.07,1.21A1.73,1.73,0,0,0,29,38.52,1.81,1.81,0,0,0,31,37.33,5.63,5.63,0,0,0,31.06,36Z"/><path class="b" d="M3.9,36a6,6,0,0,0-.09-1.1A1.78,1.78,0,0,0,2,33.43a1.68,1.68,0,0,0-1.9,1.36A5.35,5.35,0,0,0,0,36a4.37,4.37,0,0,0,.06,1.21,1.74,1.74,0,0,0,1.81,1.28,1.81,1.81,0,0,0,2-1.19A5.63,5.63,0,0,0,3.9,36Z"/><path class="b" d="M66.11,36A5.85,5.85,0,0,0,66,34.87a1.78,1.78,0,0,0-1.85-1.43,1.7,1.7,0,0,0-1.9,1.37,5.91,5.91,0,0,0-.05,1.24,4.82,4.82,0,0,0,.06,1.21,1.72,1.72,0,0,0,1.81,1.27,1.8,1.8,0,0,0,2-1.18A5.74,5.74,0,0,0,66.11,36Z"/><path class="c" d="M27.7,56a5.92,5.92,0,0,0-.08-1.09,1.78,1.78,0,0,0-1.85-1.42,1.69,1.69,0,0,0-1.91,1.36,5.94,5.94,0,0,0-.05,1.24,4.78,4.78,0,0,0,.07,1.21,1.73,1.73,0,0,0,1.8,1.28,1.87,1.87,0,0,0,1.94-1.3A4.79,4.79,0,0,0,27.7,56Z"/><path class="c" d="M35.42,56a5.85,5.85,0,0,0-.09-1.09,1.78,1.78,0,0,0-1.85-1.42,1.68,1.68,0,0,0-1.9,1.36,5.33,5.33,0,0,0,0,1.24,4.37,4.37,0,0,0,.06,1.21,1.74,1.74,0,0,0,1.81,1.28,1.86,1.86,0,0,0,1.93-1.3A4.77,4.77,0,0,0,35.42,56Z"/><path class="c" d="M39.31,56a5.85,5.85,0,0,0-.09-1.09,1.77,1.77,0,0,0-1.85-1.42,1.69,1.69,0,0,0-1.9,1.36,5.94,5.94,0,0,0,0,1.24,4.8,4.8,0,0,0,.06,1.21,1.74,1.74,0,0,0,1.81,1.28,1.88,1.88,0,0,0,1.94-1.3A4.79,4.79,0,0,0,39.31,56Z"/><path class="c" d="M27.66,56a5.85,5.85,0,0,1,.09-1.09,1.78,1.78,0,0,1,1.85-1.42,1.68,1.68,0,0,1,1.9,1.36,5.35,5.35,0,0,1,.05,1.24,4.37,4.37,0,0,1-.06,1.21,1.74,1.74,0,0,1-1.81,1.28,1.83,1.83,0,0,1-1.95-1.19A5.68,5.68,0,0,1,27.66,56Z"/><path class="c" d="M12.21,56a5.92,5.92,0,0,0-.08-1.09,1.79,1.79,0,0,0-1.86-1.42,1.69,1.69,0,0,0-1.9,1.36,5.94,5.94,0,0,0,0,1.24,4.78,4.78,0,0,0,.07,1.21,1.73,1.73,0,0,0,1.8,1.28,1.88,1.88,0,0,0,1.94-1.3A4.79,4.79,0,0,0,12.21,56Z"/><path class="c" d="M19.92,56a5.92,5.92,0,0,0-.08-1.09A1.78,1.78,0,0,0,18,53.52a1.69,1.69,0,0,0-1.91,1.36,6,6,0,0,0,0,1.24,4.37,4.37,0,0,0,.06,1.21,1.73,1.73,0,0,0,1.81,1.28,1.86,1.86,0,0,0,1.93-1.3A4.79,4.79,0,0,0,19.92,56Z"/><path class="c" d="M23.82,56a5.85,5.85,0,0,0-.09-1.09,1.78,1.78,0,0,0-1.85-1.42A1.69,1.69,0,0,0,20,54.88a6,6,0,0,0,0,1.24A4.37,4.37,0,0,0,20,57.33a1.74,1.74,0,0,0,1.81,1.28,1.86,1.86,0,0,0,1.93-1.3A4.77,4.77,0,0,0,23.82,56Z"/><path class="c" d="M12.17,56a5.11,5.11,0,0,1,.09-1.09,1.77,1.77,0,0,1,1.85-1.42A1.69,1.69,0,0,1,16,54.85a6,6,0,0,1,0,1.24A4.36,4.36,0,0,1,16,57.3a1.72,1.72,0,0,1-1.8,1.28,1.82,1.82,0,0,1-1.95-1.19A5.68,5.68,0,0,1,12.17,56Z"/><path class="c" d="M39.34,56a5.92,5.92,0,0,1,.08-1.09,1.78,1.78,0,0,1,1.85-1.42,1.69,1.69,0,0,1,1.91,1.36,6,6,0,0,1,0,1.24,4.78,4.78,0,0,1-.07,1.21,1.73,1.73,0,0,1-1.8,1.28,1.84,1.84,0,0,1-2-1.19A5.7,5.7,0,0,1,39.34,56Z"/><path class="c" d="M57,56a5.26,5.26,0,0,1,.09-1.1,1.77,1.77,0,0,1,1.85-1.42,1.7,1.7,0,0,1,1.9,1.37,5.91,5.91,0,0,1,.05,1.24,4.29,4.29,0,0,1-.07,1.2A1.7,1.7,0,0,1,59,58.59,1.8,1.8,0,0,1,57,57.4,5.63,5.63,0,0,1,57,56Z"/><path class="d" d="M22.78,49.34a6,6,0,0,0-.09-1.1,1.77,1.77,0,0,0-1.85-1.42,1.7,1.7,0,0,0-1.9,1.36,6,6,0,0,0-.05,1.24A4.8,4.8,0,0,0,19,50.63a1.74,1.74,0,0,0,1.81,1.28,1.87,1.87,0,0,0,1.94-1.29A4.82,4.82,0,0,0,22.78,49.34Z"/><path class="d" d="M30.49,49.34a6,6,0,0,0-.08-1.1,1.79,1.79,0,0,0-1.86-1.42,1.7,1.7,0,0,0-1.9,1.36,6,6,0,0,0,0,1.24,4.78,4.78,0,0,0,.07,1.21,1.73,1.73,0,0,0,1.8,1.28,1.87,1.87,0,0,0,1.94-1.29A4.82,4.82,0,0,0,30.49,49.34Z"/><path class="d" d="M34.38,49.34a6,6,0,0,0-.08-1.1,1.79,1.79,0,0,0-1.86-1.42,1.7,1.7,0,0,0-1.9,1.36,6,6,0,0,0-.05,1.24,4.78,4.78,0,0,0,.07,1.21,1.73,1.73,0,0,0,1.8,1.28,1.87,1.87,0,0,0,1.94-1.29A4.82,4.82,0,0,0,34.38,49.34Z"/><path class="d" d="M22.74,49.31a6.1,6.1,0,0,1,.08-1.1,1.79,1.79,0,0,1,1.86-1.42,1.7,1.7,0,0,1,1.9,1.37,5.91,5.91,0,0,1,.05,1.24,4.7,4.7,0,0,1-.07,1.2,1.71,1.71,0,0,1-1.8,1.28,1.8,1.8,0,0,1-2-1.19A5.63,5.63,0,0,1,22.74,49.31Z"/><path class="d" d="M7.29,49.34a6,6,0,0,0-.09-1.1,1.78,1.78,0,0,0-1.85-1.42,1.7,1.7,0,0,0-1.91,1.36,6,6,0,0,0,0,1.24,4.37,4.37,0,0,0,.06,1.21,1.74,1.74,0,0,0,1.81,1.28A1.85,1.85,0,0,0,7.2,50.62,4.8,4.8,0,0,0,7.29,49.34Z"/><path class="d" d="M15,49.34a6,6,0,0,0-.08-1.1,1.79,1.79,0,0,0-1.86-1.42,1.7,1.7,0,0,0-1.9,1.36,6,6,0,0,0-.05,1.24,4.78,4.78,0,0,0,.07,1.21A1.73,1.73,0,0,0,13,51.91a1.87,1.87,0,0,0,1.94-1.29A4.82,4.82,0,0,0,15,49.34Z"/><path class="d" d="M18.89,49.34a6,6,0,0,0-.08-1.1A1.79,1.79,0,0,0,17,46.82a1.7,1.7,0,0,0-1.9,1.36A6,6,0,0,0,15,49.42a4.78,4.78,0,0,0,.07,1.21,1.73,1.73,0,0,0,1.8,1.28,1.87,1.87,0,0,0,1.94-1.29A4.82,4.82,0,0,0,18.89,49.34Z"/><path class="d" d="M7.25,49.31a6.1,6.1,0,0,1,.08-1.1,1.78,1.78,0,0,1,1.85-1.42,1.7,1.7,0,0,1,1.91,1.37,5.36,5.36,0,0,1,0,1.24,4.3,4.3,0,0,1-.06,1.2,1.71,1.71,0,0,1-1.8,1.28,1.81,1.81,0,0,1-2-1.19A5.65,5.65,0,0,1,7.25,49.31Z"/><path class="d" d="M34.36,49.36a6,6,0,0,1,.09-1.1,1.78,1.78,0,0,1,1.85-1.42,1.68,1.68,0,0,1,1.9,1.36,5.35,5.35,0,0,1,0,1.24,4.37,4.37,0,0,1-.06,1.21,1.74,1.74,0,0,1-1.81,1.28,1.81,1.81,0,0,1-2-1.19A5.63,5.63,0,0,1,34.36,49.36Z"/><path class="d" d="M60.47,49.33a5.92,5.92,0,0,1,.08-1.09,1.79,1.79,0,0,1,1.86-1.42,1.69,1.69,0,0,1,1.9,1.36,5.94,5.94,0,0,1,0,1.24,4.78,4.78,0,0,1-.07,1.21,1.73,1.73,0,0,1-1.8,1.28,1.82,1.82,0,0,1-2-1.19A5.68,5.68,0,0,1,60.47,49.33Z"/><path class="e" d="M19.39,42.66a5.11,5.11,0,0,0-.09-1.09,1.78,1.78,0,0,0-1.85-1.43,1.7,1.7,0,0,0-1.9,1.37,5.91,5.91,0,0,0-.05,1.24A4.39,4.39,0,0,0,15.57,44a1.7,1.7,0,0,0,1.8,1.27,1.87,1.87,0,0,0,1.94-1.29A4.82,4.82,0,0,0,19.39,42.66Z"/><path class="e" d="M27.1,42.66A5.92,5.92,0,0,0,27,41.57a1.79,1.79,0,0,0-1.86-1.43,1.7,1.7,0,0,0-1.9,1.37,5.91,5.91,0,0,0-.05,1.24A4.81,4.81,0,0,0,23.28,44a1.71,1.71,0,0,0,1.8,1.27A1.87,1.87,0,0,0,27,43.94,4.82,4.82,0,0,0,27.1,42.66Z"/><path class="e" d="M31,42.66a5.92,5.92,0,0,0-.08-1.09,1.79,1.79,0,0,0-1.85-1.43,1.7,1.7,0,0,0-1.91,1.37,5.36,5.36,0,0,0,0,1.24A4.39,4.39,0,0,0,27.17,44,1.71,1.71,0,0,0,29,45.23a1.86,1.86,0,0,0,1.94-1.29A4.82,4.82,0,0,0,31,42.66Z"/><path class="e" d="M19.35,42.63a5.92,5.92,0,0,1,.08-1.09,1.79,1.79,0,0,1,1.86-1.42,1.69,1.69,0,0,1,1.9,1.36,5.94,5.94,0,0,1,0,1.24,4.78,4.78,0,0,1-.07,1.21,1.73,1.73,0,0,1-1.8,1.28A1.82,1.82,0,0,1,19.42,44,5.68,5.68,0,0,1,19.35,42.63Z"/><path class="e" d="M3.9,42.66a5.85,5.85,0,0,0-.09-1.09A1.78,1.78,0,0,0,2,40.14a1.68,1.68,0,0,0-1.9,1.37,5.3,5.3,0,0,0,0,1.24A4.39,4.39,0,0,0,.07,44a1.72,1.72,0,0,0,1.81,1.27,1.85,1.85,0,0,0,1.93-1.29A4.8,4.8,0,0,0,3.9,42.66Z"/><path class="e" d="M11.61,42.66a5.92,5.92,0,0,0-.08-1.09,1.79,1.79,0,0,0-1.86-1.43,1.7,1.7,0,0,0-1.9,1.37,5.91,5.91,0,0,0,0,1.24A4.81,4.81,0,0,0,7.79,44a1.71,1.71,0,0,0,1.8,1.27,1.87,1.87,0,0,0,1.94-1.29A4.82,4.82,0,0,0,11.61,42.66Z"/><path class="e" d="M15.5,42.66a5.92,5.92,0,0,0-.08-1.09,1.79,1.79,0,0,0-1.86-1.43,1.7,1.7,0,0,0-1.9,1.37,5.91,5.91,0,0,0-.05,1.24A4.81,4.81,0,0,0,11.68,44a1.71,1.71,0,0,0,1.8,1.27,1.87,1.87,0,0,0,1.94-1.29A4.82,4.82,0,0,0,15.5,42.66Z"/><path class="e" d="M3.86,42.63a5.92,5.92,0,0,1,.08-1.09,1.78,1.78,0,0,1,1.85-1.42A1.69,1.69,0,0,1,7.7,41.48a5.94,5.94,0,0,1,0,1.24,4.78,4.78,0,0,1-.07,1.21,1.73,1.73,0,0,1-1.8,1.28,1.84,1.84,0,0,1-2-1.19A5.7,5.7,0,0,1,3.86,42.63Z"/><path class="e" d="M31,42.63a5.85,5.85,0,0,1,.09-1.09A1.77,1.77,0,0,1,33,40.12a1.68,1.68,0,0,1,1.9,1.36,5.94,5.94,0,0,1,0,1.24,4.8,4.8,0,0,1-.06,1.21A1.74,1.74,0,0,1,33,45.21,1.82,1.82,0,0,1,31.09,44,5.68,5.68,0,0,1,31,42.63Z"/><path class="e" d="M62.22,42.65a6,6,0,0,1,.08-1.1,1.79,1.79,0,0,1,1.86-1.42,1.7,1.7,0,0,1,1.9,1.36,6,6,0,0,1,0,1.24A4.78,4.78,0,0,1,66,43.94a1.73,1.73,0,0,1-1.8,1.28A1.81,1.81,0,0,1,62.29,44,5.63,5.63,0,0,1,62.22,42.65Z"/><path class="a" d="M19.39,29.29a5.26,5.26,0,0,0-.09-1.1,1.77,1.77,0,0,0-1.85-1.42,1.7,1.7,0,0,0-1.9,1.36,6,6,0,0,0-.05,1.25,4.29,4.29,0,0,0,.07,1.2,1.71,1.71,0,0,0,1.8,1.28,1.87,1.87,0,0,0,1.94-1.29A4.82,4.82,0,0,0,19.39,29.29Z"/><path class="a" d="M27.1,29.29a6.1,6.1,0,0,0-.08-1.1,1.79,1.79,0,0,0-1.86-1.42,1.7,1.7,0,0,0-1.9,1.36,6,6,0,0,0-.05,1.25,4.7,4.7,0,0,0,.07,1.2,1.72,1.72,0,0,0,1.8,1.28A1.87,1.87,0,0,0,27,30.57,4.82,4.82,0,0,0,27.1,29.29Z"/><path class="a" d="M31,29.29a6.1,6.1,0,0,0-.08-1.1,1.78,1.78,0,0,0-1.85-1.42,1.7,1.7,0,0,0-1.91,1.36,5.48,5.48,0,0,0,0,1.25,4.3,4.3,0,0,0,.06,1.2A1.72,1.72,0,0,0,29,31.86a1.86,1.86,0,0,0,1.94-1.29A4.82,4.82,0,0,0,31,29.29Z"/><path class="a" d="M19.35,29.26a5.92,5.92,0,0,1,.08-1.09,1.79,1.79,0,0,1,1.86-1.43,1.7,1.7,0,0,1,1.9,1.37,5.91,5.91,0,0,1,0,1.24,4.81,4.81,0,0,1-.07,1.21,1.71,1.71,0,0,1-1.8,1.27,1.8,1.8,0,0,1-1.95-1.18A5.74,5.74,0,0,1,19.35,29.26Z"/><path class="a" d="M3.9,29.29a6,6,0,0,0-.09-1.1A1.78,1.78,0,0,0,2,26.77a1.68,1.68,0,0,0-1.9,1.36,5.41,5.41,0,0,0,0,1.25,4.3,4.3,0,0,0,.06,1.2,1.73,1.73,0,0,0,1.81,1.28,1.85,1.85,0,0,0,1.93-1.29A4.8,4.8,0,0,0,3.9,29.29Z"/><path class="a" d="M11.61,29.29a6.1,6.1,0,0,0-.08-1.1,1.79,1.79,0,0,0-1.86-1.42,1.7,1.7,0,0,0-1.9,1.36,6,6,0,0,0,0,1.25,4.7,4.7,0,0,0,.07,1.2,1.72,1.72,0,0,0,1.8,1.28,1.87,1.87,0,0,0,1.94-1.29A4.82,4.82,0,0,0,11.61,29.29Z"/><path class="a" d="M15.5,29.29a6.1,6.1,0,0,0-.08-1.1,1.79,1.79,0,0,0-1.86-1.42,1.7,1.7,0,0,0-1.9,1.36,6,6,0,0,0-.05,1.25,4.7,4.7,0,0,0,.07,1.2,1.72,1.72,0,0,0,1.8,1.28,1.87,1.87,0,0,0,1.94-1.29A4.82,4.82,0,0,0,15.5,29.29Z"/><path class="a" d="M3.86,29.26a5.92,5.92,0,0,1,.08-1.09,1.79,1.79,0,0,1,1.85-1.43A1.7,1.7,0,0,1,7.7,28.11a5.91,5.91,0,0,1,0,1.24,4.81,4.81,0,0,1-.07,1.21,1.71,1.71,0,0,1-1.8,1.27,1.82,1.82,0,0,1-2-1.18A5.75,5.75,0,0,1,3.86,29.26Z"/><path class="a" d="M31,29.26a5.85,5.85,0,0,1,.09-1.09A1.78,1.78,0,0,1,33,26.74a1.69,1.69,0,0,1,1.9,1.37,5.91,5.91,0,0,1,0,1.24,4.82,4.82,0,0,1-.06,1.21A1.72,1.72,0,0,1,33,31.83a1.8,1.8,0,0,1-1.95-1.18A5.74,5.74,0,0,1,31,29.26Z"/><path class="a" d="M62.22,29.27a5.92,5.92,0,0,1,.08-1.09,1.79,1.79,0,0,1,1.86-1.42,1.69,1.69,0,0,1,1.9,1.36,5.94,5.94,0,0,1,0,1.24A4.78,4.78,0,0,1,66,30.57a1.73,1.73,0,0,1-1.8,1.28,1.82,1.82,0,0,1-1.95-1.19A5.68,5.68,0,0,1,62.22,29.27Z"/><path class="c" d="M19.39,22.6a5.11,5.11,0,0,0-.09-1.09,1.77,1.77,0,0,0-1.85-1.42,1.69,1.69,0,0,0-1.9,1.36,5.91,5.91,0,0,0-.05,1.24,4.36,4.36,0,0,0,.07,1.21,1.72,1.72,0,0,0,1.8,1.28,1.88,1.88,0,0,0,1.94-1.3A4.79,4.79,0,0,0,19.39,22.6Z"/><path class="c" d="M27.1,22.6A5.92,5.92,0,0,0,27,21.51a1.79,1.79,0,0,0-1.86-1.42,1.69,1.69,0,0,0-1.9,1.36,5.91,5.91,0,0,0-.05,1.24,4.78,4.78,0,0,0,.07,1.21,1.73,1.73,0,0,0,1.8,1.28A1.87,1.87,0,0,0,27,23.88,4.79,4.79,0,0,0,27.1,22.6Z"/><path class="c" d="M31,22.6a5.92,5.92,0,0,0-.08-1.09,1.78,1.78,0,0,0-1.85-1.42,1.69,1.69,0,0,0-1.91,1.36,5.36,5.36,0,0,0,0,1.24,4.37,4.37,0,0,0,.06,1.21A1.73,1.73,0,0,0,29,25.18a1.86,1.86,0,0,0,1.94-1.3A4.79,4.79,0,0,0,31,22.6Z"/><path class="c" d="M19.35,22.57a5.92,5.92,0,0,1,.08-1.09,1.79,1.79,0,0,1,1.86-1.42,1.69,1.69,0,0,1,1.9,1.36,5.94,5.94,0,0,1,0,1.24,4.78,4.78,0,0,1-.07,1.21,1.73,1.73,0,0,1-1.8,1.28A1.82,1.82,0,0,1,19.42,24,5.68,5.68,0,0,1,19.35,22.57Z"/><path class="c" d="M3.9,22.6a5.85,5.85,0,0,0-.09-1.09A1.78,1.78,0,0,0,2,20.09a1.68,1.68,0,0,0-1.9,1.36,5.3,5.3,0,0,0,0,1.24A4.37,4.37,0,0,0,.07,23.9a1.74,1.74,0,0,0,1.81,1.28,1.86,1.86,0,0,0,1.93-1.3A4.77,4.77,0,0,0,3.9,22.6Z"/><path class="c" d="M11.61,22.6a5.92,5.92,0,0,0-.08-1.09,1.79,1.79,0,0,0-1.86-1.42,1.69,1.69,0,0,0-1.9,1.36,5.91,5.91,0,0,0,0,1.24,4.78,4.78,0,0,0,.07,1.21,1.73,1.73,0,0,0,1.8,1.28,1.88,1.88,0,0,0,1.94-1.3A4.79,4.79,0,0,0,11.61,22.6Z"/><path class="c" d="M15.5,22.6a5.92,5.92,0,0,0-.08-1.09,1.79,1.79,0,0,0-1.86-1.42,1.69,1.69,0,0,0-1.9,1.36,5.91,5.91,0,0,0-.05,1.24,4.78,4.78,0,0,0,.07,1.21,1.73,1.73,0,0,0,1.8,1.28,1.88,1.88,0,0,0,1.94-1.3A4.79,4.79,0,0,0,15.5,22.6Z"/><path class="c" d="M3.86,22.57a5.92,5.92,0,0,1,.08-1.09,1.78,1.78,0,0,1,1.85-1.42A1.69,1.69,0,0,1,7.7,21.42a5.94,5.94,0,0,1,0,1.24,4.78,4.78,0,0,1-.07,1.21,1.73,1.73,0,0,1-1.8,1.28,1.84,1.84,0,0,1-2-1.19A5.7,5.7,0,0,1,3.86,22.57Z"/><path class="c" d="M31,22.57a5.85,5.85,0,0,1,.09-1.09A1.77,1.77,0,0,1,33,20.06a1.68,1.68,0,0,1,1.9,1.36,5.94,5.94,0,0,1,0,1.24,4.8,4.8,0,0,1-.06,1.21A1.74,1.74,0,0,1,33,25.15,1.82,1.82,0,0,1,31.09,24,5.68,5.68,0,0,1,31,22.57Z"/><path class="c" d="M62.22,22.59a6.1,6.1,0,0,1,.08-1.1,1.79,1.79,0,0,1,1.86-1.42,1.7,1.7,0,0,1,1.9,1.36,6,6,0,0,1,0,1.25,4.7,4.7,0,0,1-.07,1.2,1.72,1.72,0,0,1-1.8,1.28A1.8,1.8,0,0,1,62.29,24,5.63,5.63,0,0,1,62.22,22.59Z"/><path class="d" d="M19.39,15.92a5.2,5.2,0,0,0-.09-1.1,1.77,1.77,0,0,0-1.85-1.42,1.7,1.7,0,0,0-1.9,1.36A6,6,0,0,0,15.5,16a4.36,4.36,0,0,0,.07,1.21,1.72,1.72,0,0,0,1.8,1.28,1.87,1.87,0,0,0,1.94-1.29A4.82,4.82,0,0,0,19.39,15.92Z"/><path class="d" d="M27.1,15.92a6,6,0,0,0-.08-1.1,1.79,1.79,0,0,0-1.86-1.42,1.7,1.7,0,0,0-1.9,1.36A6,6,0,0,0,23.21,16a4.78,4.78,0,0,0,.07,1.21,1.73,1.73,0,0,0,1.8,1.28A1.87,1.87,0,0,0,27,17.2,4.82,4.82,0,0,0,27.1,15.92Z"/><path class="d" d="M31,15.92a6,6,0,0,0-.08-1.1,1.78,1.78,0,0,0-1.85-1.42,1.7,1.7,0,0,0-1.91,1.36,5.41,5.41,0,0,0,0,1.24,4.37,4.37,0,0,0,.06,1.21A1.73,1.73,0,0,0,29,18.49a1.86,1.86,0,0,0,1.94-1.29A4.82,4.82,0,0,0,31,15.92Z"/><path class="d" d="M19.35,15.89a6.1,6.1,0,0,1,.08-1.1,1.79,1.79,0,0,1,1.86-1.42,1.7,1.7,0,0,1,1.9,1.36,6,6,0,0,1,0,1.25,4.7,4.7,0,0,1-.07,1.2,1.72,1.72,0,0,1-1.8,1.28,1.8,1.8,0,0,1-1.95-1.19A5.63,5.63,0,0,1,19.35,15.89Z"/><path class="d" d="M3.9,15.92a6,6,0,0,0-.09-1.1A1.78,1.78,0,0,0,2,13.4a1.68,1.68,0,0,0-1.9,1.36A5.35,5.35,0,0,0,0,16a4.37,4.37,0,0,0,.06,1.21,1.74,1.74,0,0,0,1.81,1.28A1.85,1.85,0,0,0,3.81,17.2,4.8,4.8,0,0,0,3.9,15.92Z"/><path class="d" d="M11.61,15.92a6,6,0,0,0-.08-1.1A1.79,1.79,0,0,0,9.67,13.4a1.7,1.7,0,0,0-1.9,1.36,6,6,0,0,0,0,1.24,4.78,4.78,0,0,0,.07,1.21,1.73,1.73,0,0,0,1.8,1.28,1.87,1.87,0,0,0,1.94-1.29A4.82,4.82,0,0,0,11.61,15.92Z"/><path class="d" d="M15.5,15.92a6,6,0,0,0-.08-1.1,1.79,1.79,0,0,0-1.86-1.42,1.7,1.7,0,0,0-1.9,1.36A6,6,0,0,0,11.61,16a4.78,4.78,0,0,0,.07,1.21,1.73,1.73,0,0,0,1.8,1.28,1.87,1.87,0,0,0,1.94-1.29A4.82,4.82,0,0,0,15.5,15.92Z"/><path class="d" d="M3.86,15.89a6.1,6.1,0,0,1,.08-1.1,1.78,1.78,0,0,1,1.85-1.42A1.7,1.7,0,0,1,7.7,14.73a6,6,0,0,1,0,1.25,4.7,4.7,0,0,1-.07,1.2,1.72,1.72,0,0,1-1.8,1.28,1.82,1.82,0,0,1-2-1.19A5.65,5.65,0,0,1,3.86,15.89Z"/><path class="d" d="M31,15.89a6,6,0,0,1,.09-1.1A1.77,1.77,0,0,1,33,13.37a1.69,1.69,0,0,1,1.9,1.36,6,6,0,0,1,0,1.25,4.72,4.72,0,0,1-.06,1.2A1.73,1.73,0,0,1,33,18.46a1.8,1.8,0,0,1-1.95-1.19A5.63,5.63,0,0,1,31,15.89Z"/><path class="d" d="M62.22,15.9a5.92,5.92,0,0,1,.08-1.09,1.79,1.79,0,0,1,1.86-1.42,1.69,1.69,0,0,1,1.9,1.36,5.91,5.91,0,0,1,0,1.24A4.78,4.78,0,0,1,66,17.2a1.73,1.73,0,0,1-1.8,1.28,1.82,1.82,0,0,1-1.95-1.19A5.68,5.68,0,0,1,62.22,15.9Z"/><path class="e" d="M19.39,9.23a5.11,5.11,0,0,0-.09-1.09,1.77,1.77,0,0,0-1.85-1.43,1.7,1.7,0,0,0-1.9,1.37,5.91,5.91,0,0,0-.05,1.24,4.39,4.39,0,0,0,.07,1.21,1.7,1.7,0,0,0,1.8,1.27,1.87,1.87,0,0,0,1.94-1.29A4.82,4.82,0,0,0,19.39,9.23Z"/><path class="e" d="M27.1,9.23A5.92,5.92,0,0,0,27,8.14a1.78,1.78,0,0,0-1.86-1.43,1.7,1.7,0,0,0-1.9,1.37,5.91,5.91,0,0,0-.05,1.24,4.81,4.81,0,0,0,.07,1.21,1.71,1.71,0,0,0,1.8,1.27A1.87,1.87,0,0,0,27,10.51,4.82,4.82,0,0,0,27.1,9.23Z"/><path class="e" d="M31,9.23a5.92,5.92,0,0,0-.08-1.09,1.78,1.78,0,0,0-1.85-1.43,1.7,1.7,0,0,0-1.91,1.37,5.36,5.36,0,0,0,0,1.24,4.39,4.39,0,0,0,.06,1.21A1.71,1.71,0,0,0,29,11.8a1.86,1.86,0,0,0,1.94-1.29A4.82,4.82,0,0,0,31,9.23Z"/><path class="e" d="M19.35,9.2a5.92,5.92,0,0,1,.08-1.09,1.79,1.79,0,0,1,1.86-1.42,1.69,1.69,0,0,1,1.9,1.36,5.91,5.91,0,0,1,0,1.24,4.78,4.78,0,0,1-.07,1.21,1.73,1.73,0,0,1-1.8,1.28,1.82,1.82,0,0,1-1.95-1.19A5.68,5.68,0,0,1,19.35,9.2Z"/><path class="e" d="M3.9,9.23a5.85,5.85,0,0,0-.09-1.09A1.77,1.77,0,0,0,2,6.71,1.68,1.68,0,0,0,.06,8.08,5.3,5.3,0,0,0,0,9.32a4.39,4.39,0,0,0,.06,1.21A1.72,1.72,0,0,0,1.88,11.8a1.85,1.85,0,0,0,1.93-1.29A4.8,4.8,0,0,0,3.9,9.23Z"/><path class="e" d="M11.61,9.23a5.92,5.92,0,0,0-.08-1.09A1.78,1.78,0,0,0,9.67,6.71a1.7,1.7,0,0,0-1.9,1.37,5.91,5.91,0,0,0,0,1.24,4.81,4.81,0,0,0,.07,1.21,1.71,1.71,0,0,0,1.8,1.27,1.87,1.87,0,0,0,1.94-1.29A4.82,4.82,0,0,0,11.61,9.23Z"/><path class="e" d="M15.5,9.23a5.92,5.92,0,0,0-.08-1.09,1.78,1.78,0,0,0-1.86-1.43,1.7,1.7,0,0,0-1.9,1.37,5.91,5.91,0,0,0-.05,1.24,4.81,4.81,0,0,0,.07,1.21,1.71,1.71,0,0,0,1.8,1.27,1.87,1.87,0,0,0,1.94-1.29A4.82,4.82,0,0,0,15.5,9.23Z"/><path class="e" d="M3.86,9.2a5.92,5.92,0,0,1,.08-1.09A1.78,1.78,0,0,1,5.79,6.69,1.69,1.69,0,0,1,7.7,8.05a5.91,5.91,0,0,1,0,1.24,4.78,4.78,0,0,1-.07,1.21,1.73,1.73,0,0,1-1.8,1.28,1.84,1.84,0,0,1-2-1.19A5.7,5.7,0,0,1,3.86,9.2Z"/><path class="e" d="M31,9.2a5.85,5.85,0,0,1,.09-1.09A1.77,1.77,0,0,1,33,6.69a1.68,1.68,0,0,1,1.9,1.36,5.91,5.91,0,0,1,0,1.24,4.8,4.8,0,0,1-.06,1.21A1.74,1.74,0,0,1,33,11.78a1.82,1.82,0,0,1-1.95-1.19A5.68,5.68,0,0,1,31,9.2Z"/><path class="e" d="M62.22,9.2a5.92,5.92,0,0,1,.08-1.09,1.79,1.79,0,0,1,1.86-1.42,1.69,1.69,0,0,1,1.9,1.36,5.91,5.91,0,0,1,0,1.24A4.78,4.78,0,0,1,66,10.5a1.73,1.73,0,0,1-1.8,1.28,1.82,1.82,0,0,1-1.95-1.19A5.68,5.68,0,0,1,62.22,9.2Z"/><path class="b" d="M19.39,2.54a5.11,5.11,0,0,0-.09-1.09A1.77,1.77,0,0,0,17.45,0a1.69,1.69,0,0,0-1.9,1.36,5.94,5.94,0,0,0-.05,1.24,4.36,4.36,0,0,0,.07,1.21,1.72,1.72,0,0,0,1.8,1.28,1.88,1.88,0,0,0,1.94-1.29A4.89,4.89,0,0,0,19.39,2.54Z"/><path class="b" d="M27.1,2.54A5.92,5.92,0,0,0,27,1.45,1.79,1.79,0,0,0,25.16,0a1.69,1.69,0,0,0-1.9,1.36,5.94,5.94,0,0,0-.05,1.24,4.78,4.78,0,0,0,.07,1.21,1.73,1.73,0,0,0,1.8,1.28A1.88,1.88,0,0,0,27,3.83,4.89,4.89,0,0,0,27.1,2.54Z"/><path class="b" d="M31,2.54a5.92,5.92,0,0,0-.08-1.09A1.78,1.78,0,0,0,29.06,0a1.69,1.69,0,0,0-1.91,1.36,5.39,5.39,0,0,0,0,1.24,4.37,4.37,0,0,0,.06,1.21A1.73,1.73,0,0,0,29,5.12a1.87,1.87,0,0,0,1.94-1.29A4.89,4.89,0,0,0,31,2.54Z"/><path class="b" d="M19.35,2.52a6,6,0,0,1,.08-1.1A1.79,1.79,0,0,1,21.29,0a1.7,1.7,0,0,1,1.9,1.36,6,6,0,0,1,0,1.24,4.78,4.78,0,0,1-.07,1.21,1.73,1.73,0,0,1-1.8,1.28A1.81,1.81,0,0,1,19.42,3.9,5.63,5.63,0,0,1,19.35,2.52Z"/><path class="b" d="M3.9,2.54a5.85,5.85,0,0,0-.09-1.09A1.78,1.78,0,0,0,2,0,1.68,1.68,0,0,0,.06,1.39,5.33,5.33,0,0,0,0,2.63,4.37,4.37,0,0,0,.07,3.84,1.74,1.74,0,0,0,1.88,5.12,1.86,1.86,0,0,0,3.81,3.83,4.88,4.88,0,0,0,3.9,2.54Z"/><path class="b" d="M11.61,2.54a5.92,5.92,0,0,0-.08-1.09A1.79,1.79,0,0,0,9.67,0a1.69,1.69,0,0,0-1.9,1.36,5.94,5.94,0,0,0,0,1.24,4.78,4.78,0,0,0,.07,1.21,1.73,1.73,0,0,0,1.8,1.28,1.88,1.88,0,0,0,1.94-1.29A4.89,4.89,0,0,0,11.61,2.54Z"/><path class="b" d="M15.5,2.54a5.92,5.92,0,0,0-.08-1.09A1.79,1.79,0,0,0,13.56,0a1.69,1.69,0,0,0-1.9,1.36,5.94,5.94,0,0,0-.05,1.24,4.78,4.78,0,0,0,.07,1.21,1.73,1.73,0,0,0,1.8,1.28,1.88,1.88,0,0,0,1.94-1.29A4.89,4.89,0,0,0,15.5,2.54Z"/><path class="b" d="M3.86,2.52a6,6,0,0,1,.08-1.1A1.78,1.78,0,0,1,5.79,0,1.7,1.7,0,0,1,7.7,1.36a6,6,0,0,1,0,1.24,4.78,4.78,0,0,1-.07,1.21,1.73,1.73,0,0,1-1.8,1.28,1.83,1.83,0,0,1-2-1.19A5.65,5.65,0,0,1,3.86,2.52Z"/><path class="b" d="M31,2.52a6,6,0,0,1,.09-1.1A1.77,1.77,0,0,1,33,0a1.69,1.69,0,0,1,1.9,1.36,6,6,0,0,1,0,1.24,4.8,4.8,0,0,1-.06,1.21A1.74,1.74,0,0,1,33,5.09,1.81,1.81,0,0,1,31.09,3.9,5.63,5.63,0,0,1,31,2.52Z"/><path class="b" d="M62.22,2.52a6,6,0,0,1,.08-1.1A1.79,1.79,0,0,1,64.16,0a1.7,1.7,0,0,1,1.9,1.36,6,6,0,0,1,0,1.24A4.78,4.78,0,0,1,66,3.81a1.73,1.73,0,0,1-1.8,1.28A1.81,1.81,0,0,1,62.29,3.9,5.63,5.63,0,0,1,62.22,2.52Z"/></svg>