<svg xmlns="http://www.w3.org/2000/svg" width="66.7" height="65.32" viewBox="0 0 66.7 65.32"><defs><style>.a{fill:#889bcf;}.b{fill:#fbf175;}.c{fill:#eb666a;}.d{fill:#86aca8;}.e{fill:#ffd69f;}</style></defs><title>Asset 80</title><path class="a" d="M33.67,36a5.85,5.85,0,0,1-.09,1.09,1.77,1.77,0,0,1-1.85,1.42,1.69,1.69,0,0,1-1.9-1.36,6,6,0,0,1,0-1.24,4.8,4.8,0,0,1,.06-1.21,1.74,1.74,0,0,1,1.81-1.28,1.88,1.88,0,0,1,1.94,1.29A4.87,4.87,0,0,1,33.67,36Z"/><path class="a" d="M41.38,36a5.92,5.92,0,0,1-.08,1.09,1.79,1.79,0,0,1-1.86,1.42,1.69,1.69,0,0,1-1.9-1.36,6,6,0,0,1,0-1.24,4.78,4.78,0,0,1,.07-1.21,1.73,1.73,0,0,1,1.8-1.28,1.88,1.88,0,0,1,1.94,1.29A4.87,4.87,0,0,1,41.38,36Z"/><path class="a" d="M45.27,36a5.92,5.92,0,0,1-.08,1.09,1.78,1.78,0,0,1-1.85,1.42,1.69,1.69,0,0,1-1.91-1.36,5.41,5.41,0,0,1,0-1.24,4.37,4.37,0,0,1,.06-1.21,1.73,1.73,0,0,1,1.8-1.28,1.88,1.88,0,0,1,1.94,1.29A4.87,4.87,0,0,1,45.27,36Z"/><path class="a" d="M33.63,36a6,6,0,0,0,.08,1.1,1.79,1.79,0,0,0,1.86,1.42,1.7,1.7,0,0,0,1.9-1.36,6,6,0,0,0,.05-1.24,4.78,4.78,0,0,0-.07-1.21,1.73,1.73,0,0,0-1.8-1.28,1.81,1.81,0,0,0-1.95,1.19A5.63,5.63,0,0,0,33.63,36Z"/><path class="a" d="M18.18,36a5.85,5.85,0,0,1-.09,1.09,1.78,1.78,0,0,1-1.85,1.42,1.68,1.68,0,0,1-1.9-1.36,5.35,5.35,0,0,1-.05-1.24,4.37,4.37,0,0,1,.06-1.21,1.74,1.74,0,0,1,1.81-1.28,1.86,1.86,0,0,1,1.93,1.29A4.85,4.85,0,0,1,18.18,36Z"/><path class="a" d="M25.89,36a5.92,5.92,0,0,1-.08,1.09A1.79,1.79,0,0,1,24,38.51a1.69,1.69,0,0,1-1.9-1.36A6,6,0,0,1,22,35.91a4.78,4.78,0,0,1,.07-1.21,1.73,1.73,0,0,1,1.8-1.28,1.88,1.88,0,0,1,1.94,1.29A4.87,4.87,0,0,1,25.89,36Z"/><path class="a" d="M29.78,36a5.92,5.92,0,0,1-.08,1.09,1.79,1.79,0,0,1-1.86,1.42,1.69,1.69,0,0,1-1.9-1.36,6,6,0,0,1-.05-1.24A4.78,4.78,0,0,1,26,34.7a1.73,1.73,0,0,1,1.8-1.28,1.88,1.88,0,0,1,1.94,1.29A4.87,4.87,0,0,1,29.78,36Z"/><path class="a" d="M18.14,36a6,6,0,0,0,.08,1.1,1.78,1.78,0,0,0,1.85,1.42A1.7,1.7,0,0,0,22,37.18,6,6,0,0,0,22,35.94,4.78,4.78,0,0,0,22,34.73a1.73,1.73,0,0,0-1.8-1.28,1.83,1.83,0,0,0-2,1.19A5.65,5.65,0,0,0,18.14,36Z"/><path class="a" d="M45.25,36.07a6,6,0,0,0,.09,1.1,1.78,1.78,0,0,0,1.85,1.42,1.68,1.68,0,0,0,1.9-1.37,5.3,5.3,0,0,0,0-1.24,4.3,4.3,0,0,0-.06-1.2,1.72,1.72,0,0,0-1.81-1.28,1.81,1.81,0,0,0-2,1.18A5.74,5.74,0,0,0,45.25,36.07Z"/><path class="a" d="M49.15,36.07a6.1,6.1,0,0,0,.08,1.1,1.78,1.78,0,0,0,1.85,1.42A1.7,1.7,0,0,0,53,37.22,6,6,0,0,0,53,36a4.3,4.3,0,0,0-.06-1.2,1.71,1.71,0,0,0-1.81-1.28,1.81,1.81,0,0,0-1.95,1.18A5.75,5.75,0,0,0,49.15,36.07Z"/><path class="b" d="M31.3,29.28a5.92,5.92,0,0,0-.08-1.09,1.79,1.79,0,0,0-1.86-1.42,1.69,1.69,0,0,0-1.9,1.36,5.94,5.94,0,0,0-.05,1.24,4.78,4.78,0,0,0,.07,1.21,1.73,1.73,0,0,0,1.8,1.28,1.88,1.88,0,0,0,1.94-1.29A4.89,4.89,0,0,0,31.3,29.28Z"/><path class="b" d="M39,29.28a5.85,5.85,0,0,0-.09-1.09,1.78,1.78,0,0,0-1.85-1.42,1.68,1.68,0,0,0-1.9,1.36,5.33,5.33,0,0,0,0,1.24,4.37,4.37,0,0,0,.06,1.21A1.74,1.74,0,0,0,37,31.86a1.86,1.86,0,0,0,1.93-1.29A4.88,4.88,0,0,0,39,29.28Z"/><path class="b" d="M42.91,29.28a5.85,5.85,0,0,0-.09-1.09A1.77,1.77,0,0,0,41,26.77a1.68,1.68,0,0,0-1.9,1.36,5.33,5.33,0,0,0,0,1.24,4.8,4.8,0,0,0,.06,1.21,1.74,1.74,0,0,0,1.81,1.28,1.88,1.88,0,0,0,1.94-1.29A4.89,4.89,0,0,0,42.91,29.28Z"/><path class="b" d="M31.26,29.28a5.85,5.85,0,0,1,.09-1.09,1.78,1.78,0,0,1,1.85-1.42,1.68,1.68,0,0,1,1.9,1.36,5.33,5.33,0,0,1,0,1.24,4.37,4.37,0,0,1-.06,1.21,1.74,1.74,0,0,1-1.81,1.28,1.82,1.82,0,0,1-2-1.19A5.68,5.68,0,0,1,31.26,29.28Z"/><path class="b" d="M15.81,29.28a5.92,5.92,0,0,0-.08-1.09,1.79,1.79,0,0,0-1.86-1.42A1.69,1.69,0,0,0,12,28.13a5.94,5.94,0,0,0-.05,1.24A4.78,4.78,0,0,0,12,30.58a1.73,1.73,0,0,0,1.8,1.28,1.88,1.88,0,0,0,1.94-1.29A4.89,4.89,0,0,0,15.81,29.28Z"/><path class="b" d="M23.52,29.28a5.92,5.92,0,0,0-.08-1.09,1.78,1.78,0,0,0-1.85-1.42,1.69,1.69,0,0,0-1.91,1.36,6,6,0,0,0,0,1.24,4.37,4.37,0,0,0,.06,1.21,1.73,1.73,0,0,0,1.81,1.28,1.86,1.86,0,0,0,1.93-1.29A4.89,4.89,0,0,0,23.52,29.28Z"/><path class="b" d="M27.42,29.28a5.85,5.85,0,0,0-.09-1.09,1.78,1.78,0,0,0-1.85-1.42,1.69,1.69,0,0,0-1.91,1.36,6,6,0,0,0,0,1.24,4.37,4.37,0,0,0,.06,1.21,1.73,1.73,0,0,0,1.81,1.28,1.86,1.86,0,0,0,1.93-1.29A4.88,4.88,0,0,0,27.42,29.28Z"/><path class="b" d="M15.77,29.28a5.11,5.11,0,0,1,.09-1.09,1.77,1.77,0,0,1,1.85-1.42,1.69,1.69,0,0,1,1.9,1.36,5.94,5.94,0,0,1,.05,1.24,4.36,4.36,0,0,1-.07,1.21,1.72,1.72,0,0,1-1.8,1.28,1.82,1.82,0,0,1-1.95-1.19A5.68,5.68,0,0,1,15.77,29.28Z"/><path class="b" d="M42.89,29.28A5.92,5.92,0,0,1,43,28.19a1.79,1.79,0,0,1,1.86-1.42,1.69,1.69,0,0,1,1.9,1.36,5.94,5.94,0,0,1,.05,1.24,4.78,4.78,0,0,1-.07,1.21,1.73,1.73,0,0,1-1.8,1.28A1.82,1.82,0,0,1,43,30.67,5.68,5.68,0,0,1,42.89,29.28Z"/><path class="b" d="M46.78,29.28a5.92,5.92,0,0,1,.08-1.09,1.79,1.79,0,0,1,1.86-1.42,1.69,1.69,0,0,1,1.9,1.36,5.94,5.94,0,0,1,.05,1.24,4.78,4.78,0,0,1-.07,1.21,1.73,1.73,0,0,1-1.8,1.28,1.82,1.82,0,0,1-1.95-1.19A5.68,5.68,0,0,1,46.78,29.28Z"/><path class="c" d="M22.53,9.21a6.1,6.1,0,0,0-.08-1.1A1.78,1.78,0,0,0,20.6,6.69a1.68,1.68,0,0,0-1.9,1.36,5.41,5.41,0,0,0-.05,1.25,4.74,4.74,0,0,0,.06,1.2,1.72,1.72,0,0,0,1.8,1.28,1.87,1.87,0,0,0,1.94-1.29A4.82,4.82,0,0,0,22.53,9.21Z"/><path class="c" d="M30.23,9.21a6,6,0,0,0-.09-1.1,1.77,1.77,0,0,0-1.85-1.42,1.7,1.7,0,0,0-1.9,1.36,6.12,6.12,0,0,0,0,1.25,4.32,4.32,0,0,0,.06,1.2,1.72,1.72,0,0,0,1.8,1.28,1.87,1.87,0,0,0,1.94-1.29A5.28,5.28,0,0,0,30.23,9.21Z"/><path class="c" d="M34.11,9.21A6.1,6.1,0,0,0,34,8.11a1.78,1.78,0,0,0-1.85-1.42,1.68,1.68,0,0,0-1.9,1.36,6,6,0,0,0-.05,1.25,4.74,4.74,0,0,0,.06,1.2,1.73,1.73,0,0,0,1.81,1.28A1.87,1.87,0,0,0,34,10.49,4.82,4.82,0,0,0,34.11,9.21Z"/><path class="c" d="M22.49,9.21a6.1,6.1,0,0,1,.08-1.1,1.78,1.78,0,0,1,1.85-1.42,1.68,1.68,0,0,1,1.9,1.36,6,6,0,0,1,.05,1.25,4.74,4.74,0,0,1-.06,1.2,1.72,1.72,0,0,1-1.8,1.28,1.81,1.81,0,0,1-2-1.19A5.63,5.63,0,0,1,22.49,9.21Z"/><path class="c" d="M7.07,9.21A6.1,6.1,0,0,0,7,8.11,1.78,1.78,0,0,0,5.14,6.69a1.68,1.68,0,0,0-1.9,1.36A6,6,0,0,0,3.19,9.3a4.74,4.74,0,0,0,.06,1.2,1.72,1.72,0,0,0,1.8,1.28A1.87,1.87,0,0,0,7,10.49,4.82,4.82,0,0,0,7.07,9.21Z"/><path class="c" d="M14.77,9.21a6,6,0,0,0-.09-1.1,1.77,1.77,0,0,0-1.85-1.42,1.7,1.7,0,0,0-1.9,1.36,6.12,6.12,0,0,0,0,1.25A4.32,4.32,0,0,0,11,10.5a1.72,1.72,0,0,0,1.8,1.28,1.87,1.87,0,0,0,1.94-1.29A4.82,4.82,0,0,0,14.77,9.21Z"/><path class="c" d="M18.65,9.21a6.1,6.1,0,0,0-.08-1.1,1.78,1.78,0,0,0-1.85-1.42,1.69,1.69,0,0,0-1.9,1.36,6,6,0,0,0-.05,1.25,4.31,4.31,0,0,0,.07,1.2,1.71,1.71,0,0,0,1.8,1.28,1.87,1.87,0,0,0,1.93-1.29A4.82,4.82,0,0,0,18.65,9.21Z"/><path class="c" d="M7,9.21a6.1,6.1,0,0,1,.08-1.1A1.78,1.78,0,0,1,9,6.69a1.68,1.68,0,0,1,1.9,1.36,6,6,0,0,1,.05,1.25,4.74,4.74,0,0,1-.06,1.2,1.72,1.72,0,0,1-1.8,1.28,1.81,1.81,0,0,1-2-1.19A5.63,5.63,0,0,1,7,9.21Z"/><path class="c" d="M34.14,9.21a6.1,6.1,0,0,1,.08-1.1,1.78,1.78,0,0,1,1.85-1.42A1.69,1.69,0,0,1,38,8.05,6,6,0,0,1,38,9.3,4.31,4.31,0,0,1,38,10.5a1.71,1.71,0,0,1-1.8,1.28,1.8,1.8,0,0,1-1.94-1.19A5.63,5.63,0,0,1,34.14,9.21Z"/><path class="c" d="M57.74,9.21a6.1,6.1,0,0,1,.08-1.1,1.78,1.78,0,0,1,1.85-1.42,1.7,1.7,0,0,1,1.91,1.36,5.48,5.48,0,0,1,0,1.25,4.32,4.32,0,0,1-.06,1.2,1.72,1.72,0,0,1-1.8,1.28,1.82,1.82,0,0,1-2-1.19A5.65,5.65,0,0,1,57.74,9.21Z"/><path class="d" d="M5.46,56.05A5.85,5.85,0,0,1,5.55,55,1.78,1.78,0,0,1,7.4,53.53,1.68,1.68,0,0,1,9.3,54.9a5.3,5.3,0,0,1,0,1.24,4.37,4.37,0,0,1-.06,1.21,1.72,1.72,0,0,1-1.81,1.27,1.8,1.8,0,0,1-1.95-1.18A5.74,5.74,0,0,1,5.46,56.05Z"/><path class="d" d="M47.38,56.05A5.92,5.92,0,0,0,47.3,55a1.78,1.78,0,0,0-1.85-1.43,1.7,1.7,0,0,0-1.91,1.37,6,6,0,0,0,0,1.24,4.37,4.37,0,0,0,.06,1.21,1.71,1.71,0,0,0,1.81,1.27,1.85,1.85,0,0,0,1.93-1.29A4.82,4.82,0,0,0,47.38,56.05Z"/><path class="d" d="M55.1,56.05A5.11,5.11,0,0,0,55,55a1.78,1.78,0,0,0-1.85-1.43,1.7,1.7,0,0,0-1.9,1.37,5.91,5.91,0,0,0,0,1.24,4.36,4.36,0,0,0,.07,1.21,1.7,1.7,0,0,0,1.8,1.27A1.87,1.87,0,0,0,55,57.33,4.82,4.82,0,0,0,55.1,56.05Z"/><path class="d" d="M59,56.05A5.92,5.92,0,0,0,58.91,55a1.79,1.79,0,0,0-1.86-1.43,1.7,1.7,0,0,0-1.9,1.37,5.91,5.91,0,0,0,0,1.24,4.36,4.36,0,0,0,.07,1.21A1.7,1.7,0,0,0,57,58.62a1.87,1.87,0,0,0,1.94-1.29A4.82,4.82,0,0,0,59,56.05Z"/><path class="d" d="M47.35,56.05A5.92,5.92,0,0,1,47.43,55a1.78,1.78,0,0,1,1.85-1.43,1.7,1.7,0,0,1,1.91,1.37,6,6,0,0,1,0,1.24,4.37,4.37,0,0,1-.06,1.21,1.71,1.71,0,0,1-1.81,1.27,1.81,1.81,0,0,1-2-1.18A5.75,5.75,0,0,1,47.35,56.05Z"/><path class="d" d="M31.89,56.05A5.92,5.92,0,0,0,31.81,55,1.79,1.79,0,0,0,30,53.53a1.7,1.7,0,0,0-1.9,1.37A5.91,5.91,0,0,0,28,56.14a4.78,4.78,0,0,0,.07,1.21,1.71,1.71,0,0,0,1.8,1.27,1.87,1.87,0,0,0,1.94-1.29A4.82,4.82,0,0,0,31.89,56.05Z"/><path class="d" d="M39.61,56.05A5.85,5.85,0,0,0,39.52,55a1.78,1.78,0,0,0-1.85-1.43,1.68,1.68,0,0,0-1.9,1.37,5.3,5.3,0,0,0-.05,1.24,4.37,4.37,0,0,0,.06,1.21,1.72,1.72,0,0,0,1.81,1.27,1.85,1.85,0,0,0,1.93-1.29A4.8,4.8,0,0,0,39.61,56.05Z"/><path class="d" d="M43.5,56.05A5.85,5.85,0,0,0,43.41,55a1.78,1.78,0,0,0-1.85-1.43,1.68,1.68,0,0,0-1.9,1.37,5.3,5.3,0,0,0,0,1.24,4.8,4.8,0,0,0,.06,1.21,1.72,1.72,0,0,0,1.81,1.27,1.87,1.87,0,0,0,1.94-1.29A4.82,4.82,0,0,0,43.5,56.05Z"/><path class="d" d="M31.85,56.05A5.85,5.85,0,0,1,31.94,55a1.78,1.78,0,0,1,1.85-1.43,1.68,1.68,0,0,1,1.9,1.37,5.3,5.3,0,0,1,.05,1.24,4.37,4.37,0,0,1-.06,1.21,1.72,1.72,0,0,1-1.81,1.27,1.8,1.8,0,0,1-1.95-1.18A5.74,5.74,0,0,1,31.85,56.05Z"/><path class="d" d="M59,56.05A5.92,5.92,0,0,1,59.1,55,1.79,1.79,0,0,1,61,53.53a1.7,1.7,0,0,1,1.9,1.37,5.91,5.91,0,0,1,0,1.24,4.78,4.78,0,0,1-.07,1.21A1.71,1.71,0,0,1,61,58.62a1.8,1.8,0,0,1-1.95-1.18A5.74,5.74,0,0,1,59,56.05Z"/><path class="e" d="M10.19,49.36a6,6,0,0,1,.09-1.1,1.78,1.78,0,0,1,1.85-1.42A1.68,1.68,0,0,1,14,48.21a5.3,5.3,0,0,1,.05,1.24,4.3,4.3,0,0,1-.06,1.2,1.72,1.72,0,0,1-1.81,1.28,1.81,1.81,0,0,1-2-1.18A5.74,5.74,0,0,1,10.19,49.36Z"/><path class="e" d="M43.61,49.36a6.1,6.1,0,0,0-.08-1.1,1.79,1.79,0,0,0-1.86-1.42,1.7,1.7,0,0,0-1.9,1.37,5.91,5.91,0,0,0-.05,1.24,4.7,4.7,0,0,0,.07,1.2,1.71,1.71,0,0,0,1.8,1.28,1.87,1.87,0,0,0,1.94-1.29A4.82,4.82,0,0,0,43.61,49.36Z"/><path class="e" d="M51.32,49.36a6.1,6.1,0,0,0-.08-1.1,1.78,1.78,0,0,0-1.85-1.42,1.7,1.7,0,0,0-1.91,1.37,5.36,5.36,0,0,0,0,1.24,4.3,4.3,0,0,0,.06,1.2,1.71,1.71,0,0,0,1.8,1.28,1.86,1.86,0,0,0,1.94-1.29A4.82,4.82,0,0,0,51.32,49.36Z"/><path class="e" d="M55.21,49.36a6.1,6.1,0,0,0-.08-1.1,1.78,1.78,0,0,0-1.85-1.42,1.7,1.7,0,0,0-1.91,1.37,6,6,0,0,0,0,1.24,4.3,4.3,0,0,0,.06,1.2,1.71,1.71,0,0,0,1.81,1.28,1.85,1.85,0,0,0,1.93-1.29A4.82,4.82,0,0,0,55.21,49.36Z"/><path class="e" d="M43.57,49.36a6.1,6.1,0,0,1,.08-1.1,1.79,1.79,0,0,1,1.86-1.42,1.7,1.7,0,0,1,1.9,1.37,5.91,5.91,0,0,1,.05,1.24,4.7,4.7,0,0,1-.07,1.2,1.71,1.71,0,0,1-1.8,1.28,1.8,1.8,0,0,1-2-1.18A5.74,5.74,0,0,1,43.57,49.36Z"/><path class="e" d="M28.12,49.36a6,6,0,0,0-.09-1.1,1.77,1.77,0,0,0-1.85-1.42,1.68,1.68,0,0,0-1.9,1.37,5.3,5.3,0,0,0-.05,1.24,4.72,4.72,0,0,0,.06,1.2,1.72,1.72,0,0,0,1.81,1.28A1.87,1.87,0,0,0,28,50.64,4.82,4.82,0,0,0,28.12,49.36Z"/><path class="e" d="M35.83,49.36a6.1,6.1,0,0,0-.08-1.1,1.79,1.79,0,0,0-1.86-1.42A1.7,1.7,0,0,0,32,48.21a5.91,5.91,0,0,0,0,1.24,4.7,4.7,0,0,0,.07,1.2,1.71,1.71,0,0,0,1.8,1.28,1.87,1.87,0,0,0,1.94-1.29A4.82,4.82,0,0,0,35.83,49.36Z"/><path class="e" d="M39.72,49.36a6.1,6.1,0,0,0-.08-1.1,1.79,1.79,0,0,0-1.86-1.42,1.7,1.7,0,0,0-1.9,1.37,5.91,5.91,0,0,0-.05,1.24,4.7,4.7,0,0,0,.07,1.2,1.71,1.71,0,0,0,1.8,1.28,1.87,1.87,0,0,0,1.94-1.29A4.82,4.82,0,0,0,39.72,49.36Z"/><path class="e" d="M28.08,49.36a6.1,6.1,0,0,1,.08-1.1A1.79,1.79,0,0,1,30,46.84a1.7,1.7,0,0,1,1.9,1.37,5.91,5.91,0,0,1,0,1.24,4.7,4.7,0,0,1-.07,1.2,1.71,1.71,0,0,1-1.8,1.28,1.8,1.8,0,0,1-2-1.18A5.74,5.74,0,0,1,28.08,49.36Z"/><path class="e" d="M55.2,49.36a6.1,6.1,0,0,1,.08-1.1,1.78,1.78,0,0,1,1.85-1.42A1.7,1.7,0,0,1,59,48.21a6,6,0,0,1,0,1.24,4.3,4.3,0,0,1-.06,1.2,1.71,1.71,0,0,1-1.81,1.28,1.81,1.81,0,0,1-2-1.18A5.75,5.75,0,0,1,55.2,49.36Z"/><path class="c" d="M14.25,42.67a6,6,0,0,1,.09-1.1,1.78,1.78,0,0,1,1.85-1.42,1.7,1.7,0,0,1,1.91,1.36,6,6,0,0,1,0,1.24A4.37,4.37,0,0,1,18.08,44a1.73,1.73,0,0,1-1.81,1.28,1.81,1.81,0,0,1-1.95-1.19A5.63,5.63,0,0,1,14.25,42.67Z"/><path class="c" d="M40.5,42.67a6,6,0,0,0-.09-1.1,1.78,1.78,0,0,0-1.85-1.42,1.68,1.68,0,0,0-1.9,1.36,5.35,5.35,0,0,0,0,1.24A4.37,4.37,0,0,0,36.67,44a1.74,1.74,0,0,0,1.81,1.28A1.85,1.85,0,0,0,40.41,44,4.8,4.8,0,0,0,40.5,42.67Z"/><path class="c" d="M48.21,42.67a6,6,0,0,0-.08-1.1,1.79,1.79,0,0,0-1.86-1.42,1.7,1.7,0,0,0-1.9,1.36,6,6,0,0,0,0,1.24A4.78,4.78,0,0,0,44.39,44a1.73,1.73,0,0,0,1.8,1.28A1.87,1.87,0,0,0,48.13,44,4.82,4.82,0,0,0,48.21,42.67Z"/><path class="c" d="M52.1,42.67a6,6,0,0,0-.08-1.1,1.79,1.79,0,0,0-1.86-1.42,1.7,1.7,0,0,0-1.9,1.36,6,6,0,0,0,0,1.24A4.78,4.78,0,0,0,48.28,44a1.73,1.73,0,0,0,1.8,1.28A1.87,1.87,0,0,0,52,44,4.82,4.82,0,0,0,52.1,42.67Z"/><path class="c" d="M40.46,42.67a6,6,0,0,1,.08-1.1,1.78,1.78,0,0,1,1.85-1.42,1.7,1.7,0,0,1,1.91,1.36,6,6,0,0,1,.05,1.24A4.78,4.78,0,0,1,44.28,44a1.73,1.73,0,0,1-1.8,1.28,1.83,1.83,0,0,1-2-1.19A5.65,5.65,0,0,1,40.46,42.67Z"/><path class="c" d="M25,42.67a6,6,0,0,0-.08-1.1,1.78,1.78,0,0,0-1.85-1.42,1.7,1.7,0,0,0-1.91,1.36,6,6,0,0,0,0,1.24A4.37,4.37,0,0,0,21.18,44,1.73,1.73,0,0,0,23,45.24,1.85,1.85,0,0,0,24.92,44,4.82,4.82,0,0,0,25,42.67Z"/><path class="c" d="M32.72,42.67a6,6,0,0,0-.09-1.1,1.77,1.77,0,0,0-1.85-1.42,1.7,1.7,0,0,0-1.9,1.36,6,6,0,0,0-.05,1.24A4.8,4.8,0,0,0,28.89,44a1.74,1.74,0,0,0,1.81,1.28A1.87,1.87,0,0,0,32.64,44,4.82,4.82,0,0,0,32.72,42.67Z"/><path class="c" d="M36.61,42.67a6,6,0,0,0-.08-1.1,1.79,1.79,0,0,0-1.86-1.42,1.7,1.7,0,0,0-1.9,1.36,6,6,0,0,0-.05,1.24A4.36,4.36,0,0,0,32.79,44a1.72,1.72,0,0,0,1.8,1.28A1.87,1.87,0,0,0,36.53,44,4.82,4.82,0,0,0,36.61,42.67Z"/><path class="c" d="M25,42.67a6,6,0,0,1,.09-1.1,1.78,1.78,0,0,1,1.85-1.42,1.7,1.7,0,0,1,1.91,1.36,6,6,0,0,1,0,1.24A4.37,4.37,0,0,1,28.79,44,1.73,1.73,0,0,1,27,45.24,1.81,1.81,0,0,1,25,44.05,5.63,5.63,0,0,1,25,42.67Z"/><path class="c" d="M52.13,42.67a6,6,0,0,1,.08-1.1,1.79,1.79,0,0,1,1.86-1.42A1.7,1.7,0,0,1,56,41.51,6,6,0,0,1,56,42.75,4.78,4.78,0,0,1,56,44a1.73,1.73,0,0,1-1.8,1.28,1.81,1.81,0,0,1-1.95-1.19A5.63,5.63,0,0,1,52.13,42.67Z"/><path class="b" d="M.26,62.74a5.92,5.92,0,0,1,.08-1.09A1.79,1.79,0,0,1,2.2,60.23a1.69,1.69,0,0,1,1.9,1.36,5.94,5.94,0,0,1,.05,1.24A4.36,4.36,0,0,1,4.08,64a1.72,1.72,0,0,1-1.8,1.28A1.82,1.82,0,0,1,.33,64.13,5.68,5.68,0,0,1,.26,62.74Z"/><path class="b" d="M50.78,62.74a5.92,5.92,0,0,0-.08-1.09,1.78,1.78,0,0,0-1.85-1.42,1.69,1.69,0,0,0-1.91,1.36,6,6,0,0,0,0,1.24A4.37,4.37,0,0,0,47,64a1.73,1.73,0,0,0,1.81,1.28A1.86,1.86,0,0,0,50.7,64,4.89,4.89,0,0,0,50.78,62.74Z"/><path class="b" d="M58.5,62.74a5.11,5.11,0,0,0-.09-1.09,1.77,1.77,0,0,0-1.85-1.42,1.69,1.69,0,0,0-1.9,1.36,5.94,5.94,0,0,0,0,1.24A4.36,4.36,0,0,0,54.68,64a1.72,1.72,0,0,0,1.8,1.28A1.88,1.88,0,0,0,58.42,64,4.89,4.89,0,0,0,58.5,62.74Z"/><path class="b" d="M62.39,62.74a5.92,5.92,0,0,0-.08-1.09,1.79,1.79,0,0,0-1.86-1.42,1.69,1.69,0,0,0-1.9,1.36,5.94,5.94,0,0,0,0,1.24A4.78,4.78,0,0,0,58.57,64a1.73,1.73,0,0,0,1.8,1.28A1.88,1.88,0,0,0,62.31,64,4.89,4.89,0,0,0,62.39,62.74Z"/><path class="b" d="M50.75,62.74a5.92,5.92,0,0,1,.08-1.09,1.78,1.78,0,0,1,1.85-1.42,1.69,1.69,0,0,1,1.91,1.36,6,6,0,0,1,0,1.24A4.37,4.37,0,0,1,54.57,64a1.73,1.73,0,0,1-1.81,1.28,1.83,1.83,0,0,1-1.95-1.19A5.7,5.7,0,0,1,50.75,62.74Z"/><path class="b" d="M35.29,62.74a5.92,5.92,0,0,0-.08-1.09,1.78,1.78,0,0,0-1.85-1.42,1.69,1.69,0,0,0-1.91,1.36,5.94,5.94,0,0,0-.05,1.24A4.78,4.78,0,0,0,31.47,64a1.73,1.73,0,0,0,1.8,1.28A1.88,1.88,0,0,0,35.21,64,4.89,4.89,0,0,0,35.29,62.74Z"/><path class="b" d="M43,62.74a5.85,5.85,0,0,0-.09-1.09,1.78,1.78,0,0,0-1.85-1.42,1.68,1.68,0,0,0-1.9,1.36,5.33,5.33,0,0,0-.05,1.24A4.37,4.37,0,0,0,39.18,64,1.74,1.74,0,0,0,41,65.32,1.86,1.86,0,0,0,42.92,64,4.88,4.88,0,0,0,43,62.74Z"/><path class="b" d="M46.9,62.74a5.85,5.85,0,0,0-.09-1.09A1.77,1.77,0,0,0,45,60.23a1.69,1.69,0,0,0-1.9,1.36A5.94,5.94,0,0,0,43,62.83,4.8,4.8,0,0,0,43.07,64a1.74,1.74,0,0,0,1.81,1.28A1.88,1.88,0,0,0,46.82,64,4.89,4.89,0,0,0,46.9,62.74Z"/><path class="b" d="M35.25,62.74a5.85,5.85,0,0,1,.09-1.09,1.78,1.78,0,0,1,1.85-1.42,1.68,1.68,0,0,1,1.9,1.36,5.33,5.33,0,0,1,0,1.24A4.37,4.37,0,0,1,39.08,64a1.74,1.74,0,0,1-1.81,1.28,1.83,1.83,0,0,1-2-1.19A5.68,5.68,0,0,1,35.25,62.74Z"/><path class="b" d="M62.42,62.74a5.92,5.92,0,0,1,.08-1.09,1.79,1.79,0,0,1,1.86-1.42,1.69,1.69,0,0,1,1.9,1.36,5.94,5.94,0,0,1,0,1.24A4.78,4.78,0,0,1,66.24,64a1.73,1.73,0,0,1-1.8,1.28,1.82,1.82,0,0,1-1.95-1.19A5.68,5.68,0,0,1,62.42,62.74Z"/><path class="d" d="M46.74,22.59a5.92,5.92,0,0,1,.08-1.09,1.79,1.79,0,0,1,1.86-1.42,1.69,1.69,0,0,1,1.9,1.36,5.91,5.91,0,0,1,.05,1.24,4.78,4.78,0,0,1-.07,1.21,1.73,1.73,0,0,1-1.8,1.28A1.82,1.82,0,0,1,46.81,24,5.71,5.71,0,0,1,46.74,22.59Z"/><path class="d" d="M27.65,22.59a5.85,5.85,0,0,0-.09-1.09,1.78,1.78,0,0,0-1.85-1.42,1.69,1.69,0,0,0-1.91,1.36,6,6,0,0,0,0,1.24,4.37,4.37,0,0,0,.06,1.21,1.73,1.73,0,0,0,1.81,1.28,1.87,1.87,0,0,0,1.93-1.3A4.8,4.8,0,0,0,27.65,22.59Z"/><path class="d" d="M35.36,22.59a5.92,5.92,0,0,0-.08-1.09,1.79,1.79,0,0,0-1.86-1.42,1.69,1.69,0,0,0-1.9,1.36,5.91,5.91,0,0,0-.05,1.24,4.36,4.36,0,0,0,.07,1.21,1.72,1.72,0,0,0,1.8,1.28,1.89,1.89,0,0,0,1.94-1.3A4.82,4.82,0,0,0,35.36,22.59Z"/><path class="d" d="M39.25,22.59a5.92,5.92,0,0,0-.08-1.09,1.79,1.79,0,0,0-1.86-1.42,1.69,1.69,0,0,0-1.9,1.36,5.91,5.91,0,0,0,0,1.24,4.78,4.78,0,0,0,.07,1.21,1.73,1.73,0,0,0,1.8,1.28,1.89,1.89,0,0,0,1.94-1.3A4.82,4.82,0,0,0,39.25,22.59Z"/><path class="d" d="M27.61,22.59a5.92,5.92,0,0,1,.08-1.09,1.78,1.78,0,0,1,1.85-1.42,1.69,1.69,0,0,1,1.91,1.36,5.36,5.36,0,0,1,0,1.24,4.37,4.37,0,0,1-.06,1.21,1.73,1.73,0,0,1-1.8,1.28,1.83,1.83,0,0,1-2-1.19A5.73,5.73,0,0,1,27.61,22.59Z"/><path class="d" d="M12.15,22.59a5.92,5.92,0,0,0-.08-1.09,1.78,1.78,0,0,0-1.85-1.42,1.69,1.69,0,0,0-1.91,1.36,5.36,5.36,0,0,0,0,1.24,4.37,4.37,0,0,0,.06,1.21,1.73,1.73,0,0,0,1.8,1.28,1.88,1.88,0,0,0,1.94-1.3A4.82,4.82,0,0,0,12.15,22.59Z"/><path class="d" d="M19.87,22.59a5.85,5.85,0,0,0-.09-1.09,1.78,1.78,0,0,0-1.85-1.42A1.68,1.68,0,0,0,16,21.44,5.3,5.3,0,0,0,16,22.68,4.8,4.8,0,0,0,16,23.89a1.74,1.74,0,0,0,1.81,1.28,1.89,1.89,0,0,0,1.94-1.3A4.82,4.82,0,0,0,19.87,22.59Z"/><path class="d" d="M23.76,22.59a5.11,5.11,0,0,0-.09-1.09,1.77,1.77,0,0,0-1.85-1.42,1.69,1.69,0,0,0-1.9,1.36,5.91,5.91,0,0,0-.05,1.24,4.36,4.36,0,0,0,.07,1.21,1.72,1.72,0,0,0,1.8,1.28,1.89,1.89,0,0,0,1.94-1.3A4.82,4.82,0,0,0,23.76,22.59Z"/><path class="d" d="M12.11,22.59a5.85,5.85,0,0,1,.09-1.09,1.78,1.78,0,0,1,1.85-1.42A1.69,1.69,0,0,1,16,21.44a6,6,0,0,1,0,1.24,4.37,4.37,0,0,1-.06,1.21,1.74,1.74,0,0,1-1.81,1.28,1.83,1.83,0,0,1-2-1.19A5.71,5.71,0,0,1,12.11,22.59Z"/><path class="d" d="M39.28,22.59a5.92,5.92,0,0,1,.08-1.09,1.79,1.79,0,0,1,1.86-1.42,1.69,1.69,0,0,1,1.9,1.36,5.91,5.91,0,0,1,.05,1.24,4.78,4.78,0,0,1-.07,1.21,1.73,1.73,0,0,1-1.8,1.28A1.82,1.82,0,0,1,39.35,24,5.71,5.71,0,0,1,39.28,22.59Z"/><path class="e" d="M52.68,15.9a5.92,5.92,0,0,1,.08-1.09,1.78,1.78,0,0,1,1.86-1.43,1.7,1.7,0,0,1,1.9,1.37,5.91,5.91,0,0,1,0,1.24,4.7,4.7,0,0,1-.07,1.2,1.71,1.71,0,0,1-1.8,1.28,1.82,1.82,0,0,1-2-1.18A5.75,5.75,0,0,1,52.68,15.9Z"/><path class="e" d="M24.34,15.9a5.85,5.85,0,0,0-.09-1.09,1.77,1.77,0,0,0-1.85-1.43,1.7,1.7,0,0,0-1.9,1.37A5.91,5.91,0,0,0,20.45,16a4.72,4.72,0,0,0,.06,1.2,1.72,1.72,0,0,0,1.81,1.28,1.87,1.87,0,0,0,1.94-1.29A4.82,4.82,0,0,0,24.34,15.9Z"/><path class="e" d="M32.05,15.9A5.92,5.92,0,0,0,32,14.81a1.78,1.78,0,0,0-1.86-1.43,1.7,1.7,0,0,0-1.9,1.37A5.91,5.91,0,0,0,28.16,16a4.7,4.7,0,0,0,.07,1.2A1.71,1.71,0,0,0,30,18.47,1.87,1.87,0,0,0,32,17.18,4.82,4.82,0,0,0,32.05,15.9Z"/><path class="e" d="M35.94,15.9a5.92,5.92,0,0,0-.08-1.09A1.78,1.78,0,0,0,34,13.38a1.7,1.7,0,0,0-1.9,1.37A5.91,5.91,0,0,0,32.05,16a4.7,4.7,0,0,0,.07,1.2,1.71,1.71,0,0,0,1.8,1.28,1.87,1.87,0,0,0,1.94-1.29A4.82,4.82,0,0,0,35.94,15.9Z"/><path class="e" d="M24.3,15.9a5.92,5.92,0,0,1,.08-1.09,1.78,1.78,0,0,1,1.86-1.43,1.7,1.7,0,0,1,1.9,1.37A5.91,5.91,0,0,1,28.19,16a4.7,4.7,0,0,1-.07,1.2,1.71,1.71,0,0,1-1.8,1.28,1.8,1.8,0,0,1-1.95-1.18A5.74,5.74,0,0,1,24.3,15.9Z"/><path class="e" d="M8.85,15.9a5.85,5.85,0,0,0-.09-1.09,1.77,1.77,0,0,0-1.85-1.43A1.7,1.7,0,0,0,5,14.75,6,6,0,0,0,5,16,4.3,4.3,0,0,0,5,17.19a1.72,1.72,0,0,0,1.81,1.28,1.85,1.85,0,0,0,1.93-1.29A4.8,4.8,0,0,0,8.85,15.9Z"/><path class="e" d="M16.56,15.9a5.92,5.92,0,0,0-.08-1.09,1.78,1.78,0,0,0-1.86-1.43,1.7,1.7,0,0,0-1.9,1.37A5.91,5.91,0,0,0,12.67,16a4.7,4.7,0,0,0,.07,1.2,1.71,1.71,0,0,0,1.8,1.28,1.87,1.87,0,0,0,1.94-1.29A4.82,4.82,0,0,0,16.56,15.9Z"/><path class="e" d="M20.45,15.9a5.92,5.92,0,0,0-.08-1.09,1.78,1.78,0,0,0-1.86-1.43,1.7,1.7,0,0,0-1.9,1.37A5.91,5.91,0,0,0,16.56,16a4.7,4.7,0,0,0,.07,1.2,1.71,1.71,0,0,0,1.8,1.28,1.87,1.87,0,0,0,1.94-1.29A4.82,4.82,0,0,0,20.45,15.9Z"/><path class="e" d="M8.81,15.9a5.92,5.92,0,0,1,.08-1.09,1.78,1.78,0,0,1,1.85-1.43,1.7,1.7,0,0,1,1.91,1.37,5.36,5.36,0,0,1,0,1.24,4.3,4.3,0,0,1-.06,1.2,1.71,1.71,0,0,1-1.8,1.28,1.81,1.81,0,0,1-2-1.18A5.75,5.75,0,0,1,8.81,15.9Z"/><path class="e" d="M36,15.9a5.85,5.85,0,0,1,.09-1.09,1.77,1.77,0,0,1,1.85-1.43,1.7,1.7,0,0,1,1.9,1.37,5.91,5.91,0,0,1,0,1.24,4.29,4.29,0,0,1-.07,1.2A1.7,1.7,0,0,1,38,18.47a1.8,1.8,0,0,1-2-1.18A5.74,5.74,0,0,1,36,15.9Z"/><path class="a" d="M62.8,2.52a6,6,0,0,1,.09-1.1A1.78,1.78,0,0,1,64.74,0a1.68,1.68,0,0,1,1.9,1.36,5.35,5.35,0,0,1,0,1.24,4.37,4.37,0,0,1-.06,1.21,1.74,1.74,0,0,1-1.81,1.28A1.81,1.81,0,0,1,62.87,3.9,5.63,5.63,0,0,1,62.8,2.52Z"/><path class="a" d="M19.39,2.52a5.2,5.2,0,0,0-.09-1.1A1.77,1.77,0,0,0,17.45,0a1.7,1.7,0,0,0-1.9,1.36A6,6,0,0,0,15.5,2.6a4.36,4.36,0,0,0,.07,1.21,1.72,1.72,0,0,0,1.8,1.28A1.87,1.87,0,0,0,19.31,3.8,4.82,4.82,0,0,0,19.39,2.52Z"/><path class="a" d="M27.1,2.52A6,6,0,0,0,27,1.42,1.79,1.79,0,0,0,25.16,0a1.7,1.7,0,0,0-1.9,1.36,6,6,0,0,0-.05,1.24,4.78,4.78,0,0,0,.07,1.21,1.73,1.73,0,0,0,1.8,1.28A1.87,1.87,0,0,0,27,3.8,4.82,4.82,0,0,0,27.1,2.52Z"/><path class="a" d="M31,2.52a6,6,0,0,0-.08-1.1A1.78,1.78,0,0,0,29.06,0a1.7,1.7,0,0,0-1.91,1.36,5.41,5.41,0,0,0,0,1.24,4.37,4.37,0,0,0,.06,1.21A1.73,1.73,0,0,0,29,5.09,1.86,1.86,0,0,0,30.91,3.8,4.82,4.82,0,0,0,31,2.52Z"/><path class="a" d="M19.35,2.52a6,6,0,0,1,.08-1.1A1.79,1.79,0,0,1,21.29,0a1.7,1.7,0,0,1,1.9,1.36,6,6,0,0,1,0,1.24,4.78,4.78,0,0,1-.07,1.21,1.73,1.73,0,0,1-1.8,1.28A1.81,1.81,0,0,1,19.42,3.9,5.63,5.63,0,0,1,19.35,2.52Z"/><path class="a" d="M3.9,2.52a6,6,0,0,0-.09-1.1A1.78,1.78,0,0,0,2,0,1.68,1.68,0,0,0,.06,1.36,5.35,5.35,0,0,0,0,2.6,4.37,4.37,0,0,0,.07,3.81,1.74,1.74,0,0,0,1.88,5.09,1.85,1.85,0,0,0,3.81,3.8,4.8,4.8,0,0,0,3.9,2.52Z"/><path class="a" d="M11.61,2.52a6,6,0,0,0-.08-1.1A1.79,1.79,0,0,0,9.67,0a1.7,1.7,0,0,0-1.9,1.36,6,6,0,0,0,0,1.24,4.78,4.78,0,0,0,.07,1.21,1.73,1.73,0,0,0,1.8,1.28A1.87,1.87,0,0,0,11.53,3.8,4.82,4.82,0,0,0,11.61,2.52Z"/><path class="a" d="M15.5,2.52a6,6,0,0,0-.08-1.1A1.79,1.79,0,0,0,13.56,0a1.7,1.7,0,0,0-1.9,1.36,6,6,0,0,0-.05,1.24,4.78,4.78,0,0,0,.07,1.21,1.73,1.73,0,0,0,1.8,1.28A1.87,1.87,0,0,0,15.42,3.8,4.82,4.82,0,0,0,15.5,2.52Z"/><path class="a" d="M3.86,2.52a6,6,0,0,1,.08-1.1A1.78,1.78,0,0,1,5.79,0,1.7,1.7,0,0,1,7.7,1.36a6,6,0,0,1,0,1.24,4.78,4.78,0,0,1-.07,1.21,1.73,1.73,0,0,1-1.8,1.28,1.83,1.83,0,0,1-2-1.19A5.65,5.65,0,0,1,3.86,2.52Z"/><path class="a" d="M31,2.52a6,6,0,0,1,.09-1.1A1.77,1.77,0,0,1,33,0a1.69,1.69,0,0,1,1.9,1.36,6,6,0,0,1,0,1.24,4.8,4.8,0,0,1-.06,1.21A1.74,1.74,0,0,1,33,5.09,1.81,1.81,0,0,1,31.09,3.9,5.63,5.63,0,0,1,31,2.52Z"/></svg>