<svg xmlns="http://www.w3.org/2000/svg" width="65.97" height="65.32" viewBox="0 0 65.97 65.32"><defs><style>.a{fill:#889bcf;}.b{fill:#fbf175;}.c{fill:#eb666a;}.d{fill:#86aca8;}.e{fill:#ffd69f;}</style></defs><title>Asset 98</title><path class="a" d="M33.84,2.52a6,6,0,0,0-.09-1.1A1.77,1.77,0,0,0,31.9,0,1.7,1.7,0,0,0,30,1.36,6,6,0,0,0,30,2.6,4.8,4.8,0,0,0,30,3.81a1.74,1.74,0,0,0,1.81,1.28A1.87,1.87,0,0,0,33.76,3.8,4.82,4.82,0,0,0,33.84,2.52Z"/><path class="a" d="M41.55,2.52a6,6,0,0,0-.08-1.1A1.79,1.79,0,0,0,39.61,0a1.7,1.7,0,0,0-1.9,1.36,6,6,0,0,0-.05,1.24,4.78,4.78,0,0,0,.07,1.21,1.73,1.73,0,0,0,1.8,1.28A1.87,1.87,0,0,0,41.47,3.8,4.82,4.82,0,0,0,41.55,2.52Z"/><path class="a" d="M45.44,2.52a6,6,0,0,0-.08-1.1A1.78,1.78,0,0,0,43.51,0,1.7,1.7,0,0,0,41.6,1.36a6,6,0,0,0-.05,1.24,4.78,4.78,0,0,0,.07,1.21,1.73,1.73,0,0,0,1.8,1.28A1.87,1.87,0,0,0,45.36,3.8,4.82,4.82,0,0,0,45.44,2.52Z"/><path class="a" d="M33.8,2.52a6,6,0,0,1,.08-1.1A1.79,1.79,0,0,1,35.74,0a1.7,1.7,0,0,1,1.9,1.36,6,6,0,0,1,0,1.24,4.78,4.78,0,0,1-.07,1.21,1.73,1.73,0,0,1-1.8,1.28,1.81,1.81,0,0,1-2-1.19A5.63,5.63,0,0,1,33.8,2.52Z"/><path class="a" d="M18.35,2.52a6,6,0,0,0-.09-1.1A1.78,1.78,0,0,0,16.41,0a1.68,1.68,0,0,0-1.9,1.36,5.35,5.35,0,0,0,0,1.24,4.37,4.37,0,0,0,.06,1.21,1.74,1.74,0,0,0,1.81,1.28A1.85,1.85,0,0,0,18.26,3.8,4.8,4.8,0,0,0,18.35,2.52Z"/><path class="a" d="M26.06,2.52A6,6,0,0,0,26,1.42,1.79,1.79,0,0,0,24.12,0a1.7,1.7,0,0,0-1.9,1.36,6,6,0,0,0,0,1.24,4.78,4.78,0,0,0,.07,1.21A1.73,1.73,0,0,0,24,5.09,1.87,1.87,0,0,0,26,3.8,4.82,4.82,0,0,0,26.06,2.52Z"/><path class="a" d="M30,2.52a6,6,0,0,0-.08-1.1A1.79,1.79,0,0,0,28,0a1.7,1.7,0,0,0-1.9,1.36,6,6,0,0,0-.05,1.24,4.78,4.78,0,0,0,.07,1.21,1.73,1.73,0,0,0,1.8,1.28A1.87,1.87,0,0,0,29.87,3.8,4.82,4.82,0,0,0,30,2.52Z"/><path class="a" d="M18.31,2.52a6,6,0,0,1,.08-1.1A1.78,1.78,0,0,1,20.24,0a1.7,1.7,0,0,1,1.91,1.36A6,6,0,0,1,22.2,2.6a4.78,4.78,0,0,1-.07,1.21,1.73,1.73,0,0,1-1.8,1.28,1.83,1.83,0,0,1-2-1.19A5.65,5.65,0,0,1,18.31,2.52Z"/><path class="a" d="M45.42,2.52a6,6,0,0,1,.09-1.1A1.78,1.78,0,0,1,47.36,0a1.68,1.68,0,0,1,1.9,1.36,5.35,5.35,0,0,1,.05,1.24,4.37,4.37,0,0,1-.06,1.21,1.74,1.74,0,0,1-1.81,1.28A1.81,1.81,0,0,1,45.49,3.9,5.63,5.63,0,0,1,45.42,2.52Z"/><path class="a" d="M49.32,2.52a6,6,0,0,1,.08-1.1A1.78,1.78,0,0,1,51.25,0a1.7,1.7,0,0,1,1.91,1.36,6,6,0,0,1,0,1.24,4.37,4.37,0,0,1-.06,1.21,1.73,1.73,0,0,1-1.81,1.28A1.81,1.81,0,0,1,49.38,3.9,5.65,5.65,0,0,1,49.32,2.52Z"/><path class="b" d="M33.06,62.74A5.85,5.85,0,0,0,33,61.65a1.78,1.78,0,0,0-1.85-1.42,1.68,1.68,0,0,0-1.9,1.36,5.33,5.33,0,0,0,0,1.24A4.37,4.37,0,0,0,29.23,64,1.74,1.74,0,0,0,31,65.32,1.86,1.86,0,0,0,33,64,4.88,4.88,0,0,0,33.06,62.74Z"/><path class="b" d="M40.77,62.74a5.92,5.92,0,0,0-.08-1.09,1.79,1.79,0,0,0-1.86-1.42,1.69,1.69,0,0,0-1.9,1.36,5.94,5.94,0,0,0,0,1.24A4.78,4.78,0,0,0,37,64a1.73,1.73,0,0,0,1.8,1.28A1.88,1.88,0,0,0,40.69,64,4.89,4.89,0,0,0,40.77,62.74Z"/><path class="b" d="M44.66,62.74a5.92,5.92,0,0,0-.08-1.09,1.79,1.79,0,0,0-1.86-1.42,1.69,1.69,0,0,0-1.9,1.36,5.94,5.94,0,0,0,0,1.24A4.78,4.78,0,0,0,40.84,64a1.73,1.73,0,0,0,1.8,1.28A1.88,1.88,0,0,0,44.58,64,4.89,4.89,0,0,0,44.66,62.74Z"/><path class="b" d="M33,62.74a5.92,5.92,0,0,1,.08-1.09A1.79,1.79,0,0,1,35,60.23a1.69,1.69,0,0,1,1.9,1.36,5.94,5.94,0,0,1,0,1.24A4.78,4.78,0,0,1,36.84,64,1.73,1.73,0,0,1,35,65.32a1.84,1.84,0,0,1-2-1.19A6.25,6.25,0,0,1,33,62.74Z"/><path class="b" d="M17.56,62.74a5.92,5.92,0,0,0-.08-1.09,1.78,1.78,0,0,0-1.85-1.42,1.69,1.69,0,0,0-1.91,1.36,6,6,0,0,0,0,1.24A4.37,4.37,0,0,0,13.74,64a1.73,1.73,0,0,0,1.81,1.28A1.86,1.86,0,0,0,17.48,64,4.89,4.89,0,0,0,17.56,62.74Z"/><path class="b" d="M25.28,62.74a5.11,5.11,0,0,0-.09-1.09,1.77,1.77,0,0,0-1.85-1.42,1.69,1.69,0,0,0-1.9,1.36,5.94,5.94,0,0,0-.05,1.24A4.36,4.36,0,0,0,21.46,64a1.72,1.72,0,0,0,1.8,1.28A1.88,1.88,0,0,0,25.2,64,4.89,4.89,0,0,0,25.28,62.74Z"/><path class="b" d="M29.17,62.74a5.92,5.92,0,0,0-.08-1.09,1.79,1.79,0,0,0-1.86-1.42,1.69,1.69,0,0,0-1.9,1.36,5.94,5.94,0,0,0,0,1.24A4.78,4.78,0,0,0,25.35,64a1.73,1.73,0,0,0,1.8,1.28A1.88,1.88,0,0,0,29.09,64,4.89,4.89,0,0,0,29.17,62.74Z"/><path class="b" d="M17.53,62.74a5.92,5.92,0,0,1,.08-1.09,1.78,1.78,0,0,1,1.85-1.42,1.69,1.69,0,0,1,1.91,1.36,6,6,0,0,1,0,1.24A4.37,4.37,0,0,1,21.35,64a1.73,1.73,0,0,1-1.81,1.28,1.83,1.83,0,0,1-1.95-1.19A5.7,5.7,0,0,1,17.53,62.74Z"/><path class="b" d="M44.64,62.74a5.85,5.85,0,0,1,.09-1.09,1.78,1.78,0,0,1,1.85-1.42,1.68,1.68,0,0,1,1.9,1.36,5.33,5.33,0,0,1,.05,1.24A4.37,4.37,0,0,1,48.47,64a1.74,1.74,0,0,1-1.81,1.28,1.82,1.82,0,0,1-1.95-1.19A5.68,5.68,0,0,1,44.64,62.74Z"/><path class="b" d="M48.53,62.74a5.85,5.85,0,0,1,.09-1.09,1.78,1.78,0,0,1,1.85-1.42,1.68,1.68,0,0,1,1.9,1.36,5.33,5.33,0,0,1,.05,1.24A4.37,4.37,0,0,1,52.36,64a1.74,1.74,0,0,1-1.81,1.28,1.83,1.83,0,0,1-1.95-1.19A5.68,5.68,0,0,1,48.53,62.74Z"/><path class="c" d="M4.19,42.67a6,6,0,0,0-.09-1.1,1.77,1.77,0,0,0-1.85-1.42,1.7,1.7,0,0,0-1.9,1.36,6,6,0,0,0,0,1.24A4.8,4.8,0,0,0,.36,44a1.74,1.74,0,0,0,1.81,1.28A1.87,1.87,0,0,0,4.11,44,4.82,4.82,0,0,0,4.19,42.67Z"/><path class="c" d="M11.9,42.67a6,6,0,0,0-.08-1.1A1.79,1.79,0,0,0,10,40.15a1.7,1.7,0,0,0-1.9,1.36A6,6,0,0,0,8,42.75,4.78,4.78,0,0,0,8.08,44a1.73,1.73,0,0,0,1.8,1.28A1.87,1.87,0,0,0,11.82,44,4.82,4.82,0,0,0,11.9,42.67Z"/><path class="c" d="M15.79,42.67a6,6,0,0,0-.08-1.1,1.79,1.79,0,0,0-1.86-1.42A1.7,1.7,0,0,0,12,41.51a6,6,0,0,0,0,1.24A4.78,4.78,0,0,0,12,44a1.73,1.73,0,0,0,1.8,1.28A1.87,1.87,0,0,0,15.71,44,4.82,4.82,0,0,0,15.79,42.67Z"/><path class="c" d="M4.15,42.67a6,6,0,0,1,.08-1.1,1.79,1.79,0,0,1,1.86-1.42A1.7,1.7,0,0,1,8,41.51a6,6,0,0,1,0,1.24A4.78,4.78,0,0,1,8,44a1.73,1.73,0,0,1-1.8,1.28,1.81,1.81,0,0,1-1.95-1.19A5.63,5.63,0,0,1,4.15,42.67Z"/><path class="c" d="M15.82,42.67a6,6,0,0,1,.09-1.1,1.77,1.77,0,0,1,1.85-1.42,1.7,1.7,0,0,1,1.9,1.36,6,6,0,0,1,.05,1.24A4.8,4.8,0,0,1,19.65,44a1.74,1.74,0,0,1-1.81,1.28,1.81,1.81,0,0,1-1.95-1.19A5.63,5.63,0,0,1,15.82,42.67Z"/><path class="c" d="M50.44,42.67a6,6,0,0,0-.08-1.1,1.79,1.79,0,0,0-1.86-1.42,1.7,1.7,0,0,0-1.9,1.36,6,6,0,0,0-.05,1.24A4.78,4.78,0,0,0,46.62,44a1.73,1.73,0,0,0,1.8,1.28A1.87,1.87,0,0,0,50.36,44,4.82,4.82,0,0,0,50.44,42.67Z"/><path class="c" d="M58.15,42.67a6,6,0,0,0-.08-1.1,1.78,1.78,0,0,0-1.85-1.42,1.7,1.7,0,0,0-1.91,1.36,5.41,5.41,0,0,0,0,1.24A4.37,4.37,0,0,0,54.33,44a1.73,1.73,0,0,0,1.8,1.28A1.86,1.86,0,0,0,58.07,44,4.82,4.82,0,0,0,58.15,42.67Z"/><path class="c" d="M62,42.67a6,6,0,0,0-.08-1.1,1.78,1.78,0,0,0-1.85-1.42,1.7,1.7,0,0,0-1.91,1.36,6,6,0,0,0,0,1.24A4.37,4.37,0,0,0,58.22,44,1.73,1.73,0,0,0,60,45.24,1.85,1.85,0,0,0,62,44,4.82,4.82,0,0,0,62,42.67Z"/><path class="c" d="M50.4,42.67a6,6,0,0,1,.08-1.1,1.79,1.79,0,0,1,1.86-1.42,1.7,1.7,0,0,1,1.9,1.36,6,6,0,0,1,0,1.24A4.36,4.36,0,0,1,54.22,44a1.72,1.72,0,0,1-1.8,1.28,1.81,1.81,0,0,1-2-1.19A5.63,5.63,0,0,1,50.4,42.67Z"/><path class="c" d="M62.07,42.67a6,6,0,0,1,.09-1.1A1.78,1.78,0,0,1,64,40.15a1.68,1.68,0,0,1,1.9,1.36,5.35,5.35,0,0,1,0,1.24A4.37,4.37,0,0,1,65.9,44a1.74,1.74,0,0,1-1.81,1.28,1.81,1.81,0,0,1-2-1.19A5.63,5.63,0,0,1,62.07,42.67Z"/><path class="c" d="M9.24,9.21a6,6,0,0,0-.09-1.1A1.78,1.78,0,0,0,7.3,6.69,1.7,1.7,0,0,0,5.39,8.05a6.12,6.12,0,0,0,0,1.25,4.32,4.32,0,0,0,.06,1.2,1.73,1.73,0,0,0,1.81,1.28,1.85,1.85,0,0,0,1.93-1.29A4.8,4.8,0,0,0,9.24,9.21Z"/><path class="c" d="M17,9.21a6.1,6.1,0,0,0-.08-1.1A1.79,1.79,0,0,0,15,6.69a1.7,1.7,0,0,0-1.9,1.36,6,6,0,0,0,0,1.25,4.73,4.73,0,0,0,.07,1.2,1.72,1.72,0,0,0,1.8,1.28,1.87,1.87,0,0,0,1.94-1.29A4.82,4.82,0,0,0,17,9.21Z"/><path class="c" d="M20.84,9.21a6.1,6.1,0,0,0-.08-1.1A1.79,1.79,0,0,0,18.9,6.69,1.7,1.7,0,0,0,17,8.05,6,6,0,0,0,17,9.3,4.73,4.73,0,0,0,17,10.5a1.72,1.72,0,0,0,1.8,1.28,1.87,1.87,0,0,0,1.94-1.29A4.82,4.82,0,0,0,20.84,9.21Z"/><path class="c" d="M9.2,9.21a6.1,6.1,0,0,1,.08-1.1,1.78,1.78,0,0,1,1.85-1.42A1.7,1.7,0,0,1,13,8.05a5.48,5.48,0,0,1,0,1.25A4.32,4.32,0,0,1,13,10.5a1.72,1.72,0,0,1-1.8,1.28,1.82,1.82,0,0,1-2-1.19A5.65,5.65,0,0,1,9.2,9.21Z"/><path class="c" d="M20.87,9.21A6.1,6.1,0,0,1,21,8.11a1.79,1.79,0,0,1,1.86-1.42,1.7,1.7,0,0,1,1.9,1.36,6,6,0,0,1,.05,1.25,4.73,4.73,0,0,1-.07,1.2,1.72,1.72,0,0,1-1.8,1.28,1.81,1.81,0,0,1-1.95-1.19A5.63,5.63,0,0,1,20.87,9.21Z"/><path class="c" d="M45,9.21A6.1,6.1,0,0,0,45,8.11a1.79,1.79,0,0,0-1.86-1.42,1.7,1.7,0,0,0-1.9,1.36,6,6,0,0,0,0,1.25,4.73,4.73,0,0,0,.07,1.2A1.72,1.72,0,0,0,43,11.78,1.87,1.87,0,0,0,45,10.49,4.82,4.82,0,0,0,45,9.21Z"/><path class="c" d="M52.74,9.21a6.1,6.1,0,0,0-.08-1.1,1.78,1.78,0,0,0-1.85-1.42A1.7,1.7,0,0,0,48.9,8.05a6.12,6.12,0,0,0,0,1.25,4.32,4.32,0,0,0,.06,1.2,1.72,1.72,0,0,0,1.81,1.28,1.85,1.85,0,0,0,1.93-1.29A4.82,4.82,0,0,0,52.74,9.21Z"/><path class="c" d="M56.64,9.21a6,6,0,0,0-.09-1.1A1.78,1.78,0,0,0,54.7,6.69a1.7,1.7,0,0,0-1.91,1.36,6.12,6.12,0,0,0,0,1.25,4.32,4.32,0,0,0,.06,1.2,1.73,1.73,0,0,0,1.81,1.28,1.85,1.85,0,0,0,1.93-1.29A4.8,4.8,0,0,0,56.64,9.21Z"/><path class="c" d="M45,9.21a5.26,5.26,0,0,1,.09-1.1,1.77,1.77,0,0,1,1.85-1.42,1.7,1.7,0,0,1,1.9,1.36,6,6,0,0,1,.05,1.25,4.31,4.31,0,0,1-.07,1.2A1.71,1.71,0,0,1,47,11.78a1.81,1.81,0,0,1-1.95-1.19A5.63,5.63,0,0,1,45,9.21Z"/><path class="c" d="M56.66,9.21a6,6,0,0,1,.09-1.1A1.78,1.78,0,0,1,58.6,6.69a1.7,1.7,0,0,1,1.91,1.36,6.12,6.12,0,0,1,0,1.25,4.32,4.32,0,0,1-.06,1.2,1.72,1.72,0,0,1-1.81,1.28,1.81,1.81,0,0,1-2-1.19A5.63,5.63,0,0,1,56.66,9.21Z"/><path class="b" d="M4.08,29.28A5.92,5.92,0,0,0,4,28.19a1.78,1.78,0,0,0-1.85-1.42A1.69,1.69,0,0,0,.24,28.13a5.94,5.94,0,0,0,0,1.24,4.78,4.78,0,0,0,.07,1.21,1.73,1.73,0,0,0,1.8,1.28A1.88,1.88,0,0,0,4,30.57,4.89,4.89,0,0,0,4.08,29.28Z"/><path class="b" d="M11.8,29.28a5.85,5.85,0,0,0-.09-1.09,1.78,1.78,0,0,0-1.85-1.42A1.68,1.68,0,0,0,8,28.13a5.33,5.33,0,0,0,0,1.24A4.37,4.37,0,0,0,8,30.58a1.74,1.74,0,0,0,1.81,1.28,1.86,1.86,0,0,0,1.93-1.29A4.88,4.88,0,0,0,11.8,29.28Z"/><path class="b" d="M15.69,29.28a5.85,5.85,0,0,0-.09-1.09,1.77,1.77,0,0,0-1.85-1.42,1.69,1.69,0,0,0-1.9,1.36,5.94,5.94,0,0,0,0,1.24,4.8,4.8,0,0,0,.06,1.21,1.74,1.74,0,0,0,1.81,1.28,1.88,1.88,0,0,0,1.94-1.29A4.89,4.89,0,0,0,15.69,29.28Z"/><path class="b" d="M4,29.28a5.85,5.85,0,0,1,.09-1.09A1.78,1.78,0,0,1,6,26.77a1.68,1.68,0,0,1,1.9,1.36,5.33,5.33,0,0,1,0,1.24,4.37,4.37,0,0,1-.06,1.21,1.74,1.74,0,0,1-1.81,1.28,1.83,1.83,0,0,1-1.95-1.19A5.68,5.68,0,0,1,4,29.28Z"/><path class="b" d="M15.72,29.28a5.92,5.92,0,0,1,.08-1.09,1.78,1.78,0,0,1,1.85-1.42,1.69,1.69,0,0,1,1.91,1.36,5.94,5.94,0,0,1,.05,1.24,4.78,4.78,0,0,1-.07,1.21,1.73,1.73,0,0,1-1.8,1.28,1.84,1.84,0,0,1-2-1.19A5.7,5.7,0,0,1,15.72,29.28Z"/><path class="b" d="M49.83,29.28a5.92,5.92,0,0,0-.08-1.09,1.78,1.78,0,0,0-1.85-1.42A1.69,1.69,0,0,0,46,28.13a5.94,5.94,0,0,0-.05,1.24A4.78,4.78,0,0,0,46,30.58a1.73,1.73,0,0,0,1.8,1.28,1.88,1.88,0,0,0,1.94-1.29A4.89,4.89,0,0,0,49.83,29.28Z"/><path class="b" d="M57.55,29.28a5.85,5.85,0,0,0-.09-1.09,1.78,1.78,0,0,0-1.85-1.42,1.68,1.68,0,0,0-1.9,1.36,5.33,5.33,0,0,0-.05,1.24,4.37,4.37,0,0,0,.06,1.21,1.74,1.74,0,0,0,1.81,1.28,1.86,1.86,0,0,0,1.93-1.29A4.88,4.88,0,0,0,57.55,29.28Z"/><path class="b" d="M61.44,29.28a5.85,5.85,0,0,0-.09-1.09,1.77,1.77,0,0,0-1.85-1.42,1.69,1.69,0,0,0-1.9,1.36,5.94,5.94,0,0,0-.05,1.24,4.8,4.8,0,0,0,.06,1.21,1.74,1.74,0,0,0,1.81,1.28,1.88,1.88,0,0,0,1.94-1.29A4.89,4.89,0,0,0,61.44,29.28Z"/><path class="b" d="M49.79,29.28a5.85,5.85,0,0,1,.09-1.09,1.78,1.78,0,0,1,1.85-1.42,1.68,1.68,0,0,1,1.9,1.36,5.33,5.33,0,0,1,0,1.24,4.37,4.37,0,0,1-.06,1.21,1.74,1.74,0,0,1-1.81,1.28,1.83,1.83,0,0,1-2-1.19A5.68,5.68,0,0,1,49.79,29.28Z"/><path class="b" d="M61.47,29.28a5.92,5.92,0,0,1,.08-1.09,1.78,1.78,0,0,1,1.85-1.42,1.69,1.69,0,0,1,1.91,1.36,5.94,5.94,0,0,1,0,1.24,4.78,4.78,0,0,1-.07,1.21,1.73,1.73,0,0,1-1.8,1.28,1.84,1.84,0,0,1-2-1.19A5.7,5.7,0,0,1,61.47,29.28Z"/><path class="d" d="M4.07,22.59A5.92,5.92,0,0,0,4,21.5a1.79,1.79,0,0,0-1.86-1.42,1.69,1.69,0,0,0-1.9,1.36,5.91,5.91,0,0,0-.05,1.24,4.78,4.78,0,0,0,.07,1.21,1.73,1.73,0,0,0,1.8,1.28A1.88,1.88,0,0,0,4,23.87,4.82,4.82,0,0,0,4.07,22.59Z"/><path class="d" d="M11.79,22.59a5.85,5.85,0,0,0-.09-1.09,1.78,1.78,0,0,0-1.85-1.42,1.69,1.69,0,0,0-1.91,1.36,6,6,0,0,0,0,1.24A4.37,4.37,0,0,0,8,23.89a1.73,1.73,0,0,0,1.81,1.28,1.87,1.87,0,0,0,1.93-1.3A4.8,4.8,0,0,0,11.79,22.59Z"/><path class="d" d="M15.68,22.59a5.85,5.85,0,0,0-.09-1.09,1.78,1.78,0,0,0-1.85-1.42,1.68,1.68,0,0,0-1.9,1.36,5.3,5.3,0,0,0-.05,1.24,4.37,4.37,0,0,0,.06,1.21,1.74,1.74,0,0,0,1.81,1.28,1.87,1.87,0,0,0,1.93-1.3A4.8,4.8,0,0,0,15.68,22.59Z"/><path class="d" d="M4,22.59a5.85,5.85,0,0,1,.09-1.09A1.77,1.77,0,0,1,6,20.08a1.68,1.68,0,0,1,1.9,1.36,5.3,5.3,0,0,1,0,1.24,4.8,4.8,0,0,1-.06,1.21,1.74,1.74,0,0,1-1.81,1.28A1.82,1.82,0,0,1,4.1,24,5.71,5.71,0,0,1,4,22.59Z"/><path class="d" d="M15.71,22.59a5.92,5.92,0,0,1,.08-1.09,1.78,1.78,0,0,1,1.85-1.42,1.69,1.69,0,0,1,1.91,1.36,6,6,0,0,1,0,1.24,4.37,4.37,0,0,1-.06,1.21,1.73,1.73,0,0,1-1.81,1.28A1.83,1.83,0,0,1,15.77,24,5.73,5.73,0,0,1,15.71,22.59Z"/><path class="d" d="M50.28,22.59a5.92,5.92,0,0,0-.08-1.09,1.79,1.79,0,0,0-1.86-1.42,1.69,1.69,0,0,0-1.9,1.36,5.91,5.91,0,0,0,0,1.24,4.78,4.78,0,0,0,.07,1.21,1.73,1.73,0,0,0,1.8,1.28,1.89,1.89,0,0,0,1.94-1.3A4.82,4.82,0,0,0,50.28,22.59Z"/><path class="d" d="M58,22.59a5.92,5.92,0,0,0-.08-1.09,1.78,1.78,0,0,0-1.85-1.42,1.69,1.69,0,0,0-1.91,1.36,6,6,0,0,0,0,1.24,4.37,4.37,0,0,0,.06,1.21A1.73,1.73,0,0,0,56,25.17a1.87,1.87,0,0,0,1.93-1.3A4.82,4.82,0,0,0,58,22.59Z"/><path class="d" d="M61.89,22.59a5.85,5.85,0,0,0-.09-1.09A1.78,1.78,0,0,0,60,20.08,1.69,1.69,0,0,0,58,21.44a6,6,0,0,0,0,1.24,4.37,4.37,0,0,0,.06,1.21,1.73,1.73,0,0,0,1.81,1.28,1.87,1.87,0,0,0,1.93-1.3A4.8,4.8,0,0,0,61.89,22.59Z"/><path class="d" d="M50.24,22.59a5.11,5.11,0,0,1,.09-1.09,1.77,1.77,0,0,1,1.85-1.42,1.69,1.69,0,0,1,1.9,1.36,5.91,5.91,0,0,1,.05,1.24,4.36,4.36,0,0,1-.07,1.21,1.72,1.72,0,0,1-1.8,1.28A1.82,1.82,0,0,1,50.31,24,5.71,5.71,0,0,1,50.24,22.59Z"/><path class="d" d="M61.91,22.59A5.85,5.85,0,0,1,62,21.5a1.78,1.78,0,0,1,1.85-1.42,1.69,1.69,0,0,1,1.91,1.36,6,6,0,0,1,0,1.24,4.37,4.37,0,0,1-.06,1.21,1.73,1.73,0,0,1-1.81,1.28A1.83,1.83,0,0,1,62,24,5.71,5.71,0,0,1,61.91,22.59Z"/><path class="d" d="M46.21,56.05A5.92,5.92,0,0,0,46.13,55a1.79,1.79,0,0,0-1.86-1.43,1.7,1.7,0,0,0-1.9,1.37,5.91,5.91,0,0,0,0,1.24,4.78,4.78,0,0,0,.07,1.21,1.71,1.71,0,0,0,1.8,1.27,1.87,1.87,0,0,0,1.94-1.29A4.82,4.82,0,0,0,46.21,56.05Z"/><path class="d" d="M53.92,56.05A5.92,5.92,0,0,0,53.84,55,1.78,1.78,0,0,0,52,53.53a1.7,1.7,0,0,0-1.91,1.37,6,6,0,0,0,0,1.24,4.37,4.37,0,0,0,.06,1.21,1.71,1.71,0,0,0,1.81,1.27,1.85,1.85,0,0,0,1.93-1.29A4.82,4.82,0,0,0,53.92,56.05Z"/><path class="d" d="M57.82,56.05A5.85,5.85,0,0,0,57.73,55a1.78,1.78,0,0,0-1.85-1.43A1.68,1.68,0,0,0,54,54.9a5.3,5.3,0,0,0,0,1.24A4.37,4.37,0,0,0,54,57.35a1.72,1.72,0,0,0,1.81,1.27,1.85,1.85,0,0,0,1.93-1.29A4.8,4.8,0,0,0,57.82,56.05Z"/><path class="d" d="M46.17,56.05A5.85,5.85,0,0,1,46.26,55a1.78,1.78,0,0,1,1.85-1.43A1.7,1.7,0,0,1,50,54.9a5.91,5.91,0,0,1,.05,1.24A4.8,4.8,0,0,1,50,57.35a1.72,1.72,0,0,1-1.81,1.27,1.8,1.8,0,0,1-1.95-1.18A5.74,5.74,0,0,1,46.17,56.05Z"/><path class="d" d="M57.85,56.05A5.92,5.92,0,0,1,57.93,55a1.78,1.78,0,0,1,1.85-1.43,1.7,1.7,0,0,1,1.91,1.37,6,6,0,0,1,0,1.24,4.37,4.37,0,0,1-.06,1.21,1.71,1.71,0,0,1-1.81,1.27,1.81,1.81,0,0,1-2-1.18A5.75,5.75,0,0,1,57.85,56.05Z"/><path class="d" d="M8.15,56.05A5.92,5.92,0,0,0,8.07,55a1.79,1.79,0,0,0-1.86-1.43,1.7,1.7,0,0,0-1.9,1.37,5.91,5.91,0,0,0,0,1.24,4.78,4.78,0,0,0,.07,1.21,1.71,1.71,0,0,0,1.8,1.27,1.87,1.87,0,0,0,1.94-1.29A4.82,4.82,0,0,0,8.15,56.05Z"/><path class="d" d="M15.87,56.05A5.85,5.85,0,0,0,15.78,55a1.78,1.78,0,0,0-1.85-1.43A1.68,1.68,0,0,0,12,54.9a5.3,5.3,0,0,0,0,1.24A4.37,4.37,0,0,0,12,57.35a1.72,1.72,0,0,0,1.81,1.27,1.85,1.85,0,0,0,1.93-1.29A4.8,4.8,0,0,0,15.87,56.05Z"/><path class="d" d="M19.76,56.05A5.85,5.85,0,0,0,19.67,55a1.78,1.78,0,0,0-1.85-1.43,1.69,1.69,0,0,0-1.9,1.37,5.91,5.91,0,0,0-.05,1.24,4.8,4.8,0,0,0,.06,1.21,1.72,1.72,0,0,0,1.81,1.27,1.87,1.87,0,0,0,1.94-1.29A4.82,4.82,0,0,0,19.76,56.05Z"/><path class="d" d="M8.11,56.05A5.85,5.85,0,0,1,8.2,55a1.78,1.78,0,0,1,1.85-1.43A1.68,1.68,0,0,1,12,54.9,5.3,5.3,0,0,1,12,56.14a4.37,4.37,0,0,1-.06,1.21,1.72,1.72,0,0,1-1.81,1.27,1.8,1.8,0,0,1-2-1.18A5.74,5.74,0,0,1,8.11,56.05Z"/><path class="d" d="M19.79,56.05A5.92,5.92,0,0,1,19.87,55a1.79,1.79,0,0,1,1.85-1.43,1.7,1.7,0,0,1,1.91,1.37,5.36,5.36,0,0,1,0,1.24,4.37,4.37,0,0,1-.06,1.21,1.71,1.71,0,0,1-1.8,1.27,1.81,1.81,0,0,1-2-1.18A5.75,5.75,0,0,1,19.79,56.05Z"/><path class="e" d="M5.61,15.9a5.85,5.85,0,0,0-.09-1.09,1.77,1.77,0,0,0-1.85-1.43,1.7,1.7,0,0,0-1.91,1.37,6,6,0,0,0,0,1.24,4.3,4.3,0,0,0,.06,1.2,1.71,1.71,0,0,0,1.81,1.28,1.85,1.85,0,0,0,1.93-1.29A4.8,4.8,0,0,0,5.61,15.9Z"/><path class="e" d="M13.32,15.9a5.92,5.92,0,0,0-.08-1.09,1.78,1.78,0,0,0-1.86-1.43,1.7,1.7,0,0,0-1.9,1.37A5.91,5.91,0,0,0,9.43,16a4.29,4.29,0,0,0,.07,1.2,1.7,1.7,0,0,0,1.8,1.28,1.87,1.87,0,0,0,1.94-1.29A4.82,4.82,0,0,0,13.32,15.9Z"/><path class="e" d="M17.21,15.9a5.92,5.92,0,0,0-.08-1.09,1.78,1.78,0,0,0-1.86-1.43,1.7,1.7,0,0,0-1.9,1.37,5.91,5.91,0,0,0,0,1.24,4.7,4.7,0,0,0,.07,1.2,1.71,1.71,0,0,0,1.8,1.28,1.87,1.87,0,0,0,1.94-1.29A4.82,4.82,0,0,0,17.21,15.9Z"/><path class="e" d="M5.57,15.9a5.92,5.92,0,0,1,.08-1.09A1.78,1.78,0,0,1,7.5,13.38a1.7,1.7,0,0,1,1.91,1.37,5.36,5.36,0,0,1,0,1.24,4.3,4.3,0,0,1-.06,1.2,1.71,1.71,0,0,1-1.8,1.28,1.81,1.81,0,0,1-2-1.18A5.75,5.75,0,0,1,5.57,15.9Z"/><path class="e" d="M17.24,15.9a5.92,5.92,0,0,1,.08-1.09,1.78,1.78,0,0,1,1.86-1.43,1.7,1.7,0,0,1,1.9,1.37A5.91,5.91,0,0,1,21.13,16a4.7,4.7,0,0,1-.07,1.2,1.71,1.71,0,0,1-1.8,1.28,1.8,1.8,0,0,1-2-1.18A5.74,5.74,0,0,1,17.24,15.9Z"/><path class="e" d="M49,15.9a5.85,5.85,0,0,0-.09-1.09,1.77,1.77,0,0,0-1.85-1.43,1.7,1.7,0,0,0-1.91,1.37,6,6,0,0,0,0,1.24,4.3,4.3,0,0,0,.06,1.2A1.71,1.71,0,0,0,47,18.47a1.85,1.85,0,0,0,1.93-1.29A4.8,4.8,0,0,0,49,15.9Z"/><path class="e" d="M56.74,15.9a5.92,5.92,0,0,0-.08-1.09,1.78,1.78,0,0,0-1.86-1.43,1.7,1.7,0,0,0-1.9,1.37,5.91,5.91,0,0,0,0,1.24,4.29,4.29,0,0,0,.07,1.2,1.7,1.7,0,0,0,1.8,1.28,1.87,1.87,0,0,0,1.94-1.29A4.82,4.82,0,0,0,56.74,15.9Z"/><path class="e" d="M60.63,15.9a5.92,5.92,0,0,0-.08-1.09,1.78,1.78,0,0,0-1.86-1.43,1.7,1.7,0,0,0-1.9,1.37,5.91,5.91,0,0,0,0,1.24,4.7,4.7,0,0,0,.07,1.2,1.71,1.71,0,0,0,1.8,1.28,1.87,1.87,0,0,0,1.94-1.29A4.82,4.82,0,0,0,60.63,15.9Z"/><path class="e" d="M49,15.9a5.92,5.92,0,0,1,.08-1.09,1.78,1.78,0,0,1,1.85-1.43,1.7,1.7,0,0,1,1.91,1.37,5.36,5.36,0,0,1,0,1.24,4.3,4.3,0,0,1-.06,1.2A1.71,1.71,0,0,1,51,18.47a1.81,1.81,0,0,1-2-1.18A5.75,5.75,0,0,1,49,15.9Z"/><path class="e" d="M60.66,15.9a5.92,5.92,0,0,1,.08-1.09,1.78,1.78,0,0,1,1.86-1.43,1.7,1.7,0,0,1,1.9,1.37,5.91,5.91,0,0,1,0,1.24,4.7,4.7,0,0,1-.07,1.2,1.71,1.71,0,0,1-1.8,1.28,1.8,1.8,0,0,1-2-1.18A5.74,5.74,0,0,1,60.66,15.9Z"/><path class="e" d="M5.61,49.36a6,6,0,0,0-.09-1.1,1.78,1.78,0,0,0-1.85-1.42,1.7,1.7,0,0,0-1.91,1.37,6,6,0,0,0,0,1.24,4.3,4.3,0,0,0,.06,1.2,1.71,1.71,0,0,0,1.81,1.28,1.85,1.85,0,0,0,1.93-1.29A4.8,4.8,0,0,0,5.61,49.36Z"/><path class="e" d="M13.32,49.36a6.1,6.1,0,0,0-.08-1.1,1.79,1.79,0,0,0-1.86-1.42,1.7,1.7,0,0,0-1.9,1.37,5.91,5.91,0,0,0-.05,1.24,4.29,4.29,0,0,0,.07,1.2,1.7,1.7,0,0,0,1.8,1.28,1.87,1.87,0,0,0,1.94-1.29A4.82,4.82,0,0,0,13.32,49.36Z"/><path class="e" d="M17.21,49.36a6.1,6.1,0,0,0-.08-1.1,1.79,1.79,0,0,0-1.86-1.42,1.7,1.7,0,0,0-1.9,1.37,5.91,5.91,0,0,0,0,1.24,4.7,4.7,0,0,0,.07,1.2,1.71,1.71,0,0,0,1.8,1.28,1.87,1.87,0,0,0,1.94-1.29A4.82,4.82,0,0,0,17.21,49.36Z"/><path class="e" d="M5.57,49.36a6.1,6.1,0,0,1,.08-1.1A1.78,1.78,0,0,1,7.5,46.84a1.7,1.7,0,0,1,1.91,1.37,5.36,5.36,0,0,1,0,1.24,4.3,4.3,0,0,1-.06,1.2,1.71,1.71,0,0,1-1.8,1.28,1.81,1.81,0,0,1-2-1.18A5.75,5.75,0,0,1,5.57,49.36Z"/><path class="e" d="M17.24,49.36a6.1,6.1,0,0,1,.08-1.1,1.79,1.79,0,0,1,1.86-1.42,1.7,1.7,0,0,1,1.9,1.37,5.91,5.91,0,0,1,.05,1.24,4.7,4.7,0,0,1-.07,1.2,1.71,1.71,0,0,1-1.8,1.28,1.8,1.8,0,0,1-2-1.18A5.74,5.74,0,0,1,17.24,49.36Z"/><path class="e" d="M49,49.36a6,6,0,0,0-.09-1.1,1.78,1.78,0,0,0-1.85-1.42,1.7,1.7,0,0,0-1.91,1.37,6,6,0,0,0,0,1.24,4.3,4.3,0,0,0,.06,1.2A1.71,1.71,0,0,0,47,51.93a1.85,1.85,0,0,0,1.93-1.29A4.8,4.8,0,0,0,49,49.36Z"/><path class="e" d="M56.74,49.36a6.1,6.1,0,0,0-.08-1.1,1.79,1.79,0,0,0-1.86-1.42,1.7,1.7,0,0,0-1.9,1.37,5.91,5.91,0,0,0,0,1.24,4.29,4.29,0,0,0,.07,1.2,1.7,1.7,0,0,0,1.8,1.28,1.87,1.87,0,0,0,1.94-1.29A4.82,4.82,0,0,0,56.74,49.36Z"/><path class="e" d="M60.63,49.36a6.1,6.1,0,0,0-.08-1.1,1.79,1.79,0,0,0-1.86-1.42,1.7,1.7,0,0,0-1.9,1.37,5.91,5.91,0,0,0,0,1.24,4.7,4.7,0,0,0,.07,1.2,1.71,1.71,0,0,0,1.8,1.28,1.87,1.87,0,0,0,1.94-1.29A4.82,4.82,0,0,0,60.63,49.36Z"/><path class="e" d="M49,49.36a6.1,6.1,0,0,1,.08-1.1,1.78,1.78,0,0,1,1.85-1.42,1.7,1.7,0,0,1,1.91,1.37,5.36,5.36,0,0,1,0,1.24,4.3,4.3,0,0,1-.06,1.2A1.71,1.71,0,0,1,51,51.93a1.81,1.81,0,0,1-2-1.18A5.75,5.75,0,0,1,49,49.36Z"/><path class="e" d="M60.66,49.36a6.1,6.1,0,0,1,.08-1.1,1.79,1.79,0,0,1,1.86-1.42,1.7,1.7,0,0,1,1.9,1.37,5.91,5.91,0,0,1,0,1.24,4.7,4.7,0,0,1-.07,1.2,1.71,1.71,0,0,1-1.8,1.28,1.8,1.8,0,0,1-2-1.18A5.74,5.74,0,0,1,60.66,49.36Z"/><path class="a" d="M3.9,36a5.89,5.89,0,0,0-.09-1.1A1.78,1.78,0,0,0,2,33.46a1.68,1.68,0,0,0-1.9,1.36,5.35,5.35,0,0,0,0,1.24,4.37,4.37,0,0,0,.06,1.21,1.74,1.74,0,0,0,1.81,1.28,1.85,1.85,0,0,0,1.93-1.29A4.8,4.8,0,0,0,3.9,36Z"/><path class="a" d="M11.61,36a6,6,0,0,0-.08-1.1,1.79,1.79,0,0,0-1.86-1.42,1.69,1.69,0,0,0-1.9,1.36,6,6,0,0,0,0,1.24,4.78,4.78,0,0,0,.07,1.21,1.73,1.73,0,0,0,1.8,1.28,1.87,1.87,0,0,0,1.94-1.29A4.82,4.82,0,0,0,11.61,36Z"/><path class="a" d="M15.5,36a6,6,0,0,0-.08-1.1,1.79,1.79,0,0,0-1.86-1.42,1.69,1.69,0,0,0-1.9,1.36,6,6,0,0,0-.05,1.24,4.78,4.78,0,0,0,.07,1.21,1.73,1.73,0,0,0,1.8,1.28,1.87,1.87,0,0,0,1.94-1.29A4.82,4.82,0,0,0,15.5,36Z"/><path class="a" d="M3.86,36a6,6,0,0,1,.08-1.1,1.78,1.78,0,0,1,1.85-1.42A1.69,1.69,0,0,1,7.7,34.82a6,6,0,0,1,0,1.24,4.78,4.78,0,0,1-.07,1.21,1.73,1.73,0,0,1-1.8,1.28,1.83,1.83,0,0,1-2-1.19A5.65,5.65,0,0,1,3.86,36Z"/><path class="a" d="M15.53,36a6,6,0,0,1,.08-1.1,1.79,1.79,0,0,1,1.86-1.42,1.69,1.69,0,0,1,1.9,1.36,6,6,0,0,1,.05,1.24,4.78,4.78,0,0,1-.07,1.21,1.73,1.73,0,0,1-1.8,1.28,1.81,1.81,0,0,1-2-1.19A5.63,5.63,0,0,1,15.53,36Z"/><path class="a" d="M50.31,36a6,6,0,0,0-.08-1.1,1.79,1.79,0,0,0-1.86-1.42,1.69,1.69,0,0,0-1.9,1.36,6,6,0,0,0,0,1.24,4.78,4.78,0,0,0,.07,1.21,1.73,1.73,0,0,0,1.8,1.28,1.87,1.87,0,0,0,1.94-1.29A4.82,4.82,0,0,0,50.31,36Z"/><path class="a" d="M58,36a5.89,5.89,0,0,0-.09-1.1,1.78,1.78,0,0,0-1.85-1.42,1.68,1.68,0,0,0-1.9,1.36,5.35,5.35,0,0,0,0,1.24,4.37,4.37,0,0,0,.06,1.21A1.74,1.74,0,0,0,56,38.55a1.85,1.85,0,0,0,1.93-1.29A4.8,4.8,0,0,0,58,36Z"/><path class="a" d="M61.92,36a5.89,5.89,0,0,0-.09-1.1A1.78,1.78,0,0,0,60,33.46a1.68,1.68,0,0,0-1.9,1.36,5.35,5.35,0,0,0,0,1.24,4.37,4.37,0,0,0,.06,1.21,1.74,1.74,0,0,0,1.81,1.28,1.85,1.85,0,0,0,1.93-1.29A4.8,4.8,0,0,0,61.92,36Z"/><path class="a" d="M50.27,36a5.89,5.89,0,0,1,.09-1.1,1.78,1.78,0,0,1,1.85-1.42,1.68,1.68,0,0,1,1.9,1.36,5.35,5.35,0,0,1,0,1.24,4.37,4.37,0,0,1-.06,1.21,1.74,1.74,0,0,1-1.81,1.28,1.81,1.81,0,0,1-1.95-1.19A5.63,5.63,0,0,1,50.27,36Z"/><path class="a" d="M62,36a6,6,0,0,1,.08-1.1,1.78,1.78,0,0,1,1.85-1.42,1.69,1.69,0,0,1,1.91,1.36,6,6,0,0,1,0,1.24,4.37,4.37,0,0,1-.06,1.21A1.73,1.73,0,0,1,64,38.55a1.82,1.82,0,0,1-2-1.19A5.65,5.65,0,0,1,62,36Z"/></svg>