<svg xmlns="http://www.w3.org/2000/svg" width="46.82" height="65.32" viewBox="0 0 46.82 65.32"><defs><style>.a{fill:#ffd69f;}.b{fill:#86aca8;}.c{fill:#fbf175;}.d{fill:#889bcf;}.e{fill:#eb666a;}</style></defs><title>Asset 106</title><path class="a" d="M23.65,15.9a5.85,5.85,0,0,0-.09-1.09,1.77,1.77,0,0,0-1.85-1.43,1.68,1.68,0,0,0-1.9,1.37,5.3,5.3,0,0,0,0,1.24,4.3,4.3,0,0,0,.06,1.2,1.72,1.72,0,0,0,1.81,1.28,1.85,1.85,0,0,0,1.93-1.29A4.8,4.8,0,0,0,23.65,15.9Z"/><path class="a" d="M31.36,15.9a5.92,5.92,0,0,0-.08-1.09,1.78,1.78,0,0,0-1.86-1.43,1.7,1.7,0,0,0-1.9,1.37A5.91,5.91,0,0,0,27.47,16a4.7,4.7,0,0,0,.07,1.2,1.71,1.71,0,0,0,1.8,1.28,1.87,1.87,0,0,0,1.94-1.29A4.82,4.82,0,0,0,31.36,15.9Z"/><path class="a" d="M35.25,15.9a5.92,5.92,0,0,0-.08-1.09,1.78,1.78,0,0,0-1.86-1.43,1.7,1.7,0,0,0-1.9,1.37A5.91,5.91,0,0,0,31.36,16a4.7,4.7,0,0,0,.07,1.2,1.71,1.71,0,0,0,1.8,1.28,1.87,1.87,0,0,0,1.94-1.29A4.82,4.82,0,0,0,35.25,15.9Z"/><path class="a" d="M23.61,15.9a5.92,5.92,0,0,1,.08-1.09,1.78,1.78,0,0,1,1.86-1.43,1.7,1.7,0,0,1,1.9,1.37A5.91,5.91,0,0,1,27.5,16a4.7,4.7,0,0,1-.07,1.2,1.71,1.71,0,0,1-1.8,1.28,1.82,1.82,0,0,1-2-1.18A5.75,5.75,0,0,1,23.61,15.9Z"/><path class="a" d="M8.15,15.9a5.92,5.92,0,0,0-.08-1.09,1.77,1.77,0,0,0-1.85-1.43,1.7,1.7,0,0,0-1.91,1.37,6,6,0,0,0,0,1.24,4.3,4.3,0,0,0,.06,1.2,1.71,1.71,0,0,0,1.81,1.28,1.85,1.85,0,0,0,1.93-1.29A4.82,4.82,0,0,0,8.15,15.9Z"/><path class="a" d="M15.87,15.9a5.85,5.85,0,0,0-.09-1.09,1.77,1.77,0,0,0-1.85-1.43A1.7,1.7,0,0,0,12,14.75,5.91,5.91,0,0,0,12,16a4.29,4.29,0,0,0,.07,1.2,1.7,1.7,0,0,0,1.8,1.28,1.87,1.87,0,0,0,1.94-1.29A4.82,4.82,0,0,0,15.87,15.9Z"/><path class="a" d="M19.76,15.9a5.92,5.92,0,0,0-.08-1.09,1.78,1.78,0,0,0-1.86-1.43,1.7,1.7,0,0,0-1.9,1.37A5.91,5.91,0,0,0,15.87,16a4.29,4.29,0,0,0,.07,1.2,1.7,1.7,0,0,0,1.8,1.28,1.87,1.87,0,0,0,1.94-1.29A4.82,4.82,0,0,0,19.76,15.9Z"/><path class="a" d="M8.12,15.9a5.92,5.92,0,0,1,.08-1.09,1.77,1.77,0,0,1,1.85-1.43A1.7,1.7,0,0,1,12,14.75,6,6,0,0,1,12,16a4.3,4.3,0,0,1-.06,1.2,1.71,1.71,0,0,1-1.81,1.28,1.81,1.81,0,0,1-2-1.18A5.75,5.75,0,0,1,8.12,15.9Z"/><path class="a" d="M35.23,15.9a5.85,5.85,0,0,1,.09-1.09,1.77,1.77,0,0,1,1.85-1.43,1.69,1.69,0,0,1,1.9,1.37,5.91,5.91,0,0,1,0,1.24,4.72,4.72,0,0,1-.06,1.2,1.72,1.72,0,0,1-1.81,1.28,1.8,1.8,0,0,1-2-1.18A5.74,5.74,0,0,1,35.23,15.9Z"/><path class="a" d="M39.12,15.9a5.85,5.85,0,0,1,.09-1.09,1.77,1.77,0,0,1,1.85-1.43A1.68,1.68,0,0,1,43,14.75,5.3,5.3,0,0,1,43,16a4.3,4.3,0,0,1-.06,1.2,1.72,1.72,0,0,1-1.81,1.28,1.8,1.8,0,0,1-2-1.18A5.74,5.74,0,0,1,39.12,15.9Z"/><path class="b" d="M23.65,22.59a5.85,5.85,0,0,0-.09-1.09,1.78,1.78,0,0,0-1.85-1.42,1.68,1.68,0,0,0-1.9,1.36,5.3,5.3,0,0,0,0,1.24,4.37,4.37,0,0,0,.06,1.21,1.74,1.74,0,0,0,1.81,1.28,1.87,1.87,0,0,0,1.93-1.3A4.8,4.8,0,0,0,23.65,22.59Z"/><path class="b" d="M31.36,22.59a5.92,5.92,0,0,0-.08-1.09,1.79,1.79,0,0,0-1.86-1.42,1.69,1.69,0,0,0-1.9,1.36,5.91,5.91,0,0,0-.05,1.24,4.78,4.78,0,0,0,.07,1.21,1.73,1.73,0,0,0,1.8,1.28,1.89,1.89,0,0,0,1.94-1.3A4.82,4.82,0,0,0,31.36,22.59Z"/><path class="b" d="M35.25,22.59a5.92,5.92,0,0,0-.08-1.09,1.79,1.79,0,0,0-1.86-1.42,1.69,1.69,0,0,0-1.9,1.36,5.91,5.91,0,0,0-.05,1.24,4.78,4.78,0,0,0,.07,1.21,1.73,1.73,0,0,0,1.8,1.28,1.88,1.88,0,0,0,1.94-1.3A4.82,4.82,0,0,0,35.25,22.59Z"/><path class="b" d="M23.61,22.59a5.92,5.92,0,0,1,.08-1.09,1.79,1.79,0,0,1,1.86-1.42,1.69,1.69,0,0,1,1.9,1.36,5.91,5.91,0,0,1,.05,1.24,4.78,4.78,0,0,1-.07,1.21,1.73,1.73,0,0,1-1.8,1.28,1.84,1.84,0,0,1-2-1.19A5.73,5.73,0,0,1,23.61,22.59Z"/><path class="b" d="M8.15,22.59a5.92,5.92,0,0,0-.08-1.09,1.78,1.78,0,0,0-1.85-1.42,1.69,1.69,0,0,0-1.91,1.36,6,6,0,0,0,0,1.24,4.37,4.37,0,0,0,.06,1.21,1.73,1.73,0,0,0,1.81,1.28,1.87,1.87,0,0,0,1.93-1.3A4.82,4.82,0,0,0,8.15,22.59Z"/><path class="b" d="M15.87,22.59a5.85,5.85,0,0,0-.09-1.09,1.77,1.77,0,0,0-1.85-1.42A1.69,1.69,0,0,0,12,21.44a5.91,5.91,0,0,0,0,1.24,4.36,4.36,0,0,0,.07,1.21,1.72,1.72,0,0,0,1.8,1.28,1.89,1.89,0,0,0,1.94-1.3A4.82,4.82,0,0,0,15.87,22.59Z"/><path class="b" d="M19.76,22.59a5.92,5.92,0,0,0-.08-1.09,1.79,1.79,0,0,0-1.86-1.42,1.69,1.69,0,0,0-1.9,1.36,5.91,5.91,0,0,0-.05,1.24,4.36,4.36,0,0,0,.07,1.21,1.72,1.72,0,0,0,1.8,1.28,1.89,1.89,0,0,0,1.94-1.3A4.82,4.82,0,0,0,19.76,22.59Z"/><path class="b" d="M8.12,22.59A5.92,5.92,0,0,1,8.2,21.5a1.78,1.78,0,0,1,1.85-1.42A1.69,1.69,0,0,1,12,21.44a6,6,0,0,1,0,1.24,4.37,4.37,0,0,1-.06,1.21,1.73,1.73,0,0,1-1.81,1.28,1.83,1.83,0,0,1-2-1.19A5.73,5.73,0,0,1,8.12,22.59Z"/><path class="b" d="M35.23,22.59a5.85,5.85,0,0,1,.09-1.09,1.77,1.77,0,0,1,1.85-1.42,1.68,1.68,0,0,1,1.9,1.36,5.91,5.91,0,0,1,0,1.24,4.8,4.8,0,0,1-.06,1.21,1.74,1.74,0,0,1-1.81,1.28,1.82,1.82,0,0,1-2-1.19A5.71,5.71,0,0,1,35.23,22.59Z"/><path class="b" d="M39.12,22.59a5.85,5.85,0,0,1,.09-1.09,1.78,1.78,0,0,1,1.85-1.42A1.68,1.68,0,0,1,43,21.44a5.3,5.3,0,0,1,0,1.24A4.37,4.37,0,0,1,43,23.89a1.74,1.74,0,0,1-1.81,1.28,1.82,1.82,0,0,1-2-1.19A5.71,5.71,0,0,1,39.12,22.59Z"/><path class="c" d="M23.65,29.28a5.85,5.85,0,0,0-.09-1.09,1.78,1.78,0,0,0-1.85-1.42,1.68,1.68,0,0,0-1.9,1.36,5.33,5.33,0,0,0,0,1.24,4.37,4.37,0,0,0,.06,1.21,1.74,1.74,0,0,0,1.81,1.28,1.86,1.86,0,0,0,1.93-1.29A4.88,4.88,0,0,0,23.65,29.28Z"/><path class="c" d="M31.36,29.28a5.92,5.92,0,0,0-.08-1.09,1.79,1.79,0,0,0-1.86-1.42,1.69,1.69,0,0,0-1.9,1.36,5.94,5.94,0,0,0-.05,1.24,4.78,4.78,0,0,0,.07,1.21,1.73,1.73,0,0,0,1.8,1.28,1.88,1.88,0,0,0,1.94-1.29A4.89,4.89,0,0,0,31.36,29.28Z"/><path class="c" d="M35.25,29.28a5.92,5.92,0,0,0-.08-1.09,1.79,1.79,0,0,0-1.86-1.42,1.69,1.69,0,0,0-1.9,1.36,5.94,5.94,0,0,0-.05,1.24,4.78,4.78,0,0,0,.07,1.21,1.73,1.73,0,0,0,1.8,1.28,1.88,1.88,0,0,0,1.94-1.29A4.89,4.89,0,0,0,35.25,29.28Z"/><path class="c" d="M23.61,29.28a5.92,5.92,0,0,1,.08-1.09,1.79,1.79,0,0,1,1.86-1.42,1.69,1.69,0,0,1,1.9,1.36,5.94,5.94,0,0,1,.05,1.24,4.78,4.78,0,0,1-.07,1.21,1.73,1.73,0,0,1-1.8,1.28,1.84,1.84,0,0,1-2-1.19A5.7,5.7,0,0,1,23.61,29.28Z"/><path class="c" d="M8.15,29.28a5.92,5.92,0,0,0-.08-1.09,1.78,1.78,0,0,0-1.85-1.42,1.69,1.69,0,0,0-1.91,1.36,6,6,0,0,0,0,1.24,4.37,4.37,0,0,0,.06,1.21,1.73,1.73,0,0,0,1.81,1.28,1.86,1.86,0,0,0,1.93-1.29A4.89,4.89,0,0,0,8.15,29.28Z"/><path class="c" d="M15.87,29.28a5.85,5.85,0,0,0-.09-1.09,1.77,1.77,0,0,0-1.85-1.42A1.69,1.69,0,0,0,12,28.13a5.94,5.94,0,0,0,0,1.24,4.36,4.36,0,0,0,.07,1.21,1.72,1.72,0,0,0,1.8,1.28,1.88,1.88,0,0,0,1.94-1.29A4.89,4.89,0,0,0,15.87,29.28Z"/><path class="c" d="M19.76,29.28a5.92,5.92,0,0,0-.08-1.09,1.79,1.79,0,0,0-1.86-1.42,1.69,1.69,0,0,0-1.9,1.36,5.94,5.94,0,0,0-.05,1.24,4.36,4.36,0,0,0,.07,1.21,1.72,1.72,0,0,0,1.8,1.28,1.88,1.88,0,0,0,1.94-1.29A4.89,4.89,0,0,0,19.76,29.28Z"/><path class="c" d="M8.12,29.28a5.92,5.92,0,0,1,.08-1.09,1.78,1.78,0,0,1,1.85-1.42A1.69,1.69,0,0,1,12,28.13a6,6,0,0,1,0,1.24,4.37,4.37,0,0,1-.06,1.21,1.73,1.73,0,0,1-1.81,1.28,1.83,1.83,0,0,1-2-1.19A5.7,5.7,0,0,1,8.12,29.28Z"/><path class="c" d="M35.23,29.28a5.85,5.85,0,0,1,.09-1.09,1.77,1.77,0,0,1,1.85-1.42,1.68,1.68,0,0,1,1.9,1.36,5.94,5.94,0,0,1,0,1.24,4.8,4.8,0,0,1-.06,1.21,1.74,1.74,0,0,1-1.81,1.28,1.82,1.82,0,0,1-2-1.19A5.68,5.68,0,0,1,35.23,29.28Z"/><path class="c" d="M39.12,29.28a5.85,5.85,0,0,1,.09-1.09,1.78,1.78,0,0,1,1.85-1.42A1.68,1.68,0,0,1,43,28.13a5.33,5.33,0,0,1,0,1.24A4.37,4.37,0,0,1,43,30.58a1.74,1.74,0,0,1-1.81,1.28,1.82,1.82,0,0,1-2-1.19A5.68,5.68,0,0,1,39.12,29.28Z"/><path class="d" d="M23.65,36a5.89,5.89,0,0,0-.09-1.1,1.78,1.78,0,0,0-1.85-1.42,1.68,1.68,0,0,0-1.9,1.36,5.35,5.35,0,0,0,0,1.24,4.37,4.37,0,0,0,.06,1.21,1.74,1.74,0,0,0,1.81,1.28,1.85,1.85,0,0,0,1.93-1.29A4.8,4.8,0,0,0,23.65,36Z"/><path class="d" d="M31.36,36a6,6,0,0,0-.08-1.1,1.79,1.79,0,0,0-1.86-1.42,1.69,1.69,0,0,0-1.9,1.36,6,6,0,0,0-.05,1.24,4.78,4.78,0,0,0,.07,1.21,1.73,1.73,0,0,0,1.8,1.28,1.87,1.87,0,0,0,1.94-1.29A4.82,4.82,0,0,0,31.36,36Z"/><path class="d" d="M35.25,36a6,6,0,0,0-.08-1.1,1.79,1.79,0,0,0-1.86-1.42,1.69,1.69,0,0,0-1.9,1.36,6,6,0,0,0-.05,1.24,4.78,4.78,0,0,0,.07,1.21,1.73,1.73,0,0,0,1.8,1.28,1.87,1.87,0,0,0,1.94-1.29A4.82,4.82,0,0,0,35.25,36Z"/><path class="d" d="M23.61,36a6,6,0,0,1,.08-1.1,1.79,1.79,0,0,1,1.86-1.42,1.69,1.69,0,0,1,1.9,1.36,6,6,0,0,1,.05,1.24,4.78,4.78,0,0,1-.07,1.21,1.73,1.73,0,0,1-1.8,1.28,1.83,1.83,0,0,1-2-1.19A5.65,5.65,0,0,1,23.61,36Z"/><path class="d" d="M8.15,36a6,6,0,0,0-.08-1.1,1.78,1.78,0,0,0-1.85-1.42,1.69,1.69,0,0,0-1.91,1.36,6,6,0,0,0,0,1.24,4.37,4.37,0,0,0,.06,1.21,1.73,1.73,0,0,0,1.81,1.28,1.85,1.85,0,0,0,1.93-1.29A4.82,4.82,0,0,0,8.15,36Z"/><path class="d" d="M15.87,36a5.89,5.89,0,0,0-.09-1.1,1.77,1.77,0,0,0-1.85-1.42A1.69,1.69,0,0,0,12,34.82a6,6,0,0,0,0,1.24,4.36,4.36,0,0,0,.07,1.21,1.72,1.72,0,0,0,1.8,1.28,1.87,1.87,0,0,0,1.94-1.29A4.82,4.82,0,0,0,15.87,36Z"/><path class="d" d="M19.76,36a6,6,0,0,0-.08-1.1,1.79,1.79,0,0,0-1.86-1.42,1.69,1.69,0,0,0-1.9,1.36,6,6,0,0,0-.05,1.24,4.36,4.36,0,0,0,.07,1.21,1.72,1.72,0,0,0,1.8,1.28,1.87,1.87,0,0,0,1.94-1.29A4.82,4.82,0,0,0,19.76,36Z"/><path class="d" d="M8.12,36a6,6,0,0,1,.08-1.1,1.78,1.78,0,0,1,1.85-1.42A1.69,1.69,0,0,1,12,34.82a6,6,0,0,1,0,1.24,4.37,4.37,0,0,1-.06,1.21,1.73,1.73,0,0,1-1.81,1.28,1.81,1.81,0,0,1-2-1.19A5.65,5.65,0,0,1,8.12,36Z"/><path class="d" d="M35.23,36a5.89,5.89,0,0,1,.09-1.1,1.77,1.77,0,0,1,1.85-1.42,1.68,1.68,0,0,1,1.9,1.36,6,6,0,0,1,0,1.24,4.8,4.8,0,0,1-.06,1.21,1.74,1.74,0,0,1-1.81,1.28,1.81,1.81,0,0,1-2-1.19A5.63,5.63,0,0,1,35.23,36Z"/><path class="d" d="M39.12,36a5.89,5.89,0,0,1,.09-1.1,1.78,1.78,0,0,1,1.85-1.42A1.68,1.68,0,0,1,43,34.82a5.35,5.35,0,0,1,0,1.24A4.37,4.37,0,0,1,43,37.27a1.74,1.74,0,0,1-1.81,1.28,1.81,1.81,0,0,1-2-1.19A5.63,5.63,0,0,1,39.12,36Z"/><path class="d" d="M23.65,2.52a6,6,0,0,0-.09-1.1A1.78,1.78,0,0,0,21.71,0a1.68,1.68,0,0,0-1.9,1.36,5.35,5.35,0,0,0,0,1.24,4.37,4.37,0,0,0,.06,1.21,1.74,1.74,0,0,0,1.81,1.28A1.85,1.85,0,0,0,23.56,3.8,4.8,4.8,0,0,0,23.65,2.52Z"/><path class="d" d="M31.36,2.52a6,6,0,0,0-.08-1.1A1.79,1.79,0,0,0,29.42,0a1.7,1.7,0,0,0-1.9,1.36,6,6,0,0,0-.05,1.24,4.78,4.78,0,0,0,.07,1.21,1.73,1.73,0,0,0,1.8,1.28A1.87,1.87,0,0,0,31.28,3.8,4.82,4.82,0,0,0,31.36,2.52Z"/><path class="d" d="M35.25,2.52a6,6,0,0,0-.08-1.1A1.79,1.79,0,0,0,33.31,0a1.7,1.7,0,0,0-1.9,1.36,6,6,0,0,0-.05,1.24,4.78,4.78,0,0,0,.07,1.21,1.73,1.73,0,0,0,1.8,1.28A1.87,1.87,0,0,0,35.17,3.8,4.82,4.82,0,0,0,35.25,2.52Z"/><path class="d" d="M23.61,2.52a6,6,0,0,1,.08-1.1A1.79,1.79,0,0,1,25.55,0a1.7,1.7,0,0,1,1.9,1.36A6,6,0,0,1,27.5,2.6a4.78,4.78,0,0,1-.07,1.21,1.73,1.73,0,0,1-1.8,1.28,1.83,1.83,0,0,1-2-1.19A5.65,5.65,0,0,1,23.61,2.52Z"/><path class="d" d="M8.15,2.52a6,6,0,0,0-.08-1.1A1.78,1.78,0,0,0,6.22,0,1.7,1.7,0,0,0,4.31,1.36a6,6,0,0,0,0,1.24,4.37,4.37,0,0,0,.06,1.21A1.73,1.73,0,0,0,6.14,5.09,1.85,1.85,0,0,0,8.07,3.8,4.82,4.82,0,0,0,8.15,2.52Z"/><path class="d" d="M15.87,2.52a6,6,0,0,0-.09-1.1A1.77,1.77,0,0,0,13.93,0,1.7,1.7,0,0,0,12,1.36,6,6,0,0,0,12,2.6a4.36,4.36,0,0,0,.07,1.21,1.72,1.72,0,0,0,1.8,1.28A1.87,1.87,0,0,0,15.79,3.8,4.82,4.82,0,0,0,15.87,2.52Z"/><path class="d" d="M19.76,2.52a6,6,0,0,0-.08-1.1A1.79,1.79,0,0,0,17.82,0a1.7,1.7,0,0,0-1.9,1.36,6,6,0,0,0-.05,1.24,4.36,4.36,0,0,0,.07,1.21,1.72,1.72,0,0,0,1.8,1.28A1.87,1.87,0,0,0,19.68,3.8,4.82,4.82,0,0,0,19.76,2.52Z"/><path class="d" d="M8.12,2.52a6,6,0,0,1,.08-1.1A1.78,1.78,0,0,1,10.05,0,1.7,1.7,0,0,1,12,1.36,6,6,0,0,1,12,2.6a4.37,4.37,0,0,1-.06,1.21,1.73,1.73,0,0,1-1.81,1.28,1.81,1.81,0,0,1-2-1.19A5.65,5.65,0,0,1,8.12,2.52Z"/><path class="d" d="M35.23,2.52a6,6,0,0,1,.09-1.1A1.77,1.77,0,0,1,37.17,0a1.69,1.69,0,0,1,1.9,1.36,6,6,0,0,1,0,1.24,4.8,4.8,0,0,1-.06,1.21,1.74,1.74,0,0,1-1.81,1.28,1.81,1.81,0,0,1-2-1.19A5.63,5.63,0,0,1,35.23,2.52Z"/><path class="d" d="M39.12,2.52a6,6,0,0,1,.09-1.1A1.78,1.78,0,0,1,41.06,0,1.68,1.68,0,0,1,43,1.36,5.35,5.35,0,0,1,43,2.6,4.37,4.37,0,0,1,43,3.81a1.74,1.74,0,0,1-1.81,1.28,1.81,1.81,0,0,1-2-1.19A5.63,5.63,0,0,1,39.12,2.52Z"/><path class="e" d="M23.65,42.67a6,6,0,0,0-.09-1.1,1.78,1.78,0,0,0-1.85-1.42,1.68,1.68,0,0,0-1.9,1.36,5.35,5.35,0,0,0,0,1.24A4.37,4.37,0,0,0,19.82,44a1.74,1.74,0,0,0,1.81,1.28A1.85,1.85,0,0,0,23.56,44,4.8,4.8,0,0,0,23.65,42.67Z"/><path class="e" d="M31.36,42.67a6,6,0,0,0-.08-1.1,1.79,1.79,0,0,0-1.86-1.42,1.7,1.7,0,0,0-1.9,1.36,6,6,0,0,0-.05,1.24A4.78,4.78,0,0,0,27.54,44a1.73,1.73,0,0,0,1.8,1.28A1.87,1.87,0,0,0,31.28,44,4.82,4.82,0,0,0,31.36,42.67Z"/><path class="e" d="M35.25,42.67a6,6,0,0,0-.08-1.1,1.79,1.79,0,0,0-1.86-1.42,1.7,1.7,0,0,0-1.9,1.36,6,6,0,0,0-.05,1.24A4.78,4.78,0,0,0,31.43,44a1.73,1.73,0,0,0,1.8,1.28A1.87,1.87,0,0,0,35.17,44,4.82,4.82,0,0,0,35.25,42.67Z"/><path class="e" d="M23.61,42.67a6,6,0,0,1,.08-1.1,1.79,1.79,0,0,1,1.86-1.42,1.7,1.7,0,0,1,1.9,1.36,6,6,0,0,1,.05,1.24A4.78,4.78,0,0,1,27.43,44a1.73,1.73,0,0,1-1.8,1.28,1.83,1.83,0,0,1-2-1.19A5.65,5.65,0,0,1,23.61,42.67Z"/><path class="e" d="M8.15,42.67a6,6,0,0,0-.08-1.1,1.78,1.78,0,0,0-1.85-1.42,1.7,1.7,0,0,0-1.91,1.36,6,6,0,0,0,0,1.24A4.37,4.37,0,0,0,4.33,44a1.73,1.73,0,0,0,1.81,1.28A1.85,1.85,0,0,0,8.07,44,4.82,4.82,0,0,0,8.15,42.67Z"/><path class="e" d="M15.87,42.67a6,6,0,0,0-.09-1.1,1.77,1.77,0,0,0-1.85-1.42A1.7,1.7,0,0,0,12,41.51a6,6,0,0,0,0,1.24A4.36,4.36,0,0,0,12.05,44a1.72,1.72,0,0,0,1.8,1.28A1.87,1.87,0,0,0,15.79,44,4.82,4.82,0,0,0,15.87,42.67Z"/><path class="e" d="M19.76,42.67a6,6,0,0,0-.08-1.1,1.79,1.79,0,0,0-1.86-1.42,1.7,1.7,0,0,0-1.9,1.36,6,6,0,0,0-.05,1.24A4.36,4.36,0,0,0,15.94,44a1.72,1.72,0,0,0,1.8,1.28A1.87,1.87,0,0,0,19.68,44,4.82,4.82,0,0,0,19.76,42.67Z"/><path class="e" d="M8.12,42.67a6,6,0,0,1,.08-1.1,1.78,1.78,0,0,1,1.85-1.42A1.7,1.7,0,0,1,12,41.51a6,6,0,0,1,0,1.24A4.37,4.37,0,0,1,11.94,44a1.73,1.73,0,0,1-1.81,1.28,1.81,1.81,0,0,1-2-1.19A5.65,5.65,0,0,1,8.12,42.67Z"/><path class="e" d="M35.23,42.67a6,6,0,0,1,.09-1.1,1.77,1.77,0,0,1,1.85-1.42,1.69,1.69,0,0,1,1.9,1.36,6,6,0,0,1,0,1.24A4.8,4.8,0,0,1,39.06,44a1.74,1.74,0,0,1-1.81,1.28,1.81,1.81,0,0,1-2-1.19A5.63,5.63,0,0,1,35.23,42.67Z"/><path class="e" d="M39.12,42.67a6,6,0,0,1,.09-1.1,1.78,1.78,0,0,1,1.85-1.42A1.68,1.68,0,0,1,43,41.51a5.35,5.35,0,0,1,0,1.24A4.37,4.37,0,0,1,43,44a1.74,1.74,0,0,1-1.81,1.28,1.81,1.81,0,0,1-2-1.19A5.63,5.63,0,0,1,39.12,42.67Z"/><path class="a" d="M23.65,49.36a6,6,0,0,0-.09-1.1,1.78,1.78,0,0,0-1.85-1.42,1.68,1.68,0,0,0-1.9,1.37,5.3,5.3,0,0,0,0,1.24,4.3,4.3,0,0,0,.06,1.2,1.72,1.72,0,0,0,1.81,1.28,1.85,1.85,0,0,0,1.93-1.29A4.8,4.8,0,0,0,23.65,49.36Z"/><path class="a" d="M31.36,49.36a6.1,6.1,0,0,0-.08-1.1,1.79,1.79,0,0,0-1.86-1.42,1.7,1.7,0,0,0-1.9,1.37,5.91,5.91,0,0,0-.05,1.24,4.7,4.7,0,0,0,.07,1.2,1.71,1.71,0,0,0,1.8,1.28,1.87,1.87,0,0,0,1.94-1.29A4.82,4.82,0,0,0,31.36,49.36Z"/><path class="a" d="M35.25,49.36a6.1,6.1,0,0,0-.08-1.1,1.79,1.79,0,0,0-1.86-1.42,1.7,1.7,0,0,0-1.9,1.37,5.91,5.91,0,0,0-.05,1.24,4.7,4.7,0,0,0,.07,1.2,1.71,1.71,0,0,0,1.8,1.28,1.87,1.87,0,0,0,1.94-1.29A4.82,4.82,0,0,0,35.25,49.36Z"/><path class="a" d="M23.61,49.36a6.1,6.1,0,0,1,.08-1.1,1.79,1.79,0,0,1,1.86-1.42,1.7,1.7,0,0,1,1.9,1.37,5.91,5.91,0,0,1,.05,1.24,4.7,4.7,0,0,1-.07,1.2,1.71,1.71,0,0,1-1.8,1.28,1.82,1.82,0,0,1-2-1.18A5.75,5.75,0,0,1,23.61,49.36Z"/><path class="a" d="M8.15,49.36a6.1,6.1,0,0,0-.08-1.1,1.78,1.78,0,0,0-1.85-1.42,1.7,1.7,0,0,0-1.91,1.37,6,6,0,0,0,0,1.24,4.3,4.3,0,0,0,.06,1.2,1.71,1.71,0,0,0,1.81,1.28,1.85,1.85,0,0,0,1.93-1.29A4.82,4.82,0,0,0,8.15,49.36Z"/><path class="a" d="M15.87,49.36a6,6,0,0,0-.09-1.1,1.77,1.77,0,0,0-1.85-1.42A1.7,1.7,0,0,0,12,48.21a5.91,5.91,0,0,0,0,1.24,4.29,4.29,0,0,0,.07,1.2,1.7,1.7,0,0,0,1.8,1.28,1.87,1.87,0,0,0,1.94-1.29A4.82,4.82,0,0,0,15.87,49.36Z"/><path class="a" d="M19.76,49.36a6.1,6.1,0,0,0-.08-1.1,1.79,1.79,0,0,0-1.86-1.42,1.7,1.7,0,0,0-1.9,1.37,5.91,5.91,0,0,0-.05,1.24,4.29,4.29,0,0,0,.07,1.2,1.7,1.7,0,0,0,1.8,1.28,1.87,1.87,0,0,0,1.94-1.29A4.82,4.82,0,0,0,19.76,49.36Z"/><path class="a" d="M8.12,49.36a6.1,6.1,0,0,1,.08-1.1,1.78,1.78,0,0,1,1.85-1.42A1.7,1.7,0,0,1,12,48.21a6,6,0,0,1,0,1.24,4.3,4.3,0,0,1-.06,1.2,1.71,1.71,0,0,1-1.81,1.28,1.81,1.81,0,0,1-2-1.18A5.75,5.75,0,0,1,8.12,49.36Z"/><path class="a" d="M35.23,49.36a6,6,0,0,1,.09-1.1,1.77,1.77,0,0,1,1.85-1.42,1.69,1.69,0,0,1,1.9,1.37,5.91,5.91,0,0,1,0,1.24,4.72,4.72,0,0,1-.06,1.2,1.72,1.72,0,0,1-1.81,1.28,1.8,1.8,0,0,1-2-1.18A5.74,5.74,0,0,1,35.23,49.36Z"/><path class="a" d="M39.12,49.36a6,6,0,0,1,.09-1.1,1.78,1.78,0,0,1,1.85-1.42A1.68,1.68,0,0,1,43,48.21a5.3,5.3,0,0,1,0,1.24,4.3,4.3,0,0,1-.06,1.2,1.72,1.72,0,0,1-1.81,1.28,1.8,1.8,0,0,1-2-1.18A5.74,5.74,0,0,1,39.12,49.36Z"/><path class="b" d="M23.65,56.05A5.85,5.85,0,0,0,23.56,55a1.78,1.78,0,0,0-1.85-1.43,1.68,1.68,0,0,0-1.9,1.37,5.3,5.3,0,0,0,0,1.24,4.37,4.37,0,0,0,.06,1.21,1.72,1.72,0,0,0,1.81,1.27,1.85,1.85,0,0,0,1.93-1.29A4.8,4.8,0,0,0,23.65,56.05Z"/><path class="b" d="M31.36,56.05A5.92,5.92,0,0,0,31.28,55a1.79,1.79,0,0,0-1.86-1.43,1.7,1.7,0,0,0-1.9,1.37,5.91,5.91,0,0,0-.05,1.24,4.78,4.78,0,0,0,.07,1.21,1.71,1.71,0,0,0,1.8,1.27,1.87,1.87,0,0,0,1.94-1.29A4.82,4.82,0,0,0,31.36,56.05Z"/><path class="b" d="M35.25,56.05A5.92,5.92,0,0,0,35.17,55a1.79,1.79,0,0,0-1.86-1.43,1.7,1.7,0,0,0-1.9,1.37,5.91,5.91,0,0,0-.05,1.24,4.78,4.78,0,0,0,.07,1.21,1.71,1.71,0,0,0,1.8,1.27,1.87,1.87,0,0,0,1.94-1.29A4.82,4.82,0,0,0,35.25,56.05Z"/><path class="b" d="M23.61,56.05A5.92,5.92,0,0,1,23.69,55a1.79,1.79,0,0,1,1.86-1.43,1.7,1.7,0,0,1,1.9,1.37,5.91,5.91,0,0,1,.05,1.24,4.78,4.78,0,0,1-.07,1.21,1.71,1.71,0,0,1-1.8,1.27,1.82,1.82,0,0,1-2-1.18A5.75,5.75,0,0,1,23.61,56.05Z"/><path class="b" d="M8.15,56.05A5.92,5.92,0,0,0,8.07,55a1.78,1.78,0,0,0-1.85-1.43A1.7,1.7,0,0,0,4.31,54.9a6,6,0,0,0,0,1.24,4.37,4.37,0,0,0,.06,1.21,1.71,1.71,0,0,0,1.81,1.27,1.85,1.85,0,0,0,1.93-1.29A4.82,4.82,0,0,0,8.15,56.05Z"/><path class="b" d="M15.87,56.05A5.85,5.85,0,0,0,15.78,55a1.78,1.78,0,0,0-1.85-1.43A1.7,1.7,0,0,0,12,54.9a5.91,5.91,0,0,0,0,1.24,4.36,4.36,0,0,0,.07,1.21,1.7,1.7,0,0,0,1.8,1.27,1.87,1.87,0,0,0,1.94-1.29A4.82,4.82,0,0,0,15.87,56.05Z"/><path class="b" d="M19.76,56.05A5.92,5.92,0,0,0,19.68,55a1.79,1.79,0,0,0-1.86-1.43,1.7,1.7,0,0,0-1.9,1.37,5.91,5.91,0,0,0-.05,1.24,4.36,4.36,0,0,0,.07,1.21,1.7,1.7,0,0,0,1.8,1.27,1.87,1.87,0,0,0,1.94-1.29A4.82,4.82,0,0,0,19.76,56.05Z"/><path class="b" d="M8.12,56.05A5.92,5.92,0,0,1,8.2,55a1.78,1.78,0,0,1,1.85-1.43A1.7,1.7,0,0,1,12,54.9a6,6,0,0,1,0,1.24,4.37,4.37,0,0,1-.06,1.21,1.71,1.71,0,0,1-1.81,1.27,1.81,1.81,0,0,1-2-1.18A5.75,5.75,0,0,1,8.12,56.05Z"/><path class="b" d="M35.23,56.05A5.85,5.85,0,0,1,35.32,55a1.78,1.78,0,0,1,1.85-1.43,1.69,1.69,0,0,1,1.9,1.37,5.91,5.91,0,0,1,0,1.24,4.8,4.8,0,0,1-.06,1.21,1.72,1.72,0,0,1-1.81,1.27,1.8,1.8,0,0,1-2-1.18A5.74,5.74,0,0,1,35.23,56.05Z"/><path class="b" d="M39.12,56.05A5.85,5.85,0,0,1,39.21,55a1.78,1.78,0,0,1,1.85-1.43A1.68,1.68,0,0,1,43,54.9a5.3,5.3,0,0,1,0,1.24A4.37,4.37,0,0,1,43,57.35a1.72,1.72,0,0,1-1.81,1.27,1.8,1.8,0,0,1-2-1.18A5.74,5.74,0,0,1,39.12,56.05Z"/><path class="c" d="M23.61,62.74a5.92,5.92,0,0,0-.08-1.09,1.79,1.79,0,0,0-1.86-1.42,1.69,1.69,0,0,0-1.9,1.36,5.94,5.94,0,0,0-.05,1.24A4.78,4.78,0,0,0,19.79,64a1.73,1.73,0,0,0,1.8,1.28A1.88,1.88,0,0,0,23.53,64,4.89,4.89,0,0,0,23.61,62.74Z"/><path class="c" d="M27.5,62.74a5.92,5.92,0,0,0-.08-1.09,1.79,1.79,0,0,0-1.86-1.42,1.69,1.69,0,0,0-1.9,1.36,5.94,5.94,0,0,0-.05,1.24A4.78,4.78,0,0,0,23.68,64a1.73,1.73,0,0,0,1.8,1.28A1.88,1.88,0,0,0,27.42,64,4.89,4.89,0,0,0,27.5,62.74Z"/><path class="c" d="M15.86,62.74a5.92,5.92,0,0,1,.08-1.09,1.79,1.79,0,0,1,1.86-1.42,1.69,1.69,0,0,1,1.9,1.36,5.94,5.94,0,0,1,.05,1.24A4.78,4.78,0,0,1,19.68,64a1.73,1.73,0,0,1-1.8,1.28,1.82,1.82,0,0,1-1.95-1.19A5.68,5.68,0,0,1,15.86,62.74Z"/><path class="c" d="M27.53,62.74a5.11,5.11,0,0,1,.09-1.09,1.77,1.77,0,0,1,1.85-1.42,1.69,1.69,0,0,1,1.9,1.36,5.94,5.94,0,0,1,.05,1.24A4.36,4.36,0,0,1,31.35,64a1.72,1.72,0,0,1-1.8,1.28,1.82,1.82,0,0,1-1.95-1.19A5.68,5.68,0,0,1,27.53,62.74Z"/><path class="c" d="M4.35,62.74a5.92,5.92,0,0,0-.08-1.09,1.79,1.79,0,0,0-1.86-1.42,1.69,1.69,0,0,0-1.9,1.36,5.94,5.94,0,0,0,0,1.24A4.78,4.78,0,0,0,.53,64a1.73,1.73,0,0,0,1.8,1.28A1.88,1.88,0,0,0,4.27,64,4.89,4.89,0,0,0,4.35,62.74Z"/><path class="c" d="M8.24,62.74a5.92,5.92,0,0,0-.08-1.09A1.79,1.79,0,0,0,6.3,60.23a1.69,1.69,0,0,0-1.9,1.36,5.94,5.94,0,0,0-.05,1.24A4.78,4.78,0,0,0,4.42,64a1.73,1.73,0,0,0,1.8,1.28A1.88,1.88,0,0,0,8.16,64,4.89,4.89,0,0,0,8.24,62.74Z"/><path class="c" d="M8.27,62.74a5.92,5.92,0,0,1,.08-1.09,1.79,1.79,0,0,1,1.86-1.42,1.69,1.69,0,0,1,1.9,1.36,5.94,5.94,0,0,1,.05,1.24A4.36,4.36,0,0,1,12.09,64a1.72,1.72,0,0,1-1.8,1.28,1.82,1.82,0,0,1-1.95-1.19A5.68,5.68,0,0,1,8.27,62.74Z"/><path class="c" d="M39,62.74a5.85,5.85,0,0,0-.09-1.09,1.78,1.78,0,0,0-1.85-1.42,1.68,1.68,0,0,0-1.9,1.36,5.33,5.33,0,0,0-.05,1.24A4.37,4.37,0,0,0,35.18,64,1.74,1.74,0,0,0,37,65.32,1.86,1.86,0,0,0,38.92,64,4.88,4.88,0,0,0,39,62.74Z"/><path class="c" d="M42.9,62.74a5.85,5.85,0,0,0-.09-1.09A1.77,1.77,0,0,0,41,60.23a1.69,1.69,0,0,0-1.9,1.36A5.94,5.94,0,0,0,39,62.83,4.8,4.8,0,0,0,39.07,64a1.74,1.74,0,0,0,1.81,1.28A1.88,1.88,0,0,0,42.82,64,4.89,4.89,0,0,0,42.9,62.74Z"/><path class="c" d="M42.93,62.74A5.92,5.92,0,0,1,43,61.65a1.78,1.78,0,0,1,1.85-1.42,1.69,1.69,0,0,1,1.91,1.36,5.94,5.94,0,0,1,0,1.24A4.78,4.78,0,0,1,46.75,64,1.73,1.73,0,0,1,45,65.32a1.84,1.84,0,0,1-2-1.19A5.7,5.7,0,0,1,42.93,62.74Z"/><path class="e" d="M27.49,9.14a5.92,5.92,0,0,0-.08-1.09,1.79,1.79,0,0,0-1.86-1.42A1.69,1.69,0,0,0,23.65,8a5.94,5.94,0,0,0,0,1.24,4.36,4.36,0,0,0,.07,1.21,1.72,1.72,0,0,0,1.8,1.28,1.88,1.88,0,0,0,1.94-1.29A4.89,4.89,0,0,0,27.49,9.14Z"/><path class="e" d="M35.2,9.14a5.92,5.92,0,0,0-.08-1.09,1.78,1.78,0,0,0-1.85-1.42A1.69,1.69,0,0,0,31.36,8a5.39,5.39,0,0,0,0,1.24,4.37,4.37,0,0,0,.06,1.21,1.73,1.73,0,0,0,1.8,1.28,1.87,1.87,0,0,0,1.94-1.29A4.89,4.89,0,0,0,35.2,9.14Z"/><path class="e" d="M39.09,9.14A5.92,5.92,0,0,0,39,8.05a1.78,1.78,0,0,0-1.85-1.42A1.69,1.69,0,0,0,35.25,8a6,6,0,0,0,0,1.24,4.37,4.37,0,0,0,.06,1.21,1.73,1.73,0,0,0,1.81,1.28A1.86,1.86,0,0,0,39,10.43,4.89,4.89,0,0,0,39.09,9.14Z"/><path class="e" d="M27.45,9.14a5.92,5.92,0,0,1,.08-1.09,1.79,1.79,0,0,1,1.86-1.42A1.69,1.69,0,0,1,31.29,8a5.94,5.94,0,0,1,.05,1.24,4.78,4.78,0,0,1-.07,1.21,1.73,1.73,0,0,1-1.8,1.28,1.82,1.82,0,0,1-1.95-1.19A5.68,5.68,0,0,1,27.45,9.14Z"/><path class="e" d="M19.71,9.14a5.92,5.92,0,0,0-.08-1.09,1.79,1.79,0,0,0-1.86-1.42A1.69,1.69,0,0,0,15.87,8a5.94,5.94,0,0,0,0,1.24,4.78,4.78,0,0,0,.07,1.21,1.73,1.73,0,0,0,1.8,1.28,1.88,1.88,0,0,0,1.94-1.29A4.89,4.89,0,0,0,19.71,9.14Z"/><path class="e" d="M23.6,9.14a5.92,5.92,0,0,0-.08-1.09,1.79,1.79,0,0,0-1.86-1.42A1.69,1.69,0,0,0,19.76,8a5.94,5.94,0,0,0-.05,1.24,4.78,4.78,0,0,0,.07,1.21,1.73,1.73,0,0,0,1.8,1.28,1.88,1.88,0,0,0,1.94-1.29A4.89,4.89,0,0,0,23.6,9.14Z"/><path class="e" d="M12,9.14A5.92,5.92,0,0,1,12,8.05,1.79,1.79,0,0,1,13.9,6.63,1.69,1.69,0,0,1,15.8,8a5.94,5.94,0,0,1,0,1.24,4.78,4.78,0,0,1-.07,1.21A1.73,1.73,0,0,1,14,11.72a1.82,1.82,0,0,1-2-1.19A5.68,5.68,0,0,1,12,9.14Z"/><path class="e" d="M39.12,9.14a5.85,5.85,0,0,1,.09-1.09,1.78,1.78,0,0,1,1.85-1.42A1.68,1.68,0,0,1,43,8a5.33,5.33,0,0,1,0,1.24A4.37,4.37,0,0,1,43,10.44a1.74,1.74,0,0,1-1.81,1.28,1.82,1.82,0,0,1-2-1.19A5.68,5.68,0,0,1,39.12,9.14Z"/><path class="e" d="M3.9,9.27a5.85,5.85,0,0,0-.09-1.09A1.78,1.78,0,0,0,2,6.76,1.68,1.68,0,0,0,.06,8.12,5.33,5.33,0,0,0,0,9.36a4.37,4.37,0,0,0,.06,1.21,1.74,1.74,0,0,0,1.81,1.28,1.86,1.86,0,0,0,1.93-1.29A4.88,4.88,0,0,0,3.9,9.27Z"/><path class="e" d="M3.93,9.27A5.92,5.92,0,0,1,4,8.18,1.78,1.78,0,0,1,5.86,6.76,1.69,1.69,0,0,1,7.77,8.12a6,6,0,0,1,0,1.24,4.37,4.37,0,0,1-.06,1.21,1.73,1.73,0,0,1-1.81,1.28A1.83,1.83,0,0,1,4,10.66,5.7,5.7,0,0,1,3.93,9.27Z"/></svg>