<svg xmlns="http://www.w3.org/2000/svg" width="64.55" height="65.32" viewBox="0 0 64.55 65.32"><defs><style>.a{fill:#fbf175;}.b{fill:#889bcf;}.c{fill:#86aca8;}.d{fill:#ffd69f;}.e{fill:#eb666a;}</style></defs><title>Asset 115</title><path class="a" d="M32.28,62.74a5.92,5.92,0,0,0-.08-1.09,1.79,1.79,0,0,0-1.86-1.42,1.69,1.69,0,0,0-1.9,1.36,5.94,5.94,0,0,0-.05,1.24A4.78,4.78,0,0,0,28.46,64a1.73,1.73,0,0,0,1.8,1.28A1.88,1.88,0,0,0,32.2,64,4.89,4.89,0,0,0,32.28,62.74Z"/><path class="a" d="M40,62.74a5.85,5.85,0,0,0-.09-1.09,1.78,1.78,0,0,0-1.85-1.42,1.69,1.69,0,0,0-1.91,1.36,6,6,0,0,0,0,1.24A4.37,4.37,0,0,0,36.17,64,1.73,1.73,0,0,0,38,65.32,1.86,1.86,0,0,0,39.91,64,4.88,4.88,0,0,0,40,62.74Z"/><path class="a" d="M43.89,62.74a5.85,5.85,0,0,0-.09-1.09A1.78,1.78,0,0,0,42,60.23a1.68,1.68,0,0,0-1.9,1.36,5.33,5.33,0,0,0,0,1.24A4.37,4.37,0,0,0,40.06,64a1.74,1.74,0,0,0,1.81,1.28A1.86,1.86,0,0,0,43.8,64,4.88,4.88,0,0,0,43.89,62.74Z"/><path class="a" d="M32.24,62.74a5.85,5.85,0,0,1,.09-1.09,1.77,1.77,0,0,1,1.85-1.42,1.69,1.69,0,0,1,1.9,1.36,5.94,5.94,0,0,1,.05,1.24A4.8,4.8,0,0,1,36.07,64a1.74,1.74,0,0,1-1.81,1.28,1.82,1.82,0,0,1-1.95-1.19A5.68,5.68,0,0,1,32.24,62.74Z"/><path class="a" d="M16.79,62.74a5.92,5.92,0,0,0-.08-1.09,1.79,1.79,0,0,0-1.86-1.42A1.69,1.69,0,0,0,13,61.59a5.94,5.94,0,0,0,0,1.24A4.36,4.36,0,0,0,13,64a1.72,1.72,0,0,0,1.8,1.28A1.88,1.88,0,0,0,16.71,64,4.89,4.89,0,0,0,16.79,62.74Z"/><path class="a" d="M24.5,62.74a5.92,5.92,0,0,0-.08-1.09,1.78,1.78,0,0,0-1.85-1.42,1.69,1.69,0,0,0-1.91,1.36,5.94,5.94,0,0,0-.05,1.24A4.78,4.78,0,0,0,20.68,64a1.73,1.73,0,0,0,1.8,1.28A1.88,1.88,0,0,0,24.42,64,4.89,4.89,0,0,0,24.5,62.74Z"/><path class="a" d="M28.39,62.74a5.92,5.92,0,0,0-.08-1.09,1.78,1.78,0,0,0-1.85-1.42,1.69,1.69,0,0,0-1.91,1.36,6,6,0,0,0,0,1.24A4.37,4.37,0,0,0,24.57,64a1.73,1.73,0,0,0,1.81,1.28A1.86,1.86,0,0,0,28.31,64,4.89,4.89,0,0,0,28.39,62.74Z"/><path class="a" d="M16.75,62.74a5.92,5.92,0,0,1,.08-1.09,1.79,1.79,0,0,1,1.86-1.42,1.69,1.69,0,0,1,1.9,1.36,5.94,5.94,0,0,1,.05,1.24A4.78,4.78,0,0,1,20.57,64a1.73,1.73,0,0,1-1.8,1.28,1.82,1.82,0,0,1-1.95-1.19A5.68,5.68,0,0,1,16.75,62.74Z"/><path class="a" d="M43.87,62.74A5.92,5.92,0,0,1,44,61.65a1.78,1.78,0,0,1,1.85-1.42,1.69,1.69,0,0,1,1.91,1.36,5.94,5.94,0,0,1,0,1.24A4.78,4.78,0,0,1,47.69,64a1.73,1.73,0,0,1-1.8,1.28,1.84,1.84,0,0,1-2-1.19A5.7,5.7,0,0,1,43.87,62.74Z"/><path class="a" d="M47.76,62.74a5.92,5.92,0,0,1,.08-1.09,1.79,1.79,0,0,1,1.86-1.42,1.69,1.69,0,0,1,1.9,1.36,5.94,5.94,0,0,1,0,1.24A4.78,4.78,0,0,1,51.58,64a1.73,1.73,0,0,1-1.8,1.28,1.82,1.82,0,0,1-2-1.19A5.68,5.68,0,0,1,47.76,62.74Z"/><path class="a" d="M32.28,29.28a5.92,5.92,0,0,0-.08-1.09,1.79,1.79,0,0,0-1.86-1.42,1.69,1.69,0,0,0-1.9,1.36,5.94,5.94,0,0,0-.05,1.24,4.78,4.78,0,0,0,.07,1.21,1.73,1.73,0,0,0,1.8,1.28,1.88,1.88,0,0,0,1.94-1.29A4.89,4.89,0,0,0,32.28,29.28Z"/><path class="a" d="M40,29.28a5.85,5.85,0,0,0-.09-1.09,1.78,1.78,0,0,0-1.85-1.42,1.69,1.69,0,0,0-1.91,1.36,6,6,0,0,0,0,1.24,4.37,4.37,0,0,0,.06,1.21A1.73,1.73,0,0,0,38,31.86a1.86,1.86,0,0,0,1.93-1.29A4.88,4.88,0,0,0,40,29.28Z"/><path class="a" d="M43.89,29.28a5.85,5.85,0,0,0-.09-1.09A1.78,1.78,0,0,0,42,26.77a1.68,1.68,0,0,0-1.9,1.36,5.33,5.33,0,0,0,0,1.24,4.37,4.37,0,0,0,.06,1.21,1.74,1.74,0,0,0,1.81,1.28,1.86,1.86,0,0,0,1.93-1.29A4.88,4.88,0,0,0,43.89,29.28Z"/><path class="a" d="M32.24,29.28a5.85,5.85,0,0,1,.09-1.09,1.77,1.77,0,0,1,1.85-1.42,1.69,1.69,0,0,1,1.9,1.36,5.94,5.94,0,0,1,.05,1.24,4.8,4.8,0,0,1-.06,1.21,1.74,1.74,0,0,1-1.81,1.28,1.82,1.82,0,0,1-1.95-1.19A5.68,5.68,0,0,1,32.24,29.28Z"/><path class="a" d="M16.79,29.28a5.92,5.92,0,0,0-.08-1.09,1.79,1.79,0,0,0-1.86-1.42A1.69,1.69,0,0,0,13,28.13a5.94,5.94,0,0,0,0,1.24A4.36,4.36,0,0,0,13,30.58a1.72,1.72,0,0,0,1.8,1.28,1.88,1.88,0,0,0,1.94-1.29A4.89,4.89,0,0,0,16.79,29.28Z"/><path class="a" d="M24.5,29.28a5.92,5.92,0,0,0-.08-1.09,1.78,1.78,0,0,0-1.85-1.42,1.69,1.69,0,0,0-1.91,1.36,5.94,5.94,0,0,0-.05,1.24,4.78,4.78,0,0,0,.07,1.21,1.73,1.73,0,0,0,1.8,1.28,1.88,1.88,0,0,0,1.94-1.29A4.89,4.89,0,0,0,24.5,29.28Z"/><path class="a" d="M28.39,29.28a5.92,5.92,0,0,0-.08-1.09,1.78,1.78,0,0,0-1.85-1.42,1.69,1.69,0,0,0-1.91,1.36,6,6,0,0,0,0,1.24,4.37,4.37,0,0,0,.06,1.21,1.73,1.73,0,0,0,1.81,1.28,1.86,1.86,0,0,0,1.93-1.29A4.89,4.89,0,0,0,28.39,29.28Z"/><path class="a" d="M16.75,29.28a5.92,5.92,0,0,1,.08-1.09,1.79,1.79,0,0,1,1.86-1.42,1.69,1.69,0,0,1,1.9,1.36,5.94,5.94,0,0,1,.05,1.24,4.78,4.78,0,0,1-.07,1.21,1.73,1.73,0,0,1-1.8,1.28,1.82,1.82,0,0,1-1.95-1.19A5.68,5.68,0,0,1,16.75,29.28Z"/><path class="a" d="M43.87,29.28A5.92,5.92,0,0,1,44,28.19a1.78,1.78,0,0,1,1.85-1.42,1.69,1.69,0,0,1,1.91,1.36,5.94,5.94,0,0,1,0,1.24,4.78,4.78,0,0,1-.07,1.21,1.73,1.73,0,0,1-1.8,1.28,1.84,1.84,0,0,1-2-1.19A5.7,5.7,0,0,1,43.87,29.28Z"/><path class="a" d="M47.76,29.28a5.92,5.92,0,0,1,.08-1.09,1.79,1.79,0,0,1,1.86-1.42,1.69,1.69,0,0,1,1.9,1.36,5.94,5.94,0,0,1,0,1.24,4.78,4.78,0,0,1-.07,1.21,1.73,1.73,0,0,1-1.8,1.28,1.82,1.82,0,0,1-2-1.19A5.68,5.68,0,0,1,47.76,29.28Z"/><path class="b" d="M32.28,2.52a6,6,0,0,0-.08-1.1A1.79,1.79,0,0,0,30.34,0a1.7,1.7,0,0,0-1.9,1.36,6,6,0,0,0-.05,1.24,4.78,4.78,0,0,0,.07,1.21,1.73,1.73,0,0,0,1.8,1.28A1.87,1.87,0,0,0,32.2,3.8,4.82,4.82,0,0,0,32.28,2.52Z"/><path class="b" d="M40,2.52a6,6,0,0,0-.09-1.1A1.78,1.78,0,0,0,38.06,0a1.7,1.7,0,0,0-1.91,1.36,6,6,0,0,0,0,1.24,4.37,4.37,0,0,0,.06,1.21A1.73,1.73,0,0,0,38,5.09,1.85,1.85,0,0,0,39.91,3.8,4.8,4.8,0,0,0,40,2.52Z"/><path class="b" d="M43.89,2.52a6,6,0,0,0-.09-1.1A1.78,1.78,0,0,0,42,0a1.68,1.68,0,0,0-1.9,1.36A5.35,5.35,0,0,0,40,2.6a4.37,4.37,0,0,0,.06,1.21,1.74,1.74,0,0,0,1.81,1.28A1.85,1.85,0,0,0,43.8,3.8,4.8,4.8,0,0,0,43.89,2.52Z"/><path class="b" d="M32.24,2.52a6,6,0,0,1,.09-1.1A1.77,1.77,0,0,1,34.18,0a1.7,1.7,0,0,1,1.9,1.36,6,6,0,0,1,.05,1.24,4.8,4.8,0,0,1-.06,1.21,1.74,1.74,0,0,1-1.81,1.28A1.81,1.81,0,0,1,32.31,3.9,5.63,5.63,0,0,1,32.24,2.52Z"/><path class="b" d="M16.79,2.52a6,6,0,0,0-.08-1.1A1.79,1.79,0,0,0,14.85,0,1.7,1.7,0,0,0,13,1.36a6,6,0,0,0,0,1.24A4.36,4.36,0,0,0,13,3.81a1.72,1.72,0,0,0,1.8,1.28A1.87,1.87,0,0,0,16.71,3.8,4.82,4.82,0,0,0,16.79,2.52Z"/><path class="b" d="M24.5,2.52a6,6,0,0,0-.08-1.1A1.78,1.78,0,0,0,22.57,0a1.7,1.7,0,0,0-1.91,1.36,6,6,0,0,0-.05,1.24,4.78,4.78,0,0,0,.07,1.21,1.73,1.73,0,0,0,1.8,1.28A1.87,1.87,0,0,0,24.42,3.8,4.82,4.82,0,0,0,24.5,2.52Z"/><path class="b" d="M28.39,2.52a6,6,0,0,0-.08-1.1A1.78,1.78,0,0,0,26.46,0a1.7,1.7,0,0,0-1.91,1.36,6,6,0,0,0,0,1.24,4.37,4.37,0,0,0,.06,1.21,1.73,1.73,0,0,0,1.81,1.28A1.85,1.85,0,0,0,28.31,3.8,4.82,4.82,0,0,0,28.39,2.52Z"/><path class="b" d="M16.75,2.52a6,6,0,0,1,.08-1.1A1.79,1.79,0,0,1,18.69,0a1.7,1.7,0,0,1,1.9,1.36,6,6,0,0,1,.05,1.24,4.78,4.78,0,0,1-.07,1.21,1.73,1.73,0,0,1-1.8,1.28A1.81,1.81,0,0,1,16.82,3.9,5.63,5.63,0,0,1,16.75,2.52Z"/><path class="b" d="M43.87,2.52A6,6,0,0,1,44,1.42,1.78,1.78,0,0,1,45.8,0a1.7,1.7,0,0,1,1.91,1.36,6,6,0,0,1,0,1.24,4.78,4.78,0,0,1-.07,1.21,1.73,1.73,0,0,1-1.8,1.28,1.83,1.83,0,0,1-2-1.19A5.65,5.65,0,0,1,43.87,2.52Z"/><path class="b" d="M47.76,2.52a6,6,0,0,1,.08-1.1A1.79,1.79,0,0,1,49.7,0a1.7,1.7,0,0,1,1.9,1.36,6,6,0,0,1,0,1.24,4.78,4.78,0,0,1-.07,1.21,1.73,1.73,0,0,1-1.8,1.28,1.81,1.81,0,0,1-2-1.19A5.63,5.63,0,0,1,47.76,2.52Z"/><path class="c" d="M43.94,22.59a5.92,5.92,0,0,0-.08-1.09A1.79,1.79,0,0,0,42,20.08a1.69,1.69,0,0,0-1.9,1.36,5.91,5.91,0,0,0-.05,1.24,4.78,4.78,0,0,0,.07,1.21,1.73,1.73,0,0,0,1.8,1.28,1.88,1.88,0,0,0,1.94-1.3A4.82,4.82,0,0,0,43.94,22.59Z"/><path class="c" d="M51.66,22.59a5.85,5.85,0,0,0-.09-1.09,1.78,1.78,0,0,0-1.85-1.42,1.69,1.69,0,0,0-1.91,1.36,6,6,0,0,0,0,1.24,4.37,4.37,0,0,0,.06,1.21,1.73,1.73,0,0,0,1.81,1.28,1.87,1.87,0,0,0,1.93-1.3A4.8,4.8,0,0,0,51.66,22.59Z"/><path class="c" d="M55.55,22.59a5.85,5.85,0,0,0-.09-1.09,1.78,1.78,0,0,0-1.85-1.42,1.68,1.68,0,0,0-1.9,1.36,5.3,5.3,0,0,0-.05,1.24,4.37,4.37,0,0,0,.06,1.21,1.74,1.74,0,0,0,1.81,1.28,1.87,1.87,0,0,0,1.93-1.3A4.8,4.8,0,0,0,55.55,22.59Z"/><path class="c" d="M43.9,22.59A5.85,5.85,0,0,1,44,21.5a1.77,1.77,0,0,1,1.85-1.42,1.68,1.68,0,0,1,1.9,1.36,5.3,5.3,0,0,1,0,1.24,4.8,4.8,0,0,1-.06,1.21,1.74,1.74,0,0,1-1.81,1.28A1.82,1.82,0,0,1,44,24,5.71,5.71,0,0,1,43.9,22.59Z"/><path class="c" d="M55.58,22.59a5.92,5.92,0,0,1,.08-1.09,1.78,1.78,0,0,1,1.85-1.42,1.69,1.69,0,0,1,1.91,1.36,6,6,0,0,1,0,1.24,4.37,4.37,0,0,1-.06,1.21,1.73,1.73,0,0,1-1.81,1.28,1.83,1.83,0,0,1-2-1.19A5.73,5.73,0,0,1,55.58,22.59Z"/><path class="c" d="M9,22.59a5.92,5.92,0,0,0-.08-1.09A1.79,1.79,0,0,0,7,20.08a1.69,1.69,0,0,0-1.9,1.36,5.91,5.91,0,0,0,0,1.24,4.78,4.78,0,0,0,.07,1.21A1.73,1.73,0,0,0,7,25.17a1.88,1.88,0,0,0,1.94-1.3A4.82,4.82,0,0,0,9,22.59Z"/><path class="c" d="M16.69,22.59a5.85,5.85,0,0,0-.09-1.09,1.78,1.78,0,0,0-1.85-1.42,1.69,1.69,0,0,0-1.91,1.36,6,6,0,0,0,0,1.24,4.37,4.37,0,0,0,.06,1.21,1.74,1.74,0,0,0,1.81,1.28,1.87,1.87,0,0,0,1.93-1.3A4.8,4.8,0,0,0,16.69,22.59Z"/><path class="c" d="M20.58,22.59a5.85,5.85,0,0,0-.09-1.09,1.78,1.78,0,0,0-1.85-1.42,1.68,1.68,0,0,0-1.9,1.36,5.3,5.3,0,0,0,0,1.24,4.37,4.37,0,0,0,.06,1.21,1.74,1.74,0,0,0,1.81,1.28,1.87,1.87,0,0,0,1.93-1.3A4.8,4.8,0,0,0,20.58,22.59Z"/><path class="c" d="M8.93,22.59A5.85,5.85,0,0,1,9,21.5a1.77,1.77,0,0,1,1.85-1.42,1.68,1.68,0,0,1,1.9,1.36,5.3,5.3,0,0,1,.05,1.24,4.8,4.8,0,0,1-.06,1.21A1.74,1.74,0,0,1,11,25.17,1.82,1.82,0,0,1,9,24,5.71,5.71,0,0,1,8.93,22.59Z"/><path class="c" d="M20.61,22.59a5.92,5.92,0,0,1,.08-1.09,1.78,1.78,0,0,1,1.85-1.42,1.69,1.69,0,0,1,1.91,1.36,6,6,0,0,1,0,1.24,4.37,4.37,0,0,1-.06,1.21,1.73,1.73,0,0,1-1.81,1.28A1.83,1.83,0,0,1,20.67,24,5.73,5.73,0,0,1,20.61,22.59Z"/><path class="c" d="M10.49,56.05A5.85,5.85,0,0,0,10.4,55a1.78,1.78,0,0,0-1.85-1.43,1.68,1.68,0,0,0-1.9,1.37,5.3,5.3,0,0,0-.05,1.24,4.37,4.37,0,0,0,.06,1.21,1.72,1.72,0,0,0,1.81,1.27,1.85,1.85,0,0,0,1.93-1.29A4.8,4.8,0,0,0,10.49,56.05Z"/><path class="c" d="M18.2,56.05A5.92,5.92,0,0,0,18.12,55a1.79,1.79,0,0,0-1.86-1.43,1.7,1.7,0,0,0-1.9,1.37,5.91,5.91,0,0,0,0,1.24,4.78,4.78,0,0,0,.07,1.21,1.71,1.71,0,0,0,1.8,1.27,1.87,1.87,0,0,0,1.94-1.29A4.82,4.82,0,0,0,18.2,56.05Z"/><path class="c" d="M22.09,56.05A5.92,5.92,0,0,0,22,55a1.79,1.79,0,0,0-1.86-1.43,1.7,1.7,0,0,0-1.9,1.37,5.91,5.91,0,0,0-.05,1.24,4.78,4.78,0,0,0,.07,1.21,1.71,1.71,0,0,0,1.8,1.27A1.87,1.87,0,0,0,22,57.33,4.82,4.82,0,0,0,22.09,56.05Z"/><path class="c" d="M10.45,56.05A5.92,5.92,0,0,1,10.53,55a1.79,1.79,0,0,1,1.86-1.43,1.7,1.7,0,0,1,1.9,1.37,5.91,5.91,0,0,1,.05,1.24,4.78,4.78,0,0,1-.07,1.21,1.71,1.71,0,0,1-1.8,1.27,1.82,1.82,0,0,1-2-1.18A6.31,6.31,0,0,1,10.45,56.05Z"/><path class="c" d="M22.12,56.05A5.92,5.92,0,0,1,22.2,55a1.79,1.79,0,0,1,1.86-1.43A1.7,1.7,0,0,1,26,54.9,5.91,5.91,0,0,1,26,56.14a4.36,4.36,0,0,1-.07,1.21,1.7,1.7,0,0,1-1.8,1.27,1.8,1.8,0,0,1-1.95-1.18A5.74,5.74,0,0,1,22.12,56.05Z"/><path class="c" d="M42.43,56.05A5.85,5.85,0,0,0,42.34,55a1.78,1.78,0,0,0-1.85-1.43,1.68,1.68,0,0,0-1.9,1.37,5.3,5.3,0,0,0-.05,1.24,4.37,4.37,0,0,0,.06,1.21,1.72,1.72,0,0,0,1.81,1.27,1.85,1.85,0,0,0,1.93-1.29A4.8,4.8,0,0,0,42.43,56.05Z"/><path class="c" d="M50.14,56.05A5.92,5.92,0,0,0,50.06,55a1.79,1.79,0,0,0-1.86-1.43,1.7,1.7,0,0,0-1.9,1.37,5.91,5.91,0,0,0,0,1.24,4.78,4.78,0,0,0,.07,1.21,1.71,1.71,0,0,0,1.8,1.27,1.87,1.87,0,0,0,1.94-1.29A4.82,4.82,0,0,0,50.14,56.05Z"/><path class="c" d="M54,56.05A5.92,5.92,0,0,0,54,55a1.79,1.79,0,0,0-1.86-1.43,1.7,1.7,0,0,0-1.9,1.37,5.91,5.91,0,0,0,0,1.24,4.78,4.78,0,0,0,.07,1.21A1.71,1.71,0,0,0,52,58.62,1.87,1.87,0,0,0,54,57.33,4.82,4.82,0,0,0,54,56.05Z"/><path class="c" d="M42.39,56.05A5.92,5.92,0,0,1,42.47,55a1.79,1.79,0,0,1,1.86-1.43,1.7,1.7,0,0,1,1.9,1.37,5.91,5.91,0,0,1,.05,1.24,4.78,4.78,0,0,1-.07,1.21,1.71,1.71,0,0,1-1.8,1.27,1.82,1.82,0,0,1-2-1.18A5.75,5.75,0,0,1,42.39,56.05Z"/><path class="c" d="M54.06,56.05A5.92,5.92,0,0,1,54.14,55,1.79,1.79,0,0,1,56,53.53a1.7,1.7,0,0,1,1.9,1.37A5.91,5.91,0,0,1,58,56.14a4.78,4.78,0,0,1-.07,1.21,1.71,1.71,0,0,1-1.8,1.27,1.8,1.8,0,0,1-1.95-1.18A5.74,5.74,0,0,1,54.06,56.05Z"/><path class="d" d="M47.41,15.9a5.92,5.92,0,0,0-.08-1.09,1.77,1.77,0,0,0-1.85-1.43,1.7,1.7,0,0,0-1.91,1.37,6,6,0,0,0,0,1.24,4.3,4.3,0,0,0,.06,1.2,1.71,1.71,0,0,0,1.81,1.28,1.85,1.85,0,0,0,1.93-1.29A4.82,4.82,0,0,0,47.41,15.9Z"/><path class="d" d="M55.13,15.9A5.11,5.11,0,0,0,55,14.81a1.77,1.77,0,0,0-1.85-1.43,1.7,1.7,0,0,0-1.9,1.37,5.91,5.91,0,0,0,0,1.24,4.29,4.29,0,0,0,.07,1.2,1.7,1.7,0,0,0,1.8,1.28,1.87,1.87,0,0,0,1.94-1.29A4.82,4.82,0,0,0,55.13,15.9Z"/><path class="d" d="M59,15.9a5.92,5.92,0,0,0-.08-1.09,1.78,1.78,0,0,0-1.86-1.43,1.7,1.7,0,0,0-1.9,1.37,5.91,5.91,0,0,0,0,1.24,4.7,4.7,0,0,0,.07,1.2A1.71,1.71,0,0,0,57,18.47a1.87,1.87,0,0,0,1.94-1.29A4.82,4.82,0,0,0,59,15.9Z"/><path class="d" d="M47.38,15.9a5.92,5.92,0,0,1,.08-1.09,1.77,1.77,0,0,1,1.85-1.43,1.7,1.7,0,0,1,1.91,1.37,6,6,0,0,1,0,1.24,4.3,4.3,0,0,1-.06,1.2,1.71,1.71,0,0,1-1.81,1.28,1.81,1.81,0,0,1-2-1.18A5.75,5.75,0,0,1,47.38,15.9Z"/><path class="d" d="M59.05,15.9a5.92,5.92,0,0,1,.08-1.09A1.78,1.78,0,0,1,61,13.38a1.7,1.7,0,0,1,1.9,1.37,5.91,5.91,0,0,1,0,1.24,4.7,4.7,0,0,1-.07,1.2,1.71,1.71,0,0,1-1.8,1.28,1.8,1.8,0,0,1-2-1.18A5.74,5.74,0,0,1,59.05,15.9Z"/><path class="d" d="M5.5,15.9a5.11,5.11,0,0,0-.09-1.09,1.77,1.77,0,0,0-1.85-1.43,1.7,1.7,0,0,0-1.9,1.37,5.91,5.91,0,0,0,0,1.24,4.29,4.29,0,0,0,.07,1.2,1.7,1.7,0,0,0,1.8,1.28,1.87,1.87,0,0,0,1.94-1.29A4.82,4.82,0,0,0,5.5,15.9Z"/><path class="d" d="M13.21,15.9a5.92,5.92,0,0,0-.08-1.09,1.78,1.78,0,0,0-1.86-1.43,1.7,1.7,0,0,0-1.9,1.37,5.91,5.91,0,0,0,0,1.24,4.7,4.7,0,0,0,.07,1.2,1.71,1.71,0,0,0,1.8,1.28,1.87,1.87,0,0,0,1.94-1.29A4.82,4.82,0,0,0,13.21,15.9Z"/><path class="d" d="M17.1,15.9A5.92,5.92,0,0,0,17,14.81a1.78,1.78,0,0,0-1.85-1.43,1.7,1.7,0,0,0-1.91,1.37,5.36,5.36,0,0,0,0,1.24,4.3,4.3,0,0,0,.06,1.2,1.71,1.71,0,0,0,1.8,1.28A1.86,1.86,0,0,0,17,17.18,4.82,4.82,0,0,0,17.1,15.9Z"/><path class="d" d="M5.46,15.9a5.92,5.92,0,0,1,.08-1.09A1.78,1.78,0,0,1,7.4,13.38a1.7,1.7,0,0,1,1.9,1.37,5.91,5.91,0,0,1,0,1.24,4.7,4.7,0,0,1-.07,1.2,1.71,1.71,0,0,1-1.8,1.28,1.8,1.8,0,0,1-1.95-1.18A5.74,5.74,0,0,1,5.46,15.9Z"/><path class="d" d="M17.13,15.9a5.85,5.85,0,0,1,.09-1.09,1.77,1.77,0,0,1,1.85-1.43A1.68,1.68,0,0,1,21,14.75,5.3,5.3,0,0,1,21,16a4.3,4.3,0,0,1-.06,1.2,1.72,1.72,0,0,1-1.81,1.28,1.8,1.8,0,0,1-1.95-1.18A5.74,5.74,0,0,1,17.13,15.9Z"/><path class="d" d="M49,49.36a6,6,0,0,0-.09-1.1,1.78,1.78,0,0,0-1.85-1.42,1.68,1.68,0,0,0-1.9,1.37,5.3,5.3,0,0,0,0,1.24,4.3,4.3,0,0,0,.06,1.2A1.72,1.72,0,0,0,47,51.93a1.87,1.87,0,0,0,1.94-1.29A5.28,5.28,0,0,0,49,49.36Z"/><path class="d" d="M56.73,49.36a6.1,6.1,0,0,0-.08-1.1,1.79,1.79,0,0,0-1.86-1.42,1.7,1.7,0,0,0-1.9,1.37,5.91,5.91,0,0,0,0,1.24,4.7,4.7,0,0,0,.07,1.2,1.71,1.71,0,0,0,1.8,1.28,1.87,1.87,0,0,0,1.94-1.29A4.82,4.82,0,0,0,56.73,49.36Z"/><path class="d" d="M60.62,49.36a6.1,6.1,0,0,0-.08-1.1,1.79,1.79,0,0,0-1.86-1.42,1.7,1.7,0,0,0-1.9,1.37,5.91,5.91,0,0,0-.05,1.24,4.7,4.7,0,0,0,.07,1.2,1.71,1.71,0,0,0,1.8,1.28,1.87,1.87,0,0,0,1.94-1.29A4.82,4.82,0,0,0,60.62,49.36Z"/><path class="d" d="M49,49.36a6.1,6.1,0,0,1,.08-1.1,1.79,1.79,0,0,1,1.86-1.42,1.7,1.7,0,0,1,1.9,1.37,5.91,5.91,0,0,1,0,1.24,4.7,4.7,0,0,1-.07,1.2A1.71,1.71,0,0,1,51,51.93a1.8,1.8,0,0,1-2-1.18A5.74,5.74,0,0,1,49,49.36Z"/><path class="d" d="M60.65,49.36a5.26,5.26,0,0,1,.09-1.1,1.77,1.77,0,0,1,1.85-1.42,1.7,1.7,0,0,1,1.9,1.37,5.91,5.91,0,0,1,.05,1.24,4.29,4.29,0,0,1-.07,1.2,1.7,1.7,0,0,1-1.8,1.28,1.8,1.8,0,0,1-2-1.18A5.74,5.74,0,0,1,60.65,49.36Z"/><path class="d" d="M3.9,49.36a6,6,0,0,0-.09-1.1A1.78,1.78,0,0,0,2,46.84a1.68,1.68,0,0,0-1.9,1.37,5.3,5.3,0,0,0,0,1.24,4.3,4.3,0,0,0,.06,1.2,1.72,1.72,0,0,0,1.81,1.28,1.85,1.85,0,0,0,1.93-1.29A4.8,4.8,0,0,0,3.9,49.36Z"/><path class="d" d="M11.61,49.36a6.1,6.1,0,0,0-.08-1.1,1.79,1.79,0,0,0-1.86-1.42,1.7,1.7,0,0,0-1.9,1.37,5.91,5.91,0,0,0,0,1.24,4.7,4.7,0,0,0,.07,1.2,1.71,1.71,0,0,0,1.8,1.28,1.87,1.87,0,0,0,1.94-1.29A4.82,4.82,0,0,0,11.61,49.36Z"/><path class="d" d="M15.5,49.36a6.1,6.1,0,0,0-.08-1.1,1.79,1.79,0,0,0-1.86-1.42,1.7,1.7,0,0,0-1.9,1.37,5.91,5.91,0,0,0-.05,1.24,4.7,4.7,0,0,0,.07,1.2,1.71,1.71,0,0,0,1.8,1.28,1.87,1.87,0,0,0,1.94-1.29A4.82,4.82,0,0,0,15.5,49.36Z"/><path class="d" d="M3.86,49.36a6.1,6.1,0,0,1,.08-1.1,1.78,1.78,0,0,1,1.85-1.42A1.7,1.7,0,0,1,7.7,48.21a5.91,5.91,0,0,1,0,1.24,4.7,4.7,0,0,1-.07,1.2,1.71,1.71,0,0,1-1.8,1.28,1.82,1.82,0,0,1-2-1.18A5.75,5.75,0,0,1,3.86,49.36Z"/><path class="d" d="M15.53,49.36a6.1,6.1,0,0,1,.08-1.1,1.79,1.79,0,0,1,1.86-1.42,1.7,1.7,0,0,1,1.9,1.37,5.91,5.91,0,0,1,.05,1.24,4.7,4.7,0,0,1-.07,1.2,1.71,1.71,0,0,1-1.8,1.28,1.8,1.8,0,0,1-2-1.18A5.74,5.74,0,0,1,15.53,49.36Z"/><path class="e" d="M44.82,9.21a6.1,6.1,0,0,0-.08-1.1,1.79,1.79,0,0,0-1.86-1.42A1.7,1.7,0,0,0,41,8.05a6,6,0,0,0,0,1.25A4.73,4.73,0,0,0,41,10.5a1.72,1.72,0,0,0,1.8,1.28,1.87,1.87,0,0,0,1.94-1.29A4.82,4.82,0,0,0,44.82,9.21Z"/><path class="e" d="M52.54,9.21a6,6,0,0,0-.09-1.1A1.78,1.78,0,0,0,50.6,6.69a1.68,1.68,0,0,0-1.9,1.36,5.41,5.41,0,0,0-.05,1.25,4.32,4.32,0,0,0,.06,1.2,1.73,1.73,0,0,0,1.81,1.28,1.85,1.85,0,0,0,1.93-1.29A4.8,4.8,0,0,0,52.54,9.21Z"/><path class="e" d="M56.43,9.21a6,6,0,0,0-.09-1.1,1.78,1.78,0,0,0-1.85-1.42,1.68,1.68,0,0,0-1.9,1.36,5.41,5.41,0,0,0-.05,1.25,4.32,4.32,0,0,0,.06,1.2,1.73,1.73,0,0,0,1.81,1.28,1.85,1.85,0,0,0,1.93-1.29A4.8,4.8,0,0,0,56.43,9.21Z"/><path class="e" d="M44.78,9.21a6,6,0,0,1,.09-1.1,1.78,1.78,0,0,1,1.85-1.42,1.68,1.68,0,0,1,1.9,1.36,5.41,5.41,0,0,1,.05,1.25,4.32,4.32,0,0,1-.06,1.2,1.73,1.73,0,0,1-1.81,1.28,1.81,1.81,0,0,1-1.95-1.19A5.63,5.63,0,0,1,44.78,9.21Z"/><path class="e" d="M56.46,9.21a6.1,6.1,0,0,1,.08-1.1,1.78,1.78,0,0,1,1.85-1.42A1.7,1.7,0,0,1,60.3,8.05a6.12,6.12,0,0,1,0,1.25,4.32,4.32,0,0,1-.06,1.2,1.72,1.72,0,0,1-1.8,1.28,1.82,1.82,0,0,1-2-1.19A5.65,5.65,0,0,1,56.46,9.21Z"/><path class="e" d="M8.09,9.21A6.1,6.1,0,0,0,8,8.11,1.79,1.79,0,0,0,6.15,6.69a1.7,1.7,0,0,0-1.9,1.36,6,6,0,0,0,0,1.25,4.73,4.73,0,0,0,.07,1.2,1.72,1.72,0,0,0,1.8,1.28A1.87,1.87,0,0,0,8,10.49,4.82,4.82,0,0,0,8.09,9.21Z"/><path class="e" d="M15.81,9.21a6,6,0,0,0-.09-1.1,1.78,1.78,0,0,0-1.85-1.42A1.7,1.7,0,0,0,12,8.05a6.12,6.12,0,0,0,0,1.25A4.32,4.32,0,0,0,12,10.5a1.72,1.72,0,0,0,1.81,1.28,1.85,1.85,0,0,0,1.93-1.29A4.8,4.8,0,0,0,15.81,9.21Z"/><path class="e" d="M19.7,9.21a6,6,0,0,0-.09-1.1,1.78,1.78,0,0,0-1.85-1.42,1.68,1.68,0,0,0-1.9,1.36,5.41,5.41,0,0,0,0,1.25,4.32,4.32,0,0,0,.06,1.2,1.73,1.73,0,0,0,1.81,1.28,1.85,1.85,0,0,0,1.93-1.29A4.8,4.8,0,0,0,19.7,9.21Z"/><path class="e" d="M8.05,9.21a6,6,0,0,1,.09-1.1A1.77,1.77,0,0,1,10,6.69a1.7,1.7,0,0,1,1.9,1.36,6,6,0,0,1,0,1.25,4.74,4.74,0,0,1-.06,1.2,1.73,1.73,0,0,1-1.81,1.28,1.81,1.81,0,0,1-2-1.19A5.63,5.63,0,0,1,8.05,9.21Z"/><path class="e" d="M19.73,9.21a6.1,6.1,0,0,1,.08-1.1,1.78,1.78,0,0,1,1.85-1.42,1.7,1.7,0,0,1,1.91,1.36,6.12,6.12,0,0,1,0,1.25,4.32,4.32,0,0,1-.06,1.2,1.72,1.72,0,0,1-1.81,1.28,1.81,1.81,0,0,1-1.95-1.19A5.65,5.65,0,0,1,19.73,9.21Z"/><path class="e" d="M3.9,42.67a6,6,0,0,0-.09-1.1A1.77,1.77,0,0,0,2,40.15a1.7,1.7,0,0,0-1.9,1.36,6,6,0,0,0,0,1.24A4.8,4.8,0,0,0,.07,44a1.74,1.74,0,0,0,1.81,1.28A1.87,1.87,0,0,0,3.82,44,4.82,4.82,0,0,0,3.9,42.67Z"/><path class="e" d="M11.61,42.67a6,6,0,0,0-.08-1.1,1.79,1.79,0,0,0-1.86-1.42,1.7,1.7,0,0,0-1.9,1.36,6,6,0,0,0,0,1.24A4.78,4.78,0,0,0,7.79,44a1.73,1.73,0,0,0,1.8,1.28A1.87,1.87,0,0,0,11.53,44,4.82,4.82,0,0,0,11.61,42.67Z"/><path class="e" d="M15.5,42.67a6,6,0,0,0-.08-1.1,1.78,1.78,0,0,0-1.85-1.42,1.7,1.7,0,0,0-1.91,1.36,6,6,0,0,0-.05,1.24A4.78,4.78,0,0,0,11.68,44a1.73,1.73,0,0,0,1.8,1.28A1.87,1.87,0,0,0,15.42,44,4.82,4.82,0,0,0,15.5,42.67Z"/><path class="e" d="M3.86,42.67a6,6,0,0,1,.08-1.1A1.79,1.79,0,0,1,5.8,40.15a1.7,1.7,0,0,1,1.9,1.36,6,6,0,0,1,0,1.24A4.78,4.78,0,0,1,7.68,44a1.73,1.73,0,0,1-1.8,1.28,1.81,1.81,0,0,1-1.95-1.19A5.63,5.63,0,0,1,3.86,42.67Z"/><path class="e" d="M15.53,42.67a6,6,0,0,1,.09-1.1,1.77,1.77,0,0,1,1.85-1.42,1.7,1.7,0,0,1,1.9,1.36,6,6,0,0,1,.05,1.24A4.8,4.8,0,0,1,19.36,44a1.74,1.74,0,0,1-1.81,1.28,1.81,1.81,0,0,1-2-1.19A5.63,5.63,0,0,1,15.53,42.67Z"/><path class="e" d="M49,42.67a6,6,0,0,0-.09-1.1,1.78,1.78,0,0,0-1.85-1.42,1.7,1.7,0,0,0-1.91,1.36,6,6,0,0,0,0,1.24A4.37,4.37,0,0,0,45.19,44,1.73,1.73,0,0,0,47,45.24,1.85,1.85,0,0,0,48.93,44,4.8,4.8,0,0,0,49,42.67Z"/><path class="e" d="M56.73,42.67a6,6,0,0,0-.08-1.1,1.79,1.79,0,0,0-1.86-1.42,1.7,1.7,0,0,0-1.9,1.36,6,6,0,0,0,0,1.24A4.36,4.36,0,0,0,52.91,44a1.72,1.72,0,0,0,1.8,1.28A1.87,1.87,0,0,0,56.65,44,4.82,4.82,0,0,0,56.73,42.67Z"/><path class="e" d="M60.62,42.67a6,6,0,0,0-.08-1.1,1.79,1.79,0,0,0-1.86-1.42,1.7,1.7,0,0,0-1.9,1.36,6,6,0,0,0-.05,1.24A4.78,4.78,0,0,0,56.8,44a1.73,1.73,0,0,0,1.8,1.28A1.87,1.87,0,0,0,60.54,44,4.82,4.82,0,0,0,60.62,42.67Z"/><path class="e" d="M49,42.67a6,6,0,0,1,.08-1.1,1.78,1.78,0,0,1,1.85-1.42,1.7,1.7,0,0,1,1.91,1.36,6,6,0,0,1,0,1.24A4.37,4.37,0,0,1,52.8,44,1.73,1.73,0,0,1,51,45.24a1.82,1.82,0,0,1-2-1.19A5.65,5.65,0,0,1,49,42.67Z"/><path class="e" d="M60.65,42.67a6,6,0,0,1,.08-1.1,1.79,1.79,0,0,1,1.86-1.42,1.7,1.7,0,0,1,1.9,1.36,6,6,0,0,1,.05,1.24A4.78,4.78,0,0,1,64.47,44a1.73,1.73,0,0,1-1.8,1.28,1.81,1.81,0,0,1-2-1.19A5.63,5.63,0,0,1,60.65,42.67Z"/><path class="b" d="M44.39,36a6,6,0,0,0-.08-1.1,1.79,1.79,0,0,0-1.86-1.42,1.69,1.69,0,0,0-1.9,1.36,6,6,0,0,0,0,1.24,4.36,4.36,0,0,0,.07,1.21,1.72,1.72,0,0,0,1.8,1.28,1.87,1.87,0,0,0,1.94-1.29A4.82,4.82,0,0,0,44.39,36Z"/><path class="b" d="M52.1,36a6,6,0,0,0-.08-1.1,1.78,1.78,0,0,0-1.85-1.42,1.69,1.69,0,0,0-1.91,1.36,6,6,0,0,0,0,1.24,4.78,4.78,0,0,0,.07,1.21,1.73,1.73,0,0,0,1.8,1.28A1.87,1.87,0,0,0,52,37.26,4.82,4.82,0,0,0,52.1,36Z"/><path class="b" d="M56,36a6,6,0,0,0-.08-1.1,1.78,1.78,0,0,0-1.85-1.42,1.69,1.69,0,0,0-1.91,1.36,6,6,0,0,0,0,1.24,4.37,4.37,0,0,0,.06,1.21A1.73,1.73,0,0,0,54,38.55a1.85,1.85,0,0,0,1.93-1.29A4.82,4.82,0,0,0,56,36Z"/><path class="b" d="M44.35,36a6,6,0,0,1,.08-1.1,1.79,1.79,0,0,1,1.86-1.42,1.69,1.69,0,0,1,1.9,1.36,6,6,0,0,1,.05,1.24,4.78,4.78,0,0,1-.07,1.21,1.73,1.73,0,0,1-1.8,1.28,1.81,1.81,0,0,1-1.95-1.19A5.63,5.63,0,0,1,44.35,36Z"/><path class="b" d="M56,36a5.89,5.89,0,0,1,.09-1.1A1.78,1.78,0,0,1,58,33.46a1.68,1.68,0,0,1,1.9,1.36,5.35,5.35,0,0,1,0,1.24,4.37,4.37,0,0,1-.06,1.21A1.74,1.74,0,0,1,58,38.55a1.81,1.81,0,0,1-1.95-1.19A5.63,5.63,0,0,1,56,36Z"/><path class="b" d="M8.52,36a6,6,0,0,0-.08-1.1,1.78,1.78,0,0,0-1.85-1.42,1.69,1.69,0,0,0-1.91,1.36,6,6,0,0,0,0,1.24,4.37,4.37,0,0,0,.06,1.21,1.73,1.73,0,0,0,1.81,1.28,1.85,1.85,0,0,0,1.93-1.29A4.82,4.82,0,0,0,8.52,36Z"/><path class="b" d="M16.24,36a5.89,5.89,0,0,0-.09-1.1,1.77,1.77,0,0,0-1.85-1.42,1.69,1.69,0,0,0-1.9,1.36,6,6,0,0,0-.05,1.24,4.8,4.8,0,0,0,.06,1.21,1.74,1.74,0,0,0,1.81,1.28,1.87,1.87,0,0,0,1.94-1.29A4.82,4.82,0,0,0,16.24,36Z"/><path class="b" d="M20.13,36a6,6,0,0,0-.08-1.1,1.79,1.79,0,0,0-1.86-1.42,1.69,1.69,0,0,0-1.9,1.36,6,6,0,0,0-.05,1.24,4.36,4.36,0,0,0,.07,1.21,1.72,1.72,0,0,0,1.8,1.28,1.87,1.87,0,0,0,1.94-1.29A4.82,4.82,0,0,0,20.13,36Z"/><path class="b" d="M8.49,36a6,6,0,0,1,.08-1.1,1.78,1.78,0,0,1,1.85-1.42,1.69,1.69,0,0,1,1.91,1.36,6,6,0,0,1,0,1.24,4.37,4.37,0,0,1-.06,1.21,1.73,1.73,0,0,1-1.81,1.28,1.81,1.81,0,0,1-1.95-1.19A5.65,5.65,0,0,1,8.49,36Z"/><path class="b" d="M20.16,36a6,6,0,0,1,.08-1.1,1.79,1.79,0,0,1,1.86-1.42A1.69,1.69,0,0,1,24,34.82a6,6,0,0,1,.05,1.24A4.78,4.78,0,0,1,24,37.27a1.73,1.73,0,0,1-1.8,1.28,1.81,1.81,0,0,1-1.95-1.19A5.63,5.63,0,0,1,20.16,36Z"/></svg>