<svg xmlns="http://www.w3.org/2000/svg" width="49.89" height="65.32" viewBox="0 0 49.89 65.32"><defs><style>.a{fill:#889bcf;}.b{fill:#eb666a;}.c{fill:#ffd69f;}.d{fill:#86aca8;}.e{fill:#fbf175;}</style></defs><title>Asset 101</title><path class="a" d="M19.67,36a5.89,5.89,0,0,0-.09-1.1,1.78,1.78,0,0,0-1.85-1.42,1.68,1.68,0,0,0-1.9,1.36,5.35,5.35,0,0,0-.05,1.24,4.37,4.37,0,0,0,.06,1.21,1.74,1.74,0,0,0,1.81,1.28,1.85,1.85,0,0,0,1.93-1.29A4.8,4.8,0,0,0,19.67,36Z"/><path class="a" d="M27.38,36a6,6,0,0,0-.08-1.1,1.79,1.79,0,0,0-1.86-1.42,1.69,1.69,0,0,0-1.9,1.36,6,6,0,0,0-.05,1.24,4.78,4.78,0,0,0,.07,1.21,1.73,1.73,0,0,0,1.8,1.28,1.87,1.87,0,0,0,1.94-1.29A4.82,4.82,0,0,0,27.38,36Z"/><path class="a" d="M31.27,36a6,6,0,0,0-.08-1.1,1.79,1.79,0,0,0-1.86-1.42,1.69,1.69,0,0,0-1.9,1.36,6,6,0,0,0-.05,1.24,4.78,4.78,0,0,0,.07,1.21,1.73,1.73,0,0,0,1.8,1.28,1.87,1.87,0,0,0,1.94-1.29A4.82,4.82,0,0,0,31.27,36Z"/><path class="a" d="M19.63,36a6,6,0,0,1,.08-1.1,1.78,1.78,0,0,1,1.85-1.42,1.69,1.69,0,0,1,1.91,1.36,6,6,0,0,1,.05,1.24,4.78,4.78,0,0,1-.07,1.21,1.73,1.73,0,0,1-1.8,1.28,1.83,1.83,0,0,1-2-1.19A5.65,5.65,0,0,1,19.63,36Z"/><path class="a" d="M4.17,36a6,6,0,0,0-.08-1.1,1.78,1.78,0,0,0-1.85-1.42A1.69,1.69,0,0,0,.33,34.82a6,6,0,0,0,0,1.24,4.37,4.37,0,0,0,.06,1.21,1.73,1.73,0,0,0,1.81,1.28,1.85,1.85,0,0,0,1.93-1.29A4.82,4.82,0,0,0,4.17,36Z"/><path class="a" d="M11.89,36a5.89,5.89,0,0,0-.09-1.1A1.77,1.77,0,0,0,10,33.46a1.69,1.69,0,0,0-1.9,1.36A6,6,0,0,0,8,36.06a4.8,4.8,0,0,0,.06,1.21,1.74,1.74,0,0,0,1.81,1.28,1.87,1.87,0,0,0,1.94-1.29A4.82,4.82,0,0,0,11.89,36Z"/><path class="a" d="M15.78,36a6,6,0,0,0-.08-1.1,1.79,1.79,0,0,0-1.86-1.42,1.69,1.69,0,0,0-1.9,1.36,6,6,0,0,0,0,1.24A4.36,4.36,0,0,0,12,37.27a1.72,1.72,0,0,0,1.8,1.28,1.87,1.87,0,0,0,1.94-1.29A4.82,4.82,0,0,0,15.78,36Z"/><path class="a" d="M4.14,36a6,6,0,0,1,.08-1.1,1.78,1.78,0,0,1,1.85-1.42A1.69,1.69,0,0,1,8,34.82a6,6,0,0,1,0,1.24A4.37,4.37,0,0,1,8,37.27a1.73,1.73,0,0,1-1.81,1.28A1.81,1.81,0,0,1,4.2,37.36,5.65,5.65,0,0,1,4.14,36Z"/><path class="a" d="M31.25,36a5.89,5.89,0,0,1,.09-1.1,1.77,1.77,0,0,1,1.85-1.42,1.69,1.69,0,0,1,1.9,1.36,6,6,0,0,1,0,1.24,4.8,4.8,0,0,1-.06,1.21,1.74,1.74,0,0,1-1.81,1.28,1.81,1.81,0,0,1-2-1.19A5.63,5.63,0,0,1,31.25,36Z"/><path class="a" d="M35.14,36a5.89,5.89,0,0,1,.09-1.1,1.78,1.78,0,0,1,1.85-1.42A1.68,1.68,0,0,1,39,34.82,5.35,5.35,0,0,1,39,36.06,4.37,4.37,0,0,1,39,37.27a1.74,1.74,0,0,1-1.81,1.28,1.81,1.81,0,0,1-1.95-1.19A5.63,5.63,0,0,1,35.14,36Z"/><path class="b" d="M19.67,42.67a6,6,0,0,0-.09-1.1,1.78,1.78,0,0,0-1.85-1.42,1.68,1.68,0,0,0-1.9,1.36,5.35,5.35,0,0,0-.05,1.24A4.37,4.37,0,0,0,15.84,44a1.74,1.74,0,0,0,1.81,1.28A1.85,1.85,0,0,0,19.58,44,4.8,4.8,0,0,0,19.67,42.67Z"/><path class="b" d="M27.38,42.67a6,6,0,0,0-.08-1.1,1.79,1.79,0,0,0-1.86-1.42,1.7,1.7,0,0,0-1.9,1.36,6,6,0,0,0-.05,1.24A4.78,4.78,0,0,0,23.56,44a1.73,1.73,0,0,0,1.8,1.28A1.87,1.87,0,0,0,27.3,44,4.82,4.82,0,0,0,27.38,42.67Z"/><path class="b" d="M31.27,42.67a6,6,0,0,0-.08-1.1,1.79,1.79,0,0,0-1.86-1.42,1.7,1.7,0,0,0-1.9,1.36,6,6,0,0,0-.05,1.24A4.78,4.78,0,0,0,27.45,44a1.73,1.73,0,0,0,1.8,1.28A1.87,1.87,0,0,0,31.19,44,4.82,4.82,0,0,0,31.27,42.67Z"/><path class="b" d="M19.63,42.67a6,6,0,0,1,.08-1.1,1.78,1.78,0,0,1,1.85-1.42,1.7,1.7,0,0,1,1.91,1.36,6,6,0,0,1,.05,1.24A4.78,4.78,0,0,1,23.45,44a1.73,1.73,0,0,1-1.8,1.28,1.83,1.83,0,0,1-2-1.19A5.65,5.65,0,0,1,19.63,42.67Z"/><path class="b" d="M4.17,42.67a6,6,0,0,0-.08-1.1,1.78,1.78,0,0,0-1.85-1.42A1.7,1.7,0,0,0,.33,41.51a6,6,0,0,0,0,1.24A4.37,4.37,0,0,0,.35,44a1.73,1.73,0,0,0,1.81,1.28A1.85,1.85,0,0,0,4.09,44,4.82,4.82,0,0,0,4.17,42.67Z"/><path class="b" d="M11.89,42.67a6,6,0,0,0-.09-1.1A1.77,1.77,0,0,0,10,40.15a1.7,1.7,0,0,0-1.9,1.36A6,6,0,0,0,8,42.75,4.8,4.8,0,0,0,8.06,44a1.74,1.74,0,0,0,1.81,1.28A1.87,1.87,0,0,0,11.81,44,4.82,4.82,0,0,0,11.89,42.67Z"/><path class="b" d="M15.78,42.67a6,6,0,0,0-.08-1.1,1.79,1.79,0,0,0-1.86-1.42,1.7,1.7,0,0,0-1.9,1.36,6,6,0,0,0,0,1.24A4.36,4.36,0,0,0,12,44a1.72,1.72,0,0,0,1.8,1.28A1.87,1.87,0,0,0,15.7,44,4.82,4.82,0,0,0,15.78,42.67Z"/><path class="b" d="M4.14,42.67a6,6,0,0,1,.08-1.1,1.78,1.78,0,0,1,1.85-1.42A1.7,1.7,0,0,1,8,41.51a6,6,0,0,1,0,1.24A4.37,4.37,0,0,1,8,44a1.73,1.73,0,0,1-1.81,1.28A1.81,1.81,0,0,1,4.2,44.05,5.65,5.65,0,0,1,4.14,42.67Z"/><path class="b" d="M31.25,42.67a6,6,0,0,1,.09-1.1,1.77,1.77,0,0,1,1.85-1.42,1.7,1.7,0,0,1,1.9,1.36,6,6,0,0,1,0,1.24A4.8,4.8,0,0,1,35.08,44a1.74,1.74,0,0,1-1.81,1.28,1.81,1.81,0,0,1-2-1.19A5.63,5.63,0,0,1,31.25,42.67Z"/><path class="b" d="M35.14,42.67a6,6,0,0,1,.09-1.1,1.78,1.78,0,0,1,1.85-1.42A1.68,1.68,0,0,1,39,41.51,5.35,5.35,0,0,1,39,42.75,4.37,4.37,0,0,1,39,44a1.74,1.74,0,0,1-1.81,1.28,1.81,1.81,0,0,1-1.95-1.19A5.63,5.63,0,0,1,35.14,42.67Z"/><path class="c" d="M19.67,49.36a6,6,0,0,0-.09-1.1,1.78,1.78,0,0,0-1.85-1.42,1.68,1.68,0,0,0-1.9,1.37,5.3,5.3,0,0,0-.05,1.24,4.3,4.3,0,0,0,.06,1.2,1.72,1.72,0,0,0,1.81,1.28,1.85,1.85,0,0,0,1.93-1.29A4.8,4.8,0,0,0,19.67,49.36Z"/><path class="c" d="M27.38,49.36a6.1,6.1,0,0,0-.08-1.1,1.79,1.79,0,0,0-1.86-1.42,1.7,1.7,0,0,0-1.9,1.37,5.91,5.91,0,0,0-.05,1.24,4.7,4.7,0,0,0,.07,1.2,1.71,1.71,0,0,0,1.8,1.28,1.87,1.87,0,0,0,1.94-1.29A4.82,4.82,0,0,0,27.38,49.36Z"/><path class="c" d="M31.27,49.36a6.1,6.1,0,0,0-.08-1.1,1.79,1.79,0,0,0-1.86-1.42,1.7,1.7,0,0,0-1.9,1.37,5.91,5.91,0,0,0-.05,1.24,4.7,4.7,0,0,0,.07,1.2,1.71,1.71,0,0,0,1.8,1.28,1.87,1.87,0,0,0,1.94-1.29A4.82,4.82,0,0,0,31.27,49.36Z"/><path class="c" d="M19.63,49.36a6.1,6.1,0,0,1,.08-1.1,1.78,1.78,0,0,1,1.85-1.42,1.7,1.7,0,0,1,1.91,1.37,5.91,5.91,0,0,1,.05,1.24,4.7,4.7,0,0,1-.07,1.2,1.71,1.71,0,0,1-1.8,1.28,1.82,1.82,0,0,1-2-1.18A5.75,5.75,0,0,1,19.63,49.36Z"/><path class="c" d="M4.17,49.36a6.1,6.1,0,0,0-.08-1.1,1.78,1.78,0,0,0-1.85-1.42A1.7,1.7,0,0,0,.33,48.21a6,6,0,0,0,0,1.24,4.3,4.3,0,0,0,.06,1.2,1.71,1.71,0,0,0,1.81,1.28,1.85,1.85,0,0,0,1.93-1.29A4.82,4.82,0,0,0,4.17,49.36Z"/><path class="c" d="M11.89,49.36a6,6,0,0,0-.09-1.1A1.77,1.77,0,0,0,10,46.84a1.7,1.7,0,0,0-1.9,1.37A5.91,5.91,0,0,0,8,49.45a4.72,4.72,0,0,0,.06,1.2,1.72,1.72,0,0,0,1.81,1.28,1.87,1.87,0,0,0,1.94-1.29A4.82,4.82,0,0,0,11.89,49.36Z"/><path class="c" d="M15.78,49.36a6.1,6.1,0,0,0-.08-1.1,1.79,1.79,0,0,0-1.86-1.42,1.7,1.7,0,0,0-1.9,1.37,5.91,5.91,0,0,0,0,1.24,4.29,4.29,0,0,0,.07,1.2,1.7,1.7,0,0,0,1.8,1.28,1.87,1.87,0,0,0,1.94-1.29A4.82,4.82,0,0,0,15.78,49.36Z"/><path class="c" d="M4.14,49.36a6.1,6.1,0,0,1,.08-1.1,1.78,1.78,0,0,1,1.85-1.42A1.7,1.7,0,0,1,8,48.21a6,6,0,0,1,0,1.24A4.3,4.3,0,0,1,8,50.65a1.71,1.71,0,0,1-1.81,1.28A1.81,1.81,0,0,1,4.2,50.75,5.75,5.75,0,0,1,4.14,49.36Z"/><path class="c" d="M31.25,49.36a6,6,0,0,1,.09-1.1,1.77,1.77,0,0,1,1.85-1.42,1.7,1.7,0,0,1,1.9,1.37,5.91,5.91,0,0,1,0,1.24,4.72,4.72,0,0,1-.06,1.2,1.72,1.72,0,0,1-1.81,1.28,1.8,1.8,0,0,1-2-1.18A5.74,5.74,0,0,1,31.25,49.36Z"/><path class="c" d="M35.14,49.36a6,6,0,0,1,.09-1.1,1.78,1.78,0,0,1,1.85-1.42A1.68,1.68,0,0,1,39,48.21,5.3,5.3,0,0,1,39,49.45a4.3,4.3,0,0,1-.06,1.2,1.72,1.72,0,0,1-1.81,1.28,1.8,1.8,0,0,1-1.95-1.18A5.74,5.74,0,0,1,35.14,49.36Z"/><path class="d" d="M19.67,56.05A5.85,5.85,0,0,0,19.58,55a1.78,1.78,0,0,0-1.85-1.43,1.68,1.68,0,0,0-1.9,1.37,5.3,5.3,0,0,0-.05,1.24,4.37,4.37,0,0,0,.06,1.21,1.72,1.72,0,0,0,1.81,1.27,1.85,1.85,0,0,0,1.93-1.29A4.8,4.8,0,0,0,19.67,56.05Z"/><path class="d" d="M27.38,56.05A5.92,5.92,0,0,0,27.3,55a1.79,1.79,0,0,0-1.86-1.43,1.7,1.7,0,0,0-1.9,1.37,5.91,5.91,0,0,0-.05,1.24,4.78,4.78,0,0,0,.07,1.21,1.71,1.71,0,0,0,1.8,1.27,1.87,1.87,0,0,0,1.94-1.29A4.82,4.82,0,0,0,27.38,56.05Z"/><path class="d" d="M31.27,56.05A5.92,5.92,0,0,0,31.19,55a1.79,1.79,0,0,0-1.86-1.43,1.7,1.7,0,0,0-1.9,1.37,5.91,5.91,0,0,0-.05,1.24,4.78,4.78,0,0,0,.07,1.21,1.71,1.71,0,0,0,1.8,1.27,1.87,1.87,0,0,0,1.94-1.29A4.82,4.82,0,0,0,31.27,56.05Z"/><path class="d" d="M19.63,56.05A5.92,5.92,0,0,1,19.71,55a1.79,1.79,0,0,1,1.85-1.43,1.7,1.7,0,0,1,1.91,1.37,5.91,5.91,0,0,1,.05,1.24,4.78,4.78,0,0,1-.07,1.21,1.71,1.71,0,0,1-1.8,1.27,1.82,1.82,0,0,1-2-1.18A5.75,5.75,0,0,1,19.63,56.05Z"/><path class="d" d="M4.17,56.05A5.92,5.92,0,0,0,4.09,55a1.78,1.78,0,0,0-1.85-1.43A1.7,1.7,0,0,0,.33,54.9a6,6,0,0,0,0,1.24,4.37,4.37,0,0,0,.06,1.21,1.71,1.71,0,0,0,1.81,1.27,1.85,1.85,0,0,0,1.93-1.29A4.82,4.82,0,0,0,4.17,56.05Z"/><path class="d" d="M11.89,56.05A5.85,5.85,0,0,0,11.8,55,1.78,1.78,0,0,0,10,53.53a1.7,1.7,0,0,0-1.9,1.37A5.91,5.91,0,0,0,8,56.14a4.8,4.8,0,0,0,.06,1.21,1.72,1.72,0,0,0,1.81,1.27,1.87,1.87,0,0,0,1.94-1.29A4.82,4.82,0,0,0,11.89,56.05Z"/><path class="d" d="M15.78,56.05A5.92,5.92,0,0,0,15.7,55a1.79,1.79,0,0,0-1.86-1.43,1.7,1.7,0,0,0-1.9,1.37,5.91,5.91,0,0,0,0,1.24A4.36,4.36,0,0,0,12,57.35a1.7,1.7,0,0,0,1.8,1.27,1.87,1.87,0,0,0,1.94-1.29A4.82,4.82,0,0,0,15.78,56.05Z"/><path class="d" d="M4.14,56.05A5.92,5.92,0,0,1,4.22,55a1.78,1.78,0,0,1,1.85-1.43A1.7,1.7,0,0,1,8,54.9a6,6,0,0,1,0,1.24A4.37,4.37,0,0,1,8,57.35a1.71,1.71,0,0,1-1.81,1.27A1.81,1.81,0,0,1,4.2,57.44,5.75,5.75,0,0,1,4.14,56.05Z"/><path class="d" d="M31.25,56.05A5.85,5.85,0,0,1,31.34,55a1.78,1.78,0,0,1,1.85-1.43,1.7,1.7,0,0,1,1.9,1.37,5.91,5.91,0,0,1,0,1.24,4.8,4.8,0,0,1-.06,1.21,1.72,1.72,0,0,1-1.81,1.27,1.8,1.8,0,0,1-2-1.18A5.74,5.74,0,0,1,31.25,56.05Z"/><path class="d" d="M35.14,56.05A5.85,5.85,0,0,1,35.23,55a1.78,1.78,0,0,1,1.85-1.43A1.68,1.68,0,0,1,39,54.9,5.3,5.3,0,0,1,39,56.14,4.37,4.37,0,0,1,39,57.35a1.72,1.72,0,0,1-1.81,1.27,1.8,1.8,0,0,1-1.95-1.18A5.74,5.74,0,0,1,35.14,56.05Z"/><path class="b" d="M19.89,9.21a6,6,0,0,0-.09-1.1A1.78,1.78,0,0,0,18,6.69a1.68,1.68,0,0,0-1.9,1.36A5.41,5.41,0,0,0,16,9.3a4.32,4.32,0,0,0,.06,1.2,1.73,1.73,0,0,0,1.81,1.28,1.85,1.85,0,0,0,1.93-1.29A4.8,4.8,0,0,0,19.89,9.21Z"/><path class="b" d="M27.6,9.21a6.1,6.1,0,0,0-.08-1.1,1.79,1.79,0,0,0-1.86-1.42,1.7,1.7,0,0,0-1.9,1.36,6,6,0,0,0-.05,1.25,4.73,4.73,0,0,0,.07,1.2,1.72,1.72,0,0,0,1.8,1.28,1.87,1.87,0,0,0,1.94-1.29A4.82,4.82,0,0,0,27.6,9.21Z"/><path class="b" d="M31.49,9.21a6.1,6.1,0,0,0-.08-1.1,1.79,1.79,0,0,0-1.86-1.42,1.7,1.7,0,0,0-1.9,1.36,6,6,0,0,0,0,1.25,4.73,4.73,0,0,0,.07,1.2,1.72,1.72,0,0,0,1.8,1.28,1.87,1.87,0,0,0,1.94-1.29A4.82,4.82,0,0,0,31.49,9.21Z"/><path class="b" d="M19.85,9.21a6.1,6.1,0,0,1,.08-1.1,1.78,1.78,0,0,1,1.85-1.42,1.7,1.7,0,0,1,1.91,1.36,5.48,5.48,0,0,1,0,1.25,4.32,4.32,0,0,1-.06,1.2,1.72,1.72,0,0,1-1.8,1.28,1.82,1.82,0,0,1-2-1.19A5.65,5.65,0,0,1,19.85,9.21Z"/><path class="b" d="M4.39,9.21a6.1,6.1,0,0,0-.08-1.1A1.78,1.78,0,0,0,2.46,6.69,1.7,1.7,0,0,0,.55,8.05a6.12,6.12,0,0,0,0,1.25,4.32,4.32,0,0,0,.06,1.2,1.72,1.72,0,0,0,1.8,1.28,1.86,1.86,0,0,0,1.94-1.29A4.82,4.82,0,0,0,4.39,9.21Z"/><path class="b" d="M12.11,9.21A6,6,0,0,0,12,8.11a1.77,1.77,0,0,0-1.85-1.42,1.7,1.7,0,0,0-1.9,1.36,6,6,0,0,0,0,1.25,4.74,4.74,0,0,0,.06,1.2,1.73,1.73,0,0,0,1.81,1.28A1.87,1.87,0,0,0,12,10.49,4.82,4.82,0,0,0,12.11,9.21Z"/><path class="b" d="M16,9.21a5.26,5.26,0,0,0-.09-1.1,1.77,1.77,0,0,0-1.85-1.42,1.7,1.7,0,0,0-1.9,1.36,6,6,0,0,0-.05,1.25,4.31,4.31,0,0,0,.07,1.2A1.71,1.71,0,0,0,14,11.78a1.87,1.87,0,0,0,1.94-1.29A4.82,4.82,0,0,0,16,9.21Z"/><path class="b" d="M4.35,9.21a6,6,0,0,1,.09-1.1A1.78,1.78,0,0,1,6.29,6.69,1.7,1.7,0,0,1,8.2,8.05a6.12,6.12,0,0,1,0,1.25,4.32,4.32,0,0,1-.06,1.2,1.72,1.72,0,0,1-1.81,1.28,1.81,1.81,0,0,1-1.95-1.19A5.63,5.63,0,0,1,4.35,9.21Z"/><path class="b" d="M31.47,9.21a6,6,0,0,1,.09-1.1,1.77,1.77,0,0,1,1.85-1.42,1.7,1.7,0,0,1,1.9,1.36,6,6,0,0,1,0,1.25,4.74,4.74,0,0,1-.06,1.2,1.73,1.73,0,0,1-1.81,1.28,1.81,1.81,0,0,1-2-1.19A5.63,5.63,0,0,1,31.47,9.21Z"/><path class="b" d="M35.36,9.21a6,6,0,0,1,.09-1.1A1.78,1.78,0,0,1,37.3,6.69a1.68,1.68,0,0,1,1.9,1.36,5.41,5.41,0,0,1,0,1.25,4.32,4.32,0,0,1-.06,1.2,1.73,1.73,0,0,1-1.81,1.28,1.81,1.81,0,0,1-2-1.19A5.63,5.63,0,0,1,35.36,9.21Z"/><path class="c" d="M19.89,15.9a5.85,5.85,0,0,0-.09-1.09A1.77,1.77,0,0,0,18,13.38a1.68,1.68,0,0,0-1.9,1.37A5.3,5.3,0,0,0,16,16a4.3,4.3,0,0,0,.06,1.2,1.72,1.72,0,0,0,1.81,1.28,1.85,1.85,0,0,0,1.93-1.29A4.8,4.8,0,0,0,19.89,15.9Z"/><path class="c" d="M27.6,15.9a5.92,5.92,0,0,0-.08-1.09,1.78,1.78,0,0,0-1.86-1.43,1.7,1.7,0,0,0-1.9,1.37A5.91,5.91,0,0,0,23.71,16a4.7,4.7,0,0,0,.07,1.2,1.71,1.71,0,0,0,1.8,1.28,1.87,1.87,0,0,0,1.94-1.29A4.82,4.82,0,0,0,27.6,15.9Z"/><path class="c" d="M31.49,15.9a5.92,5.92,0,0,0-.08-1.09,1.78,1.78,0,0,0-1.86-1.43,1.7,1.7,0,0,0-1.9,1.37,5.91,5.91,0,0,0,0,1.24,4.7,4.7,0,0,0,.07,1.2,1.71,1.71,0,0,0,1.8,1.28,1.87,1.87,0,0,0,1.94-1.29A4.82,4.82,0,0,0,31.49,15.9Z"/><path class="c" d="M19.85,15.9a5.92,5.92,0,0,1,.08-1.09,1.78,1.78,0,0,1,1.85-1.43,1.7,1.7,0,0,1,1.91,1.37,5.36,5.36,0,0,1,0,1.24,4.3,4.3,0,0,1-.06,1.2,1.71,1.71,0,0,1-1.8,1.28,1.81,1.81,0,0,1-2-1.18A5.75,5.75,0,0,1,19.85,15.9Z"/><path class="c" d="M4.39,15.9a5.92,5.92,0,0,0-.08-1.09,1.78,1.78,0,0,0-1.85-1.43A1.7,1.7,0,0,0,.55,14.75,6,6,0,0,0,.51,16a4.3,4.3,0,0,0,.06,1.2,1.71,1.71,0,0,0,1.8,1.28,1.86,1.86,0,0,0,1.94-1.29A4.82,4.82,0,0,0,4.39,15.9Z"/><path class="c" d="M12.11,15.9A5.85,5.85,0,0,0,12,14.81a1.77,1.77,0,0,0-1.85-1.43,1.7,1.7,0,0,0-1.9,1.37,5.91,5.91,0,0,0,0,1.24,4.72,4.72,0,0,0,.06,1.2,1.72,1.72,0,0,0,1.81,1.28A1.87,1.87,0,0,0,12,17.18,4.82,4.82,0,0,0,12.11,15.9Z"/><path class="c" d="M16,15.9a5.11,5.11,0,0,0-.09-1.09,1.77,1.77,0,0,0-1.85-1.43,1.7,1.7,0,0,0-1.9,1.37A5.91,5.91,0,0,0,12.11,16a4.29,4.29,0,0,0,.07,1.2A1.7,1.7,0,0,0,14,18.47a1.87,1.87,0,0,0,1.94-1.29A4.82,4.82,0,0,0,16,15.9Z"/><path class="c" d="M4.35,15.9a5.85,5.85,0,0,1,.09-1.09,1.77,1.77,0,0,1,1.85-1.43A1.7,1.7,0,0,1,8.2,14.75a6,6,0,0,1,0,1.24,4.3,4.3,0,0,1-.06,1.2,1.71,1.71,0,0,1-1.81,1.28,1.81,1.81,0,0,1-1.95-1.18A5.74,5.74,0,0,1,4.35,15.9Z"/><path class="c" d="M31.47,15.9a5.85,5.85,0,0,1,.09-1.09,1.77,1.77,0,0,1,1.85-1.43,1.7,1.7,0,0,1,1.9,1.37,5.91,5.91,0,0,1,0,1.24,4.72,4.72,0,0,1-.06,1.2,1.72,1.72,0,0,1-1.81,1.28,1.8,1.8,0,0,1-2-1.18A5.74,5.74,0,0,1,31.47,15.9Z"/><path class="c" d="M35.36,15.9a5.85,5.85,0,0,1,.09-1.09,1.77,1.77,0,0,1,1.85-1.43,1.68,1.68,0,0,1,1.9,1.37,5.3,5.3,0,0,1,0,1.24,4.3,4.3,0,0,1-.06,1.2,1.72,1.72,0,0,1-1.81,1.28,1.8,1.8,0,0,1-2-1.18A5.74,5.74,0,0,1,35.36,15.9Z"/><path class="d" d="M19.89,22.59a5.85,5.85,0,0,0-.09-1.09A1.78,1.78,0,0,0,18,20.08a1.68,1.68,0,0,0-1.9,1.36A5.3,5.3,0,0,0,16,22.68a4.37,4.37,0,0,0,.06,1.21,1.74,1.74,0,0,0,1.81,1.28,1.87,1.87,0,0,0,1.93-1.3A4.8,4.8,0,0,0,19.89,22.59Z"/><path class="d" d="M27.6,22.59a5.92,5.92,0,0,0-.08-1.09,1.79,1.79,0,0,0-1.86-1.42,1.69,1.69,0,0,0-1.9,1.36,5.91,5.91,0,0,0-.05,1.24,4.78,4.78,0,0,0,.07,1.21,1.73,1.73,0,0,0,1.8,1.28,1.89,1.89,0,0,0,1.94-1.3A4.82,4.82,0,0,0,27.6,22.59Z"/><path class="d" d="M31.49,22.59a5.92,5.92,0,0,0-.08-1.09,1.79,1.79,0,0,0-1.86-1.42,1.69,1.69,0,0,0-1.9,1.36,5.91,5.91,0,0,0,0,1.24,4.78,4.78,0,0,0,.07,1.21,1.73,1.73,0,0,0,1.8,1.28,1.89,1.89,0,0,0,1.94-1.3A4.82,4.82,0,0,0,31.49,22.59Z"/><path class="d" d="M19.85,22.59a5.92,5.92,0,0,1,.08-1.09,1.78,1.78,0,0,1,1.85-1.42,1.69,1.69,0,0,1,1.91,1.36,5.36,5.36,0,0,1,0,1.24,4.37,4.37,0,0,1-.06,1.21,1.73,1.73,0,0,1-1.8,1.28,1.83,1.83,0,0,1-2-1.19A5.73,5.73,0,0,1,19.85,22.59Z"/><path class="d" d="M4.39,22.59a5.92,5.92,0,0,0-.08-1.09,1.78,1.78,0,0,0-1.85-1.42A1.69,1.69,0,0,0,.55,21.44a6,6,0,0,0,0,1.24,4.37,4.37,0,0,0,.06,1.21,1.73,1.73,0,0,0,1.8,1.28,1.88,1.88,0,0,0,1.94-1.3A4.82,4.82,0,0,0,4.39,22.59Z"/><path class="d" d="M12.11,22.59A5.85,5.85,0,0,0,12,21.5a1.77,1.77,0,0,0-1.85-1.42,1.69,1.69,0,0,0-1.9,1.36,5.91,5.91,0,0,0,0,1.24,4.8,4.8,0,0,0,.06,1.21,1.74,1.74,0,0,0,1.81,1.28A1.89,1.89,0,0,0,12,23.87,4.82,4.82,0,0,0,12.11,22.59Z"/><path class="d" d="M16,22.59a5.11,5.11,0,0,0-.09-1.09,1.77,1.77,0,0,0-1.85-1.42,1.69,1.69,0,0,0-1.9,1.36,5.91,5.91,0,0,0-.05,1.24,4.36,4.36,0,0,0,.07,1.21A1.72,1.72,0,0,0,14,25.17a1.89,1.89,0,0,0,1.94-1.3A4.82,4.82,0,0,0,16,22.59Z"/><path class="d" d="M4.35,22.59a5.85,5.85,0,0,1,.09-1.09,1.78,1.78,0,0,1,1.85-1.42A1.69,1.69,0,0,1,8.2,21.44a6,6,0,0,1,0,1.24,4.37,4.37,0,0,1-.06,1.21,1.73,1.73,0,0,1-1.81,1.28A1.83,1.83,0,0,1,4.42,24,5.71,5.71,0,0,1,4.35,22.59Z"/><path class="d" d="M31.47,22.59a5.85,5.85,0,0,1,.09-1.09,1.77,1.77,0,0,1,1.85-1.42,1.69,1.69,0,0,1,1.9,1.36,5.91,5.91,0,0,1,0,1.24,4.8,4.8,0,0,1-.06,1.21,1.74,1.74,0,0,1-1.81,1.28,1.82,1.82,0,0,1-2-1.19A5.71,5.71,0,0,1,31.47,22.59Z"/><path class="d" d="M35.36,22.59a5.85,5.85,0,0,1,.09-1.09,1.78,1.78,0,0,1,1.85-1.42,1.68,1.68,0,0,1,1.9,1.36,5.3,5.3,0,0,1,0,1.24,4.37,4.37,0,0,1-.06,1.21,1.74,1.74,0,0,1-1.81,1.28,1.82,1.82,0,0,1-2-1.19A5.71,5.71,0,0,1,35.36,22.59Z"/><path class="e" d="M33.92,62.74a5.85,5.85,0,0,0-.09-1.09A1.78,1.78,0,0,0,32,60.23a1.68,1.68,0,0,0-1.9,1.36,5.33,5.33,0,0,0,0,1.24A4.37,4.37,0,0,0,30.09,64a1.74,1.74,0,0,0,1.81,1.28A1.86,1.86,0,0,0,33.83,64,4.88,4.88,0,0,0,33.92,62.74Z"/><path class="e" d="M41.63,62.74a5.92,5.92,0,0,0-.08-1.09,1.79,1.79,0,0,0-1.86-1.42,1.69,1.69,0,0,0-1.9,1.36,5.94,5.94,0,0,0,0,1.24A4.78,4.78,0,0,0,37.81,64a1.73,1.73,0,0,0,1.8,1.28A1.88,1.88,0,0,0,41.55,64,4.89,4.89,0,0,0,41.63,62.74Z"/><path class="e" d="M45.52,62.74a5.92,5.92,0,0,0-.08-1.09,1.79,1.79,0,0,0-1.86-1.42,1.69,1.69,0,0,0-1.9,1.36,5.94,5.94,0,0,0,0,1.24A4.78,4.78,0,0,0,41.7,64a1.73,1.73,0,0,0,1.8,1.28A1.88,1.88,0,0,0,45.44,64,4.89,4.89,0,0,0,45.52,62.74Z"/><path class="e" d="M33.88,62.74A5.92,5.92,0,0,1,34,61.65a1.79,1.79,0,0,1,1.86-1.42,1.69,1.69,0,0,1,1.9,1.36,5.94,5.94,0,0,1,.05,1.24A4.78,4.78,0,0,1,37.7,64a1.73,1.73,0,0,1-1.8,1.28,1.84,1.84,0,0,1-2-1.19A6.25,6.25,0,0,1,33.88,62.74Z"/><path class="e" d="M18.42,62.74a5.92,5.92,0,0,0-.08-1.09,1.78,1.78,0,0,0-1.85-1.42,1.69,1.69,0,0,0-1.91,1.36,6,6,0,0,0,0,1.24A4.37,4.37,0,0,0,14.6,64a1.73,1.73,0,0,0,1.81,1.28A1.86,1.86,0,0,0,18.34,64,4.89,4.89,0,0,0,18.42,62.74Z"/><path class="e" d="M26.14,62.74a5.11,5.11,0,0,0-.09-1.09,1.77,1.77,0,0,0-1.85-1.42,1.69,1.69,0,0,0-1.9,1.36,5.94,5.94,0,0,0-.05,1.24A4.36,4.36,0,0,0,22.32,64a1.72,1.72,0,0,0,1.8,1.28A1.88,1.88,0,0,0,26.06,64,4.89,4.89,0,0,0,26.14,62.74Z"/><path class="e" d="M30,62.74A5.92,5.92,0,0,0,30,61.65a1.79,1.79,0,0,0-1.86-1.42,1.69,1.69,0,0,0-1.9,1.36,5.94,5.94,0,0,0-.05,1.24A4.78,4.78,0,0,0,26.21,64,1.73,1.73,0,0,0,28,65.32,1.88,1.88,0,0,0,30,64,4.89,4.89,0,0,0,30,62.74Z"/><path class="e" d="M18.39,62.74a5.92,5.92,0,0,1,.08-1.09,1.78,1.78,0,0,1,1.85-1.42,1.69,1.69,0,0,1,1.91,1.36,6,6,0,0,1,0,1.24A4.37,4.37,0,0,1,22.21,64a1.73,1.73,0,0,1-1.81,1.28,1.83,1.83,0,0,1-1.95-1.19A5.7,5.7,0,0,1,18.39,62.74Z"/><path class="e" d="M45.55,62.74a5.92,5.92,0,0,1,.08-1.09,1.79,1.79,0,0,1,1.86-1.42,1.69,1.69,0,0,1,1.9,1.36,5.94,5.94,0,0,1,0,1.24A4.36,4.36,0,0,1,49.37,64a1.72,1.72,0,0,1-1.8,1.28,1.82,1.82,0,0,1-2-1.19A5.68,5.68,0,0,1,45.55,62.74Z"/><path class="e" d="M.53,62.74a5.92,5.92,0,0,1,.08-1.09,1.78,1.78,0,0,1,1.85-1.42,1.69,1.69,0,0,1,1.91,1.36,6,6,0,0,1,0,1.24A4.37,4.37,0,0,1,4.35,64a1.73,1.73,0,0,1-1.81,1.28A1.83,1.83,0,0,1,.59,64.13,5.7,5.7,0,0,1,.53,62.74Z"/><path class="e" d="M33.92,29.28a5.85,5.85,0,0,0-.09-1.09A1.78,1.78,0,0,0,32,26.77a1.68,1.68,0,0,0-1.9,1.36,5.33,5.33,0,0,0,0,1.24,4.37,4.37,0,0,0,.06,1.21,1.74,1.74,0,0,0,1.81,1.28,1.86,1.86,0,0,0,1.93-1.29A4.88,4.88,0,0,0,33.92,29.28Z"/><path class="e" d="M41.63,29.28a5.92,5.92,0,0,0-.08-1.09,1.79,1.79,0,0,0-1.86-1.42,1.69,1.69,0,0,0-1.9,1.36,5.94,5.94,0,0,0,0,1.24,4.78,4.78,0,0,0,.07,1.21,1.73,1.73,0,0,0,1.8,1.28,1.88,1.88,0,0,0,1.94-1.29A4.89,4.89,0,0,0,41.63,29.28Z"/><path class="e" d="M45.52,29.28a5.92,5.92,0,0,0-.08-1.09,1.79,1.79,0,0,0-1.86-1.42,1.69,1.69,0,0,0-1.9,1.36,5.94,5.94,0,0,0,0,1.24,4.78,4.78,0,0,0,.07,1.21,1.73,1.73,0,0,0,1.8,1.28,1.88,1.88,0,0,0,1.94-1.29A4.89,4.89,0,0,0,45.52,29.28Z"/><path class="e" d="M33.88,29.28A5.92,5.92,0,0,1,34,28.19a1.79,1.79,0,0,1,1.86-1.42,1.69,1.69,0,0,1,1.9,1.36,5.94,5.94,0,0,1,.05,1.24,4.78,4.78,0,0,1-.07,1.21,1.73,1.73,0,0,1-1.8,1.28,1.84,1.84,0,0,1-2-1.19A6.25,6.25,0,0,1,33.88,29.28Z"/><path class="e" d="M18.42,29.28a5.92,5.92,0,0,0-.08-1.09,1.78,1.78,0,0,0-1.85-1.42,1.69,1.69,0,0,0-1.91,1.36,6,6,0,0,0,0,1.24,4.37,4.37,0,0,0,.06,1.21,1.73,1.73,0,0,0,1.81,1.28,1.86,1.86,0,0,0,1.93-1.29A4.89,4.89,0,0,0,18.42,29.28Z"/><path class="e" d="M26.14,29.28a5.11,5.11,0,0,0-.09-1.09,1.77,1.77,0,0,0-1.85-1.42,1.69,1.69,0,0,0-1.9,1.36,5.94,5.94,0,0,0-.05,1.24,4.36,4.36,0,0,0,.07,1.21,1.72,1.72,0,0,0,1.8,1.28,1.88,1.88,0,0,0,1.94-1.29A4.89,4.89,0,0,0,26.14,29.28Z"/><path class="e" d="M30,29.28A5.92,5.92,0,0,0,30,28.19a1.79,1.79,0,0,0-1.86-1.42,1.69,1.69,0,0,0-1.9,1.36,5.94,5.94,0,0,0-.05,1.24,4.78,4.78,0,0,0,.07,1.21A1.73,1.73,0,0,0,28,31.86,1.88,1.88,0,0,0,30,30.57,4.89,4.89,0,0,0,30,29.28Z"/><path class="e" d="M18.39,29.28a5.92,5.92,0,0,1,.08-1.09,1.78,1.78,0,0,1,1.85-1.42,1.69,1.69,0,0,1,1.91,1.36,6,6,0,0,1,0,1.24,4.37,4.37,0,0,1-.06,1.21,1.73,1.73,0,0,1-1.81,1.28,1.83,1.83,0,0,1-1.95-1.19A5.7,5.7,0,0,1,18.39,29.28Z"/><path class="e" d="M45.55,29.28a5.92,5.92,0,0,1,.08-1.09,1.79,1.79,0,0,1,1.86-1.42,1.69,1.69,0,0,1,1.9,1.36,5.94,5.94,0,0,1,0,1.24,4.36,4.36,0,0,1-.07,1.21,1.72,1.72,0,0,1-1.8,1.28,1.82,1.82,0,0,1-2-1.19A5.68,5.68,0,0,1,45.55,29.28Z"/><path class="e" d="M0,29.28a5.92,5.92,0,0,1,.08-1.09A1.79,1.79,0,0,1,2,26.77a1.69,1.69,0,0,1,1.9,1.36,5.94,5.94,0,0,1,0,1.24,4.78,4.78,0,0,1-.07,1.21A1.73,1.73,0,0,1,2,31.86,1.82,1.82,0,0,1,.08,30.67,5.68,5.68,0,0,1,0,29.28Z"/><path class="a" d="M34.36,2.52a6,6,0,0,0-.08-1.1A1.78,1.78,0,0,0,32.43,0a1.7,1.7,0,0,0-1.91,1.36,6,6,0,0,0,0,1.24,4.37,4.37,0,0,0,.06,1.21,1.73,1.73,0,0,0,1.8,1.28A1.86,1.86,0,0,0,34.28,3.8,4.82,4.82,0,0,0,34.36,2.52Z"/><path class="a" d="M42.08,2.52A6,6,0,0,0,42,1.42,1.77,1.77,0,0,0,40.14,0a1.7,1.7,0,0,0-1.9,1.36,6,6,0,0,0-.05,1.24,4.8,4.8,0,0,0,.06,1.21,1.74,1.74,0,0,0,1.81,1.28A1.87,1.87,0,0,0,42,3.8,4.82,4.82,0,0,0,42.08,2.52Z"/><path class="a" d="M46,2.52a6,6,0,0,0-.08-1.1A1.79,1.79,0,0,0,44,0a1.7,1.7,0,0,0-1.9,1.36,6,6,0,0,0-.05,1.24,4.36,4.36,0,0,0,.07,1.21A1.72,1.72,0,0,0,44,5.09,1.87,1.87,0,0,0,45.89,3.8,4.82,4.82,0,0,0,46,2.52Z"/><path class="a" d="M34.32,2.52a6,6,0,0,1,.09-1.1A1.78,1.78,0,0,1,36.26,0a1.7,1.7,0,0,1,1.91,1.36,6,6,0,0,1,0,1.24,4.37,4.37,0,0,1-.06,1.21,1.73,1.73,0,0,1-1.81,1.28,1.81,1.81,0,0,1-2-1.19A5.63,5.63,0,0,1,34.32,2.52Z"/><path class="a" d="M18.87,2.52a6,6,0,0,0-.08-1.1A1.79,1.79,0,0,0,16.93,0,1.7,1.7,0,0,0,15,1.36,6,6,0,0,0,15,2.6a4.78,4.78,0,0,0,.07,1.21,1.73,1.73,0,0,0,1.8,1.28A1.87,1.87,0,0,0,18.79,3.8,4.82,4.82,0,0,0,18.87,2.52Z"/><path class="a" d="M26.59,2.52a6,6,0,0,0-.09-1.1A1.78,1.78,0,0,0,24.65,0a1.68,1.68,0,0,0-1.9,1.36A5.35,5.35,0,0,0,22.7,2.6a4.37,4.37,0,0,0,.06,1.21,1.74,1.74,0,0,0,1.81,1.28A1.85,1.85,0,0,0,26.5,3.8,4.8,4.8,0,0,0,26.59,2.52Z"/><path class="a" d="M30.48,2.52a6,6,0,0,0-.09-1.1A1.78,1.78,0,0,0,28.54,0a1.68,1.68,0,0,0-1.9,1.36,5.35,5.35,0,0,0-.05,1.24,4.37,4.37,0,0,0,.06,1.21,1.74,1.74,0,0,0,1.81,1.28A1.85,1.85,0,0,0,30.39,3.8,4.8,4.8,0,0,0,30.48,2.52Z"/><path class="a" d="M18.83,2.52a6,6,0,0,1,.09-1.1A1.78,1.78,0,0,1,20.77,0a1.68,1.68,0,0,1,1.9,1.36,5.35,5.35,0,0,1,0,1.24,4.37,4.37,0,0,1-.06,1.21,1.74,1.74,0,0,1-1.81,1.28,1.81,1.81,0,0,1-2-1.19A5.63,5.63,0,0,1,18.83,2.52Z"/><path class="a" d="M46,2.52a6,6,0,0,1,.08-1.1A1.79,1.79,0,0,1,47.94,0a1.7,1.7,0,0,1,1.9,1.36,6,6,0,0,1,0,1.24,4.78,4.78,0,0,1-.07,1.21A1.73,1.73,0,0,1,48,5.09a1.81,1.81,0,0,1-2-1.19A5.63,5.63,0,0,1,46,2.52Z"/><path class="a" d="M.35,2.52a6,6,0,0,1,.09-1.1A1.78,1.78,0,0,1,2.29,0,1.7,1.7,0,0,1,4.2,1.36a6,6,0,0,1,0,1.24,4.37,4.37,0,0,1-.06,1.21A1.74,1.74,0,0,1,2.37,5.09,1.81,1.81,0,0,1,.42,3.9,5.63,5.63,0,0,1,.35,2.52Z"/></svg>