<svg xmlns="http://www.w3.org/2000/svg" width="64.61" height="65.32" viewBox="0 0 64.61 65.32"><defs><style>.a{fill:#86aca8;}.b{fill:#ffd69f;}.c{fill:#eb666a;}.d{fill:#fbf175;}.e{fill:#889bcf;}</style></defs><title>Asset 96</title><path class="a" d="M45.39,56.07a5.85,5.85,0,0,1-.09,1.09,1.78,1.78,0,0,1-1.85,1.42,1.68,1.68,0,0,1-1.9-1.36,5.35,5.35,0,0,1,0-1.24,4.37,4.37,0,0,1,.06-1.21,1.74,1.74,0,0,1,1.81-1.28,1.86,1.86,0,0,1,1.93,1.29A4.88,4.88,0,0,1,45.39,56.07Z"/><path class="a" d="M53.1,56.07A5.92,5.92,0,0,1,53,57.16a1.79,1.79,0,0,1-1.86,1.42,1.69,1.69,0,0,1-1.9-1.36,6,6,0,0,1,0-1.24,4.78,4.78,0,0,1,.07-1.21,1.73,1.73,0,0,1,1.8-1.28A1.88,1.88,0,0,1,53,54.78,4.89,4.89,0,0,1,53.1,56.07Z"/><path class="a" d="M57,56.07a5.92,5.92,0,0,1-.08,1.09,1.79,1.79,0,0,1-1.86,1.42,1.69,1.69,0,0,1-1.9-1.36,6,6,0,0,1,0-1.24,4.78,4.78,0,0,1,.07-1.21A1.73,1.73,0,0,1,55,53.49a1.88,1.88,0,0,1,1.94,1.29A4.89,4.89,0,0,1,57,56.07Z"/><path class="a" d="M45.35,56.09a6,6,0,0,0,.08,1.1,1.79,1.79,0,0,0,1.86,1.42,1.7,1.7,0,0,0,1.9-1.36A6,6,0,0,0,49.24,56a4.78,4.78,0,0,0-.07-1.21,1.73,1.73,0,0,0-1.8-1.28,1.83,1.83,0,0,0-2,1.19A6.19,6.19,0,0,0,45.35,56.09Z"/><path class="a" d="M29.89,56.07a5.92,5.92,0,0,1-.08,1.09A1.78,1.78,0,0,1,28,58.58a1.69,1.69,0,0,1-1.91-1.36A6,6,0,0,1,26,56a4.37,4.37,0,0,1,.06-1.21,1.73,1.73,0,0,1,1.81-1.28,1.86,1.86,0,0,1,1.93,1.29A4.89,4.89,0,0,1,29.89,56.07Z"/><path class="a" d="M37.61,56.07a5.11,5.11,0,0,1-.09,1.09,1.77,1.77,0,0,1-1.85,1.42,1.69,1.69,0,0,1-1.9-1.36A6,6,0,0,1,33.72,56a4.36,4.36,0,0,1,.07-1.21,1.72,1.72,0,0,1,1.8-1.28,1.88,1.88,0,0,1,1.94,1.29A4.89,4.89,0,0,1,37.61,56.07Z"/><path class="a" d="M41.5,56.07a5.92,5.92,0,0,1-.08,1.09,1.79,1.79,0,0,1-1.86,1.42,1.69,1.69,0,0,1-1.9-1.36,6,6,0,0,1,0-1.24,4.78,4.78,0,0,1,.07-1.21,1.73,1.73,0,0,1,1.8-1.28,1.88,1.88,0,0,1,1.94,1.29A4.89,4.89,0,0,1,41.5,56.07Z"/><path class="a" d="M29.86,56.09a6,6,0,0,0,.08,1.1,1.78,1.78,0,0,0,1.85,1.42,1.7,1.7,0,0,0,1.91-1.36,6,6,0,0,0,0-1.24,4.37,4.37,0,0,0-.06-1.21,1.73,1.73,0,0,0-1.81-1.28,1.81,1.81,0,0,0-1.95,1.19A5.65,5.65,0,0,0,29.86,56.09Z"/><path class="a" d="M57,56.09a6,6,0,0,0,.08,1.1A1.79,1.79,0,0,0,59,58.61a1.7,1.7,0,0,0,1.9-1.36,6,6,0,0,0,0-1.24,4.36,4.36,0,0,0-.07-1.21A1.72,1.72,0,0,0,59,53.52a1.81,1.81,0,0,0-1.95,1.19A5.63,5.63,0,0,0,57,56.09Z"/><path class="a" d="M9,56.08a5.85,5.85,0,0,0,.09,1.09,1.78,1.78,0,0,0,1.85,1.43,1.68,1.68,0,0,0,1.9-1.37A5.3,5.3,0,0,0,12.89,56a4.37,4.37,0,0,0-.06-1.21A1.72,1.72,0,0,0,11,53.51a1.81,1.81,0,0,0-1.95,1.18A5.74,5.74,0,0,0,9,56.08Z"/><path class="b" d="M49.08,49.38a6.1,6.1,0,0,1-.08,1.1,1.78,1.78,0,0,1-1.85,1.42,1.7,1.7,0,0,1-1.91-1.36,6,6,0,0,1-.05-1.25,4.7,4.7,0,0,1,.07-1.2,1.72,1.72,0,0,1,1.8-1.28A1.87,1.87,0,0,1,49,48.1,4.82,4.82,0,0,1,49.08,49.38Z"/><path class="b" d="M56.8,49.38a6,6,0,0,1-.09,1.1,1.78,1.78,0,0,1-1.85,1.42A1.68,1.68,0,0,1,53,50.54a5.41,5.41,0,0,1-.05-1.25,4.3,4.3,0,0,1,.06-1.2,1.73,1.73,0,0,1,1.81-1.28,1.85,1.85,0,0,1,1.93,1.29A4.8,4.8,0,0,1,56.8,49.38Z"/><path class="b" d="M60.69,49.38a6,6,0,0,1-.09,1.1,1.77,1.77,0,0,1-1.85,1.42,1.7,1.7,0,0,1-1.9-1.36,6,6,0,0,1-.05-1.25,4.72,4.72,0,0,1,.06-1.2,1.73,1.73,0,0,1,1.81-1.28,1.87,1.87,0,0,1,1.94,1.29A4.82,4.82,0,0,1,60.69,49.38Z"/><path class="b" d="M49,49.41a5.85,5.85,0,0,0,.09,1.09A1.78,1.78,0,0,0,51,51.93a1.68,1.68,0,0,0,1.9-1.37,5.3,5.3,0,0,0,0-1.24,4.39,4.39,0,0,0-.06-1.21,1.72,1.72,0,0,0-1.81-1.27,1.81,1.81,0,0,0-2,1.18A5.74,5.74,0,0,0,49,49.41Z"/><path class="b" d="M33.59,49.38a6.1,6.1,0,0,1-.08,1.1,1.79,1.79,0,0,1-1.86,1.42,1.7,1.7,0,0,1-1.9-1.36,6,6,0,0,1-.05-1.25,4.7,4.7,0,0,1,.07-1.2,1.72,1.72,0,0,1,1.8-1.28,1.87,1.87,0,0,1,1.94,1.29A4.82,4.82,0,0,1,33.59,49.38Z"/><path class="b" d="M41.3,49.38a6.1,6.1,0,0,1-.08,1.1,1.78,1.78,0,0,1-1.85,1.42,1.7,1.7,0,0,1-1.91-1.36,6.12,6.12,0,0,1,0-1.25,4.3,4.3,0,0,1,.06-1.2,1.72,1.72,0,0,1,1.81-1.28,1.85,1.85,0,0,1,1.93,1.29A4.82,4.82,0,0,1,41.3,49.38Z"/><path class="b" d="M45.2,49.38a6,6,0,0,1-.09,1.1,1.78,1.78,0,0,1-1.85,1.42,1.7,1.7,0,0,1-1.91-1.36,6.12,6.12,0,0,1,0-1.25,4.3,4.3,0,0,1,.06-1.2,1.73,1.73,0,0,1,1.81-1.28,1.85,1.85,0,0,1,1.93,1.29A4.8,4.8,0,0,1,45.2,49.38Z"/><path class="b" d="M33.55,49.41a5.11,5.11,0,0,0,.09,1.09,1.78,1.78,0,0,0,1.85,1.43,1.7,1.7,0,0,0,1.9-1.37,5.91,5.91,0,0,0,0-1.24,4.39,4.39,0,0,0-.07-1.21,1.7,1.7,0,0,0-1.8-1.27,1.8,1.8,0,0,0-2,1.18A5.74,5.74,0,0,0,33.55,49.41Z"/><path class="b" d="M60.72,49.41a5.92,5.92,0,0,0,.08,1.09,1.79,1.79,0,0,0,1.85,1.43,1.7,1.7,0,0,0,1.91-1.37,5.91,5.91,0,0,0,0-1.24,4.81,4.81,0,0,0-.07-1.21,1.71,1.71,0,0,0-1.8-1.27,1.82,1.82,0,0,0-2,1.18A5.75,5.75,0,0,0,60.72,49.41Z"/><path class="b" d="M5.82,49.4a5.11,5.11,0,0,0,.09,1.09,1.77,1.77,0,0,0,1.85,1.42,1.69,1.69,0,0,0,1.9-1.36,5.94,5.94,0,0,0,.05-1.24,4.36,4.36,0,0,0-.07-1.21,1.72,1.72,0,0,0-1.8-1.28A1.82,1.82,0,0,0,5.89,48,5.68,5.68,0,0,0,5.82,49.4Z"/><path class="b" d="M19.39,16a5.15,5.15,0,0,1-.09,1.1,1.77,1.77,0,0,1-1.85,1.42,1.69,1.69,0,0,1-1.9-1.36,6,6,0,0,1-.05-1.24,4.36,4.36,0,0,1,.07-1.21,1.72,1.72,0,0,1,1.8-1.28,1.87,1.87,0,0,1,1.94,1.29A4.82,4.82,0,0,1,19.39,16Z"/><path class="b" d="M27.1,16a6,6,0,0,1-.08,1.1,1.79,1.79,0,0,1-1.86,1.42,1.69,1.69,0,0,1-1.9-1.36,6,6,0,0,1-.05-1.24,4.78,4.78,0,0,1,.07-1.21,1.73,1.73,0,0,1,1.8-1.28A1.87,1.87,0,0,1,27,14.68,4.82,4.82,0,0,1,27.1,16Z"/><path class="b" d="M31,16a6,6,0,0,1-.08,1.1,1.78,1.78,0,0,1-1.85,1.42,1.69,1.69,0,0,1-1.91-1.36,5.41,5.41,0,0,1,0-1.24,4.37,4.37,0,0,1,.06-1.21A1.73,1.73,0,0,1,29,13.39a1.86,1.86,0,0,1,1.94,1.29A4.82,4.82,0,0,1,31,16Z"/><path class="b" d="M19.35,16a6.1,6.1,0,0,0,.08,1.1,1.79,1.79,0,0,0,1.86,1.42,1.7,1.7,0,0,0,1.9-1.36,6,6,0,0,0,0-1.25,4.73,4.73,0,0,0-.07-1.2,1.72,1.72,0,0,0-1.8-1.28,1.81,1.81,0,0,0-1.95,1.19A5.63,5.63,0,0,0,19.35,16Z"/><path class="b" d="M3.9,16a5.89,5.89,0,0,1-.09,1.1A1.78,1.78,0,0,1,2,18.48a1.68,1.68,0,0,1-1.9-1.36,5.35,5.35,0,0,1,0-1.24,4.37,4.37,0,0,1,.06-1.21,1.74,1.74,0,0,1,1.81-1.28,1.85,1.85,0,0,1,1.93,1.29A4.8,4.8,0,0,1,3.9,16Z"/><path class="b" d="M11.61,16a6,6,0,0,1-.08,1.1,1.79,1.79,0,0,1-1.86,1.42,1.69,1.69,0,0,1-1.9-1.36,6,6,0,0,1,0-1.24,4.78,4.78,0,0,1,.07-1.21,1.73,1.73,0,0,1,1.8-1.28,1.87,1.87,0,0,1,1.94,1.29A4.82,4.82,0,0,1,11.61,16Z"/><path class="b" d="M15.5,16a6,6,0,0,1-.08,1.1,1.79,1.79,0,0,1-1.86,1.42,1.69,1.69,0,0,1-1.9-1.36,6,6,0,0,1-.05-1.24,4.78,4.78,0,0,1,.07-1.21,1.73,1.73,0,0,1,1.8-1.28,1.87,1.87,0,0,1,1.94,1.29A4.82,4.82,0,0,1,15.5,16Z"/><path class="b" d="M3.86,16a6.1,6.1,0,0,0,.08,1.1,1.78,1.78,0,0,0,1.85,1.42A1.7,1.7,0,0,0,7.7,17.15a6,6,0,0,0,0-1.25,4.73,4.73,0,0,0-.07-1.2,1.72,1.72,0,0,0-1.8-1.28,1.83,1.83,0,0,0-2,1.19A5.65,5.65,0,0,0,3.86,16Z"/><path class="b" d="M31,16a6,6,0,0,0,.09,1.1A1.77,1.77,0,0,0,33,18.51a1.69,1.69,0,0,0,1.9-1.36,6,6,0,0,0,0-1.25,4.74,4.74,0,0,0-.06-1.2A1.73,1.73,0,0,0,33,13.42a1.81,1.81,0,0,0-1.95,1.19A5.63,5.63,0,0,0,31,16Z"/><path class="b" d="M56.07,16a5.92,5.92,0,0,0,.08,1.09A1.78,1.78,0,0,0,58,18.49a1.69,1.69,0,0,0,1.91-1.36A5.91,5.91,0,0,0,60,15.89a4.78,4.78,0,0,0-.07-1.21,1.73,1.73,0,0,0-1.8-1.28,1.84,1.84,0,0,0-2,1.19A5.73,5.73,0,0,0,56.07,16Z"/><path class="c" d="M23.08,9.32a6.1,6.1,0,0,1-.08,1.1,1.78,1.78,0,0,1-1.85,1.42,1.7,1.7,0,0,1-1.91-1.36,6.12,6.12,0,0,1,0-1.25A4.3,4.3,0,0,1,19.26,8a1.72,1.72,0,0,1,1.81-1.28A1.85,1.85,0,0,1,23,8,4.82,4.82,0,0,1,23.08,9.32Z"/><path class="c" d="M30.8,9.32a6,6,0,0,1-.09,1.1,1.77,1.77,0,0,1-1.85,1.42A1.7,1.7,0,0,1,27,10.48a6,6,0,0,1-.05-1.25A4.72,4.72,0,0,1,27,8a1.73,1.73,0,0,1,1.81-1.28A1.87,1.87,0,0,1,30.72,8,4.82,4.82,0,0,1,30.8,9.32Z"/><path class="c" d="M34.69,9.32a6.1,6.1,0,0,1-.08,1.1,1.79,1.79,0,0,1-1.86,1.42,1.7,1.7,0,0,1-1.9-1.36,6,6,0,0,1-.05-1.25A4.29,4.29,0,0,1,30.87,8a1.71,1.71,0,0,1,1.8-1.28A1.87,1.87,0,0,1,34.61,8,4.82,4.82,0,0,1,34.69,9.32Z"/><path class="c" d="M23.05,9.35a5.92,5.92,0,0,0,.08,1.09A1.78,1.78,0,0,0,25,11.87a1.7,1.7,0,0,0,1.91-1.37,6,6,0,0,0,0-1.24,4.39,4.39,0,0,0-.06-1.21,1.71,1.71,0,0,0-1.81-1.27A1.81,1.81,0,0,0,23.11,8,5.75,5.75,0,0,0,23.05,9.35Z"/><path class="c" d="M7.59,9.32a6.1,6.1,0,0,1-.08,1.1,1.79,1.79,0,0,1-1.86,1.42,1.7,1.7,0,0,1-1.9-1.36,6,6,0,0,1,0-1.25A4.7,4.7,0,0,1,3.77,8a1.72,1.72,0,0,1,1.8-1.28A1.87,1.87,0,0,1,7.51,8,4.82,4.82,0,0,1,7.59,9.32Z"/><path class="c" d="M15.31,9.32a6,6,0,0,1-.09,1.1,1.78,1.78,0,0,1-1.85,1.42,1.68,1.68,0,0,1-1.9-1.36,5.41,5.41,0,0,1-.05-1.25A4.3,4.3,0,0,1,11.48,8a1.73,1.73,0,0,1,1.81-1.28A1.85,1.85,0,0,1,15.22,8,4.8,4.8,0,0,1,15.31,9.32Z"/><path class="c" d="M19.2,9.32a6,6,0,0,1-.09,1.1,1.78,1.78,0,0,1-1.85,1.42,1.68,1.68,0,0,1-1.9-1.36,5.41,5.41,0,0,1,0-1.25A4.3,4.3,0,0,1,15.37,8a1.73,1.73,0,0,1,1.81-1.28A1.87,1.87,0,0,1,19.12,8,5.28,5.28,0,0,1,19.2,9.32Z"/><path class="c" d="M7.55,9.35a5.85,5.85,0,0,0,.09,1.09,1.78,1.78,0,0,0,1.85,1.43,1.68,1.68,0,0,0,1.9-1.37,5.3,5.3,0,0,0,0-1.24,4.39,4.39,0,0,0-.06-1.21A1.72,1.72,0,0,0,9.57,6.78,1.8,1.8,0,0,0,7.62,8,5.74,5.74,0,0,0,7.55,9.35Z"/><path class="c" d="M34.72,9.35a5.92,5.92,0,0,0,.08,1.09,1.79,1.79,0,0,0,1.86,1.43,1.7,1.7,0,0,0,1.9-1.37,5.91,5.91,0,0,0,0-1.24,4.81,4.81,0,0,0-.07-1.21,1.71,1.71,0,0,0-1.8-1.27,1.8,1.8,0,0,0-2,1.18A5.74,5.74,0,0,0,34.72,9.35Z"/><path class="c" d="M52,9.24a6.1,6.1,0,0,0,.08,1.1,1.78,1.78,0,0,0,1.85,1.42,1.7,1.7,0,0,0,1.91-1.37,6,6,0,0,0,0-1.24A4.3,4.3,0,0,0,55.82,8,1.71,1.71,0,0,0,54,6.67a1.81,1.81,0,0,0-1.95,1.18A5.75,5.75,0,0,0,52,9.24Z"/><path class="d" d="M33.4,62.72a6,6,0,0,1-.08,1.1,1.79,1.79,0,0,1-1.86,1.42,1.7,1.7,0,0,1-1.9-1.36,6,6,0,0,1,0-1.24,4.78,4.78,0,0,1,.07-1.21,1.73,1.73,0,0,1,1.8-1.28,1.87,1.87,0,0,1,1.94,1.29A4.82,4.82,0,0,1,33.4,62.72Z"/><path class="d" d="M41.11,62.72a6,6,0,0,1-.08,1.1,1.78,1.78,0,0,1-1.85,1.42,1.7,1.7,0,0,1-1.91-1.36,5.41,5.41,0,0,1,0-1.24,4.37,4.37,0,0,1,.06-1.21,1.73,1.73,0,0,1,1.8-1.28A1.86,1.86,0,0,1,41,61.44,4.82,4.82,0,0,1,41.11,62.72Z"/><path class="d" d="M45,62.72a6,6,0,0,1-.08,1.1,1.78,1.78,0,0,1-1.85,1.42,1.7,1.7,0,0,1-1.91-1.36,6,6,0,0,1,0-1.24,4.37,4.37,0,0,1,.06-1.21A1.73,1.73,0,0,1,43,60.15a1.85,1.85,0,0,1,1.93,1.29A4.82,4.82,0,0,1,45,62.72Z"/><path class="d" d="M33.36,62.75a6.1,6.1,0,0,0,.08,1.1,1.79,1.79,0,0,0,1.86,1.42,1.7,1.7,0,0,0,1.9-1.36,6,6,0,0,0,0-1.25,4.31,4.31,0,0,0-.07-1.2,1.71,1.71,0,0,0-1.8-1.28,1.81,1.81,0,0,0-2,1.19A5.63,5.63,0,0,0,33.36,62.75Z"/><path class="d" d="M17.91,62.72a5.89,5.89,0,0,1-.09,1.1A1.77,1.77,0,0,1,16,65.24a1.7,1.7,0,0,1-1.9-1.36A6,6,0,0,1,14,62.64a4.8,4.8,0,0,1,.06-1.21,1.74,1.74,0,0,1,1.81-1.28,1.87,1.87,0,0,1,1.94,1.29A4.82,4.82,0,0,1,17.91,62.72Z"/><path class="d" d="M25.62,62.72a6,6,0,0,1-.08,1.1,1.79,1.79,0,0,1-1.86,1.42,1.7,1.7,0,0,1-1.9-1.36,6,6,0,0,1-.05-1.24,4.78,4.78,0,0,1,.07-1.21,1.73,1.73,0,0,1,1.8-1.28,1.87,1.87,0,0,1,1.94,1.29A4.82,4.82,0,0,1,25.62,62.72Z"/><path class="d" d="M29.51,62.72a6,6,0,0,1-.08,1.1,1.79,1.79,0,0,1-1.86,1.42,1.7,1.7,0,0,1-1.9-1.36,6,6,0,0,1-.05-1.24,4.78,4.78,0,0,1,.07-1.21,1.73,1.73,0,0,1,1.8-1.28,1.87,1.87,0,0,1,1.94,1.29A4.82,4.82,0,0,1,29.51,62.72Z"/><path class="d" d="M17.87,62.75a6.1,6.1,0,0,0,.08,1.1,1.79,1.79,0,0,0,1.86,1.42,1.7,1.7,0,0,0,1.9-1.36,6,6,0,0,0,.05-1.25,4.73,4.73,0,0,0-.07-1.2,1.72,1.72,0,0,0-1.8-1.28,1.81,1.81,0,0,0-1.95,1.19A5.63,5.63,0,0,0,17.87,62.75Z"/><path class="d" d="M45,62.8a5.92,5.92,0,0,0,.08,1.09,1.77,1.77,0,0,0,1.85,1.43A1.7,1.7,0,0,0,48.83,64a6,6,0,0,0,0-1.24,4.3,4.3,0,0,0-.06-1.2A1.71,1.71,0,0,0,47,60.23a1.81,1.81,0,0,0-2,1.18A5.75,5.75,0,0,0,45,62.8Z"/><path class="d" d="M48.88,62.8A5.92,5.92,0,0,0,49,63.89a1.78,1.78,0,0,0,1.85,1.43A1.7,1.7,0,0,0,52.72,64a5.36,5.36,0,0,0,0-1.24,4.3,4.3,0,0,0-.06-1.2,1.71,1.71,0,0,0-1.8-1.28,1.81,1.81,0,0,0-2,1.18A5.75,5.75,0,0,0,48.88,62.8Z"/><path class="c" d="M42,42.67a6,6,0,0,1-.09,1.1,1.78,1.78,0,0,1-1.85,1.42,1.68,1.68,0,0,1-1.9-1.36,5.35,5.35,0,0,1-.05-1.24,4.37,4.37,0,0,1,.06-1.21A1.74,1.74,0,0,1,40,40.1,1.85,1.85,0,0,1,42,41.39,4.8,4.8,0,0,1,42,42.67Z"/><path class="c" d="M49.75,42.67a6,6,0,0,1-.08,1.1,1.79,1.79,0,0,1-1.86,1.42,1.7,1.7,0,0,1-1.9-1.36,6,6,0,0,1,0-1.24,4.78,4.78,0,0,1,.07-1.21,1.73,1.73,0,0,1,1.8-1.28,1.87,1.87,0,0,1,1.94,1.29A4.82,4.82,0,0,1,49.75,42.67Z"/><path class="c" d="M53.64,42.67a6,6,0,0,1-.08,1.1,1.79,1.79,0,0,1-1.86,1.42,1.7,1.7,0,0,1-1.9-1.36,6,6,0,0,1,0-1.24,4.78,4.78,0,0,1,.07-1.21,1.73,1.73,0,0,1,1.8-1.28,1.87,1.87,0,0,1,1.94,1.29A4.82,4.82,0,0,1,53.64,42.67Z"/><path class="c" d="M42,42.7a6.1,6.1,0,0,0,.08,1.1,1.78,1.78,0,0,0,1.85,1.42,1.7,1.7,0,0,0,1.91-1.36,6,6,0,0,0,0-1.25,4.73,4.73,0,0,0-.07-1.2A1.72,1.72,0,0,0,44,40.13a1.83,1.83,0,0,0-2,1.19A5.65,5.65,0,0,0,42,42.7Z"/><path class="c" d="M26.54,42.67a6,6,0,0,1-.08,1.1,1.78,1.78,0,0,1-1.85,1.42,1.7,1.7,0,0,1-1.91-1.36,6,6,0,0,1,0-1.24,4.37,4.37,0,0,1,.06-1.21,1.73,1.73,0,0,1,1.81-1.28,1.85,1.85,0,0,1,1.93,1.29A4.82,4.82,0,0,1,26.54,42.67Z"/><path class="c" d="M34.26,42.67a6,6,0,0,1-.09,1.1,1.77,1.77,0,0,1-1.85,1.42,1.7,1.7,0,0,1-1.9-1.36,6,6,0,0,1-.05-1.24,4.8,4.8,0,0,1,.06-1.21,1.74,1.74,0,0,1,1.81-1.28,1.87,1.87,0,0,1,1.94,1.29A4.82,4.82,0,0,1,34.26,42.67Z"/><path class="c" d="M38.15,42.67a6,6,0,0,1-.08,1.1,1.79,1.79,0,0,1-1.86,1.42,1.7,1.7,0,0,1-1.9-1.36,6,6,0,0,1-.05-1.24,4.36,4.36,0,0,1,.07-1.21,1.72,1.72,0,0,1,1.8-1.28,1.87,1.87,0,0,1,1.94,1.29A4.82,4.82,0,0,1,38.15,42.67Z"/><path class="c" d="M26.51,42.7a6.1,6.1,0,0,0,.08,1.1,1.78,1.78,0,0,0,1.85,1.42,1.7,1.7,0,0,0,1.91-1.36,6.12,6.12,0,0,0,0-1.25,4.32,4.32,0,0,0-.06-1.2,1.72,1.72,0,0,0-1.81-1.28,1.81,1.81,0,0,0-1.95,1.19A5.65,5.65,0,0,0,26.51,42.7Z"/><path class="c" d="M53.62,42.75a5.85,5.85,0,0,0,.09,1.09,1.77,1.77,0,0,0,1.85,1.43,1.7,1.7,0,0,0,1.9-1.37,5.91,5.91,0,0,0,0-1.24,4.72,4.72,0,0,0-.06-1.2,1.72,1.72,0,0,0-1.81-1.28,1.8,1.8,0,0,0-2,1.18A5.74,5.74,0,0,0,53.62,42.75Z"/><path class="c" d="M57.51,42.75a5.85,5.85,0,0,0,.09,1.09,1.77,1.77,0,0,0,1.85,1.43,1.68,1.68,0,0,0,1.9-1.37,5.3,5.3,0,0,0,0-1.24,4.3,4.3,0,0,0-.06-1.2,1.72,1.72,0,0,0-1.81-1.28,1.8,1.8,0,0,0-2,1.18A5.74,5.74,0,0,0,57.51,42.75Z"/><path class="e" d="M36.25,36a5.26,5.26,0,0,1-.09,1.1,1.77,1.77,0,0,1-1.85,1.42,1.7,1.7,0,0,1-1.9-1.37,5.91,5.91,0,0,1,0-1.24,4.29,4.29,0,0,1,.07-1.2,1.7,1.7,0,0,1,1.8-1.28,1.87,1.87,0,0,1,1.94,1.29A4.82,4.82,0,0,1,36.25,36Z"/><path class="e" d="M44,36a6.1,6.1,0,0,1-.08,1.1A1.78,1.78,0,0,1,42,38.51a1.7,1.7,0,0,1-1.91-1.37,5.91,5.91,0,0,1,0-1.24,4.7,4.7,0,0,1,.07-1.2,1.71,1.71,0,0,1,1.8-1.28,1.87,1.87,0,0,1,1.94,1.29A4.82,4.82,0,0,1,44,36Z"/><path class="e" d="M47.85,36a6.1,6.1,0,0,1-.08,1.1,1.78,1.78,0,0,1-1.85,1.42A1.7,1.7,0,0,1,44,37.14a6,6,0,0,1,0-1.24A4.3,4.3,0,0,1,44,34.7a1.71,1.71,0,0,1,1.8-1.28,1.86,1.86,0,0,1,1.94,1.29A4.82,4.82,0,0,1,47.85,36Z"/><path class="e" d="M36.21,36a5.92,5.92,0,0,0,.08,1.09,1.79,1.79,0,0,0,1.86,1.42,1.69,1.69,0,0,0,1.9-1.36,5.91,5.91,0,0,0,.05-1.24A4.78,4.78,0,0,0,40,34.72a1.73,1.73,0,0,0-1.8-1.28,1.82,1.82,0,0,0-1.95,1.19A5.71,5.71,0,0,0,36.21,36Z"/><path class="e" d="M20.76,36a6,6,0,0,1-.09,1.1,1.78,1.78,0,0,1-1.85,1.42,1.68,1.68,0,0,1-1.9-1.37,5.3,5.3,0,0,1-.05-1.24,4.3,4.3,0,0,1,.06-1.2,1.72,1.72,0,0,1,1.81-1.28,1.85,1.85,0,0,1,1.93,1.29A4.8,4.8,0,0,1,20.76,36Z"/><path class="e" d="M28.47,36a6.1,6.1,0,0,1-.08,1.1,1.79,1.79,0,0,1-1.86,1.42,1.7,1.7,0,0,1-1.9-1.37,5.91,5.91,0,0,1-.05-1.24,4.7,4.7,0,0,1,.07-1.2,1.71,1.71,0,0,1,1.8-1.28,1.87,1.87,0,0,1,1.94,1.29A4.82,4.82,0,0,1,28.47,36Z"/><path class="e" d="M32.36,36a6.1,6.1,0,0,1-.08,1.1,1.79,1.79,0,0,1-1.86,1.42,1.7,1.7,0,0,1-1.9-1.37,5.91,5.91,0,0,1-.05-1.24,4.7,4.7,0,0,1,.07-1.2,1.71,1.71,0,0,1,1.8-1.28,1.87,1.87,0,0,1,1.94,1.29A4.82,4.82,0,0,1,32.36,36Z"/><path class="e" d="M20.72,36a5.92,5.92,0,0,0,.08,1.09,1.79,1.79,0,0,0,1.86,1.42,1.69,1.69,0,0,0,1.9-1.36,5.91,5.91,0,0,0,.05-1.24,4.78,4.78,0,0,0-.07-1.21,1.73,1.73,0,0,0-1.8-1.28,1.84,1.84,0,0,0-2,1.19A6.28,6.28,0,0,0,20.72,36Z"/><path class="e" d="M47.83,36.07a5.85,5.85,0,0,0,.09,1.09,1.78,1.78,0,0,0,1.85,1.42,1.69,1.69,0,0,0,1.91-1.36,6,6,0,0,0,0-1.24,4.37,4.37,0,0,0-.06-1.21,1.73,1.73,0,0,0-1.81-1.28,1.83,1.83,0,0,0-2,1.19A5.68,5.68,0,0,0,47.83,36.07Z"/><path class="e" d="M51.73,36.07a5.92,5.92,0,0,0,.08,1.09,1.78,1.78,0,0,0,1.85,1.42,1.69,1.69,0,0,0,1.91-1.36,6,6,0,0,0,0-1.24,4.37,4.37,0,0,0-.06-1.21,1.73,1.73,0,0,0-1.81-1.28,1.83,1.83,0,0,0-2,1.19A5.7,5.7,0,0,0,51.73,36.07Z"/><path class="d" d="M28.06,29.31A5.85,5.85,0,0,1,28,30.4a1.77,1.77,0,0,1-1.85,1.42,1.68,1.68,0,0,1-1.9-1.36,5.91,5.91,0,0,1,0-1.24A4.8,4.8,0,0,1,24.23,28,1.74,1.74,0,0,1,26,26.73,1.88,1.88,0,0,1,28,28,4.79,4.79,0,0,1,28.06,29.31Z"/><path class="d" d="M35.77,29.31a5.92,5.92,0,0,1-.08,1.09,1.79,1.79,0,0,1-1.86,1.42,1.69,1.69,0,0,1-1.9-1.36,5.91,5.91,0,0,1-.05-1.24A4.78,4.78,0,0,1,32,28a1.73,1.73,0,0,1,1.8-1.28A1.87,1.87,0,0,1,35.69,28,4.79,4.79,0,0,1,35.77,29.31Z"/><path class="d" d="M39.66,29.31a5.92,5.92,0,0,1-.08,1.09,1.79,1.79,0,0,1-1.86,1.42,1.69,1.69,0,0,1-1.9-1.36,5.91,5.91,0,0,1,0-1.24A4.78,4.78,0,0,1,35.84,28a1.73,1.73,0,0,1,1.8-1.28A1.87,1.87,0,0,1,39.58,28,4.79,4.79,0,0,1,39.66,29.31Z"/><path class="d" d="M28,29.34a5.92,5.92,0,0,0,.08,1.09A1.79,1.79,0,0,0,30,31.85a1.69,1.69,0,0,0,1.9-1.36,6,6,0,0,0,.05-1.24A4.78,4.78,0,0,0,31.84,28,1.73,1.73,0,0,0,30,26.76,1.82,1.82,0,0,0,28.09,28,5.68,5.68,0,0,0,28,29.34Z"/><path class="d" d="M12.57,29.31a5.85,5.85,0,0,1-.09,1.09,1.78,1.78,0,0,1-1.85,1.42,1.69,1.69,0,0,1-1.91-1.36,6,6,0,0,1,0-1.24A4.37,4.37,0,0,1,8.74,28a1.73,1.73,0,0,1,1.81-1.28A1.86,1.86,0,0,1,12.48,28,4.77,4.77,0,0,1,12.57,29.31Z"/><path class="d" d="M20.28,29.31a5.92,5.92,0,0,1-.08,1.09,1.79,1.79,0,0,1-1.86,1.42,1.69,1.69,0,0,1-1.9-1.36,5.91,5.91,0,0,1-.05-1.24A4.78,4.78,0,0,1,16.46,28a1.73,1.73,0,0,1,1.8-1.28A1.88,1.88,0,0,1,20.2,28,4.79,4.79,0,0,1,20.28,29.31Z"/><path class="d" d="M24.17,29.31a5.92,5.92,0,0,1-.08,1.09,1.79,1.79,0,0,1-1.86,1.42,1.69,1.69,0,0,1-1.9-1.36,5.91,5.91,0,0,1,0-1.24A4.78,4.78,0,0,1,20.35,28a1.73,1.73,0,0,1,1.8-1.28A1.88,1.88,0,0,1,24.09,28,4.79,4.79,0,0,1,24.17,29.31Z"/><path class="d" d="M12.53,29.34a5.92,5.92,0,0,0,.08,1.09,1.78,1.78,0,0,0,1.85,1.42,1.69,1.69,0,0,0,1.91-1.36,5.41,5.41,0,0,0,0-1.24A4.37,4.37,0,0,0,16.35,28a1.73,1.73,0,0,0-1.8-1.28,1.83,1.83,0,0,0-2,1.19A5.7,5.7,0,0,0,12.53,29.34Z"/><path class="d" d="M39.64,29.38a6,6,0,0,0,.09,1.1,1.78,1.78,0,0,0,1.85,1.42,1.68,1.68,0,0,0,1.9-1.36,5.35,5.35,0,0,0,.05-1.24,4.37,4.37,0,0,0-.06-1.21,1.74,1.74,0,0,0-1.81-1.28A1.81,1.81,0,0,0,39.71,28,5.63,5.63,0,0,0,39.64,29.38Z"/><path class="d" d="M43.53,29.38a6,6,0,0,0,.09,1.1,1.78,1.78,0,0,0,1.85,1.42,1.7,1.7,0,0,0,1.91-1.36,6,6,0,0,0,0-1.24,4.37,4.37,0,0,0-.06-1.21,1.73,1.73,0,0,0-1.81-1.28A1.81,1.81,0,0,0,43.6,28,5.63,5.63,0,0,0,43.53,29.38Z"/><path class="a" d="M22.45,22.62a5.2,5.2,0,0,1-.09,1.1,1.77,1.77,0,0,1-1.85,1.42,1.7,1.7,0,0,1-1.9-1.36,6,6,0,0,1-.05-1.24,4.36,4.36,0,0,1,.07-1.21,1.72,1.72,0,0,1,1.8-1.28,1.87,1.87,0,0,1,1.94,1.29A4.82,4.82,0,0,1,22.45,22.62Z"/><path class="a" d="M30.16,22.62a6,6,0,0,1-.08,1.1,1.79,1.79,0,0,1-1.86,1.42,1.7,1.7,0,0,1-1.9-1.36,6,6,0,0,1-.05-1.24,4.78,4.78,0,0,1,.07-1.21,1.73,1.73,0,0,1,1.8-1.28,1.87,1.87,0,0,1,1.94,1.29A4.82,4.82,0,0,1,30.16,22.62Z"/><path class="a" d="M34.05,22.62a6,6,0,0,1-.08,1.1,1.78,1.78,0,0,1-1.85,1.42,1.7,1.7,0,0,1-1.91-1.36,5.41,5.41,0,0,1,0-1.24,4.37,4.37,0,0,1,.06-1.21A1.73,1.73,0,0,1,32,20.05,1.86,1.86,0,0,1,34,21.34,4.82,4.82,0,0,1,34.05,22.62Z"/><path class="a" d="M22.41,22.65a6.1,6.1,0,0,0,.08,1.1,1.79,1.79,0,0,0,1.86,1.42,1.7,1.7,0,0,0,1.9-1.36,6,6,0,0,0,.05-1.25,4.7,4.7,0,0,0-.07-1.2,1.72,1.72,0,0,0-1.8-1.28,1.8,1.8,0,0,0-1.95,1.19A5.63,5.63,0,0,0,22.41,22.65Z"/><path class="a" d="M7,22.62a6,6,0,0,1-.09,1.1A1.78,1.78,0,0,1,5,25.14a1.68,1.68,0,0,1-1.9-1.36,5.35,5.35,0,0,1-.05-1.24,4.37,4.37,0,0,1,.06-1.21,1.74,1.74,0,0,1,1.81-1.28,1.85,1.85,0,0,1,1.93,1.29A4.8,4.8,0,0,1,7,22.62Z"/><path class="a" d="M14.67,22.62a6,6,0,0,1-.08,1.1,1.79,1.79,0,0,1-1.86,1.42,1.7,1.7,0,0,1-1.9-1.36,6,6,0,0,1-.05-1.24,4.78,4.78,0,0,1,.07-1.21,1.73,1.73,0,0,1,1.8-1.28,1.87,1.87,0,0,1,1.94,1.29A4.82,4.82,0,0,1,14.67,22.62Z"/><path class="a" d="M18.56,22.62a6,6,0,0,1-.08,1.1,1.79,1.79,0,0,1-1.86,1.42,1.7,1.7,0,0,1-1.9-1.36,6,6,0,0,1-.05-1.24,4.78,4.78,0,0,1,.07-1.21,1.73,1.73,0,0,1,1.8-1.28,1.87,1.87,0,0,1,1.94,1.29A4.82,4.82,0,0,1,18.56,22.62Z"/><path class="a" d="M6.92,22.65A6.1,6.1,0,0,0,7,23.75a1.78,1.78,0,0,0,1.85,1.42,1.7,1.7,0,0,0,1.91-1.36,6,6,0,0,0,.05-1.25,4.7,4.7,0,0,0-.07-1.2,1.72,1.72,0,0,0-1.8-1.28,1.82,1.82,0,0,0-2,1.19A5.65,5.65,0,0,0,6.92,22.65Z"/><path class="a" d="M34,22.7a5.85,5.85,0,0,0,.09,1.09A1.77,1.77,0,0,0,36,25.22a1.7,1.7,0,0,0,1.91-1.37,6,6,0,0,0,0-1.24,4.39,4.39,0,0,0-.06-1.21,1.72,1.72,0,0,0-1.81-1.27,1.81,1.81,0,0,0-1.95,1.18A5.74,5.74,0,0,0,34,22.7Z"/><path class="a" d="M37.93,22.7A5.92,5.92,0,0,0,38,23.79a1.77,1.77,0,0,0,1.85,1.43,1.7,1.7,0,0,0,1.91-1.37,6,6,0,0,0,0-1.24,4.39,4.39,0,0,0-.06-1.21,1.71,1.71,0,0,0-1.81-1.27A1.81,1.81,0,0,0,38,21.31,5.75,5.75,0,0,0,37.93,22.7Z"/><path class="e" d="M31.77,2.57a6,6,0,0,1-.08,1.1,1.78,1.78,0,0,1-1.85,1.42,1.7,1.7,0,0,1-1.91-1.36,5.41,5.41,0,0,1,0-1.24A4.37,4.37,0,0,1,28,1.28,1.73,1.73,0,0,1,29.75,0a1.86,1.86,0,0,1,1.94,1.29A4.82,4.82,0,0,1,31.77,2.57Z"/><path class="e" d="M39.49,2.57a6,6,0,0,1-.09,1.1,1.78,1.78,0,0,1-1.85,1.42,1.68,1.68,0,0,1-1.9-1.36,5.35,5.35,0,0,1,0-1.24,4.8,4.8,0,0,1,.06-1.21A1.74,1.74,0,0,1,37.47,0a1.87,1.87,0,0,1,1.94,1.29A4.82,4.82,0,0,1,39.49,2.57Z"/><path class="e" d="M43.38,2.57a5.2,5.2,0,0,1-.09,1.1,1.77,1.77,0,0,1-1.85,1.42,1.7,1.7,0,0,1-1.9-1.36,6,6,0,0,1,0-1.24,4.36,4.36,0,0,1,.07-1.21A1.72,1.72,0,0,1,41.36,0,1.87,1.87,0,0,1,43.3,1.29,4.82,4.82,0,0,1,43.38,2.57Z"/><path class="e" d="M31.73,2.6a6,6,0,0,0,.09,1.1,1.78,1.78,0,0,0,1.85,1.42,1.7,1.7,0,0,0,1.91-1.37,6,6,0,0,0,0-1.24,4.3,4.3,0,0,0-.06-1.2A1.73,1.73,0,0,0,33.75,0,1.8,1.8,0,0,0,31.8,1.22,5.63,5.63,0,0,0,31.73,2.6Z"/><path class="e" d="M16.28,2.57a6,6,0,0,1-.08,1.1,1.79,1.79,0,0,1-1.86,1.42,1.7,1.7,0,0,1-1.9-1.36,6,6,0,0,1,0-1.24,4.78,4.78,0,0,1,.07-1.21A1.73,1.73,0,0,1,14.26,0,1.87,1.87,0,0,1,16.2,1.29,4.82,4.82,0,0,1,16.28,2.57Z"/><path class="e" d="M24,2.57a6,6,0,0,1-.09,1.1,1.78,1.78,0,0,1-1.85,1.42,1.7,1.7,0,0,1-1.91-1.36,6,6,0,0,1,0-1.24,4.37,4.37,0,0,1,.06-1.21A1.73,1.73,0,0,1,22,0a1.85,1.85,0,0,1,1.93,1.29A4.8,4.8,0,0,1,24,2.57Z"/><path class="e" d="M27.89,2.57a6,6,0,0,1-.09,1.1A1.78,1.78,0,0,1,26,5.09a1.68,1.68,0,0,1-1.9-1.36A5.35,5.35,0,0,1,24,2.49a4.37,4.37,0,0,1,.06-1.21A1.74,1.74,0,0,1,25.87,0,1.85,1.85,0,0,1,27.8,1.29,4.8,4.8,0,0,1,27.89,2.57Z"/><path class="e" d="M16.24,2.6a6,6,0,0,0,.09,1.1,1.77,1.77,0,0,0,1.85,1.42,1.7,1.7,0,0,0,1.9-1.37,5.91,5.91,0,0,0,.05-1.24,4.72,4.72,0,0,0-.06-1.2A1.73,1.73,0,0,0,18.26,0a1.8,1.8,0,0,0-2,1.19A5.63,5.63,0,0,0,16.24,2.6Z"/><path class="e" d="M43.36,2.65a5.92,5.92,0,0,0,.08,1.09A1.79,1.79,0,0,0,45.3,5.17,1.7,1.7,0,0,0,47.2,3.8a5.91,5.91,0,0,0,0-1.24,4.81,4.81,0,0,0-.07-1.21A1.71,1.71,0,0,0,45.38.08a1.8,1.8,0,0,0-2,1.18A5.74,5.74,0,0,0,43.36,2.65Z"/><path class="e" d="M47.25,2.65a5.92,5.92,0,0,0,.08,1.09,1.79,1.79,0,0,0,1.86,1.43,1.7,1.7,0,0,0,1.9-1.37,5.91,5.91,0,0,0,0-1.24,4.81,4.81,0,0,0-.07-1.21A1.71,1.71,0,0,0,49.27.08a1.8,1.8,0,0,0-2,1.18A5.74,5.74,0,0,0,47.25,2.65Z"/></svg>