<svg xmlns="http://www.w3.org/2000/svg" width="62.14" height="65.32" viewBox="0 0 62.14 65.32"><defs><style>.a{fill:#eb666a;}.b{fill:#fbf175;}.c{fill:#889bcf;}.d{fill:#86aca8;}.e{fill:#ffd69f;}</style></defs><title>Asset 111</title><path class="a" d="M42.77,42.67a6,6,0,0,0-.09-1.1,1.78,1.78,0,0,0-1.85-1.42,1.7,1.7,0,0,0-1.91,1.36,6,6,0,0,0,0,1.24A4.37,4.37,0,0,0,38.94,44a1.73,1.73,0,0,0,1.81,1.28A1.85,1.85,0,0,0,42.68,44,4.8,4.8,0,0,0,42.77,42.67Z"/><path class="a" d="M50.48,42.67a5.2,5.2,0,0,0-.09-1.1,1.77,1.77,0,0,0-1.85-1.42,1.7,1.7,0,0,0-1.9,1.36,6,6,0,0,0,0,1.24A4.36,4.36,0,0,0,46.66,44a1.72,1.72,0,0,0,1.8,1.28A1.87,1.87,0,0,0,50.4,44,4.82,4.82,0,0,0,50.48,42.67Z"/><path class="a" d="M54.37,42.67a6,6,0,0,0-.08-1.1,1.79,1.79,0,0,0-1.86-1.42,1.7,1.7,0,0,0-1.9,1.36,6,6,0,0,0-.05,1.24A4.78,4.78,0,0,0,50.55,44a1.73,1.73,0,0,0,1.8,1.28A1.87,1.87,0,0,0,54.29,44,4.82,4.82,0,0,0,54.37,42.67Z"/><path class="a" d="M42.73,42.67a6,6,0,0,1,.08-1.1,1.78,1.78,0,0,1,1.85-1.42,1.7,1.7,0,0,1,1.91,1.36,6,6,0,0,1,0,1.24A4.37,4.37,0,0,1,46.55,44a1.73,1.73,0,0,1-1.81,1.28,1.81,1.81,0,0,1-2-1.19A5.65,5.65,0,0,1,42.73,42.67Z"/><path class="a" d="M27.27,42.67a6,6,0,0,0-.08-1.1,1.78,1.78,0,0,0-1.85-1.42,1.7,1.7,0,0,0-1.91,1.36,6,6,0,0,0-.05,1.24A4.78,4.78,0,0,0,23.45,44a1.73,1.73,0,0,0,1.8,1.28A1.87,1.87,0,0,0,27.19,44,4.82,4.82,0,0,0,27.27,42.67Z"/><path class="a" d="M35,42.67a6,6,0,0,0-.09-1.1,1.78,1.78,0,0,0-1.85-1.42,1.68,1.68,0,0,0-1.9,1.36,5.35,5.35,0,0,0,0,1.24A4.37,4.37,0,0,0,31.16,44,1.74,1.74,0,0,0,33,45.24,1.85,1.85,0,0,0,34.9,44,4.8,4.8,0,0,0,35,42.67Z"/><path class="a" d="M38.88,42.67a6,6,0,0,0-.09-1.1,1.77,1.77,0,0,0-1.85-1.42A1.7,1.7,0,0,0,35,41.51a6,6,0,0,0,0,1.24A4.8,4.8,0,0,0,35.05,44a1.74,1.74,0,0,0,1.81,1.28A1.87,1.87,0,0,0,38.8,44,4.82,4.82,0,0,0,38.88,42.67Z"/><path class="a" d="M27.23,42.67a6,6,0,0,1,.09-1.1,1.78,1.78,0,0,1,1.85-1.42,1.68,1.68,0,0,1,1.9,1.36,5.35,5.35,0,0,1,.05,1.24A4.37,4.37,0,0,1,31.06,44a1.74,1.74,0,0,1-1.81,1.28,1.81,1.81,0,0,1-1.95-1.19A5.63,5.63,0,0,1,27.23,42.67Z"/><path class="a" d="M54.35,42.67a6,6,0,0,1,.08-1.1,1.79,1.79,0,0,1,1.86-1.42,1.7,1.7,0,0,1,1.9,1.36,6,6,0,0,1,.05,1.24A4.36,4.36,0,0,1,58.17,44a1.72,1.72,0,0,1-1.8,1.28,1.81,1.81,0,0,1-1.95-1.19A5.63,5.63,0,0,1,54.35,42.67Z"/><path class="a" d="M58.24,42.67a6,6,0,0,1,.09-1.1,1.77,1.77,0,0,1,1.85-1.42,1.7,1.7,0,0,1,1.9,1.36,6,6,0,0,1,.05,1.24A4.8,4.8,0,0,1,62.07,44a1.74,1.74,0,0,1-1.81,1.28,1.81,1.81,0,0,1-1.95-1.19A5.63,5.63,0,0,1,58.24,42.67Z"/><path class="b" d="M28.15,62.74a5.85,5.85,0,0,0-.09-1.09,1.77,1.77,0,0,0-1.85-1.42,1.69,1.69,0,0,0-1.9,1.36,5.94,5.94,0,0,0,0,1.24A4.8,4.8,0,0,0,24.32,64a1.74,1.74,0,0,0,1.81,1.28A1.88,1.88,0,0,0,28.07,64,4.89,4.89,0,0,0,28.15,62.74Z"/><path class="b" d="M35.86,62.74a5.92,5.92,0,0,0-.08-1.09,1.79,1.79,0,0,0-1.86-1.42A1.69,1.69,0,0,0,32,61.59,5.94,5.94,0,0,0,32,62.83,4.78,4.78,0,0,0,32,64a1.73,1.73,0,0,0,1.8,1.28A1.88,1.88,0,0,0,35.78,64,4.89,4.89,0,0,0,35.86,62.74Z"/><path class="b" d="M39.75,62.74a5.92,5.92,0,0,0-.08-1.09,1.78,1.78,0,0,0-1.85-1.42,1.69,1.69,0,0,0-1.91,1.36,5.39,5.39,0,0,0,0,1.24A4.37,4.37,0,0,0,35.93,64a1.73,1.73,0,0,0,1.8,1.28A1.88,1.88,0,0,0,39.67,64,4.89,4.89,0,0,0,39.75,62.74Z"/><path class="b" d="M28.11,62.74a5.92,5.92,0,0,1,.08-1.09,1.79,1.79,0,0,1,1.86-1.42A1.69,1.69,0,0,1,32,61.59,5.94,5.94,0,0,1,32,62.83,4.78,4.78,0,0,1,31.93,64a1.73,1.73,0,0,1-1.8,1.28,1.82,1.82,0,0,1-1.95-1.19A5.68,5.68,0,0,1,28.11,62.74Z"/><path class="b" d="M12.66,62.74a5.85,5.85,0,0,0-.09-1.09,1.78,1.78,0,0,0-1.85-1.42,1.68,1.68,0,0,0-1.9,1.36,5.33,5.33,0,0,0-.05,1.24A4.37,4.37,0,0,0,8.83,64a1.74,1.74,0,0,0,1.81,1.28A1.86,1.86,0,0,0,12.57,64,4.88,4.88,0,0,0,12.66,62.74Z"/><path class="b" d="M20.37,62.74a5.92,5.92,0,0,0-.08-1.09,1.79,1.79,0,0,0-1.86-1.42,1.69,1.69,0,0,0-1.9,1.36,5.94,5.94,0,0,0-.05,1.24A4.78,4.78,0,0,0,16.55,64a1.73,1.73,0,0,0,1.8,1.28A1.88,1.88,0,0,0,20.29,64,4.89,4.89,0,0,0,20.37,62.74Z"/><path class="b" d="M24.26,62.74a5.92,5.92,0,0,0-.08-1.09,1.79,1.79,0,0,0-1.86-1.42,1.69,1.69,0,0,0-1.9,1.36,5.94,5.94,0,0,0-.05,1.24A4.78,4.78,0,0,0,20.44,64a1.73,1.73,0,0,0,1.8,1.28A1.88,1.88,0,0,0,24.18,64,4.89,4.89,0,0,0,24.26,62.74Z"/><path class="b" d="M12.62,62.74a5.92,5.92,0,0,1,.08-1.09,1.78,1.78,0,0,1,1.85-1.42,1.69,1.69,0,0,1,1.91,1.36,5.94,5.94,0,0,1,.05,1.24A4.78,4.78,0,0,1,16.44,64a1.73,1.73,0,0,1-1.8,1.28,1.84,1.84,0,0,1-2-1.19A5.7,5.7,0,0,1,12.62,62.74Z"/><path class="b" d="M39.73,62.74a5.85,5.85,0,0,1,.09-1.09,1.78,1.78,0,0,1,1.85-1.42,1.68,1.68,0,0,1,1.9,1.36,5.33,5.33,0,0,1,0,1.24A4.37,4.37,0,0,1,43.56,64a1.74,1.74,0,0,1-1.81,1.28,1.83,1.83,0,0,1-2-1.19A5.68,5.68,0,0,1,39.73,62.74Z"/><path class="b" d="M43.63,62.74a5.92,5.92,0,0,1,.08-1.09,1.78,1.78,0,0,1,1.85-1.42,1.69,1.69,0,0,1,1.91,1.36,6,6,0,0,1,0,1.24A4.37,4.37,0,0,1,47.45,64a1.73,1.73,0,0,1-1.81,1.28,1.83,1.83,0,0,1-2-1.19A5.7,5.7,0,0,1,43.63,62.74Z"/><path class="c" d="M28.15,2.52a6,6,0,0,0-.09-1.1A1.77,1.77,0,0,0,26.21,0a1.7,1.7,0,0,0-1.9,1.36,6,6,0,0,0,0,1.24,4.8,4.8,0,0,0,.06,1.21,1.74,1.74,0,0,0,1.81,1.28A1.87,1.87,0,0,0,28.07,3.8,4.82,4.82,0,0,0,28.15,2.52Z"/><path class="c" d="M35.86,2.52a6,6,0,0,0-.08-1.1A1.79,1.79,0,0,0,33.92,0,1.7,1.7,0,0,0,32,1.36,6,6,0,0,0,32,2.6,4.78,4.78,0,0,0,32,3.81a1.73,1.73,0,0,0,1.8,1.28A1.87,1.87,0,0,0,35.78,3.8,4.82,4.82,0,0,0,35.86,2.52Z"/><path class="c" d="M39.75,2.52a6,6,0,0,0-.08-1.1A1.78,1.78,0,0,0,37.82,0a1.7,1.7,0,0,0-1.91,1.36,5.41,5.41,0,0,0,0,1.24,4.37,4.37,0,0,0,.06,1.21,1.73,1.73,0,0,0,1.8,1.28A1.87,1.87,0,0,0,39.67,3.8,4.82,4.82,0,0,0,39.75,2.52Z"/><path class="c" d="M28.11,2.52a6,6,0,0,1,.08-1.1A1.79,1.79,0,0,1,30.05,0,1.7,1.7,0,0,1,32,1.36,6,6,0,0,1,32,2.6a4.78,4.78,0,0,1-.07,1.21,1.73,1.73,0,0,1-1.8,1.28A1.81,1.81,0,0,1,28.18,3.9,5.63,5.63,0,0,1,28.11,2.52Z"/><path class="c" d="M12.66,2.52a6,6,0,0,0-.09-1.1A1.78,1.78,0,0,0,10.72,0a1.68,1.68,0,0,0-1.9,1.36A5.35,5.35,0,0,0,8.77,2.6a4.37,4.37,0,0,0,.06,1.21,1.74,1.74,0,0,0,1.81,1.28A1.85,1.85,0,0,0,12.57,3.8,4.8,4.8,0,0,0,12.66,2.52Z"/><path class="c" d="M20.37,2.52a6,6,0,0,0-.08-1.1A1.79,1.79,0,0,0,18.43,0a1.7,1.7,0,0,0-1.9,1.36,6,6,0,0,0-.05,1.24,4.78,4.78,0,0,0,.07,1.21,1.73,1.73,0,0,0,1.8,1.28A1.87,1.87,0,0,0,20.29,3.8,4.82,4.82,0,0,0,20.37,2.52Z"/><path class="c" d="M24.26,2.52a6,6,0,0,0-.08-1.1A1.79,1.79,0,0,0,22.32,0a1.7,1.7,0,0,0-1.9,1.36,6,6,0,0,0-.05,1.24,4.78,4.78,0,0,0,.07,1.21,1.73,1.73,0,0,0,1.8,1.28A1.87,1.87,0,0,0,24.18,3.8,4.82,4.82,0,0,0,24.26,2.52Z"/><path class="c" d="M12.62,2.52a6,6,0,0,1,.08-1.1A1.78,1.78,0,0,1,14.55,0a1.7,1.7,0,0,1,1.91,1.36,6,6,0,0,1,.05,1.24,4.78,4.78,0,0,1-.07,1.21,1.73,1.73,0,0,1-1.8,1.28,1.83,1.83,0,0,1-2-1.19A5.65,5.65,0,0,1,12.62,2.52Z"/><path class="c" d="M39.73,2.52a6,6,0,0,1,.09-1.1A1.78,1.78,0,0,1,41.67,0a1.68,1.68,0,0,1,1.9,1.36,5.35,5.35,0,0,1,0,1.24,4.37,4.37,0,0,1-.06,1.21,1.74,1.74,0,0,1-1.81,1.28,1.81,1.81,0,0,1-2-1.19A5.63,5.63,0,0,1,39.73,2.52Z"/><path class="c" d="M43.63,2.52a6,6,0,0,1,.08-1.1A1.78,1.78,0,0,1,45.56,0a1.7,1.7,0,0,1,1.91,1.36,6,6,0,0,1,0,1.24,4.37,4.37,0,0,1-.06,1.21,1.73,1.73,0,0,1-1.81,1.28,1.81,1.81,0,0,1-2-1.19A5.65,5.65,0,0,1,43.63,2.52Z"/><path class="c" d="M58.21,36a6,6,0,0,0-.08-1.1,1.78,1.78,0,0,0-1.85-1.42,1.69,1.69,0,0,0-1.91,1.36,6,6,0,0,0,0,1.24,4.78,4.78,0,0,0,.07,1.21,1.73,1.73,0,0,0,1.8,1.28,1.87,1.87,0,0,0,1.94-1.29A4.82,4.82,0,0,0,58.21,36Z"/><path class="c" d="M58.24,36a5.89,5.89,0,0,1,.09-1.1,1.77,1.77,0,0,1,1.85-1.42,1.69,1.69,0,0,1,1.9,1.36,6,6,0,0,1,.05,1.24,4.8,4.8,0,0,1-.06,1.21,1.74,1.74,0,0,1-1.81,1.28,1.81,1.81,0,0,1-1.95-1.19A5.63,5.63,0,0,1,58.24,36Z"/><path class="c" d="M23.42,36a5.89,5.89,0,0,0-.09-1.1,1.78,1.78,0,0,0-1.85-1.42,1.68,1.68,0,0,0-1.9,1.36,5.35,5.35,0,0,0,0,1.24,4.37,4.37,0,0,0,.06,1.21,1.74,1.74,0,0,0,1.81,1.28,1.85,1.85,0,0,0,1.93-1.29A4.8,4.8,0,0,0,23.42,36Z"/><path class="c" d="M31.13,36a6,6,0,0,0-.08-1.1,1.79,1.79,0,0,0-1.86-1.42,1.69,1.69,0,0,0-1.9,1.36,6,6,0,0,0-.05,1.24,4.78,4.78,0,0,0,.07,1.21,1.73,1.73,0,0,0,1.8,1.28,1.87,1.87,0,0,0,1.94-1.29A4.82,4.82,0,0,0,31.13,36Z"/><path class="c" d="M35,36a6,6,0,0,0-.08-1.1,1.79,1.79,0,0,0-1.86-1.42,1.69,1.69,0,0,0-1.9,1.36,6,6,0,0,0-.05,1.24,4.78,4.78,0,0,0,.07,1.21A1.73,1.73,0,0,0,33,38.55a1.87,1.87,0,0,0,1.94-1.29A4.82,4.82,0,0,0,35,36Z"/><path class="c" d="M23.38,36a6,6,0,0,1,.08-1.1,1.79,1.79,0,0,1,1.86-1.42,1.69,1.69,0,0,1,1.9,1.36,6,6,0,0,1,.05,1.24,4.78,4.78,0,0,1-.07,1.21,1.73,1.73,0,0,1-1.8,1.28,1.83,1.83,0,0,1-2-1.19A5.65,5.65,0,0,1,23.38,36Z"/><path class="c" d="M15.64,36a5.89,5.89,0,0,0-.09-1.1,1.77,1.77,0,0,0-1.85-1.42,1.69,1.69,0,0,0-1.9,1.36,6,6,0,0,0-.05,1.24,4.36,4.36,0,0,0,.07,1.21,1.72,1.72,0,0,0,1.8,1.28,1.87,1.87,0,0,0,1.94-1.29A4.82,4.82,0,0,0,15.64,36Z"/><path class="c" d="M19.53,36a6,6,0,0,0-.08-1.1,1.79,1.79,0,0,0-1.86-1.42,1.69,1.69,0,0,0-1.9,1.36,6,6,0,0,0,0,1.24,4.36,4.36,0,0,0,.07,1.21,1.72,1.72,0,0,0,1.8,1.28,1.87,1.87,0,0,0,1.94-1.29A4.82,4.82,0,0,0,19.53,36Z"/><path class="c" d="M7.89,36A6,6,0,0,1,8,34.88a1.78,1.78,0,0,1,1.85-1.42,1.69,1.69,0,0,1,1.91,1.36,6,6,0,0,1,0,1.24,4.37,4.37,0,0,1-.06,1.21A1.73,1.73,0,0,1,9.9,38.55,1.81,1.81,0,0,1,8,37.36,5.65,5.65,0,0,1,7.89,36Z"/><path class="c" d="M35.05,36a6,6,0,0,1,.08-1.1A1.79,1.79,0,0,1,37,33.46a1.69,1.69,0,0,1,1.9,1.36,6,6,0,0,1,0,1.24,4.78,4.78,0,0,1-.07,1.21,1.73,1.73,0,0,1-1.8,1.28,1.81,1.81,0,0,1-2-1.19A5.63,5.63,0,0,1,35.05,36Z"/><path class="d" d="M46.61,22.59a5.85,5.85,0,0,0-.09-1.09,1.77,1.77,0,0,0-1.85-1.42,1.69,1.69,0,0,0-1.9,1.36,5.91,5.91,0,0,0-.05,1.24,4.8,4.8,0,0,0,.06,1.21,1.74,1.74,0,0,0,1.81,1.28,1.89,1.89,0,0,0,1.94-1.3A4.82,4.82,0,0,0,46.61,22.59Z"/><path class="d" d="M54.32,22.59a5.92,5.92,0,0,0-.08-1.09,1.79,1.79,0,0,0-1.86-1.42,1.69,1.69,0,0,0-1.9,1.36,5.91,5.91,0,0,0,0,1.24,4.78,4.78,0,0,0,.07,1.21,1.73,1.73,0,0,0,1.8,1.28,1.88,1.88,0,0,0,1.94-1.3A4.82,4.82,0,0,0,54.32,22.59Z"/><path class="d" d="M58.21,22.59a5.92,5.92,0,0,0-.08-1.09,1.78,1.78,0,0,0-1.85-1.42,1.69,1.69,0,0,0-1.91,1.36,5.91,5.91,0,0,0,0,1.24,4.78,4.78,0,0,0,.07,1.21,1.73,1.73,0,0,0,1.8,1.28,1.88,1.88,0,0,0,1.94-1.3A4.82,4.82,0,0,0,58.21,22.59Z"/><path class="d" d="M46.57,22.59a5.92,5.92,0,0,1,.08-1.09,1.79,1.79,0,0,1,1.86-1.42,1.69,1.69,0,0,1,1.9,1.36,5.91,5.91,0,0,1,.05,1.24,4.78,4.78,0,0,1-.07,1.21,1.73,1.73,0,0,1-1.8,1.28,1.82,1.82,0,0,1-2-1.19A5.71,5.71,0,0,1,46.57,22.59Z"/><path class="d" d="M31.12,22.59A5.85,5.85,0,0,0,31,21.5a1.78,1.78,0,0,0-1.85-1.42,1.68,1.68,0,0,0-1.9,1.36,5.3,5.3,0,0,0-.05,1.24,4.37,4.37,0,0,0,.06,1.21,1.74,1.74,0,0,0,1.81,1.28A1.87,1.87,0,0,0,31,23.87,4.8,4.8,0,0,0,31.12,22.59Z"/><path class="d" d="M38.83,22.59a5.92,5.92,0,0,0-.08-1.09,1.79,1.79,0,0,0-1.86-1.42A1.69,1.69,0,0,0,35,21.44a5.91,5.91,0,0,0-.05,1.24A4.78,4.78,0,0,0,35,23.89a1.73,1.73,0,0,0,1.8,1.28,1.89,1.89,0,0,0,1.94-1.3A4.82,4.82,0,0,0,38.83,22.59Z"/><path class="d" d="M42.72,22.59a5.92,5.92,0,0,0-.08-1.09,1.79,1.79,0,0,0-1.86-1.42,1.69,1.69,0,0,0-1.9,1.36,5.91,5.91,0,0,0-.05,1.24,4.78,4.78,0,0,0,.07,1.21,1.73,1.73,0,0,0,1.8,1.28,1.89,1.89,0,0,0,1.94-1.3A4.82,4.82,0,0,0,42.72,22.59Z"/><path class="d" d="M31.08,22.59a5.92,5.92,0,0,1,.08-1.09A1.78,1.78,0,0,1,33,20.08a1.69,1.69,0,0,1,1.91,1.36,5.36,5.36,0,0,1,0,1.24,4.37,4.37,0,0,1-.06,1.21,1.73,1.73,0,0,1-1.8,1.28,1.83,1.83,0,0,1-2-1.19A5.73,5.73,0,0,1,31.08,22.59Z"/><path class="d" d="M58.24,22.59a5.85,5.85,0,0,1,.09-1.09,1.77,1.77,0,0,1,1.85-1.42,1.69,1.69,0,0,1,1.9,1.36,5.91,5.91,0,0,1,.05,1.24,4.8,4.8,0,0,1-.06,1.21,1.74,1.74,0,0,1-1.81,1.28A1.82,1.82,0,0,1,58.31,24,5.71,5.71,0,0,1,58.24,22.59Z"/><path class="d" d="M.92,22.59A5.85,5.85,0,0,1,1,21.5a1.78,1.78,0,0,1,1.85-1.42,1.68,1.68,0,0,1,1.9,1.36,5.3,5.3,0,0,1,0,1.24,4.37,4.37,0,0,1-.06,1.21,1.74,1.74,0,0,1-1.81,1.28A1.82,1.82,0,0,1,1,24,5.71,5.71,0,0,1,.92,22.59Z"/><path class="d" d="M39.47,56.05A5.92,5.92,0,0,0,39.39,55a1.79,1.79,0,0,0-1.85-1.43,1.7,1.7,0,0,0-1.91,1.37,6,6,0,0,0,0,1.24,4.37,4.37,0,0,0,.06,1.21,1.71,1.71,0,0,0,1.8,1.27,1.86,1.86,0,0,0,1.94-1.29A4.82,4.82,0,0,0,39.47,56.05Z"/><path class="d" d="M47.19,56.05A5.85,5.85,0,0,0,47.1,55a1.78,1.78,0,0,0-1.85-1.43,1.7,1.7,0,0,0-1.9,1.37,5.91,5.91,0,0,0-.05,1.24,4.8,4.8,0,0,0,.06,1.21,1.72,1.72,0,0,0,1.81,1.27,1.87,1.87,0,0,0,1.94-1.29A4.82,4.82,0,0,0,47.19,56.05Z"/><path class="d" d="M51.08,56.05A5.11,5.11,0,0,0,51,55a1.78,1.78,0,0,0-1.85-1.43,1.7,1.7,0,0,0-1.9,1.37,5.91,5.91,0,0,0-.05,1.24,4.36,4.36,0,0,0,.07,1.21,1.7,1.7,0,0,0,1.8,1.27A1.87,1.87,0,0,0,51,57.33,4.82,4.82,0,0,0,51.08,56.05Z"/><path class="d" d="M39.43,56.05A5.85,5.85,0,0,1,39.52,55a1.78,1.78,0,0,1,1.85-1.43,1.7,1.7,0,0,1,1.91,1.37,6,6,0,0,1,0,1.24,4.37,4.37,0,0,1-.06,1.21,1.71,1.71,0,0,1-1.81,1.27,1.81,1.81,0,0,1-2-1.18A5.74,5.74,0,0,1,39.43,56.05Z"/><path class="d" d="M24,56.05A5.92,5.92,0,0,0,23.9,55,1.79,1.79,0,0,0,22,53.53a1.7,1.7,0,0,0-1.9,1.37,5.91,5.91,0,0,0-.05,1.24,4.78,4.78,0,0,0,.07,1.21A1.71,1.71,0,0,0,22,58.62a1.87,1.87,0,0,0,1.94-1.29A4.82,4.82,0,0,0,24,56.05Z"/><path class="d" d="M31.7,56.05A5.85,5.85,0,0,0,31.61,55a1.78,1.78,0,0,0-1.85-1.43,1.7,1.7,0,0,0-1.91,1.37,6,6,0,0,0,0,1.24,4.37,4.37,0,0,0,.06,1.21,1.72,1.72,0,0,0,1.81,1.27,1.85,1.85,0,0,0,1.93-1.29A4.8,4.8,0,0,0,31.7,56.05Z"/><path class="d" d="M35.59,56.05A5.85,5.85,0,0,0,35.5,55a1.78,1.78,0,0,0-1.85-1.43,1.68,1.68,0,0,0-1.9,1.37,5.3,5.3,0,0,0-.05,1.24,4.37,4.37,0,0,0,.06,1.21,1.72,1.72,0,0,0,1.81,1.27,1.85,1.85,0,0,0,1.93-1.29A4.8,4.8,0,0,0,35.59,56.05Z"/><path class="d" d="M23.94,56.05A5.85,5.85,0,0,1,24,55a1.78,1.78,0,0,1,1.85-1.43,1.68,1.68,0,0,1,1.9,1.37,5.3,5.3,0,0,1,0,1.24,4.8,4.8,0,0,1-.06,1.21A1.72,1.72,0,0,1,26,58.62,1.8,1.8,0,0,1,24,57.44,5.74,5.74,0,0,1,23.94,56.05Z"/><path class="d" d="M51.11,56.05A5.92,5.92,0,0,1,51.19,55a1.79,1.79,0,0,1,1.86-1.43A1.7,1.7,0,0,1,55,54.9a5.91,5.91,0,0,1,0,1.24,4.78,4.78,0,0,1-.07,1.21,1.71,1.71,0,0,1-1.8,1.27,1.8,1.8,0,0,1-2-1.18A5.74,5.74,0,0,1,51.11,56.05Z"/><path class="d" d="M5,56.05A5.11,5.11,0,0,1,5.07,55a1.78,1.78,0,0,1,1.85-1.43,1.7,1.7,0,0,1,1.9,1.37,5.91,5.91,0,0,1,0,1.24,4.36,4.36,0,0,1-.07,1.21A1.7,1.7,0,0,1,7,58.62a1.8,1.8,0,0,1-1.95-1.18A5.74,5.74,0,0,1,5,56.05Z"/><path class="e" d="M44.6,15.9a5.85,5.85,0,0,0-.09-1.09,1.77,1.77,0,0,0-1.85-1.43,1.7,1.7,0,0,0-1.91,1.37,6,6,0,0,0,0,1.24,4.3,4.3,0,0,0,.06,1.2,1.71,1.71,0,0,0,1.81,1.28,1.85,1.85,0,0,0,1.93-1.29A4.8,4.8,0,0,0,44.6,15.9Z"/><path class="e" d="M52.31,15.9a5.92,5.92,0,0,0-.08-1.09,1.78,1.78,0,0,0-1.86-1.43,1.7,1.7,0,0,0-1.9,1.37,5.91,5.91,0,0,0,0,1.24,4.29,4.29,0,0,0,.07,1.2,1.7,1.7,0,0,0,1.8,1.28,1.87,1.87,0,0,0,1.94-1.29A4.82,4.82,0,0,0,52.31,15.9Z"/><path class="e" d="M56.2,15.9a5.92,5.92,0,0,0-.08-1.09,1.78,1.78,0,0,0-1.86-1.43,1.7,1.7,0,0,0-1.9,1.37,5.91,5.91,0,0,0,0,1.24,4.7,4.7,0,0,0,.07,1.2,1.71,1.71,0,0,0,1.8,1.28,1.87,1.87,0,0,0,1.94-1.29A4.82,4.82,0,0,0,56.2,15.9Z"/><path class="e" d="M44.56,15.9a5.92,5.92,0,0,1,.08-1.09,1.78,1.78,0,0,1,1.85-1.43,1.7,1.7,0,0,1,1.91,1.37,5.36,5.36,0,0,1,0,1.24,4.3,4.3,0,0,1-.06,1.2,1.71,1.71,0,0,1-1.8,1.28,1.81,1.81,0,0,1-2-1.18A5.75,5.75,0,0,1,44.56,15.9Z"/><path class="e" d="M29.1,15.9A5.92,5.92,0,0,0,29,14.81a1.78,1.78,0,0,0-1.85-1.43,1.7,1.7,0,0,0-1.91,1.37,5.36,5.36,0,0,0,0,1.24,4.3,4.3,0,0,0,.06,1.2,1.71,1.71,0,0,0,1.8,1.28A1.86,1.86,0,0,0,29,17.18,4.82,4.82,0,0,0,29.1,15.9Z"/><path class="e" d="M36.82,15.9a5.85,5.85,0,0,0-.09-1.09,1.77,1.77,0,0,0-1.85-1.43A1.68,1.68,0,0,0,33,14.75a5.3,5.3,0,0,0,0,1.24,4.3,4.3,0,0,0,.06,1.2,1.72,1.72,0,0,0,1.81,1.28,1.87,1.87,0,0,0,1.94-1.29A5.28,5.28,0,0,0,36.82,15.9Z"/><path class="e" d="M40.71,15.9a5.11,5.11,0,0,0-.09-1.09,1.77,1.77,0,0,0-1.85-1.43,1.7,1.7,0,0,0-1.9,1.37,5.91,5.91,0,0,0,0,1.24,4.29,4.29,0,0,0,.07,1.2,1.7,1.7,0,0,0,1.8,1.28,1.87,1.87,0,0,0,1.94-1.29A4.82,4.82,0,0,0,40.71,15.9Z"/><path class="e" d="M29.06,15.9a5.85,5.85,0,0,1,.09-1.09A1.77,1.77,0,0,1,31,13.38a1.68,1.68,0,0,1,1.9,1.37A5.3,5.3,0,0,1,33,16a4.3,4.3,0,0,1-.06,1.2,1.72,1.72,0,0,1-1.81,1.28,1.81,1.81,0,0,1-1.95-1.18A5.74,5.74,0,0,1,29.06,15.9Z"/><path class="e" d="M56.23,15.9a5.92,5.92,0,0,1,.08-1.09,1.78,1.78,0,0,1,1.86-1.43,1.7,1.7,0,0,1,1.9,1.37,5.91,5.91,0,0,1,0,1.24,4.7,4.7,0,0,1-.07,1.2,1.71,1.71,0,0,1-1.8,1.28,1.8,1.8,0,0,1-2-1.18A5.74,5.74,0,0,1,56.23,15.9Z"/><path class="e" d="M.62,15.9A5.92,5.92,0,0,1,.7,14.81a1.78,1.78,0,0,1,1.86-1.43,1.7,1.7,0,0,1,1.9,1.37,5.91,5.91,0,0,1,0,1.24,4.7,4.7,0,0,1-.07,1.2,1.71,1.71,0,0,1-1.8,1.28A1.8,1.8,0,0,1,.69,17.29,5.74,5.74,0,0,1,.62,15.9Z"/><path class="e" d="M43.24,49.36a6,6,0,0,0-.09-1.1,1.78,1.78,0,0,0-1.85-1.42,1.68,1.68,0,0,0-1.9,1.37,5.3,5.3,0,0,0,0,1.24,4.3,4.3,0,0,0,.06,1.2,1.72,1.72,0,0,0,1.81,1.28,1.87,1.87,0,0,0,1.94-1.29A5.28,5.28,0,0,0,43.24,49.36Z"/><path class="e" d="M51,49.36a6.1,6.1,0,0,0-.08-1.1A1.79,1.79,0,0,0,49,46.84a1.7,1.7,0,0,0-1.9,1.37,5.91,5.91,0,0,0,0,1.24,4.7,4.7,0,0,0,.07,1.2,1.71,1.71,0,0,0,1.8,1.28,1.87,1.87,0,0,0,1.94-1.29A4.82,4.82,0,0,0,51,49.36Z"/><path class="e" d="M54.84,49.36a6.1,6.1,0,0,0-.08-1.1,1.79,1.79,0,0,0-1.86-1.42A1.7,1.7,0,0,0,51,48.21a5.91,5.91,0,0,0,0,1.24,4.7,4.7,0,0,0,.07,1.2,1.71,1.71,0,0,0,1.8,1.28,1.87,1.87,0,0,0,1.94-1.29A4.82,4.82,0,0,0,54.84,49.36Z"/><path class="e" d="M43.2,49.36a6.1,6.1,0,0,1,.08-1.1,1.79,1.79,0,0,1,1.86-1.42A1.7,1.7,0,0,1,47,48.21a5.91,5.91,0,0,1,.05,1.24,4.7,4.7,0,0,1-.07,1.2,1.71,1.71,0,0,1-1.8,1.28,1.8,1.8,0,0,1-1.95-1.18A5.74,5.74,0,0,1,43.2,49.36Z"/><path class="e" d="M27.75,49.36a6,6,0,0,0-.09-1.1,1.78,1.78,0,0,0-1.85-1.42,1.7,1.7,0,0,0-1.91,1.37,6,6,0,0,0,0,1.24,4.3,4.3,0,0,0,.06,1.2,1.71,1.71,0,0,0,1.81,1.28,1.85,1.85,0,0,0,1.93-1.29A4.8,4.8,0,0,0,27.75,49.36Z"/><path class="e" d="M35.46,49.36a6.1,6.1,0,0,0-.08-1.1,1.79,1.79,0,0,0-1.86-1.42,1.7,1.7,0,0,0-1.9,1.37,5.91,5.91,0,0,0-.05,1.24,4.29,4.29,0,0,0,.07,1.2,1.7,1.7,0,0,0,1.8,1.28,1.87,1.87,0,0,0,1.94-1.29A4.82,4.82,0,0,0,35.46,49.36Z"/><path class="e" d="M39.35,49.36a6.1,6.1,0,0,0-.08-1.1,1.79,1.79,0,0,0-1.86-1.42,1.7,1.7,0,0,0-1.9,1.37,5.91,5.91,0,0,0,0,1.24,4.7,4.7,0,0,0,.07,1.2,1.71,1.71,0,0,0,1.8,1.28,1.87,1.87,0,0,0,1.94-1.29A4.82,4.82,0,0,0,39.35,49.36Z"/><path class="e" d="M27.71,49.36a6.1,6.1,0,0,1,.08-1.1,1.78,1.78,0,0,1,1.85-1.42,1.7,1.7,0,0,1,1.91,1.37,6,6,0,0,1,0,1.24,4.3,4.3,0,0,1-.06,1.2,1.71,1.71,0,0,1-1.81,1.28,1.81,1.81,0,0,1-1.95-1.18A5.75,5.75,0,0,1,27.71,49.36Z"/><path class="e" d="M54.87,49.36a5.26,5.26,0,0,1,.09-1.1,1.77,1.77,0,0,1,1.85-1.42,1.7,1.7,0,0,1,1.9,1.37,5.91,5.91,0,0,1,0,1.24,4.29,4.29,0,0,1-.07,1.2,1.7,1.7,0,0,1-1.8,1.28,1.8,1.8,0,0,1-2-1.18A5.74,5.74,0,0,1,54.87,49.36Z"/><path class="e" d="M0,49.36a6.1,6.1,0,0,1,.08-1.1A1.79,1.79,0,0,1,2,46.84a1.7,1.7,0,0,1,1.9,1.37,5.91,5.91,0,0,1,0,1.24,4.7,4.7,0,0,1-.07,1.2A1.71,1.71,0,0,1,2,51.93,1.8,1.8,0,0,1,.08,50.75,5.74,5.74,0,0,1,0,49.36Z"/><path class="a" d="M38.76,9.21a6,6,0,0,0-.09-1.1,1.78,1.78,0,0,0-1.85-1.42,1.68,1.68,0,0,0-1.9,1.36,5.41,5.41,0,0,0-.05,1.25,4.32,4.32,0,0,0,.06,1.2,1.73,1.73,0,0,0,1.81,1.28,1.85,1.85,0,0,0,1.93-1.29A4.8,4.8,0,0,0,38.76,9.21Z"/><path class="a" d="M46.47,9.21a6.1,6.1,0,0,0-.08-1.1,1.79,1.79,0,0,0-1.86-1.42,1.7,1.7,0,0,0-1.9,1.36,6,6,0,0,0-.05,1.25,4.73,4.73,0,0,0,.07,1.2,1.72,1.72,0,0,0,1.8,1.28,1.87,1.87,0,0,0,1.94-1.29A4.82,4.82,0,0,0,46.47,9.21Z"/><path class="a" d="M50.36,9.21a6.1,6.1,0,0,0-.08-1.1,1.79,1.79,0,0,0-1.86-1.42,1.7,1.7,0,0,0-1.9,1.36,6,6,0,0,0-.05,1.25,4.73,4.73,0,0,0,.07,1.2,1.72,1.72,0,0,0,1.8,1.28,1.87,1.87,0,0,0,1.94-1.29A4.82,4.82,0,0,0,50.36,9.21Z"/><path class="a" d="M38.72,9.21a6.1,6.1,0,0,1,.08-1.1,1.79,1.79,0,0,1,1.86-1.42,1.7,1.7,0,0,1,1.9,1.36,6,6,0,0,1,0,1.25,4.73,4.73,0,0,1-.07,1.2,1.72,1.72,0,0,1-1.8,1.28,1.83,1.83,0,0,1-2-1.19A5.65,5.65,0,0,1,38.72,9.21Z"/><path class="a" d="M23.26,9.21a6.1,6.1,0,0,0-.08-1.1,1.78,1.78,0,0,0-1.85-1.42,1.7,1.7,0,0,0-1.91,1.36,6.12,6.12,0,0,0,0,1.25,4.32,4.32,0,0,0,.06,1.2,1.72,1.72,0,0,0,1.81,1.28,1.85,1.85,0,0,0,1.93-1.29A4.82,4.82,0,0,0,23.26,9.21Z"/><path class="a" d="M31,9.21a5.26,5.26,0,0,0-.09-1.1A1.77,1.77,0,0,0,29,6.69a1.7,1.7,0,0,0-1.9,1.36,6,6,0,0,0-.05,1.25,4.31,4.31,0,0,0,.07,1.2A1.71,1.71,0,0,0,29,11.78a1.87,1.87,0,0,0,1.94-1.29A4.82,4.82,0,0,0,31,9.21Z"/><path class="a" d="M34.87,9.21a6.1,6.1,0,0,0-.08-1.1,1.79,1.79,0,0,0-1.86-1.42A1.7,1.7,0,0,0,31,8.05,6,6,0,0,0,31,9.3a4.73,4.73,0,0,0,.07,1.2,1.72,1.72,0,0,0,1.8,1.28,1.87,1.87,0,0,0,1.94-1.29A4.82,4.82,0,0,0,34.87,9.21Z"/><path class="a" d="M23.23,9.21a6.1,6.1,0,0,1,.08-1.1,1.78,1.78,0,0,1,1.85-1.42,1.7,1.7,0,0,1,1.91,1.36,6.12,6.12,0,0,1,0,1.25,4.32,4.32,0,0,1-.06,1.2,1.72,1.72,0,0,1-1.81,1.28,1.81,1.81,0,0,1-1.95-1.19A5.65,5.65,0,0,1,23.23,9.21Z"/><path class="a" d="M50.39,9.21a6.1,6.1,0,0,1,.08-1.1,1.79,1.79,0,0,1,1.86-1.42,1.7,1.7,0,0,1,1.9,1.36,6,6,0,0,1,.05,1.25,4.31,4.31,0,0,1-.07,1.2,1.71,1.71,0,0,1-1.8,1.28,1.81,1.81,0,0,1-1.95-1.19A5.63,5.63,0,0,1,50.39,9.21Z"/><path class="a" d="M3.62,9.21a6,6,0,0,1,.09-1.1A1.78,1.78,0,0,1,5.56,6.69a1.68,1.68,0,0,1,1.9,1.36,5.41,5.41,0,0,1,0,1.25,4.32,4.32,0,0,1-.06,1.2,1.73,1.73,0,0,1-1.81,1.28,1.81,1.81,0,0,1-1.95-1.19A5.63,5.63,0,0,1,3.62,9.21Z"/><path class="b" d="M46.61,29.28a5.85,5.85,0,0,0-.09-1.09,1.77,1.77,0,0,0-1.85-1.42,1.69,1.69,0,0,0-1.9,1.36,5.94,5.94,0,0,0-.05,1.24,4.8,4.8,0,0,0,.06,1.21,1.74,1.74,0,0,0,1.81,1.28,1.88,1.88,0,0,0,1.94-1.29A4.89,4.89,0,0,0,46.61,29.28Z"/><path class="b" d="M54.32,29.28a5.92,5.92,0,0,0-.08-1.09,1.79,1.79,0,0,0-1.86-1.42,1.69,1.69,0,0,0-1.9,1.36,5.94,5.94,0,0,0,0,1.24,4.78,4.78,0,0,0,.07,1.21,1.73,1.73,0,0,0,1.8,1.28,1.88,1.88,0,0,0,1.94-1.29A4.89,4.89,0,0,0,54.32,29.28Z"/><path class="b" d="M58.21,29.28a5.92,5.92,0,0,0-.08-1.09,1.78,1.78,0,0,0-1.85-1.42,1.69,1.69,0,0,0-1.91,1.36,5.94,5.94,0,0,0,0,1.24,4.78,4.78,0,0,0,.07,1.21,1.73,1.73,0,0,0,1.8,1.28,1.88,1.88,0,0,0,1.94-1.29A4.89,4.89,0,0,0,58.21,29.28Z"/><path class="b" d="M46.57,29.28a5.92,5.92,0,0,1,.08-1.09,1.79,1.79,0,0,1,1.86-1.42,1.69,1.69,0,0,1,1.9,1.36,5.94,5.94,0,0,1,.05,1.24,4.78,4.78,0,0,1-.07,1.21,1.73,1.73,0,0,1-1.8,1.28,1.82,1.82,0,0,1-2-1.19A5.68,5.68,0,0,1,46.57,29.28Z"/><path class="b" d="M31.12,29.28A5.85,5.85,0,0,0,31,28.19a1.78,1.78,0,0,0-1.85-1.42,1.68,1.68,0,0,0-1.9,1.36,5.33,5.33,0,0,0-.05,1.24,4.37,4.37,0,0,0,.06,1.21,1.74,1.74,0,0,0,1.81,1.28A1.86,1.86,0,0,0,31,30.57,4.88,4.88,0,0,0,31.12,29.28Z"/><path class="b" d="M38.83,29.28a5.92,5.92,0,0,0-.08-1.09,1.79,1.79,0,0,0-1.86-1.42A1.69,1.69,0,0,0,35,28.13a5.94,5.94,0,0,0-.05,1.24A4.78,4.78,0,0,0,35,30.58a1.73,1.73,0,0,0,1.8,1.28,1.88,1.88,0,0,0,1.94-1.29A4.89,4.89,0,0,0,38.83,29.28Z"/><path class="b" d="M42.72,29.28a5.92,5.92,0,0,0-.08-1.09,1.79,1.79,0,0,0-1.86-1.42,1.69,1.69,0,0,0-1.9,1.36,5.94,5.94,0,0,0-.05,1.24,4.78,4.78,0,0,0,.07,1.21,1.73,1.73,0,0,0,1.8,1.28,1.88,1.88,0,0,0,1.94-1.29A4.89,4.89,0,0,0,42.72,29.28Z"/><path class="b" d="M31.08,29.28a5.92,5.92,0,0,1,.08-1.09A1.78,1.78,0,0,1,33,26.77a1.69,1.69,0,0,1,1.91,1.36,5.39,5.39,0,0,1,0,1.24,4.37,4.37,0,0,1-.06,1.21,1.73,1.73,0,0,1-1.8,1.28,1.83,1.83,0,0,1-2-1.19A5.7,5.7,0,0,1,31.08,29.28Z"/><path class="b" d="M58.24,29.28a5.85,5.85,0,0,1,.09-1.09,1.77,1.77,0,0,1,1.85-1.42,1.69,1.69,0,0,1,1.9,1.36,5.94,5.94,0,0,1,.05,1.24,4.8,4.8,0,0,1-.06,1.21,1.74,1.74,0,0,1-1.81,1.28,1.82,1.82,0,0,1-1.95-1.19A5.68,5.68,0,0,1,58.24,29.28Z"/><path class="b" d="M3.65,29.28a5.92,5.92,0,0,1,.08-1.09,1.79,1.79,0,0,1,1.86-1.42,1.69,1.69,0,0,1,1.9,1.36,5.94,5.94,0,0,1,0,1.24,4.78,4.78,0,0,1-.07,1.21,1.73,1.73,0,0,1-1.8,1.28,1.82,1.82,0,0,1-1.95-1.19A5.68,5.68,0,0,1,3.65,29.28Z"/></svg>