<svg xmlns="http://www.w3.org/2000/svg" width="55.99" height="65.32" viewBox="0 0 55.99 65.32"><defs><style>.a{fill:#eb666a;}.b{fill:#ffd69f;}.c{fill:#86aca8;}.d{fill:#fbf175;}.e{fill:#889bcf;}</style></defs><title>Asset 81</title><path class="a" d="M19.39,9.25a5.26,5.26,0,0,1-.09,1.1,1.77,1.77,0,0,1-1.85,1.42,1.7,1.7,0,0,1-1.9-1.36,6,6,0,0,1-.05-1.25A4.29,4.29,0,0,1,15.57,8a1.71,1.71,0,0,1,1.8-1.28A1.87,1.87,0,0,1,19.31,8,4.82,4.82,0,0,1,19.39,9.25Z"/><path class="a" d="M27.1,9.25a6.1,6.1,0,0,1-.08,1.1,1.79,1.79,0,0,1-1.86,1.42,1.7,1.7,0,0,1-1.9-1.36,6,6,0,0,1-.05-1.25A4.7,4.7,0,0,1,23.28,8a1.72,1.72,0,0,1,1.8-1.28A1.87,1.87,0,0,1,27,8,4.82,4.82,0,0,1,27.1,9.25Z"/><path class="a" d="M31,9.25a6.1,6.1,0,0,1-.08,1.1,1.78,1.78,0,0,1-1.85,1.42,1.7,1.7,0,0,1-1.91-1.36,5.48,5.48,0,0,1,0-1.25A4.3,4.3,0,0,1,27.17,8,1.72,1.72,0,0,1,29,6.68,1.86,1.86,0,0,1,30.91,8,4.82,4.82,0,0,1,31,9.25Z"/><path class="a" d="M19.35,9.28a5.92,5.92,0,0,0,.08,1.09,1.79,1.79,0,0,0,1.86,1.43,1.7,1.7,0,0,0,1.9-1.37,5.91,5.91,0,0,0,0-1.24A4.81,4.81,0,0,0,23.17,8a1.71,1.71,0,0,0-1.8-1.27,1.8,1.8,0,0,0-1.95,1.18A5.74,5.74,0,0,0,19.35,9.28Z"/><path class="a" d="M3.9,9.25a6,6,0,0,1-.09,1.1A1.78,1.78,0,0,1,2,11.77a1.68,1.68,0,0,1-1.9-1.36A5.41,5.41,0,0,1,0,9.16,4.3,4.3,0,0,1,.07,8,1.73,1.73,0,0,1,1.88,6.68,1.85,1.85,0,0,1,3.81,8,4.8,4.8,0,0,1,3.9,9.25Z"/><path class="a" d="M11.61,9.25a6.1,6.1,0,0,1-.08,1.1,1.79,1.79,0,0,1-1.86,1.42,1.7,1.7,0,0,1-1.9-1.36,6,6,0,0,1,0-1.25A4.7,4.7,0,0,1,7.79,8a1.72,1.72,0,0,1,1.8-1.28A1.87,1.87,0,0,1,11.53,8,4.82,4.82,0,0,1,11.61,9.25Z"/><path class="a" d="M15.5,9.25a6.1,6.1,0,0,1-.08,1.1,1.79,1.79,0,0,1-1.86,1.42,1.7,1.7,0,0,1-1.9-1.36,6,6,0,0,1-.05-1.25A4.7,4.7,0,0,1,11.68,8a1.72,1.72,0,0,1,1.8-1.28A1.87,1.87,0,0,1,15.42,8,4.82,4.82,0,0,1,15.5,9.25Z"/><path class="a" d="M3.86,9.28a5.92,5.92,0,0,0,.08,1.09A1.79,1.79,0,0,0,5.79,11.8,1.7,1.7,0,0,0,7.7,10.43a5.91,5.91,0,0,0,0-1.24A4.81,4.81,0,0,0,7.68,8a1.71,1.71,0,0,0-1.8-1.27,1.82,1.82,0,0,0-2,1.18A5.75,5.75,0,0,0,3.86,9.28Z"/><path class="a" d="M31,9.28a5.85,5.85,0,0,0,.09,1.09A1.78,1.78,0,0,0,33,11.8a1.69,1.69,0,0,0,1.9-1.37,5.91,5.91,0,0,0,0-1.24A4.82,4.82,0,0,0,34.85,8,1.72,1.72,0,0,0,33,6.71a1.8,1.8,0,0,0-1.95,1.18A5.74,5.74,0,0,0,31,9.28Z"/><path class="a" d="M43.76,9.27a5.92,5.92,0,0,0,.08,1.09,1.79,1.79,0,0,0,1.86,1.42,1.69,1.69,0,0,0,1.9-1.36,5.94,5.94,0,0,0,0-1.24A4.78,4.78,0,0,0,47.58,8a1.73,1.73,0,0,0-1.8-1.28,1.82,1.82,0,0,0-2,1.19A5.68,5.68,0,0,0,43.76,9.27Z"/><path class="b" d="M19.39,16.15a5.11,5.11,0,0,1-.09,1.09,1.77,1.77,0,0,1-1.85,1.42,1.69,1.69,0,0,1-1.9-1.36,5.91,5.91,0,0,1-.05-1.24,4.36,4.36,0,0,1,.07-1.21,1.72,1.72,0,0,1,1.8-1.28,1.89,1.89,0,0,1,1.94,1.3A4.82,4.82,0,0,1,19.39,16.15Z"/><path class="b" d="M27.1,16.15A5.92,5.92,0,0,1,27,17.24a1.79,1.79,0,0,1-1.86,1.42,1.69,1.69,0,0,1-1.9-1.36,5.91,5.91,0,0,1-.05-1.24,4.78,4.78,0,0,1,.07-1.21,1.73,1.73,0,0,1,1.8-1.28A1.88,1.88,0,0,1,27,14.87,4.82,4.82,0,0,1,27.1,16.15Z"/><path class="b" d="M31,16.15a5.92,5.92,0,0,1-.08,1.09,1.78,1.78,0,0,1-1.85,1.42,1.69,1.69,0,0,1-1.91-1.36,5.36,5.36,0,0,1,0-1.24,4.37,4.37,0,0,1,.06-1.21A1.73,1.73,0,0,1,29,13.57a1.88,1.88,0,0,1,1.94,1.3A4.82,4.82,0,0,1,31,16.15Z"/><path class="b" d="M19.35,16.18a5.92,5.92,0,0,0,.08,1.09,1.79,1.79,0,0,0,1.86,1.42,1.69,1.69,0,0,0,1.9-1.36,5.94,5.94,0,0,0,0-1.24,4.78,4.78,0,0,0-.07-1.21,1.73,1.73,0,0,0-1.8-1.28,1.82,1.82,0,0,0-1.95,1.19A5.68,5.68,0,0,0,19.35,16.18Z"/><path class="b" d="M3.9,16.15a5.85,5.85,0,0,1-.09,1.09A1.78,1.78,0,0,1,2,18.66,1.68,1.68,0,0,1,.06,17.3a5.3,5.3,0,0,1,0-1.24,4.37,4.37,0,0,1,.06-1.21,1.74,1.74,0,0,1,1.81-1.28,1.87,1.87,0,0,1,1.93,1.3A4.8,4.8,0,0,1,3.9,16.15Z"/><path class="b" d="M11.61,16.15a5.92,5.92,0,0,1-.08,1.09,1.79,1.79,0,0,1-1.86,1.42,1.69,1.69,0,0,1-1.9-1.36,5.91,5.91,0,0,1,0-1.24,4.78,4.78,0,0,1,.07-1.21,1.73,1.73,0,0,1,1.8-1.28,1.89,1.89,0,0,1,1.94,1.3A4.82,4.82,0,0,1,11.61,16.15Z"/><path class="b" d="M15.5,16.15a5.92,5.92,0,0,1-.08,1.09,1.79,1.79,0,0,1-1.86,1.42,1.69,1.69,0,0,1-1.9-1.36,5.91,5.91,0,0,1-.05-1.24,4.78,4.78,0,0,1,.07-1.21,1.73,1.73,0,0,1,1.8-1.28,1.89,1.89,0,0,1,1.94,1.3A4.82,4.82,0,0,1,15.5,16.15Z"/><path class="b" d="M3.86,16.18a5.92,5.92,0,0,0,.08,1.09,1.78,1.78,0,0,0,1.85,1.42A1.69,1.69,0,0,0,7.7,17.33a5.94,5.94,0,0,0,0-1.24,4.78,4.78,0,0,0-.07-1.21,1.73,1.73,0,0,0-1.8-1.28,1.84,1.84,0,0,0-2,1.19A5.7,5.7,0,0,0,3.86,16.18Z"/><path class="b" d="M31,16.18a5.85,5.85,0,0,0,.09,1.09A1.77,1.77,0,0,0,33,18.69a1.68,1.68,0,0,0,1.9-1.36,5.94,5.94,0,0,0,0-1.24,4.8,4.8,0,0,0-.06-1.21A1.74,1.74,0,0,0,33,13.6a1.82,1.82,0,0,0-1.95,1.19A5.68,5.68,0,0,0,31,16.18Z"/><path class="b" d="M47.22,15.74a5.92,5.92,0,0,0,.08,1.09,1.79,1.79,0,0,0,1.86,1.42,1.69,1.69,0,0,0,1.9-1.36,5.91,5.91,0,0,0,0-1.24A4.78,4.78,0,0,0,51,14.44a1.73,1.73,0,0,0-1.8-1.28,1.82,1.82,0,0,0-2,1.19A5.71,5.71,0,0,0,47.22,15.74Z"/><path class="c" d="M19.39,22.64a5.11,5.11,0,0,1-.09,1.09,1.77,1.77,0,0,1-1.85,1.42,1.69,1.69,0,0,1-1.9-1.36,5.94,5.94,0,0,1-.05-1.24,4.36,4.36,0,0,1,.07-1.21,1.72,1.72,0,0,1,1.8-1.28,1.88,1.88,0,0,1,1.94,1.29A4.89,4.89,0,0,1,19.39,22.64Z"/><path class="c" d="M27.1,22.64A5.92,5.92,0,0,1,27,23.73a1.79,1.79,0,0,1-1.86,1.42,1.69,1.69,0,0,1-1.9-1.36,5.94,5.94,0,0,1-.05-1.24,4.78,4.78,0,0,1,.07-1.21,1.73,1.73,0,0,1,1.8-1.28A1.88,1.88,0,0,1,27,21.35,4.89,4.89,0,0,1,27.1,22.64Z"/><path class="c" d="M31,22.64a5.92,5.92,0,0,1-.08,1.09,1.78,1.78,0,0,1-1.85,1.42,1.69,1.69,0,0,1-1.91-1.36,5.39,5.39,0,0,1,0-1.24,4.37,4.37,0,0,1,.06-1.21A1.73,1.73,0,0,1,29,20.06a1.87,1.87,0,0,1,1.94,1.29A4.89,4.89,0,0,1,31,22.64Z"/><path class="c" d="M19.35,22.66a6,6,0,0,0,.08,1.1,1.79,1.79,0,0,0,1.86,1.42,1.7,1.7,0,0,0,1.9-1.36,6,6,0,0,0,0-1.24,4.78,4.78,0,0,0-.07-1.21,1.73,1.73,0,0,0-1.8-1.28,1.81,1.81,0,0,0-1.95,1.19A5.63,5.63,0,0,0,19.35,22.66Z"/><path class="c" d="M3.9,22.64a5.85,5.85,0,0,1-.09,1.09A1.78,1.78,0,0,1,2,25.15a1.68,1.68,0,0,1-1.9-1.36,5.33,5.33,0,0,1,0-1.24,4.37,4.37,0,0,1,.06-1.21,1.74,1.74,0,0,1,1.81-1.28,1.86,1.86,0,0,1,1.93,1.29A4.88,4.88,0,0,1,3.9,22.64Z"/><path class="c" d="M11.61,22.64a5.92,5.92,0,0,1-.08,1.09,1.79,1.79,0,0,1-1.86,1.42,1.69,1.69,0,0,1-1.9-1.36,5.94,5.94,0,0,1,0-1.24,4.78,4.78,0,0,1,.07-1.21,1.73,1.73,0,0,1,1.8-1.28,1.88,1.88,0,0,1,1.94,1.29A4.89,4.89,0,0,1,11.61,22.64Z"/><path class="c" d="M15.5,22.64a5.92,5.92,0,0,1-.08,1.09,1.79,1.79,0,0,1-1.86,1.42,1.69,1.69,0,0,1-1.9-1.36,5.94,5.94,0,0,1-.05-1.24,4.78,4.78,0,0,1,.07-1.21,1.73,1.73,0,0,1,1.8-1.28,1.88,1.88,0,0,1,1.94,1.29A4.89,4.89,0,0,1,15.5,22.64Z"/><path class="c" d="M3.86,22.66a6,6,0,0,0,.08,1.1,1.78,1.78,0,0,0,1.85,1.42A1.7,1.7,0,0,0,7.7,23.82a6,6,0,0,0,0-1.24,4.78,4.78,0,0,0-.07-1.21,1.73,1.73,0,0,0-1.8-1.28,1.83,1.83,0,0,0-2,1.19A5.65,5.65,0,0,0,3.86,22.66Z"/><path class="c" d="M31,22.66a6,6,0,0,0,.09,1.1A1.77,1.77,0,0,0,33,25.18a1.69,1.69,0,0,0,1.9-1.36,6,6,0,0,0,0-1.24,4.8,4.8,0,0,0-.06-1.21A1.74,1.74,0,0,0,33,20.09a1.81,1.81,0,0,0-1.95,1.19A5.63,5.63,0,0,0,31,22.66Z"/><path class="c" d="M46.23,22.65a5.92,5.92,0,0,0,.08,1.09,1.79,1.79,0,0,0,1.86,1.43,1.7,1.7,0,0,0,1.9-1.37,5.91,5.91,0,0,0,0-1.24,4.81,4.81,0,0,0-.07-1.21,1.71,1.71,0,0,0-1.8-1.27,1.8,1.8,0,0,0-2,1.18A5.74,5.74,0,0,0,46.23,22.65Z"/><path class="c" d="M47.22,56.05A5.92,5.92,0,0,1,47.3,55a1.79,1.79,0,0,1,1.86-1.43,1.7,1.7,0,0,1,1.9,1.37,5.91,5.91,0,0,1,0,1.24A4.78,4.78,0,0,1,51,57.35a1.71,1.71,0,0,1-1.8,1.27,1.8,1.8,0,0,1-2-1.18A5.74,5.74,0,0,1,47.22,56.05Z"/><path class="c" d="M19.39,56.05A5.11,5.11,0,0,0,19.3,55a1.78,1.78,0,0,0-1.85-1.43,1.7,1.7,0,0,0-1.9,1.37,5.91,5.91,0,0,0-.05,1.24,4.36,4.36,0,0,0,.07,1.21,1.7,1.7,0,0,0,1.8,1.27,1.87,1.87,0,0,0,1.94-1.29A4.82,4.82,0,0,0,19.39,56.05Z"/><path class="c" d="M27.1,56.05A5.92,5.92,0,0,0,27,55a1.79,1.79,0,0,0-1.86-1.43,1.7,1.7,0,0,0-1.9,1.37,5.91,5.91,0,0,0-.05,1.24,4.78,4.78,0,0,0,.07,1.21,1.71,1.71,0,0,0,1.8,1.27A1.87,1.87,0,0,0,27,57.33,4.82,4.82,0,0,0,27.1,56.05Z"/><path class="c" d="M31,56.05A5.92,5.92,0,0,0,30.91,55a1.79,1.79,0,0,0-1.85-1.43,1.7,1.7,0,0,0-1.91,1.37,5.36,5.36,0,0,0,0,1.24,4.37,4.37,0,0,0,.06,1.21A1.71,1.71,0,0,0,29,58.62a1.86,1.86,0,0,0,1.94-1.29A4.82,4.82,0,0,0,31,56.05Z"/><path class="c" d="M19.35,56.05A5.92,5.92,0,0,1,19.43,55a1.79,1.79,0,0,1,1.86-1.43,1.7,1.7,0,0,1,1.9,1.37,5.91,5.91,0,0,1,0,1.24,4.78,4.78,0,0,1-.07,1.21,1.71,1.71,0,0,1-1.8,1.27,1.8,1.8,0,0,1-1.95-1.18A5.74,5.74,0,0,1,19.35,56.05Z"/><path class="c" d="M3.9,56.05A5.85,5.85,0,0,0,3.81,55,1.78,1.78,0,0,0,2,53.53,1.68,1.68,0,0,0,.06,54.9a5.3,5.3,0,0,0,0,1.24,4.37,4.37,0,0,0,.06,1.21,1.72,1.72,0,0,0,1.81,1.27,1.85,1.85,0,0,0,1.93-1.29A4.8,4.8,0,0,0,3.9,56.05Z"/><path class="c" d="M11.61,56.05A5.92,5.92,0,0,0,11.53,55a1.79,1.79,0,0,0-1.86-1.43,1.7,1.7,0,0,0-1.9,1.37,5.91,5.91,0,0,0,0,1.24,4.78,4.78,0,0,0,.07,1.21,1.71,1.71,0,0,0,1.8,1.27,1.87,1.87,0,0,0,1.94-1.29A4.82,4.82,0,0,0,11.61,56.05Z"/><path class="c" d="M15.5,56.05A5.92,5.92,0,0,0,15.42,55a1.79,1.79,0,0,0-1.86-1.43,1.7,1.7,0,0,0-1.9,1.37,5.91,5.91,0,0,0-.05,1.24,4.78,4.78,0,0,0,.07,1.21,1.71,1.71,0,0,0,1.8,1.27,1.87,1.87,0,0,0,1.94-1.29A4.82,4.82,0,0,0,15.5,56.05Z"/><path class="c" d="M3.86,56.05A5.92,5.92,0,0,1,3.94,55a1.79,1.79,0,0,1,1.85-1.43A1.7,1.7,0,0,1,7.7,54.9a5.91,5.91,0,0,1,0,1.24,4.78,4.78,0,0,1-.07,1.21,1.71,1.71,0,0,1-1.8,1.27,1.82,1.82,0,0,1-2-1.18A5.75,5.75,0,0,1,3.86,56.05Z"/><path class="c" d="M31,56.05A5.85,5.85,0,0,1,31.11,55,1.78,1.78,0,0,1,33,53.53a1.69,1.69,0,0,1,1.9,1.37,5.91,5.91,0,0,1,0,1.24,4.8,4.8,0,0,1-.06,1.21A1.72,1.72,0,0,1,33,58.62a1.8,1.8,0,0,1-1.95-1.18A5.74,5.74,0,0,1,31,56.05Z"/><path class="b" d="M43.06,49.36a6.1,6.1,0,0,1,.08-1.1A1.79,1.79,0,0,1,45,46.84a1.7,1.7,0,0,1,1.9,1.37A5.91,5.91,0,0,1,47,49.45a4.29,4.29,0,0,1-.07,1.2,1.7,1.7,0,0,1-1.8,1.28,1.8,1.8,0,0,1-1.95-1.18A5.74,5.74,0,0,1,43.06,49.36Z"/><path class="b" d="M19.39,49.36a5.26,5.26,0,0,0-.09-1.1,1.77,1.77,0,0,0-1.85-1.42,1.7,1.7,0,0,0-1.9,1.37,5.91,5.91,0,0,0-.05,1.24,4.29,4.29,0,0,0,.07,1.2,1.7,1.7,0,0,0,1.8,1.28,1.87,1.87,0,0,0,1.94-1.29A4.82,4.82,0,0,0,19.39,49.36Z"/><path class="b" d="M27.1,49.36a6.1,6.1,0,0,0-.08-1.1,1.79,1.79,0,0,0-1.86-1.42,1.7,1.7,0,0,0-1.9,1.37,5.91,5.91,0,0,0-.05,1.24,4.7,4.7,0,0,0,.07,1.2,1.71,1.71,0,0,0,1.8,1.28A1.87,1.87,0,0,0,27,50.64,4.82,4.82,0,0,0,27.1,49.36Z"/><path class="b" d="M31,49.36a6.1,6.1,0,0,0-.08-1.1,1.78,1.78,0,0,0-1.85-1.42,1.7,1.7,0,0,0-1.91,1.37,5.36,5.36,0,0,0,0,1.24,4.3,4.3,0,0,0,.06,1.2A1.71,1.71,0,0,0,29,51.93a1.86,1.86,0,0,0,1.94-1.29A4.82,4.82,0,0,0,31,49.36Z"/><path class="b" d="M19.35,49.36a6.1,6.1,0,0,1,.08-1.1,1.79,1.79,0,0,1,1.86-1.42,1.7,1.7,0,0,1,1.9,1.37,5.91,5.91,0,0,1,0,1.24,4.7,4.7,0,0,1-.07,1.2,1.71,1.71,0,0,1-1.8,1.28,1.8,1.8,0,0,1-1.95-1.18A5.74,5.74,0,0,1,19.35,49.36Z"/><path class="b" d="M3.9,49.36a6,6,0,0,0-.09-1.1A1.78,1.78,0,0,0,2,46.84a1.68,1.68,0,0,0-1.9,1.37,5.3,5.3,0,0,0,0,1.24,4.3,4.3,0,0,0,.06,1.2,1.72,1.72,0,0,0,1.81,1.28,1.85,1.85,0,0,0,1.93-1.29A4.8,4.8,0,0,0,3.9,49.36Z"/><path class="b" d="M11.61,49.36a6.1,6.1,0,0,0-.08-1.1,1.79,1.79,0,0,0-1.86-1.42,1.7,1.7,0,0,0-1.9,1.37,5.91,5.91,0,0,0,0,1.24,4.7,4.7,0,0,0,.07,1.2,1.71,1.71,0,0,0,1.8,1.28,1.87,1.87,0,0,0,1.94-1.29A4.82,4.82,0,0,0,11.61,49.36Z"/><path class="b" d="M15.5,49.36a6.1,6.1,0,0,0-.08-1.1,1.79,1.79,0,0,0-1.86-1.42,1.7,1.7,0,0,0-1.9,1.37,5.91,5.91,0,0,0-.05,1.24,4.7,4.7,0,0,0,.07,1.2,1.71,1.71,0,0,0,1.8,1.28,1.87,1.87,0,0,0,1.94-1.29A4.82,4.82,0,0,0,15.5,49.36Z"/><path class="b" d="M3.86,49.36a6.1,6.1,0,0,1,.08-1.1,1.78,1.78,0,0,1,1.85-1.42A1.7,1.7,0,0,1,7.7,48.21a5.91,5.91,0,0,1,0,1.24,4.7,4.7,0,0,1-.07,1.2,1.71,1.71,0,0,1-1.8,1.28,1.82,1.82,0,0,1-2-1.18A5.75,5.75,0,0,1,3.86,49.36Z"/><path class="b" d="M31,49.36a6,6,0,0,1,.09-1.1,1.78,1.78,0,0,1,1.85-1.42,1.7,1.7,0,0,1,1.91,1.37,6,6,0,0,1,0,1.24,4.3,4.3,0,0,1-.06,1.2A1.72,1.72,0,0,1,33,51.93a1.81,1.81,0,0,1-2-1.18A5.74,5.74,0,0,1,31,49.36Z"/><path class="a" d="M38.73,42.67a6,6,0,0,1,.08-1.1,1.79,1.79,0,0,1,1.86-1.42,1.7,1.7,0,0,1,1.9,1.36,6,6,0,0,1,0,1.24A4.78,4.78,0,0,1,42.55,44a1.73,1.73,0,0,1-1.8,1.28,1.81,1.81,0,0,1-2-1.19A5.63,5.63,0,0,1,38.73,42.67Z"/><path class="a" d="M19.39,42.67a5.2,5.2,0,0,0-.09-1.1,1.77,1.77,0,0,0-1.85-1.42,1.7,1.7,0,0,0-1.9,1.36,6,6,0,0,0-.05,1.24A4.36,4.36,0,0,0,15.57,44a1.72,1.72,0,0,0,1.8,1.28A1.87,1.87,0,0,0,19.31,44,4.82,4.82,0,0,0,19.39,42.67Z"/><path class="a" d="M27.1,42.67a6,6,0,0,0-.08-1.1,1.79,1.79,0,0,0-1.86-1.42,1.7,1.7,0,0,0-1.9,1.36,6,6,0,0,0-.05,1.24A4.78,4.78,0,0,0,23.28,44a1.73,1.73,0,0,0,1.8,1.28A1.87,1.87,0,0,0,27,44,4.82,4.82,0,0,0,27.1,42.67Z"/><path class="a" d="M31,42.67a6,6,0,0,0-.08-1.1,1.78,1.78,0,0,0-1.85-1.42,1.7,1.7,0,0,0-1.91,1.36,5.41,5.41,0,0,0,0,1.24A4.37,4.37,0,0,0,27.17,44,1.73,1.73,0,0,0,29,45.24,1.86,1.86,0,0,0,30.91,44,4.82,4.82,0,0,0,31,42.67Z"/><path class="a" d="M19.35,42.67a6,6,0,0,1,.08-1.1,1.79,1.79,0,0,1,1.86-1.42,1.7,1.7,0,0,1,1.9,1.36,6,6,0,0,1,0,1.24A4.78,4.78,0,0,1,23.17,44a1.73,1.73,0,0,1-1.8,1.28,1.81,1.81,0,0,1-1.95-1.19A5.63,5.63,0,0,1,19.35,42.67Z"/><path class="a" d="M3.9,42.67a6,6,0,0,0-.09-1.1A1.78,1.78,0,0,0,2,40.15a1.68,1.68,0,0,0-1.9,1.36,5.35,5.35,0,0,0,0,1.24A4.37,4.37,0,0,0,.07,44a1.74,1.74,0,0,0,1.81,1.28A1.85,1.85,0,0,0,3.81,44,4.8,4.8,0,0,0,3.9,42.67Z"/><path class="a" d="M11.61,42.67a6,6,0,0,0-.08-1.1,1.79,1.79,0,0,0-1.86-1.42,1.7,1.7,0,0,0-1.9,1.36,6,6,0,0,0,0,1.24A4.78,4.78,0,0,0,7.79,44a1.73,1.73,0,0,0,1.8,1.28A1.87,1.87,0,0,0,11.53,44,4.82,4.82,0,0,0,11.61,42.67Z"/><path class="a" d="M15.5,42.67a6,6,0,0,0-.08-1.1,1.79,1.79,0,0,0-1.86-1.42,1.7,1.7,0,0,0-1.9,1.36,6,6,0,0,0-.05,1.24A4.78,4.78,0,0,0,11.68,44a1.73,1.73,0,0,0,1.8,1.28A1.87,1.87,0,0,0,15.42,44,4.82,4.82,0,0,0,15.5,42.67Z"/><path class="a" d="M3.86,42.67a6,6,0,0,1,.08-1.1,1.78,1.78,0,0,1,1.85-1.42A1.7,1.7,0,0,1,7.7,41.51a6,6,0,0,1,0,1.24A4.78,4.78,0,0,1,7.68,44a1.73,1.73,0,0,1-1.8,1.28,1.83,1.83,0,0,1-2-1.19A5.65,5.65,0,0,1,3.86,42.67Z"/><path class="a" d="M31,42.67a6,6,0,0,1,.09-1.1A1.77,1.77,0,0,1,33,40.15a1.69,1.69,0,0,1,1.9,1.36,6,6,0,0,1,0,1.24A4.8,4.8,0,0,1,34.85,44,1.74,1.74,0,0,1,33,45.24a1.81,1.81,0,0,1-1.95-1.19A5.63,5.63,0,0,1,31,42.67Z"/><path class="d" d="M52.09,62.74a5.85,5.85,0,0,1,.09-1.09A1.78,1.78,0,0,1,54,60.23a1.69,1.69,0,0,1,1.91,1.36,6,6,0,0,1,0,1.24A4.37,4.37,0,0,1,55.92,64a1.73,1.73,0,0,1-1.81,1.28,1.83,1.83,0,0,1-2-1.19A5.68,5.68,0,0,1,52.09,62.74Z"/><path class="d" d="M19.39,62.74a5.11,5.11,0,0,0-.09-1.09,1.77,1.77,0,0,0-1.85-1.42,1.69,1.69,0,0,0-1.9,1.36,5.94,5.94,0,0,0-.05,1.24A4.36,4.36,0,0,0,15.57,64a1.72,1.72,0,0,0,1.8,1.28A1.88,1.88,0,0,0,19.31,64,4.89,4.89,0,0,0,19.39,62.74Z"/><path class="d" d="M27.1,62.74A5.92,5.92,0,0,0,27,61.65a1.79,1.79,0,0,0-1.86-1.42,1.69,1.69,0,0,0-1.9,1.36,5.94,5.94,0,0,0-.05,1.24A4.78,4.78,0,0,0,23.28,64a1.73,1.73,0,0,0,1.8,1.28A1.88,1.88,0,0,0,27,64,4.89,4.89,0,0,0,27.1,62.74Z"/><path class="d" d="M31,62.74a5.92,5.92,0,0,0-.08-1.09,1.78,1.78,0,0,0-1.85-1.42,1.69,1.69,0,0,0-1.91,1.36,5.39,5.39,0,0,0,0,1.24A4.37,4.37,0,0,0,27.17,64,1.73,1.73,0,0,0,29,65.32,1.87,1.87,0,0,0,30.91,64,4.89,4.89,0,0,0,31,62.74Z"/><path class="d" d="M19.35,62.74a5.92,5.92,0,0,1,.08-1.09,1.79,1.79,0,0,1,1.86-1.42,1.69,1.69,0,0,1,1.9,1.36,5.94,5.94,0,0,1,0,1.24A4.78,4.78,0,0,1,23.17,64a1.73,1.73,0,0,1-1.8,1.28,1.82,1.82,0,0,1-1.95-1.19A5.68,5.68,0,0,1,19.35,62.74Z"/><path class="d" d="M3.9,62.74a5.85,5.85,0,0,0-.09-1.09A1.78,1.78,0,0,0,2,60.23a1.68,1.68,0,0,0-1.9,1.36,5.33,5.33,0,0,0,0,1.24A4.37,4.37,0,0,0,.07,64a1.74,1.74,0,0,0,1.81,1.28A1.86,1.86,0,0,0,3.81,64,4.88,4.88,0,0,0,3.9,62.74Z"/><path class="d" d="M11.61,62.74a5.92,5.92,0,0,0-.08-1.09,1.79,1.79,0,0,0-1.86-1.42,1.69,1.69,0,0,0-1.9,1.36,5.94,5.94,0,0,0,0,1.24A4.78,4.78,0,0,0,7.79,64a1.73,1.73,0,0,0,1.8,1.28A1.88,1.88,0,0,0,11.53,64,4.89,4.89,0,0,0,11.61,62.74Z"/><path class="d" d="M15.5,62.74a5.92,5.92,0,0,0-.08-1.09,1.79,1.79,0,0,0-1.86-1.42,1.69,1.69,0,0,0-1.9,1.36,5.94,5.94,0,0,0-.05,1.24A4.78,4.78,0,0,0,11.68,64a1.73,1.73,0,0,0,1.8,1.28A1.88,1.88,0,0,0,15.42,64,4.89,4.89,0,0,0,15.5,62.74Z"/><path class="d" d="M3.86,62.74a5.92,5.92,0,0,1,.08-1.09,1.78,1.78,0,0,1,1.85-1.42A1.69,1.69,0,0,1,7.7,61.59a5.94,5.94,0,0,1,0,1.24A4.78,4.78,0,0,1,7.68,64a1.73,1.73,0,0,1-1.8,1.28,1.84,1.84,0,0,1-2-1.19A5.7,5.7,0,0,1,3.86,62.74Z"/><path class="d" d="M31,62.74a5.85,5.85,0,0,1,.09-1.09A1.77,1.77,0,0,1,33,60.23a1.68,1.68,0,0,1,1.9,1.36,5.94,5.94,0,0,1,0,1.24A4.8,4.8,0,0,1,34.85,64,1.74,1.74,0,0,1,33,65.32a1.82,1.82,0,0,1-1.95-1.19A5.68,5.68,0,0,1,31,62.74Z"/><path class="d" d="M42.9,29.28A5.85,5.85,0,0,1,43,28.19a1.78,1.78,0,0,1,1.85-1.42,1.68,1.68,0,0,1,1.9,1.36,5.33,5.33,0,0,1,0,1.24,4.37,4.37,0,0,1-.06,1.21,1.74,1.74,0,0,1-1.81,1.28,1.82,1.82,0,0,1-2-1.19A5.68,5.68,0,0,1,42.9,29.28Z"/><path class="d" d="M19.39,29.28a5.11,5.11,0,0,0-.09-1.09,1.77,1.77,0,0,0-1.85-1.42,1.69,1.69,0,0,0-1.9,1.36,5.94,5.94,0,0,0-.05,1.24,4.36,4.36,0,0,0,.07,1.21,1.72,1.72,0,0,0,1.8,1.28,1.88,1.88,0,0,0,1.94-1.29A4.89,4.89,0,0,0,19.39,29.28Z"/><path class="d" d="M27.1,29.28A5.92,5.92,0,0,0,27,28.19a1.79,1.79,0,0,0-1.86-1.42,1.69,1.69,0,0,0-1.9,1.36,5.94,5.94,0,0,0-.05,1.24,4.78,4.78,0,0,0,.07,1.21,1.73,1.73,0,0,0,1.8,1.28A1.88,1.88,0,0,0,27,30.57,4.89,4.89,0,0,0,27.1,29.28Z"/><path class="d" d="M31,29.28a5.92,5.92,0,0,0-.08-1.09,1.78,1.78,0,0,0-1.85-1.42,1.69,1.69,0,0,0-1.91,1.36,5.39,5.39,0,0,0,0,1.24,4.37,4.37,0,0,0,.06,1.21A1.73,1.73,0,0,0,29,31.86a1.87,1.87,0,0,0,1.94-1.29A4.89,4.89,0,0,0,31,29.28Z"/><path class="d" d="M19.35,29.28a5.92,5.92,0,0,1,.08-1.09,1.79,1.79,0,0,1,1.86-1.42,1.69,1.69,0,0,1,1.9,1.36,5.94,5.94,0,0,1,0,1.24,4.78,4.78,0,0,1-.07,1.21,1.73,1.73,0,0,1-1.8,1.28,1.82,1.82,0,0,1-1.95-1.19A5.68,5.68,0,0,1,19.35,29.28Z"/><path class="d" d="M3.9,29.28a5.85,5.85,0,0,0-.09-1.09A1.78,1.78,0,0,0,2,26.77a1.68,1.68,0,0,0-1.9,1.36,5.33,5.33,0,0,0,0,1.24,4.37,4.37,0,0,0,.06,1.21,1.74,1.74,0,0,0,1.81,1.28,1.86,1.86,0,0,0,1.93-1.29A4.88,4.88,0,0,0,3.9,29.28Z"/><path class="d" d="M11.61,29.28a5.92,5.92,0,0,0-.08-1.09,1.79,1.79,0,0,0-1.86-1.42,1.69,1.69,0,0,0-1.9,1.36,5.94,5.94,0,0,0,0,1.24,4.78,4.78,0,0,0,.07,1.21,1.73,1.73,0,0,0,1.8,1.28,1.88,1.88,0,0,0,1.94-1.29A4.89,4.89,0,0,0,11.61,29.28Z"/><path class="d" d="M15.5,29.28a5.92,5.92,0,0,0-.08-1.09,1.79,1.79,0,0,0-1.86-1.42,1.69,1.69,0,0,0-1.9,1.36,5.94,5.94,0,0,0-.05,1.24,4.78,4.78,0,0,0,.07,1.21,1.73,1.73,0,0,0,1.8,1.28,1.88,1.88,0,0,0,1.94-1.29A4.89,4.89,0,0,0,15.5,29.28Z"/><path class="d" d="M3.86,29.28a5.92,5.92,0,0,1,.08-1.09,1.78,1.78,0,0,1,1.85-1.42A1.69,1.69,0,0,1,7.7,28.13a5.94,5.94,0,0,1,0,1.24,4.78,4.78,0,0,1-.07,1.21,1.73,1.73,0,0,1-1.8,1.28,1.84,1.84,0,0,1-2-1.19A5.7,5.7,0,0,1,3.86,29.28Z"/><path class="d" d="M31,29.28a5.85,5.85,0,0,1,.09-1.09A1.77,1.77,0,0,1,33,26.77a1.68,1.68,0,0,1,1.9,1.36,5.94,5.94,0,0,1,0,1.24,4.8,4.8,0,0,1-.06,1.21A1.74,1.74,0,0,1,33,31.86a1.82,1.82,0,0,1-1.95-1.19A5.68,5.68,0,0,1,31,29.28Z"/><path class="e" d="M7.78,2.52a6,6,0,0,0-.08-1.1A1.78,1.78,0,0,0,5.85,0,1.7,1.7,0,0,0,3.94,1.36a5.41,5.41,0,0,0,0,1.24A4.37,4.37,0,0,0,4,3.81a1.73,1.73,0,0,0,1.8,1.28A1.86,1.86,0,0,0,7.7,3.8,4.82,4.82,0,0,0,7.78,2.52Z"/><path class="e" d="M15.5,2.52a6,6,0,0,0-.09-1.1A1.78,1.78,0,0,0,13.56,0a1.68,1.68,0,0,0-1.9,1.36,5.35,5.35,0,0,0-.05,1.24,4.37,4.37,0,0,0,.06,1.21,1.74,1.74,0,0,0,1.81,1.28A1.87,1.87,0,0,0,15.42,3.8,5.28,5.28,0,0,0,15.5,2.52Z"/><path class="e" d="M19.39,2.52a5.2,5.2,0,0,0-.09-1.1A1.77,1.77,0,0,0,17.45,0a1.7,1.7,0,0,0-1.9,1.36A6,6,0,0,0,15.5,2.6a4.36,4.36,0,0,0,.07,1.21,1.72,1.72,0,0,0,1.8,1.28A1.87,1.87,0,0,0,19.31,3.8,4.82,4.82,0,0,0,19.39,2.52Z"/><path class="e" d="M7.74,2.52a6,6,0,0,1,.09-1.1A1.78,1.78,0,0,1,9.68,0a1.68,1.68,0,0,1,1.9,1.36,5.35,5.35,0,0,1,.05,1.24,4.37,4.37,0,0,1-.06,1.21A1.74,1.74,0,0,1,9.76,5.09,1.81,1.81,0,0,1,7.81,3.9,5.63,5.63,0,0,1,7.74,2.52Z"/><path class="e" d="M3.9,2.52a6,6,0,0,0-.09-1.1A1.78,1.78,0,0,0,2,0,1.68,1.68,0,0,0,.06,1.36,5.35,5.35,0,0,0,0,2.6,4.37,4.37,0,0,0,.07,3.81,1.74,1.74,0,0,0,1.88,5.09,1.85,1.85,0,0,0,3.81,3.8,4.8,4.8,0,0,0,3.9,2.52Z"/><path class="e" d="M19.42,2.52a6,6,0,0,1,.08-1.1A1.79,1.79,0,0,1,21.36,0a1.7,1.7,0,0,1,1.9,1.36,6,6,0,0,1,0,1.24,4.78,4.78,0,0,1-.07,1.21,1.73,1.73,0,0,1-1.8,1.28,1.83,1.83,0,0,1-2-1.19A5.65,5.65,0,0,1,19.42,2.52Z"/><path class="e" d="M36.13,2.52a6,6,0,0,0-.08-1.1A1.79,1.79,0,0,0,34.19,0a1.7,1.7,0,0,0-1.9,1.36,6,6,0,0,0,0,1.24,4.78,4.78,0,0,0,.07,1.21,1.73,1.73,0,0,0,1.8,1.28A1.87,1.87,0,0,0,36.05,3.8,4.82,4.82,0,0,0,36.13,2.52Z"/><path class="e" d="M40,2.52a6,6,0,0,0-.08-1.1A1.79,1.79,0,0,0,38.08,0a1.7,1.7,0,0,0-1.9,1.36,6,6,0,0,0,0,1.24,4.78,4.78,0,0,0,.07,1.21A1.73,1.73,0,0,0,38,5.09,1.87,1.87,0,0,0,39.94,3.8,4.82,4.82,0,0,0,40,2.52Z"/><path class="e" d="M28.38,2.52a6,6,0,0,1,.08-1.1A1.79,1.79,0,0,1,30.32,0a1.7,1.7,0,0,1,1.9,1.36,6,6,0,0,1,.05,1.24,4.78,4.78,0,0,1-.07,1.21,1.73,1.73,0,0,1-1.8,1.28,1.83,1.83,0,0,1-2-1.19A6.19,6.19,0,0,1,28.38,2.52Z"/><path class="e" d="M40.05,2.52a6,6,0,0,1,.08-1.1A1.79,1.79,0,0,1,42,0a1.7,1.7,0,0,1,1.9,1.36,6,6,0,0,1,0,1.24,4.36,4.36,0,0,1-.07,1.21,1.72,1.72,0,0,1-1.8,1.28,1.81,1.81,0,0,1-2-1.19A5.63,5.63,0,0,1,40.05,2.52Z"/><path class="e" d="M7.78,36a6,6,0,0,0-.08-1.1,1.78,1.78,0,0,0-1.85-1.42,1.69,1.69,0,0,0-1.91,1.36,5.41,5.41,0,0,0,0,1.24A4.37,4.37,0,0,0,4,37.27a1.73,1.73,0,0,0,1.8,1.28A1.86,1.86,0,0,0,7.7,37.26,4.82,4.82,0,0,0,7.78,36Z"/><path class="e" d="M15.5,36a5.89,5.89,0,0,0-.09-1.1,1.78,1.78,0,0,0-1.85-1.42,1.68,1.68,0,0,0-1.9,1.36,5.35,5.35,0,0,0-.05,1.24,4.37,4.37,0,0,0,.06,1.21,1.74,1.74,0,0,0,1.81,1.28,1.87,1.87,0,0,0,1.94-1.29A5.28,5.28,0,0,0,15.5,36Z"/><path class="e" d="M19.39,36a5.15,5.15,0,0,0-.09-1.1,1.77,1.77,0,0,0-1.85-1.42,1.69,1.69,0,0,0-1.9,1.36,6,6,0,0,0-.05,1.24,4.36,4.36,0,0,0,.07,1.21,1.72,1.72,0,0,0,1.8,1.28,1.87,1.87,0,0,0,1.94-1.29A4.82,4.82,0,0,0,19.39,36Z"/><path class="e" d="M7.74,36a5.89,5.89,0,0,1,.09-1.1,1.78,1.78,0,0,1,1.85-1.42,1.68,1.68,0,0,1,1.9,1.36,5.35,5.35,0,0,1,.05,1.24,4.37,4.37,0,0,1-.06,1.21,1.74,1.74,0,0,1-1.81,1.28,1.81,1.81,0,0,1-1.95-1.19A5.63,5.63,0,0,1,7.74,36Z"/><path class="e" d="M3.9,36a5.89,5.89,0,0,0-.09-1.1A1.78,1.78,0,0,0,2,33.46a1.68,1.68,0,0,0-1.9,1.36,5.35,5.35,0,0,0,0,1.24,4.37,4.37,0,0,0,.06,1.21,1.74,1.74,0,0,0,1.81,1.28,1.85,1.85,0,0,0,1.93-1.29A4.8,4.8,0,0,0,3.9,36Z"/><path class="e" d="M19.42,36a6,6,0,0,1,.08-1.1,1.79,1.79,0,0,1,1.86-1.42,1.69,1.69,0,0,1,1.9,1.36,6,6,0,0,1,0,1.24,4.78,4.78,0,0,1-.07,1.21,1.73,1.73,0,0,1-1.8,1.28,1.83,1.83,0,0,1-2-1.19A5.65,5.65,0,0,1,19.42,36Z"/><path class="e" d="M36.65,36a5.89,5.89,0,0,0-.09-1.1,1.78,1.78,0,0,0-1.85-1.42,1.69,1.69,0,0,0-1.91,1.36,6,6,0,0,0,0,1.24,4.37,4.37,0,0,0,.06,1.21,1.73,1.73,0,0,0,1.81,1.28,1.85,1.85,0,0,0,1.93-1.29A4.8,4.8,0,0,0,36.65,36Z"/><path class="e" d="M40.54,36a5.89,5.89,0,0,0-.09-1.1,1.78,1.78,0,0,0-1.85-1.42,1.68,1.68,0,0,0-1.9,1.36,5.35,5.35,0,0,0-.05,1.24,4.37,4.37,0,0,0,.06,1.21,1.74,1.74,0,0,0,1.81,1.28,1.85,1.85,0,0,0,1.93-1.29A4.8,4.8,0,0,0,40.54,36Z"/><path class="e" d="M28.89,36a5.89,5.89,0,0,1,.09-1.1,1.77,1.77,0,0,1,1.85-1.42,1.69,1.69,0,0,1,1.9,1.36,6,6,0,0,1,.05,1.24,4.8,4.8,0,0,1-.06,1.21,1.74,1.74,0,0,1-1.81,1.28A1.81,1.81,0,0,1,29,37.36,5.63,5.63,0,0,1,28.89,36Z"/><path class="e" d="M40.57,36a6,6,0,0,1,.08-1.1,1.78,1.78,0,0,1,1.85-1.42,1.69,1.69,0,0,1,1.91,1.36,6,6,0,0,1,0,1.24,4.37,4.37,0,0,1-.06,1.21,1.73,1.73,0,0,1-1.81,1.28,1.81,1.81,0,0,1-1.95-1.19A5.65,5.65,0,0,1,40.57,36Z"/></svg>