<svg xmlns="http://www.w3.org/2000/svg" width="55.76" height="65.32" viewBox="0 0 55.76 65.32"><defs><style>.a{fill:#889bcf;}.b{fill:#eb666a;}.c{fill:#ffd69f;}.d{fill:#86aca8;}.e{fill:#fbf175;}.f{fill:none;}</style></defs><title>Asset 109</title><path class="a" d="M36.39,2.52a5.2,5.2,0,0,0-.09-1.1A1.77,1.77,0,0,0,34.45,0a1.7,1.7,0,0,0-1.9,1.36,6,6,0,0,0,0,1.24,4.36,4.36,0,0,0,.07,1.21,1.72,1.72,0,0,0,1.8,1.28A1.87,1.87,0,0,0,36.31,3.8,4.82,4.82,0,0,0,36.39,2.52Z"/><path class="a" d="M44.1,2.52A6,6,0,0,0,44,1.42,1.79,1.79,0,0,0,42.16,0a1.7,1.7,0,0,0-1.9,1.36,6,6,0,0,0,0,1.24,4.78,4.78,0,0,0,.07,1.21,1.73,1.73,0,0,0,1.8,1.28A1.87,1.87,0,0,0,44,3.8,4.82,4.82,0,0,0,44.1,2.52Z"/><path class="a" d="M48,2.52a6,6,0,0,0-.08-1.1A1.78,1.78,0,0,0,46.06,0a1.7,1.7,0,0,0-1.91,1.36,5.41,5.41,0,0,0,0,1.24,4.37,4.37,0,0,0,.06,1.21A1.73,1.73,0,0,0,46,5.09,1.86,1.86,0,0,0,47.91,3.8,4.82,4.82,0,0,0,48,2.52Z"/><path class="a" d="M36.35,2.52a6,6,0,0,1,.08-1.1A1.79,1.79,0,0,1,38.29,0a1.7,1.7,0,0,1,1.9,1.36,6,6,0,0,1,.05,1.24,4.78,4.78,0,0,1-.07,1.21,1.73,1.73,0,0,1-1.8,1.28A1.81,1.81,0,0,1,36.42,3.9,5.63,5.63,0,0,1,36.35,2.52Z"/><path class="a" d="M20.9,2.52a6,6,0,0,0-.09-1.1A1.78,1.78,0,0,0,19,0a1.68,1.68,0,0,0-1.9,1.36A5.35,5.35,0,0,0,17,2.6a4.37,4.37,0,0,0,.06,1.21,1.74,1.74,0,0,0,1.81,1.28A1.85,1.85,0,0,0,20.81,3.8,4.8,4.8,0,0,0,20.9,2.52Z"/><path class="a" d="M28.61,2.52a6,6,0,0,0-.08-1.1A1.79,1.79,0,0,0,26.67,0a1.7,1.7,0,0,0-1.9,1.36,6,6,0,0,0-.05,1.24,4.78,4.78,0,0,0,.07,1.21,1.73,1.73,0,0,0,1.8,1.28A1.87,1.87,0,0,0,28.53,3.8,4.82,4.82,0,0,0,28.61,2.52Z"/><path class="a" d="M32.5,2.52a6,6,0,0,0-.08-1.1A1.79,1.79,0,0,0,30.56,0a1.7,1.7,0,0,0-1.9,1.36,6,6,0,0,0-.05,1.24,4.78,4.78,0,0,0,.07,1.21,1.73,1.73,0,0,0,1.8,1.28A1.87,1.87,0,0,0,32.42,3.8,4.82,4.82,0,0,0,32.5,2.52Z"/><path class="a" d="M20.86,2.52a6,6,0,0,1,.08-1.1A1.79,1.79,0,0,1,22.8,0a1.7,1.7,0,0,1,1.9,1.36,6,6,0,0,1,.05,1.24,4.78,4.78,0,0,1-.07,1.21,1.73,1.73,0,0,1-1.8,1.28,1.83,1.83,0,0,1-2-1.19A5.65,5.65,0,0,1,20.86,2.52Z"/><path class="a" d="M48,2.52a6,6,0,0,1,.09-1.1A1.78,1.78,0,0,1,49.91,0a1.7,1.7,0,0,1,1.91,1.36,6,6,0,0,1,0,1.24,4.37,4.37,0,0,1-.06,1.21A1.74,1.74,0,0,1,50,5.09,1.81,1.81,0,0,1,48,3.9,5.63,5.63,0,0,1,48,2.52Z"/><path class="a" d="M51.87,2.52A6,6,0,0,1,52,1.42,1.78,1.78,0,0,1,53.8,0a1.7,1.7,0,0,1,1.91,1.36,6,6,0,0,1,0,1.24,4.37,4.37,0,0,1-.06,1.21,1.73,1.73,0,0,1-1.81,1.28,1.81,1.81,0,0,1-2-1.19A5.65,5.65,0,0,1,51.87,2.52Z"/><path class="b" d="M36.39,42.67a5.2,5.2,0,0,0-.09-1.1,1.77,1.77,0,0,0-1.85-1.42,1.7,1.7,0,0,0-1.9,1.36,6,6,0,0,0,0,1.24A4.36,4.36,0,0,0,32.57,44a1.72,1.72,0,0,0,1.8,1.28A1.87,1.87,0,0,0,36.31,44,4.82,4.82,0,0,0,36.39,42.67Z"/><path class="b" d="M44.1,42.67a6,6,0,0,0-.08-1.1,1.79,1.79,0,0,0-1.86-1.42,1.7,1.7,0,0,0-1.9,1.36,6,6,0,0,0,0,1.24A4.78,4.78,0,0,0,40.28,44a1.73,1.73,0,0,0,1.8,1.28A1.87,1.87,0,0,0,44,44,4.82,4.82,0,0,0,44.1,42.67Z"/><path class="b" d="M48,42.67a6,6,0,0,0-.08-1.1,1.78,1.78,0,0,0-1.85-1.42,1.7,1.7,0,0,0-1.91,1.36,5.41,5.41,0,0,0,0,1.24A4.37,4.37,0,0,0,44.17,44,1.73,1.73,0,0,0,46,45.24,1.86,1.86,0,0,0,47.91,44,4.82,4.82,0,0,0,48,42.67Z"/><path class="b" d="M36.35,42.67a6,6,0,0,1,.08-1.1,1.79,1.79,0,0,1,1.86-1.42,1.7,1.7,0,0,1,1.9,1.36,6,6,0,0,1,.05,1.24A4.78,4.78,0,0,1,40.17,44a1.73,1.73,0,0,1-1.8,1.28,1.81,1.81,0,0,1-1.95-1.19A5.63,5.63,0,0,1,36.35,42.67Z"/><path class="b" d="M20.9,42.67a6,6,0,0,0-.09-1.1A1.78,1.78,0,0,0,19,40.15a1.68,1.68,0,0,0-1.9,1.36,5.35,5.35,0,0,0,0,1.24A4.37,4.37,0,0,0,17.07,44a1.74,1.74,0,0,0,1.81,1.28A1.85,1.85,0,0,0,20.81,44,4.8,4.8,0,0,0,20.9,42.67Z"/><path class="b" d="M28.61,42.67a6,6,0,0,0-.08-1.1,1.79,1.79,0,0,0-1.86-1.42,1.7,1.7,0,0,0-1.9,1.36,6,6,0,0,0-.05,1.24A4.78,4.78,0,0,0,24.79,44a1.73,1.73,0,0,0,1.8,1.28A1.87,1.87,0,0,0,28.53,44,4.82,4.82,0,0,0,28.61,42.67Z"/><path class="b" d="M32.5,42.67a6,6,0,0,0-.08-1.1,1.79,1.79,0,0,0-1.86-1.42,1.7,1.7,0,0,0-1.9,1.36,6,6,0,0,0-.05,1.24A4.78,4.78,0,0,0,28.68,44a1.73,1.73,0,0,0,1.8,1.28A1.87,1.87,0,0,0,32.42,44,4.82,4.82,0,0,0,32.5,42.67Z"/><path class="b" d="M20.86,42.67a6,6,0,0,1,.08-1.1,1.79,1.79,0,0,1,1.86-1.42,1.7,1.7,0,0,1,1.9,1.36,6,6,0,0,1,.05,1.24A4.78,4.78,0,0,1,24.68,44a1.73,1.73,0,0,1-1.8,1.28,1.83,1.83,0,0,1-2-1.19A5.65,5.65,0,0,1,20.86,42.67Z"/><path class="b" d="M48,42.67a6,6,0,0,1,.09-1.1,1.78,1.78,0,0,1,1.85-1.42,1.7,1.7,0,0,1,1.91,1.36,6,6,0,0,1,0,1.24A4.37,4.37,0,0,1,51.8,44,1.74,1.74,0,0,1,50,45.24a1.81,1.81,0,0,1-2-1.19A5.63,5.63,0,0,1,48,42.67Z"/><path class="b" d="M51.87,42.67a6,6,0,0,1,.08-1.1,1.78,1.78,0,0,1,1.85-1.42,1.7,1.7,0,0,1,1.91,1.36,6,6,0,0,1,0,1.24A4.37,4.37,0,0,1,55.69,44a1.73,1.73,0,0,1-1.81,1.28,1.81,1.81,0,0,1-2-1.19A5.65,5.65,0,0,1,51.87,42.67Z"/><path class="c" d="M36.39,49.36a5.26,5.26,0,0,0-.09-1.1,1.77,1.77,0,0,0-1.85-1.42,1.7,1.7,0,0,0-1.9,1.37,5.91,5.91,0,0,0,0,1.24,4.29,4.29,0,0,0,.07,1.2,1.7,1.7,0,0,0,1.8,1.28,1.87,1.87,0,0,0,1.94-1.29A4.82,4.82,0,0,0,36.39,49.36Z"/><path class="c" d="M44.1,49.36a6.1,6.1,0,0,0-.08-1.1,1.79,1.79,0,0,0-1.86-1.42,1.7,1.7,0,0,0-1.9,1.37,5.91,5.91,0,0,0,0,1.24,4.7,4.7,0,0,0,.07,1.2,1.71,1.71,0,0,0,1.8,1.28A1.87,1.87,0,0,0,44,50.64,4.82,4.82,0,0,0,44.1,49.36Z"/><path class="c" d="M48,49.36a6.1,6.1,0,0,0-.08-1.1,1.78,1.78,0,0,0-1.85-1.42,1.7,1.7,0,0,0-1.91,1.37,5.36,5.36,0,0,0,0,1.24,4.3,4.3,0,0,0,.06,1.2A1.71,1.71,0,0,0,46,51.93a1.86,1.86,0,0,0,1.94-1.29A4.82,4.82,0,0,0,48,49.36Z"/><path class="c" d="M36.35,49.36a6.1,6.1,0,0,1,.08-1.1,1.79,1.79,0,0,1,1.86-1.42,1.7,1.7,0,0,1,1.9,1.37,5.91,5.91,0,0,1,.05,1.24,4.7,4.7,0,0,1-.07,1.2,1.71,1.71,0,0,1-1.8,1.28,1.8,1.8,0,0,1-1.95-1.18A5.74,5.74,0,0,1,36.35,49.36Z"/><path class="c" d="M20.9,49.36a6,6,0,0,0-.09-1.1A1.78,1.78,0,0,0,19,46.84a1.68,1.68,0,0,0-1.9,1.37,5.3,5.3,0,0,0,0,1.24,4.3,4.3,0,0,0,.06,1.2,1.72,1.72,0,0,0,1.81,1.28,1.85,1.85,0,0,0,1.93-1.29A4.8,4.8,0,0,0,20.9,49.36Z"/><path class="c" d="M28.61,49.36a6.1,6.1,0,0,0-.08-1.1,1.79,1.79,0,0,0-1.86-1.42,1.7,1.7,0,0,0-1.9,1.37,5.91,5.91,0,0,0-.05,1.24,4.7,4.7,0,0,0,.07,1.2,1.71,1.71,0,0,0,1.8,1.28,1.87,1.87,0,0,0,1.94-1.29A4.82,4.82,0,0,0,28.61,49.36Z"/><path class="c" d="M32.5,49.36a6.1,6.1,0,0,0-.08-1.1,1.79,1.79,0,0,0-1.86-1.42,1.7,1.7,0,0,0-1.9,1.37,5.91,5.91,0,0,0-.05,1.24,4.7,4.7,0,0,0,.07,1.2,1.71,1.71,0,0,0,1.8,1.28,1.87,1.87,0,0,0,1.94-1.29A4.82,4.82,0,0,0,32.5,49.36Z"/><path class="c" d="M20.86,49.36a6.1,6.1,0,0,1,.08-1.1,1.79,1.79,0,0,1,1.86-1.42,1.7,1.7,0,0,1,1.9,1.37,5.91,5.91,0,0,1,.05,1.24,4.7,4.7,0,0,1-.07,1.2,1.71,1.71,0,0,1-1.8,1.28,1.82,1.82,0,0,1-2-1.18A5.75,5.75,0,0,1,20.86,49.36Z"/><path class="c" d="M48,49.36a6,6,0,0,1,.09-1.1,1.78,1.78,0,0,1,1.85-1.42,1.7,1.7,0,0,1,1.91,1.37,6,6,0,0,1,0,1.24,4.3,4.3,0,0,1-.06,1.2A1.72,1.72,0,0,1,50,51.93a1.81,1.81,0,0,1-2-1.18A5.74,5.74,0,0,1,48,49.36Z"/><path class="c" d="M51.87,49.36a6.1,6.1,0,0,1,.08-1.1,1.78,1.78,0,0,1,1.85-1.42,1.7,1.7,0,0,1,1.91,1.37,6,6,0,0,1,0,1.24,4.3,4.3,0,0,1-.06,1.2,1.71,1.71,0,0,1-1.81,1.28,1.81,1.81,0,0,1-2-1.18A5.75,5.75,0,0,1,51.87,49.36Z"/><path class="d" d="M36.39,56.05A5.11,5.11,0,0,0,36.3,55a1.78,1.78,0,0,0-1.85-1.43,1.7,1.7,0,0,0-1.9,1.37,5.91,5.91,0,0,0,0,1.24,4.36,4.36,0,0,0,.07,1.21,1.7,1.7,0,0,0,1.8,1.27,1.87,1.87,0,0,0,1.94-1.29A4.82,4.82,0,0,0,36.39,56.05Z"/><path class="d" d="M44.1,56.05A5.92,5.92,0,0,0,44,55a1.79,1.79,0,0,0-1.86-1.43,1.7,1.7,0,0,0-1.9,1.37,5.91,5.91,0,0,0,0,1.24,4.78,4.78,0,0,0,.07,1.21,1.71,1.71,0,0,0,1.8,1.27A1.87,1.87,0,0,0,44,57.33,4.82,4.82,0,0,0,44.1,56.05Z"/><path class="d" d="M48,56.05A5.92,5.92,0,0,0,47.91,55a1.79,1.79,0,0,0-1.85-1.43,1.7,1.7,0,0,0-1.91,1.37,5.36,5.36,0,0,0,0,1.24,4.37,4.37,0,0,0,.06,1.21A1.71,1.71,0,0,0,46,58.62a1.86,1.86,0,0,0,1.94-1.29A4.82,4.82,0,0,0,48,56.05Z"/><path class="d" d="M36.35,56.05A5.92,5.92,0,0,1,36.43,55a1.79,1.79,0,0,1,1.86-1.43,1.7,1.7,0,0,1,1.9,1.37,5.91,5.91,0,0,1,.05,1.24,4.78,4.78,0,0,1-.07,1.21,1.71,1.71,0,0,1-1.8,1.27,1.8,1.8,0,0,1-1.95-1.18A5.74,5.74,0,0,1,36.35,56.05Z"/><path class="d" d="M20.9,56.05A5.85,5.85,0,0,0,20.81,55,1.78,1.78,0,0,0,19,53.53a1.68,1.68,0,0,0-1.9,1.37,5.3,5.3,0,0,0,0,1.24,4.37,4.37,0,0,0,.06,1.21,1.72,1.72,0,0,0,1.81,1.27,1.85,1.85,0,0,0,1.93-1.29A4.8,4.8,0,0,0,20.9,56.05Z"/><path class="d" d="M28.61,56.05A5.92,5.92,0,0,0,28.53,55a1.79,1.79,0,0,0-1.86-1.43,1.7,1.7,0,0,0-1.9,1.37,5.91,5.91,0,0,0-.05,1.24,4.78,4.78,0,0,0,.07,1.21,1.71,1.71,0,0,0,1.8,1.27,1.87,1.87,0,0,0,1.94-1.29A4.82,4.82,0,0,0,28.61,56.05Z"/><path class="d" d="M32.5,56.05A5.92,5.92,0,0,0,32.42,55a1.79,1.79,0,0,0-1.86-1.43,1.7,1.7,0,0,0-1.9,1.37,5.91,5.91,0,0,0-.05,1.24,4.78,4.78,0,0,0,.07,1.21,1.71,1.71,0,0,0,1.8,1.27,1.87,1.87,0,0,0,1.94-1.29A4.82,4.82,0,0,0,32.5,56.05Z"/><path class="d" d="M20.86,56.05A5.92,5.92,0,0,1,20.94,55a1.79,1.79,0,0,1,1.86-1.43,1.7,1.7,0,0,1,1.9,1.37,5.91,5.91,0,0,1,.05,1.24,4.78,4.78,0,0,1-.07,1.21,1.71,1.71,0,0,1-1.8,1.27,1.82,1.82,0,0,1-2-1.18A5.75,5.75,0,0,1,20.86,56.05Z"/><path class="d" d="M48,56.05A5.85,5.85,0,0,1,48.06,55a1.78,1.78,0,0,1,1.85-1.43,1.7,1.7,0,0,1,1.91,1.37,6,6,0,0,1,0,1.24,4.37,4.37,0,0,1-.06,1.21A1.72,1.72,0,0,1,50,58.62a1.81,1.81,0,0,1-2-1.18A5.74,5.74,0,0,1,48,56.05Z"/><path class="d" d="M51.87,56.05A5.92,5.92,0,0,1,52,55a1.78,1.78,0,0,1,1.85-1.43,1.7,1.7,0,0,1,1.91,1.37,6,6,0,0,1,0,1.24,4.37,4.37,0,0,1-.06,1.21,1.71,1.71,0,0,1-1.81,1.27,1.81,1.81,0,0,1-2-1.18A5.75,5.75,0,0,1,51.87,56.05Z"/><path class="e" d="M36.39,62.74a5.11,5.11,0,0,0-.09-1.09,1.77,1.77,0,0,0-1.85-1.42,1.69,1.69,0,0,0-1.9,1.36,5.94,5.94,0,0,0,0,1.24A4.36,4.36,0,0,0,32.57,64a1.72,1.72,0,0,0,1.8,1.28A1.88,1.88,0,0,0,36.31,64,4.89,4.89,0,0,0,36.39,62.74Z"/><path class="e" d="M44.1,62.74A5.92,5.92,0,0,0,44,61.65a1.79,1.79,0,0,0-1.86-1.42,1.69,1.69,0,0,0-1.9,1.36,5.94,5.94,0,0,0,0,1.24A4.78,4.78,0,0,0,40.28,64a1.73,1.73,0,0,0,1.8,1.28A1.88,1.88,0,0,0,44,64,4.89,4.89,0,0,0,44.1,62.74Z"/><path class="e" d="M48,62.74a5.92,5.92,0,0,0-.08-1.09,1.78,1.78,0,0,0-1.85-1.42,1.69,1.69,0,0,0-1.91,1.36,5.39,5.39,0,0,0,0,1.24A4.37,4.37,0,0,0,44.17,64,1.73,1.73,0,0,0,46,65.32,1.87,1.87,0,0,0,47.91,64,4.89,4.89,0,0,0,48,62.74Z"/><path class="e" d="M36.35,62.74a5.92,5.92,0,0,1,.08-1.09,1.79,1.79,0,0,1,1.86-1.42,1.69,1.69,0,0,1,1.9,1.36,5.94,5.94,0,0,1,.05,1.24A4.78,4.78,0,0,1,40.17,64a1.73,1.73,0,0,1-1.8,1.28,1.82,1.82,0,0,1-1.95-1.19A5.68,5.68,0,0,1,36.35,62.74Z"/><path class="e" d="M20.9,62.74a5.85,5.85,0,0,0-.09-1.09A1.78,1.78,0,0,0,19,60.23a1.68,1.68,0,0,0-1.9,1.36,5.33,5.33,0,0,0,0,1.24A4.37,4.37,0,0,0,17.07,64a1.74,1.74,0,0,0,1.81,1.28A1.86,1.86,0,0,0,20.81,64,4.88,4.88,0,0,0,20.9,62.74Z"/><path class="e" d="M28.61,62.74a5.92,5.92,0,0,0-.08-1.09,1.79,1.79,0,0,0-1.86-1.42,1.69,1.69,0,0,0-1.9,1.36,5.94,5.94,0,0,0-.05,1.24A4.78,4.78,0,0,0,24.79,64a1.73,1.73,0,0,0,1.8,1.28A1.88,1.88,0,0,0,28.53,64,4.89,4.89,0,0,0,28.61,62.74Z"/><path class="e" d="M32.5,62.74a5.92,5.92,0,0,0-.08-1.09,1.79,1.79,0,0,0-1.86-1.42,1.69,1.69,0,0,0-1.9,1.36,5.94,5.94,0,0,0-.05,1.24A4.78,4.78,0,0,0,28.68,64a1.73,1.73,0,0,0,1.8,1.28A1.88,1.88,0,0,0,32.42,64,4.89,4.89,0,0,0,32.5,62.74Z"/><path class="e" d="M20.86,62.74a5.92,5.92,0,0,1,.08-1.09,1.79,1.79,0,0,1,1.86-1.42,1.69,1.69,0,0,1,1.9,1.36,5.94,5.94,0,0,1,.05,1.24A4.78,4.78,0,0,1,24.68,64a1.73,1.73,0,0,1-1.8,1.28,1.84,1.84,0,0,1-2-1.19A5.7,5.7,0,0,1,20.86,62.74Z"/><path class="e" d="M48,62.74a5.85,5.85,0,0,1,.09-1.09,1.78,1.78,0,0,1,1.85-1.42,1.69,1.69,0,0,1,1.91,1.36,6,6,0,0,1,0,1.24A4.37,4.37,0,0,1,51.8,64,1.74,1.74,0,0,1,50,65.32a1.83,1.83,0,0,1-2-1.19A5.68,5.68,0,0,1,48,62.74Z"/><path class="e" d="M51.87,62.74A5.92,5.92,0,0,1,52,61.65a1.78,1.78,0,0,1,1.85-1.42,1.69,1.69,0,0,1,1.91,1.36,6,6,0,0,1,0,1.24A4.37,4.37,0,0,1,55.69,64a1.73,1.73,0,0,1-1.81,1.28,1.83,1.83,0,0,1-2-1.19A5.7,5.7,0,0,1,51.87,62.74Z"/><path class="a" d="M48,36a5.89,5.89,0,0,0-.09-1.1A1.78,1.78,0,0,0,46,33.46a1.69,1.69,0,0,0-1.91,1.36,6,6,0,0,0,0,1.24,4.37,4.37,0,0,0,.06,1.21,1.73,1.73,0,0,0,1.81,1.28,1.85,1.85,0,0,0,1.93-1.29A4.8,4.8,0,0,0,48,36Z"/><path class="a" d="M51.84,36a5.89,5.89,0,0,0-.09-1.1,1.78,1.78,0,0,0-1.85-1.42A1.68,1.68,0,0,0,48,34.82a5.35,5.35,0,0,0,0,1.24A4.37,4.37,0,0,0,48,37.27a1.74,1.74,0,0,0,1.81,1.28,1.85,1.85,0,0,0,1.93-1.29A4.8,4.8,0,0,0,51.84,36Z"/><path class="a" d="M51.87,36a6,6,0,0,1,.08-1.1,1.78,1.78,0,0,1,1.85-1.42,1.69,1.69,0,0,1,1.91,1.36,6,6,0,0,1,0,1.24,4.37,4.37,0,0,1-.06,1.21,1.73,1.73,0,0,1-1.81,1.28,1.81,1.81,0,0,1-2-1.19A5.65,5.65,0,0,1,51.87,36Z"/><path class="a" d="M11.67,36a6,6,0,0,0-.08-1.1,1.78,1.78,0,0,0-1.85-1.42,1.69,1.69,0,0,0-1.91,1.36,6,6,0,0,0,0,1.24,4.37,4.37,0,0,0,.06,1.21,1.73,1.73,0,0,0,1.81,1.28,1.85,1.85,0,0,0,1.93-1.29A4.82,4.82,0,0,0,11.67,36Z"/><path class="a" d="M19.39,36a5.15,5.15,0,0,0-.09-1.1,1.77,1.77,0,0,0-1.85-1.42,1.69,1.69,0,0,0-1.9,1.36,6,6,0,0,0-.05,1.24,4.36,4.36,0,0,0,.07,1.21,1.72,1.72,0,0,0,1.8,1.28,1.87,1.87,0,0,0,1.94-1.29A4.82,4.82,0,0,0,19.39,36Z"/><path class="a" d="M23.28,36a6,6,0,0,0-.08-1.1,1.79,1.79,0,0,0-1.86-1.42,1.69,1.69,0,0,0-1.9,1.36,6,6,0,0,0-.05,1.24,4.36,4.36,0,0,0,.07,1.21,1.72,1.72,0,0,0,1.8,1.28,1.87,1.87,0,0,0,1.94-1.29A4.82,4.82,0,0,0,23.28,36Z"/><path class="a" d="M11.64,36a6,6,0,0,1,.08-1.1,1.78,1.78,0,0,1,1.85-1.42,1.69,1.69,0,0,1,1.91,1.36,6,6,0,0,1,0,1.24,4.37,4.37,0,0,1-.06,1.21,1.73,1.73,0,0,1-1.81,1.28,1.81,1.81,0,0,1-2-1.19A5.65,5.65,0,0,1,11.64,36Z"/><path class="a" d="M3.9,36a5.89,5.89,0,0,0-.09-1.1A1.78,1.78,0,0,0,2,33.46a1.68,1.68,0,0,0-1.9,1.36,5.35,5.35,0,0,0,0,1.24,4.37,4.37,0,0,0,.06,1.21,1.74,1.74,0,0,0,1.81,1.28,1.85,1.85,0,0,0,1.93-1.29A4.8,4.8,0,0,0,3.9,36Z"/><path class="a" d="M7.79,36a5.89,5.89,0,0,0-.09-1.1,1.78,1.78,0,0,0-1.85-1.42A1.68,1.68,0,0,0,4,34.82a5.35,5.35,0,0,0-.05,1.24A4.8,4.8,0,0,0,4,37.27a1.74,1.74,0,0,0,1.81,1.28,1.87,1.87,0,0,0,1.94-1.29A4.82,4.82,0,0,0,7.79,36Z"/><path class="a" d="M23.31,36a6,6,0,0,1,.08-1.1,1.79,1.79,0,0,1,1.86-1.42,1.69,1.69,0,0,1,1.9,1.36,6,6,0,0,1,.05,1.24,4.78,4.78,0,0,1-.07,1.21,1.73,1.73,0,0,1-1.8,1.28,1.81,1.81,0,0,1-1.95-1.19A5.63,5.63,0,0,1,23.31,36Z"/><path class="c" d="M40.28,15.9a5.92,5.92,0,0,0-.08-1.09,1.78,1.78,0,0,0-1.86-1.43,1.7,1.7,0,0,0-1.9,1.37,5.91,5.91,0,0,0,0,1.24,4.7,4.7,0,0,0,.07,1.2,1.71,1.71,0,0,0,1.8,1.28,1.87,1.87,0,0,0,1.94-1.29A4.82,4.82,0,0,0,40.28,15.9Z"/><path class="c" d="M48,15.9a5.92,5.92,0,0,0-.08-1.09,1.78,1.78,0,0,0-1.85-1.43,1.7,1.7,0,0,0-1.91,1.37,5.36,5.36,0,0,0,0,1.24,4.3,4.3,0,0,0,.06,1.2A1.71,1.71,0,0,0,46,18.47a1.86,1.86,0,0,0,1.94-1.29A4.82,4.82,0,0,0,48,15.9Z"/><path class="c" d="M51.88,15.9a5.92,5.92,0,0,0-.08-1.09A1.77,1.77,0,0,0,50,13.38,1.7,1.7,0,0,0,48,14.75,6,6,0,0,0,48,16a4.3,4.3,0,0,0,.06,1.2,1.71,1.71,0,0,0,1.81,1.28,1.85,1.85,0,0,0,1.93-1.29A4.82,4.82,0,0,0,51.88,15.9Z"/><path class="c" d="M40.24,15.9a5.92,5.92,0,0,1,.08-1.09,1.78,1.78,0,0,1,1.86-1.43,1.7,1.7,0,0,1,1.9,1.37A5.91,5.91,0,0,1,44.13,16a4.7,4.7,0,0,1-.07,1.2,1.71,1.71,0,0,1-1.8,1.28,1.8,1.8,0,0,1-1.95-1.18A5.74,5.74,0,0,1,40.24,15.9Z"/><path class="c" d="M24.79,15.9a5.85,5.85,0,0,0-.09-1.09,1.77,1.77,0,0,0-1.85-1.43A1.68,1.68,0,0,0,21,14.75,5.3,5.3,0,0,0,20.9,16a4.72,4.72,0,0,0,.06,1.2,1.72,1.72,0,0,0,1.81,1.28,1.87,1.87,0,0,0,1.94-1.29A4.82,4.82,0,0,0,24.79,15.9Z"/><path class="c" d="M32.5,15.9a5.92,5.92,0,0,0-.08-1.09,1.78,1.78,0,0,0-1.86-1.43,1.7,1.7,0,0,0-1.9,1.37A5.91,5.91,0,0,0,28.61,16a4.7,4.7,0,0,0,.07,1.2,1.71,1.71,0,0,0,1.8,1.28,1.87,1.87,0,0,0,1.94-1.29A4.82,4.82,0,0,0,32.5,15.9Z"/><path class="c" d="M36.39,15.9a5.92,5.92,0,0,0-.08-1.09,1.78,1.78,0,0,0-1.86-1.43,1.7,1.7,0,0,0-1.9,1.37,5.91,5.91,0,0,0,0,1.24,4.7,4.7,0,0,0,.07,1.2,1.71,1.71,0,0,0,1.8,1.28,1.87,1.87,0,0,0,1.94-1.29A4.82,4.82,0,0,0,36.39,15.9Z"/><path class="c" d="M24.75,15.9a5.92,5.92,0,0,1,.08-1.09,1.78,1.78,0,0,1,1.86-1.43,1.7,1.7,0,0,1,1.9,1.37A5.91,5.91,0,0,1,28.64,16a4.7,4.7,0,0,1-.07,1.2,1.71,1.71,0,0,1-1.8,1.28,1.8,1.8,0,0,1-1.95-1.18A5.74,5.74,0,0,1,24.75,15.9Z"/><path class="c" d="M51.87,15.9A5.92,5.92,0,0,1,52,14.81a1.77,1.77,0,0,1,1.85-1.43,1.7,1.7,0,0,1,1.91,1.37,6,6,0,0,1,0,1.24,4.3,4.3,0,0,1-.06,1.2,1.71,1.71,0,0,1-1.81,1.28,1.81,1.81,0,0,1-2-1.18A5.75,5.75,0,0,1,51.87,15.9Z"/><path class="c" d="M9.15,15.9a5.11,5.11,0,0,1,.09-1.09,1.77,1.77,0,0,1,1.85-1.43A1.7,1.7,0,0,1,13,14.75,5.91,5.91,0,0,1,13,16a4.29,4.29,0,0,1-.07,1.2,1.7,1.7,0,0,1-1.8,1.28,1.8,1.8,0,0,1-1.95-1.18A5.74,5.74,0,0,1,9.15,15.9Z"/><path class="b" d="M40.23,9.21a6.1,6.1,0,0,0-.08-1.1,1.79,1.79,0,0,0-1.86-1.42,1.7,1.7,0,0,0-1.9,1.36,6,6,0,0,0,0,1.25,4.73,4.73,0,0,0,.07,1.2,1.72,1.72,0,0,0,1.8,1.28,1.87,1.87,0,0,0,1.94-1.29A4.82,4.82,0,0,0,40.23,9.21Z"/><path class="b" d="M48,9.21a6,6,0,0,0-.09-1.1A1.78,1.78,0,0,0,46,6.69,1.7,1.7,0,0,0,44.1,8.05a6.12,6.12,0,0,0,0,1.25,4.32,4.32,0,0,0,.06,1.2,1.72,1.72,0,0,0,1.81,1.28,1.85,1.85,0,0,0,1.93-1.29A4.8,4.8,0,0,0,48,9.21Z"/><path class="b" d="M51.84,9.21a6,6,0,0,0-.09-1.1A1.78,1.78,0,0,0,49.9,6.69,1.68,1.68,0,0,0,48,8.05,5.41,5.41,0,0,0,48,9.3,4.32,4.32,0,0,0,48,10.5a1.73,1.73,0,0,0,1.81,1.28,1.85,1.85,0,0,0,1.93-1.29A4.8,4.8,0,0,0,51.84,9.21Z"/><path class="b" d="M40.19,9.21a6,6,0,0,1,.09-1.1,1.77,1.77,0,0,1,1.85-1.42A1.7,1.7,0,0,1,44,8.05a6,6,0,0,1,0,1.25A4.74,4.74,0,0,1,44,10.5a1.73,1.73,0,0,1-1.81,1.28,1.81,1.81,0,0,1-2-1.19A5.63,5.63,0,0,1,40.19,9.21Z"/><path class="b" d="M24.74,9.21a6.1,6.1,0,0,0-.08-1.1A1.79,1.79,0,0,0,22.8,6.69a1.7,1.7,0,0,0-1.9,1.36,6,6,0,0,0,0,1.25,4.31,4.31,0,0,0,.07,1.2,1.71,1.71,0,0,0,1.8,1.28,1.87,1.87,0,0,0,1.94-1.29A4.82,4.82,0,0,0,24.74,9.21Z"/><path class="b" d="M32.45,9.21a6.1,6.1,0,0,0-.08-1.1,1.78,1.78,0,0,0-1.85-1.42,1.7,1.7,0,0,0-1.91,1.36,5.48,5.48,0,0,0,0,1.25,4.32,4.32,0,0,0,.06,1.2,1.72,1.72,0,0,0,1.8,1.28,1.87,1.87,0,0,0,1.94-1.29A4.82,4.82,0,0,0,32.45,9.21Z"/><path class="b" d="M36.34,9.21a6.1,6.1,0,0,0-.08-1.1,1.78,1.78,0,0,0-1.85-1.42A1.7,1.7,0,0,0,32.5,8.05a6.12,6.12,0,0,0,0,1.25,4.32,4.32,0,0,0,.06,1.2,1.72,1.72,0,0,0,1.81,1.28,1.85,1.85,0,0,0,1.93-1.29A4.82,4.82,0,0,0,36.34,9.21Z"/><path class="b" d="M24.7,9.21a6.1,6.1,0,0,1,.08-1.1,1.79,1.79,0,0,1,1.86-1.42,1.7,1.7,0,0,1,1.9,1.36,6,6,0,0,1,.05,1.25,4.73,4.73,0,0,1-.07,1.2,1.72,1.72,0,0,1-1.8,1.28,1.81,1.81,0,0,1-1.95-1.19A5.63,5.63,0,0,1,24.7,9.21Z"/><path class="b" d="M51.87,9.21A6.1,6.1,0,0,1,52,8.11,1.78,1.78,0,0,1,53.8,6.69a1.7,1.7,0,0,1,1.91,1.36,6.12,6.12,0,0,1,0,1.25,4.32,4.32,0,0,1-.06,1.2,1.72,1.72,0,0,1-1.81,1.28,1.81,1.81,0,0,1-2-1.19A5.65,5.65,0,0,1,51.87,9.21Z"/><path class="b" d="M12.84,9.21a6.1,6.1,0,0,1,.08-1.1,1.79,1.79,0,0,1,1.86-1.42,1.7,1.7,0,0,1,1.9,1.36,6,6,0,0,1,.05,1.25,4.73,4.73,0,0,1-.07,1.2,1.72,1.72,0,0,1-1.8,1.28,1.81,1.81,0,0,1-1.95-1.19A5.63,5.63,0,0,1,12.84,9.21Z"/><path class="e" d="M40.23,29.28a5.92,5.92,0,0,0-.08-1.09,1.79,1.79,0,0,0-1.86-1.42,1.69,1.69,0,0,0-1.9,1.36,5.94,5.94,0,0,0,0,1.24,4.78,4.78,0,0,0,.07,1.21,1.73,1.73,0,0,0,1.8,1.28,1.88,1.88,0,0,0,1.94-1.29A4.89,4.89,0,0,0,40.23,29.28Z"/><path class="e" d="M48,29.28a5.85,5.85,0,0,0-.09-1.09A1.78,1.78,0,0,0,46,26.77a1.69,1.69,0,0,0-1.91,1.36,6,6,0,0,0,0,1.24,4.37,4.37,0,0,0,.06,1.21,1.73,1.73,0,0,0,1.81,1.28,1.86,1.86,0,0,0,1.93-1.29A4.88,4.88,0,0,0,48,29.28Z"/><path class="e" d="M51.84,29.28a5.85,5.85,0,0,0-.09-1.09,1.78,1.78,0,0,0-1.85-1.42A1.68,1.68,0,0,0,48,28.13a5.33,5.33,0,0,0,0,1.24A4.37,4.37,0,0,0,48,30.58a1.74,1.74,0,0,0,1.81,1.28,1.86,1.86,0,0,0,1.93-1.29A4.88,4.88,0,0,0,51.84,29.28Z"/><path class="e" d="M40.19,29.28a5.85,5.85,0,0,1,.09-1.09,1.77,1.77,0,0,1,1.85-1.42A1.69,1.69,0,0,1,44,28.13a5.94,5.94,0,0,1,0,1.24A4.8,4.8,0,0,1,44,30.58a1.74,1.74,0,0,1-1.81,1.28,1.82,1.82,0,0,1-2-1.19A5.68,5.68,0,0,1,40.19,29.28Z"/><path class="e" d="M24.74,29.28a5.92,5.92,0,0,0-.08-1.09,1.79,1.79,0,0,0-1.86-1.42,1.69,1.69,0,0,0-1.9,1.36,5.94,5.94,0,0,0,0,1.24,4.36,4.36,0,0,0,.07,1.21,1.72,1.72,0,0,0,1.8,1.28,1.88,1.88,0,0,0,1.94-1.29A4.89,4.89,0,0,0,24.74,29.28Z"/><path class="e" d="M32.45,29.28a5.92,5.92,0,0,0-.08-1.09,1.78,1.78,0,0,0-1.85-1.42,1.69,1.69,0,0,0-1.91,1.36,5.39,5.39,0,0,0,0,1.24,4.37,4.37,0,0,0,.06,1.21,1.73,1.73,0,0,0,1.8,1.28,1.88,1.88,0,0,0,1.94-1.29A4.89,4.89,0,0,0,32.45,29.28Z"/><path class="e" d="M36.34,29.28a5.92,5.92,0,0,0-.08-1.09,1.78,1.78,0,0,0-1.85-1.42,1.69,1.69,0,0,0-1.91,1.36,6,6,0,0,0,0,1.24,4.37,4.37,0,0,0,.06,1.21,1.73,1.73,0,0,0,1.81,1.28,1.86,1.86,0,0,0,1.93-1.29A4.89,4.89,0,0,0,36.34,29.28Z"/><path class="e" d="M24.7,29.28a5.92,5.92,0,0,1,.08-1.09,1.79,1.79,0,0,1,1.86-1.42,1.69,1.69,0,0,1,1.9,1.36,5.94,5.94,0,0,1,.05,1.24,4.78,4.78,0,0,1-.07,1.21,1.73,1.73,0,0,1-1.8,1.28,1.82,1.82,0,0,1-1.95-1.19A5.68,5.68,0,0,1,24.7,29.28Z"/><path class="e" d="M51.87,29.28A5.92,5.92,0,0,1,52,28.19a1.78,1.78,0,0,1,1.85-1.42,1.69,1.69,0,0,1,1.91,1.36,6,6,0,0,1,0,1.24,4.37,4.37,0,0,1-.06,1.21,1.73,1.73,0,0,1-1.81,1.28,1.83,1.83,0,0,1-2-1.19A5.7,5.7,0,0,1,51.87,29.28Z"/><path class="e" d="M2.78,29.28a5.85,5.85,0,0,1,.09-1.09,1.78,1.78,0,0,1,1.85-1.42,1.68,1.68,0,0,1,1.9,1.36,5.33,5.33,0,0,1,0,1.24,4.37,4.37,0,0,1-.06,1.21A1.74,1.74,0,0,1,4.8,31.86a1.82,1.82,0,0,1-1.95-1.19A5.68,5.68,0,0,1,2.78,29.28Z"/><path class="d" d="M36.39,22.59a5.11,5.11,0,0,0-.09-1.09,1.77,1.77,0,0,0-1.85-1.42,1.69,1.69,0,0,0-1.9,1.36,5.91,5.91,0,0,0,0,1.24,4.36,4.36,0,0,0,.07,1.21,1.72,1.72,0,0,0,1.8,1.28,1.89,1.89,0,0,0,1.94-1.3A4.82,4.82,0,0,0,36.39,22.59Z"/><path class="d" d="M44.1,22.59A5.92,5.92,0,0,0,44,21.5a1.79,1.79,0,0,0-1.86-1.42,1.69,1.69,0,0,0-1.9,1.36,5.91,5.91,0,0,0,0,1.24,4.78,4.78,0,0,0,.07,1.21,1.73,1.73,0,0,0,1.8,1.28A1.88,1.88,0,0,0,44,23.87,4.82,4.82,0,0,0,44.1,22.59Z"/><path class="d" d="M48,22.59a5.92,5.92,0,0,0-.08-1.09,1.78,1.78,0,0,0-1.85-1.42,1.69,1.69,0,0,0-1.91,1.36,5.36,5.36,0,0,0,0,1.24,4.37,4.37,0,0,0,.06,1.21A1.73,1.73,0,0,0,46,25.17a1.88,1.88,0,0,0,1.94-1.3A4.82,4.82,0,0,0,48,22.59Z"/><path class="d" d="M36.35,22.59a5.92,5.92,0,0,1,.08-1.09,1.79,1.79,0,0,1,1.86-1.42,1.69,1.69,0,0,1,1.9,1.36,5.91,5.91,0,0,1,.05,1.24,4.78,4.78,0,0,1-.07,1.21,1.73,1.73,0,0,1-1.8,1.28A1.82,1.82,0,0,1,36.42,24,5.71,5.71,0,0,1,36.35,22.59Z"/><path class="d" d="M28.61,22.59a5.92,5.92,0,0,0-.08-1.09,1.79,1.79,0,0,0-1.86-1.42,1.69,1.69,0,0,0-1.9,1.36,5.91,5.91,0,0,0-.05,1.24,4.78,4.78,0,0,0,.07,1.21,1.73,1.73,0,0,0,1.8,1.28,1.89,1.89,0,0,0,1.94-1.3A4.82,4.82,0,0,0,28.61,22.59Z"/><path class="d" d="M32.5,22.59a5.92,5.92,0,0,0-.08-1.09,1.79,1.79,0,0,0-1.86-1.42,1.69,1.69,0,0,0-1.9,1.36,5.91,5.91,0,0,0-.05,1.24,4.78,4.78,0,0,0,.07,1.21,1.73,1.73,0,0,0,1.8,1.28,1.88,1.88,0,0,0,1.94-1.3A4.82,4.82,0,0,0,32.5,22.59Z"/><path class="d" d="M20.86,22.59a5.92,5.92,0,0,1,.08-1.09,1.79,1.79,0,0,1,1.86-1.42,1.69,1.69,0,0,1,1.9,1.36,5.91,5.91,0,0,1,.05,1.24,4.78,4.78,0,0,1-.07,1.21,1.73,1.73,0,0,1-1.8,1.28,1.84,1.84,0,0,1-2-1.19A5.73,5.73,0,0,1,20.86,22.59Z"/><path class="d" d="M48,22.59a5.85,5.85,0,0,1,.09-1.09,1.78,1.78,0,0,1,1.85-1.42,1.69,1.69,0,0,1,1.91,1.36,6,6,0,0,1,0,1.24,4.37,4.37,0,0,1-.06,1.21A1.74,1.74,0,0,1,50,25.17,1.83,1.83,0,0,1,48,24,5.71,5.71,0,0,1,48,22.59Z"/><path class="d" d="M51.87,22.59A5.92,5.92,0,0,1,52,21.5a1.78,1.78,0,0,1,1.85-1.42,1.69,1.69,0,0,1,1.91,1.36,6,6,0,0,1,0,1.24,4.37,4.37,0,0,1-.06,1.21,1.73,1.73,0,0,1-1.81,1.28,1.83,1.83,0,0,1-2-1.19A5.73,5.73,0,0,1,51.87,22.59Z"/><line class="f" x1="53.19" y1="23.4" x2="53.1" y2="23.48"/><path class="d" d="M6,22.59a5.92,5.92,0,0,1,.08-1.09A1.79,1.79,0,0,1,8,20.08a1.69,1.69,0,0,1,1.9,1.36,5.91,5.91,0,0,1,.05,1.24,4.78,4.78,0,0,1-.07,1.21,1.73,1.73,0,0,1-1.8,1.28,1.84,1.84,0,0,1-2-1.19A5.73,5.73,0,0,1,6,22.59Z"/></svg>