<svg xmlns="http://www.w3.org/2000/svg" width="67.42" height="65.32" viewBox="0 0 67.42 65.32"><defs><style>.a{fill:#eb666a;}.b{fill:#ffd69f;}.c{fill:#86aca8;}.d{fill:#fbf175;}.e{fill:#889bcf;}</style></defs><title>Asset 113</title><path class="a" d="M48.05,9.21A6.1,6.1,0,0,0,48,8.11a1.79,1.79,0,0,0-1.86-1.42,1.7,1.7,0,0,0-1.9,1.36,6,6,0,0,0-.05,1.25,4.73,4.73,0,0,0,.07,1.2A1.72,1.72,0,0,0,46,11.78,1.87,1.87,0,0,0,48,10.49,4.82,4.82,0,0,0,48.05,9.21Z"/><path class="a" d="M55.76,9.21a6.1,6.1,0,0,0-.08-1.1,1.78,1.78,0,0,0-1.85-1.42,1.7,1.7,0,0,0-1.91,1.36,6.12,6.12,0,0,0,0,1.25,4.32,4.32,0,0,0,.06,1.2,1.72,1.72,0,0,0,1.81,1.28,1.85,1.85,0,0,0,1.93-1.29A4.82,4.82,0,0,0,55.76,9.21Z"/><path class="a" d="M59.66,9.21a6,6,0,0,0-.09-1.1,1.78,1.78,0,0,0-1.85-1.42,1.7,1.7,0,0,0-1.91,1.36,6.12,6.12,0,0,0,0,1.25,4.32,4.32,0,0,0,.06,1.2,1.72,1.72,0,0,0,1.81,1.28,1.85,1.85,0,0,0,1.93-1.29A4.8,4.8,0,0,0,59.66,9.21Z"/><path class="a" d="M48,9.21a5.26,5.26,0,0,1,.09-1.1A1.77,1.77,0,0,1,50,6.69a1.7,1.7,0,0,1,1.9,1.36,6,6,0,0,1,0,1.25,4.31,4.31,0,0,1-.07,1.2A1.71,1.71,0,0,1,50,11.78a1.81,1.81,0,0,1-2-1.19A5.63,5.63,0,0,1,48,9.21Z"/><path class="a" d="M32.56,9.21a5.26,5.26,0,0,0-.09-1.1,1.77,1.77,0,0,0-1.85-1.42,1.7,1.7,0,0,0-1.9,1.36,6,6,0,0,0,0,1.25,4.31,4.31,0,0,0,.07,1.2,1.71,1.71,0,0,0,1.8,1.28,1.87,1.87,0,0,0,1.94-1.29A4.82,4.82,0,0,0,32.56,9.21Z"/><path class="a" d="M40.27,9.21a6.1,6.1,0,0,0-.08-1.1,1.79,1.79,0,0,0-1.86-1.42,1.7,1.7,0,0,0-1.9,1.36,6,6,0,0,0,0,1.25,4.73,4.73,0,0,0,.07,1.2,1.72,1.72,0,0,0,1.8,1.28,1.87,1.87,0,0,0,1.94-1.29A4.82,4.82,0,0,0,40.27,9.21Z"/><path class="a" d="M44.16,9.21a6.1,6.1,0,0,0-.08-1.1,1.78,1.78,0,0,0-1.85-1.42,1.7,1.7,0,0,0-1.91,1.36,5.48,5.48,0,0,0,0,1.25,4.32,4.32,0,0,0,.06,1.2,1.72,1.72,0,0,0,1.8,1.28,1.86,1.86,0,0,0,1.94-1.29A4.82,4.82,0,0,0,44.16,9.21Z"/><path class="a" d="M32.52,9.21a6.1,6.1,0,0,1,.08-1.1,1.79,1.79,0,0,1,1.86-1.42,1.7,1.7,0,0,1,1.9,1.36,6,6,0,0,1,0,1.25,4.73,4.73,0,0,1-.07,1.2,1.72,1.72,0,0,1-1.8,1.28,1.81,1.81,0,0,1-1.95-1.19A5.63,5.63,0,0,1,32.52,9.21Z"/><path class="a" d="M59.64,9.21a6.1,6.1,0,0,1,.08-1.1,1.78,1.78,0,0,1,1.85-1.42,1.7,1.7,0,0,1,1.91,1.36,5.48,5.48,0,0,1,0,1.25,4.32,4.32,0,0,1-.06,1.2,1.72,1.72,0,0,1-1.8,1.28,1.82,1.82,0,0,1-2-1.19A5.65,5.65,0,0,1,59.64,9.21Z"/><path class="a" d="M63.53,9.21a6.1,6.1,0,0,1,.08-1.1,1.79,1.79,0,0,1,1.86-1.42,1.7,1.7,0,0,1,1.9,1.36,6,6,0,0,1,0,1.25,4.73,4.73,0,0,1-.07,1.2,1.72,1.72,0,0,1-1.8,1.28,1.83,1.83,0,0,1-2-1.19A5.65,5.65,0,0,1,63.53,9.21Z"/><path class="b" d="M44.85,15.9a5.85,5.85,0,0,0-.09-1.09,1.77,1.77,0,0,0-1.85-1.43A1.68,1.68,0,0,0,41,14.75,5.3,5.3,0,0,0,41,16a4.3,4.3,0,0,0,.06,1.2,1.72,1.72,0,0,0,1.81,1.28,1.85,1.85,0,0,0,1.93-1.29A4.8,4.8,0,0,0,44.85,15.9Z"/><path class="b" d="M52.56,15.9a5.92,5.92,0,0,0-.08-1.09,1.78,1.78,0,0,0-1.86-1.43,1.7,1.7,0,0,0-1.9,1.37,5.91,5.91,0,0,0,0,1.24,4.7,4.7,0,0,0,.07,1.2,1.71,1.71,0,0,0,1.8,1.28,1.87,1.87,0,0,0,1.94-1.29A4.82,4.82,0,0,0,52.56,15.9Z"/><path class="b" d="M56.45,15.9a5.92,5.92,0,0,0-.08-1.09,1.78,1.78,0,0,0-1.86-1.43,1.7,1.7,0,0,0-1.9,1.37,5.91,5.91,0,0,0,0,1.24,4.7,4.7,0,0,0,.07,1.2,1.71,1.71,0,0,0,1.8,1.28,1.87,1.87,0,0,0,1.94-1.29A4.82,4.82,0,0,0,56.45,15.9Z"/><path class="b" d="M44.81,15.9a5.92,5.92,0,0,1,.08-1.09,1.78,1.78,0,0,1,1.85-1.43,1.7,1.7,0,0,1,1.91,1.37A5.91,5.91,0,0,1,48.7,16a4.7,4.7,0,0,1-.07,1.2,1.71,1.71,0,0,1-1.8,1.28,1.82,1.82,0,0,1-2-1.18A5.75,5.75,0,0,1,44.81,15.9Z"/><path class="b" d="M29.35,15.9a5.92,5.92,0,0,0-.08-1.09,1.78,1.78,0,0,0-1.85-1.43,1.7,1.7,0,0,0-1.91,1.37,6,6,0,0,0,0,1.24,4.3,4.3,0,0,0,.06,1.2,1.71,1.71,0,0,0,1.81,1.28,1.85,1.85,0,0,0,1.93-1.29A4.82,4.82,0,0,0,29.35,15.9Z"/><path class="b" d="M37.07,15.9A5.85,5.85,0,0,0,37,14.81a1.77,1.77,0,0,0-1.85-1.43,1.7,1.7,0,0,0-1.9,1.37,5.91,5.91,0,0,0,0,1.24,4.72,4.72,0,0,0,.06,1.2,1.72,1.72,0,0,0,1.81,1.28A1.87,1.87,0,0,0,37,17.18,4.82,4.82,0,0,0,37.07,15.9Z"/><path class="b" d="M41,15.9a5.92,5.92,0,0,0-.08-1.09A1.78,1.78,0,0,0,39,13.38a1.7,1.7,0,0,0-1.9,1.37,5.91,5.91,0,0,0,0,1.24,4.29,4.29,0,0,0,.07,1.2,1.7,1.7,0,0,0,1.8,1.28,1.87,1.87,0,0,0,1.94-1.29A4.82,4.82,0,0,0,41,15.9Z"/><path class="b" d="M29.31,15.9a5.85,5.85,0,0,1,.09-1.09,1.77,1.77,0,0,1,1.85-1.43,1.7,1.7,0,0,1,1.91,1.37,6,6,0,0,1,0,1.24,4.3,4.3,0,0,1-.06,1.2,1.71,1.71,0,0,1-1.81,1.28,1.81,1.81,0,0,1-1.95-1.18A5.74,5.74,0,0,1,29.31,15.9Z"/><path class="b" d="M56.43,15.9a5.85,5.85,0,0,1,.09-1.09,1.77,1.77,0,0,1,1.85-1.43,1.7,1.7,0,0,1,1.9,1.37,5.91,5.91,0,0,1,0,1.24,4.72,4.72,0,0,1-.06,1.2,1.72,1.72,0,0,1-1.81,1.28,1.8,1.8,0,0,1-2-1.18A5.74,5.74,0,0,1,56.43,15.9Z"/><path class="b" d="M60.32,15.9a5.85,5.85,0,0,1,.09-1.09,1.77,1.77,0,0,1,1.85-1.43,1.68,1.68,0,0,1,1.9,1.37,5.3,5.3,0,0,1,0,1.24,4.3,4.3,0,0,1-.06,1.2,1.72,1.72,0,0,1-1.81,1.28,1.8,1.8,0,0,1-2-1.18A5.74,5.74,0,0,1,60.32,15.9Z"/><path class="c" d="M42,22.59a5.92,5.92,0,0,0-.08-1.09A1.79,1.79,0,0,0,40,20.08a1.69,1.69,0,0,0-1.9,1.36,5.91,5.91,0,0,0,0,1.24,4.78,4.78,0,0,0,.07,1.21,1.73,1.73,0,0,0,1.8,1.28,1.89,1.89,0,0,0,1.94-1.3A4.82,4.82,0,0,0,42,22.59Z"/><path class="c" d="M49.66,22.59a5.92,5.92,0,0,0-.08-1.09,1.78,1.78,0,0,0-1.85-1.42,1.69,1.69,0,0,0-1.91,1.36,6,6,0,0,0,0,1.24,4.37,4.37,0,0,0,.06,1.21,1.73,1.73,0,0,0,1.81,1.28,1.87,1.87,0,0,0,1.93-1.3A4.82,4.82,0,0,0,49.66,22.59Z"/><path class="c" d="M53.56,22.59a5.85,5.85,0,0,0-.09-1.09,1.78,1.78,0,0,0-1.85-1.42,1.69,1.69,0,0,0-1.91,1.36,6,6,0,0,0,0,1.24,4.37,4.37,0,0,0,.06,1.21,1.73,1.73,0,0,0,1.81,1.28,1.87,1.87,0,0,0,1.93-1.3A4.8,4.8,0,0,0,53.56,22.59Z"/><path class="c" d="M41.91,22.59A5.11,5.11,0,0,1,42,21.5a1.77,1.77,0,0,1,1.85-1.42,1.69,1.69,0,0,1,1.9,1.36,5.91,5.91,0,0,1,0,1.24,4.36,4.36,0,0,1-.07,1.21,1.72,1.72,0,0,1-1.8,1.28A1.82,1.82,0,0,1,42,24,5.71,5.71,0,0,1,41.91,22.59Z"/><path class="c" d="M26.46,22.59a5.85,5.85,0,0,0-.09-1.09,1.77,1.77,0,0,0-1.85-1.42,1.69,1.69,0,0,0-1.9,1.36,5.91,5.91,0,0,0-.05,1.24,4.36,4.36,0,0,0,.07,1.21,1.72,1.72,0,0,0,1.8,1.28,1.89,1.89,0,0,0,1.94-1.3A4.82,4.82,0,0,0,26.46,22.59Z"/><path class="c" d="M34.17,22.59a5.92,5.92,0,0,0-.08-1.09,1.79,1.79,0,0,0-1.86-1.42,1.69,1.69,0,0,0-1.9,1.36,5.91,5.91,0,0,0,0,1.24,4.78,4.78,0,0,0,.07,1.21,1.73,1.73,0,0,0,1.8,1.28,1.88,1.88,0,0,0,1.94-1.3A4.82,4.82,0,0,0,34.17,22.59Z"/><path class="c" d="M38.06,22.59A5.92,5.92,0,0,0,38,21.5a1.78,1.78,0,0,0-1.85-1.42,1.69,1.69,0,0,0-1.91,1.36,5.36,5.36,0,0,0,0,1.24,4.37,4.37,0,0,0,.06,1.21A1.73,1.73,0,0,0,36,25.17,1.88,1.88,0,0,0,38,23.87,4.82,4.82,0,0,0,38.06,22.59Z"/><path class="c" d="M26.42,22.59a5.92,5.92,0,0,1,.08-1.09,1.79,1.79,0,0,1,1.86-1.42,1.69,1.69,0,0,1,1.9,1.36,5.91,5.91,0,0,1,0,1.24,4.78,4.78,0,0,1-.07,1.21,1.73,1.73,0,0,1-1.8,1.28,1.82,1.82,0,0,1-2-1.19A5.71,5.71,0,0,1,26.42,22.59Z"/><path class="c" d="M53.54,22.59a5.92,5.92,0,0,1,.08-1.09,1.78,1.78,0,0,1,1.85-1.42,1.69,1.69,0,0,1,1.91,1.36,5.36,5.36,0,0,1,0,1.24,4.37,4.37,0,0,1-.06,1.21,1.73,1.73,0,0,1-1.8,1.28,1.83,1.83,0,0,1-2-1.19A5.73,5.73,0,0,1,53.54,22.59Z"/><path class="c" d="M57.43,22.59a5.92,5.92,0,0,1,.08-1.09,1.79,1.79,0,0,1,1.86-1.42,1.69,1.69,0,0,1,1.9,1.36,5.91,5.91,0,0,1,0,1.24,4.78,4.78,0,0,1-.07,1.21,1.73,1.73,0,0,1-1.8,1.28,1.84,1.84,0,0,1-2-1.19A5.73,5.73,0,0,1,57.43,22.59Z"/><path class="d" d="M37,29.28a5.92,5.92,0,0,0-.08-1.09A1.79,1.79,0,0,0,35,26.77a1.69,1.69,0,0,0-1.9,1.36,5.94,5.94,0,0,0,0,1.24,4.78,4.78,0,0,0,.07,1.21A1.73,1.73,0,0,0,35,31.86a1.88,1.88,0,0,0,1.94-1.29A4.89,4.89,0,0,0,37,29.28Z"/><path class="d" d="M44.7,29.28a5.85,5.85,0,0,0-.09-1.09,1.78,1.78,0,0,0-1.85-1.42,1.68,1.68,0,0,0-1.9,1.36,5.33,5.33,0,0,0,0,1.24,4.37,4.37,0,0,0,.06,1.21,1.74,1.74,0,0,0,1.81,1.28,1.86,1.86,0,0,0,1.93-1.29A4.88,4.88,0,0,0,44.7,29.28Z"/><path class="d" d="M48.59,29.28a5.85,5.85,0,0,0-.09-1.09,1.77,1.77,0,0,0-1.85-1.42,1.68,1.68,0,0,0-1.9,1.36,5.33,5.33,0,0,0,0,1.24,4.8,4.8,0,0,0,.06,1.21,1.74,1.74,0,0,0,1.81,1.28,1.88,1.88,0,0,0,1.94-1.29A4.89,4.89,0,0,0,48.59,29.28Z"/><path class="d" d="M36.94,29.28A5.85,5.85,0,0,1,37,28.19a1.78,1.78,0,0,1,1.85-1.42,1.68,1.68,0,0,1,1.9,1.36,5.33,5.33,0,0,1,0,1.24,4.37,4.37,0,0,1-.06,1.21A1.74,1.74,0,0,1,39,31.86a1.82,1.82,0,0,1-2-1.19A5.68,5.68,0,0,1,36.94,29.28Z"/><path class="d" d="M21.49,29.28a5.92,5.92,0,0,0-.08-1.09,1.79,1.79,0,0,0-1.86-1.42,1.69,1.69,0,0,0-1.9,1.36,5.94,5.94,0,0,0,0,1.24,4.78,4.78,0,0,0,.07,1.21,1.73,1.73,0,0,0,1.8,1.28,1.88,1.88,0,0,0,1.94-1.29A4.89,4.89,0,0,0,21.49,29.28Z"/><path class="d" d="M29.2,29.28a5.92,5.92,0,0,0-.08-1.09,1.78,1.78,0,0,0-1.85-1.42,1.69,1.69,0,0,0-1.91,1.36,6,6,0,0,0,0,1.24,4.37,4.37,0,0,0,.06,1.21,1.73,1.73,0,0,0,1.81,1.28,1.86,1.86,0,0,0,1.93-1.29A4.89,4.89,0,0,0,29.2,29.28Z"/><path class="d" d="M33.1,29.28A5.85,5.85,0,0,0,33,28.19a1.78,1.78,0,0,0-1.85-1.42,1.69,1.69,0,0,0-1.91,1.36,6,6,0,0,0,0,1.24,4.37,4.37,0,0,0,.06,1.21,1.73,1.73,0,0,0,1.81,1.28A1.86,1.86,0,0,0,33,30.57,4.88,4.88,0,0,0,33.1,29.28Z"/><path class="d" d="M21.45,29.28a5.11,5.11,0,0,1,.09-1.09,1.77,1.77,0,0,1,1.85-1.42,1.69,1.69,0,0,1,1.9,1.36,5.94,5.94,0,0,1,.05,1.24,4.36,4.36,0,0,1-.07,1.21,1.72,1.72,0,0,1-1.8,1.28,1.82,1.82,0,0,1-1.95-1.19A5.68,5.68,0,0,1,21.45,29.28Z"/><path class="d" d="M48.57,29.28a5.92,5.92,0,0,1,.08-1.09,1.79,1.79,0,0,1,1.86-1.42,1.69,1.69,0,0,1,1.9,1.36,5.94,5.94,0,0,1,.05,1.24,4.78,4.78,0,0,1-.07,1.21,1.73,1.73,0,0,1-1.8,1.28,1.82,1.82,0,0,1-2-1.19A5.68,5.68,0,0,1,48.57,29.28Z"/><path class="d" d="M52.46,29.28a5.92,5.92,0,0,1,.08-1.09,1.79,1.79,0,0,1,1.86-1.42,1.69,1.69,0,0,1,1.9,1.36,5.94,5.94,0,0,1,.05,1.24,4.78,4.78,0,0,1-.07,1.21,1.73,1.73,0,0,1-1.8,1.28,1.82,1.82,0,0,1-1.95-1.19A5.68,5.68,0,0,1,52.46,29.28Z"/><path class="e" d="M33.53,36a6,6,0,0,0-.08-1.1,1.78,1.78,0,0,0-1.85-1.42,1.69,1.69,0,0,0-1.91,1.36,5.41,5.41,0,0,0,0,1.24,4.37,4.37,0,0,0,.06,1.21,1.73,1.73,0,0,0,1.8,1.28,1.86,1.86,0,0,0,1.94-1.29A4.82,4.82,0,0,0,33.53,36Z"/><path class="e" d="M41.25,36a5.89,5.89,0,0,0-.09-1.1,1.78,1.78,0,0,0-1.85-1.42,1.68,1.68,0,0,0-1.9,1.36,5.35,5.35,0,0,0,0,1.24,4.8,4.8,0,0,0,.06,1.21,1.74,1.74,0,0,0,1.81,1.28,1.87,1.87,0,0,0,1.94-1.29A4.82,4.82,0,0,0,41.25,36Z"/><path class="e" d="M45.14,36a5.15,5.15,0,0,0-.09-1.1,1.77,1.77,0,0,0-1.85-1.42,1.69,1.69,0,0,0-1.9,1.36,6,6,0,0,0,0,1.24,4.36,4.36,0,0,0,.07,1.21,1.72,1.72,0,0,0,1.8,1.28,1.87,1.87,0,0,0,1.94-1.29A4.82,4.82,0,0,0,45.14,36Z"/><path class="e" d="M33.49,36a5.89,5.89,0,0,1,.09-1.1,1.78,1.78,0,0,1,1.85-1.42,1.69,1.69,0,0,1,1.91,1.36,6,6,0,0,1,0,1.24,4.37,4.37,0,0,1-.06,1.21,1.74,1.74,0,0,1-1.81,1.28,1.81,1.81,0,0,1-1.95-1.19A5.63,5.63,0,0,1,33.49,36Z"/><path class="e" d="M18,36a6,6,0,0,0-.08-1.1,1.79,1.79,0,0,0-1.86-1.42,1.69,1.69,0,0,0-1.9,1.36,6,6,0,0,0,0,1.24,4.78,4.78,0,0,0,.07,1.21A1.73,1.73,0,0,0,16,38.55,1.87,1.87,0,0,0,18,37.26,4.82,4.82,0,0,0,18,36Z"/><path class="e" d="M25.76,36a5.89,5.89,0,0,0-.09-1.1,1.78,1.78,0,0,0-1.85-1.42,1.69,1.69,0,0,0-1.91,1.36,6,6,0,0,0,0,1.24,4.37,4.37,0,0,0,.06,1.21,1.73,1.73,0,0,0,1.81,1.28,1.85,1.85,0,0,0,1.93-1.29A4.8,4.8,0,0,0,25.76,36Z"/><path class="e" d="M29.65,36a5.89,5.89,0,0,0-.09-1.1,1.78,1.78,0,0,0-1.85-1.42,1.68,1.68,0,0,0-1.9,1.36,5.35,5.35,0,0,0,0,1.24,4.37,4.37,0,0,0,.06,1.21,1.74,1.74,0,0,0,1.81,1.28,1.85,1.85,0,0,0,1.93-1.29A4.8,4.8,0,0,0,29.65,36Z"/><path class="e" d="M18,36a5.89,5.89,0,0,1,.09-1.1,1.77,1.77,0,0,1,1.85-1.42,1.69,1.69,0,0,1,1.9,1.36,6,6,0,0,1,.05,1.24,4.8,4.8,0,0,1-.06,1.21A1.74,1.74,0,0,1,20,38.55a1.81,1.81,0,0,1-1.95-1.19A5.63,5.63,0,0,1,18,36Z"/><path class="e" d="M45.12,36a6,6,0,0,1,.08-1.1,1.79,1.79,0,0,1,1.86-1.42A1.69,1.69,0,0,1,49,34.82a6,6,0,0,1,0,1.24,4.78,4.78,0,0,1-.07,1.21,1.73,1.73,0,0,1-1.8,1.28,1.81,1.81,0,0,1-2-1.19A5.63,5.63,0,0,1,45.12,36Z"/><path class="e" d="M49,36a6,6,0,0,1,.08-1.1A1.79,1.79,0,0,1,51,33.46a1.69,1.69,0,0,1,1.9,1.36,6,6,0,0,1,0,1.24,4.78,4.78,0,0,1-.07,1.21A1.73,1.73,0,0,1,51,38.55a1.81,1.81,0,0,1-2-1.19A5.63,5.63,0,0,1,49,36Z"/><path class="a" d="M30.29,42.67a6,6,0,0,0-.08-1.1,1.79,1.79,0,0,0-1.86-1.42,1.7,1.7,0,0,0-1.9,1.36,6,6,0,0,0-.05,1.24A4.36,4.36,0,0,0,26.47,44a1.72,1.72,0,0,0,1.8,1.28A1.87,1.87,0,0,0,30.21,44,4.82,4.82,0,0,0,30.29,42.67Z"/><path class="a" d="M38,42.67a6,6,0,0,0-.08-1.1,1.78,1.78,0,0,0-1.85-1.42,1.7,1.7,0,0,0-1.91,1.36,6,6,0,0,0,0,1.24A4.78,4.78,0,0,0,34.18,44,1.73,1.73,0,0,0,36,45.24,1.87,1.87,0,0,0,37.92,44,4.82,4.82,0,0,0,38,42.67Z"/><path class="a" d="M41.89,42.67a6,6,0,0,0-.08-1.1A1.78,1.78,0,0,0,40,40.15a1.7,1.7,0,0,0-1.91,1.36,6,6,0,0,0,0,1.24A4.37,4.37,0,0,0,38.07,44a1.73,1.73,0,0,0,1.8,1.28A1.86,1.86,0,0,0,41.81,44,4.82,4.82,0,0,0,41.89,42.67Z"/><path class="a" d="M30.25,42.67a6,6,0,0,1,.08-1.1,1.79,1.79,0,0,1,1.86-1.42,1.7,1.7,0,0,1,1.9,1.36,6,6,0,0,1,0,1.24A4.78,4.78,0,0,1,34.07,44a1.73,1.73,0,0,1-1.8,1.28,1.81,1.81,0,0,1-2-1.19A5.63,5.63,0,0,1,30.25,42.67Z"/><path class="a" d="M14.8,42.67a6,6,0,0,0-.09-1.1,1.78,1.78,0,0,0-1.85-1.42A1.68,1.68,0,0,0,11,41.51a5.35,5.35,0,0,0-.05,1.24A4.37,4.37,0,0,0,11,44a1.74,1.74,0,0,0,1.81,1.28A1.85,1.85,0,0,0,14.71,44,4.8,4.8,0,0,0,14.8,42.67Z"/><path class="a" d="M22.51,42.67a6,6,0,0,0-.08-1.1,1.79,1.79,0,0,0-1.86-1.42,1.7,1.7,0,0,0-1.9,1.36,6,6,0,0,0-.05,1.24A4.78,4.78,0,0,0,18.69,44a1.73,1.73,0,0,0,1.8,1.28A1.87,1.87,0,0,0,22.43,44,4.82,4.82,0,0,0,22.51,42.67Z"/><path class="a" d="M26.4,42.67a6,6,0,0,0-.08-1.1,1.79,1.79,0,0,0-1.86-1.42,1.7,1.7,0,0,0-1.9,1.36,6,6,0,0,0,0,1.24A4.78,4.78,0,0,0,22.58,44a1.73,1.73,0,0,0,1.8,1.28A1.87,1.87,0,0,0,26.32,44,4.82,4.82,0,0,0,26.4,42.67Z"/><path class="a" d="M14.76,42.67a6,6,0,0,1,.08-1.1,1.79,1.79,0,0,1,1.86-1.42,1.7,1.7,0,0,1,1.9,1.36,6,6,0,0,1,0,1.24A4.78,4.78,0,0,1,18.58,44a1.73,1.73,0,0,1-1.8,1.28,1.83,1.83,0,0,1-2-1.19A6.19,6.19,0,0,1,14.76,42.67Z"/><path class="a" d="M41.87,42.67a6,6,0,0,1,.09-1.1,1.78,1.78,0,0,1,1.85-1.42,1.7,1.7,0,0,1,1.91,1.36,6,6,0,0,1,0,1.24A4.37,4.37,0,0,1,45.7,44a1.73,1.73,0,0,1-1.81,1.28,1.81,1.81,0,0,1-2-1.19A5.63,5.63,0,0,1,41.87,42.67Z"/><path class="a" d="M45.77,42.67a6,6,0,0,1,.08-1.1,1.78,1.78,0,0,1,1.85-1.42,1.7,1.7,0,0,1,1.91,1.36,6,6,0,0,1,0,1.24A4.37,4.37,0,0,1,49.59,44a1.73,1.73,0,0,1-1.8,1.28,1.82,1.82,0,0,1-2-1.19A5.65,5.65,0,0,1,45.77,42.67Z"/><path class="b" d="M25,49.36a6.1,6.1,0,0,0-.08-1.1,1.78,1.78,0,0,0-1.85-1.42,1.7,1.7,0,0,0-1.91,1.37,5.36,5.36,0,0,0,0,1.24,4.3,4.3,0,0,0,.06,1.2A1.71,1.71,0,0,0,23,51.93a1.86,1.86,0,0,0,1.94-1.29A4.82,4.82,0,0,0,25,49.36Z"/><path class="b" d="M32.73,49.36a6,6,0,0,0-.09-1.1,1.77,1.77,0,0,0-1.85-1.42,1.68,1.68,0,0,0-1.9,1.37,5.3,5.3,0,0,0-.05,1.24,4.72,4.72,0,0,0,.06,1.2,1.72,1.72,0,0,0,1.81,1.28,1.87,1.87,0,0,0,1.94-1.29A4.82,4.82,0,0,0,32.73,49.36Z"/><path class="b" d="M36.62,49.36a5.26,5.26,0,0,0-.09-1.1,1.77,1.77,0,0,0-1.85-1.42,1.7,1.7,0,0,0-1.9,1.37,5.91,5.91,0,0,0-.05,1.24,4.29,4.29,0,0,0,.07,1.2,1.7,1.7,0,0,0,1.8,1.28,1.87,1.87,0,0,0,1.94-1.29A4.82,4.82,0,0,0,36.62,49.36Z"/><path class="b" d="M25,49.36a6,6,0,0,1,.09-1.1,1.78,1.78,0,0,1,1.85-1.42,1.7,1.7,0,0,1,1.91,1.37,6,6,0,0,1,0,1.24,4.3,4.3,0,0,1-.06,1.2A1.72,1.72,0,0,1,27,51.93,1.81,1.81,0,0,1,25,50.75,5.74,5.74,0,0,1,25,49.36Z"/><path class="b" d="M9.52,49.36a6.1,6.1,0,0,0-.08-1.1,1.79,1.79,0,0,0-1.86-1.42,1.7,1.7,0,0,0-1.9,1.37,5.91,5.91,0,0,0,0,1.24,4.7,4.7,0,0,0,.07,1.2,1.71,1.71,0,0,0,1.8,1.28,1.87,1.87,0,0,0,1.94-1.29A4.82,4.82,0,0,0,9.52,49.36Z"/><path class="b" d="M17.24,49.36a6,6,0,0,0-.09-1.1,1.78,1.78,0,0,0-1.85-1.42,1.7,1.7,0,0,0-1.91,1.37,6,6,0,0,0,0,1.24,4.3,4.3,0,0,0,.06,1.2,1.71,1.71,0,0,0,1.81,1.28,1.85,1.85,0,0,0,1.93-1.29A4.8,4.8,0,0,0,17.24,49.36Z"/><path class="b" d="M21.13,49.36a6,6,0,0,0-.09-1.1,1.78,1.78,0,0,0-1.85-1.42,1.68,1.68,0,0,0-1.9,1.37,5.3,5.3,0,0,0-.05,1.24,4.3,4.3,0,0,0,.06,1.2,1.72,1.72,0,0,0,1.81,1.28A1.85,1.85,0,0,0,21,50.64,4.8,4.8,0,0,0,21.13,49.36Z"/><path class="b" d="M9.48,49.36a6,6,0,0,1,.09-1.1,1.77,1.77,0,0,1,1.85-1.42,1.69,1.69,0,0,1,1.9,1.37,5.91,5.91,0,0,1,0,1.24,4.72,4.72,0,0,1-.06,1.2,1.72,1.72,0,0,1-1.81,1.28,1.8,1.8,0,0,1-1.95-1.18A5.74,5.74,0,0,1,9.48,49.36Z"/><path class="b" d="M36.6,49.36a6.1,6.1,0,0,1,.08-1.1,1.79,1.79,0,0,1,1.86-1.42,1.7,1.7,0,0,1,1.9,1.37,5.91,5.91,0,0,1,.05,1.24,4.7,4.7,0,0,1-.07,1.2,1.71,1.71,0,0,1-1.8,1.28,1.8,1.8,0,0,1-1.95-1.18A5.74,5.74,0,0,1,36.6,49.36Z"/><path class="b" d="M40.49,49.36a6.1,6.1,0,0,1,.08-1.1,1.79,1.79,0,0,1,1.86-1.42,1.7,1.7,0,0,1,1.9,1.37,5.91,5.91,0,0,1,.05,1.24,4.7,4.7,0,0,1-.07,1.2,1.71,1.71,0,0,1-1.8,1.28,1.8,1.8,0,0,1-1.95-1.18A5.74,5.74,0,0,1,40.49,49.36Z"/><path class="c" d="M21.78,56.05A5.85,5.85,0,0,0,21.69,55a1.78,1.78,0,0,0-1.85-1.43,1.68,1.68,0,0,0-1.9,1.37,5.3,5.3,0,0,0-.05,1.24A4.37,4.37,0,0,0,18,57.35a1.72,1.72,0,0,0,1.81,1.27,1.85,1.85,0,0,0,1.93-1.29A4.8,4.8,0,0,0,21.78,56.05Z"/><path class="c" d="M29.49,56.05A5.92,5.92,0,0,0,29.41,55a1.79,1.79,0,0,0-1.86-1.43,1.7,1.7,0,0,0-1.9,1.37,5.91,5.91,0,0,0,0,1.24,4.78,4.78,0,0,0,.07,1.21,1.71,1.71,0,0,0,1.8,1.27,1.87,1.87,0,0,0,1.94-1.29A4.82,4.82,0,0,0,29.49,56.05Z"/><path class="c" d="M33.38,56.05A5.92,5.92,0,0,0,33.3,55a1.79,1.79,0,0,0-1.86-1.43,1.7,1.7,0,0,0-1.9,1.37,5.91,5.91,0,0,0-.05,1.24,4.78,4.78,0,0,0,.07,1.21,1.71,1.71,0,0,0,1.8,1.27,1.87,1.87,0,0,0,1.94-1.29A4.82,4.82,0,0,0,33.38,56.05Z"/><path class="c" d="M21.74,56.05A5.92,5.92,0,0,1,21.82,55a1.79,1.79,0,0,1,1.86-1.43,1.7,1.7,0,0,1,1.9,1.37,5.91,5.91,0,0,1,.05,1.24,4.78,4.78,0,0,1-.07,1.21,1.71,1.71,0,0,1-1.8,1.27,1.82,1.82,0,0,1-2-1.18A5.75,5.75,0,0,1,21.74,56.05Z"/><path class="c" d="M6.28,56.05A5.92,5.92,0,0,0,6.2,55a1.78,1.78,0,0,0-1.85-1.43A1.7,1.7,0,0,0,2.44,54.9a6,6,0,0,0,0,1.24,4.37,4.37,0,0,0,.06,1.21,1.71,1.71,0,0,0,1.81,1.27A1.85,1.85,0,0,0,6.2,57.33,4.82,4.82,0,0,0,6.28,56.05Z"/><path class="c" d="M14,56.05A5.11,5.11,0,0,0,13.91,55a1.78,1.78,0,0,0-1.85-1.43,1.7,1.7,0,0,0-1.9,1.37,5.91,5.91,0,0,0-.05,1.24,4.36,4.36,0,0,0,.07,1.21A1.7,1.7,0,0,0,12,58.62a1.87,1.87,0,0,0,1.94-1.29A4.82,4.82,0,0,0,14,56.05Z"/><path class="c" d="M17.89,56.05A5.92,5.92,0,0,0,17.81,55,1.79,1.79,0,0,0,16,53.53a1.7,1.7,0,0,0-1.9,1.37A5.91,5.91,0,0,0,14,56.14a4.36,4.36,0,0,0,.07,1.21,1.7,1.7,0,0,0,1.8,1.27,1.87,1.87,0,0,0,1.94-1.29A4.82,4.82,0,0,0,17.89,56.05Z"/><path class="c" d="M6.25,56.05A5.92,5.92,0,0,1,6.33,55a1.78,1.78,0,0,1,1.85-1.43,1.7,1.7,0,0,1,1.91,1.37,6,6,0,0,1,0,1.24,4.37,4.37,0,0,1-.06,1.21,1.71,1.71,0,0,1-1.81,1.27,1.81,1.81,0,0,1-1.95-1.18A5.75,5.75,0,0,1,6.25,56.05Z"/><path class="c" d="M33.36,56.05A5.85,5.85,0,0,1,33.45,55a1.78,1.78,0,0,1,1.85-1.43,1.69,1.69,0,0,1,1.9,1.37,5.91,5.91,0,0,1,0,1.24,4.8,4.8,0,0,1-.06,1.21,1.72,1.72,0,0,1-1.81,1.27,1.8,1.8,0,0,1-2-1.18A5.74,5.74,0,0,1,33.36,56.05Z"/><path class="c" d="M37.25,56.05A5.85,5.85,0,0,1,37.34,55a1.78,1.78,0,0,1,1.85-1.43,1.68,1.68,0,0,1,1.9,1.37,5.3,5.3,0,0,1,0,1.24,4.37,4.37,0,0,1-.06,1.21,1.72,1.72,0,0,1-1.81,1.27,1.8,1.8,0,0,1-2-1.18A5.74,5.74,0,0,1,37.25,56.05Z"/><path class="d" d="M19.39,62.74a5.11,5.11,0,0,0-.09-1.09,1.77,1.77,0,0,0-1.85-1.42,1.69,1.69,0,0,0-1.9,1.36,5.94,5.94,0,0,0-.05,1.24A4.36,4.36,0,0,0,15.57,64a1.72,1.72,0,0,0,1.8,1.28A1.88,1.88,0,0,0,19.31,64,4.89,4.89,0,0,0,19.39,62.74Z"/><path class="d" d="M27.1,62.74A5.92,5.92,0,0,0,27,61.65a1.79,1.79,0,0,0-1.86-1.42,1.69,1.69,0,0,0-1.9,1.36,5.94,5.94,0,0,0-.05,1.24A4.78,4.78,0,0,0,23.28,64a1.73,1.73,0,0,0,1.8,1.28A1.88,1.88,0,0,0,27,64,4.89,4.89,0,0,0,27.1,62.74Z"/><path class="d" d="M31,62.74a5.92,5.92,0,0,0-.08-1.09,1.78,1.78,0,0,0-1.85-1.42,1.69,1.69,0,0,0-1.91,1.36,5.39,5.39,0,0,0,0,1.24A4.37,4.37,0,0,0,27.17,64,1.73,1.73,0,0,0,29,65.32,1.87,1.87,0,0,0,30.91,64,4.89,4.89,0,0,0,31,62.74Z"/><path class="d" d="M19.35,62.74a5.92,5.92,0,0,1,.08-1.09,1.79,1.79,0,0,1,1.86-1.42,1.69,1.69,0,0,1,1.9,1.36,5.94,5.94,0,0,1,0,1.24A4.78,4.78,0,0,1,23.17,64a1.73,1.73,0,0,1-1.8,1.28,1.82,1.82,0,0,1-1.95-1.19A5.68,5.68,0,0,1,19.35,62.74Z"/><path class="d" d="M3.9,62.74a5.85,5.85,0,0,0-.09-1.09A1.78,1.78,0,0,0,2,60.23a1.68,1.68,0,0,0-1.9,1.36,5.33,5.33,0,0,0,0,1.24A4.37,4.37,0,0,0,.07,64a1.74,1.74,0,0,0,1.81,1.28A1.86,1.86,0,0,0,3.81,64,4.88,4.88,0,0,0,3.9,62.74Z"/><path class="d" d="M11.61,62.74a5.92,5.92,0,0,0-.08-1.09,1.79,1.79,0,0,0-1.86-1.42,1.69,1.69,0,0,0-1.9,1.36,5.94,5.94,0,0,0,0,1.24A4.78,4.78,0,0,0,7.79,64a1.73,1.73,0,0,0,1.8,1.28A1.88,1.88,0,0,0,11.53,64,4.89,4.89,0,0,0,11.61,62.74Z"/><path class="d" d="M15.5,62.74a5.92,5.92,0,0,0-.08-1.09,1.79,1.79,0,0,0-1.86-1.42,1.69,1.69,0,0,0-1.9,1.36,5.94,5.94,0,0,0-.05,1.24A4.78,4.78,0,0,0,11.68,64a1.73,1.73,0,0,0,1.8,1.28A1.88,1.88,0,0,0,15.42,64,4.89,4.89,0,0,0,15.5,62.74Z"/><path class="d" d="M3.86,62.74a5.92,5.92,0,0,1,.08-1.09,1.78,1.78,0,0,1,1.85-1.42A1.69,1.69,0,0,1,7.7,61.59a5.94,5.94,0,0,1,0,1.24A4.78,4.78,0,0,1,7.68,64a1.73,1.73,0,0,1-1.8,1.28,1.84,1.84,0,0,1-2-1.19A5.7,5.7,0,0,1,3.86,62.74Z"/><path class="d" d="M31,62.74a5.85,5.85,0,0,1,.09-1.09,1.78,1.78,0,0,1,1.85-1.42,1.69,1.69,0,0,1,1.91,1.36,6,6,0,0,1,0,1.24A4.37,4.37,0,0,1,34.8,64,1.74,1.74,0,0,1,33,65.32a1.83,1.83,0,0,1-2-1.19A5.68,5.68,0,0,1,31,62.74Z"/><path class="d" d="M34.87,62.74A5.92,5.92,0,0,1,35,61.65a1.78,1.78,0,0,1,1.85-1.42,1.69,1.69,0,0,1,1.91,1.36,6,6,0,0,1,0,1.24A4.37,4.37,0,0,1,38.69,64a1.73,1.73,0,0,1-1.81,1.28,1.83,1.83,0,0,1-2-1.19A5.7,5.7,0,0,1,34.87,62.74Z"/><path class="e" d="M25.59,2.52a6,6,0,0,0-.09-1.1A1.78,1.78,0,0,0,23.65,0a1.68,1.68,0,0,0-1.9,1.36A5.35,5.35,0,0,0,21.7,2.6a4.8,4.8,0,0,0,.06,1.21,1.74,1.74,0,0,0,1.81,1.28A1.87,1.87,0,0,0,25.51,3.8,4.82,4.82,0,0,0,25.59,2.52Z"/><path class="e" d="M33.3,2.52a6,6,0,0,0-.08-1.1A1.79,1.79,0,0,0,31.36,0a1.7,1.7,0,0,0-1.9,1.36,6,6,0,0,0-.05,1.24,4.78,4.78,0,0,0,.07,1.21,1.73,1.73,0,0,0,1.8,1.28A1.87,1.87,0,0,0,33.22,3.8,4.82,4.82,0,0,0,33.3,2.52Z"/><path class="e" d="M37.19,2.52a6,6,0,0,0-.08-1.1A1.79,1.79,0,0,0,35.25,0a1.7,1.7,0,0,0-1.9,1.36A6,6,0,0,0,33.3,2.6a4.78,4.78,0,0,0,.07,1.21,1.73,1.73,0,0,0,1.8,1.28A1.87,1.87,0,0,0,37.11,3.8,4.82,4.82,0,0,0,37.19,2.52Z"/><path class="e" d="M25.55,2.52a6,6,0,0,1,.08-1.1A1.79,1.79,0,0,1,27.49,0a1.7,1.7,0,0,1,1.9,1.36,6,6,0,0,1,.05,1.24,4.78,4.78,0,0,1-.07,1.21,1.73,1.73,0,0,1-1.8,1.28A1.81,1.81,0,0,1,25.62,3.9,5.63,5.63,0,0,1,25.55,2.52Z"/><path class="e" d="M17.81,2.52a6,6,0,0,0-.08-1.1A1.79,1.79,0,0,0,15.87,0,1.7,1.7,0,0,0,14,1.36a6,6,0,0,0-.05,1.24A4.36,4.36,0,0,0,14,3.81a1.72,1.72,0,0,0,1.8,1.28A1.87,1.87,0,0,0,17.73,3.8,4.82,4.82,0,0,0,17.81,2.52Z"/><path class="e" d="M21.7,2.52a6,6,0,0,0-.08-1.1A1.79,1.79,0,0,0,19.76,0a1.7,1.7,0,0,0-1.9,1.36,6,6,0,0,0-.05,1.24,4.78,4.78,0,0,0,.07,1.21,1.73,1.73,0,0,0,1.8,1.28A1.87,1.87,0,0,0,21.62,3.8,4.82,4.82,0,0,0,21.7,2.52Z"/><path class="e" d="M10.06,2.52a6,6,0,0,1,.08-1.1A1.78,1.78,0,0,1,12,0,1.7,1.7,0,0,1,13.9,1.36a6,6,0,0,1,0,1.24,4.37,4.37,0,0,1-.06,1.21,1.73,1.73,0,0,1-1.8,1.28,1.82,1.82,0,0,1-2-1.19A5.65,5.65,0,0,1,10.06,2.52Z"/><path class="e" d="M37.22,2.52a5.2,5.2,0,0,1,.09-1.1A1.77,1.77,0,0,1,39.16,0a1.7,1.7,0,0,1,1.9,1.36,6,6,0,0,1,0,1.24A4.36,4.36,0,0,1,41,3.81a1.72,1.72,0,0,1-1.8,1.28,1.81,1.81,0,0,1-2-1.19A5.63,5.63,0,0,1,37.22,2.52Z"/><path class="e" d="M63.5,2.52a6,6,0,0,0-.09-1.1A1.77,1.77,0,0,0,61.56,0a1.7,1.7,0,0,0-1.9,1.36,6,6,0,0,0,0,1.24,4.36,4.36,0,0,0,.07,1.21,1.72,1.72,0,0,0,1.8,1.28A1.87,1.87,0,0,0,63.42,3.8,4.82,4.82,0,0,0,63.5,2.52Z"/><path class="e" d="M63.53,2.52a6,6,0,0,1,.08-1.1A1.79,1.79,0,0,1,65.47,0a1.7,1.7,0,0,1,1.9,1.36,6,6,0,0,1,0,1.24,4.78,4.78,0,0,1-.07,1.21,1.73,1.73,0,0,1-1.8,1.28,1.83,1.83,0,0,1-2-1.19A5.65,5.65,0,0,1,63.53,2.52Z"/></svg>