<svg xmlns="http://www.w3.org/2000/svg" width="64.46" height="65.32" viewBox="0 0 64.46 65.32"><defs><style>.a{fill:#889bcf;}.b{fill:#fbf175;}.c{fill:#eb666a;}.d{fill:#ffd69f;}.e{fill:#86aca8;}</style></defs><title>Asset 86</title><path class="a" d="M34.53,2.57a6,6,0,0,1-.08,1.1,1.79,1.79,0,0,1-1.86,1.42,1.7,1.7,0,0,1-1.9-1.36,6,6,0,0,1-.05-1.24,4.78,4.78,0,0,1,.07-1.21A1.73,1.73,0,0,1,32.51,0a1.87,1.87,0,0,1,1.94,1.29A4.82,4.82,0,0,1,34.53,2.57Z"/><path class="a" d="M42.24,2.57a6,6,0,0,1-.08,1.1,1.78,1.78,0,0,1-1.85,1.42A1.7,1.7,0,0,1,38.4,3.73a6,6,0,0,1,0-1.24,4.37,4.37,0,0,1,.06-1.21A1.73,1.73,0,0,1,40.22,0a1.86,1.86,0,0,1,1.94,1.29A4.82,4.82,0,0,1,42.24,2.57Z"/><path class="a" d="M46.14,2.57a6,6,0,0,1-.09,1.1A1.78,1.78,0,0,1,44.2,5.09a1.7,1.7,0,0,1-1.91-1.36,6,6,0,0,1,0-1.24,4.37,4.37,0,0,1,.06-1.21A1.73,1.73,0,0,1,44.12,0a1.85,1.85,0,0,1,1.93,1.29A4.8,4.8,0,0,1,46.14,2.57Z"/><path class="a" d="M34.49,2.6a6.1,6.1,0,0,0,.08,1.1,1.79,1.79,0,0,0,1.86,1.42,1.7,1.7,0,0,0,1.9-1.37,5.91,5.91,0,0,0,.05-1.24,4.29,4.29,0,0,0-.07-1.2A1.71,1.71,0,0,0,36.51,0a1.8,1.8,0,0,0-1.95,1.19A5.63,5.63,0,0,0,34.49,2.6Z"/><path class="a" d="M19,2.57A6,6,0,0,1,19,3.67,1.77,1.77,0,0,1,17.1,5.09a1.7,1.7,0,0,1-1.9-1.36,6,6,0,0,1,0-1.24,4.8,4.8,0,0,1,.06-1.21A1.74,1.74,0,0,1,17,0,1.87,1.87,0,0,1,19,1.29,4.82,4.82,0,0,1,19,2.57Z"/><path class="a" d="M26.75,2.57a6,6,0,0,1-.08,1.1,1.79,1.79,0,0,1-1.86,1.42,1.7,1.7,0,0,1-1.9-1.36,6,6,0,0,1-.05-1.24,4.78,4.78,0,0,1,.07-1.21A1.73,1.73,0,0,1,24.73,0a1.87,1.87,0,0,1,1.94,1.29A4.82,4.82,0,0,1,26.75,2.57Z"/><path class="a" d="M30.64,2.57a6,6,0,0,1-.08,1.1,1.78,1.78,0,0,1-1.85,1.42A1.7,1.7,0,0,1,26.8,3.73a6,6,0,0,1-.05-1.24,4.78,4.78,0,0,1,.07-1.21A1.73,1.73,0,0,1,28.62,0a1.87,1.87,0,0,1,1.94,1.29A4.82,4.82,0,0,1,30.64,2.57Z"/><path class="a" d="M19,2.6a6.1,6.1,0,0,0,.08,1.1,1.79,1.79,0,0,0,1.86,1.42,1.7,1.7,0,0,0,1.9-1.37,5.91,5.91,0,0,0,.05-1.24,4.7,4.7,0,0,0-.07-1.2A1.72,1.72,0,0,0,21,0a1.8,1.8,0,0,0-1.95,1.19A5.63,5.63,0,0,0,19,2.6Z"/><path class="a" d="M46.12,2.65a5.92,5.92,0,0,0,.08,1.09,1.79,1.79,0,0,0,1.85,1.43A1.7,1.7,0,0,0,50,3.8a6,6,0,0,0,0-1.24,4.39,4.39,0,0,0-.06-1.21A1.71,1.71,0,0,0,48.13.08a1.81,1.81,0,0,0-2,1.18A5.75,5.75,0,0,0,46.12,2.65Z"/><path class="a" d="M50,2.65a5.92,5.92,0,0,0,.08,1.09,1.79,1.79,0,0,0,1.85,1.43A1.7,1.7,0,0,0,53.85,3.8a5.91,5.91,0,0,0,0-1.24,4.81,4.81,0,0,0-.07-1.21A1.71,1.71,0,0,0,52,.08a1.82,1.82,0,0,0-2,1.18A5.75,5.75,0,0,0,50,2.65Z"/><path class="b" d="M48.93,29.34a6,6,0,0,1-.09,1.1A1.77,1.77,0,0,1,47,31.86a1.68,1.68,0,0,1-1.9-1.36A5.41,5.41,0,0,1,45,29.25a4.74,4.74,0,0,1,.06-1.2,1.73,1.73,0,0,1,1.81-1.28,1.87,1.87,0,0,1,1.94,1.29A4.82,4.82,0,0,1,48.93,29.34Z"/><path class="b" d="M56.64,29.34a6.1,6.1,0,0,1-.08,1.1,1.79,1.79,0,0,1-1.86,1.42,1.7,1.7,0,0,1-1.9-1.36,6,6,0,0,1,0-1.25,4.73,4.73,0,0,1,.07-1.2,1.72,1.72,0,0,1,1.8-1.28,1.87,1.87,0,0,1,1.94,1.29A4.82,4.82,0,0,1,56.64,29.34Z"/><path class="b" d="M60.53,29.34a6.1,6.1,0,0,1-.08,1.1,1.79,1.79,0,0,1-1.86,1.42,1.7,1.7,0,0,1-1.9-1.36,6,6,0,0,1,0-1.25,4.73,4.73,0,0,1,.07-1.2,1.72,1.72,0,0,1,1.8-1.28,1.87,1.87,0,0,1,1.94,1.29A4.82,4.82,0,0,1,60.53,29.34Z"/><path class="b" d="M48.89,29.37A5.92,5.92,0,0,0,49,30.46a1.78,1.78,0,0,0,1.86,1.43,1.7,1.7,0,0,0,1.9-1.37,5.91,5.91,0,0,0,.05-1.24,4.81,4.81,0,0,0-.07-1.21,1.71,1.71,0,0,0-1.8-1.27A1.8,1.8,0,0,0,49,28,5.74,5.74,0,0,0,48.89,29.37Z"/><path class="b" d="M33.44,29.34a6,6,0,0,1-.09,1.1,1.78,1.78,0,0,1-1.85,1.42,1.7,1.7,0,0,1-1.91-1.36,6.12,6.12,0,0,1,0-1.25,4.32,4.32,0,0,1,.06-1.2,1.72,1.72,0,0,1,1.81-1.28,1.85,1.85,0,0,1,1.93,1.29A4.8,4.8,0,0,1,33.44,29.34Z"/><path class="b" d="M41.15,29.34a6.1,6.1,0,0,1-.08,1.1,1.79,1.79,0,0,1-1.86,1.42,1.7,1.7,0,0,1-1.9-1.36,6,6,0,0,1-.05-1.25,4.31,4.31,0,0,1,.07-1.2,1.71,1.71,0,0,1,1.8-1.28,1.87,1.87,0,0,1,1.94,1.29A4.82,4.82,0,0,1,41.15,29.34Z"/><path class="b" d="M45,29.34a6.1,6.1,0,0,1-.08,1.1,1.79,1.79,0,0,1-1.86,1.42,1.7,1.7,0,0,1-1.9-1.36,6,6,0,0,1-.05-1.25,4.73,4.73,0,0,1,.07-1.2A1.72,1.72,0,0,1,43,26.77,1.87,1.87,0,0,1,45,28.06,4.82,4.82,0,0,1,45,29.34Z"/><path class="b" d="M33.4,29.37a5.92,5.92,0,0,0,.08,1.09,1.78,1.78,0,0,0,1.85,1.43,1.7,1.7,0,0,0,1.91-1.37,5.36,5.36,0,0,0,0-1.24,4.39,4.39,0,0,0-.06-1.21,1.71,1.71,0,0,0-1.8-1.27,1.81,1.81,0,0,0-2,1.18A5.75,5.75,0,0,0,33.4,29.37Z"/><path class="b" d="M60.56,29.37a5.11,5.11,0,0,0,.09,1.09,1.77,1.77,0,0,0,1.85,1.43,1.7,1.7,0,0,0,1.9-1.37,5.91,5.91,0,0,0,0-1.24,4.39,4.39,0,0,0-.07-1.21,1.7,1.7,0,0,0-1.8-1.27A1.8,1.8,0,0,0,60.63,28,5.74,5.74,0,0,0,60.56,29.37Z"/><path class="b" d="M0,29.36a5.92,5.92,0,0,0,.08,1.09A1.79,1.79,0,0,0,2,31.87a1.69,1.69,0,0,0,1.9-1.36,5.94,5.94,0,0,0,0-1.24,4.78,4.78,0,0,0-.07-1.21A1.73,1.73,0,0,0,2,26.78,1.82,1.82,0,0,0,.08,28,5.68,5.68,0,0,0,0,29.36Z"/><path class="c" d="M30,9.28a6,6,0,0,1-.08,1.1A1.78,1.78,0,0,1,28,11.8a1.7,1.7,0,0,1-1.91-1.36,6,6,0,0,1,0-1.24A4.37,4.37,0,0,1,26.13,8a1.73,1.73,0,0,1,1.8-1.28A1.86,1.86,0,0,1,29.87,8,4.82,4.82,0,0,1,30,9.28Z"/><path class="c" d="M37.67,9.28a6,6,0,0,1-.09,1.1,1.77,1.77,0,0,1-1.85,1.42,1.7,1.7,0,0,1-1.9-1.36,6,6,0,0,1,0-1.24A4.8,4.8,0,0,1,33.84,8a1.74,1.74,0,0,1,1.81-1.28A1.87,1.87,0,0,1,37.59,8,4.82,4.82,0,0,1,37.67,9.28Z"/><path class="c" d="M41.56,9.28a5.2,5.2,0,0,1-.09,1.1,1.77,1.77,0,0,1-1.85,1.42,1.7,1.7,0,0,1-1.9-1.36,6,6,0,0,1,0-1.24A4.36,4.36,0,0,1,37.74,8a1.72,1.72,0,0,1,1.8-1.28A1.87,1.87,0,0,1,41.48,8,4.82,4.82,0,0,1,41.56,9.28Z"/><path class="c" d="M29.91,9.31a6,6,0,0,0,.09,1.1,1.78,1.78,0,0,0,1.85,1.42,1.7,1.7,0,0,0,1.91-1.36,6.12,6.12,0,0,0,0-1.25A4.3,4.3,0,0,0,33.74,8a1.72,1.72,0,0,0-1.81-1.28A1.8,1.8,0,0,0,30,7.93,5.63,5.63,0,0,0,29.91,9.31Z"/><path class="c" d="M14.46,9.28a6,6,0,0,1-.08,1.1,1.79,1.79,0,0,1-1.86,1.42,1.7,1.7,0,0,1-1.9-1.36,6,6,0,0,1,0-1.24A4.78,4.78,0,0,1,10.64,8a1.73,1.73,0,0,1,1.8-1.28A1.87,1.87,0,0,1,14.38,8,4.82,4.82,0,0,1,14.46,9.28Z"/><path class="c" d="M22.18,9.28a6,6,0,0,1-.09,1.1,1.78,1.78,0,0,1-1.85,1.42,1.7,1.7,0,0,1-1.91-1.36,6,6,0,0,1,0-1.24A4.37,4.37,0,0,1,18.35,8a1.74,1.74,0,0,1,1.81-1.28A1.85,1.85,0,0,1,22.09,8,4.8,4.8,0,0,1,22.18,9.28Z"/><path class="c" d="M26.07,9.28a6,6,0,0,1-.09,1.1,1.78,1.78,0,0,1-1.85,1.42,1.68,1.68,0,0,1-1.9-1.36,5.35,5.35,0,0,1-.05-1.24A4.37,4.37,0,0,1,22.24,8a1.74,1.74,0,0,1,1.81-1.28A1.85,1.85,0,0,1,26,8,4.8,4.8,0,0,1,26.07,9.28Z"/><path class="c" d="M14.42,9.31a6,6,0,0,0,.09,1.1,1.78,1.78,0,0,0,1.85,1.42,1.68,1.68,0,0,0,1.9-1.36,5.41,5.41,0,0,0,0-1.25A4.72,4.72,0,0,0,18.25,8a1.73,1.73,0,0,0-1.81-1.28,1.8,1.8,0,0,0-2,1.19A5.63,5.63,0,0,0,14.42,9.31Z"/><path class="c" d="M41.59,9.31a6.1,6.1,0,0,0,.08,1.1,1.79,1.79,0,0,0,1.86,1.42,1.7,1.7,0,0,0,1.9-1.36,6,6,0,0,0,0-1.25A4.7,4.7,0,0,0,45.41,8a1.72,1.72,0,0,0-1.8-1.28,1.8,1.8,0,0,0-2,1.19A5.63,5.63,0,0,0,41.59,9.31Z"/><path class="c" d="M53.17,9.3a5.92,5.92,0,0,0,.08,1.09,1.78,1.78,0,0,0,1.85,1.42A1.69,1.69,0,0,0,57,10.45a6,6,0,0,0,0-1.24A4.37,4.37,0,0,0,57,8a1.73,1.73,0,0,0-1.81-1.28,1.83,1.83,0,0,0-2,1.19A5.7,5.7,0,0,0,53.17,9.3Z"/><path class="d" d="M25.61,16a5.11,5.11,0,0,1-.09,1.09,1.77,1.77,0,0,1-1.85,1.43,1.7,1.7,0,0,1-1.9-1.37,5.91,5.91,0,0,1-.05-1.24,4.29,4.29,0,0,1,.07-1.2,1.7,1.7,0,0,1,1.8-1.28,1.87,1.87,0,0,1,1.94,1.29A4.82,4.82,0,0,1,25.61,16Z"/><path class="d" d="M33.32,16a5.92,5.92,0,0,1-.08,1.09,1.78,1.78,0,0,1-1.86,1.43,1.7,1.7,0,0,1-1.9-1.37,5.91,5.91,0,0,1-.05-1.24,4.7,4.7,0,0,1,.07-1.2,1.71,1.71,0,0,1,1.8-1.28,1.87,1.87,0,0,1,1.94,1.29A4.82,4.82,0,0,1,33.32,16Z"/><path class="d" d="M37.21,16a5.92,5.92,0,0,1-.08,1.09,1.78,1.78,0,0,1-1.85,1.43,1.7,1.7,0,0,1-1.91-1.37,5.36,5.36,0,0,1,0-1.24,4.3,4.3,0,0,1,.06-1.2,1.71,1.71,0,0,1,1.8-1.28,1.86,1.86,0,0,1,1.94,1.29A4.82,4.82,0,0,1,37.21,16Z"/><path class="d" d="M25.57,16a5.92,5.92,0,0,0,.08,1.09,1.79,1.79,0,0,0,1.86,1.42,1.69,1.69,0,0,0,1.9-1.36,5.91,5.91,0,0,0,.05-1.24,4.78,4.78,0,0,0-.07-1.21,1.73,1.73,0,0,0-1.8-1.28,1.82,1.82,0,0,0-1.95,1.19A5.68,5.68,0,0,0,25.57,16Z"/><path class="d" d="M10.12,16A5.85,5.85,0,0,1,10,17.07,1.77,1.77,0,0,1,8.18,18.5a1.68,1.68,0,0,1-1.9-1.37,5.3,5.3,0,0,1,0-1.24,4.3,4.3,0,0,1,.06-1.2A1.72,1.72,0,0,1,8.1,13.41,1.85,1.85,0,0,1,10,14.7,4.8,4.8,0,0,1,10.12,16Z"/><path class="d" d="M17.83,16a5.92,5.92,0,0,1-.08,1.09,1.78,1.78,0,0,1-1.86,1.43A1.7,1.7,0,0,1,14,17.13a5.91,5.91,0,0,1-.05-1.24,4.7,4.7,0,0,1,.07-1.2,1.71,1.71,0,0,1,1.8-1.28,1.87,1.87,0,0,1,1.94,1.29A4.82,4.82,0,0,1,17.83,16Z"/><path class="d" d="M21.72,16a5.92,5.92,0,0,1-.08,1.09,1.78,1.78,0,0,1-1.86,1.43,1.7,1.7,0,0,1-1.9-1.37,5.91,5.91,0,0,1-.05-1.24,4.7,4.7,0,0,1,.07-1.2,1.71,1.71,0,0,1,1.8-1.28,1.87,1.87,0,0,1,1.94,1.29A4.82,4.82,0,0,1,21.72,16Z"/><path class="d" d="M10.08,16a5.92,5.92,0,0,0,.08,1.09A1.79,1.79,0,0,0,12,18.52a1.69,1.69,0,0,0,1.9-1.36A5.91,5.91,0,0,0,14,15.92a4.78,4.78,0,0,0-.07-1.21,1.73,1.73,0,0,0-1.8-1.28,1.84,1.84,0,0,0-2,1.19A5.7,5.7,0,0,0,10.08,16Z"/><path class="d" d="M37.19,16a5.85,5.85,0,0,0,.09,1.09,1.77,1.77,0,0,0,1.85,1.43A1.7,1.7,0,0,0,41,17.11a6,6,0,0,0,0-1.24A4.39,4.39,0,0,0,41,14.66a1.71,1.71,0,0,0-1.81-1.27,1.81,1.81,0,0,0-2,1.18A5.74,5.74,0,0,0,37.19,16Z"/><path class="d" d="M56.65,16a6,6,0,0,0,.08,1.1,1.79,1.79,0,0,0,1.86,1.42,1.7,1.7,0,0,0,1.9-1.36,6,6,0,0,0,0-1.24,4.78,4.78,0,0,0-.07-1.21,1.73,1.73,0,0,0-1.8-1.28,1.81,1.81,0,0,0-2,1.19A5.63,5.63,0,0,0,56.65,16Z"/><path class="e" d="M19.5,22.66a5.92,5.92,0,0,1-.08,1.09,1.78,1.78,0,0,1-1.85,1.42,1.69,1.69,0,0,1-1.91-1.36,5.39,5.39,0,0,1,0-1.24,4.37,4.37,0,0,1,.06-1.21,1.73,1.73,0,0,1,1.8-1.28,1.87,1.87,0,0,1,1.94,1.29A4.89,4.89,0,0,1,19.5,22.66Z"/><path class="e" d="M27.22,22.66a5.85,5.85,0,0,1-.09,1.09,1.77,1.77,0,0,1-1.85,1.42,1.68,1.68,0,0,1-1.9-1.36,5.94,5.94,0,0,1-.05-1.24,4.8,4.8,0,0,1,.06-1.21,1.74,1.74,0,0,1,1.81-1.28,1.88,1.88,0,0,1,1.94,1.29A4.89,4.89,0,0,1,27.22,22.66Z"/><path class="e" d="M31.11,22.66A5.11,5.11,0,0,1,31,23.75a1.77,1.77,0,0,1-1.85,1.42,1.69,1.69,0,0,1-1.9-1.36,5.94,5.94,0,0,1-.05-1.24,4.36,4.36,0,0,1,.07-1.21,1.72,1.72,0,0,1,1.8-1.28A1.88,1.88,0,0,1,31,21.37,4.89,4.89,0,0,1,31.11,22.66Z"/><path class="e" d="M19.46,22.68a6,6,0,0,0,.09,1.1A1.78,1.78,0,0,0,21.4,25.2a1.7,1.7,0,0,0,1.91-1.36,6,6,0,0,0,0-1.24,4.37,4.37,0,0,0-.06-1.21,1.73,1.73,0,0,0-1.81-1.28,1.81,1.81,0,0,0-1.95,1.19A5.63,5.63,0,0,0,19.46,22.68Z"/><path class="e" d="M4,22.66a5.92,5.92,0,0,1-.08,1.09,1.79,1.79,0,0,1-1.86,1.42,1.69,1.69,0,0,1-1.9-1.36,5.94,5.94,0,0,1-.05-1.24,4.78,4.78,0,0,1,.07-1.21A1.73,1.73,0,0,1,2,20.08a1.88,1.88,0,0,1,1.94,1.29A4.89,4.89,0,0,1,4,22.66Z"/><path class="e" d="M11.73,22.66a5.85,5.85,0,0,1-.09,1.09,1.78,1.78,0,0,1-1.85,1.42,1.69,1.69,0,0,1-1.91-1.36,6,6,0,0,1,0-1.24,4.37,4.37,0,0,1,.06-1.21,1.73,1.73,0,0,1,1.81-1.28,1.86,1.86,0,0,1,1.93,1.29A4.88,4.88,0,0,1,11.73,22.66Z"/><path class="e" d="M15.62,22.66a5.85,5.85,0,0,1-.09,1.09,1.78,1.78,0,0,1-1.85,1.42,1.68,1.68,0,0,1-1.9-1.36,5.33,5.33,0,0,1,0-1.24,4.37,4.37,0,0,1,.06-1.21,1.74,1.74,0,0,1,1.81-1.28,1.86,1.86,0,0,1,1.93,1.29A4.88,4.88,0,0,1,15.62,22.66Z"/><path class="e" d="M4,22.68a6,6,0,0,0,.09,1.1A1.77,1.77,0,0,0,5.91,25.2a1.69,1.69,0,0,0,1.9-1.36,5.35,5.35,0,0,0,.05-1.24,4.8,4.8,0,0,0-.06-1.21A1.74,1.74,0,0,0,6,20.11,1.81,1.81,0,0,0,4,21.3,5.63,5.63,0,0,0,4,22.68Z"/><path class="e" d="M31.14,22.68a6,6,0,0,0,.08,1.1,1.79,1.79,0,0,0,1.86,1.42A1.7,1.7,0,0,0,35,23.84,6,6,0,0,0,35,22.6,4.78,4.78,0,0,0,35,21.39a1.73,1.73,0,0,0-1.8-1.28,1.83,1.83,0,0,0-2,1.19A6.19,6.19,0,0,0,31.14,22.68Z"/><path class="e" d="M60.56,22.67a5.11,5.11,0,0,0,.09,1.09,1.77,1.77,0,0,0,1.85,1.43,1.7,1.7,0,0,0,1.9-1.37,5.91,5.91,0,0,0,0-1.24,4.39,4.39,0,0,0-.07-1.21,1.7,1.7,0,0,0-1.8-1.27,1.8,1.8,0,0,0-1.95,1.18A5.74,5.74,0,0,0,60.56,22.67Z"/><path class="a" d="M19.5,36a5.92,5.92,0,0,1-.08,1.09,1.78,1.78,0,0,1-1.85,1.42,1.69,1.69,0,0,1-1.91-1.36,5.36,5.36,0,0,1,0-1.24,4.37,4.37,0,0,1,.06-1.21,1.73,1.73,0,0,1,1.8-1.28,1.88,1.88,0,0,1,1.94,1.3A4.82,4.82,0,0,1,19.5,36Z"/><path class="a" d="M27.22,36a5.85,5.85,0,0,1-.09,1.09,1.77,1.77,0,0,1-1.85,1.42,1.68,1.68,0,0,1-1.9-1.36,5.91,5.91,0,0,1-.05-1.24,4.8,4.8,0,0,1,.06-1.21,1.74,1.74,0,0,1,1.81-1.28,1.89,1.89,0,0,1,1.94,1.3A4.82,4.82,0,0,1,27.22,36Z"/><path class="a" d="M31.11,36A5.11,5.11,0,0,1,31,37.12a1.77,1.77,0,0,1-1.85,1.42,1.69,1.69,0,0,1-1.9-1.36,5.91,5.91,0,0,1-.05-1.24,4.36,4.36,0,0,1,.07-1.21,1.72,1.72,0,0,1,1.8-1.28A1.89,1.89,0,0,1,31,34.75,4.82,4.82,0,0,1,31.11,36Z"/><path class="a" d="M19.46,36.06a5.85,5.85,0,0,0,.09,1.09,1.78,1.78,0,0,0,1.85,1.42,1.69,1.69,0,0,0,1.91-1.36,6,6,0,0,0,0-1.24,4.37,4.37,0,0,0-.06-1.21,1.73,1.73,0,0,0-1.81-1.28,1.83,1.83,0,0,0-1.95,1.19A5.68,5.68,0,0,0,19.46,36.06Z"/><path class="a" d="M4,36a5.92,5.92,0,0,1-.08,1.09,1.79,1.79,0,0,1-1.86,1.42,1.69,1.69,0,0,1-1.9-1.36,5.91,5.91,0,0,1-.05-1.24,4.78,4.78,0,0,1,.07-1.21A1.73,1.73,0,0,1,2,33.45a1.88,1.88,0,0,1,1.94,1.3A4.82,4.82,0,0,1,4,36Z"/><path class="a" d="M11.73,36a5.85,5.85,0,0,1-.09,1.09,1.78,1.78,0,0,1-1.85,1.42,1.69,1.69,0,0,1-1.91-1.36,6,6,0,0,1,0-1.24,4.37,4.37,0,0,1,.06-1.21,1.73,1.73,0,0,1,1.81-1.28,1.87,1.87,0,0,1,1.93,1.3A4.8,4.8,0,0,1,11.73,36Z"/><path class="a" d="M15.62,36a5.85,5.85,0,0,1-.09,1.09,1.78,1.78,0,0,1-1.85,1.42,1.68,1.68,0,0,1-1.9-1.36,5.3,5.3,0,0,1,0-1.24,4.37,4.37,0,0,1,.06-1.21,1.74,1.74,0,0,1,1.81-1.28,1.87,1.87,0,0,1,1.93,1.3A4.8,4.8,0,0,1,15.62,36Z"/><path class="a" d="M4,36.06a5.85,5.85,0,0,0,.09,1.09,1.77,1.77,0,0,0,1.85,1.42,1.68,1.68,0,0,0,1.9-1.36A5.33,5.33,0,0,0,7.86,36a4.8,4.8,0,0,0-.06-1.21A1.74,1.74,0,0,0,6,33.48,1.82,1.82,0,0,0,4,34.67,5.68,5.68,0,0,0,4,36.06Z"/><path class="a" d="M31.14,36.06a5.92,5.92,0,0,0,.08,1.09,1.79,1.79,0,0,0,1.86,1.42A1.69,1.69,0,0,0,35,37.21,5.94,5.94,0,0,0,35,36,4.78,4.78,0,0,0,35,34.76a1.73,1.73,0,0,0-1.8-1.28,1.84,1.84,0,0,0-2,1.19A6.25,6.25,0,0,0,31.14,36.06Z"/><path class="a" d="M60.56,36a5.26,5.26,0,0,0,.09,1.1,1.77,1.77,0,0,0,1.85,1.42,1.7,1.7,0,0,0,1.9-1.36,6,6,0,0,0,0-1.25,4.31,4.31,0,0,0-.07-1.2,1.71,1.71,0,0,0-1.8-1.28,1.81,1.81,0,0,0-1.95,1.19A5.63,5.63,0,0,0,60.56,36Z"/><path class="c" d="M19.5,42.71a6,6,0,0,1-.08,1.1,1.78,1.78,0,0,1-1.85,1.42,1.7,1.7,0,0,1-1.91-1.36,5.41,5.41,0,0,1,0-1.24,4.37,4.37,0,0,1,.06-1.21,1.73,1.73,0,0,1,1.8-1.28,1.86,1.86,0,0,1,1.94,1.29A4.82,4.82,0,0,1,19.5,42.71Z"/><path class="c" d="M27.22,42.71a6,6,0,0,1-.09,1.1,1.77,1.77,0,0,1-1.85,1.42,1.69,1.69,0,0,1-1.9-1.36,6,6,0,0,1-.05-1.24,4.8,4.8,0,0,1,.06-1.21,1.74,1.74,0,0,1,1.81-1.28,1.87,1.87,0,0,1,1.94,1.29A4.82,4.82,0,0,1,27.22,42.71Z"/><path class="c" d="M31.11,42.71a5.2,5.2,0,0,1-.09,1.1,1.77,1.77,0,0,1-1.85,1.42,1.7,1.7,0,0,1-1.9-1.36,6,6,0,0,1-.05-1.24,4.36,4.36,0,0,1,.07-1.21,1.72,1.72,0,0,1,1.8-1.28A1.87,1.87,0,0,1,31,41.43,4.82,4.82,0,0,1,31.11,42.71Z"/><path class="c" d="M19.46,42.74a6,6,0,0,0,.09,1.1,1.78,1.78,0,0,0,1.85,1.42,1.7,1.7,0,0,0,1.91-1.36,6.12,6.12,0,0,0,0-1.25,4.32,4.32,0,0,0-.06-1.2,1.72,1.72,0,0,0-1.81-1.28,1.81,1.81,0,0,0-1.95,1.19A5.63,5.63,0,0,0,19.46,42.74Z"/><path class="c" d="M4,42.71a6,6,0,0,1-.08,1.1,1.79,1.79,0,0,1-1.86,1.42,1.7,1.7,0,0,1-1.9-1.36,6,6,0,0,1-.05-1.24,4.78,4.78,0,0,1,.07-1.21A1.73,1.73,0,0,1,2,40.14a1.87,1.87,0,0,1,1.94,1.29A4.82,4.82,0,0,1,4,42.71Z"/><path class="c" d="M11.73,42.71a6,6,0,0,1-.09,1.1,1.78,1.78,0,0,1-1.85,1.42,1.7,1.7,0,0,1-1.91-1.36,6,6,0,0,1,0-1.24,4.37,4.37,0,0,1,.06-1.21,1.73,1.73,0,0,1,1.81-1.28,1.85,1.85,0,0,1,1.93,1.29A4.8,4.8,0,0,1,11.73,42.71Z"/><path class="c" d="M15.62,42.71a6,6,0,0,1-.09,1.1,1.78,1.78,0,0,1-1.85,1.42,1.68,1.68,0,0,1-1.9-1.36,5.35,5.35,0,0,1,0-1.24,4.37,4.37,0,0,1,.06-1.21,1.74,1.74,0,0,1,1.81-1.28,1.85,1.85,0,0,1,1.93,1.29A4.8,4.8,0,0,1,15.62,42.71Z"/><path class="c" d="M4,42.74a6,6,0,0,0,.09,1.1,1.77,1.77,0,0,0,1.85,1.42,1.69,1.69,0,0,0,1.9-1.36,5.41,5.41,0,0,0,.05-1.25,4.74,4.74,0,0,0-.06-1.2A1.73,1.73,0,0,0,6,40.17,1.81,1.81,0,0,0,4,41.36,5.63,5.63,0,0,0,4,42.74Z"/><path class="c" d="M31.14,42.74a6.1,6.1,0,0,0,.08,1.1,1.79,1.79,0,0,0,1.86,1.42A1.7,1.7,0,0,0,35,43.9,6,6,0,0,0,35,42.65a4.73,4.73,0,0,0-.07-1.2,1.72,1.72,0,0,0-1.8-1.28,1.83,1.83,0,0,0-2,1.19A6.19,6.19,0,0,0,31.14,42.74Z"/><path class="c" d="M60.56,42.73a5.11,5.11,0,0,0,.09,1.09,1.77,1.77,0,0,0,1.85,1.42,1.69,1.69,0,0,0,1.9-1.36,5.91,5.91,0,0,0,0-1.24,4.36,4.36,0,0,0-.07-1.21,1.72,1.72,0,0,0-1.8-1.28,1.82,1.82,0,0,0-1.95,1.19A5.71,5.71,0,0,0,60.56,42.73Z"/><path class="d" d="M19.5,49.4a6.1,6.1,0,0,1-.08,1.1,1.78,1.78,0,0,1-1.85,1.42,1.7,1.7,0,0,1-1.91-1.37,5.36,5.36,0,0,1,0-1.24,4.3,4.3,0,0,1,.06-1.2,1.71,1.71,0,0,1,1.8-1.28,1.86,1.86,0,0,1,1.94,1.29A4.82,4.82,0,0,1,19.5,49.4Z"/><path class="d" d="M27.22,49.4a6,6,0,0,1-.09,1.1,1.77,1.77,0,0,1-1.85,1.42,1.69,1.69,0,0,1-1.9-1.37,5.91,5.91,0,0,1-.05-1.24,4.72,4.72,0,0,1,.06-1.2,1.72,1.72,0,0,1,1.81-1.28,1.87,1.87,0,0,1,1.94,1.29A4.82,4.82,0,0,1,27.22,49.4Z"/><path class="d" d="M31.11,49.4A5.26,5.26,0,0,1,31,50.5a1.77,1.77,0,0,1-1.85,1.42,1.7,1.7,0,0,1-1.9-1.37,5.91,5.91,0,0,1-.05-1.24,4.29,4.29,0,0,1,.07-1.2,1.7,1.7,0,0,1,1.8-1.28A1.87,1.87,0,0,1,31,48.12,4.82,4.82,0,0,1,31.11,49.4Z"/><path class="d" d="M19.46,49.43a5.85,5.85,0,0,0,.09,1.09,1.78,1.78,0,0,0,1.85,1.42,1.69,1.69,0,0,0,1.91-1.36,6,6,0,0,0,0-1.24,4.37,4.37,0,0,0-.06-1.21,1.73,1.73,0,0,0-1.81-1.28A1.83,1.83,0,0,0,19.53,48,5.71,5.71,0,0,0,19.46,49.43Z"/><path class="d" d="M4,49.4a6.1,6.1,0,0,1-.08,1.1,1.79,1.79,0,0,1-1.86,1.42,1.7,1.7,0,0,1-1.9-1.37,5.91,5.91,0,0,1-.05-1.24,4.7,4.7,0,0,1,.07-1.2A1.71,1.71,0,0,1,2,46.83a1.87,1.87,0,0,1,1.94,1.29A4.82,4.82,0,0,1,4,49.4Z"/><path class="d" d="M11.73,49.4a6,6,0,0,1-.09,1.1,1.78,1.78,0,0,1-1.85,1.42,1.7,1.7,0,0,1-1.91-1.37,6,6,0,0,1,0-1.24,4.3,4.3,0,0,1,.06-1.2,1.71,1.71,0,0,1,1.81-1.28,1.85,1.85,0,0,1,1.93,1.29A4.8,4.8,0,0,1,11.73,49.4Z"/><path class="d" d="M15.62,49.4a6,6,0,0,1-.09,1.1,1.78,1.78,0,0,1-1.85,1.42,1.68,1.68,0,0,1-1.9-1.37,5.3,5.3,0,0,1,0-1.24,4.3,4.3,0,0,1,.06-1.2,1.72,1.72,0,0,1,1.81-1.28,1.85,1.85,0,0,1,1.93,1.29A4.8,4.8,0,0,1,15.62,49.4Z"/><path class="d" d="M4,49.43a5.85,5.85,0,0,0,.09,1.09,1.77,1.77,0,0,0,1.85,1.42,1.68,1.68,0,0,0,1.9-1.36,5.3,5.3,0,0,0,.05-1.24,4.8,4.8,0,0,0-.06-1.21A1.74,1.74,0,0,0,6,46.85,1.82,1.82,0,0,0,4,48,5.71,5.71,0,0,0,4,49.43Z"/><path class="d" d="M31.14,49.43a5.92,5.92,0,0,0,.08,1.09,1.79,1.79,0,0,0,1.86,1.42A1.69,1.69,0,0,0,35,50.58,5.91,5.91,0,0,0,35,49.34,4.78,4.78,0,0,0,35,48.13a1.73,1.73,0,0,0-1.8-1.28,1.84,1.84,0,0,0-2,1.19A6.28,6.28,0,0,0,31.14,49.43Z"/><path class="d" d="M60.56,49.41a5.2,5.2,0,0,0,.09,1.1,1.77,1.77,0,0,0,1.85,1.42,1.7,1.7,0,0,0,1.9-1.36,6,6,0,0,0,0-1.24,4.36,4.36,0,0,0-.07-1.21,1.72,1.72,0,0,0-1.8-1.28A1.81,1.81,0,0,0,60.63,48,5.63,5.63,0,0,0,60.56,49.41Z"/><path class="e" d="M19.5,56.09a5.92,5.92,0,0,1-.08,1.09,1.78,1.78,0,0,1-1.85,1.42,1.69,1.69,0,0,1-1.91-1.36,5.39,5.39,0,0,1,0-1.24,4.37,4.37,0,0,1,.06-1.21,1.73,1.73,0,0,1,1.8-1.28,1.87,1.87,0,0,1,1.94,1.29A4.89,4.89,0,0,1,19.5,56.09Z"/><path class="e" d="M27.22,56.09a5.85,5.85,0,0,1-.09,1.09,1.77,1.77,0,0,1-1.85,1.42,1.68,1.68,0,0,1-1.9-1.36A5.94,5.94,0,0,1,23.33,56a4.8,4.8,0,0,1,.06-1.21,1.74,1.74,0,0,1,1.81-1.28,1.88,1.88,0,0,1,1.94,1.29A4.89,4.89,0,0,1,27.22,56.09Z"/><path class="e" d="M31.11,56.09A5.11,5.11,0,0,1,31,57.18a1.77,1.77,0,0,1-1.85,1.42,1.69,1.69,0,0,1-1.9-1.36A5.94,5.94,0,0,1,27.22,56a4.36,4.36,0,0,1,.07-1.21,1.72,1.72,0,0,1,1.8-1.28A1.88,1.88,0,0,1,31,54.8,4.89,4.89,0,0,1,31.11,56.09Z"/><path class="e" d="M19.46,56.11a6,6,0,0,0,.09,1.1,1.78,1.78,0,0,0,1.85,1.42,1.7,1.7,0,0,0,1.91-1.36,6,6,0,0,0,0-1.24,4.37,4.37,0,0,0-.06-1.21,1.73,1.73,0,0,0-1.81-1.28,1.81,1.81,0,0,0-1.95,1.19A5.63,5.63,0,0,0,19.46,56.11Z"/><path class="e" d="M4,56.09a5.92,5.92,0,0,1-.08,1.09A1.79,1.79,0,0,1,2.07,58.6a1.69,1.69,0,0,1-1.9-1.36A5.94,5.94,0,0,1,.12,56a4.78,4.78,0,0,1,.07-1.21A1.73,1.73,0,0,1,2,53.51,1.88,1.88,0,0,1,3.93,54.8,4.89,4.89,0,0,1,4,56.09Z"/><path class="e" d="M11.73,56.09a5.85,5.85,0,0,1-.09,1.09A1.78,1.78,0,0,1,9.79,58.6a1.69,1.69,0,0,1-1.91-1.36,6,6,0,0,1,0-1.24,4.37,4.37,0,0,1,.06-1.21,1.73,1.73,0,0,1,1.81-1.28,1.86,1.86,0,0,1,1.93,1.29A4.88,4.88,0,0,1,11.73,56.09Z"/><path class="e" d="M15.62,56.09a5.85,5.85,0,0,1-.09,1.09,1.78,1.78,0,0,1-1.85,1.42,1.68,1.68,0,0,1-1.9-1.36,5.33,5.33,0,0,1,0-1.24,4.37,4.37,0,0,1,.06-1.21,1.74,1.74,0,0,1,1.81-1.28,1.86,1.86,0,0,1,1.93,1.29A4.88,4.88,0,0,1,15.62,56.09Z"/><path class="e" d="M4,56.11a6,6,0,0,0,.09,1.1,1.77,1.77,0,0,0,1.85,1.42,1.69,1.69,0,0,0,1.9-1.36A5.35,5.35,0,0,0,7.86,56a4.8,4.8,0,0,0-.06-1.21A1.74,1.74,0,0,0,6,53.54,1.81,1.81,0,0,0,4,54.73,5.63,5.63,0,0,0,4,56.11Z"/><path class="e" d="M31.14,56.11a6,6,0,0,0,.08,1.1,1.79,1.79,0,0,0,1.86,1.42A1.7,1.7,0,0,0,35,57.27,6,6,0,0,0,35,56,4.78,4.78,0,0,0,35,54.82a1.73,1.73,0,0,0-1.8-1.28,1.83,1.83,0,0,0-2,1.19A6.19,6.19,0,0,0,31.14,56.11Z"/><path class="e" d="M60.56,56.1a5.26,5.26,0,0,0,.09,1.1,1.77,1.77,0,0,0,1.85,1.42,1.7,1.7,0,0,0,1.9-1.37,5.91,5.91,0,0,0,0-1.24,4.29,4.29,0,0,0-.07-1.2,1.7,1.7,0,0,0-1.8-1.28,1.8,1.8,0,0,0-1.95,1.18A5.74,5.74,0,0,0,60.56,56.1Z"/><path class="b" d="M19.5,62.77a6,6,0,0,1-.08,1.1,1.78,1.78,0,0,1-1.85,1.42,1.7,1.7,0,0,1-1.91-1.36,5.41,5.41,0,0,1,0-1.24,4.37,4.37,0,0,1,.06-1.21,1.73,1.73,0,0,1,1.8-1.28,1.86,1.86,0,0,1,1.94,1.29A4.82,4.82,0,0,1,19.5,62.77Z"/><path class="b" d="M27.22,62.77a6,6,0,0,1-.09,1.1,1.77,1.77,0,0,1-1.85,1.42,1.69,1.69,0,0,1-1.9-1.36,6,6,0,0,1-.05-1.24,4.8,4.8,0,0,1,.06-1.21A1.74,1.74,0,0,1,25.2,60.2a1.87,1.87,0,0,1,1.94,1.29A4.82,4.82,0,0,1,27.22,62.77Z"/><path class="b" d="M31.11,62.77a5.2,5.2,0,0,1-.09,1.1,1.77,1.77,0,0,1-1.85,1.42,1.7,1.7,0,0,1-1.9-1.36,6,6,0,0,1-.05-1.24,4.36,4.36,0,0,1,.07-1.21,1.72,1.72,0,0,1,1.8-1.28A1.87,1.87,0,0,1,31,61.49,4.82,4.82,0,0,1,31.11,62.77Z"/><path class="b" d="M19.46,62.8a5.85,5.85,0,0,0,.09,1.09,1.77,1.77,0,0,0,1.85,1.43A1.7,1.7,0,0,0,23.31,64a6,6,0,0,0,0-1.24,4.3,4.3,0,0,0-.06-1.2,1.71,1.71,0,0,0-1.81-1.28,1.81,1.81,0,0,0-1.95,1.18A5.74,5.74,0,0,0,19.46,62.8Z"/><path class="b" d="M4,62.77a6,6,0,0,1-.08,1.1,1.79,1.79,0,0,1-1.86,1.42,1.7,1.7,0,0,1-1.9-1.36,6,6,0,0,1-.05-1.24,4.78,4.78,0,0,1,.07-1.21A1.73,1.73,0,0,1,2,60.2a1.87,1.87,0,0,1,1.94,1.29A4.82,4.82,0,0,1,4,62.77Z"/><path class="b" d="M11.73,62.77a6,6,0,0,1-.09,1.1,1.78,1.78,0,0,1-1.85,1.42,1.7,1.7,0,0,1-1.91-1.36,6,6,0,0,1,0-1.24,4.37,4.37,0,0,1,.06-1.21A1.73,1.73,0,0,1,9.71,60.2a1.85,1.85,0,0,1,1.93,1.29A4.8,4.8,0,0,1,11.73,62.77Z"/><path class="b" d="M15.62,62.77a6,6,0,0,1-.09,1.1,1.78,1.78,0,0,1-1.85,1.42,1.68,1.68,0,0,1-1.9-1.36,5.35,5.35,0,0,1,0-1.24,4.37,4.37,0,0,1,.06-1.21A1.74,1.74,0,0,1,13.6,60.2a1.85,1.85,0,0,1,1.93,1.29A4.8,4.8,0,0,1,15.62,62.77Z"/><path class="b" d="M4,62.8a5.85,5.85,0,0,0,.09,1.09,1.77,1.77,0,0,0,1.85,1.43A1.69,1.69,0,0,0,7.81,64a5.3,5.3,0,0,0,.05-1.24,4.72,4.72,0,0,0-.06-1.2A1.72,1.72,0,0,0,6,60.23,1.8,1.8,0,0,0,4,61.41,5.74,5.74,0,0,0,4,62.8Z"/><path class="b" d="M31.14,62.8a5.92,5.92,0,0,0,.08,1.09,1.78,1.78,0,0,0,1.86,1.43A1.7,1.7,0,0,0,35,64,5.91,5.91,0,0,0,35,62.71a4.7,4.7,0,0,0-.07-1.2,1.71,1.71,0,0,0-1.8-1.28,1.82,1.82,0,0,0-2,1.18A6.31,6.31,0,0,0,31.14,62.8Z"/><path class="b" d="M60.56,62.8a5.11,5.11,0,0,0,.09,1.09,1.77,1.77,0,0,0,1.85,1.43A1.7,1.7,0,0,0,64.4,64a5.91,5.91,0,0,0,0-1.24,4.29,4.29,0,0,0-.07-1.2,1.7,1.7,0,0,0-1.8-1.28,1.8,1.8,0,0,0-1.95,1.18A5.74,5.74,0,0,0,60.56,62.8Z"/></svg>