<svg xmlns="http://www.w3.org/2000/svg" width="43.86" height="79.59" viewBox="0 0 43.86 79.59"><defs><style>.a{fill:#889bcf;}.b{fill:#86aca8;}.c{fill:#ffd69f;}.d{fill:#eb666a;}.e{fill:#fbf175;}</style></defs><title>introPattern</title><path class="a" d="M19.51,43.79a8.11,8.11,0,0,1,.1-1.38,2.24,2.24,0,0,1,2.33-1.78,2.12,2.12,0,0,1,2.39,1.71,6.87,6.87,0,0,1,.06,1.56,5.35,5.35,0,0,1-.08,1.51A2.16,2.16,0,0,1,22.05,47a2.34,2.34,0,0,1-2.44-1.62A6,6,0,0,1,19.51,43.79Z"/><path class="a" d="M9.82,43.79a8.11,8.11,0,0,1,.1-1.38,2.24,2.24,0,0,1,2.33-1.78,2.12,2.12,0,0,1,2.39,1.71,6.87,6.87,0,0,1,.06,1.56,5.35,5.35,0,0,1-.08,1.51A2.16,2.16,0,0,1,12.36,47,2.34,2.34,0,0,1,9.92,45.4,6,6,0,0,1,9.82,43.79Z"/><path class="a" d="M4.93,43.79A7.15,7.15,0,0,1,5,42.41a2.23,2.23,0,0,1,2.33-1.78,2.13,2.13,0,0,1,2.39,1.71,7.5,7.5,0,0,1,.06,1.56,5.74,5.74,0,0,1-.09,1.51A2.16,2.16,0,0,1,7.47,47,2.35,2.35,0,0,1,5,45.4,6.46,6.46,0,0,1,4.93,43.79Z"/><path class="a" d="M19.56,43.79a7.15,7.15,0,0,0-.11-1.38,2.23,2.23,0,0,0-2.33-1.78,2.13,2.13,0,0,0-2.39,1.71,7.5,7.5,0,0,0-.06,1.56,5.74,5.74,0,0,0,.09,1.51A2.16,2.16,0,0,0,17,47a2.27,2.27,0,0,0,2.45-1.49A7,7,0,0,0,19.56,43.79Z"/><path class="a" d="M39,43.79a7.15,7.15,0,0,1,.11-1.38,2.22,2.22,0,0,1,2.32-1.78,2.12,2.12,0,0,1,2.39,1.71,6.87,6.87,0,0,1,.06,1.56,5.35,5.35,0,0,1-.08,1.51A2.16,2.16,0,0,1,41.51,47a2.34,2.34,0,0,1-2.44-1.62A6,6,0,0,1,39,43.79Z"/><path class="a" d="M29.28,43.79a7.15,7.15,0,0,1,.11-1.38,2.22,2.22,0,0,1,2.32-1.78,2.12,2.12,0,0,1,2.39,1.71,6.87,6.87,0,0,1,.06,1.56,5.35,5.35,0,0,1-.08,1.51A2.16,2.16,0,0,1,31.82,47a2.34,2.34,0,0,1-2.44-1.62A6,6,0,0,1,29.28,43.79Z"/><path class="a" d="M24.39,43.79a7.15,7.15,0,0,1,.11-1.38,2.23,2.23,0,0,1,2.33-1.78,2.13,2.13,0,0,1,2.39,1.71,7.5,7.5,0,0,1,.06,1.56,5.74,5.74,0,0,1-.09,1.51A2.16,2.16,0,0,1,26.93,47a2.35,2.35,0,0,1-2.44-1.62A6.46,6.46,0,0,1,24.39,43.79Z"/><path class="a" d="M39,43.79a7.15,7.15,0,0,0-.11-1.38,2.23,2.23,0,0,0-2.33-1.78,2.13,2.13,0,0,0-2.39,1.71,7.5,7.5,0,0,0-.06,1.56,5.74,5.74,0,0,0,.09,1.51A2.16,2.16,0,0,0,36.48,47a2.27,2.27,0,0,0,2.45-1.49A7,7,0,0,0,39,43.79Z"/><path class="a" d="M4.89,43.79a7.2,7.2,0,0,0-.1-1.38,2.23,2.23,0,0,0-2.33-1.78A2.13,2.13,0,0,0,.07,42.34,7.5,7.5,0,0,0,0,43.9a5.35,5.35,0,0,0,.08,1.51A2.16,2.16,0,0,0,2.36,47a2.27,2.27,0,0,0,2.45-1.49A7.07,7.07,0,0,0,4.89,43.79Z"/><path class="b" d="M24.36,68.08a7.15,7.15,0,0,0-.11-1.38,2.23,2.23,0,0,0-2.33-1.78,2.13,2.13,0,0,0-2.39,1.71,7.5,7.5,0,0,0-.06,1.56,6.3,6.3,0,0,0,.08,1.52,2.17,2.17,0,0,0,2.27,1.6,2.34,2.34,0,0,0,2.43-1.62A6,6,0,0,0,24.36,68.08Z"/><path class="b" d="M34.05,68.08a7.15,7.15,0,0,0-.11-1.38,2.23,2.23,0,0,0-2.33-1.78,2.13,2.13,0,0,0-2.39,1.71,7.5,7.5,0,0,0-.06,1.56,6.3,6.3,0,0,0,.08,1.52,2.17,2.17,0,0,0,2.27,1.6,2.34,2.34,0,0,0,2.43-1.62A6,6,0,0,0,34.05,68.08Z"/><path class="b" d="M38.93,68.08a8.11,8.11,0,0,0-.1-1.38,2.23,2.23,0,0,0-2.33-1.78,2.12,2.12,0,0,0-2.39,1.71,7.5,7.5,0,0,0-.06,1.56,5.43,5.43,0,0,0,.08,1.52,2.17,2.17,0,0,0,2.27,1.6,2.34,2.34,0,0,0,2.43-1.62A6,6,0,0,0,38.93,68.08Z"/><path class="b" d="M24.31,68.08a8.11,8.11,0,0,1,.1-1.38,2.23,2.23,0,0,1,2.33-1.78,2.12,2.12,0,0,1,2.39,1.71,7.5,7.5,0,0,1,.06,1.56,5.43,5.43,0,0,1-.08,1.52,2.17,2.17,0,0,1-2.27,1.6,2.27,2.27,0,0,1-2.45-1.49A7,7,0,0,1,24.31,68.08Z"/><path class="b" d="M4.89,68.08a7.2,7.2,0,0,0-.1-1.38,2.23,2.23,0,0,0-2.33-1.78A2.13,2.13,0,0,0,.07,66.63,7.5,7.5,0,0,0,0,68.19a5.43,5.43,0,0,0,.08,1.52,2.17,2.17,0,0,0,2.27,1.6,2.34,2.34,0,0,0,2.43-1.62A6,6,0,0,0,4.89,68.08Z"/><path class="b" d="M14.58,68.08a7.2,7.2,0,0,0-.1-1.38,2.23,2.23,0,0,0-2.33-1.78,2.13,2.13,0,0,0-2.39,1.71,7.5,7.5,0,0,0-.06,1.56,5.43,5.43,0,0,0,.08,1.52,2.17,2.17,0,0,0,2.27,1.6,2.34,2.34,0,0,0,2.43-1.62A6,6,0,0,0,14.58,68.08Z"/><path class="b" d="M19.47,68.08a8.11,8.11,0,0,0-.1-1.38A2.23,2.23,0,0,0,17,64.92a2.12,2.12,0,0,0-2.39,1.71,7.5,7.5,0,0,0-.06,1.56,5.43,5.43,0,0,0,.08,1.52,2.17,2.17,0,0,0,2.27,1.6,2.34,2.34,0,0,0,2.43-1.62A6,6,0,0,0,19.47,68.08Z"/><path class="b" d="M4.85,68.08A7.2,7.2,0,0,1,5,66.7a2.23,2.23,0,0,1,2.33-1.78,2.13,2.13,0,0,1,2.39,1.71,7.5,7.5,0,0,1,.06,1.56,6.3,6.3,0,0,1-.08,1.52,2.17,2.17,0,0,1-2.27,1.6,2.27,2.27,0,0,1-2.45-1.49A7,7,0,0,1,4.85,68.08Z"/><path class="b" d="M39,68.08a7.15,7.15,0,0,1,.11-1.38,2.22,2.22,0,0,1,2.32-1.78,2.12,2.12,0,0,1,2.39,1.71,6.87,6.87,0,0,1,.06,1.56,5.43,5.43,0,0,1-.08,1.52,2.16,2.16,0,0,1-2.26,1.6,2.29,2.29,0,0,1-2.46-1.49A7.56,7.56,0,0,1,39,68.08Z"/><path class="c" d="M24.36,60a7,7,0,0,0-.11-1.37,2.23,2.23,0,0,0-2.33-1.79,2.13,2.13,0,0,0-2.39,1.71,7.57,7.57,0,0,0-.06,1.56,6.3,6.3,0,0,0,.08,1.52,2.16,2.16,0,0,0,2.27,1.6,2.34,2.34,0,0,0,2.43-1.62A5.94,5.94,0,0,0,24.36,60Z"/><path class="c" d="M34.05,60a7,7,0,0,0-.11-1.37,2.23,2.23,0,0,0-2.33-1.79,2.13,2.13,0,0,0-2.39,1.71,7.57,7.57,0,0,0-.06,1.56,6.3,6.3,0,0,0,.08,1.52,2.16,2.16,0,0,0,2.27,1.6,2.34,2.34,0,0,0,2.43-1.62A5.94,5.94,0,0,0,34.05,60Z"/><path class="c" d="M38.93,60a7.91,7.91,0,0,0-.1-1.37,2.23,2.23,0,0,0-2.33-1.79,2.12,2.12,0,0,0-2.39,1.71,7.57,7.57,0,0,0-.06,1.56,5.43,5.43,0,0,0,.08,1.52,2.16,2.16,0,0,0,2.27,1.6,2.34,2.34,0,0,0,2.43-1.62A6,6,0,0,0,38.93,60Z"/><path class="c" d="M24.31,60a7.91,7.91,0,0,1,.1-1.37,2.23,2.23,0,0,1,2.33-1.79,2.12,2.12,0,0,1,2.39,1.71,7.57,7.57,0,0,1,.06,1.56,5.43,5.43,0,0,1-.08,1.52,2.16,2.16,0,0,1-2.27,1.6,2.27,2.27,0,0,1-2.45-1.49A7,7,0,0,1,24.31,60Z"/><path class="c" d="M4.89,60a7,7,0,0,0-.1-1.37,2.23,2.23,0,0,0-2.33-1.79A2.13,2.13,0,0,0,.07,58.53,7.57,7.57,0,0,0,0,60.09a5.43,5.43,0,0,0,.08,1.52,2.16,2.16,0,0,0,2.27,1.6,2.34,2.34,0,0,0,2.43-1.62A6,6,0,0,0,4.89,60Z"/><path class="c" d="M14.58,60a7,7,0,0,0-.1-1.37,2.23,2.23,0,0,0-2.33-1.79,2.13,2.13,0,0,0-2.39,1.71,7.57,7.57,0,0,0-.06,1.56,5.43,5.43,0,0,0,.08,1.52,2.16,2.16,0,0,0,2.27,1.6,2.34,2.34,0,0,0,2.43-1.62A6,6,0,0,0,14.58,60Z"/><path class="c" d="M19.47,60a7.91,7.91,0,0,0-.1-1.37A2.23,2.23,0,0,0,17,56.82a2.12,2.12,0,0,0-2.39,1.71,7.57,7.57,0,0,0-.06,1.56,5.43,5.43,0,0,0,.08,1.52,2.16,2.16,0,0,0,2.27,1.6,2.34,2.34,0,0,0,2.43-1.62A6,6,0,0,0,19.47,60Z"/><path class="c" d="M4.85,60A7,7,0,0,1,5,58.61a2.23,2.23,0,0,1,2.33-1.79,2.13,2.13,0,0,1,2.39,1.71,7.57,7.57,0,0,1,.06,1.56,6.3,6.3,0,0,1-.08,1.52,2.16,2.16,0,0,1-2.27,1.6,2.27,2.27,0,0,1-2.45-1.49A7,7,0,0,1,4.85,60Z"/><path class="c" d="M38.91,60a7.91,7.91,0,0,1,.1-1.37,2.24,2.24,0,0,1,2.33-1.79,2.12,2.12,0,0,1,2.39,1.71,6.93,6.93,0,0,1,.06,1.56,5.43,5.43,0,0,1-.08,1.52,2.15,2.15,0,0,1-2.26,1.6A2.29,2.29,0,0,1,39,61.72,7.53,7.53,0,0,1,38.91,60Z"/><path class="d" d="M24.36,51.88a7,7,0,0,0-.11-1.37,2.24,2.24,0,0,0-2.33-1.79,2.13,2.13,0,0,0-2.39,1.71A7.57,7.57,0,0,0,19.47,52a6.3,6.3,0,0,0,.08,1.52,2.17,2.17,0,0,0,2.27,1.61,2.36,2.36,0,0,0,2.43-1.63A5.94,5.94,0,0,0,24.36,51.88Z"/><path class="d" d="M34.05,51.88a7,7,0,0,0-.11-1.37,2.24,2.24,0,0,0-2.33-1.79,2.13,2.13,0,0,0-2.39,1.71A7.57,7.57,0,0,0,29.16,52a6.3,6.3,0,0,0,.08,1.52,2.17,2.17,0,0,0,2.27,1.61,2.36,2.36,0,0,0,2.43-1.63A5.94,5.94,0,0,0,34.05,51.88Z"/><path class="d" d="M38.93,51.88a8,8,0,0,0-.1-1.37,2.24,2.24,0,0,0-2.33-1.79,2.12,2.12,0,0,0-2.39,1.71A7.57,7.57,0,0,0,34.05,52a5.43,5.43,0,0,0,.08,1.52,2.17,2.17,0,0,0,2.27,1.61,2.36,2.36,0,0,0,2.43-1.63A6,6,0,0,0,38.93,51.88Z"/><path class="d" d="M24.31,51.88a8,8,0,0,1,.1-1.37,2.24,2.24,0,0,1,2.33-1.79,2.12,2.12,0,0,1,2.39,1.71A7.57,7.57,0,0,1,29.19,52a5.43,5.43,0,0,1-.08,1.52,2.17,2.17,0,0,1-2.27,1.61,2.29,2.29,0,0,1-2.45-1.5A7,7,0,0,1,24.31,51.88Z"/><path class="d" d="M4.89,51.88a7.09,7.09,0,0,0-.1-1.37,2.24,2.24,0,0,0-2.33-1.79A2.13,2.13,0,0,0,.07,50.43,7.57,7.57,0,0,0,0,52a5.43,5.43,0,0,0,.08,1.52,2.17,2.17,0,0,0,2.27,1.61,2.36,2.36,0,0,0,2.43-1.63A6,6,0,0,0,4.89,51.88Z"/><path class="d" d="M14.58,51.88a7.09,7.09,0,0,0-.1-1.37,2.24,2.24,0,0,0-2.33-1.79,2.13,2.13,0,0,0-2.39,1.71A7.57,7.57,0,0,0,9.7,52a5.43,5.43,0,0,0,.08,1.52,2.17,2.17,0,0,0,2.27,1.61,2.36,2.36,0,0,0,2.43-1.63A6,6,0,0,0,14.58,51.88Z"/><path class="d" d="M19.47,51.88a8,8,0,0,0-.1-1.37A2.24,2.24,0,0,0,17,48.72a2.12,2.12,0,0,0-2.39,1.71A7.57,7.57,0,0,0,14.59,52a5.43,5.43,0,0,0,.08,1.52,2.17,2.17,0,0,0,2.27,1.61,2.36,2.36,0,0,0,2.43-1.63A6,6,0,0,0,19.47,51.88Z"/><path class="d" d="M4.85,51.88A7.09,7.09,0,0,1,5,50.51a2.24,2.24,0,0,1,2.33-1.79,2.13,2.13,0,0,1,2.39,1.71A7.57,7.57,0,0,1,9.73,52a6.3,6.3,0,0,1-.08,1.52,2.17,2.17,0,0,1-2.27,1.61,2.29,2.29,0,0,1-2.45-1.5A7,7,0,0,1,4.85,51.88Z"/><path class="d" d="M39,51.88a7,7,0,0,1,.11-1.37,2.23,2.23,0,0,1,2.32-1.79,2.12,2.12,0,0,1,2.39,1.71A6.93,6.93,0,0,1,43.85,52a5.43,5.43,0,0,1-.08,1.52,2.17,2.17,0,0,1-2.26,1.61,2.3,2.3,0,0,1-2.46-1.5A7.53,7.53,0,0,1,39,51.88Z"/><path class="e" d="M24.36,76.36A7,7,0,0,0,24.25,75a2.23,2.23,0,0,0-2.33-1.79,2.13,2.13,0,0,0-2.39,1.71,7.57,7.57,0,0,0-.06,1.56A6.3,6.3,0,0,0,19.55,78a2.16,2.16,0,0,0,2.27,1.6A2.34,2.34,0,0,0,24.25,78,6,6,0,0,0,24.36,76.36Z"/><path class="e" d="M34.05,76.36A7,7,0,0,0,33.94,75a2.23,2.23,0,0,0-2.33-1.79,2.13,2.13,0,0,0-2.39,1.71,7.57,7.57,0,0,0-.06,1.56A6.3,6.3,0,0,0,29.24,78a2.16,2.16,0,0,0,2.27,1.6A2.34,2.34,0,0,0,33.94,78,6,6,0,0,0,34.05,76.36Z"/><path class="e" d="M38.93,76.36a7.91,7.91,0,0,0-.1-1.37A2.23,2.23,0,0,0,36.5,73.2a2.12,2.12,0,0,0-2.39,1.71,7.57,7.57,0,0,0-.06,1.56A5.43,5.43,0,0,0,34.13,78a2.16,2.16,0,0,0,2.27,1.6A2.34,2.34,0,0,0,38.83,78,6,6,0,0,0,38.93,76.36Z"/><path class="e" d="M24.31,76.36a7.91,7.91,0,0,1,.1-1.37,2.23,2.23,0,0,1,2.33-1.79,2.12,2.12,0,0,1,2.39,1.71,7.57,7.57,0,0,1,.06,1.56A5.43,5.43,0,0,1,29.11,78a2.16,2.16,0,0,1-2.27,1.6,2.27,2.27,0,0,1-2.45-1.49A7,7,0,0,1,24.31,76.36Z"/><path class="e" d="M4.89,76.36A7,7,0,0,0,4.79,75,2.23,2.23,0,0,0,2.46,73.2,2.13,2.13,0,0,0,.07,74.91,7.57,7.57,0,0,0,0,76.47,5.43,5.43,0,0,0,.09,78a2.16,2.16,0,0,0,2.27,1.6A2.34,2.34,0,0,0,4.79,78,6,6,0,0,0,4.89,76.36Z"/><path class="e" d="M14.58,76.36a7,7,0,0,0-.1-1.37,2.23,2.23,0,0,0-2.33-1.79,2.13,2.13,0,0,0-2.39,1.71,7.57,7.57,0,0,0-.06,1.56A5.43,5.43,0,0,0,9.78,78a2.16,2.16,0,0,0,2.27,1.6A2.34,2.34,0,0,0,14.48,78,6,6,0,0,0,14.58,76.36Z"/><path class="e" d="M19.47,76.36a7.91,7.91,0,0,0-.1-1.37A2.23,2.23,0,0,0,17,73.2a2.12,2.12,0,0,0-2.39,1.71,7.57,7.57,0,0,0-.06,1.56A5.43,5.43,0,0,0,14.67,78a2.16,2.16,0,0,0,2.27,1.6A2.34,2.34,0,0,0,19.37,78,6,6,0,0,0,19.47,76.36Z"/><path class="e" d="M4.85,76.36A7,7,0,0,1,5,75,2.23,2.23,0,0,1,7.28,73.2a2.13,2.13,0,0,1,2.39,1.71,7.57,7.57,0,0,1,.06,1.56A6.3,6.3,0,0,1,9.65,78a2.16,2.16,0,0,1-2.27,1.6A2.27,2.27,0,0,1,4.93,78.1,7,7,0,0,1,4.85,76.36Z"/><path class="e" d="M39,76.36A7,7,0,0,1,39.08,75,2.22,2.22,0,0,1,41.4,73.2a2.12,2.12,0,0,1,2.39,1.71,6.93,6.93,0,0,1,.06,1.56A5.43,5.43,0,0,1,43.77,78a2.15,2.15,0,0,1-2.26,1.6,2.29,2.29,0,0,1-2.46-1.49A7.56,7.56,0,0,1,39,76.36Z"/><path class="e" d="M24.36,35.69a7.15,7.15,0,0,0-.11-1.38,2.23,2.23,0,0,0-2.33-1.78,2.13,2.13,0,0,0-2.39,1.71,7.5,7.5,0,0,0-.06,1.56,6.3,6.3,0,0,0,.08,1.52,2.17,2.17,0,0,0,2.27,1.6,2.34,2.34,0,0,0,2.43-1.62A6,6,0,0,0,24.36,35.69Z"/><path class="e" d="M34.05,35.69a7.15,7.15,0,0,0-.11-1.38,2.23,2.23,0,0,0-2.33-1.78,2.13,2.13,0,0,0-2.39,1.71,7.5,7.5,0,0,0-.06,1.56,6.3,6.3,0,0,0,.08,1.52,2.17,2.17,0,0,0,2.27,1.6,2.34,2.34,0,0,0,2.43-1.62A6,6,0,0,0,34.05,35.69Z"/><path class="e" d="M38.93,35.69a8.11,8.11,0,0,0-.1-1.38,2.23,2.23,0,0,0-2.33-1.78,2.12,2.12,0,0,0-2.39,1.71,7.5,7.5,0,0,0-.06,1.56,5.43,5.43,0,0,0,.08,1.52,2.17,2.17,0,0,0,2.27,1.6,2.34,2.34,0,0,0,2.43-1.62A6,6,0,0,0,38.93,35.69Z"/><path class="e" d="M24.31,35.69a8.11,8.11,0,0,1,.1-1.38,2.23,2.23,0,0,1,2.33-1.78,2.12,2.12,0,0,1,2.39,1.71,7.5,7.5,0,0,1,.06,1.56,5.43,5.43,0,0,1-.08,1.52,2.17,2.17,0,0,1-2.27,1.6,2.27,2.27,0,0,1-2.45-1.49A7.07,7.07,0,0,1,24.31,35.69Z"/><path class="e" d="M4.89,35.69a7.2,7.2,0,0,0-.1-1.38,2.23,2.23,0,0,0-2.33-1.78A2.13,2.13,0,0,0,.07,34.24,7.5,7.5,0,0,0,0,35.8a5.43,5.43,0,0,0,.08,1.52,2.17,2.17,0,0,0,2.27,1.6A2.34,2.34,0,0,0,4.79,37.3,6,6,0,0,0,4.89,35.69Z"/><path class="e" d="M14.58,35.69a7.2,7.2,0,0,0-.1-1.38,2.23,2.23,0,0,0-2.33-1.78,2.13,2.13,0,0,0-2.39,1.71A7.5,7.5,0,0,0,9.7,35.8a5.43,5.43,0,0,0,.08,1.52,2.17,2.17,0,0,0,2.27,1.6,2.34,2.34,0,0,0,2.43-1.62A6,6,0,0,0,14.58,35.69Z"/><path class="e" d="M19.47,35.69a8.11,8.11,0,0,0-.1-1.38A2.23,2.23,0,0,0,17,32.53a2.12,2.12,0,0,0-2.39,1.71,7.5,7.5,0,0,0-.06,1.56,5.43,5.43,0,0,0,.08,1.52,2.17,2.17,0,0,0,2.27,1.6,2.34,2.34,0,0,0,2.43-1.62A6,6,0,0,0,19.47,35.69Z"/><path class="e" d="M4.85,35.69A7.2,7.2,0,0,1,5,34.31a2.23,2.23,0,0,1,2.33-1.78,2.13,2.13,0,0,1,2.39,1.71,7.5,7.5,0,0,1,.06,1.56,6.3,6.3,0,0,1-.08,1.52,2.17,2.17,0,0,1-2.27,1.6,2.27,2.27,0,0,1-2.45-1.49A7.07,7.07,0,0,1,4.85,35.69Z"/><path class="e" d="M39,35.69a7.15,7.15,0,0,1,.11-1.38,2.22,2.22,0,0,1,2.32-1.78,2.12,2.12,0,0,1,2.39,1.71,6.87,6.87,0,0,1,.06,1.56,5.43,5.43,0,0,1-.08,1.52,2.16,2.16,0,0,1-2.26,1.6,2.29,2.29,0,0,1-2.46-1.49A7.59,7.59,0,0,1,39,35.69Z"/><path class="b" d="M24.36,27.59a7,7,0,0,0-.11-1.37,2.23,2.23,0,0,0-2.33-1.79,2.13,2.13,0,0,0-2.39,1.71,7.57,7.57,0,0,0-.06,1.56,6.3,6.3,0,0,0,.08,1.52,2.16,2.16,0,0,0,2.27,1.6,2.34,2.34,0,0,0,2.43-1.62A6,6,0,0,0,24.36,27.59Z"/><path class="b" d="M34.05,27.59a7,7,0,0,0-.11-1.37,2.23,2.23,0,0,0-2.33-1.79,2.13,2.13,0,0,0-2.39,1.71,7.57,7.57,0,0,0-.06,1.56,6.3,6.3,0,0,0,.08,1.52,2.16,2.16,0,0,0,2.27,1.6,2.34,2.34,0,0,0,2.43-1.62A6,6,0,0,0,34.05,27.59Z"/><path class="b" d="M38.93,27.59a7.91,7.91,0,0,0-.1-1.37,2.23,2.23,0,0,0-2.33-1.79,2.12,2.12,0,0,0-2.39,1.71,7.57,7.57,0,0,0-.06,1.56,5.43,5.43,0,0,0,.08,1.52,2.16,2.16,0,0,0,2.27,1.6,2.34,2.34,0,0,0,2.43-1.62A6,6,0,0,0,38.93,27.59Z"/><path class="b" d="M24.31,27.59a7.91,7.91,0,0,1,.1-1.37,2.23,2.23,0,0,1,2.33-1.79,2.12,2.12,0,0,1,2.39,1.71,7.57,7.57,0,0,1,.06,1.56,5.43,5.43,0,0,1-.08,1.52,2.16,2.16,0,0,1-2.27,1.6,2.27,2.27,0,0,1-2.45-1.49A7,7,0,0,1,24.31,27.59Z"/><path class="b" d="M4.89,27.59a7,7,0,0,0-.1-1.37,2.23,2.23,0,0,0-2.33-1.79A2.13,2.13,0,0,0,.07,26.14,7.57,7.57,0,0,0,0,27.7a5.43,5.43,0,0,0,.08,1.52,2.16,2.16,0,0,0,2.27,1.6A2.34,2.34,0,0,0,4.79,29.2,6,6,0,0,0,4.89,27.59Z"/><path class="b" d="M14.58,27.59a7,7,0,0,0-.1-1.37,2.23,2.23,0,0,0-2.33-1.79,2.13,2.13,0,0,0-2.39,1.71A7.57,7.57,0,0,0,9.7,27.7a5.43,5.43,0,0,0,.08,1.52,2.16,2.16,0,0,0,2.27,1.6,2.34,2.34,0,0,0,2.43-1.62A6,6,0,0,0,14.58,27.59Z"/><path class="b" d="M19.47,27.59a7.91,7.91,0,0,0-.1-1.37A2.23,2.23,0,0,0,17,24.43a2.12,2.12,0,0,0-2.39,1.71,7.57,7.57,0,0,0-.06,1.56,5.43,5.43,0,0,0,.08,1.52,2.16,2.16,0,0,0,2.27,1.6,2.34,2.34,0,0,0,2.43-1.62A6,6,0,0,0,19.47,27.59Z"/><path class="b" d="M4.85,27.59A7,7,0,0,1,5,26.22a2.23,2.23,0,0,1,2.33-1.79,2.13,2.13,0,0,1,2.39,1.71,7.57,7.57,0,0,1,.06,1.56,6.3,6.3,0,0,1-.08,1.52,2.16,2.16,0,0,1-2.27,1.6,2.27,2.27,0,0,1-2.45-1.49A7,7,0,0,1,4.85,27.59Z"/><path class="b" d="M39,27.59a7,7,0,0,1,.11-1.37,2.22,2.22,0,0,1,2.32-1.79,2.12,2.12,0,0,1,2.39,1.71,6.93,6.93,0,0,1,.06,1.56,5.43,5.43,0,0,1-.08,1.52,2.15,2.15,0,0,1-2.26,1.6,2.29,2.29,0,0,1-2.46-1.49A7.53,7.53,0,0,1,39,27.59Z"/><path class="c" d="M24.36,19.49a7,7,0,0,0-.11-1.37,2.24,2.24,0,0,0-2.33-1.79A2.13,2.13,0,0,0,19.53,18a7.57,7.57,0,0,0-.06,1.56,6.3,6.3,0,0,0,.08,1.52,2.17,2.17,0,0,0,2.27,1.61,2.36,2.36,0,0,0,2.43-1.63A5.94,5.94,0,0,0,24.36,19.49Z"/><path class="c" d="M34.05,19.49a7,7,0,0,0-.11-1.37,2.24,2.24,0,0,0-2.33-1.79A2.13,2.13,0,0,0,29.22,18a7.57,7.57,0,0,0-.06,1.56,6.3,6.3,0,0,0,.08,1.52,2.17,2.17,0,0,0,2.27,1.61,2.36,2.36,0,0,0,2.43-1.63A5.94,5.94,0,0,0,34.05,19.49Z"/><path class="c" d="M38.93,19.49a8,8,0,0,0-.1-1.37,2.24,2.24,0,0,0-2.33-1.79A2.12,2.12,0,0,0,34.11,18a7.57,7.57,0,0,0-.06,1.56,5.43,5.43,0,0,0,.08,1.52,2.17,2.17,0,0,0,2.27,1.61,2.36,2.36,0,0,0,2.43-1.63A6,6,0,0,0,38.93,19.49Z"/><path class="c" d="M24.31,19.49a8,8,0,0,1,.1-1.37,2.24,2.24,0,0,1,2.33-1.79A2.12,2.12,0,0,1,29.13,18a7.57,7.57,0,0,1,.06,1.56,5.43,5.43,0,0,1-.08,1.52,2.17,2.17,0,0,1-2.27,1.61,2.29,2.29,0,0,1-2.45-1.5A7,7,0,0,1,24.31,19.49Z"/><path class="c" d="M4.89,19.49a7.09,7.09,0,0,0-.1-1.37,2.24,2.24,0,0,0-2.33-1.79A2.13,2.13,0,0,0,.07,18,7.57,7.57,0,0,0,0,19.6a5.43,5.43,0,0,0,.08,1.52,2.17,2.17,0,0,0,2.27,1.61A2.36,2.36,0,0,0,4.79,21.1,6,6,0,0,0,4.89,19.49Z"/><path class="c" d="M14.58,19.49a7.09,7.09,0,0,0-.1-1.37,2.24,2.24,0,0,0-2.33-1.79A2.13,2.13,0,0,0,9.76,18,7.57,7.57,0,0,0,9.7,19.6a5.43,5.43,0,0,0,.08,1.52,2.17,2.17,0,0,0,2.27,1.61,2.36,2.36,0,0,0,2.43-1.63A6,6,0,0,0,14.58,19.49Z"/><path class="c" d="M19.47,19.49a8,8,0,0,0-.1-1.37A2.24,2.24,0,0,0,17,16.33,2.12,2.12,0,0,0,14.65,18a7.57,7.57,0,0,0-.06,1.56,5.43,5.43,0,0,0,.08,1.52,2.17,2.17,0,0,0,2.27,1.61,2.36,2.36,0,0,0,2.43-1.63A6,6,0,0,0,19.47,19.49Z"/><path class="c" d="M4.85,19.49A7.09,7.09,0,0,1,5,18.12a2.24,2.24,0,0,1,2.33-1.79A2.13,2.13,0,0,1,9.67,18a7.57,7.57,0,0,1,.06,1.56,6.3,6.3,0,0,1-.08,1.52,2.17,2.17,0,0,1-2.27,1.61,2.29,2.29,0,0,1-2.45-1.5A7,7,0,0,1,4.85,19.49Z"/><path class="c" d="M39,19.49a7,7,0,0,1,.11-1.37,2.23,2.23,0,0,1,2.32-1.79A2.12,2.12,0,0,1,43.79,18a6.93,6.93,0,0,1,.06,1.56,5.43,5.43,0,0,1-.08,1.52,2.17,2.17,0,0,1-2.26,1.61,2.3,2.3,0,0,1-2.46-1.5A7.53,7.53,0,0,1,39,19.49Z"/><path class="d" d="M24.36,11.4A7.15,7.15,0,0,0,24.25,10a2.23,2.23,0,0,0-2.33-1.78A2.12,2.12,0,0,0,19.53,10a7.5,7.5,0,0,0-.06,1.56A6.21,6.21,0,0,0,19.55,13a2.16,2.16,0,0,0,2.27,1.61A2.35,2.35,0,0,0,24.25,13,6,6,0,0,0,24.36,11.4Z"/><path class="d" d="M34.05,11.4A7.15,7.15,0,0,0,33.94,10a2.23,2.23,0,0,0-2.33-1.78A2.12,2.12,0,0,0,29.22,10a7.5,7.5,0,0,0-.06,1.56A6.21,6.21,0,0,0,29.24,13a2.16,2.16,0,0,0,2.27,1.61A2.35,2.35,0,0,0,33.94,13,6,6,0,0,0,34.05,11.4Z"/><path class="d" d="M38.93,11.4a8.11,8.11,0,0,0-.1-1.38A2.23,2.23,0,0,0,36.5,8.24,2.11,2.11,0,0,0,34.11,10a7.5,7.5,0,0,0-.06,1.56A5.35,5.35,0,0,0,34.13,13a2.16,2.16,0,0,0,2.27,1.61A2.35,2.35,0,0,0,38.83,13,6,6,0,0,0,38.93,11.4Z"/><path class="d" d="M24.31,11.4a8.11,8.11,0,0,1,.1-1.38,2.23,2.23,0,0,1,2.33-1.78A2.12,2.12,0,0,1,29.13,10a7.5,7.5,0,0,1,.06,1.56A5.35,5.35,0,0,1,29.11,13a2.16,2.16,0,0,1-2.27,1.61,2.27,2.27,0,0,1-2.45-1.49A7.07,7.07,0,0,1,24.31,11.4Z"/><path class="d" d="M4.89,11.4A7.2,7.2,0,0,0,4.79,10,2.23,2.23,0,0,0,2.46,8.24,2.12,2.12,0,0,0,.07,10,7.5,7.5,0,0,0,0,11.51,5.35,5.35,0,0,0,.09,13a2.16,2.16,0,0,0,2.27,1.61A2.35,2.35,0,0,0,4.79,13,6,6,0,0,0,4.89,11.4Z"/><path class="d" d="M14.58,11.4a7.2,7.2,0,0,0-.1-1.38,2.23,2.23,0,0,0-2.33-1.78A2.12,2.12,0,0,0,9.76,10a7.5,7.5,0,0,0-.06,1.56A5.35,5.35,0,0,0,9.78,13a2.16,2.16,0,0,0,2.27,1.61A2.35,2.35,0,0,0,14.48,13,6,6,0,0,0,14.58,11.4Z"/><path class="d" d="M19.47,11.4a8.11,8.11,0,0,0-.1-1.38A2.23,2.23,0,0,0,17,8.24,2.11,2.11,0,0,0,14.65,10a7.5,7.5,0,0,0-.06,1.56A5.35,5.35,0,0,0,14.67,13a2.16,2.16,0,0,0,2.27,1.61A2.35,2.35,0,0,0,19.37,13,6,6,0,0,0,19.47,11.4Z"/><path class="d" d="M4.85,11.4A7.2,7.2,0,0,1,5,10,2.23,2.23,0,0,1,7.28,8.24,2.12,2.12,0,0,1,9.67,10a7.5,7.5,0,0,1,.06,1.56A6.21,6.21,0,0,1,9.65,13a2.16,2.16,0,0,1-2.27,1.61,2.27,2.27,0,0,1-2.45-1.49A7.07,7.07,0,0,1,4.85,11.4Z"/><path class="d" d="M39,11.4A7.15,7.15,0,0,1,39.08,10,2.22,2.22,0,0,1,41.4,8.24,2.11,2.11,0,0,1,43.79,10a6.87,6.87,0,0,1,.06,1.56A5.35,5.35,0,0,1,43.77,13a2.16,2.16,0,0,1-2.26,1.61,2.29,2.29,0,0,1-2.46-1.49A7.59,7.59,0,0,1,39,11.4Z"/><path class="a" d="M24.36,3.16a7,7,0,0,0-.11-1.37A2.23,2.23,0,0,0,21.92,0a2.13,2.13,0,0,0-2.39,1.71,7.57,7.57,0,0,0-.06,1.56,6.3,6.3,0,0,0,.08,1.52,2.16,2.16,0,0,0,2.27,1.6,2.34,2.34,0,0,0,2.43-1.62A6,6,0,0,0,24.36,3.16Z"/><path class="a" d="M34.05,3.16a7,7,0,0,0-.11-1.37A2.23,2.23,0,0,0,31.61,0a2.13,2.13,0,0,0-2.39,1.71,7.57,7.57,0,0,0-.06,1.56,6.3,6.3,0,0,0,.08,1.52,2.16,2.16,0,0,0,2.27,1.6,2.34,2.34,0,0,0,2.43-1.62A6,6,0,0,0,34.05,3.16Z"/><path class="a" d="M38.93,3.16a7.91,7.91,0,0,0-.1-1.37A2.23,2.23,0,0,0,36.5,0a2.12,2.12,0,0,0-2.39,1.71,7.57,7.57,0,0,0-.06,1.56,5.43,5.43,0,0,0,.08,1.52,2.16,2.16,0,0,0,2.27,1.6,2.34,2.34,0,0,0,2.43-1.62A6,6,0,0,0,38.93,3.16Z"/><path class="a" d="M24.31,3.16a7.91,7.91,0,0,1,.1-1.37A2.23,2.23,0,0,1,26.74,0a2.12,2.12,0,0,1,2.39,1.71,7.57,7.57,0,0,1,.06,1.56,5.43,5.43,0,0,1-.08,1.52,2.16,2.16,0,0,1-2.27,1.6A2.27,2.27,0,0,1,24.39,4.9,7,7,0,0,1,24.31,3.16Z"/><path class="a" d="M4.89,3.16a7,7,0,0,0-.1-1.37A2.23,2.23,0,0,0,2.46,0,2.13,2.13,0,0,0,.07,1.71,7.57,7.57,0,0,0,0,3.27,5.43,5.43,0,0,0,.09,4.79a2.16,2.16,0,0,0,2.27,1.6A2.34,2.34,0,0,0,4.79,4.77,6,6,0,0,0,4.89,3.16Z"/><path class="a" d="M14.58,3.16a7,7,0,0,0-.1-1.37A2.23,2.23,0,0,0,12.15,0,2.13,2.13,0,0,0,9.76,1.71,7.57,7.57,0,0,0,9.7,3.27a5.43,5.43,0,0,0,.08,1.52,2.16,2.16,0,0,0,2.27,1.6,2.34,2.34,0,0,0,2.43-1.62A6,6,0,0,0,14.58,3.16Z"/><path class="a" d="M19.47,3.16a7.91,7.91,0,0,0-.1-1.37A2.23,2.23,0,0,0,17,0a2.12,2.12,0,0,0-2.39,1.71,7.57,7.57,0,0,0-.06,1.56,5.43,5.43,0,0,0,.08,1.52,2.16,2.16,0,0,0,2.27,1.6,2.34,2.34,0,0,0,2.43-1.62A6,6,0,0,0,19.47,3.16Z"/><path class="a" d="M4.85,3.16A7,7,0,0,1,5,1.79,2.23,2.23,0,0,1,7.28,0,2.13,2.13,0,0,1,9.67,1.71a7.57,7.57,0,0,1,.06,1.56,6.3,6.3,0,0,1-.08,1.52,2.16,2.16,0,0,1-2.27,1.6A2.27,2.27,0,0,1,4.93,4.9,7,7,0,0,1,4.85,3.16Z"/><path class="a" d="M39,3.16a7,7,0,0,1,.11-1.37A2.22,2.22,0,0,1,41.4,0a2.12,2.12,0,0,1,2.39,1.71,6.93,6.93,0,0,1,.06,1.56,5.43,5.43,0,0,1-.08,1.52,2.15,2.15,0,0,1-2.26,1.6A2.29,2.29,0,0,1,39.05,4.9,7.56,7.56,0,0,1,39,3.16Z"/></svg>