<svg xmlns="http://www.w3.org/2000/svg" width="175.15" height="6.39" viewBox="0 0 175.15 6.39"><defs><style>.a{fill:#eb666a;}</style></defs><title>Asset 172</title><path class="a" d="M155.64,3.16a7.91,7.91,0,0,0-.1-1.37A2.23,2.23,0,0,0,153.21,0a2.12,2.12,0,0,0-2.39,1.71,7.57,7.57,0,0,0-.06,1.56,5.43,5.43,0,0,0,.08,1.52,2.16,2.16,0,0,0,2.27,1.6,2.34,2.34,0,0,0,2.43-1.62A6,6,0,0,0,155.64,3.16Z"/><path class="a" d="M165.33,3.16a7.91,7.91,0,0,0-.1-1.37A2.23,2.23,0,0,0,162.9,0a2.12,2.12,0,0,0-2.39,1.71,7.57,7.57,0,0,0-.06,1.56,5.43,5.43,0,0,0,.08,1.52,2.16,2.16,0,0,0,2.27,1.6,2.34,2.34,0,0,0,2.43-1.62A6,6,0,0,0,165.33,3.16Z"/><path class="a" d="M170.22,3.16a7.91,7.91,0,0,0-.1-1.37A2.24,2.24,0,0,0,167.79,0a2.12,2.12,0,0,0-2.39,1.71,6.93,6.93,0,0,0-.06,1.56,5.43,5.43,0,0,0,.08,1.52,2.15,2.15,0,0,0,2.26,1.6,2.34,2.34,0,0,0,2.44-1.62A6,6,0,0,0,170.22,3.16Z"/><path class="a" d="M155.59,3.16a7,7,0,0,1,.11-1.37A2.23,2.23,0,0,1,158,0a2.13,2.13,0,0,1,2.39,1.71,7.57,7.57,0,0,1,.06,1.56,6.3,6.3,0,0,1-.08,1.52,2.16,2.16,0,0,1-2.27,1.6,2.27,2.27,0,0,1-2.45-1.49A7,7,0,0,1,155.59,3.16Z"/><path class="a" d="M136.18,3.16a7.91,7.91,0,0,0-.1-1.37A2.23,2.23,0,0,0,133.75,0a2.12,2.12,0,0,0-2.39,1.71,7.57,7.57,0,0,0-.06,1.56,5.43,5.43,0,0,0,.08,1.52,2.16,2.16,0,0,0,2.27,1.6,2.34,2.34,0,0,0,2.43-1.62A6,6,0,0,0,136.18,3.16Z"/><path class="a" d="M145.87,3.16a7.91,7.91,0,0,0-.1-1.37A2.23,2.23,0,0,0,143.44,0a2.12,2.12,0,0,0-2.39,1.71A7.57,7.57,0,0,0,141,3.27a5.43,5.43,0,0,0,.08,1.52,2.16,2.16,0,0,0,2.27,1.6,2.34,2.34,0,0,0,2.43-1.62A6,6,0,0,0,145.87,3.16Z"/><path class="a" d="M150.76,3.16a7,7,0,0,0-.11-1.37A2.22,2.22,0,0,0,148.33,0a2.12,2.12,0,0,0-2.39,1.71,6.93,6.93,0,0,0-.06,1.56A5.43,5.43,0,0,0,146,4.79a2.15,2.15,0,0,0,2.26,1.6,2.34,2.34,0,0,0,2.44-1.62A6,6,0,0,0,150.76,3.16Z"/><path class="a" d="M136.13,3.16a7,7,0,0,1,.11-1.37A2.23,2.23,0,0,1,138.57,0,2.13,2.13,0,0,1,141,1.71,7.57,7.57,0,0,1,141,3.27a6.3,6.3,0,0,1-.08,1.52,2.16,2.16,0,0,1-2.27,1.6,2.27,2.27,0,0,1-2.45-1.49A7,7,0,0,1,136.13,3.16Z"/><path class="a" d="M170.26,3.16a7.91,7.91,0,0,1,.1-1.37A2.23,2.23,0,0,1,172.69,0a2.12,2.12,0,0,1,2.39,1.71,7.57,7.57,0,0,1,.06,1.56,5.43,5.43,0,0,1-.08,1.52,2.16,2.16,0,0,1-2.27,1.6,2.27,2.27,0,0,1-2.45-1.49A7,7,0,0,1,170.26,3.16Z"/><path class="a" d="M111.93,3.16a7,7,0,0,0-.11-1.37A2.23,2.23,0,0,0,109.49,0a2.13,2.13,0,0,0-2.39,1.71A7.57,7.57,0,0,0,107,3.27a6.3,6.3,0,0,0,.08,1.52,2.16,2.16,0,0,0,2.27,1.6,2.34,2.34,0,0,0,2.43-1.62A6,6,0,0,0,111.93,3.16Z"/><path class="a" d="M121.62,3.16a7,7,0,0,0-.11-1.37A2.23,2.23,0,0,0,119.18,0a2.13,2.13,0,0,0-2.39,1.71,7.57,7.57,0,0,0-.06,1.56,6.3,6.3,0,0,0,.08,1.52,2.16,2.16,0,0,0,2.27,1.6,2.34,2.34,0,0,0,2.43-1.62A6,6,0,0,0,121.62,3.16Z"/><path class="a" d="M126.5,3.16a7.91,7.91,0,0,0-.1-1.37A2.23,2.23,0,0,0,124.07,0a2.12,2.12,0,0,0-2.39,1.71,7.57,7.57,0,0,0-.06,1.56,5.43,5.43,0,0,0,.08,1.52A2.16,2.16,0,0,0,124,6.39a2.34,2.34,0,0,0,2.43-1.62A6,6,0,0,0,126.5,3.16Z"/><path class="a" d="M111.88,3.16a7.91,7.91,0,0,1,.1-1.37A2.23,2.23,0,0,1,114.31,0a2.12,2.12,0,0,1,2.39,1.71,7.57,7.57,0,0,1,.06,1.56,5.43,5.43,0,0,1-.08,1.52,2.16,2.16,0,0,1-2.27,1.6A2.27,2.27,0,0,1,112,4.9,7,7,0,0,1,111.88,3.16Z"/><path class="a" d="M92.47,3.16a7,7,0,0,0-.11-1.37A2.23,2.23,0,0,0,90,0a2.13,2.13,0,0,0-2.39,1.71,7.57,7.57,0,0,0-.06,1.56,6.3,6.3,0,0,0,.08,1.52,2.16,2.16,0,0,0,2.27,1.6,2.34,2.34,0,0,0,2.43-1.62A6,6,0,0,0,92.47,3.16Z"/><path class="a" d="M102.16,3.16a7,7,0,0,0-.11-1.37A2.23,2.23,0,0,0,99.72,0a2.13,2.13,0,0,0-2.39,1.71,7.57,7.57,0,0,0-.06,1.56,6.3,6.3,0,0,0,.08,1.52,2.16,2.16,0,0,0,2.27,1.6,2.34,2.34,0,0,0,2.43-1.62A6,6,0,0,0,102.16,3.16Z"/><path class="a" d="M107,3.16a7.91,7.91,0,0,0-.1-1.37A2.23,2.23,0,0,0,104.61,0a2.12,2.12,0,0,0-2.39,1.71,7.57,7.57,0,0,0-.06,1.56,5.43,5.43,0,0,0,.08,1.52,2.16,2.16,0,0,0,2.27,1.6,2.34,2.34,0,0,0,2.43-1.62A6,6,0,0,0,107,3.16Z"/><path class="a" d="M92.42,3.16a7.91,7.91,0,0,1,.1-1.37A2.23,2.23,0,0,1,94.85,0a2.12,2.12,0,0,1,2.39,1.71,7.57,7.57,0,0,1,.06,1.56,5.43,5.43,0,0,1-.08,1.52A2.16,2.16,0,0,1,95,6.39,2.27,2.27,0,0,1,92.5,4.9,7,7,0,0,1,92.42,3.16Z"/><path class="a" d="M126.54,3.16a7,7,0,0,1,.11-1.37A2.22,2.22,0,0,1,129,0a2.13,2.13,0,0,1,2.4,1.71,7,7,0,0,1,0,1.56,5.43,5.43,0,0,1-.08,1.52,2.15,2.15,0,0,1-2.26,1.6,2.29,2.29,0,0,1-2.46-1.49A7.56,7.56,0,0,1,126.54,3.16Z"/><path class="a" d="M68.07,3.16A7.91,7.91,0,0,0,68,1.79,2.23,2.23,0,0,0,65.64,0a2.12,2.12,0,0,0-2.39,1.71,7.57,7.57,0,0,0-.06,1.56,5.43,5.43,0,0,0,.08,1.52,2.16,2.16,0,0,0,2.27,1.6A2.34,2.34,0,0,0,68,4.77,6,6,0,0,0,68.07,3.16Z"/><path class="a" d="M77.76,3.16a7.91,7.91,0,0,0-.1-1.37A2.23,2.23,0,0,0,75.33,0a2.12,2.12,0,0,0-2.39,1.71,7.57,7.57,0,0,0-.06,1.56A5.43,5.43,0,0,0,73,4.79a2.16,2.16,0,0,0,2.27,1.6,2.34,2.34,0,0,0,2.43-1.62A6,6,0,0,0,77.76,3.16Z"/><path class="a" d="M82.65,3.16a7,7,0,0,0-.11-1.37A2.22,2.22,0,0,0,80.22,0a2.12,2.12,0,0,0-2.39,1.71,6.93,6.93,0,0,0-.06,1.56,5.43,5.43,0,0,0,.08,1.52,2.15,2.15,0,0,0,2.26,1.6,2.34,2.34,0,0,0,2.44-1.62A6,6,0,0,0,82.65,3.16Z"/><path class="a" d="M68,3.16a7,7,0,0,1,.11-1.37A2.23,2.23,0,0,1,70.46,0a2.13,2.13,0,0,1,2.39,1.71,7.57,7.57,0,0,1,.06,1.56,6.3,6.3,0,0,1-.08,1.52,2.16,2.16,0,0,1-2.27,1.6A2.27,2.27,0,0,1,68.11,4.9,7,7,0,0,1,68,3.16Z"/><path class="a" d="M48.61,3.16a7.91,7.91,0,0,0-.1-1.37A2.24,2.24,0,0,0,46.18,0a2.12,2.12,0,0,0-2.39,1.71,6.93,6.93,0,0,0-.06,1.56,5.43,5.43,0,0,0,.08,1.52,2.16,2.16,0,0,0,2.27,1.6,2.34,2.34,0,0,0,2.43-1.62A6,6,0,0,0,48.61,3.16Z"/><path class="a" d="M58.3,3.16a7.91,7.91,0,0,0-.1-1.37A2.24,2.24,0,0,0,55.87,0a2.12,2.12,0,0,0-2.39,1.71,6.93,6.93,0,0,0-.06,1.56,5.43,5.43,0,0,0,.08,1.52,2.16,2.16,0,0,0,2.27,1.6A2.34,2.34,0,0,0,58.2,4.77,6,6,0,0,0,58.3,3.16Z"/><path class="a" d="M63.19,3.16a7,7,0,0,0-.11-1.37A2.22,2.22,0,0,0,60.76,0a2.13,2.13,0,0,0-2.4,1.71,7,7,0,0,0,0,1.56,5.43,5.43,0,0,0,.08,1.52,2.15,2.15,0,0,0,2.26,1.6,2.35,2.35,0,0,0,2.44-1.62A6.43,6.43,0,0,0,63.19,3.16Z"/><path class="a" d="M48.56,3.16a7,7,0,0,1,.11-1.37A2.23,2.23,0,0,1,51,0a2.13,2.13,0,0,1,2.39,1.71,7.57,7.57,0,0,1,.06,1.56,6.3,6.3,0,0,1-.08,1.52,2.16,2.16,0,0,1-2.27,1.6A2.27,2.27,0,0,1,48.65,4.9,7,7,0,0,1,48.56,3.16Z"/><path class="a" d="M82.69,3.16a7.91,7.91,0,0,1,.1-1.37A2.23,2.23,0,0,1,85.12,0a2.12,2.12,0,0,1,2.39,1.71,7.57,7.57,0,0,1,.06,1.56,5.43,5.43,0,0,1-.08,1.52,2.16,2.16,0,0,1-2.27,1.6A2.27,2.27,0,0,1,82.77,4.9,7,7,0,0,1,82.69,3.16Z"/><path class="a" d="M24.36,3.16a7,7,0,0,0-.11-1.37A2.23,2.23,0,0,0,21.92,0a2.13,2.13,0,0,0-2.39,1.71,7.57,7.57,0,0,0-.06,1.56,6.3,6.3,0,0,0,.08,1.52,2.16,2.16,0,0,0,2.27,1.6,2.34,2.34,0,0,0,2.43-1.62A6,6,0,0,0,24.36,3.16Z"/><path class="a" d="M34.05,3.16a7,7,0,0,0-.11-1.37A2.23,2.23,0,0,0,31.61,0a2.13,2.13,0,0,0-2.39,1.71,7.57,7.57,0,0,0-.06,1.56,6.3,6.3,0,0,0,.08,1.52,2.16,2.16,0,0,0,2.27,1.6,2.34,2.34,0,0,0,2.43-1.62A6,6,0,0,0,34.05,3.16Z"/><path class="a" d="M38.93,3.16a7.91,7.91,0,0,0-.1-1.37A2.23,2.23,0,0,0,36.5,0a2.12,2.12,0,0,0-2.39,1.71,7.57,7.57,0,0,0-.06,1.56,5.43,5.43,0,0,0,.08,1.52,2.16,2.16,0,0,0,2.27,1.6,2.34,2.34,0,0,0,2.43-1.62A6,6,0,0,0,38.93,3.16Z"/><path class="a" d="M24.31,3.16a7.91,7.91,0,0,1,.1-1.37A2.23,2.23,0,0,1,26.74,0a2.12,2.12,0,0,1,2.39,1.71,7.57,7.57,0,0,1,.06,1.56,5.43,5.43,0,0,1-.08,1.52,2.16,2.16,0,0,1-2.27,1.6A2.27,2.27,0,0,1,24.39,4.9,7,7,0,0,1,24.31,3.16Z"/><path class="a" d="M4.89,3.16a7,7,0,0,0-.1-1.37A2.23,2.23,0,0,0,2.46,0,2.13,2.13,0,0,0,.07,1.71,7.57,7.57,0,0,0,0,3.27,5.43,5.43,0,0,0,.09,4.79a2.16,2.16,0,0,0,2.27,1.6A2.34,2.34,0,0,0,4.79,4.77,6,6,0,0,0,4.89,3.16Z"/><path class="a" d="M14.58,3.16a7,7,0,0,0-.1-1.37A2.23,2.23,0,0,0,12.15,0,2.13,2.13,0,0,0,9.76,1.71,7.57,7.57,0,0,0,9.7,3.27a5.43,5.43,0,0,0,.08,1.52,2.16,2.16,0,0,0,2.27,1.6,2.34,2.34,0,0,0,2.43-1.62A6,6,0,0,0,14.58,3.16Z"/><path class="a" d="M19.47,3.16a7.91,7.91,0,0,0-.1-1.37A2.23,2.23,0,0,0,17,0a2.12,2.12,0,0,0-2.39,1.71,7.57,7.57,0,0,0-.06,1.56,5.43,5.43,0,0,0,.08,1.52,2.16,2.16,0,0,0,2.27,1.6,2.34,2.34,0,0,0,2.43-1.62A6,6,0,0,0,19.47,3.16Z"/><path class="a" d="M4.85,3.16A7,7,0,0,1,5,1.79,2.23,2.23,0,0,1,7.28,0,2.13,2.13,0,0,1,9.67,1.71a7.57,7.57,0,0,1,.06,1.56,6.3,6.3,0,0,1-.08,1.52,2.16,2.16,0,0,1-2.27,1.6A2.27,2.27,0,0,1,4.93,4.9,7,7,0,0,1,4.85,3.16Z"/><path class="a" d="M39,3.16a7,7,0,0,1,.11-1.37A2.22,2.22,0,0,1,41.4,0a2.12,2.12,0,0,1,2.39,1.71,6.93,6.93,0,0,1,.06,1.56,5.43,5.43,0,0,1-.08,1.52,2.15,2.15,0,0,1-2.26,1.6A2.29,2.29,0,0,1,39.05,4.9,7.56,7.56,0,0,1,39,3.16Z"/></svg>